<?xml version="1.0" encoding="UTF-8" standalone="no"?>
<!DOCTYPE svg PUBLIC "-//W3C//DTD SVG 1.1//EN"
 "http://www.w3.org/Graphics/SVG/1.1/DTD/svg11.dtd">
<!-- Generated by graphviz version 8.0.3 (20230416.2022)
 -->
<!-- Title: dev.filechampion.filechampion4j.FileAclHelper.setNewPermissions Pages: 1 -->
<svg width="602pt" height="86pt"
 viewBox="0.00 0.00 602.00 86.00" xmlns="http://www.w3.org/2000/svg" xmlns:xlink="http://www.w3.org/1999/xlink">
<g id="graph0" class="graph" transform="scale(1 1) rotate(0) translate(4 82)">
<title>dev.filechampion.filechampion4j.FileAclHelper.setNewPermissions</title>
<!-- Node1 -->
<g id="node1" class="node">
<title>Node1</title>
<g id="a_node1"><a xlink:title=" ">
<polygon fill="#999999" stroke="#666666" points="164,-54 0,-54 0,-24 164,-24 164,-54"/>
<text text-anchor="start" x="8" y="-42" font-family="Helvetica,sans-Serif" font-size="10.00">dev.filechampion.filechampion4j.</text>
<text text-anchor="middle" x="82" y="-31" font-family="Helvetica,sans-Serif" font-size="10.00">FileAclHelper.setNewPermissions</text>
</a>
</g>
</g>
<!-- Node2 -->
<g id="node2" class="node">
<title>Node2</title>
<g id="a_node2"><a xlink:href="classdev_1_1filechampion_1_1filechampion4j_1_1_file_acl_helper.html#a957cd8f062521037c11e5d15d3785906" target="_top" xlink:title=" ">
<polygon fill="white" stroke="#666666" points="393,-78 210,-78 210,-48 393,-48 393,-78"/>
<text text-anchor="start" x="218" y="-66" font-family="Helvetica,sans-Serif" font-size="10.00">dev.filechampion.filechampion4j.</text>
<text text-anchor="middle" x="301.5" y="-55" font-family="Helvetica,sans-Serif" font-size="10.00">FileAclHelper.setNewPermissionsUnix</text>
</a>
</g>
</g>
<!-- Node1&#45;&gt;Node2 -->
<g id="edge1" class="edge">
<title>Node1&#45;&gt;Node2</title>
<path fill="none" stroke="#63b8ff" d="M164.3,-47.97C175.66,-49.22 187.45,-50.53 199.13,-51.81"/>
<polygon fill="#63b8ff" stroke="#63b8ff" points="198.48,-55.37 208.8,-52.99 199.25,-48.42 198.48,-55.37"/>
</g>
<!-- Node5 -->
<g id="node5" class="node">
<title>Node5</title>
<g id="a_node5"><a xlink:href="classdev_1_1filechampion_1_1filechampion4j_1_1_file_acl_helper.html#a5c4d050d4ddf432b45ffe49b48b20735" target="_top" xlink:title=" ">
<polygon fill="white" stroke="#666666" points="403,-30 200,-30 200,0 403,0 403,-30"/>
<text text-anchor="start" x="208" y="-18" font-family="Helvetica,sans-Serif" font-size="10.00">dev.filechampion.filechampion4j.</text>
<text text-anchor="middle" x="301.5" y="-7" font-family="Helvetica,sans-Serif" font-size="10.00">FileAclHelper.setNewPermissionsWindows</text>
</a>
</g>
</g>
<!-- Node1&#45;&gt;Node5 -->
<g id="edge4" class="edge">
<title>Node1&#45;&gt;Node5</title>
<path fill="none" stroke="#63b8ff" d="M164.3,-30.03C172.35,-29.14 180.62,-28.23 188.91,-27.31"/>
<polygon fill="#63b8ff" stroke="#63b8ff" points="189.25,-30.69 198.81,-26.11 188.48,-23.73 189.25,-30.69"/>
</g>
<!-- Node3 -->
<g id="node3" class="node">
<title>Node3</title>
<g id="a_node3"><a xlink:href="classdev_1_1filechampion_1_1filechampion4j_1_1_file_acl_helper.html#a73d0b85c677037db5ab4865e005bc756" target="_top" xlink:title=" ">
<polygon fill="white" stroke="#666666" points="594,-78 439,-78 439,-48 594,-48 594,-78"/>
<text text-anchor="start" x="447" y="-66" font-family="Helvetica,sans-Serif" font-size="10.00">dev.filechampion.filechampion4j.</text>
<text text-anchor="middle" x="516.5" y="-55" font-family="Helvetica,sans-Serif" font-size="10.00">FileAclHelper.logFine</text>
</a>
</g>
</g>
<!-- Node2&#45;&gt;Node3 -->
<g id="edge2" class="edge">
<title>Node2&#45;&gt;Node3</title>
<path fill="none" stroke="#63b8ff" d="M393.45,-63C404.85,-63 416.48,-63 427.83,-63"/>
<polygon fill="#63b8ff" stroke="#63b8ff" points="427.6,-66.5 437.6,-63 427.6,-59.5 427.6,-66.5"/>
</g>
<!-- Node4 -->
<g id="node4" class="node">
<title>Node4</title>
<g id="a_node4"><a xlink:href="classdev_1_1filechampion_1_1filechampion4j_1_1_file_acl_helper.html#ab6fd281a6c09486bf16d2eea3a0ea1ea" target="_top" xlink:title=" ">
<polygon fill="white" stroke="#666666" points="594,-30 439,-30 439,0 594,0 594,-30"/>
<text text-anchor="start" x="447" y="-18" font-family="Helvetica,sans-Serif" font-size="10.00">dev.filechampion.filechampion4j.</text>
<text text-anchor="middle" x="516.5" y="-7" font-family="Helvetica,sans-Serif" font-size="10.00">FileAclHelper.logSevere</text>
</a>
</g>
</g>
<!-- Node2&#45;&gt;Node4 -->
<g id="edge3" class="edge">
<title>Node2&#45;&gt;Node4</title>
<path fill="none" stroke="#63b8ff" d="M371.07,-47.55C391.87,-42.86 414.9,-37.67 436.35,-32.84"/>
<polygon fill="#63b8ff" stroke="#63b8ff" points="437.08,-36.04 446.06,-30.42 435.54,-29.21 437.08,-36.04"/>
</g>
<!-- Node5&#45;&gt;Node3 -->
<g id="edge5" class="edge">
<title>Node5&#45;&gt;Node3</title>
<path fill="none" stroke="#63b8ff" d="M371.07,-30.45C391.87,-35.14 414.9,-40.33 436.35,-45.16"/>
<polygon fill="#63b8ff" stroke="#63b8ff" points="435.54,-48.79 446.06,-47.58 437.08,-41.96 435.54,-48.79"/>
</g>
<!-- Node5&#45;&gt;Node4 -->
<g id="edge6" class="edge">
<title>Node5&#45;&gt;Node4</title>
<path fill="none" stroke="#63b8ff" d="M403.39,-15C411.52,-15 419.69,-15 427.72,-15"/>
<polygon fill="#63b8ff" stroke="#63b8ff" points="427.56,-18.5 437.56,-15 427.56,-11.5 427.56,-18.5"/>
</g>
</g>
</svg>
