<?xml version="1.0" encoding="UTF-8" standalone="no"?>
<!DOCTYPE svg PUBLIC "-//W3C//DTD SVG 1.1//EN"
 "http://www.w3.org/Graphics/SVG/1.1/DTD/svg11.dtd">
<!-- Generated by graphviz version 8.0.3 (20230416.2022)
 -->
<!-- Title: dev.filechampion.filechampion4j.FileValidator.doValidations Pages: 1 -->
<svg width="1215pt" height="929pt"
 viewBox="0.00 0.00 1215.00 929.00" xmlns="http://www.w3.org/2000/svg" xmlns:xlink="http://www.w3.org/1999/xlink">
<g id="graph0" class="graph" transform="scale(1 1) rotate(0) translate(4 925)">
<title>dev.filechampion.filechampion4j.FileValidator.doValidations</title>
<!-- Node1 -->
<g id="node1" class="node">
<title>Node1</title>
<g id="a_node1"><a xlink:title=" ">
<polygon fill="#999999" stroke="#666666" points="155,-486 0,-486 0,-456 155,-456 155,-486"/>
<text text-anchor="start" x="8" y="-474" font-family="Helvetica,sans-Serif" font-size="10.00">dev.filechampion.filechampion4j.</text>
<text text-anchor="middle" x="77.5" y="-463" font-family="Helvetica,sans-Serif" font-size="10.00">FileValidator.doValidations</text>
</a>
</g>
</g>
<!-- Node2 -->
<g id="node2" class="node">
<title>Node2</title>
<g id="a_node2"><a xlink:href="classdev_1_1filechampion_1_1filechampion4j_1_1_file_validator.html#a578f3eed384beb9cc9e15a648b2722b6" target="_top" xlink:title=" ">
<polygon fill="white" stroke="#666666" points="349.5,-921 194.5,-921 194.5,-891 349.5,-891 349.5,-921"/>
<text text-anchor="start" x="202.5" y="-909" font-family="Helvetica,sans-Serif" font-size="10.00">dev.filechampion.filechampion4j.</text>
<text text-anchor="middle" x="272" y="-898" font-family="Helvetica,sans-Serif" font-size="10.00">FileValidator.checkFileSize</text>
</a>
</g>
</g>
<!-- Node1&#45;&gt;Node2 -->
<g id="edge1" class="edge">
<title>Node1&#45;&gt;Node2</title>
<path fill="none" stroke="#63b8ff" d="M78.06,-486.22C77.2,-544.92 81.96,-759.17 191,-877 193.72,-879.94 196.76,-882.58 200.02,-884.95"/>
<polygon fill="#63b8ff" stroke="#63b8ff" points="197.77,-888.3 208.1,-890.63 201.48,-882.36 197.77,-888.3"/>
</g>
<!-- Node3 -->
<g id="node3" class="node">
<title>Node3</title>
<g id="a_node3"><a xlink:href="classdev_1_1filechampion_1_1filechampion4j_1_1_file_validator.html#a43efc49c658a962ad7a5e6ee364cbac2" target="_top" xlink:title=" ">
<polygon fill="white" stroke="#666666" points="560.5,-797 405.5,-797 405.5,-767 560.5,-767 560.5,-797"/>
<text text-anchor="start" x="413.5" y="-785" font-family="Helvetica,sans-Serif" font-size="10.00">dev.filechampion.filechampion4j.</text>
<text text-anchor="middle" x="483" y="-774" font-family="Helvetica,sans-Serif" font-size="10.00">FileValidator.checkMimeType</text>
</a>
</g>
</g>
<!-- Node1&#45;&gt;Node3 -->
<g id="edge2" class="edge">
<title>Node1&#45;&gt;Node3</title>
<path fill="none" stroke="#63b8ff" d="M81.27,-486.28C89.66,-528.09 118.81,-645.17 191,-705 248.15,-752.37 331.46,-770.88 394.31,-777.97"/>
<polygon fill="#63b8ff" stroke="#63b8ff" points="393.69,-781.53 404,-779.09 394.42,-774.57 393.69,-781.53"/>
</g>
<!-- Node5 -->
<g id="node5" class="node">
<title>Node5</title>
<g id="a_node5"><a xlink:href="classdev_1_1filechampion_1_1filechampion4j_1_1_file_validator.html#af46946cfe82bbc2234cf895bd8f4ef80" target="_top" xlink:title=" ">
<polygon fill="white" stroke="#666666" points="992,-797 837,-797 837,-767 992,-767 992,-797"/>
<text text-anchor="start" x="845" y="-785" font-family="Helvetica,sans-Serif" font-size="10.00">dev.filechampion.filechampion4j.</text>
<text text-anchor="middle" x="914.5" y="-774" font-family="Helvetica,sans-Serif" font-size="10.00">FileValidator.logWarn</text>
</a>
</g>
</g>
<!-- Node1&#45;&gt;Node5 -->
<g id="edge32" class="edge">
<title>Node1&#45;&gt;Node5</title>
<path fill="none" stroke="#63b8ff" d="M79.99,-486.41C85.4,-533.52 108.23,-676.95 191,-751 380.72,-920.73 723.14,-841.05 857.37,-800.56"/>
<polygon fill="#63b8ff" stroke="#63b8ff" points="858.27,-803.64 866.81,-797.36 856.22,-796.94 858.27,-803.64"/>
</g>
<!-- Node8 -->
<g id="node8" class="node">
<title>Node8</title>
<g id="a_node8"><a xlink:href="classdev_1_1filechampion_1_1filechampion4j_1_1_file_validator.html#a8f4cb0774223f82e2cf72558b6edd114" target="_top" xlink:title=" ">
<polygon fill="white" stroke="#666666" points="575.5,-749 390.5,-749 390.5,-719 575.5,-719 575.5,-749"/>
<text text-anchor="start" x="398.5" y="-737" font-family="Helvetica,sans-Serif" font-size="10.00">dev.filechampion.filechampion4j.</text>
<text text-anchor="middle" x="483" y="-726" font-family="Helvetica,sans-Serif" font-size="10.00">FileValidator.containsFooterSignatures</text>
</a>
</g>
</g>
<!-- Node1&#45;&gt;Node8 -->
<g id="edge9" class="edge">
<title>Node1&#45;&gt;Node8</title>
<path fill="none" stroke="#63b8ff" d="M83.03,-486.34C94.6,-522.71 128.78,-614.58 191,-661 245.35,-701.55 319.67,-719.73 379.6,-727.82"/>
<polygon fill="#63b8ff" stroke="#63b8ff" points="378.88,-731.38 389.24,-729.17 379.76,-724.43 378.88,-731.38"/>
</g>
<!-- Node9 -->
<g id="node9" class="node">
<title>Node9</title>
<g id="a_node9"><a xlink:href="classdev_1_1filechampion_1_1filechampion4j_1_1_file_validator.html#a9cb61c4724f0d3542eedec7d0f6b2943" target="_top" xlink:title=" ">
<polygon fill="white" stroke="#666666" points="577,-701 389,-701 389,-671 577,-671 577,-701"/>
<text text-anchor="start" x="397" y="-689" font-family="Helvetica,sans-Serif" font-size="10.00">dev.filechampion.filechampion4j.</text>
<text text-anchor="middle" x="483" y="-678" font-family="Helvetica,sans-Serif" font-size="10.00">FileValidator.containsHeaderSignatures</text>
</a>
</g>
</g>
<!-- Node1&#45;&gt;Node9 -->
<g id="edge11" class="edge">
<title>Node1&#45;&gt;Node9</title>
<path fill="none" stroke="#63b8ff" d="M85.61,-486.39C100.53,-516.85 138.14,-584.85 191,-619 246.65,-654.95 319.26,-671.7 378.02,-679.47"/>
<polygon fill="#63b8ff" stroke="#63b8ff" points="377.47,-683.05 387.83,-680.82 378.34,-676.11 377.47,-683.05"/>
</g>
<!-- Node10 -->
<g id="node10" class="node">
<title>Node10</title>
<g id="a_node10"><a xlink:href="classdev_1_1filechampion_1_1filechampion4j_1_1_file_validator.html#a9659dd19b95c61f1b52cfab5ebc5a6b0" target="_top" xlink:title=" ">
<polygon fill="white" stroke="#666666" points="353,-486 191,-486 191,-456 353,-456 353,-486"/>
<text text-anchor="start" x="199" y="-474" font-family="Helvetica,sans-Serif" font-size="10.00">dev.filechampion.filechampion4j.</text>
<text text-anchor="middle" x="272" y="-463" font-family="Helvetica,sans-Serif" font-size="10.00">FileValidator.containsMagicBytes</text>
</a>
</g>
</g>
<!-- Node1&#45;&gt;Node10 -->
<g id="edge13" class="edge">
<title>Node1&#45;&gt;Node10</title>
<path fill="none" stroke="#63b8ff" d="M155.41,-471C163.49,-471 171.77,-471 179.99,-471"/>
<polygon fill="#63b8ff" stroke="#63b8ff" points="179.75,-474.5 189.75,-471 179.75,-467.5 179.75,-474.5"/>
</g>
<!-- Node11 -->
<g id="node11" class="node">
<title>Node11</title>
<g id="a_node11"><a xlink:href="classdev_1_1filechampion_1_1filechampion4j_1_1_file_validator.html#aa2bf7ccde349fc95be4c912cd42a6c95" target="_top" xlink:title=" ">
<polygon fill="white" stroke="#666666" points="352.5,-610 191.5,-610 191.5,-580 352.5,-580 352.5,-610"/>
<text text-anchor="start" x="199.5" y="-598" font-family="Helvetica,sans-Serif" font-size="10.00">dev.filechampion.filechampion4j.</text>
<text text-anchor="middle" x="272" y="-587" font-family="Helvetica,sans-Serif" font-size="10.00">FileValidator.executeAfterPlugins</text>
</a>
</g>
</g>
<!-- Node1&#45;&gt;Node11 -->
<g id="edge14" class="edge">
<title>Node1&#45;&gt;Node11</title>
<path fill="none" stroke="#63b8ff" d="M93.18,-486.43C113.49,-507.02 152.06,-543.47 191,-566 197.01,-569.48 203.52,-572.66 210.13,-575.53"/>
<polygon fill="#63b8ff" stroke="#63b8ff" points="208.27,-578.96 218.85,-579.52 210.93,-572.49 208.27,-578.96"/>
</g>
<!-- Node14 -->
<g id="node14" class="node">
<title>Node14</title>
<g id="a_node14"><a xlink:href="classdev_1_1filechampion_1_1filechampion4j_1_1_file_validator.html#a94cfea52d37b0b2b2e69ef72211feeb3" target="_top" xlink:title=" ">
<polygon fill="white" stroke="#666666" points="772.5,-567 617.5,-567 617.5,-537 772.5,-537 772.5,-567"/>
<text text-anchor="start" x="625.5" y="-555" font-family="Helvetica,sans-Serif" font-size="10.00">dev.filechampion.filechampion4j.</text>
<text text-anchor="middle" x="695" y="-544" font-family="Helvetica,sans-Serif" font-size="10.00">FileValidator.logFine</text>
</a>
</g>
</g>
<!-- Node1&#45;&gt;Node14 -->
<g id="edge30" class="edge">
<title>Node1&#45;&gt;Node14</title>
<path fill="none" stroke="#63b8ff" d="M144.28,-486.47C159.55,-489.66 175.79,-492.74 191,-495 361.31,-520.34 406.6,-503.33 577,-528 589.26,-529.78 602.18,-532.03 614.77,-534.44"/>
<polygon fill="#63b8ff" stroke="#63b8ff" points="613.77,-538.01 624.25,-536.5 615.12,-531.14 613.77,-538.01"/>
</g>
<!-- Node15 -->
<g id="node15" class="node">
<title>Node15</title>
<g id="a_node15"><a xlink:href="classdev_1_1filechampion_1_1filechampion4j_1_1_extension.html#a280bd1a1334d78e0a898524a2f8b000d" target="_top" xlink:title=" ">
<polygon fill="white" stroke="#666666" points="560.5,-567 405.5,-567 405.5,-537 560.5,-537 560.5,-567"/>
<text text-anchor="start" x="413.5" y="-555" font-family="Helvetica,sans-Serif" font-size="10.00">dev.filechampion.filechampion4j.</text>
<text text-anchor="middle" x="483" y="-544" font-family="Helvetica,sans-Serif" font-size="10.00">Extension.getExtensionPlugins</text>
</a>
</g>
</g>
<!-- Node1&#45;&gt;Node15 -->
<g id="edge23" class="edge">
<title>Node1&#45;&gt;Node15</title>
<path fill="none" stroke="#63b8ff" d="M101.97,-486.3C123.99,-499.82 158.34,-518.76 191,-528 257.59,-546.83 335.9,-552.4 394.5,-553.5"/>
<polygon fill="#63b8ff" stroke="#63b8ff" points="394.16,-557.01 404.21,-553.66 394.26,-550.01 394.16,-557.01"/>
</g>
<!-- Node16 -->
<g id="node16" class="node">
<title>Node16</title>
<g id="a_node16"><a xlink:href="classdev_1_1filechampion_1_1filechampion4j_1_1_extension.html#a2a3214d34b9e225fc5d344413955affa" target="_top" xlink:title=" ">
<polygon fill="white" stroke="#666666" points="349.5,-438 194.5,-438 194.5,-408 349.5,-408 349.5,-438"/>
<text text-anchor="start" x="202.5" y="-426" font-family="Helvetica,sans-Serif" font-size="10.00">dev.filechampion.filechampion4j.</text>
<text text-anchor="middle" x="272" y="-415" font-family="Helvetica,sans-Serif" font-size="10.00">Extension.getFooterSignatures</text>
</a>
</g>
</g>
<!-- Node1&#45;&gt;Node16 -->
<g id="edge24" class="edge">
<title>Node1&#45;&gt;Node16</title>
<path fill="none" stroke="#63b8ff" d="M140.47,-455.55C159.02,-450.92 179.52,-445.81 198.67,-441.04"/>
<polygon fill="#63b8ff" stroke="#63b8ff" points="199.29,-444.24 208.15,-438.42 197.6,-437.45 199.29,-444.24"/>
</g>
<!-- Node17 -->
<g id="node17" class="node">
<title>Node17</title>
<g id="a_node17"><a xlink:href="classdev_1_1filechampion_1_1filechampion4j_1_1_extension.html#a2c42c83175eec07cab9c934d0adcce58" target="_top" xlink:title=" ">
<polygon fill="white" stroke="#666666" points="349.5,-390 194.5,-390 194.5,-360 349.5,-360 349.5,-390"/>
<text text-anchor="start" x="202.5" y="-378" font-family="Helvetica,sans-Serif" font-size="10.00">dev.filechampion.filechampion4j.</text>
<text text-anchor="middle" x="272" y="-367" font-family="Helvetica,sans-Serif" font-size="10.00">Extension.getHeaderSignatures</text>
</a>
</g>
</g>
<!-- Node1&#45;&gt;Node17 -->
<g id="edge25" class="edge">
<title>Node1&#45;&gt;Node17</title>
<path fill="none" stroke="#63b8ff" d="M98.65,-455.64C120.43,-439.65 156.65,-414.77 191,-399 194.75,-397.28 198.65,-395.65 202.63,-394.1"/>
<polygon fill="#63b8ff" stroke="#63b8ff" points="203.43,-397.17 211.62,-390.44 201.02,-390.59 203.43,-397.17"/>
</g>
<!-- Node18 -->
<g id="node18" class="node">
<title>Node18</title>
<g id="a_node18"><a xlink:href="classdev_1_1filechampion_1_1filechampion4j_1_1_extension.html#aabab7c822972827e18bd71489f217f0f" target="_top" xlink:title=" ">
<polygon fill="white" stroke="#666666" points="349.5,-342 194.5,-342 194.5,-312 349.5,-312 349.5,-342"/>
<text text-anchor="start" x="202.5" y="-330" font-family="Helvetica,sans-Serif" font-size="10.00">dev.filechampion.filechampion4j.</text>
<text text-anchor="middle" x="272" y="-319" font-family="Helvetica,sans-Serif" font-size="10.00">Extension.getMagicBytes</text>
</a>
</g>
</g>
<!-- Node1&#45;&gt;Node18 -->
<g id="edge26" class="edge">
<title>Node1&#45;&gt;Node18</title>
<path fill="none" stroke="#63b8ff" d="M88.72,-455.67C106.5,-430.19 145.6,-379.12 191,-351 193.32,-349.56 195.73,-348.21 198.2,-346.93"/>
<polygon fill="#63b8ff" stroke="#63b8ff" points="199.42,-349.76 207.02,-342.38 196.48,-343.41 199.42,-349.76"/>
</g>
<!-- Node19 -->
<g id="node19" class="node">
<title>Node19</title>
<g id="a_node19"><a xlink:href="classdev_1_1filechampion_1_1filechampion4j_1_1_extension.html#a24aab53ff45fe3f337f92d7a6804a122" target="_top" xlink:title=" ">
<polygon fill="white" stroke="#666666" points="349.5,-294 194.5,-294 194.5,-264 349.5,-264 349.5,-294"/>
<text text-anchor="start" x="202.5" y="-282" font-family="Helvetica,sans-Serif" font-size="10.00">dev.filechampion.filechampion4j.</text>
<text text-anchor="middle" x="272" y="-271" font-family="Helvetica,sans-Serif" font-size="10.00">Extension.getMaxSize</text>
</a>
</g>
</g>
<!-- Node1&#45;&gt;Node19 -->
<g id="edge27" class="edge">
<title>Node1&#45;&gt;Node19</title>
<path fill="none" stroke="#63b8ff" d="M84.39,-455.89C98,-423 134.81,-344.5 191,-303 192.66,-301.77 194.39,-300.61 196.16,-299.5"/>
<polygon fill="#63b8ff" stroke="#63b8ff" points="197.31,-302.32 204.41,-294.45 193.95,-296.17 197.31,-302.32"/>
</g>
<!-- Node20 -->
<g id="node20" class="node">
<title>Node20</title>
<g id="a_node20"><a xlink:href="classdev_1_1filechampion_1_1filechampion4j_1_1_extension.html#a0ca5177df2e29cdc0eff69343983e5c8" target="_top" xlink:title=" ">
<polygon fill="white" stroke="#666666" points="349.5,-246 194.5,-246 194.5,-216 349.5,-216 349.5,-246"/>
<text text-anchor="start" x="202.5" y="-234" font-family="Helvetica,sans-Serif" font-size="10.00">dev.filechampion.filechampion4j.</text>
<text text-anchor="middle" x="272" y="-223" font-family="Helvetica,sans-Serif" font-size="10.00">Extension.getMimeType</text>
</a>
</g>
</g>
<!-- Node1&#45;&gt;Node20 -->
<g id="edge28" class="edge">
<title>Node1&#45;&gt;Node20</title>
<path fill="none" stroke="#63b8ff" d="M82.09,-455.56C92.09,-416.03 124.05,-310.38 191,-255 192.26,-253.96 193.56,-252.97 194.9,-252.01"/>
<polygon fill="#63b8ff" stroke="#63b8ff" points="196.49,-254.53 203.21,-246.34 192.85,-248.55 196.49,-254.53"/>
</g>
<!-- Node21 -->
<g id="node21" class="node">
<title>Node21</title>
<g id="a_node21"><a xlink:href="classdev_1_1filechampion_1_1filechampion4j_1_1_extension.html#a5073918a440378a38a22983daea7fe39" target="_top" xlink:title=" ">
<polygon fill="white" stroke="#666666" points="349.5,-198 194.5,-198 194.5,-168 349.5,-168 349.5,-198"/>
<text text-anchor="start" x="202.5" y="-186" font-family="Helvetica,sans-Serif" font-size="10.00">dev.filechampion.filechampion4j.</text>
<text text-anchor="middle" x="272" y="-175" font-family="Helvetica,sans-Serif" font-size="10.00">Extension.isNameEncoding</text>
</a>
</g>
</g>
<!-- Node1&#45;&gt;Node21 -->
<g id="edge29" class="edge">
<title>Node1&#45;&gt;Node21</title>
<path fill="none" stroke="#63b8ff" d="M80.49,-455.57C87.15,-410.35 112.83,-276.91 191,-207 192.03,-206.08 193.1,-205.19 194.2,-204.33"/>
<polygon fill="#63b8ff" stroke="#63b8ff" points="195.73,-206.86 202.15,-198.43 191.87,-201.01 195.73,-206.86"/>
</g>
<!-- Node22 -->
<g id="node22" class="node">
<title>Node22</title>
<g id="a_node22"><a xlink:href="classdev_1_1filechampion_1_1filechampion4j_1_1_file_validator.html#a16e8b1dbde27bc711d94b73067842743" target="_top" xlink:title=" ">
<polygon fill="white" stroke="#666666" points="349.5,-150 194.5,-150 194.5,-120 349.5,-120 349.5,-150"/>
<text text-anchor="start" x="202.5" y="-138" font-family="Helvetica,sans-Serif" font-size="10.00">dev.filechampion.filechampion4j.</text>
<text text-anchor="middle" x="272" y="-127" font-family="Helvetica,sans-Serif" font-size="10.00">FileValidator.logInfo</text>
</a>
</g>
</g>
<!-- Node1&#45;&gt;Node22 -->
<g id="edge31" class="edge">
<title>Node1&#45;&gt;Node22</title>
<path fill="none" stroke="#63b8ff" d="M79.34,-455.76C82.94,-405.57 101.31,-243.92 191,-159 191.87,-158.18 192.76,-157.38 193.68,-156.62"/>
<polygon fill="#63b8ff" stroke="#63b8ff" points="195.36,-159.01 201.56,-150.42 191.35,-153.28 195.36,-159.01"/>
</g>
<!-- Node23 -->
<g id="node23" class="node">
<title>Node23</title>
<g id="a_node23"><a xlink:href="classdev_1_1filechampion_1_1filechampion4j_1_1_file_validator.html#ab484409fe2d3ceb7a0f384c0c90665d2" target="_top" xlink:title=" ">
<polygon fill="white" stroke="#666666" points="352.5,-102 191.5,-102 191.5,-72 352.5,-72 352.5,-102"/>
<text text-anchor="start" x="199.5" y="-90" font-family="Helvetica,sans-Serif" font-size="10.00">dev.filechampion.filechampion4j.</text>
<text text-anchor="middle" x="272" y="-79" font-family="Helvetica,sans-Serif" font-size="10.00">FileValidator.saveFileToOutputDir</text>
</a>
</g>
</g>
<!-- Node1&#45;&gt;Node23 -->
<g id="edge33" class="edge">
<title>Node1&#45;&gt;Node23</title>
<path fill="none" stroke="#63b8ff" d="M78.5,-455.82C79.33,-400.98 89.72,-211.13 191,-111 191.72,-110.29 192.46,-109.59 193.22,-108.92"/>
<polygon fill="#63b8ff" stroke="#63b8ff" points="195.02,-111.21 201.02,-102.48 190.88,-105.57 195.02,-111.21"/>
</g>
<!-- Node4 -->
<g id="node4" class="node">
<title>Node4</title>
<g id="a_node4"><a xlink:href="classdev_1_1filechampion_1_1filechampion4j_1_1_file_validator.html#a8e5b65357971125d0d18f1ca1a303a82" target="_top" xlink:title=" ">
<polygon fill="white" stroke="#666666" points="772.5,-749 617.5,-749 617.5,-719 772.5,-719 772.5,-749"/>
<text text-anchor="start" x="625.5" y="-737" font-family="Helvetica,sans-Serif" font-size="10.00">dev.filechampion.filechampion4j.</text>
<text text-anchor="middle" x="695" y="-726" font-family="Helvetica,sans-Serif" font-size="10.00">FileValidator.deleteTempDir</text>
</a>
</g>
</g>
<!-- Node3&#45;&gt;Node4 -->
<g id="edge3" class="edge">
<title>Node3&#45;&gt;Node4</title>
<path fill="none" stroke="#63b8ff" d="M551.6,-766.55C572.12,-761.86 594.82,-756.67 615.96,-751.84"/>
<polygon fill="#63b8ff" stroke="#63b8ff" points="616.56,-755.06 625.53,-749.42 615,-748.24 616.56,-755.06"/>
</g>
<!-- Node3&#45;&gt;Node5 -->
<g id="edge6" class="edge">
<title>Node3&#45;&gt;Node5</title>
<path fill="none" stroke="#63b8ff" d="M553.97,-797.44C573.02,-800.98 593.72,-804.22 613,-806 685.58,-812.69 704.39,-812.33 777,-806 793.87,-804.53 811.79,-802.05 828.89,-799.23"/>
<polygon fill="#63b8ff" stroke="#63b8ff" points="829.15,-802.57 838.42,-797.44 827.98,-795.67 829.15,-802.57"/>
</g>
<!-- Node6 -->
<g id="node6" class="node">
<title>Node6</title>
<g id="a_node6"><a xlink:href="classdev_1_1filechampion_1_1filechampion4j_1_1_file_validator.html#a74097ecc9c1bd3757a0287275631632f" target="_top" xlink:title=" ">
<polygon fill="white" stroke="#666666" points="772.5,-701 617.5,-701 617.5,-671 772.5,-671 772.5,-701"/>
<text text-anchor="start" x="625.5" y="-689" font-family="Helvetica,sans-Serif" font-size="10.00">dev.filechampion.filechampion4j.</text>
<text text-anchor="middle" x="695" y="-678" font-family="Helvetica,sans-Serif" font-size="10.00">FileValidator.isBlank</text>
</a>
</g>
</g>
<!-- Node3&#45;&gt;Node6 -->
<g id="edge5" class="edge">
<title>Node3&#45;&gt;Node6</title>
<path fill="none" stroke="#63b8ff" d="M560.95,-766.69C566.59,-764.21 572.01,-761.34 577,-758 599.16,-743.17 591.11,-725.23 613,-710 614.76,-708.78 616.59,-707.61 618.46,-706.51"/>
<polygon fill="#63b8ff" stroke="#63b8ff" points="619.93,-709.17 627.19,-701.46 616.7,-702.96 619.93,-709.17"/>
</g>
<!-- Node7 -->
<g id="node7" class="node">
<title>Node7</title>
<g id="a_node7"><a xlink:href="classdev_1_1filechampion_1_1filechampion4j_1_1_file_validator.html#a2b27e9be1beb47813b10dbd8dccf97f4" target="_top" xlink:title=" ">
<polygon fill="white" stroke="#666666" points="772.5,-797 617.5,-797 617.5,-767 772.5,-767 772.5,-797"/>
<text text-anchor="start" x="625.5" y="-785" font-family="Helvetica,sans-Serif" font-size="10.00">dev.filechampion.filechampion4j.</text>
<text text-anchor="middle" x="695" y="-774" font-family="Helvetica,sans-Serif" font-size="10.00">FileValidator.saveFileToTempDir</text>
</a>
</g>
</g>
<!-- Node3&#45;&gt;Node7 -->
<g id="edge7" class="edge">
<title>Node3&#45;&gt;Node7</title>
<path fill="none" stroke="#63b8ff" d="M560.71,-782C575.51,-782 591.12,-782 606.24,-782"/>
<polygon fill="#63b8ff" stroke="#63b8ff" points="606.15,-785.5 616.15,-782 606.15,-778.5 606.15,-785.5"/>
</g>
<!-- Node4&#45;&gt;Node5 -->
<g id="edge4" class="edge">
<title>Node4&#45;&gt;Node5</title>
<path fill="none" stroke="#63b8ff" d="M766.02,-749.45C787.36,-754.16 810.99,-759.38 832.97,-764.23"/>
<polygon fill="#63b8ff" stroke="#63b8ff" points="832.1,-767.84 842.62,-766.58 833.6,-761 832.1,-767.84"/>
</g>
<!-- Node7&#45;&gt;Node5 -->
<g id="edge8" class="edge">
<title>Node7&#45;&gt;Node5</title>
<path fill="none" stroke="#63b8ff" d="M772.99,-782C790.09,-782 808.34,-782 825.84,-782"/>
<polygon fill="#63b8ff" stroke="#63b8ff" points="825.62,-785.5 835.62,-782 825.61,-778.5 825.62,-785.5"/>
</g>
<!-- Node8&#45;&gt;Node6 -->
<g id="edge10" class="edge">
<title>Node8&#45;&gt;Node6</title>
<path fill="none" stroke="#63b8ff" d="M551.6,-718.55C572.12,-713.86 594.82,-708.67 615.96,-703.84"/>
<polygon fill="#63b8ff" stroke="#63b8ff" points="616.56,-707.06 625.53,-701.42 615,-700.24 616.56,-707.06"/>
</g>
<!-- Node9&#45;&gt;Node6 -->
<g id="edge12" class="edge">
<title>Node9&#45;&gt;Node6</title>
<path fill="none" stroke="#63b8ff" d="M577.33,-686C587.04,-686 596.89,-686 606.53,-686"/>
<polygon fill="#63b8ff" stroke="#63b8ff" points="606.31,-689.5 616.31,-686 606.31,-682.5 606.31,-689.5"/>
</g>
<!-- Node12 -->
<g id="node12" class="node">
<title>Node12</title>
<g id="a_node12"><a xlink:href="classdev_1_1filechampion_1_1filechampion4j_1_1_file_validator.html#a00a7f2979f0321f1823ce815ecd20945" target="_top" xlink:title=" ">
<polygon fill="white" stroke="#666666" points="560.5,-653 405.5,-653 405.5,-623 560.5,-623 560.5,-653"/>
<text text-anchor="start" x="413.5" y="-641" font-family="Helvetica,sans-Serif" font-size="10.00">dev.filechampion.filechampion4j.</text>
<text text-anchor="middle" x="483" y="-630" font-family="Helvetica,sans-Serif" font-size="10.00">FileValidator.executePlugin</text>
</a>
</g>
</g>
<!-- Node11&#45;&gt;Node12 -->
<g id="edge15" class="edge">
<title>Node11&#45;&gt;Node12</title>
<path fill="none" stroke="#63b8ff" d="M348.16,-610.46C363.81,-613.68 380.41,-617.1 396.4,-620.39"/>
<polygon fill="#63b8ff" stroke="#63b8ff" points="395.31,-623.94 405.81,-622.53 396.72,-617.09 395.31,-623.94"/>
</g>
<!-- Node11&#45;&gt;Node14 -->
<g id="edge22" class="edge">
<title>Node11&#45;&gt;Node14</title>
<path fill="none" stroke="#63b8ff" d="M352.99,-593.05C414.46,-590.82 501.39,-586.07 577,-576 589.81,-574.29 603.32,-572 616.43,-569.5"/>
<polygon fill="#63b8ff" stroke="#63b8ff" points="616.7,-572.81 625.84,-567.45 615.35,-565.94 616.7,-572.81"/>
</g>
<!-- Node11&#45;&gt;Node15 -->
<g id="edge21" class="edge">
<title>Node11&#45;&gt;Node15</title>
<path fill="none" stroke="#63b8ff" d="M348.16,-579.54C363.81,-576.32 380.41,-572.9 396.4,-569.61"/>
<polygon fill="#63b8ff" stroke="#63b8ff" points="396.72,-572.91 405.81,-567.47 395.31,-566.06 396.72,-572.91"/>
</g>
<!-- Node12&#45;&gt;Node4 -->
<g id="edge17" class="edge">
<title>Node12&#45;&gt;Node4</title>
<path fill="none" stroke="#63b8ff" d="M560.95,-653.31C566.59,-655.79 572.01,-658.66 577,-662 599.16,-676.83 591.11,-694.77 613,-710 614.76,-711.22 616.59,-712.39 618.46,-713.49"/>
<polygon fill="#63b8ff" stroke="#63b8ff" points="616.7,-717.04 627.19,-718.54 619.93,-710.83 616.7,-717.04"/>
</g>
<!-- Node12&#45;&gt;Node5 -->
<g id="edge20" class="edge">
<title>Node12&#45;&gt;Node5</title>
<path fill="none" stroke="#63b8ff" d="M560.87,-631.39C621.87,-629.13 708.06,-632.73 777,-662 827.01,-683.23 871.5,-730.19 895.27,-758.66"/>
<polygon fill="#63b8ff" stroke="#63b8ff" points="892.93,-760.33 901.96,-765.86 898.35,-755.9 892.93,-760.33"/>
</g>
<!-- Node12&#45;&gt;Node6 -->
<g id="edge18" class="edge">
<title>Node12&#45;&gt;Node6</title>
<path fill="none" stroke="#63b8ff" d="M551.6,-653.45C572.12,-658.14 594.82,-663.33 615.96,-668.16"/>
<polygon fill="#63b8ff" stroke="#63b8ff" points="615,-671.76 625.53,-670.58 616.56,-664.94 615,-671.76"/>
</g>
<!-- Node13 -->
<g id="node13" class="node">
<title>Node13</title>
<g id="a_node13"><a xlink:href="classdev_1_1filechampion_1_1filechampion4j_1_1_file_validator.html#afddde3a9748be9f0487a553d50a2d5c4" target="_top" xlink:title=" ">
<polygon fill="white" stroke="#666666" points="774.5,-615 615.5,-615 615.5,-585 774.5,-585 774.5,-615"/>
<text text-anchor="start" x="623.5" y="-603" font-family="Helvetica,sans-Serif" font-size="10.00">dev.filechampion.filechampion4j.</text>
<text text-anchor="middle" x="695" y="-592" font-family="Helvetica,sans-Serif" font-size="10.00">FileValidator.calculateChecksum</text>
</a>
</g>
</g>
<!-- Node12&#45;&gt;Node13 -->
<g id="edge16" class="edge">
<title>Node12&#45;&gt;Node13</title>
<path fill="none" stroke="#63b8ff" d="M560.71,-624.12C574.94,-621.54 589.93,-618.83 604.51,-616.19"/>
<polygon fill="#63b8ff" stroke="#63b8ff" points="604.82,-619.51 614.04,-614.29 603.57,-612.63 604.82,-619.51"/>
</g>
<!-- Node12&#45;&gt;Node14 -->
<g id="edge19" class="edge">
<title>Node12&#45;&gt;Node14</title>
<path fill="none" stroke="#63b8ff" d="M546.64,-622.64C557.11,-618.91 567.62,-614.4 577,-609 595.81,-598.18 594.11,-586.69 613,-576 615.69,-574.48 618.49,-573.04 621.36,-571.69"/>
<polygon fill="#63b8ff" stroke="#63b8ff" points="622.52,-574.57 630.33,-567.41 619.76,-568.14 622.52,-574.57"/>
</g>
<!-- Node24 -->
<g id="node24" class="node">
<title>Node24</title>
<g id="a_node24"><a xlink:href="classdev_1_1filechampion_1_1filechampion4j_1_1_file_acl_helper.html#ad658260458dfa78c890ca27b06c3e4fa" target="_top" xlink:title=" ">
<polygon fill="white" stroke="#666666" points="560.5,-174 405.5,-174 405.5,-144 560.5,-144 560.5,-174"/>
<text text-anchor="start" x="413.5" y="-162" font-family="Helvetica,sans-Serif" font-size="10.00">dev.filechampion.filechampion4j.</text>
<text text-anchor="middle" x="483" y="-151" font-family="Helvetica,sans-Serif" font-size="10.00">FileAclHelper.changeFileAcl</text>
</a>
</g>
</g>
<!-- Node23&#45;&gt;Node24 -->
<g id="edge34" class="edge">
<title>Node23&#45;&gt;Node24</title>
<path fill="none" stroke="#63b8ff" d="M331.87,-102.47C339.11,-105.01 346.31,-107.85 353,-111 370.4,-119.19 371.44,-127.15 389,-135 393.02,-136.8 397.21,-138.48 401.48,-140.05"/>
<polygon fill="#63b8ff" stroke="#63b8ff" points="399.97,-143.58 410.56,-143.52 402.24,-136.96 399.97,-143.58"/>
</g>
<!-- Node32 -->
<g id="node32" class="node">
<title>Node32</title>
<g id="a_node32"><a xlink:href="classdev_1_1filechampion_1_1filechampion4j_1_1_extension.html#a84ccc1ed5b10cf94987bb7a28757a417" target="_top" xlink:title=" ">
<polygon fill="white" stroke="#666666" points="572.5,-126 393.5,-126 393.5,-96 572.5,-96 572.5,-126"/>
<text text-anchor="start" x="401.5" y="-114" font-family="Helvetica,sans-Serif" font-size="10.00">dev.filechampion.filechampion4j.</text>
<text text-anchor="middle" x="483" y="-103" font-family="Helvetica,sans-Serif" font-size="10.00">Extension.getChangeOwnershipMode</text>
</a>
</g>
</g>
<!-- Node23&#45;&gt;Node32 -->
<g id="edge48" class="edge">
<title>Node23&#45;&gt;Node32</title>
<path fill="none" stroke="#63b8ff" d="M352.91,-96.18C362.56,-97.28 372.5,-98.43 382.39,-99.56"/>
<polygon fill="#63b8ff" stroke="#63b8ff" points="381.74,-103.12 392.07,-100.79 382.54,-96.17 381.74,-103.12"/>
</g>
<!-- Node33 -->
<g id="node33" class="node">
<title>Node33</title>
<g id="a_node33"><a xlink:href="classdev_1_1filechampion_1_1filechampion4j_1_1_extension.html#a9345e902c7e0a97db4b373220b5fb83a" target="_top" xlink:title=" ">
<polygon fill="white" stroke="#666666" points="571,-78 395,-78 395,-48 571,-48 571,-78"/>
<text text-anchor="start" x="403" y="-66" font-family="Helvetica,sans-Serif" font-size="10.00">dev.filechampion.filechampion4j.</text>
<text text-anchor="middle" x="483" y="-55" font-family="Helvetica,sans-Serif" font-size="10.00">Extension.getChangeOwnershipUser</text>
</a>
</g>
</g>
<!-- Node23&#45;&gt;Node33 -->
<g id="edge49" class="edge">
<title>Node23&#45;&gt;Node33</title>
<path fill="none" stroke="#63b8ff" d="M352.91,-77.82C363.09,-76.66 373.59,-75.45 384.02,-74.25"/>
<polygon fill="#63b8ff" stroke="#63b8ff" points="384.29,-77.63 393.83,-73.01 383.49,-70.67 384.29,-77.63"/>
</g>
<!-- Node34 -->
<g id="node34" class="node">
<title>Node34</title>
<g id="a_node34"><a xlink:href="classdev_1_1filechampion_1_1filechampion4j_1_1_file_validator.html#a35969cf77543d9324b883b59bfced1de" target="_top" xlink:title=" ">
<polygon fill="white" stroke="#666666" points="560.5,-30 405.5,-30 405.5,0 560.5,0 560.5,-30"/>
<text text-anchor="start" x="413.5" y="-18" font-family="Helvetica,sans-Serif" font-size="10.00">dev.filechampion.filechampion4j.</text>
<text text-anchor="middle" x="483" y="-7" font-family="Helvetica,sans-Serif" font-size="10.00">FileValidator.logSevere</text>
</a>
</g>
</g>
<!-- Node23&#45;&gt;Node34 -->
<g id="edge50" class="edge">
<title>Node23&#45;&gt;Node34</title>
<path fill="none" stroke="#63b8ff" d="M306.79,-71.55C329.68,-61.45 360.78,-48.43 389,-39 394.88,-37.04 401.01,-35.14 407.19,-33.33"/>
<polygon fill="#63b8ff" stroke="#63b8ff" points="407.96,-36.46 416.62,-30.36 406.04,-29.73 407.96,-36.46"/>
</g>
<!-- Node25 -->
<g id="node25" class="node">
<title>Node25</title>
<g id="a_node25"><a xlink:href="classdev_1_1filechampion_1_1filechampion4j_1_1_file_acl_helper.html#ac1fb96739e62ad91d1f833908dc99442" target="_top" xlink:title=" ">
<polygon fill="white" stroke="#666666" points="992,-247 837,-247 837,-217 992,-217 992,-247"/>
<text text-anchor="start" x="845" y="-235" font-family="Helvetica,sans-Serif" font-size="10.00">dev.filechampion.filechampion4j.</text>
<text text-anchor="middle" x="914.5" y="-224" font-family="Helvetica,sans-Serif" font-size="10.00">FileAclHelper.getUserPrinciple</text>
</a>
</g>
</g>
<!-- Node24&#45;&gt;Node25 -->
<g id="edge35" class="edge">
<title>Node24&#45;&gt;Node25</title>
<path fill="none" stroke="#63b8ff" d="M557.91,-174.47C575.91,-178.08 595.12,-181.8 613,-185 684.59,-197.81 766.13,-210.44 826.19,-219.37"/>
<polygon fill="#63b8ff" stroke="#63b8ff" points="825.36,-222.94 835.77,-220.94 826.39,-216.01 825.36,-222.94"/>
</g>
<!-- Node27 -->
<g id="node27" class="node">
<title>Node27</title>
<g id="a_node27"><a xlink:href="classdev_1_1filechampion_1_1filechampion4j_1_1_file_acl_helper.html#a73d0b85c677037db5ab4865e005bc756" target="_top" xlink:title=" ">
<polygon fill="white" stroke="#666666" points="1207,-127 1052,-127 1052,-97 1207,-97 1207,-127"/>
<text text-anchor="start" x="1060" y="-115" font-family="Helvetica,sans-Serif" font-size="10.00">dev.filechampion.filechampion4j.</text>
<text text-anchor="middle" x="1129.5" y="-104" font-family="Helvetica,sans-Serif" font-size="10.00">FileAclHelper.logFine</text>
</a>
</g>
</g>
<!-- Node24&#45;&gt;Node27 -->
<g id="edge37" class="edge">
<title>Node24&#45;&gt;Node27</title>
<path fill="none" stroke="#63b8ff" d="M553.88,-143.54C561.8,-141.03 569.66,-138.19 577,-135 594.41,-127.42 595.53,-119.43 613,-112 779,-41.42 839.28,-27.87 1016,-64 1042.4,-69.4 1070.27,-81.24 1091.67,-91.81"/>
<polygon fill="#63b8ff" stroke="#63b8ff" points="1089.81,-95.3 1100.32,-96.7 1092.98,-89.06 1089.81,-95.3"/>
</g>
<!-- Node28 -->
<g id="node28" class="node">
<title>Node28</title>
<g id="a_node28"><a xlink:href="classdev_1_1filechampion_1_1filechampion4j_1_1_file_acl_helper.html#a89a35f8379b106dcf38650384560ce9f" target="_top" xlink:title=" ">
<polygon fill="white" stroke="#666666" points="992,-199 837,-199 837,-169 992,-169 992,-199"/>
<text text-anchor="start" x="845" y="-187" font-family="Helvetica,sans-Serif" font-size="10.00">dev.filechampion.filechampion4j.</text>
<text text-anchor="middle" x="914.5" y="-176" font-family="Helvetica,sans-Serif" font-size="10.00">FileAclHelper.setNewOwner</text>
</a>
</g>
</g>
<!-- Node24&#45;&gt;Node28 -->
<g id="edge38" class="edge">
<title>Node24&#45;&gt;Node28</title>
<path fill="none" stroke="#63b8ff" d="M560.79,-163.47C635.22,-167.8 748,-174.37 825.9,-178.9"/>
<polygon fill="#63b8ff" stroke="#63b8ff" points="825.47,-182.44 835.66,-179.53 825.88,-175.45 825.47,-182.44"/>
</g>
<!-- Node29 -->
<g id="node29" class="node">
<title>Node29</title>
<g id="a_node29"><a xlink:href="classdev_1_1filechampion_1_1filechampion4j_1_1_file_acl_helper.html#a00c73219098ca931f6dbfba1f45555ae" target="_top" xlink:title=" ">
<polygon fill="white" stroke="#666666" points="777,-151 613,-151 613,-121 777,-121 777,-151"/>
<text text-anchor="start" x="621" y="-139" font-family="Helvetica,sans-Serif" font-size="10.00">dev.filechampion.filechampion4j.</text>
<text text-anchor="middle" x="695" y="-128" font-family="Helvetica,sans-Serif" font-size="10.00">FileAclHelper.setNewPermissions</text>
</a>
</g>
</g>
<!-- Node24&#45;&gt;Node29 -->
<g id="edge41" class="edge">
<title>Node24&#45;&gt;Node29</title>
<path fill="none" stroke="#63b8ff" d="M560.71,-150.6C574.02,-149.14 587.99,-147.61 601.67,-146.11"/>
<polygon fill="#63b8ff" stroke="#63b8ff" points="602,-149.49 611.55,-144.92 601.23,-142.53 602,-149.49"/>
</g>
<!-- Node26 -->
<g id="node26" class="node">
<title>Node26</title>
<g id="a_node26"><a xlink:href="classdev_1_1filechampion_1_1filechampion4j_1_1_file_acl_helper.html#ab6fd281a6c09486bf16d2eea3a0ea1ea" target="_top" xlink:title=" ">
<polygon fill="white" stroke="#666666" points="1207,-187 1052,-187 1052,-157 1207,-157 1207,-187"/>
<text text-anchor="start" x="1060" y="-175" font-family="Helvetica,sans-Serif" font-size="10.00">dev.filechampion.filechampion4j.</text>
<text text-anchor="middle" x="1129.5" y="-164" font-family="Helvetica,sans-Serif" font-size="10.00">FileAclHelper.logSevere</text>
</a>
</g>
</g>
<!-- Node25&#45;&gt;Node26 -->
<g id="edge36" class="edge">
<title>Node25&#45;&gt;Node26</title>
<path fill="none" stroke="#63b8ff" d="M983.25,-216.56C994.24,-213.84 1005.46,-210.94 1016,-208 1034.49,-202.84 1054.51,-196.64 1072.46,-190.85"/>
<polygon fill="#63b8ff" stroke="#63b8ff" points="1073.33,-193.92 1081.76,-187.5 1071.17,-187.26 1073.33,-193.92"/>
</g>
<!-- Node28&#45;&gt;Node26 -->
<g id="edge40" class="edge">
<title>Node28&#45;&gt;Node26</title>
<path fill="none" stroke="#63b8ff" d="M992.4,-179.67C1008.23,-178.78 1025.02,-177.83 1041.19,-176.92"/>
<polygon fill="#63b8ff" stroke="#63b8ff" points="1040.93,-180.38 1050.71,-176.33 1040.53,-173.39 1040.93,-180.38"/>
</g>
<!-- Node28&#45;&gt;Node27 -->
<g id="edge39" class="edge">
<title>Node28&#45;&gt;Node27</title>
<path fill="none" stroke="#63b8ff" d="M986.75,-168.57C996.65,-165.96 1006.63,-163.09 1016,-160 1039.91,-152.11 1065.81,-141.22 1086.73,-131.82"/>
<polygon fill="#63b8ff" stroke="#63b8ff" points="1087.92,-134.67 1095.56,-127.34 1085.01,-128.3 1087.92,-134.67"/>
</g>
<!-- Node30 -->
<g id="node30" class="node">
<title>Node30</title>
<g id="a_node30"><a xlink:href="classdev_1_1filechampion_1_1filechampion4j_1_1_file_acl_helper.html#a957cd8f062521037c11e5d15d3785906" target="_top" xlink:title=" ">
<polygon fill="white" stroke="#666666" points="1006,-151 823,-151 823,-121 1006,-121 1006,-151"/>
<text text-anchor="start" x="831" y="-139" font-family="Helvetica,sans-Serif" font-size="10.00">dev.filechampion.filechampion4j.</text>
<text text-anchor="middle" x="914.5" y="-128" font-family="Helvetica,sans-Serif" font-size="10.00">FileAclHelper.setNewPermissionsUnix</text>
</a>
</g>
</g>
<!-- Node29&#45;&gt;Node30 -->
<g id="edge42" class="edge">
<title>Node29&#45;&gt;Node30</title>
<path fill="none" stroke="#63b8ff" d="M777.3,-136C788.66,-136 800.45,-136 812.13,-136"/>
<polygon fill="#63b8ff" stroke="#63b8ff" points="811.8,-139.5 821.8,-136 811.8,-132.5 811.8,-139.5"/>
</g>
<!-- Node31 -->
<g id="node31" class="node">
<title>Node31</title>
<g id="a_node31"><a xlink:href="classdev_1_1filechampion_1_1filechampion4j_1_1_file_acl_helper.html#a5c4d050d4ddf432b45ffe49b48b20735" target="_top" xlink:title=" ">
<polygon fill="white" stroke="#666666" points="1016,-103 813,-103 813,-73 1016,-73 1016,-103"/>
<text text-anchor="start" x="821" y="-91" font-family="Helvetica,sans-Serif" font-size="10.00">dev.filechampion.filechampion4j.</text>
<text text-anchor="middle" x="914.5" y="-80" font-family="Helvetica,sans-Serif" font-size="10.00">FileAclHelper.setNewPermissionsWindows</text>
</a>
</g>
</g>
<!-- Node29&#45;&gt;Node31 -->
<g id="edge45" class="edge">
<title>Node29&#45;&gt;Node31</title>
<path fill="none" stroke="#63b8ff" d="M766.02,-120.55C787.36,-115.84 810.99,-110.62 832.97,-105.77"/>
<polygon fill="#63b8ff" stroke="#63b8ff" points="833.6,-109 842.62,-103.42 832.1,-102.16 833.6,-109"/>
</g>
<!-- Node30&#45;&gt;Node26 -->
<g id="edge44" class="edge">
<title>Node30&#45;&gt;Node26</title>
<path fill="none" stroke="#63b8ff" d="M1006.45,-151.37C1017.85,-153.3 1029.48,-155.27 1040.83,-157.18"/>
<polygon fill="#63b8ff" stroke="#63b8ff" points="1040.16,-160.79 1050.6,-159 1041.32,-153.88 1040.16,-160.79"/>
</g>
<!-- Node30&#45;&gt;Node27 -->
<g id="edge43" class="edge">
<title>Node30&#45;&gt;Node27</title>
<path fill="none" stroke="#63b8ff" d="M1006.45,-125.75C1017.85,-124.47 1029.48,-123.16 1040.83,-121.88"/>
<polygon fill="#63b8ff" stroke="#63b8ff" points="1041.05,-125.26 1050.6,-120.66 1040.27,-118.31 1041.05,-125.26"/>
</g>
<!-- Node31&#45;&gt;Node26 -->
<g id="edge47" class="edge">
<title>Node31&#45;&gt;Node26</title>
<path fill="none" stroke="#63b8ff" d="M992.7,-103.46C1000.7,-105.94 1008.6,-108.77 1016,-112 1033.63,-119.69 1035.25,-126.55 1052,-136 1061.88,-141.58 1072.77,-147.07 1083.16,-152.02"/>
<polygon fill="#63b8ff" stroke="#63b8ff" points="1081.37,-155.51 1091.91,-156.58 1084.34,-149.17 1081.37,-155.51"/>
</g>
<!-- Node31&#45;&gt;Node27 -->
<g id="edge46" class="edge">
<title>Node31&#45;&gt;Node27</title>
<path fill="none" stroke="#63b8ff" d="M1016.39,-99.37C1024.52,-100.28 1032.69,-101.2 1040.72,-102.11"/>
<polygon fill="#63b8ff" stroke="#63b8ff" points="1040.23,-105.69 1050.56,-103.33 1041.02,-98.73 1040.23,-105.69"/>
</g>
</g>
</svg>
