<?xml version="1.0" encoding="UTF-8" standalone="no"?>
<!DOCTYPE svg PUBLIC "-//W3C//DTD SVG 1.1//EN"
 "http://www.w3.org/Graphics/SVG/1.1/DTD/svg11.dtd">
<!-- Generated by graphviz version 8.0.3 (20230416.2022)
 -->
<!-- Title: dev.filechampion.filechampion4j.FileValidator.logWarn Pages: 1 -->
<svg width="1141pt" height="327pt"
 viewBox="0.00 0.00 1141.00 327.11" xmlns="http://www.w3.org/2000/svg" xmlns:xlink="http://www.w3.org/1999/xlink">
<g id="graph0" class="graph" transform="scale(1 1) rotate(0) translate(4 323.11)">
<title>dev.filechampion.filechampion4j.FileValidator.logWarn</title>
<!-- Node1 -->
<g id="node1" class="node">
<title>Node1</title>
<g id="a_node1"><a xlink:title=" ">
<polygon fill="#999999" stroke="#666666" points="1133,-162.3 978,-162.3 978,-132.3 1133,-132.3 1133,-162.3"/>
<text text-anchor="start" x="986" y="-150.3" font-family="Helvetica,sans-Serif" font-size="10.00">dev.filechampion.filechampion4j.</text>
<text text-anchor="middle" x="1055.5" y="-139.3" font-family="Helvetica,sans-Serif" font-size="10.00">FileValidator.logWarn</text>
</a>
</g>
</g>
<!-- Node2 -->
<g id="node2" class="node">
<title>Node2</title>
<g id="a_node2"><a xlink:href="classdev_1_1filechampion_1_1filechampion4j_1_1_file_validator.html#a43efc49c658a962ad7a5e6ee364cbac2" target="_top" xlink:title=" ">
<polygon fill="white" stroke="#666666" points="747,-227.3 592,-227.3 592,-197.3 747,-197.3 747,-227.3"/>
<text text-anchor="start" x="600" y="-215.3" font-family="Helvetica,sans-Serif" font-size="10.00">dev.filechampion.filechampion4j.</text>
<text text-anchor="middle" x="669.5" y="-204.3" font-family="Helvetica,sans-Serif" font-size="10.00">FileValidator.checkMimeType</text>
</a>
</g>
</g>
<!-- Node1&#45;&gt;Node2 -->
<g id="edge1" class="edge">
<title>Node1&#45;&gt;Node2</title>
<path fill="none" stroke="#63b8ff" d="M1014.47,-167.31C993.43,-176.88 966.9,-187.5 942,-193.3 877.46,-208.35 802.15,-212.61 747.24,-213.39"/>
<polygon fill="#63b8ff" stroke="#63b8ff" points="1015.74,-170.11 1023.33,-162.72 1012.79,-163.77 1015.74,-170.11"/>
</g>
<!-- Node3 -->
<g id="node3" class="node">
<title>Node3</title>
<g id="a_node3"><a xlink:href="classdev_1_1filechampion_1_1filechampion4j_1_1_file_validator.html#aaeb2a194d8491d3f240893cf076098e0" target="_top" xlink:title=" ">
<polygon fill="white" stroke="#666666" points="352.5,-208.3 197.5,-208.3 197.5,-178.3 352.5,-178.3 352.5,-208.3"/>
<text text-anchor="start" x="205.5" y="-196.3" font-family="Helvetica,sans-Serif" font-size="10.00">dev.filechampion.filechampion4j.</text>
<text text-anchor="middle" x="275" y="-185.3" font-family="Helvetica,sans-Serif" font-size="10.00">FileValidator.doValidations</text>
</a>
</g>
</g>
<!-- Node1&#45;&gt;Node3 -->
<g id="edge13" class="edge">
<title>Node1&#45;&gt;Node3</title>
<path fill="none" stroke="#63b8ff" d="M1042.22,-171.92C1024.87,-203.61 989.86,-257.21 942,-279.3 716.8,-383.26 405.93,-255.03 307.32,-208.74"/>
<polygon fill="#63b8ff" stroke="#63b8ff" points="1045.64,-173.95 1047.23,-163.47 1039.46,-170.67 1045.64,-173.95"/>
</g>
<!-- Node4 -->
<g id="node4" class="node">
<title>Node4</title>
<g id="a_node4"><a xlink:href="classdev_1_1filechampion_1_1filechampion4j_1_1_file_validator.html#a0c42ecd30b213d35bf114d84e7b40f9f" target="_top" xlink:title=" ">
<polygon fill="white" stroke="#666666" points="155,-141.3 0,-141.3 0,-111.3 155,-111.3 155,-141.3"/>
<text text-anchor="start" x="8" y="-129.3" font-family="Helvetica,sans-Serif" font-size="10.00">dev.filechampion.filechampion4j.</text>
<text text-anchor="middle" x="77.5" y="-118.3" font-family="Helvetica,sans-Serif" font-size="10.00">FileValidator.validateFile</text>
</a>
</g>
</g>
<!-- Node1&#45;&gt;Node4 -->
<g id="edge18" class="edge">
<title>Node1&#45;&gt;Node4</title>
<path fill="none" stroke="#63b8ff" d="M1037.06,-123.57C1017.11,-98.39 982,-59.61 942,-40.3 832.27,12.66 792.34,-2.3 670.5,-2.3 670.5,-2.3 670.5,-2.3 474.5,-2.3 330.78,-2.3 170.57,-77.61 106.85,-110.85"/>
<polygon fill="#63b8ff" stroke="#63b8ff" points="1034.82,-125.4 1043.7,-131.18 1040.36,-121.12 1034.82,-125.4"/>
</g>
<!-- Node5 -->
<g id="node5" class="node">
<title>Node5</title>
<g id="a_node5"><a xlink:href="classdev_1_1filechampion_1_1filechampion4j_1_1_file_validator.html#a62c4a7a9000c3144937697051081dce2" target="_top" xlink:title=" ">
<polygon fill="white" stroke="#666666" points="942,-98.3 783,-98.3 783,-68.3 942,-68.3 942,-98.3"/>
<text text-anchor="start" x="791" y="-86.3" font-family="Helvetica,sans-Serif" font-size="10.00">dev.filechampion.filechampion4j.</text>
<text text-anchor="middle" x="862.5" y="-75.3" font-family="Helvetica,sans-Serif" font-size="10.00">FileValidator.checkPluginsConfig</text>
</a>
</g>
</g>
<!-- Node1&#45;&gt;Node5 -->
<g id="edge4" class="edge">
<title>Node1&#45;&gt;Node5</title>
<path fill="none" stroke="#63b8ff" d="M998.15,-128.42C969.96,-118.97 936.27,-107.69 909.64,-98.76"/>
<polygon fill="#63b8ff" stroke="#63b8ff" points="996.67,-131.95 1007.26,-131.81 998.89,-125.31 996.67,-131.95"/>
</g>
<!-- Node6 -->
<g id="node6" class="node">
<title>Node6</title>
<g id="a_node6"><a xlink:href="classdev_1_1filechampion_1_1filechampion4j_1_1_file_validator.html#a5239bec4548e36c68d28e92281006d99" target="_top" xlink:title=" ">
<polygon fill="white" stroke="#666666" points="747,-87.3 592,-87.3 592,-57.3 747,-57.3 747,-87.3"/>
<text text-anchor="start" x="600" y="-75.3" font-family="Helvetica,sans-Serif" font-size="10.00">dev.filechampion.filechampion4j.</text>
<text text-anchor="middle" x="669.5" y="-64.3" font-family="Helvetica,sans-Serif" font-size="10.00">FileValidator.FileValidator</text>
</a>
</g>
</g>
<!-- Node1&#45;&gt;Node6 -->
<g id="edge15" class="edge">
<title>Node1&#45;&gt;Node6</title>
<path fill="none" stroke="#63b8ff" d="M1033.96,-124.11C1013.22,-102.61 979.05,-72.07 942,-59.3 872.63,-35.39 787.36,-45.32 731.1,-56.81"/>
<polygon fill="#63b8ff" stroke="#63b8ff" points="1031.09,-126.23 1040.48,-131.13 1036.19,-121.44 1031.09,-126.23"/>
</g>
<!-- Node7 -->
<g id="node7" class="node">
<title>Node7</title>
<g id="a_node7"><a xlink:href="classdev_1_1filechampion_1_1filechampion4j_1_1_file_validator.html#a8e5b65357971125d0d18f1ca1a303a82" target="_top" xlink:title=" ">
<polygon fill="white" stroke="#666666" points="940,-184.3 785,-184.3 785,-154.3 940,-154.3 940,-184.3"/>
<text text-anchor="start" x="793" y="-172.3" font-family="Helvetica,sans-Serif" font-size="10.00">dev.filechampion.filechampion4j.</text>
<text text-anchor="middle" x="862.5" y="-161.3" font-family="Helvetica,sans-Serif" font-size="10.00">FileValidator.deleteTempDir</text>
</a>
</g>
</g>
<!-- Node1&#45;&gt;Node7 -->
<g id="edge6" class="edge">
<title>Node1&#45;&gt;Node7</title>
<path fill="none" stroke="#63b8ff" d="M966.85,-157.4C957.96,-158.42 948.97,-159.46 940.2,-160.47"/>
<polygon fill="#63b8ff" stroke="#63b8ff" points="967.1,-160.78 976.64,-156.15 966.3,-153.82 967.1,-160.78"/>
</g>
<!-- Node8 -->
<g id="node8" class="node">
<title>Node8</title>
<g id="a_node8"><a xlink:href="classdev_1_1filechampion_1_1filechampion4j_1_1_file_validator.html#a00a7f2979f0321f1823ce815ecd20945" target="_top" xlink:title=" ">
<polygon fill="white" stroke="#666666" points="747,-151.3 592,-151.3 592,-121.3 747,-121.3 747,-151.3"/>
<text text-anchor="start" x="600" y="-139.3" font-family="Helvetica,sans-Serif" font-size="10.00">dev.filechampion.filechampion4j.</text>
<text text-anchor="middle" x="669.5" y="-128.3" font-family="Helvetica,sans-Serif" font-size="10.00">FileValidator.executePlugin</text>
</a>
</g>
</g>
<!-- Node1&#45;&gt;Node8 -->
<g id="edge14" class="edge">
<title>Node1&#45;&gt;Node8</title>
<path fill="none" stroke="#63b8ff" d="M966.9,-144.79C900.76,-142.9 810.87,-140.32 747.48,-138.51"/>
<polygon fill="#63b8ff" stroke="#63b8ff" points="966.62,-148.31 976.71,-145.1 966.82,-141.32 966.62,-148.31"/>
</g>
<!-- Node11 -->
<g id="node11" class="node">
<title>Node11</title>
<g id="a_node11"><a xlink:href="classdev_1_1filechampion_1_1filechampion4j_1_1_file_validator.html#a2b27e9be1beb47813b10dbd8dccf97f4" target="_top" xlink:title=" ">
<polygon fill="white" stroke="#666666" points="940,-270.3 785,-270.3 785,-240.3 940,-240.3 940,-270.3"/>
<text text-anchor="start" x="793" y="-258.3" font-family="Helvetica,sans-Serif" font-size="10.00">dev.filechampion.filechampion4j.</text>
<text text-anchor="middle" x="862.5" y="-247.3" font-family="Helvetica,sans-Serif" font-size="10.00">FileValidator.saveFileToTempDir</text>
</a>
</g>
</g>
<!-- Node1&#45;&gt;Node11 -->
<g id="edge16" class="edge">
<title>Node1&#45;&gt;Node11</title>
<path fill="none" stroke="#63b8ff" d="M1027.48,-169.29C1005.45,-186.45 973.02,-210.03 942,-226.3 932.35,-231.36 921.62,-235.95 911.26,-239.9"/>
<polygon fill="#63b8ff" stroke="#63b8ff" points="1029.28,-171.54 1034.96,-162.59 1024.94,-166.04 1029.28,-171.54"/>
</g>
<!-- Node2&#45;&gt;Node3 -->
<g id="edge2" class="edge">
<title>Node2&#45;&gt;Node3</title>
<path fill="none" stroke="#63b8ff" d="M581.13,-208.07C512.67,-204.76 418.33,-200.19 352.75,-197.02"/>
<polygon fill="#63b8ff" stroke="#63b8ff" points="580.73,-211.61 590.89,-208.59 581.07,-204.61 580.73,-211.61"/>
</g>
<!-- Node3&#45;&gt;Node4 -->
<g id="edge3" class="edge">
<title>Node3&#45;&gt;Node4</title>
<path fill="none" stroke="#63b8ff" d="M218.8,-174.38C188.67,-164.06 151.84,-151.44 123.48,-141.72"/>
<polygon fill="#63b8ff" stroke="#63b8ff" points="217.55,-178 228.15,-177.93 219.82,-171.38 217.55,-178"/>
</g>
<!-- Node5&#45;&gt;Node6 -->
<g id="edge5" class="edge">
<title>Node5&#45;&gt;Node6</title>
<path fill="none" stroke="#63b8ff" d="M771.93,-78.14C763.68,-77.67 755.38,-77.19 747.26,-76.72"/>
<polygon fill="#63b8ff" stroke="#63b8ff" points="771.53,-81.68 781.71,-78.76 771.93,-74.69 771.53,-81.68"/>
</g>
<!-- Node7&#45;&gt;Node2 -->
<g id="edge7" class="edge">
<title>Node7&#45;&gt;Node2</title>
<path fill="none" stroke="#63b8ff" d="M782.47,-187.09C768.11,-190.33 753.25,-193.67 739.22,-196.83"/>
<polygon fill="#63b8ff" stroke="#63b8ff" points="782.83,-190.38 791.81,-184.76 781.29,-183.55 782.83,-190.38"/>
</g>
<!-- Node7&#45;&gt;Node8 -->
<g id="edge8" class="edge">
<title>Node7&#45;&gt;Node8</title>
<path fill="none" stroke="#63b8ff" d="M773.85,-154.16C764.96,-152.62 755.97,-151.07 747.2,-149.55"/>
<polygon fill="#63b8ff" stroke="#63b8ff" points="773.19,-157.77 783.64,-156.02 774.38,-150.87 773.19,-157.77"/>
</g>
<!-- Node9 -->
<g id="node9" class="node">
<title>Node9</title>
<g id="a_node9"><a xlink:href="classdev_1_1filechampion_1_1filechampion4j_1_1_file_validator.html#aa2bf7ccde349fc95be4c912cd42a6c95" target="_top" xlink:title=" ">
<polygon fill="white" stroke="#666666" points="556,-184.3 395,-184.3 395,-154.3 556,-154.3 556,-184.3"/>
<text text-anchor="start" x="403" y="-172.3" font-family="Helvetica,sans-Serif" font-size="10.00">dev.filechampion.filechampion4j.</text>
<text text-anchor="middle" x="475.5" y="-161.3" font-family="Helvetica,sans-Serif" font-size="10.00">FileValidator.executeAfterPlugins</text>
</a>
</g>
</g>
<!-- Node8&#45;&gt;Node9 -->
<g id="edge9" class="edge">
<title>Node8&#45;&gt;Node9</title>
<path fill="none" stroke="#63b8ff" d="M580.84,-151.37C572.67,-152.77 564.42,-154.19 556.33,-155.58"/>
<polygon fill="#63b8ff" stroke="#63b8ff" points="581.25,-154.68 590.51,-149.53 580.06,-147.78 581.25,-154.68"/>
</g>
<!-- Node10 -->
<g id="node10" class="node">
<title>Node10</title>
<g id="a_node10"><a xlink:href="classdev_1_1filechampion_1_1filechampion4j_1_1_file_validator.html#aa3d78c6d5ccf1abfdb1284969a9d2117" target="_top" xlink:title=" ">
<polygon fill="white" stroke="#666666" points="359,-141.3 191,-141.3 191,-111.3 359,-111.3 359,-141.3"/>
<text text-anchor="start" x="199" y="-129.3" font-family="Helvetica,sans-Serif" font-size="10.00">dev.filechampion.filechampion4j.</text>
<text text-anchor="middle" x="275" y="-118.3" font-family="Helvetica,sans-Serif" font-size="10.00">FileValidator.executeBeforePlugins</text>
</a>
</g>
</g>
<!-- Node8&#45;&gt;Node10 -->
<g id="edge11" class="edge">
<title>Node8&#45;&gt;Node10</title>
<path fill="none" stroke="#63b8ff" d="M581.06,-134.07C514.81,-132.39 424.38,-130.08 359.2,-128.42"/>
<polygon fill="#63b8ff" stroke="#63b8ff" points="580.8,-137.59 590.89,-134.35 580.98,-130.6 580.8,-137.59"/>
</g>
<!-- Node9&#45;&gt;Node3 -->
<g id="edge10" class="edge">
<title>Node9&#45;&gt;Node3</title>
<path fill="none" stroke="#63b8ff" d="M383.87,-180.26C373.49,-181.51 362.99,-182.78 352.82,-184.01"/>
<polygon fill="#63b8ff" stroke="#63b8ff" points="384.11,-183.63 393.62,-178.96 383.27,-176.69 384.11,-183.63"/>
</g>
<!-- Node10&#45;&gt;Node4 -->
<g id="edge12" class="edge">
<title>Node10&#45;&gt;Node4</title>
<path fill="none" stroke="#63b8ff" d="M179.75,-126.3C171.52,-126.3 163.26,-126.3 155.2,-126.3"/>
<polygon fill="#63b8ff" stroke="#63b8ff" points="179.52,-129.8 189.52,-126.3 179.52,-122.8 179.52,-129.8"/>
</g>
<!-- Node11&#45;&gt;Node2 -->
<g id="edge17" class="edge">
<title>Node11&#45;&gt;Node2</title>
<path fill="none" stroke="#63b8ff" d="M782.47,-237.51C768.11,-234.28 753.25,-230.93 739.22,-227.77"/>
<polygon fill="#63b8ff" stroke="#63b8ff" points="781.29,-241.06 791.81,-239.84 782.83,-234.23 781.29,-241.06"/>
</g>
</g>
</svg>
