<?xml version="1.0" encoding="UTF-8" standalone="no"?>
<!DOCTYPE svg PUBLIC "-//W3C//DTD SVG 1.1//EN"
 "http://www.w3.org/Graphics/SVG/1.1/DTD/svg11.dtd">
<!-- Generated by graphviz version 8.0.3 (20230416.2022)
 -->
<!-- Title: dev.filechampion.filechampion4j.FileValidator.deleteTempDir Pages: 1 -->
<svg width="946pt" height="124pt"
 viewBox="0.00 0.00 946.00 124.00" xmlns="http://www.w3.org/2000/svg" xmlns:xlink="http://www.w3.org/1999/xlink">
<g id="graph0" class="graph" transform="scale(1 1) rotate(0) translate(4 120)">
<title>dev.filechampion.filechampion4j.FileValidator.deleteTempDir</title>
<!-- Node1 -->
<g id="node1" class="node">
<title>Node1</title>
<g id="a_node1"><a xlink:title=" ">
<polygon fill="#999999" stroke="#666666" points="938,-92 783,-92 783,-62 938,-62 938,-92"/>
<text text-anchor="start" x="791" y="-80" font-family="Helvetica,sans-Serif" font-size="10.00">dev.filechampion.filechampion4j.</text>
<text text-anchor="middle" x="860.5" y="-69" font-family="Helvetica,sans-Serif" font-size="10.00">FileValidator.deleteTempDir</text>
</a>
</g>
</g>
<!-- Node2 -->
<g id="node2" class="node">
<title>Node2</title>
<g id="a_node2"><a xlink:href="classdev_1_1filechampion_1_1filechampion4j_1_1_file_validator.html#a43efc49c658a962ad7a5e6ee364cbac2" target="_top" xlink:title=" ">
<polygon fill="white" stroke="#666666" points="747,-116 592,-116 592,-86 747,-86 747,-116"/>
<text text-anchor="start" x="600" y="-104" font-family="Helvetica,sans-Serif" font-size="10.00">dev.filechampion.filechampion4j.</text>
<text text-anchor="middle" x="669.5" y="-93" font-family="Helvetica,sans-Serif" font-size="10.00">FileValidator.checkMimeType</text>
</a>
</g>
</g>
<!-- Node1&#45;&gt;Node2 -->
<g id="edge1" class="edge">
<title>Node1&#45;&gt;Node2</title>
<path fill="none" stroke="#63b8ff" d="M771.89,-88.12C763.68,-89.17 755.41,-90.22 747.31,-91.25"/>
<polygon fill="#63b8ff" stroke="#63b8ff" points="772.15,-91.49 781.63,-86.76 771.27,-84.55 772.15,-91.49"/>
</g>
<!-- Node5 -->
<g id="node5" class="node">
<title>Node5</title>
<g id="a_node5"><a xlink:href="classdev_1_1filechampion_1_1filechampion4j_1_1_file_validator.html#a00a7f2979f0321f1823ce815ecd20945" target="_top" xlink:title=" ">
<polygon fill="white" stroke="#666666" points="747,-68 592,-68 592,-38 747,-38 747,-68"/>
<text text-anchor="start" x="600" y="-56" font-family="Helvetica,sans-Serif" font-size="10.00">dev.filechampion.filechampion4j.</text>
<text text-anchor="middle" x="669.5" y="-45" font-family="Helvetica,sans-Serif" font-size="10.00">FileValidator.executePlugin</text>
</a>
</g>
</g>
<!-- Node1&#45;&gt;Node5 -->
<g id="edge4" class="edge">
<title>Node1&#45;&gt;Node5</title>
<path fill="none" stroke="#63b8ff" d="M771.89,-65.88C763.68,-64.83 755.41,-63.78 747.31,-62.75"/>
<polygon fill="#63b8ff" stroke="#63b8ff" points="771.27,-69.45 781.63,-67.24 772.15,-62.51 771.27,-69.45"/>
</g>
<!-- Node3 -->
<g id="node3" class="node">
<title>Node3</title>
<g id="a_node3"><a xlink:href="classdev_1_1filechampion_1_1filechampion4j_1_1_file_validator.html#aaeb2a194d8491d3f240893cf076098e0" target="_top" xlink:title=" ">
<polygon fill="white" stroke="#666666" points="352.5,-78 197.5,-78 197.5,-48 352.5,-48 352.5,-78"/>
<text text-anchor="start" x="205.5" y="-66" font-family="Helvetica,sans-Serif" font-size="10.00">dev.filechampion.filechampion4j.</text>
<text text-anchor="middle" x="275" y="-55" font-family="Helvetica,sans-Serif" font-size="10.00">FileValidator.doValidations</text>
</a>
</g>
</g>
<!-- Node2&#45;&gt;Node3 -->
<g id="edge2" class="edge">
<title>Node2&#45;&gt;Node3</title>
<path fill="none" stroke="#63b8ff" d="M580.84,-96.9C527.09,-93.89 456.94,-89.08 395,-82 381.39,-80.44 366.95,-78.44 353,-76.32"/>
<polygon fill="#63b8ff" stroke="#63b8ff" points="580.53,-100.44 590.7,-97.49 580.91,-93.45 580.53,-100.44"/>
</g>
<!-- Node4 -->
<g id="node4" class="node">
<title>Node4</title>
<g id="a_node4"><a xlink:href="classdev_1_1filechampion_1_1filechampion4j_1_1_file_validator.html#a0c42ecd30b213d35bf114d84e7b40f9f" target="_top" xlink:title=" ">
<polygon fill="white" stroke="#666666" points="155,-54 0,-54 0,-24 155,-24 155,-54"/>
<text text-anchor="start" x="8" y="-42" font-family="Helvetica,sans-Serif" font-size="10.00">dev.filechampion.filechampion4j.</text>
<text text-anchor="middle" x="77.5" y="-31" font-family="Helvetica,sans-Serif" font-size="10.00">FileValidator.validateFile</text>
</a>
</g>
</g>
<!-- Node3&#45;&gt;Node4 -->
<g id="edge3" class="edge">
<title>Node3&#45;&gt;Node4</title>
<path fill="none" stroke="#63b8ff" d="M186.34,-52.24C176.03,-50.97 165.57,-49.69 155.42,-48.44"/>
<polygon fill="#63b8ff" stroke="#63b8ff" points="185.66,-55.8 196.01,-53.55 186.51,-48.86 185.66,-55.8"/>
</g>
<!-- Node6 -->
<g id="node6" class="node">
<title>Node6</title>
<g id="a_node6"><a xlink:href="classdev_1_1filechampion_1_1filechampion4j_1_1_file_validator.html#aa2bf7ccde349fc95be4c912cd42a6c95" target="_top" xlink:title=" ">
<polygon fill="white" stroke="#666666" points="556,-73 395,-73 395,-43 556,-43 556,-73"/>
<text text-anchor="start" x="403" y="-61" font-family="Helvetica,sans-Serif" font-size="10.00">dev.filechampion.filechampion4j.</text>
<text text-anchor="middle" x="475.5" y="-50" font-family="Helvetica,sans-Serif" font-size="10.00">FileValidator.executeAfterPlugins</text>
</a>
</g>
</g>
<!-- Node5&#45;&gt;Node6 -->
<g id="edge5" class="edge">
<title>Node5&#45;&gt;Node6</title>
<path fill="none" stroke="#63b8ff" d="M580.56,-55.29C572.49,-55.5 564.33,-55.71 556.33,-55.92"/>
<polygon fill="#63b8ff" stroke="#63b8ff" points="580.61,-58.76 590.51,-55 580.42,-51.77 580.61,-58.76"/>
</g>
<!-- Node7 -->
<g id="node7" class="node">
<title>Node7</title>
<g id="a_node7"><a xlink:href="classdev_1_1filechampion_1_1filechampion4j_1_1_file_validator.html#aa3d78c6d5ccf1abfdb1284969a9d2117" target="_top" xlink:title=" ">
<polygon fill="white" stroke="#666666" points="359,-30 191,-30 191,0 359,0 359,-30"/>
<text text-anchor="start" x="199" y="-18" font-family="Helvetica,sans-Serif" font-size="10.00">dev.filechampion.filechampion4j.</text>
<text text-anchor="middle" x="275" y="-7" font-family="Helvetica,sans-Serif" font-size="10.00">FileValidator.executeBeforePlugins</text>
</a>
</g>
</g>
<!-- Node5&#45;&gt;Node7 -->
<g id="edge7" class="edge">
<title>Node5&#45;&gt;Node7</title>
<path fill="none" stroke="#63b8ff" d="M581.1,-37.36C572.63,-36.11 564.16,-34.96 556,-34 490.07,-26.22 415.01,-21.34 359.21,-18.47"/>
<polygon fill="#63b8ff" stroke="#63b8ff" points="580.38,-40.95 590.79,-39 581.43,-34.03 580.38,-40.95"/>
</g>
<!-- Node6&#45;&gt;Node3 -->
<g id="edge6" class="edge">
<title>Node6&#45;&gt;Node3</title>
<path fill="none" stroke="#63b8ff" d="M383.87,-60.28C373.49,-60.54 362.99,-60.81 352.82,-61.07"/>
<polygon fill="#63b8ff" stroke="#63b8ff" points="383.71,-63.76 393.62,-60.01 383.54,-56.77 383.71,-63.76"/>
</g>
<!-- Node7&#45;&gt;Node4 -->
<g id="edge8" class="edge">
<title>Node7&#45;&gt;Node4</title>
<path fill="none" stroke="#63b8ff" d="M179.75,-26.57C171.52,-27.58 163.26,-28.6 155.2,-29.58"/>
<polygon fill="#63b8ff" stroke="#63b8ff" points="180.02,-29.94 189.52,-25.25 179.17,-22.99 180.02,-29.94"/>
</g>
</g>
</svg>
