<?xml version="1.0" encoding="UTF-8" standalone="no"?>
<!DOCTYPE svg PUBLIC "-//W3C//DTD SVG 1.1//EN"
 "http://www.w3.org/Graphics/SVG/1.1/DTD/svg11.dtd">
<!-- Generated by graphviz version 8.0.3 (20230416.2022)
 -->
<!-- Title: dev.filechampion.filechampion4j.FileValidatorLargeFilesBench Pages: 1 -->
<svg width="431pt" height="485pt"
 viewBox="0.00 0.00 430.50 485.00" xmlns="http://www.w3.org/2000/svg" xmlns:xlink="http://www.w3.org/1999/xlink">
<g id="graph0" class="graph" transform="scale(1 1) rotate(0) translate(4 481)">
<title>dev.filechampion.filechampion4j.FileValidatorLargeFilesBench</title>
<!-- Node1 -->
<g id="node1" class="node">
<title>Node1</title>
<g id="a_node1"><a xlink:title=" ">
<polygon fill="#999999" stroke="#666666" points="146,-0.5 146,-156.5 309,-156.5 309,-0.5 146,-0.5"/>
<text text-anchor="start" x="154" y="-144.5" font-family="Helvetica,sans-Serif" font-size="10.00">dev.filechampion.filechampion4j.</text>
<text text-anchor="middle" x="227.5" y="-133.5" font-family="Helvetica,sans-Serif" font-size="10.00">FileValidatorLargeFilesBench</text>
<polyline fill="none" stroke="#666666" points="146,-126.5 309,-126.5"/>
<text text-anchor="start" x="154" y="-114.5" font-family="Helvetica,sans-Serif" font-size="10.00">+ int batchSize</text>
<text text-anchor="start" x="154" y="-103.5" font-family="Helvetica,sans-Serif" font-size="10.00">+ String[] fileNamesArray</text>
<text text-anchor="start" x="154" y="-92.5" font-family="Helvetica,sans-Serif" font-size="10.00">+ int validFilesTimeThreadhold</text>
<text text-anchor="start" x="154" y="-81.5" font-family="Helvetica,sans-Serif" font-size="10.00">+ int invalidFilesTimeThreadhold</text>
<text text-anchor="start" x="154" y="-70.5" font-family="Helvetica,sans-Serif" font-size="10.00">+ int testRepeat</text>
<text text-anchor="start" x="154" y="-59.5" font-family="Helvetica,sans-Serif" font-size="10.00">+ int warmupRepeats</text>
<text text-anchor="start" x="154" y="-48.5" font-family="Helvetica,sans-Serif" font-size="10.00">+ static String tempDirectory</text>
<polyline fill="none" stroke="#666666" points="146,-41.5 309,-41.5"/>
<text text-anchor="start" x="154" y="-29.5" font-family="Helvetica,sans-Serif" font-size="10.00">+ static void printeBenchResults()</text>
<text text-anchor="start" x="154" y="-18.5" font-family="Helvetica,sans-Serif" font-size="10.00">~ void setUp()</text>
<text text-anchor="start" x="154" y="-7.5" font-family="Helvetica,sans-Serif" font-size="10.00">~ void testValidInputs()</text>
</a>
</g>
</g>
<!-- Node2 -->
<g id="node2" class="node">
<title>Node2</title>
<g id="a_node2"><a xlink:href="classdev_1_1filechampion_1_1filechampion4j_1_1_file_validator.html" target="_top" xlink:title=" ">
<polygon fill="white" stroke="#666666" points="0,-204.5 0,-371.5 155,-371.5 155,-204.5 0,-204.5"/>
<text text-anchor="start" x="8" y="-359.5" font-family="Helvetica,sans-Serif" font-size="10.00">dev.filechampion.filechampion4j.</text>
<text text-anchor="middle" x="77.5" y="-348.5" font-family="Helvetica,sans-Serif" font-size="10.00">FileValidator</text>
<polyline fill="none" stroke="#666666" points="0,-341.5 155,-341.5"/>
<text text-anchor="middle" x="77.5" y="-329.5" font-family="Helvetica,sans-Serif" font-size="10.00"> </text>
<polyline fill="none" stroke="#666666" points="0,-322.5 155,-322.5"/>
<text text-anchor="start" x="8" y="-310.5" font-family="Helvetica,sans-Serif" font-size="10.00">+ FileValidator(JSONObject</text>
<text text-anchor="start" x="8" y="-299.5" font-family="Helvetica,sans-Serif" font-size="10.00"> configJsonObject)</text>
<text text-anchor="start" x="8" y="-288.5" font-family="Helvetica,sans-Serif" font-size="10.00">+ ValidationResponse</text>
<text text-anchor="start" x="8" y="-277.5" font-family="Helvetica,sans-Serif" font-size="10.00"> validateFile(String</text>
<text text-anchor="start" x="8" y="-266.5" font-family="Helvetica,sans-Serif" font-size="10.00"> fileCategory, byte[]</text>
<text text-anchor="start" x="8" y="-255.5" font-family="Helvetica,sans-Serif" font-size="10.00"> originalFile, String</text>
<text text-anchor="start" x="8" y="-244.5" font-family="Helvetica,sans-Serif" font-size="10.00"> fileName, String... outputDir)</text>
<text text-anchor="start" x="8" y="-233.5" font-family="Helvetica,sans-Serif" font-size="10.00">+ static boolean isBlank</text>
<text text-anchor="start" x="8" y="-222.5" font-family="Helvetica,sans-Serif" font-size="10.00">(String str)</text>
<text text-anchor="start" x="8" y="-211.5" font-family="Helvetica,sans-Serif" font-size="10.00">~ [static initializer]</text>
</a>
</g>
</g>
<!-- Node2&#45;&gt;Node1 -->
<g id="edge1" class="edge">
<title>Node2&#45;&gt;Node1</title>
<path fill="none" stroke="#404040" d="M126.21,-204.7C132.8,-194.54 139.66,-184.43 146.5,-175 148.53,-172.21 150.61,-169.4 152.74,-166.58"/>
<polygon fill="none" stroke="#404040" points="152.74,-166.58 153.24,-159.39 160.07,-157.08 159.57,-164.27 152.74,-166.58"/>
<text text-anchor="middle" x="169" y="-178" font-family="Helvetica,sans-Serif" font-size="10.00"> +validator</text>
</g>
<!-- Node3 -->
<g id="node3" class="node">
<title>Node3</title>
<g id="a_node3"><a xlink:title=" ">
<polygon fill="white" stroke="#666666" points="173.5,-259.5 173.5,-316.5 205.5,-316.5 205.5,-259.5 173.5,-259.5"/>
<text text-anchor="middle" x="189.5" y="-304.5" font-family="Helvetica,sans-Serif" font-size="10.00">File</text>
<polyline fill="none" stroke="#666666" points="173.5,-297.5 205.5,-297.5"/>
<text text-anchor="middle" x="189.5" y="-285.5" font-family="Helvetica,sans-Serif" font-size="10.00"> </text>
<polyline fill="none" stroke="#666666" points="173.5,-278.5 205.5,-278.5"/>
<text text-anchor="middle" x="189.5" y="-266.5" font-family="Helvetica,sans-Serif" font-size="10.00"> </text>
</a>
</g>
</g>
<!-- Node3&#45;&gt;Node1 -->
<g id="edge2" class="edge">
<title>Node3&#45;&gt;Node1</title>
<path fill="none" stroke="#404040" d="M189.3,-259.6C189.59,-236.78 191.07,-203.52 196.5,-175 196.88,-173.01 197.29,-170.99 197.72,-168.97"/>
<polygon fill="none" stroke="#404040" points="197.71,-169.02 195.21,-162.26 200.49,-157.35 202.99,-164.11 197.71,-169.02"/>
<text text-anchor="middle" x="220" y="-178" font-family="Helvetica,sans-Serif" font-size="10.00"> +testFiles</text>
</g>
<!-- Node4 -->
<g id="node4" class="node">
<title>Node4</title>
<g id="a_node4"><a xlink:title=" ">
<polygon fill="white" stroke="#666666" points="224,-259.5 224,-316.5 319,-316.5 319,-259.5 224,-259.5"/>
<text text-anchor="middle" x="271.5" y="-304.5" font-family="Helvetica,sans-Serif" font-size="10.00">ArrayList&lt; byte[]&gt;</text>
<polyline fill="none" stroke="#666666" points="224,-297.5 319,-297.5"/>
<text text-anchor="middle" x="271.5" y="-285.5" font-family="Helvetica,sans-Serif" font-size="10.00"> </text>
<polyline fill="none" stroke="#666666" points="224,-278.5 319,-278.5"/>
<text text-anchor="middle" x="271.5" y="-266.5" font-family="Helvetica,sans-Serif" font-size="10.00"> </text>
</a>
</g>
</g>
<!-- Node4&#45;&gt;Node1 -->
<g id="edge3" class="edge">
<title>Node4&#45;&gt;Node1</title>
<path fill="none" stroke="#404040" d="M265.75,-259.87C260.81,-236.59 253.41,-201.68 246.43,-168.76"/>
<polygon fill="none" stroke="#404040" points="246.45,-168.88 241.3,-163.84 243.96,-157.15 249.12,-162.18 246.45,-168.88"/>
<text text-anchor="middle" x="290" y="-178" font-family="Helvetica,sans-Serif" font-size="10.00"> +fileByteArrayList</text>
</g>
<!-- Node5 -->
<g id="node5" class="node">
<title>Node5</title>
<g id="a_node5"><a xlink:title=" ">
<polygon fill="white" stroke="#666666" points="243.5,-419.5 243.5,-476.5 299.5,-476.5 299.5,-419.5 243.5,-419.5"/>
<text text-anchor="middle" x="271.5" y="-464.5" font-family="Helvetica,sans-Serif" font-size="10.00">ArrayList</text>
<polyline fill="none" stroke="#666666" points="243.5,-457.5 299.5,-457.5"/>
<text text-anchor="middle" x="271.5" y="-445.5" font-family="Helvetica,sans-Serif" font-size="10.00"> </text>
<polyline fill="none" stroke="#666666" points="243.5,-438.5 299.5,-438.5"/>
<text text-anchor="middle" x="271.5" y="-426.5" font-family="Helvetica,sans-Serif" font-size="10.00"> </text>
</a>
</g>
</g>
<!-- Node5&#45;&gt;Node4 -->
<g id="edge4" class="edge">
<title>Node5&#45;&gt;Node4</title>
<path fill="none" stroke="orange" d="M271.5,-409.03C271.5,-380.45 271.5,-341.94 271.5,-316.34"/>
<polygon fill="orange" stroke="orange" points="268,-408.84 271.5,-418.84 275,-408.84 268,-408.84"/>
<text text-anchor="middle" x="293" y="-393" font-family="Helvetica,sans-Serif" font-size="10.00"> &lt; byte[]&gt;</text>
</g>
<!-- Node6 -->
<g id="node6" class="node">
<title>Node6</title>
<g id="a_node6"><a xlink:title=" ">
<polygon fill="white" stroke="#666666" points="337.5,-259.5 337.5,-316.5 413.5,-316.5 413.5,-259.5 337.5,-259.5"/>
<text text-anchor="middle" x="375.5" y="-304.5" font-family="Helvetica,sans-Serif" font-size="10.00">List&lt; String &gt;</text>
<polyline fill="none" stroke="#666666" points="337.5,-297.5 413.5,-297.5"/>
<text text-anchor="middle" x="375.5" y="-285.5" font-family="Helvetica,sans-Serif" font-size="10.00"> </text>
<polyline fill="none" stroke="#666666" points="337.5,-278.5 413.5,-278.5"/>
<text text-anchor="middle" x="375.5" y="-266.5" font-family="Helvetica,sans-Serif" font-size="10.00"> </text>
</a>
</g>
</g>
<!-- Node6&#45;&gt;Node1 -->
<g id="edge5" class="edge">
<title>Node6&#45;&gt;Node1</title>
<path fill="none" stroke="#404040" d="M369.57,-259.93C363.47,-236.1 352.3,-201.21 334.5,-175 329.45,-167.57 323.7,-160.33 317.54,-153.38"/>
<polygon fill="none" stroke="#404040" points="317.7,-153.55 310.69,-151.88 309.54,-144.76 316.55,-146.43 317.7,-153.55"/>
<text text-anchor="middle" x="376" y="-178" font-family="Helvetica,sans-Serif" font-size="10.00"> +benchResults</text>
</g>
<!-- Node7 -->
<g id="node7" class="node">
<title>Node7</title>
<g id="a_node7"><a xlink:title=" ">
<polygon fill="white" stroke="#666666" points="359.5,-419.5 359.5,-476.5 391.5,-476.5 391.5,-419.5 359.5,-419.5"/>
<text text-anchor="middle" x="375.5" y="-464.5" font-family="Helvetica,sans-Serif" font-size="10.00">List</text>
<polyline fill="none" stroke="#666666" points="359.5,-457.5 391.5,-457.5"/>
<text text-anchor="middle" x="375.5" y="-445.5" font-family="Helvetica,sans-Serif" font-size="10.00"> </text>
<polyline fill="none" stroke="#666666" points="359.5,-438.5 391.5,-438.5"/>
<text text-anchor="middle" x="375.5" y="-426.5" font-family="Helvetica,sans-Serif" font-size="10.00"> </text>
</a>
</g>
</g>
<!-- Node7&#45;&gt;Node6 -->
<g id="edge6" class="edge">
<title>Node7&#45;&gt;Node6</title>
<path fill="none" stroke="orange" d="M375.5,-409.03C375.5,-380.45 375.5,-341.94 375.5,-316.34"/>
<polygon fill="orange" stroke="orange" points="372,-408.84 375.5,-418.84 379,-408.84 372,-408.84"/>
<text text-anchor="middle" x="399" y="-393" font-family="Helvetica,sans-Serif" font-size="10.00"> &lt; String &gt;</text>
</g>
</g>
</svg>
