<?xml version="1.0" encoding="UTF-8" standalone="no"?>
<!DOCTYPE svg PUBLIC "-//W3C//DTD SVG 1.1//EN"
 "http://www.w3.org/Graphics/SVG/1.1/DTD/svg11.dtd">
<!-- Generated by graphviz version 8.0.3 (20230416.2022)
 -->
<!-- Title: dev.filechampion.filechampion4j.PluginsHelper.PluginConfig.setStepConfigs Pages: 1 -->
<svg width="751pt" height="49pt"
 viewBox="0.00 0.00 751.00 49.00" xmlns="http://www.w3.org/2000/svg" xmlns:xlink="http://www.w3.org/1999/xlink">
<g id="graph0" class="graph" transform="scale(1 1) rotate(0) translate(4 45)">
<title>dev.filechampion.filechampion4j.PluginsHelper.PluginConfig.setStepConfigs</title>
<!-- Node1 -->
<g id="node1" class="node">
<title>Node1</title>
<g id="a_node1"><a xlink:title=" ">
<polygon fill="#999999" stroke="#666666" points="743,-41 573,-41 573,0 743,0 743,-41"/>
<text text-anchor="start" x="581" y="-29" font-family="Helvetica,sans-Serif" font-size="10.00">dev.filechampion.filechampion4j.</text>
<text text-anchor="start" x="581" y="-18" font-family="Helvetica,sans-Serif" font-size="10.00">PluginsHelper.PluginConfig.setStep</text>
<text text-anchor="middle" x="658" y="-7" font-family="Helvetica,sans-Serif" font-size="10.00">Configs</text>
</a>
</g>
</g>
<!-- Node2 -->
<g id="node2" class="node">
<title>Node2</title>
<g id="a_node2"><a xlink:href="$classdev_1_1filechampion_1_1filechampion4j_1_1_plugins_helper.html#a3c9eff65507c31c8b46a1cf0a2199b8d" xlink:title=" ">
<polygon fill="white" stroke="#666666" points="537,-35.5 382,-35.5 382,-5.5 537,-5.5 537,-35.5"/>
<text text-anchor="start" x="390" y="-23.5" font-family="Helvetica,sans-Serif" font-size="10.00">dev.filechampion.filechampion4j.</text>
<text text-anchor="middle" x="459.5" y="-12.5" font-family="Helvetica,sans-Serif" font-size="10.00">PluginsHelper.getPluginConfigs</text>
</a>
</g>
</g>
<!-- Node1&#45;&gt;Node2 -->
<g id="edge1" class="edge">
<title>Node1&#45;&gt;Node2</title>
<path fill="none" stroke="#63b8ff" d="M561.55,-20.5C553.47,-20.5 545.37,-20.5 537.46,-20.5"/>
<polygon fill="#63b8ff" stroke="#63b8ff" points="561.53,-24 571.53,-20.5 561.53,-17 561.53,-24"/>
</g>
<!-- Node3 -->
<g id="node3" class="node">
<title>Node3</title>
<g id="a_node3"><a xlink:href="$classdev_1_1filechampion_1_1filechampion4j_1_1_file_validator.html#aaa8d5ebc07f168c5750e4ed575592a33" xlink:title=" ">
<polygon fill="white" stroke="#666666" points="346,-35.5 191,-35.5 191,-5.5 346,-5.5 346,-35.5"/>
<text text-anchor="start" x="199" y="-23.5" font-family="Helvetica,sans-Serif" font-size="10.00">dev.filechampion.filechampion4j.</text>
<text text-anchor="middle" x="268.5" y="-12.5" font-family="Helvetica,sans-Serif" font-size="10.00">FileValidator.loadPlugins</text>
</a>
</g>
</g>
<!-- Node2&#45;&gt;Node3 -->
<g id="edge2" class="edge">
<title>Node2&#45;&gt;Node3</title>
<path fill="none" stroke="#63b8ff" d="M370.89,-20.5C362.68,-20.5 354.41,-20.5 346.31,-20.5"/>
<polygon fill="#63b8ff" stroke="#63b8ff" points="370.63,-24 380.63,-20.5 370.63,-17 370.63,-24"/>
</g>
<!-- Node4 -->
<g id="node4" class="node">
<title>Node4</title>
<g id="a_node4"><a xlink:href="$classdev_1_1filechampion_1_1filechampion4j_1_1_file_validator.html#a5239bec4548e36c68d28e92281006d99" xlink:title=" ">
<polygon fill="white" stroke="#666666" points="155,-35.5 0,-35.5 0,-5.5 155,-5.5 155,-35.5"/>
<text text-anchor="start" x="8" y="-23.5" font-family="Helvetica,sans-Serif" font-size="10.00">dev.filechampion.filechampion4j.</text>
<text text-anchor="middle" x="77.5" y="-12.5" font-family="Helvetica,sans-Serif" font-size="10.00">FileValidator.FileValidator</text>
</a>
</g>
</g>
<!-- Node3&#45;&gt;Node4 -->
<g id="edge3" class="edge">
<title>Node3&#45;&gt;Node4</title>
<path fill="none" stroke="#63b8ff" d="M179.89,-20.5C171.68,-20.5 163.41,-20.5 155.31,-20.5"/>
<polygon fill="#63b8ff" stroke="#63b8ff" points="179.63,-24 189.63,-20.5 179.63,-17 179.63,-24"/>
</g>
</g>
</svg>
