<?xml version="1.0" encoding="UTF-8" standalone="no"?>
<!DOCTYPE svg PUBLIC "-//W3C//DTD SVG 1.1//EN"
 "http://www.w3.org/Graphics/SVG/1.1/DTD/svg11.dtd">
<!-- Generated by graphviz version 8.0.3 (20230416.2022)
 -->
<!-- Title: dev.filechampion.filechampion4j.FileValidator.calculateChecksum Pages: 1 -->
<svg width="950pt" height="109pt"
 viewBox="0.00 0.00 950.00 108.64" xmlns="http://www.w3.org/2000/svg" xmlns:xlink="http://www.w3.org/1999/xlink">
<g id="graph0" class="graph" transform="scale(1 1) rotate(0) translate(4 104.64)">
<title>dev.filechampion.filechampion4j.FileValidator.calculateChecksum</title>
<!-- Node1 -->
<g id="node1" class="node">
<title>Node1</title>
<g id="a_node1"><a xlink:title=" ">
<polygon fill="#999999" stroke="#666666" points="942,-30.64 783,-30.64 783,-0.64 942,-0.64 942,-30.64"/>
<text text-anchor="start" x="791" y="-18.64" font-family="Helvetica,sans-Serif" font-size="10.00">dev.filechampion.filechampion4j.</text>
<text text-anchor="middle" x="862.5" y="-7.64" font-family="Helvetica,sans-Serif" font-size="10.00">FileValidator.calculateChecksum</text>
</a>
</g>
</g>
<!-- Node2 -->
<g id="node2" class="node">
<title>Node2</title>
<g id="a_node2"><a xlink:href="$classdev_1_1filechampion_1_1filechampion4j_1_1_file_validator.html#a00a7f2979f0321f1823ce815ecd20945" xlink:title=" ">
<polygon fill="white" stroke="#666666" points="747,-52.64 592,-52.64 592,-22.64 747,-22.64 747,-52.64"/>
<text text-anchor="start" x="600" y="-40.64" font-family="Helvetica,sans-Serif" font-size="10.00">dev.filechampion.filechampion4j.</text>
<text text-anchor="middle" x="669.5" y="-29.64" font-family="Helvetica,sans-Serif" font-size="10.00">FileValidator.executePlugin</text>
</a>
</g>
</g>
<!-- Node1&#45;&gt;Node2 -->
<g id="edge1" class="edge">
<title>Node1&#45;&gt;Node2</title>
<path fill="none" stroke="#63b8ff" d="M771.93,-25.95C763.68,-26.9 755.38,-27.86 747.26,-28.79"/>
<polygon fill="#63b8ff" stroke="#63b8ff" points="772.18,-29.33 781.71,-24.71 771.38,-22.38 772.18,-29.33"/>
</g>
<!-- Node5 -->
<g id="node5" class="node">
<title>Node5</title>
<g id="a_node5"><a xlink:href="$classdev_1_1filechampion_1_1filechampion4j_1_1_file_validator.html#a0c42ecd30b213d35bf114d84e7b40f9f" xlink:title=" ">
<polygon fill="white" stroke="#666666" points="155,-52.64 0,-52.64 0,-22.64 155,-22.64 155,-52.64"/>
<text text-anchor="start" x="8" y="-40.64" font-family="Helvetica,sans-Serif" font-size="10.00">dev.filechampion.filechampion4j.</text>
<text text-anchor="middle" x="77.5" y="-29.64" font-family="Helvetica,sans-Serif" font-size="10.00">FileValidator.validateFile</text>
</a>
</g>
</g>
<!-- Node1&#45;&gt;Node5 -->
<g id="edge7" class="edge">
<title>Node1&#45;&gt;Node5</title>
<path fill="none" stroke="#63b8ff" d="M771.53,-9.23C642.56,-1.43 397.83,8.18 191,-13.64 174.22,-15.41 156.26,-18.62 139.73,-22.14"/>
<polygon fill="#63b8ff" stroke="#63b8ff" points="771.32,-12.78 781.51,-9.9 771.75,-5.79 771.32,-12.78"/>
</g>
<!-- Node3 -->
<g id="node3" class="node">
<title>Node3</title>
<g id="a_node3"><a xlink:href="$classdev_1_1filechampion_1_1filechampion4j_1_1_file_validator.html#aa2bf7ccde349fc95be4c912cd42a6c95" xlink:title=" ">
<polygon fill="white" stroke="#666666" points="556,-97.64 395,-97.64 395,-67.64 556,-67.64 556,-97.64"/>
<text text-anchor="start" x="403" y="-85.64" font-family="Helvetica,sans-Serif" font-size="10.00">dev.filechampion.filechampion4j.</text>
<text text-anchor="middle" x="475.5" y="-74.64" font-family="Helvetica,sans-Serif" font-size="10.00">FileValidator.executeAfterPlugins</text>
</a>
</g>
</g>
<!-- Node2&#45;&gt;Node3 -->
<g id="edge2" class="edge">
<title>Node2&#45;&gt;Node3</title>
<path fill="none" stroke="#63b8ff" d="M591.8,-55.61C575.44,-59.45 558.29,-63.47 542.37,-67.2"/>
<polygon fill="#63b8ff" stroke="#63b8ff" points="592.49,-58.81 601.42,-53.12 590.89,-52 592.49,-58.81"/>
</g>
<!-- Node6 -->
<g id="node6" class="node">
<title>Node6</title>
<g id="a_node6"><a xlink:href="$classdev_1_1filechampion_1_1filechampion4j_1_1_file_validator.html#aa3d78c6d5ccf1abfdb1284969a9d2117" xlink:title=" ">
<polygon fill="white" stroke="#666666" points="359,-52.64 191,-52.64 191,-22.64 359,-22.64 359,-52.64"/>
<text text-anchor="start" x="199" y="-40.64" font-family="Helvetica,sans-Serif" font-size="10.00">dev.filechampion.filechampion4j.</text>
<text text-anchor="middle" x="275" y="-29.64" font-family="Helvetica,sans-Serif" font-size="10.00">FileValidator.executeBeforePlugins</text>
</a>
</g>
</g>
<!-- Node2&#45;&gt;Node6 -->
<g id="edge5" class="edge">
<title>Node2&#45;&gt;Node6</title>
<path fill="none" stroke="#63b8ff" d="M581.06,-37.64C514.81,-37.64 424.38,-37.64 359.2,-37.64"/>
<polygon fill="#63b8ff" stroke="#63b8ff" points="580.89,-41.14 590.89,-37.64 580.89,-34.14 580.89,-41.14"/>
</g>
<!-- Node4 -->
<g id="node4" class="node">
<title>Node4</title>
<g id="a_node4"><a xlink:href="$classdev_1_1filechampion_1_1filechampion4j_1_1_file_validator.html#aaeb2a194d8491d3f240893cf076098e0" xlink:title=" ">
<polygon fill="white" stroke="#666666" points="352.5,-100.64 197.5,-100.64 197.5,-70.64 352.5,-70.64 352.5,-100.64"/>
<text text-anchor="start" x="205.5" y="-88.64" font-family="Helvetica,sans-Serif" font-size="10.00">dev.filechampion.filechampion4j.</text>
<text text-anchor="middle" x="275" y="-77.64" font-family="Helvetica,sans-Serif" font-size="10.00">FileValidator.doValidations</text>
</a>
</g>
</g>
<!-- Node3&#45;&gt;Node4 -->
<g id="edge3" class="edge">
<title>Node3&#45;&gt;Node4</title>
<path fill="none" stroke="#63b8ff" d="M383.87,-84C373.49,-84.16 362.99,-84.32 352.82,-84.47"/>
<polygon fill="#63b8ff" stroke="#63b8ff" points="383.67,-87.49 393.62,-83.84 383.57,-80.49 383.67,-87.49"/>
</g>
<!-- Node4&#45;&gt;Node5 -->
<g id="edge4" class="edge">
<title>Node4&#45;&gt;Node5</title>
<path fill="none" stroke="#63b8ff" d="M200.42,-67.57C180.96,-62.79 160.14,-57.68 141.32,-53.06"/>
<polygon fill="#63b8ff" stroke="#63b8ff" points="199.52,-71.2 210.07,-70.18 201.19,-64.4 199.52,-71.2"/>
</g>
<!-- Node6&#45;&gt;Node5 -->
<g id="edge6" class="edge">
<title>Node6&#45;&gt;Node5</title>
<path fill="none" stroke="#63b8ff" d="M179.75,-37.64C171.52,-37.64 163.26,-37.64 155.2,-37.64"/>
<polygon fill="#63b8ff" stroke="#63b8ff" points="179.52,-41.14 189.52,-37.64 179.52,-34.14 179.52,-41.14"/>
</g>
</g>
</svg>
