<?xml version="1.0" encoding="UTF-8" standalone="no"?>
<!DOCTYPE svg PUBLIC "-//W3C//DTD SVG 1.1//EN"
 "http://www.w3.org/Graphics/SVG/1.1/DTD/svg11.dtd">
<!-- Generated by graphviz version 8.0.3 (20230416.2022)
 -->
<!-- Title: dev.filechampion.filechampion4j.FileValidator.executeAfterPlugins Pages: 1 -->
<svg width="746pt" height="251pt"
 viewBox="0.00 0.00 746.00 251.00" xmlns="http://www.w3.org/2000/svg" xmlns:xlink="http://www.w3.org/1999/xlink">
<g id="graph0" class="graph" transform="scale(1 1) rotate(0) translate(4 247)">
<title>dev.filechampion.filechampion4j.FileValidator.executeAfterPlugins</title>
<!-- Node1 -->
<g id="node1" class="node">
<title>Node1</title>
<g id="a_node1"><a xlink:title=" ">
<polygon fill="#999999" stroke="#666666" points="161,-73 0,-73 0,-43 161,-43 161,-73"/>
<text text-anchor="start" x="8" y="-61" font-family="Helvetica,sans-Serif" font-size="10.00">dev.filechampion.filechampion4j.</text>
<text text-anchor="middle" x="80.5" y="-50" font-family="Helvetica,sans-Serif" font-size="10.00">FileValidator.executeAfterPlugins</text>
</a>
</g>
</g>
<!-- Node2 -->
<g id="node2" class="node">
<title>Node2</title>
<g id="a_node2"><a xlink:href="$classdev_1_1filechampion_1_1filechampion4j_1_1_file_validator.html#a00a7f2979f0321f1823ce815ecd20945" xlink:title=" ">
<polygon fill="white" stroke="#666666" points="352,-140 197,-140 197,-110 352,-110 352,-140"/>
<text text-anchor="start" x="205" y="-128" font-family="Helvetica,sans-Serif" font-size="10.00">dev.filechampion.filechampion4j.</text>
<text text-anchor="middle" x="274.5" y="-117" font-family="Helvetica,sans-Serif" font-size="10.00">FileValidator.executePlugin</text>
</a>
</g>
</g>
<!-- Node1&#45;&gt;Node2 -->
<g id="edge1" class="edge">
<title>Node1&#45;&gt;Node2</title>
<path fill="none" stroke="#63b8ff" d="M125.55,-73.37C153.38,-83.08 189.54,-95.7 219.15,-106.03"/>
<polygon fill="#63b8ff" stroke="#63b8ff" points="217.73,-109.59 228.32,-109.58 220.04,-102.99 217.73,-109.59"/>
</g>
<!-- Node7 -->
<g id="node7" class="node">
<title>Node7</title>
<g id="a_node7"><a xlink:href="$classdev_1_1filechampion_1_1filechampion4j_1_1_file_validator.html#a94cfea52d37b0b2b2e69ef72211feeb3" xlink:title=" ">
<polygon fill="white" stroke="#666666" points="545,-61 390,-61 390,-31 545,-31 545,-61"/>
<text text-anchor="start" x="398" y="-49" font-family="Helvetica,sans-Serif" font-size="10.00">dev.filechampion.filechampion4j.</text>
<text text-anchor="middle" x="467.5" y="-38" font-family="Helvetica,sans-Serif" font-size="10.00">FileValidator.logFine</text>
</a>
</g>
</g>
<!-- Node1&#45;&gt;Node7 -->
<g id="edge9" class="edge">
<title>Node1&#45;&gt;Node7</title>
<path fill="none" stroke="#63b8ff" d="M161.27,-55.51C224.8,-53.53 313.62,-50.76 379.08,-48.72"/>
<polygon fill="#63b8ff" stroke="#63b8ff" points="378.9,-52.2 388.78,-48.39 378.68,-45.2 378.9,-52.2"/>
</g>
<!-- Node8 -->
<g id="node8" class="node">
<title>Node8</title>
<g id="a_node8"><a xlink:href="$classdev_1_1filechampion_1_1filechampion4j_1_1_extension.html#a280bd1a1334d78e0a898524a2f8b000d" xlink:title=" ">
<polygon fill="white" stroke="#666666" points="352,-30 197,-30 197,0 352,0 352,-30"/>
<text text-anchor="start" x="205" y="-18" font-family="Helvetica,sans-Serif" font-size="10.00">dev.filechampion.filechampion4j.</text>
<text text-anchor="middle" x="274.5" y="-7" font-family="Helvetica,sans-Serif" font-size="10.00">Extension.getExtensionPlugins</text>
</a>
</g>
</g>
<!-- Node1&#45;&gt;Node8 -->
<g id="edge8" class="edge">
<title>Node1&#45;&gt;Node8</title>
<path fill="none" stroke="#63b8ff" d="M150.55,-42.54C164.65,-39.38 179.59,-36.03 194.02,-32.8"/>
<polygon fill="#63b8ff" stroke="#63b8ff" points="194.43,-36.07 203.42,-30.47 192.9,-29.24 194.43,-36.07"/>
</g>
<!-- Node3 -->
<g id="node3" class="node">
<title>Node3</title>
<g id="a_node3"><a xlink:href="$classdev_1_1filechampion_1_1filechampion4j_1_1_file_validator.html#afddde3a9748be9f0487a553d50a2d5c4" xlink:title=" ">
<polygon fill="white" stroke="#666666" points="547,-243 388,-243 388,-213 547,-213 547,-243"/>
<text text-anchor="start" x="396" y="-231" font-family="Helvetica,sans-Serif" font-size="10.00">dev.filechampion.filechampion4j.</text>
<text text-anchor="middle" x="467.5" y="-220" font-family="Helvetica,sans-Serif" font-size="10.00">FileValidator.calculateChecksum</text>
</a>
</g>
</g>
<!-- Node2&#45;&gt;Node3 -->
<g id="edge2" class="edge">
<title>Node2&#45;&gt;Node3</title>
<path fill="none" stroke="#63b8ff" d="M293.47,-140.35C314.78,-157.88 351.98,-186.4 388,-204 391.37,-205.65 394.87,-207.21 398.45,-208.68"/>
<polygon fill="#63b8ff" stroke="#63b8ff" points="397.08,-212.29 407.67,-212.62 399.59,-205.76 397.08,-212.29"/>
</g>
<!-- Node4 -->
<g id="node4" class="node">
<title>Node4</title>
<g id="a_node4"><a xlink:href="$classdev_1_1filechampion_1_1filechampion4j_1_1_file_validator.html#a8e5b65357971125d0d18f1ca1a303a82" xlink:title=" ">
<polygon fill="white" stroke="#666666" points="545,-195 390,-195 390,-165 545,-165 545,-195"/>
<text text-anchor="start" x="398" y="-183" font-family="Helvetica,sans-Serif" font-size="10.00">dev.filechampion.filechampion4j.</text>
<text text-anchor="middle" x="467.5" y="-172" font-family="Helvetica,sans-Serif" font-size="10.00">FileValidator.deleteTempDir</text>
</a>
</g>
</g>
<!-- Node2&#45;&gt;Node4 -->
<g id="edge3" class="edge">
<title>Node2&#45;&gt;Node4</title>
<path fill="none" stroke="#63b8ff" d="M329.21,-140.47C351.99,-147.03 378.72,-154.72 402.51,-161.57"/>
<polygon fill="#63b8ff" stroke="#63b8ff" points="401.28,-165.15 411.86,-164.55 403.22,-158.42 401.28,-165.15"/>
</g>
<!-- Node5 -->
<g id="node5" class="node">
<title>Node5</title>
<g id="a_node5"><a xlink:href="$classdev_1_1filechampion_1_1filechampion4j_1_1_file_validator.html#af46946cfe82bbc2234cf895bd8f4ef80" xlink:title=" ">
<polygon fill="white" stroke="#666666" points="738,-173 583,-173 583,-143 738,-143 738,-173"/>
<text text-anchor="start" x="591" y="-161" font-family="Helvetica,sans-Serif" font-size="10.00">dev.filechampion.filechampion4j.</text>
<text text-anchor="middle" x="660.5" y="-150" font-family="Helvetica,sans-Serif" font-size="10.00">FileValidator.logWarn</text>
</a>
</g>
</g>
<!-- Node2&#45;&gt;Node5 -->
<g id="edge7" class="edge">
<title>Node2&#45;&gt;Node5</title>
<path fill="none" stroke="#63b8ff" d="M352.29,-131.6C415.62,-137.04 505.51,-144.77 571.69,-150.45"/>
<polygon fill="#63b8ff" stroke="#63b8ff" points="571.26,-154.02 581.52,-151.38 571.86,-147.04 571.26,-154.02"/>
</g>
<!-- Node6 -->
<g id="node6" class="node">
<title>Node6</title>
<g id="a_node6"><a xlink:href="$classdev_1_1filechampion_1_1filechampion4j_1_1_file_validator.html#a74097ecc9c1bd3757a0287275631632f" xlink:title=" ">
<polygon fill="white" stroke="#666666" points="545,-109 390,-109 390,-79 545,-79 545,-109"/>
<text text-anchor="start" x="398" y="-97" font-family="Helvetica,sans-Serif" font-size="10.00">dev.filechampion.filechampion4j.</text>
<text text-anchor="middle" x="467.5" y="-86" font-family="Helvetica,sans-Serif" font-size="10.00">FileValidator.isBlank</text>
</a>
</g>
</g>
<!-- Node2&#45;&gt;Node6 -->
<g id="edge5" class="edge">
<title>Node2&#45;&gt;Node6</title>
<path fill="none" stroke="#63b8ff" d="M352.36,-112.53C361.13,-111.1 370.12,-109.64 379.01,-108.2"/>
<polygon fill="#63b8ff" stroke="#63b8ff" points="379.49,-111.51 388.8,-106.45 378.36,-104.6 379.49,-111.51"/>
</g>
<!-- Node2&#45;&gt;Node7 -->
<g id="edge6" class="edge">
<title>Node2&#45;&gt;Node7</title>
<path fill="none" stroke="#63b8ff" d="M303.61,-109.71C326.03,-97.9 358.47,-81.65 388,-70 392.45,-68.25 397.07,-66.54 401.76,-64.9"/>
<polygon fill="#63b8ff" stroke="#63b8ff" points="402.71,-67.94 411.06,-61.42 400.47,-61.3 402.71,-67.94"/>
</g>
<!-- Node4&#45;&gt;Node5 -->
<g id="edge4" class="edge">
<title>Node4&#45;&gt;Node5</title>
<path fill="none" stroke="#63b8ff" d="M545.36,-171.15C554.13,-170.14 563.12,-169.1 572.01,-168.08"/>
<polygon fill="#63b8ff" stroke="#63b8ff" points="572.26,-171.46 581.8,-166.84 571.46,-164.5 572.26,-171.46"/>
</g>
</g>
</svg>
