<?xml version="1.0" encoding="UTF-8" standalone="no"?>
<!DOCTYPE svg PUBLIC "-//W3C//DTD SVG 1.1//EN"
 "http://www.w3.org/Graphics/SVG/1.1/DTD/svg11.dtd">
<!-- Generated by graphviz version 8.0.3 (20230416.2022)
 -->
<!-- Title: dev.filechampion.filechampion4j.FileValidator.logSevere Pages: 1 -->
<svg width="742pt" height="60pt"
 viewBox="0.00 0.00 742.00 60.00" xmlns="http://www.w3.org/2000/svg" xmlns:xlink="http://www.w3.org/1999/xlink">
<g id="graph0" class="graph" transform="scale(1 1) rotate(0) translate(4 56)">
<title>dev.filechampion.filechampion4j.FileValidator.logSevere</title>
<!-- Node1 -->
<g id="node1" class="node">
<title>Node1</title>
<g id="a_node1"><a xlink:title=" ">
<polygon fill="#999999" stroke="#666666" points="734,-30 579,-30 579,0 734,0 734,-30"/>
<text text-anchor="start" x="587" y="-18" font-family="Helvetica,sans-Serif" font-size="10.00">dev.filechampion.filechampion4j.</text>
<text text-anchor="middle" x="656.5" y="-7" font-family="Helvetica,sans-Serif" font-size="10.00">FileValidator.logSevere</text>
</a>
</g>
</g>
<!-- Node2 -->
<g id="node2" class="node">
<title>Node2</title>
<g id="a_node2"><a xlink:href="$classdev_1_1filechampion_1_1filechampion4j_1_1_file_validator.html#ab484409fe2d3ceb7a0f384c0c90665d2" xlink:title=" ">
<polygon fill="white" stroke="#666666" points="543,-52 382,-52 382,-22 543,-22 543,-52"/>
<text text-anchor="start" x="390" y="-40" font-family="Helvetica,sans-Serif" font-size="10.00">dev.filechampion.filechampion4j.</text>
<text text-anchor="middle" x="462.5" y="-29" font-family="Helvetica,sans-Serif" font-size="10.00">FileValidator.saveFileToOutputDir</text>
</a>
</g>
</g>
<!-- Node1&#45;&gt;Node2 -->
<g id="edge1" class="edge">
<title>Node1&#45;&gt;Node2</title>
<path fill="none" stroke="#63b8ff" d="M567.84,-25.04C559.67,-25.98 551.42,-26.93 543.33,-27.85"/>
<polygon fill="#63b8ff" stroke="#63b8ff" points="567.98,-28.44 577.51,-23.82 567.18,-21.48 567.98,-28.44"/>
</g>
<!-- Node4 -->
<g id="node4" class="node">
<title>Node4</title>
<g id="a_node4"><a xlink:href="$classdev_1_1filechampion_1_1filechampion4j_1_1_file_validator.html#a0c42ecd30b213d35bf114d84e7b40f9f" xlink:title=" ">
<polygon fill="white" stroke="#666666" points="155,-30 0,-30 0,0 155,0 155,-30"/>
<text text-anchor="start" x="8" y="-18" font-family="Helvetica,sans-Serif" font-size="10.00">dev.filechampion.filechampion4j.</text>
<text text-anchor="middle" x="77.5" y="-7" font-family="Helvetica,sans-Serif" font-size="10.00">FileValidator.validateFile</text>
</a>
</g>
</g>
<!-- Node1&#45;&gt;Node4 -->
<g id="edge4" class="edge">
<title>Node1&#45;&gt;Node4</title>
<path fill="none" stroke="#63b8ff" d="M567.69,-13.29C559.35,-13.17 551.01,-13.07 543,-13 386.56,-11.61 347.44,-11.61 191,-13 179.48,-13.1 167.29,-13.26 155.35,-13.45"/>
<polygon fill="#63b8ff" stroke="#63b8ff" points="567.6,-16.8 577.65,-13.45 567.7,-9.8 567.6,-16.8"/>
</g>
<!-- Node3 -->
<g id="node3" class="node">
<title>Node3</title>
<g id="a_node3"><a xlink:href="$classdev_1_1filechampion_1_1filechampion4j_1_1_file_validator.html#aaeb2a194d8491d3f240893cf076098e0" xlink:title=" ">
<polygon fill="white" stroke="#666666" points="346,-52 191,-52 191,-22 346,-22 346,-52"/>
<text text-anchor="start" x="199" y="-40" font-family="Helvetica,sans-Serif" font-size="10.00">dev.filechampion.filechampion4j.</text>
<text text-anchor="middle" x="268.5" y="-29" font-family="Helvetica,sans-Serif" font-size="10.00">FileValidator.doValidations</text>
</a>
</g>
</g>
<!-- Node2&#45;&gt;Node3 -->
<g id="edge2" class="edge">
<title>Node2&#45;&gt;Node3</title>
<path fill="none" stroke="#63b8ff" d="M370.93,-37C362.67,-37 354.36,-37 346.23,-37"/>
<polygon fill="#63b8ff" stroke="#63b8ff" points="370.74,-40.5 380.74,-37 370.74,-33.5 370.74,-40.5"/>
</g>
<!-- Node3&#45;&gt;Node4 -->
<g id="edge3" class="edge">
<title>Node3&#45;&gt;Node4</title>
<path fill="none" stroke="#63b8ff" d="M179.89,-26.8C171.68,-25.85 163.41,-24.88 155.31,-23.94"/>
<polygon fill="#63b8ff" stroke="#63b8ff" points="179.29,-30.37 189.63,-28.05 180.1,-23.42 179.29,-30.37"/>
</g>
</g>
</svg>
