<?xml version="1.0" encoding="UTF-8" standalone="no"?>
<!DOCTYPE svg PUBLIC "-//W3C//DTD SVG 1.1//EN"
 "http://www.w3.org/Graphics/SVG/1.1/DTD/svg11.dtd">
<!-- Generated by graphviz version 8.0.3 (20230416.2022)
 -->
<!-- Title: dev.filechampion.filechampion4j.CliPluginHelper.execute Pages: 1 -->
<svg width="586pt" height="316pt"
 viewBox="0.00 0.00 586.00 316.00" xmlns="http://www.w3.org/2000/svg" xmlns:xlink="http://www.w3.org/1999/xlink">
<g id="graph0" class="graph" transform="scale(1 1) rotate(0) translate(4 312)">
<title>dev.filechampion.filechampion4j.CliPluginHelper.execute</title>
<!-- Node1 -->
<g id="node1" class="node">
<title>Node1</title>
<g id="a_node1"><a xlink:title=" ">
<polygon fill="#999999" stroke="#666666" points="155,-174 0,-174 0,-144 155,-144 155,-174"/>
<text text-anchor="start" x="8" y="-162" font-family="Helvetica,sans-Serif" font-size="10.00">dev.filechampion.filechampion4j.</text>
<text text-anchor="middle" x="77.5" y="-151" font-family="Helvetica,sans-Serif" font-size="10.00">CliPluginHelper.execute</text>
</a>
</g>
</g>
<!-- Node2 -->
<g id="node2" class="node">
<title>Node2</title>
<g id="a_node2"><a xlink:href="$classdev_1_1filechampion_1_1filechampion4j_1_1_cli_plugin_helper.html#a4303bf7327a767124322fef309a6fcc8" xlink:title=" ">
<polygon fill="white" stroke="#666666" points="366.5,-308 211.5,-308 211.5,-278 366.5,-278 366.5,-308"/>
<text text-anchor="start" x="219.5" y="-296" font-family="Helvetica,sans-Serif" font-size="10.00">dev.filechampion.filechampion4j.</text>
<text text-anchor="middle" x="289" y="-285" font-family="Helvetica,sans-Serif" font-size="10.00">CliPluginHelper.deleteTempDir</text>
</a>
</g>
</g>
<!-- Node1&#45;&gt;Node2 -->
<g id="edge1" class="edge">
<title>Node1&#45;&gt;Node2</title>
<path fill="none" stroke="#63b8ff" d="M89.77,-174.4C108.19,-198.41 147.09,-244.54 191,-269 194.24,-270.81 197.62,-272.48 201.09,-274.03"/>
<polygon fill="#63b8ff" stroke="#63b8ff" points="199.48,-277.56 210.07,-278.07 202.11,-271.07 199.48,-277.56"/>
</g>
<!-- Node3 -->
<g id="node3" class="node">
<title>Node3</title>
<g id="a_node3"><a xlink:href="$classdev_1_1filechampion_1_1filechampion4j_1_1_cli_plugin_helper.html#aa311727086faa1c01c796bafc7132ce5" xlink:title=" ">
<polygon fill="white" stroke="#666666" points="387,-260 191,-260 191,-230 387,-230 387,-260"/>
<text text-anchor="start" x="199" y="-248" font-family="Helvetica,sans-Serif" font-size="10.00">dev.filechampion.filechampion4j.</text>
<text text-anchor="middle" x="289" y="-237" font-family="Helvetica,sans-Serif" font-size="10.00">CliPluginHelper.extractResponsePatterns</text>
</a>
</g>
</g>
<!-- Node1&#45;&gt;Node3 -->
<g id="edge2" class="edge">
<title>Node1&#45;&gt;Node3</title>
<path fill="none" stroke="#63b8ff" d="M105.6,-174.46C128.01,-186.81 160.9,-203.99 191,-216 200.27,-219.7 210.2,-223.18 220.04,-226.37"/>
<polygon fill="#63b8ff" stroke="#63b8ff" points="218.64,-229.91 229.23,-229.57 220.74,-223.23 218.64,-229.91"/>
</g>
<!-- Node4 -->
<g id="node4" class="node">
<title>Node4</title>
<g id="a_node4"><a xlink:href="$classdev_1_1filechampion_1_1filechampion4j_1_1_cli_plugin_helper.html#a5a26b6d864c66cbed7bf7596f8c09e57" xlink:title=" ">
<polygon fill="white" stroke="#666666" points="578,-217 423,-217 423,-187 578,-187 578,-217"/>
<text text-anchor="start" x="431" y="-205" font-family="Helvetica,sans-Serif" font-size="10.00">dev.filechampion.filechampion4j.</text>
<text text-anchor="middle" x="500.5" y="-194" font-family="Helvetica,sans-Serif" font-size="10.00">CliPluginHelper.logFine</text>
</a>
</g>
</g>
<!-- Node1&#45;&gt;Node4 -->
<g id="edge5" class="edge">
<title>Node1&#45;&gt;Node4</title>
<path fill="none" stroke="#63b8ff" d="M143.05,-174.49C158.67,-177.76 175.37,-180.86 191,-183 265.1,-193.13 349.96,-197.86 411.9,-200.07"/>
<polygon fill="#63b8ff" stroke="#63b8ff" points="411.69,-203.6 421.8,-200.44 411.93,-196.6 411.69,-203.6"/>
</g>
<!-- Node5 -->
<g id="node5" class="node">
<title>Node5</title>
<g id="a_node5"><a xlink:href="$classdev_1_1filechampion_1_1filechampion4j_1_1_plugins_helper_1_1_step_config.html#a4b6553bde319aaba0681dabe11c89250" xlink:title=" ">
<polygon fill="white" stroke="#666666" points="373.5,-174 204.5,-174 204.5,-144 373.5,-144 373.5,-174"/>
<text text-anchor="start" x="212.5" y="-162" font-family="Helvetica,sans-Serif" font-size="10.00">dev.filechampion.filechampion4j.</text>
<text text-anchor="middle" x="289" y="-151" font-family="Helvetica,sans-Serif" font-size="10.00">PluginsHelper.StepConfig.getName</text>
</a>
</g>
</g>
<!-- Node1&#45;&gt;Node5 -->
<g id="edge4" class="edge">
<title>Node1&#45;&gt;Node5</title>
<path fill="none" stroke="#63b8ff" d="M155.32,-159C167.73,-159 180.7,-159 193.47,-159"/>
<polygon fill="#63b8ff" stroke="#63b8ff" points="193.13,-162.5 203.13,-159 193.13,-155.5 193.13,-162.5"/>
</g>
<!-- Node6 -->
<g id="node6" class="node">
<title>Node6</title>
<g id="a_node6"><a xlink:href="$classdev_1_1filechampion_1_1filechampion4j_1_1_cli_plugin_helper.html#a4bb51160c381c312119497c72d95dc87" xlink:title=" ">
<polygon fill="white" stroke="#666666" points="366.5,-126 211.5,-126 211.5,-96 366.5,-96 366.5,-126"/>
<text text-anchor="start" x="219.5" y="-114" font-family="Helvetica,sans-Serif" font-size="10.00">dev.filechampion.filechampion4j.</text>
<text text-anchor="middle" x="289" y="-103" font-family="Helvetica,sans-Serif" font-size="10.00">CliPluginHelper.prepEndpoint</text>
</a>
</g>
</g>
<!-- Node1&#45;&gt;Node6 -->
<g id="edge6" class="edge">
<title>Node1&#45;&gt;Node6</title>
<path fill="none" stroke="#63b8ff" d="M145.94,-143.55C166.41,-138.86 189.06,-133.67 210.15,-128.84"/>
<polygon fill="#63b8ff" stroke="#63b8ff" points="210.72,-132.07 219.69,-126.42 209.16,-125.24 210.72,-132.07"/>
</g>
<!-- Node7 -->
<g id="node7" class="node">
<title>Node7</title>
<g id="a_node7"><a xlink:href="$classdev_1_1filechampion_1_1filechampion4j_1_1_cli_plugin_helper.html#a5183ae1a9f3f06c8c5390771050e6bea" xlink:title=" ">
<polygon fill="white" stroke="#666666" points="372.5,-78 205.5,-78 205.5,-48 372.5,-48 372.5,-78"/>
<text text-anchor="start" x="213.5" y="-66" font-family="Helvetica,sans-Serif" font-size="10.00">dev.filechampion.filechampion4j.</text>
<text text-anchor="middle" x="289" y="-55" font-family="Helvetica,sans-Serif" font-size="10.00">CliPluginHelper.saveFileToTempDir</text>
</a>
</g>
</g>
<!-- Node1&#45;&gt;Node7 -->
<g id="edge7" class="edge">
<title>Node1&#45;&gt;Node7</title>
<path fill="none" stroke="#63b8ff" d="M98.11,-143.61C119.72,-127.34 156.06,-102.02 191,-87 195.33,-85.14 199.83,-83.4 204.43,-81.78"/>
<polygon fill="#63b8ff" stroke="#63b8ff" points="205.19,-84.89 213.59,-78.43 202.99,-78.24 205.19,-84.89"/>
</g>
<!-- Node8 -->
<g id="node8" class="node">
<title>Node8</title>
<g id="a_node8"><a xlink:href="$classdev_1_1filechampion_1_1filechampion4j_1_1_cli_plugin_helper.html#abe8af04a9bec3c70eec44cb0f80b315c" xlink:title=" ">
<polygon fill="white" stroke="#666666" points="383.5,-30 194.5,-30 194.5,0 383.5,0 383.5,-30"/>
<text text-anchor="start" x="202.5" y="-18" font-family="Helvetica,sans-Serif" font-size="10.00">dev.filechampion.filechampion4j.</text>
<text text-anchor="middle" x="289" y="-7" font-family="Helvetica,sans-Serif" font-size="10.00">CliPluginHelper.timedProcessExecution</text>
</a>
</g>
</g>
<!-- Node1&#45;&gt;Node8 -->
<g id="edge8" class="edge">
<title>Node1&#45;&gt;Node8</title>
<path fill="none" stroke="#63b8ff" d="M88.29,-143.84C105.72,-118.14 144.68,-66.15 191,-39 193.67,-37.44 196.43,-35.98 199.27,-34.61"/>
<polygon fill="#63b8ff" stroke="#63b8ff" points="200.37,-37.51 208.15,-30.32 197.58,-31.09 200.37,-37.51"/>
</g>
<!-- Node3&#45;&gt;Node4 -->
<g id="edge3" class="edge">
<title>Node3&#45;&gt;Node4</title>
<path fill="none" stroke="#63b8ff" d="M365.34,-229.54C381.02,-226.32 397.67,-222.9 413.7,-219.61"/>
<polygon fill="#63b8ff" stroke="#63b8ff" points="414.03,-222.91 423.13,-217.47 412.63,-216.05 414.03,-222.91"/>
</g>
<!-- Node8&#45;&gt;Node4 -->
<g id="edge9" class="edge">
<title>Node8&#45;&gt;Node4</title>
<path fill="none" stroke="#63b8ff" d="M371.86,-30.5C377.18,-32.93 382.29,-35.75 387,-39 437.98,-74.22 472.93,-140.63 489.16,-176.86"/>
<polygon fill="#63b8ff" stroke="#63b8ff" points="486.22,-177.87 493.42,-185.65 492.64,-175.08 486.22,-177.87"/>
</g>
</g>
</svg>
