<?xml version="1.0" encoding="UTF-8" standalone="no"?>
<!DOCTYPE svg PUBLIC "-//W3C//DTD SVG 1.1//EN"
 "http://www.w3.org/Graphics/SVG/1.1/DTD/svg11.dtd">
<!-- Generated by graphviz version 8.0.3 (20230416.2022)
 -->
<!-- Title: dev.filechampion.filechampion4j.FileValidator.logInfo Pages: 1 -->
<svg width="545pt" height="60pt"
 viewBox="0.00 0.00 545.00 60.00" xmlns="http://www.w3.org/2000/svg" xmlns:xlink="http://www.w3.org/1999/xlink">
<g id="graph0" class="graph" transform="scale(1 1) rotate(0) translate(4 56)">
<title>dev.filechampion.filechampion4j.FileValidator.logInfo</title>
<!-- Node1 -->
<g id="node1" class="node">
<title>Node1</title>
<g id="a_node1"><a xlink:title=" ">
<polygon fill="#999999" stroke="#666666" points="537,-30 382,-30 382,0 537,0 537,-30"/>
<text text-anchor="start" x="390" y="-18" font-family="Helvetica,sans-Serif" font-size="10.00">dev.filechampion.filechampion4j.</text>
<text text-anchor="middle" x="459.5" y="-7" font-family="Helvetica,sans-Serif" font-size="10.00">FileValidator.logInfo</text>
</a>
</g>
</g>
<!-- Node2 -->
<g id="node2" class="node">
<title>Node2</title>
<g id="a_node2"><a xlink:href="$classdev_1_1filechampion_1_1filechampion4j_1_1_file_validator.html#aaeb2a194d8491d3f240893cf076098e0" xlink:title=" ">
<polygon fill="white" stroke="#666666" points="346,-52 191,-52 191,-22 346,-22 346,-52"/>
<text text-anchor="start" x="199" y="-40" font-family="Helvetica,sans-Serif" font-size="10.00">dev.filechampion.filechampion4j.</text>
<text text-anchor="middle" x="268.5" y="-29" font-family="Helvetica,sans-Serif" font-size="10.00">FileValidator.doValidations</text>
</a>
</g>
</g>
<!-- Node1&#45;&gt;Node2 -->
<g id="edge1" class="edge">
<title>Node1&#45;&gt;Node2</title>
<path fill="none" stroke="#63b8ff" d="M370.89,-25.2C362.68,-26.15 354.41,-27.12 346.31,-28.06"/>
<polygon fill="#63b8ff" stroke="#63b8ff" points="371.1,-28.58 380.63,-23.95 370.29,-21.63 371.1,-28.58"/>
</g>
<!-- Node3 -->
<g id="node3" class="node">
<title>Node3</title>
<g id="a_node3"><a xlink:href="$classdev_1_1filechampion_1_1filechampion4j_1_1_file_validator.html#a0c42ecd30b213d35bf114d84e7b40f9f" xlink:title=" ">
<polygon fill="white" stroke="#666666" points="155,-30 0,-30 0,0 155,0 155,-30"/>
<text text-anchor="start" x="8" y="-18" font-family="Helvetica,sans-Serif" font-size="10.00">dev.filechampion.filechampion4j.</text>
<text text-anchor="middle" x="77.5" y="-7" font-family="Helvetica,sans-Serif" font-size="10.00">FileValidator.validateFile</text>
</a>
</g>
</g>
<!-- Node1&#45;&gt;Node3 -->
<g id="edge3" class="edge">
<title>Node1&#45;&gt;Node3</title>
<path fill="none" stroke="#63b8ff" d="M370.69,-13.29C362.35,-13.17 354.01,-13.07 346,-13 277.11,-12.39 259.89,-12.39 191,-13 179.48,-13.1 167.29,-13.26 155.35,-13.45"/>
<polygon fill="#63b8ff" stroke="#63b8ff" points="370.6,-16.8 380.65,-13.45 370.7,-9.8 370.6,-16.8"/>
</g>
<!-- Node2&#45;&gt;Node3 -->
<g id="edge2" class="edge">
<title>Node2&#45;&gt;Node3</title>
<path fill="none" stroke="#63b8ff" d="M179.89,-26.8C171.68,-25.85 163.41,-24.88 155.31,-23.94"/>
<polygon fill="#63b8ff" stroke="#63b8ff" points="179.29,-30.37 189.63,-28.05 180.1,-23.42 179.29,-30.37"/>
</g>
</g>
</svg>
