<?xml version="1.0" encoding="UTF-8" standalone="no"?>
<!DOCTYPE svg PUBLIC "-//W3C//DTD SVG 1.1//EN"
 "http://www.w3.org/Graphics/SVG/1.1/DTD/svg11.dtd">
<!-- Generated by graphviz version 8.0.3 (20230416.2022)
 -->
<!-- Title: dev.filechampion.filechampion4j.FileValidator.validateFile Pages: 1 -->
<svg width="414pt" height="1204pt"
 viewBox="0.00 0.00 414.00 1203.50" xmlns="http://www.w3.org/2000/svg" xmlns:xlink="http://www.w3.org/1999/xlink">
<g id="graph0" class="graph" transform="scale(1 1) rotate(0) translate(4 1199.5)">
<title>dev.filechampion.filechampion4j.FileValidator.validateFile</title>
<!-- Node1 -->
<g id="node1" class="node">
<title>Node1</title>
<g id="a_node1"><a xlink:title=" ">
<polygon fill="#999999" stroke="#666666" points="406,-618 251,-618 251,-588 406,-588 406,-618"/>
<text text-anchor="start" x="259" y="-606" font-family="Helvetica,sans-Serif" font-size="10.00">dev.filechampion.filechampion4j.</text>
<text text-anchor="middle" x="328.5" y="-595" font-family="Helvetica,sans-Serif" font-size="10.00">FileValidator.validateFile</text>
</a>
</g>
</g>
<!-- Node2 -->
<g id="node2" class="node">
<title>Node2</title>
<g id="a_node2"><a xlink:href="$class_main.html#a8a5d0f827edddff706cc0e6740d0579a" xlink:title=" ">
<polygon fill="white" stroke="#666666" points="138.5,-1195.5 76.5,-1195.5 76.5,-1176.5 138.5,-1176.5 138.5,-1195.5"/>
<text text-anchor="middle" x="107.5" y="-1183.5" font-family="Helvetica,sans-Serif" font-size="10.00">Main.main</text>
</a>
</g>
</g>
<!-- Node1&#45;&gt;Node2 -->
<g id="edge1" class="edge">
<title>Node1&#45;&gt;Node2</title>
<path fill="none" stroke="#63b8ff" d="M326.09,-629.04C320.1,-729.52 293.38,-1090.2 215,-1167 195.15,-1186.45 162.65,-1189.76 138.77,-1189.1"/>
<polygon fill="#63b8ff" stroke="#63b8ff" points="329.62,-629.55 326.7,-619.36 322.63,-629.14 329.62,-629.55"/>
</g>
<!-- Node3 -->
<g id="node3" class="node">
<title>Node3</title>
<g id="a_node3"><a xlink:href="$classdev_1_1filechampion_1_1filechampion4j_1_1_file_validator_bench.html#a9640512d223e26894951477146a817f1" xlink:title=" ">
<polygon fill="white" stroke="#666666" points="185,-1158 30,-1158 30,-1128 185,-1128 185,-1158"/>
<text text-anchor="start" x="38" y="-1146" font-family="Helvetica,sans-Serif" font-size="10.00">dev.filechampion.filechampion4j.</text>
<text text-anchor="middle" x="107.5" y="-1135" font-family="Helvetica,sans-Serif" font-size="10.00">FileValidatorBench.setUp</text>
</a>
</g>
</g>
<!-- Node1&#45;&gt;Node3 -->
<g id="edge2" class="edge">
<title>Node1&#45;&gt;Node3</title>
<path fill="none" stroke="#63b8ff" d="M325.45,-629.14C317.47,-723.98 285.4,-1048.11 215,-1119 206.79,-1127.27 196.37,-1132.95 185.29,-1136.81"/>
<polygon fill="#63b8ff" stroke="#63b8ff" points="329.01,-629.52 326.34,-619.27 322.03,-628.95 329.01,-629.52"/>
</g>
<!-- Node4 -->
<g id="node4" class="node">
<title>Node4</title>
<g id="a_node4"><a xlink:href="$classdev_1_1filechampion_1_1filechampion4j_1_1_file_validator_large_files_bench.html#a5825a7073dce0c3a17cc4b3aaf191644" xlink:title=" ">
<polygon fill="white" stroke="#666666" points="193.5,-1110 21.5,-1110 21.5,-1080 193.5,-1080 193.5,-1110"/>
<text text-anchor="start" x="29.5" y="-1098" font-family="Helvetica,sans-Serif" font-size="10.00">dev.filechampion.filechampion4j.</text>
<text text-anchor="middle" x="107.5" y="-1087" font-family="Helvetica,sans-Serif" font-size="10.00">FileValidatorLargeFilesBench.setUp</text>
</a>
</g>
</g>
<!-- Node1&#45;&gt;Node4 -->
<g id="edge3" class="edge">
<title>Node1&#45;&gt;Node4</title>
<path fill="none" stroke="#63b8ff" d="M324.83,-628.98C315.2,-717.84 279.29,-1007.62 215,-1071 208.93,-1076.99 201.7,-1081.61 193.91,-1085.17"/>
<polygon fill="#63b8ff" stroke="#63b8ff" points="328.42,-629.36 326,-619.04 321.46,-628.62 328.42,-629.36"/>
</g>
<!-- Node5 -->
<g id="node5" class="node">
<title>Node5</title>
<g id="a_node5"><a xlink:href="$classdev_1_1filechampion_1_1filechampion4j_1_1_file_validator_json_test.html#ae8737ee01062722b1417a6b70f4df2bb" xlink:title=" ">
<polygon fill="white" stroke="#666666" points="198,-1062 17,-1062 17,-1032 198,-1032 198,-1062"/>
<text text-anchor="start" x="25" y="-1050" font-family="Helvetica,sans-Serif" font-size="10.00">dev.filechampion.filechampion4j.</text>
<text text-anchor="middle" x="107.5" y="-1039" font-family="Helvetica,sans-Serif" font-size="10.00">FileValidatorJsonTest.testBasicConfig</text>
</a>
</g>
</g>
<!-- Node1&#45;&gt;Node5 -->
<g id="edge4" class="edge">
<title>Node1&#45;&gt;Node5</title>
<path fill="none" stroke="#63b8ff" d="M324.07,-629.01C312.62,-711.82 273.17,-967.12 215,-1023 210.08,-1027.73 204.44,-1031.6 198.37,-1034.76"/>
<polygon fill="#63b8ff" stroke="#63b8ff" points="327.64,-629.68 325.52,-619.3 320.71,-628.74 327.64,-629.68"/>
</g>
<!-- Node6 -->
<g id="node6" class="node">
<title>Node6</title>
<g id="a_node6"><a xlink:href="$classdev_1_1filechampion_1_1filechampion4j_1_1_file_validator_test.html#aafe4b22d7bf43eda1d880ca10df66899" xlink:title=" ">
<polygon fill="white" stroke="#666666" points="201.5,-1014 13.5,-1014 13.5,-984 201.5,-984 201.5,-1014"/>
<text text-anchor="start" x="21.5" y="-1002" font-family="Helvetica,sans-Serif" font-size="10.00">dev.filechampion.filechampion4j.</text>
<text text-anchor="middle" x="107.5" y="-991" font-family="Helvetica,sans-Serif" font-size="10.00">FileValidatorTest.testBlankFileCategory</text>
</a>
</g>
</g>
<!-- Node1&#45;&gt;Node6 -->
<g id="edge5" class="edge">
<title>Node1&#45;&gt;Node6</title>
<path fill="none" stroke="#63b8ff" d="M327.95,-629.07C327.61,-696.92 316.82,-880.26 215,-975 210.98,-978.74 206.5,-981.95 201.72,-984.69"/>
<polygon fill="#63b8ff" stroke="#63b8ff" points="331.44,-629.13 327.91,-619.14 324.44,-629.15 331.44,-629.13"/>
</g>
<!-- Node7 -->
<g id="node7" class="node">
<title>Node7</title>
<g id="a_node7"><a xlink:href="$classdev_1_1filechampion_1_1filechampion4j_1_1_file_validator_test.html#a6e9b25c615380aec9611a063c7614c56" xlink:title=" ">
<polygon fill="white" stroke="#666666" points="198.5,-966 16.5,-966 16.5,-936 198.5,-936 198.5,-966"/>
<text text-anchor="start" x="24.5" y="-954" font-family="Helvetica,sans-Serif" font-size="10.00">dev.filechampion.filechampion4j.</text>
<text text-anchor="middle" x="107.5" y="-943" font-family="Helvetica,sans-Serif" font-size="10.00">FileValidatorTest.testContenMismatch</text>
</a>
</g>
</g>
<!-- Node1&#45;&gt;Node7 -->
<g id="edge6" class="edge">
<title>Node1&#45;&gt;Node7</title>
<path fill="none" stroke="#63b8ff" d="M326.59,-629.06C322.97,-690.77 304.9,-846.69 215,-927 210.12,-931.36 204.63,-934.97 198.77,-937.97"/>
<polygon fill="#63b8ff" stroke="#63b8ff" points="330.12,-629.51 327.13,-619.34 323.13,-629.16 330.12,-629.51"/>
</g>
<!-- Node8 -->
<g id="node8" class="node">
<title>Node8</title>
<g id="a_node8"><a xlink:href="$classdev_1_1filechampion_1_1filechampion4j_1_1_file_validator_test.html#a1c50dc29d1e022d54ef08c57e4809d22" xlink:title=" ">
<polygon fill="white" stroke="#666666" points="189.5,-917.5 25.5,-917.5 25.5,-876.5 189.5,-876.5 189.5,-917.5"/>
<text text-anchor="start" x="33.5" y="-905.5" font-family="Helvetica,sans-Serif" font-size="10.00">dev.filechampion.filechampion4j.</text>
<text text-anchor="start" x="33.5" y="-894.5" font-family="Helvetica,sans-Serif" font-size="10.00">FileValidatorTest.testFileCategory</text>
<text text-anchor="middle" x="107.5" y="-883.5" font-family="Helvetica,sans-Serif" font-size="10.00">NotConfigured</text>
</a>
</g>
</g>
<!-- Node1&#45;&gt;Node8 -->
<g id="edge7" class="edge">
<title>Node1&#45;&gt;Node8</title>
<path fill="none" stroke="#63b8ff" d="M323.9,-629.33C315.24,-682.39 288.22,-802.62 215,-867 207.64,-873.47 198.99,-878.55 189.85,-882.54"/>
<polygon fill="#63b8ff" stroke="#63b8ff" points="327.51,-629.91 325.57,-619.49 320.59,-628.84 327.51,-629.91"/>
</g>
<!-- Node9 -->
<g id="node9" class="node">
<title>Node9</title>
<g id="a_node9"><a xlink:href="$classdev_1_1filechampion_1_1filechampion4j_1_1_file_validator_test.html#a154c22f0a5a6b796f196a8ab6c487212" xlink:title=" ">
<polygon fill="white" stroke="#666666" points="189.5,-858 25.5,-858 25.5,-828 189.5,-828 189.5,-858"/>
<text text-anchor="start" x="33.5" y="-846" font-family="Helvetica,sans-Serif" font-size="10.00">dev.filechampion.filechampion4j.</text>
<text text-anchor="middle" x="107.5" y="-835" font-family="Helvetica,sans-Serif" font-size="10.00">FileValidatorTest.testFileTooLarge</text>
</a>
</g>
</g>
<!-- Node1&#45;&gt;Node9 -->
<g id="edge8" class="edge">
<title>Node1&#45;&gt;Node9</title>
<path fill="none" stroke="#63b8ff" d="M321.6,-628.96C309.76,-674.84 278.62,-770.02 215,-819 207.49,-824.78 198.85,-829.22 189.81,-832.62"/>
<polygon fill="#63b8ff" stroke="#63b8ff" points="325.2,-629.97 324.2,-619.42 318.41,-628.29 325.2,-629.97"/>
</g>
<!-- Node10 -->
<g id="node10" class="node">
<title>Node10</title>
<g id="a_node10"><a xlink:href="$classdev_1_1filechampion_1_1filechampion4j_1_1_file_validator_test.html#a040aea36c591131fb63e1966fd4f9594" xlink:title=" ">
<polygon fill="white" stroke="#666666" points="197,-810 18,-810 18,-780 197,-780 197,-810"/>
<text text-anchor="start" x="26" y="-798" font-family="Helvetica,sans-Serif" font-size="10.00">dev.filechampion.filechampion4j.</text>
<text text-anchor="middle" x="107.5" y="-787" font-family="Helvetica,sans-Serif" font-size="10.00">FileValidatorTest.testInvalidExtension</text>
</a>
</g>
</g>
<!-- Node1&#45;&gt;Node10 -->
<g id="edge9" class="edge">
<title>Node1&#45;&gt;Node10</title>
<path fill="none" stroke="#63b8ff" d="M317.71,-628.48C301.98,-665.87 267.43,-735.04 215,-771 209.53,-774.75 203.56,-777.93 197.34,-780.61"/>
<polygon fill="#63b8ff" stroke="#63b8ff" points="321.29,-629.98 321.82,-619.4 314.81,-627.34 321.29,-629.98"/>
</g>
<!-- Node11 -->
<g id="node11" class="node">
<title>Node11</title>
<g id="a_node11"><a xlink:href="$classdev_1_1filechampion_1_1filechampion4j_1_1_file_validator_json_test.html#abe58b7ca037bdd69d1fd1c19f81dcb20" xlink:title=" ">
<polygon fill="white" stroke="#666666" points="200,-762 15,-762 15,-732 200,-732 200,-762"/>
<text text-anchor="start" x="23" y="-750" font-family="Helvetica,sans-Serif" font-size="10.00">dev.filechampion.filechampion4j.</text>
<text text-anchor="middle" x="107.5" y="-739" font-family="Helvetica,sans-Serif" font-size="10.00">FileValidatorJsonTest.testInValidMagic</text>
</a>
</g>
</g>
<!-- Node1&#45;&gt;Node11 -->
<g id="edge10" class="edge">
<title>Node1&#45;&gt;Node11</title>
<path fill="none" stroke="#63b8ff" d="M311.58,-627.26C292.15,-654.85 256.69,-699.15 215,-723 209.24,-726.29 203.07,-729.14 196.7,-731.59"/>
<polygon fill="#63b8ff" stroke="#63b8ff" points="314.99,-629.48 317.77,-619.26 309.22,-625.52 314.99,-629.48"/>
</g>
<!-- Node12 -->
<g id="node12" class="node">
<title>Node12</title>
<g id="a_node12"><a xlink:href="$classdev_1_1filechampion_1_1filechampion4j_1_1_file_validator_json_test.html#a05e2ebb12fa09039cc6ccb3313f80863" xlink:title=" ">
<polygon fill="white" stroke="#666666" points="213.5,-714 1.5,-714 1.5,-684 213.5,-684 213.5,-714"/>
<text text-anchor="start" x="9.5" y="-702" font-family="Helvetica,sans-Serif" font-size="10.00">dev.filechampion.filechampion4j.</text>
<text text-anchor="middle" x="107.5" y="-691" font-family="Helvetica,sans-Serif" font-size="10.00">FileValidatorJsonTest.testInValidMagicFooter</text>
</a>
</g>
</g>
<!-- Node1&#45;&gt;Node12 -->
<g id="edge11" class="edge">
<title>Node1&#45;&gt;Node12</title>
<path fill="none" stroke="#63b8ff" d="M299.61,-624.77C277.72,-640.85 245.89,-662.1 215,-675 207.22,-678.25 198.92,-681.09 190.53,-683.58"/>
<polygon fill="#63b8ff" stroke="#63b8ff" points="301.43,-627.03 307.34,-618.24 297.24,-621.42 301.43,-627.03"/>
</g>
<!-- Node13 -->
<g id="node13" class="node">
<title>Node13</title>
<g id="a_node13"><a xlink:href="$classdev_1_1filechampion_1_1filechampion4j_1_1_file_validator_json_test.html#abed39eeda356b1c735b926c2323d7f74" xlink:title=" ">
<polygon fill="white" stroke="#666666" points="215,-666 0,-666 0,-636 215,-636 215,-666"/>
<text text-anchor="start" x="8" y="-654" font-family="Helvetica,sans-Serif" font-size="10.00">dev.filechampion.filechampion4j.</text>
<text text-anchor="middle" x="107.5" y="-643" font-family="Helvetica,sans-Serif" font-size="10.00">FileValidatorJsonTest.testInValidMagicHeader</text>
</a>
</g>
</g>
<!-- Node1&#45;&gt;Node13 -->
<g id="edge12" class="edge">
<title>Node1&#45;&gt;Node13</title>
<path fill="none" stroke="#63b8ff" d="M246.28,-620.8C224.14,-625.65 200.35,-630.87 178.87,-635.58"/>
<polygon fill="#63b8ff" stroke="#63b8ff" points="246.98,-624.01 256,-618.45 245.48,-617.17 246.98,-624.01"/>
</g>
<!-- Node14 -->
<g id="node14" class="node">
<title>Node14</title>
<g id="a_node14"><a xlink:href="$classdev_1_1filechampion_1_1filechampion4j_1_1_file_validator_json_test.html#aef4bfeca1724cb089dddc1add792316c" xlink:title=" ">
<polygon fill="white" stroke="#666666" points="198.5,-618 16.5,-618 16.5,-588 198.5,-588 198.5,-618"/>
<text text-anchor="start" x="24.5" y="-606" font-family="Helvetica,sans-Serif" font-size="10.00">dev.filechampion.filechampion4j.</text>
<text text-anchor="middle" x="107.5" y="-595" font-family="Helvetica,sans-Serif" font-size="10.00">FileValidatorJsonTest.testInValidMime</text>
</a>
</g>
</g>
<!-- Node1&#45;&gt;Node14 -->
<g id="edge13" class="edge">
<title>Node1&#45;&gt;Node14</title>
<path fill="none" stroke="#63b8ff" d="M239.86,-603C226.32,-603 212.32,-603 198.73,-603"/>
<polygon fill="#63b8ff" stroke="#63b8ff" points="239.6,-606.5 249.6,-603 239.6,-599.5 239.6,-606.5"/>
</g>
<!-- Node15 -->
<g id="node15" class="node">
<title>Node15</title>
<g id="a_node15"><a xlink:href="$classdev_1_1filechampion_1_1filechampion4j_1_1_file_validator_json_test.html#ad79b137d847adfd3ac5177acba2f8ddd" xlink:title=" ">
<polygon fill="white" stroke="#666666" points="210.5,-570 4.5,-570 4.5,-540 210.5,-540 210.5,-570"/>
<text text-anchor="start" x="12.5" y="-558" font-family="Helvetica,sans-Serif" font-size="10.00">dev.filechampion.filechampion4j.</text>
<text text-anchor="middle" x="107.5" y="-547" font-family="Helvetica,sans-Serif" font-size="10.00">FileValidatorJsonTest.testJsonEncodeFalse</text>
</a>
</g>
</g>
<!-- Node1&#45;&gt;Node15 -->
<g id="edge14" class="edge">
<title>Node1&#45;&gt;Node15</title>
<path fill="none" stroke="#63b8ff" d="M246.28,-585.2C224.14,-580.35 200.35,-575.13 178.87,-570.42"/>
<polygon fill="#63b8ff" stroke="#63b8ff" points="245.48,-588.83 256,-587.55 246.98,-581.99 245.48,-588.83"/>
</g>
<!-- Node16 -->
<g id="node16" class="node">
<title>Node16</title>
<g id="a_node16"><a xlink:href="$classdev_1_1filechampion_1_1filechampion4j_1_1_file_validator_json_test.html#af4cb1128d0c4987bd701ac0d8a58c2d8" xlink:title=" ">
<polygon fill="white" stroke="#666666" points="191,-522 24,-522 24,-492 191,-492 191,-522"/>
<text text-anchor="start" x="32" y="-510" font-family="Helvetica,sans-Serif" font-size="10.00">dev.filechampion.filechampion4j.</text>
<text text-anchor="middle" x="107.5" y="-499" font-family="Helvetica,sans-Serif" font-size="10.00">FileValidatorJsonTest.testNoMagic</text>
</a>
</g>
</g>
<!-- Node1&#45;&gt;Node16 -->
<g id="edge15" class="edge">
<title>Node1&#45;&gt;Node16</title>
<path fill="none" stroke="#63b8ff" d="M299.61,-581.23C277.72,-565.15 245.89,-543.9 215,-531 207.22,-527.75 198.92,-524.91 190.53,-522.42"/>
<polygon fill="#63b8ff" stroke="#63b8ff" points="297.24,-584.58 307.34,-587.76 301.43,-578.97 297.24,-584.58"/>
</g>
<!-- Node17 -->
<g id="node17" class="node">
<title>Node17</title>
<g id="a_node17"><a xlink:href="$classdev_1_1filechampion_1_1filechampion4j_1_1_file_validator_json_test.html#a4611b33e92d7b90d8df69148bdbf18e2" xlink:title=" ">
<polygon fill="white" stroke="#666666" points="190,-474 25,-474 25,-444 190,-444 190,-474"/>
<text text-anchor="start" x="33" y="-462" font-family="Helvetica,sans-Serif" font-size="10.00">dev.filechampion.filechampion4j.</text>
<text text-anchor="middle" x="107.5" y="-451" font-family="Helvetica,sans-Serif" font-size="10.00">FileValidatorJsonTest.testNoMime</text>
</a>
</g>
</g>
<!-- Node1&#45;&gt;Node17 -->
<g id="edge16" class="edge">
<title>Node1&#45;&gt;Node17</title>
<path fill="none" stroke="#63b8ff" d="M311.58,-578.74C292.15,-551.15 256.69,-506.85 215,-483 207.35,-478.62 198.97,-475.05 190.37,-472.12"/>
<polygon fill="#63b8ff" stroke="#63b8ff" points="309.22,-580.48 317.77,-586.74 314.99,-576.52 309.22,-580.48"/>
</g>
<!-- Node18 -->
<g id="node18" class="node">
<title>Node18</title>
<g id="a_node18"><a xlink:href="$classdev_1_1filechampion_1_1filechampion4j_1_1_file_validator_json_test.html#a15e46d7300ef2f1dcc80de240f25f8aa" xlink:title=" ">
<polygon fill="white" stroke="#666666" points="188,-426 27,-426 27,-396 188,-396 188,-426"/>
<text text-anchor="start" x="35" y="-414" font-family="Helvetica,sans-Serif" font-size="10.00">dev.filechampion.filechampion4j.</text>
<text text-anchor="middle" x="107.5" y="-403" font-family="Helvetica,sans-Serif" font-size="10.00">FileValidatorJsonTest.testNoSigs</text>
</a>
</g>
</g>
<!-- Node1&#45;&gt;Node18 -->
<g id="edge17" class="edge">
<title>Node1&#45;&gt;Node18</title>
<path fill="none" stroke="#63b8ff" d="M317.71,-577.52C301.98,-540.13 267.43,-470.96 215,-435 206.95,-429.48 197.83,-425.21 188.39,-421.91"/>
<polygon fill="#63b8ff" stroke="#63b8ff" points="314.81,-578.66 321.82,-586.6 321.29,-576.02 314.81,-578.66"/>
</g>
<!-- Node19 -->
<g id="node19" class="node">
<title>Node19</title>
<g id="a_node19"><a xlink:href="$classdev_1_1filechampion_1_1filechampion4j_1_1_file_validator_test.html#aec7f73f24f206cc5b94c6b208c4b0cdd" xlink:title=" ">
<polygon fill="white" stroke="#666666" points="204,-377.5 11,-377.5 11,-336.5 204,-336.5 204,-377.5"/>
<text text-anchor="start" x="19" y="-365.5" font-family="Helvetica,sans-Serif" font-size="10.00">dev.filechampion.filechampion4j.</text>
<text text-anchor="start" x="19" y="-354.5" font-family="Helvetica,sans-Serif" font-size="10.00">FileValidatorTest.testSaveToNonExisting</text>
<text text-anchor="middle" x="107.5" y="-343.5" font-family="Helvetica,sans-Serif" font-size="10.00">Directory</text>
</a>
</g>
</g>
<!-- Node1&#45;&gt;Node19 -->
<g id="edge18" class="edge">
<title>Node1&#45;&gt;Node19</title>
<path fill="none" stroke="#63b8ff" d="M321.33,-577.37C309.08,-532.02 277.3,-437.65 215,-387 210.83,-383.61 206.29,-380.6 201.53,-377.93"/>
<polygon fill="#63b8ff" stroke="#63b8ff" points="318.14,-577.99 324.04,-586.79 324.91,-576.23 318.14,-577.99"/>
</g>
<!-- Node20 -->
<g id="node20" class="node">
<title>Node20</title>
<g id="a_node20"><a xlink:href="$classdev_1_1filechampion_1_1filechampion4j_1_1_file_validator_json_test.html#a2f41f8bc235120ec4ccd56f02a4daadb" xlink:title=" ">
<polygon fill="white" stroke="#666666" points="191,-318 24,-318 24,-288 191,-288 191,-318"/>
<text text-anchor="start" x="32" y="-306" font-family="Helvetica,sans-Serif" font-size="10.00">dev.filechampion.filechampion4j.</text>
<text text-anchor="middle" x="107.5" y="-295" font-family="Helvetica,sans-Serif" font-size="10.00">FileValidatorJsonTest.testSizeZero</text>
</a>
</g>
</g>
<!-- Node1&#45;&gt;Node20 -->
<g id="edge19" class="edge">
<title>Node1&#45;&gt;Node20</title>
<path fill="none" stroke="#63b8ff" d="M324.7,-576.85C317.38,-521.91 292.49,-394.14 215,-328 208.07,-322.08 199.99,-317.5 191.44,-313.97"/>
<polygon fill="#63b8ff" stroke="#63b8ff" points="321.34,-577.22 326.04,-586.71 328.29,-576.36 321.34,-577.22"/>
</g>
<!-- Node21 -->
<g id="node21" class="node">
<title>Node21</title>
<g id="a_node21"><a xlink:href="$classdev_1_1filechampion_1_1filechampion4j_1_1_file_validator_json_test.html#addff6ff1e3e393d22f709686c73bd614" xlink:title=" ">
<polygon fill="white" stroke="#666666" points="195,-270 20,-270 20,-240 195,-240 195,-270"/>
<text text-anchor="start" x="28" y="-258" font-family="Helvetica,sans-Serif" font-size="10.00">dev.filechampion.filechampion4j.</text>
<text text-anchor="middle" x="107.5" y="-247" font-family="Helvetica,sans-Serif" font-size="10.00">FileValidatorJsonTest.testStepfailure</text>
</a>
</g>
</g>
<!-- Node1&#45;&gt;Node21 -->
<g id="edge20" class="edge">
<title>Node1&#45;&gt;Node21</title>
<path fill="none" stroke="#63b8ff" d="M326.59,-576.94C322.97,-515.23 304.9,-359.31 215,-279 209.2,-273.82 202.53,-269.69 195.42,-266.4"/>
<polygon fill="#63b8ff" stroke="#63b8ff" points="323.13,-576.84 327.13,-586.66 330.12,-576.49 323.13,-576.84"/>
</g>
<!-- Node22 -->
<g id="node22" class="node">
<title>Node22</title>
<g id="a_node22"><a xlink:href="$classdev_1_1filechampion_1_1filechampion4j_1_1_file_validator_json_test.html#ae70ade4da3ae3ce3b4acedd7e4217780" xlink:title=" ">
<polygon fill="white" stroke="#666666" points="199.5,-222 15.5,-222 15.5,-192 199.5,-192 199.5,-222"/>
<text text-anchor="start" x="23.5" y="-210" font-family="Helvetica,sans-Serif" font-size="10.00">dev.filechampion.filechampion4j.</text>
<text text-anchor="middle" x="107.5" y="-199" font-family="Helvetica,sans-Serif" font-size="10.00">FileValidatorJsonTest.testStepTimeout</text>
</a>
</g>
</g>
<!-- Node1&#45;&gt;Node22 -->
<g id="edge21" class="edge">
<title>Node1&#45;&gt;Node22</title>
<path fill="none" stroke="#63b8ff" d="M327.95,-576.93C327.61,-509.08 316.82,-325.74 215,-231 210.49,-226.8 205.41,-223.29 199.97,-220.34"/>
<polygon fill="#63b8ff" stroke="#63b8ff" points="324.44,-576.85 327.91,-586.86 331.44,-576.87 324.44,-576.85"/>
</g>
<!-- Node23 -->
<g id="node23" class="node">
<title>Node23</title>
<g id="a_node23"><a xlink:href="$classdev_1_1filechampion_1_1filechampion4j_1_1_file_validator_bench.html#a836933434a476de40497a3887ddda217" xlink:title=" ">
<polygon fill="white" stroke="#666666" points="190.5,-174 24.5,-174 24.5,-144 190.5,-144 190.5,-174"/>
<text text-anchor="start" x="32.5" y="-162" font-family="Helvetica,sans-Serif" font-size="10.00">dev.filechampion.filechampion4j.</text>
<text text-anchor="middle" x="107.5" y="-151" font-family="Helvetica,sans-Serif" font-size="10.00">FileValidatorBench.testValidInputs</text>
</a>
</g>
</g>
<!-- Node1&#45;&gt;Node23 -->
<g id="edge22" class="edge">
<title>Node1&#45;&gt;Node23</title>
<path fill="none" stroke="#63b8ff" d="M324.07,-576.99C312.62,-494.18 273.17,-238.88 215,-183 208.1,-176.37 199.77,-171.42 190.86,-167.75"/>
<polygon fill="#63b8ff" stroke="#63b8ff" points="320.71,-577.26 325.52,-586.7 327.64,-576.32 320.71,-577.26"/>
</g>
<!-- Node24 -->
<g id="node24" class="node">
<title>Node24</title>
<g id="a_node24"><a xlink:href="$classdev_1_1filechampion_1_1filechampion4j_1_1_file_validator_large_files_bench.html#a5540737404495fa536a4292af3691dcd" xlink:title=" ">
<polygon fill="white" stroke="#666666" points="213,-126 2,-126 2,-96 213,-96 213,-126"/>
<text text-anchor="start" x="10" y="-114" font-family="Helvetica,sans-Serif" font-size="10.00">dev.filechampion.filechampion4j.</text>
<text text-anchor="middle" x="107.5" y="-103" font-family="Helvetica,sans-Serif" font-size="10.00">FileValidatorLargeFilesBench.testValidInputs</text>
</a>
</g>
</g>
<!-- Node1&#45;&gt;Node24 -->
<g id="edge23" class="edge">
<title>Node1&#45;&gt;Node24</title>
<path fill="none" stroke="#63b8ff" d="M324.83,-577.02C315.2,-488.16 279.29,-198.38 215,-135 211.63,-131.67 207.89,-128.77 203.91,-126.23"/>
<polygon fill="#63b8ff" stroke="#63b8ff" points="321.46,-577.38 326,-586.96 328.42,-576.64 321.46,-577.38"/>
</g>
<!-- Node25 -->
<g id="node25" class="node">
<title>Node25</title>
<g id="a_node25"><a xlink:href="$classdev_1_1filechampion_1_1filechampion4j_1_1_file_validator_test.html#aaaae265bcd6240cb03b672a0b185d984" xlink:title=" ">
<polygon fill="white" stroke="#666666" points="186,-78 29,-78 29,-48 186,-48 186,-78"/>
<text text-anchor="start" x="37" y="-66" font-family="Helvetica,sans-Serif" font-size="10.00">dev.filechampion.filechampion4j.</text>
<text text-anchor="middle" x="107.5" y="-55" font-family="Helvetica,sans-Serif" font-size="10.00">FileValidatorTest.testValidInputs</text>
</a>
</g>
</g>
<!-- Node1&#45;&gt;Node25 -->
<g id="edge24" class="edge">
<title>Node1&#45;&gt;Node25</title>
<path fill="none" stroke="#63b8ff" d="M325.45,-576.86C317.47,-482.02 285.4,-157.89 215,-87 207.05,-79 197.05,-73.42 186.37,-69.57"/>
<polygon fill="#63b8ff" stroke="#63b8ff" points="322.03,-577.05 326.34,-586.73 329.01,-576.48 322.03,-577.05"/>
</g>
<!-- Node26 -->
<g id="node26" class="node">
<title>Node26</title>
<g id="a_node26"><a xlink:href="$classdev_1_1filechampion_1_1filechampion4j_1_1_file_validator_test.html#a45f6f37d4e60ebc840cfff30a44dce6d" xlink:title=" ">
<polygon fill="white" stroke="#666666" points="197.5,-30 17.5,-30 17.5,0 197.5,0 197.5,-30"/>
<text text-anchor="start" x="25.5" y="-18" font-family="Helvetica,sans-Serif" font-size="10.00">dev.filechampion.filechampion4j.</text>
<text text-anchor="middle" x="107.5" y="-7" font-family="Helvetica,sans-Serif" font-size="10.00">FileValidatorTest.testValidInputsStore</text>
</a>
</g>
</g>
<!-- Node1&#45;&gt;Node26 -->
<g id="edge25" class="edge">
<title>Node1&#45;&gt;Node26</title>
<path fill="none" stroke="#63b8ff" d="M325.96,-576.76C319.55,-476.25 291.55,-117.47 215,-39 210.04,-33.91 204.24,-29.8 197.97,-26.49"/>
<polygon fill="#63b8ff" stroke="#63b8ff" points="322.53,-576.94 326.64,-586.7 329.52,-576.5 322.53,-576.94"/>
</g>
</g>
</svg>
