<?xml version="1.0" encoding="UTF-8" standalone="no"?>
<!DOCTYPE svg PUBLIC "-//W3C//DTD SVG 1.1//EN"
 "http://www.w3.org/Graphics/SVG/1.1/DTD/svg11.dtd">
<!-- Generated by graphviz version 8.0.3 (20230416.2022)
 -->
<!-- Title: dev.filechampion.filechampion4j.PluginsHelper.StepConfig.getType Pages: 1 -->
<svg width="745pt" height="38pt"
 viewBox="0.00 0.00 745.00 38.00" xmlns="http://www.w3.org/2000/svg" xmlns:xlink="http://www.w3.org/1999/xlink">
<g id="graph0" class="graph" transform="scale(1 1) rotate(0) translate(4 34)">
<title>dev.filechampion.filechampion4j.PluginsHelper.StepConfig.getType</title>
<!-- Node1 -->
<g id="node1" class="node">
<title>Node1</title>
<g id="a_node1"><a xlink:title=" ">
<polygon fill="#999999" stroke="#666666" points="737,-30 573,-30 573,0 737,0 737,-30"/>
<text text-anchor="start" x="581" y="-18" font-family="Helvetica,sans-Serif" font-size="10.00">dev.filechampion.filechampion4j.</text>
<text text-anchor="middle" x="655" y="-7" font-family="Helvetica,sans-Serif" font-size="10.00">PluginsHelper.StepConfig.getType</text>
</a>
</g>
</g>
<!-- Node2 -->
<g id="node2" class="node">
<title>Node2</title>
<g id="a_node2"><a xlink:href="$classdev_1_1filechampion_1_1filechampion4j_1_1_plugins_helper.html#a3c9eff65507c31c8b46a1cf0a2199b8d" xlink:title=" ">
<polygon fill="white" stroke="#666666" points="537,-30 382,-30 382,0 537,0 537,-30"/>
<text text-anchor="start" x="390" y="-18" font-family="Helvetica,sans-Serif" font-size="10.00">dev.filechampion.filechampion4j.</text>
<text text-anchor="middle" x="459.5" y="-7" font-family="Helvetica,sans-Serif" font-size="10.00">PluginsHelper.getPluginConfigs</text>
</a>
</g>
</g>
<!-- Node1&#45;&gt;Node2 -->
<g id="edge1" class="edge">
<title>Node1&#45;&gt;Node2</title>
<path fill="none" stroke="#63b8ff" d="M562.03,-15C553.82,-15 545.56,-15 537.49,-15"/>
<polygon fill="#63b8ff" stroke="#63b8ff" points="561.78,-18.5 571.78,-15 561.78,-11.5 561.78,-18.5"/>
</g>
<!-- Node3 -->
<g id="node3" class="node">
<title>Node3</title>
<g id="a_node3"><a xlink:href="$classdev_1_1filechampion_1_1filechampion4j_1_1_file_validator.html#aaa8d5ebc07f168c5750e4ed575592a33" xlink:title=" ">
<polygon fill="white" stroke="#666666" points="346,-30 191,-30 191,0 346,0 346,-30"/>
<text text-anchor="start" x="199" y="-18" font-family="Helvetica,sans-Serif" font-size="10.00">dev.filechampion.filechampion4j.</text>
<text text-anchor="middle" x="268.5" y="-7" font-family="Helvetica,sans-Serif" font-size="10.00">FileValidator.loadPlugins</text>
</a>
</g>
</g>
<!-- Node2&#45;&gt;Node3 -->
<g id="edge2" class="edge">
<title>Node2&#45;&gt;Node3</title>
<path fill="none" stroke="#63b8ff" d="M370.89,-15C362.68,-15 354.41,-15 346.31,-15"/>
<polygon fill="#63b8ff" stroke="#63b8ff" points="370.63,-18.5 380.63,-15 370.63,-11.5 370.63,-18.5"/>
</g>
<!-- Node4 -->
<g id="node4" class="node">
<title>Node4</title>
<g id="a_node4"><a xlink:href="$classdev_1_1filechampion_1_1filechampion4j_1_1_file_validator.html#a5239bec4548e36c68d28e92281006d99" xlink:title=" ">
<polygon fill="white" stroke="#666666" points="155,-30 0,-30 0,0 155,0 155,-30"/>
<text text-anchor="start" x="8" y="-18" font-family="Helvetica,sans-Serif" font-size="10.00">dev.filechampion.filechampion4j.</text>
<text text-anchor="middle" x="77.5" y="-7" font-family="Helvetica,sans-Serif" font-size="10.00">FileValidator.FileValidator</text>
</a>
</g>
</g>
<!-- Node3&#45;&gt;Node4 -->
<g id="edge3" class="edge">
<title>Node3&#45;&gt;Node4</title>
<path fill="none" stroke="#63b8ff" d="M179.89,-15C171.68,-15 163.41,-15 155.31,-15"/>
<polygon fill="#63b8ff" stroke="#63b8ff" points="179.63,-18.5 189.63,-15 179.63,-11.5 179.63,-18.5"/>
</g>
</g>
</svg>
