<?xml version="1.0" encoding="UTF-8" standalone="no"?>
<!DOCTYPE svg PUBLIC "-//W3C//DTD SVG 1.1//EN"
 "http://www.w3.org/Graphics/SVG/1.1/DTD/svg11.dtd">
<!-- Generated by graphviz version 8.0.3 (20230416.2022)
 -->
<!-- Title: dev.filechampion.filechampion4j.FileValidator.executePlugin Pages: 1 -->
<svg width="755pt" height="86pt"
 viewBox="0.00 0.00 755.00 86.00" xmlns="http://www.w3.org/2000/svg" xmlns:xlink="http://www.w3.org/1999/xlink">
<g id="graph0" class="graph" transform="scale(1 1) rotate(0) translate(4 82)">
<title>dev.filechampion.filechampion4j.FileValidator.executePlugin</title>
<!-- Node1 -->
<g id="node1" class="node">
<title>Node1</title>
<g id="a_node1"><a xlink:title=" ">
<polygon fill="#999999" stroke="#666666" points="747,-53 592,-53 592,-23 747,-23 747,-53"/>
<text text-anchor="start" x="600" y="-41" font-family="Helvetica,sans-Serif" font-size="10.00">dev.filechampion.filechampion4j.</text>
<text text-anchor="middle" x="669.5" y="-30" font-family="Helvetica,sans-Serif" font-size="10.00">FileValidator.executePlugin</text>
</a>
</g>
</g>
<!-- Node2 -->
<g id="node2" class="node">
<title>Node2</title>
<g id="a_node2"><a xlink:href="$classdev_1_1filechampion_1_1filechampion4j_1_1_file_validator.html#aa2bf7ccde349fc95be4c912cd42a6c95" xlink:title=" ">
<polygon fill="white" stroke="#666666" points="556,-76 395,-76 395,-46 556,-46 556,-76"/>
<text text-anchor="start" x="403" y="-64" font-family="Helvetica,sans-Serif" font-size="10.00">dev.filechampion.filechampion4j.</text>
<text text-anchor="middle" x="475.5" y="-53" font-family="Helvetica,sans-Serif" font-size="10.00">FileValidator.executeAfterPlugins</text>
</a>
</g>
</g>
<!-- Node1&#45;&gt;Node2 -->
<g id="edge1" class="edge">
<title>Node1&#45;&gt;Node2</title>
<path fill="none" stroke="#63b8ff" d="M580.84,-48.5C572.67,-49.48 564.42,-50.47 556.33,-51.44"/>
<polygon fill="#63b8ff" stroke="#63b8ff" points="581,-51.89 590.51,-47.22 580.17,-44.94 581,-51.89"/>
</g>
<!-- Node5 -->
<g id="node5" class="node">
<title>Node5</title>
<g id="a_node5"><a xlink:href="$classdev_1_1filechampion_1_1filechampion4j_1_1_file_validator.html#aa3d78c6d5ccf1abfdb1284969a9d2117" xlink:title=" ">
<polygon fill="white" stroke="#666666" points="359,-30 191,-30 191,0 359,0 359,-30"/>
<text text-anchor="start" x="199" y="-18" font-family="Helvetica,sans-Serif" font-size="10.00">dev.filechampion.filechampion4j.</text>
<text text-anchor="middle" x="275" y="-7" font-family="Helvetica,sans-Serif" font-size="10.00">FileValidator.executeBeforePlugins</text>
</a>
</g>
</g>
<!-- Node1&#45;&gt;Node5 -->
<g id="edge4" class="edge">
<title>Node1&#45;&gt;Node5</title>
<path fill="none" stroke="#63b8ff" d="M581.06,-32.88C514.81,-28.99 424.38,-23.7 359.2,-19.88"/>
<polygon fill="#63b8ff" stroke="#63b8ff" points="580.7,-36.42 590.89,-33.51 581.11,-29.43 580.7,-36.42"/>
</g>
<!-- Node3 -->
<g id="node3" class="node">
<title>Node3</title>
<g id="a_node3"><a xlink:href="$classdev_1_1filechampion_1_1filechampion4j_1_1_file_validator.html#aaeb2a194d8491d3f240893cf076098e0" xlink:title=" ">
<polygon fill="white" stroke="#666666" points="352.5,-78 197.5,-78 197.5,-48 352.5,-48 352.5,-78"/>
<text text-anchor="start" x="205.5" y="-66" font-family="Helvetica,sans-Serif" font-size="10.00">dev.filechampion.filechampion4j.</text>
<text text-anchor="middle" x="275" y="-55" font-family="Helvetica,sans-Serif" font-size="10.00">FileValidator.doValidations</text>
</a>
</g>
</g>
<!-- Node2&#45;&gt;Node3 -->
<g id="edge2" class="edge">
<title>Node2&#45;&gt;Node3</title>
<path fill="none" stroke="#63b8ff" d="M383.87,-61.91C373.49,-62.02 362.99,-62.12 352.82,-62.23"/>
<polygon fill="#63b8ff" stroke="#63b8ff" points="383.66,-65.41 393.62,-61.8 383.59,-58.41 383.66,-65.41"/>
</g>
<!-- Node4 -->
<g id="node4" class="node">
<title>Node4</title>
<g id="a_node4"><a xlink:href="$classdev_1_1filechampion_1_1filechampion4j_1_1_file_validator.html#a0c42ecd30b213d35bf114d84e7b40f9f" xlink:title=" ">
<polygon fill="white" stroke="#666666" points="155,-54 0,-54 0,-24 155,-24 155,-54"/>
<text text-anchor="start" x="8" y="-42" font-family="Helvetica,sans-Serif" font-size="10.00">dev.filechampion.filechampion4j.</text>
<text text-anchor="middle" x="77.5" y="-31" font-family="Helvetica,sans-Serif" font-size="10.00">FileValidator.validateFile</text>
</a>
</g>
</g>
<!-- Node3&#45;&gt;Node4 -->
<g id="edge3" class="edge">
<title>Node3&#45;&gt;Node4</title>
<path fill="none" stroke="#63b8ff" d="M186.34,-52.24C176.03,-50.97 165.57,-49.69 155.42,-48.44"/>
<polygon fill="#63b8ff" stroke="#63b8ff" points="185.66,-55.8 196.01,-53.55 186.51,-48.86 185.66,-55.8"/>
</g>
<!-- Node5&#45;&gt;Node4 -->
<g id="edge5" class="edge">
<title>Node5&#45;&gt;Node4</title>
<path fill="none" stroke="#63b8ff" d="M179.75,-26.57C171.52,-27.58 163.26,-28.6 155.2,-29.58"/>
<polygon fill="#63b8ff" stroke="#63b8ff" points="180.02,-29.94 189.52,-25.25 179.17,-22.99 180.02,-29.94"/>
</g>
</g>
</svg>
