<?xml version="1.0" encoding="UTF-8" standalone="no"?>
<!DOCTYPE svg PUBLIC "-//W3C//DTD SVG 1.1//EN"
 "http://www.w3.org/Graphics/SVG/1.1/DTD/svg11.dtd">
<!-- Generated by graphviz version 8.0.3 (20230416.2022)
 -->
<!-- Title: dev.filechampion.filechampion4j.CliPluginHelper.CliPluginHelper Pages: 1 -->
<svg width="386pt" height="230pt"
 viewBox="0.00 0.00 386.00 230.00" xmlns="http://www.w3.org/2000/svg" xmlns:xlink="http://www.w3.org/1999/xlink">
<g id="graph0" class="graph" transform="scale(1 1) rotate(0) translate(4 226)">
<title>dev.filechampion.filechampion4j.CliPluginHelper.CliPluginHelper</title>
<!-- Node1 -->
<g id="node1" class="node">
<title>Node1</title>
<g id="a_node1"><a xlink:title=" ">
<polygon fill="#999999" stroke="#666666" points="155,-126 0,-126 0,-96 155,-96 155,-126"/>
<text text-anchor="start" x="8" y="-114" font-family="Helvetica,sans-Serif" font-size="10.00">dev.filechampion.filechampion4j.</text>
<text text-anchor="middle" x="77.5" y="-103" font-family="Helvetica,sans-Serif" font-size="10.00">CliPluginHelper.CliPluginHelper</text>
</a>
</g>
</g>
<!-- Node2 -->
<g id="node2" class="node">
<title>Node2</title>
<g id="a_node2"><a xlink:href="$classdev_1_1filechampion_1_1filechampion4j_1_1_plugins_helper_1_1_step_config.html#ad4f6f94505f67126dab810e2ba3c05cb" xlink:title=" ">
<polygon fill="white" stroke="#666666" points="375.5,-222 193.5,-222 193.5,-192 375.5,-192 375.5,-222"/>
<text text-anchor="start" x="201.5" y="-210" font-family="Helvetica,sans-Serif" font-size="10.00">dev.filechampion.filechampion4j.</text>
<text text-anchor="middle" x="284.5" y="-199" font-family="Helvetica,sans-Serif" font-size="10.00">PluginsHelper.StepConfig.getEndpoint</text>
</a>
</g>
</g>
<!-- Node1&#45;&gt;Node2 -->
<g id="edge1" class="edge">
<title>Node1&#45;&gt;Node2</title>
<path fill="none" stroke="#63b8ff" d="M98.14,-126.32C119.78,-142.52 156.15,-167.79 191,-183 195.11,-184.79 199.37,-186.47 203.73,-188.05"/>
<polygon fill="#63b8ff" stroke="#63b8ff" points="202.4,-191.63 212.99,-191.52 204.64,-185 202.4,-191.63"/>
</g>
<!-- Node3 -->
<g id="node3" class="node">
<title>Node3</title>
<g id="a_node3"><a xlink:href="$classdev_1_1filechampion_1_1filechampion4j_1_1_plugins_helper_1_1_step_config.html#a4b6553bde319aaba0681dabe11c89250" xlink:title=" ">
<polygon fill="white" stroke="#666666" points="369,-174 200,-174 200,-144 369,-144 369,-174"/>
<text text-anchor="start" x="208" y="-162" font-family="Helvetica,sans-Serif" font-size="10.00">dev.filechampion.filechampion4j.</text>
<text text-anchor="middle" x="284.5" y="-151" font-family="Helvetica,sans-Serif" font-size="10.00">PluginsHelper.StepConfig.getName</text>
</a>
</g>
</g>
<!-- Node1&#45;&gt;Node3 -->
<g id="edge2" class="edge">
<title>Node1&#45;&gt;Node3</title>
<path fill="none" stroke="#63b8ff" d="M144.49,-126.45C164.43,-131.12 186.48,-136.28 207.04,-141.1"/>
<polygon fill="#63b8ff" stroke="#63b8ff" points="206.1,-144.71 216.63,-143.58 207.69,-137.89 206.1,-144.71"/>
</g>
<!-- Node4 -->
<g id="node4" class="node">
<title>Node4</title>
<g id="a_node4"><a xlink:href="$classdev_1_1filechampion_1_1filechampion4j_1_1_plugins_helper_1_1_step_config.html#af4f92b35586d5cb891c3640476adba4b" xlink:title=" ">
<polygon fill="white" stroke="#666666" points="378,-126 191,-126 191,-96 378,-96 378,-126"/>
<text text-anchor="start" x="199" y="-114" font-family="Helvetica,sans-Serif" font-size="10.00">dev.filechampion.filechampion4j.</text>
<text text-anchor="middle" x="284.5" y="-103" font-family="Helvetica,sans-Serif" font-size="10.00">PluginsHelper.StepConfig.getResponse</text>
</a>
</g>
</g>
<!-- Node1&#45;&gt;Node4 -->
<g id="edge3" class="edge">
<title>Node1&#45;&gt;Node4</title>
<path fill="none" stroke="#63b8ff" d="M155.42,-111C163.4,-111 171.6,-111 179.81,-111"/>
<polygon fill="#63b8ff" stroke="#63b8ff" points="179.59,-114.5 189.59,-111 179.59,-107.5 179.59,-114.5"/>
</g>
<!-- Node5 -->
<g id="node5" class="node">
<title>Node5</title>
<g id="a_node5"><a xlink:href="$classdev_1_1filechampion_1_1filechampion4j_1_1_plugins_helper_1_1_step_config.html#a5476415c924ea763ed197ff14b26db1b" xlink:title=" ">
<polygon fill="white" stroke="#666666" points="373.5,-78 195.5,-78 195.5,-48 373.5,-48 373.5,-78"/>
<text text-anchor="start" x="203.5" y="-66" font-family="Helvetica,sans-Serif" font-size="10.00">dev.filechampion.filechampion4j.</text>
<text text-anchor="middle" x="284.5" y="-55" font-family="Helvetica,sans-Serif" font-size="10.00">PluginsHelper.StepConfig.getTimeout</text>
</a>
</g>
</g>
<!-- Node1&#45;&gt;Node5 -->
<g id="edge4" class="edge">
<title>Node1&#45;&gt;Node5</title>
<path fill="none" stroke="#63b8ff" d="M144.49,-95.55C164.43,-90.88 186.48,-85.72 207.04,-80.9"/>
<polygon fill="#63b8ff" stroke="#63b8ff" points="207.69,-84.11 216.63,-78.42 206.1,-77.29 207.69,-84.11"/>
</g>
<!-- Node6 -->
<g id="node6" class="node">
<title>Node6</title>
<g id="a_node6"><a xlink:href="$classdev_1_1filechampion_1_1filechampion4j_1_1_cli_plugin_helper.html#a5a26b6d864c66cbed7bf7596f8c09e57" xlink:title=" ">
<polygon fill="white" stroke="#666666" points="362,-30 207,-30 207,0 362,0 362,-30"/>
<text text-anchor="start" x="215" y="-18" font-family="Helvetica,sans-Serif" font-size="10.00">dev.filechampion.filechampion4j.</text>
<text text-anchor="middle" x="284.5" y="-7" font-family="Helvetica,sans-Serif" font-size="10.00">CliPluginHelper.logFine</text>
</a>
</g>
</g>
<!-- Node1&#45;&gt;Node6 -->
<g id="edge5" class="edge">
<title>Node1&#45;&gt;Node6</title>
<path fill="none" stroke="#63b8ff" d="M98.14,-95.68C119.78,-79.48 156.15,-54.21 191,-39 195.11,-37.21 199.37,-35.53 203.73,-33.95"/>
<polygon fill="#63b8ff" stroke="#63b8ff" points="204.64,-37 212.99,-30.48 202.4,-30.37 204.64,-37"/>
</g>
</g>
</svg>
