<?xml version="1.0" encoding="UTF-8" standalone="no"?>
<!DOCTYPE svg PUBLIC "-//W3C//DTD SVG 1.1//EN"
 "http://www.w3.org/Graphics/SVG/1.1/DTD/svg11.dtd">
<!-- Generated by graphviz version 8.0.3 (20230416.2022)
 -->
<!-- Title: dev.filechampion.filechampion4j.FileAclHelper.setNewPermissionsUnix Pages: 1 -->
<svg width="1161pt" height="38pt"
 viewBox="0.00 0.00 1161.00 38.00" xmlns="http://www.w3.org/2000/svg" xmlns:xlink="http://www.w3.org/1999/xlink">
<g id="graph0" class="graph" transform="scale(1 1) rotate(0) translate(4 34)">
<title>dev.filechampion.filechampion4j.FileAclHelper.setNewPermissionsUnix</title>
<!-- Node1 -->
<g id="node1" class="node">
<title>Node1</title>
<g id="a_node1"><a xlink:title=" ">
<polygon fill="#999999" stroke="#666666" points="1153,-30 970,-30 970,0 1153,0 1153,-30"/>
<text text-anchor="start" x="978" y="-18" font-family="Helvetica,sans-Serif" font-size="10.00">dev.filechampion.filechampion4j.</text>
<text text-anchor="middle" x="1061.5" y="-7" font-family="Helvetica,sans-Serif" font-size="10.00">FileAclHelper.setNewPermissionsUnix</text>
</a>
</g>
</g>
<!-- Node2 -->
<g id="node2" class="node">
<title>Node2</title>
<g id="a_node2"><a xlink:href="$classdev_1_1filechampion_1_1filechampion4j_1_1_file_acl_helper.html#a00c73219098ca931f6dbfba1f45555ae" xlink:title=" ">
<polygon fill="white" stroke="#666666" points="934,-30 770,-30 770,0 934,0 934,-30"/>
<text text-anchor="start" x="778" y="-18" font-family="Helvetica,sans-Serif" font-size="10.00">dev.filechampion.filechampion4j.</text>
<text text-anchor="middle" x="852" y="-7" font-family="Helvetica,sans-Serif" font-size="10.00">FileAclHelper.setNewPermissions</text>
</a>
</g>
</g>
<!-- Node1&#45;&gt;Node2 -->
<g id="edge1" class="edge">
<title>Node1&#45;&gt;Node2</title>
<path fill="none" stroke="#63b8ff" d="M958.98,-15C950.73,-15 942.47,-15 934.39,-15"/>
<polygon fill="#63b8ff" stroke="#63b8ff" points="958.79,-18.5 968.79,-15 958.79,-11.5 958.79,-18.5"/>
</g>
<!-- Node3 -->
<g id="node3" class="node">
<title>Node3</title>
<g id="a_node3"><a xlink:href="$classdev_1_1filechampion_1_1filechampion4j_1_1_file_acl_helper.html#ad658260458dfa78c890ca27b06c3e4fa" xlink:title=" ">
<polygon fill="white" stroke="#666666" points="734,-30 579,-30 579,0 734,0 734,-30"/>
<text text-anchor="start" x="587" y="-18" font-family="Helvetica,sans-Serif" font-size="10.00">dev.filechampion.filechampion4j.</text>
<text text-anchor="middle" x="656.5" y="-7" font-family="Helvetica,sans-Serif" font-size="10.00">FileAclHelper.changeFileAcl</text>
</a>
</g>
</g>
<!-- Node2&#45;&gt;Node3 -->
<g id="edge2" class="edge">
<title>Node2&#45;&gt;Node3</title>
<path fill="none" stroke="#63b8ff" d="M759.03,-15C750.82,-15 742.56,-15 734.49,-15"/>
<polygon fill="#63b8ff" stroke="#63b8ff" points="758.78,-18.5 768.78,-15 758.78,-11.5 758.78,-18.5"/>
</g>
<!-- Node4 -->
<g id="node4" class="node">
<title>Node4</title>
<g id="a_node4"><a xlink:href="$classdev_1_1filechampion_1_1filechampion4j_1_1_file_validator.html#ab484409fe2d3ceb7a0f384c0c90665d2" xlink:title=" ">
<polygon fill="white" stroke="#666666" points="543,-30 382,-30 382,0 543,0 543,-30"/>
<text text-anchor="start" x="390" y="-18" font-family="Helvetica,sans-Serif" font-size="10.00">dev.filechampion.filechampion4j.</text>
<text text-anchor="middle" x="462.5" y="-7" font-family="Helvetica,sans-Serif" font-size="10.00">FileValidator.saveFileToOutputDir</text>
</a>
</g>
</g>
<!-- Node3&#45;&gt;Node4 -->
<g id="edge3" class="edge">
<title>Node3&#45;&gt;Node4</title>
<path fill="none" stroke="#63b8ff" d="M567.56,-15C559.49,-15 551.33,-15 543.33,-15"/>
<polygon fill="#63b8ff" stroke="#63b8ff" points="567.51,-18.5 577.51,-15 567.51,-11.5 567.51,-18.5"/>
</g>
<!-- Node5 -->
<g id="node5" class="node">
<title>Node5</title>
<g id="a_node5"><a xlink:href="$classdev_1_1filechampion_1_1filechampion4j_1_1_file_validator.html#aaeb2a194d8491d3f240893cf076098e0" xlink:title=" ">
<polygon fill="white" stroke="#666666" points="346,-30 191,-30 191,0 346,0 346,-30"/>
<text text-anchor="start" x="199" y="-18" font-family="Helvetica,sans-Serif" font-size="10.00">dev.filechampion.filechampion4j.</text>
<text text-anchor="middle" x="268.5" y="-7" font-family="Helvetica,sans-Serif" font-size="10.00">FileValidator.doValidations</text>
</a>
</g>
</g>
<!-- Node4&#45;&gt;Node5 -->
<g id="edge4" class="edge">
<title>Node4&#45;&gt;Node5</title>
<path fill="none" stroke="#63b8ff" d="M370.93,-15C362.67,-15 354.36,-15 346.23,-15"/>
<polygon fill="#63b8ff" stroke="#63b8ff" points="370.74,-18.5 380.74,-15 370.74,-11.5 370.74,-18.5"/>
</g>
<!-- Node6 -->
<g id="node6" class="node">
<title>Node6</title>
<g id="a_node6"><a xlink:href="$classdev_1_1filechampion_1_1filechampion4j_1_1_file_validator.html#a0c42ecd30b213d35bf114d84e7b40f9f" xlink:title=" ">
<polygon fill="white" stroke="#666666" points="155,-30 0,-30 0,0 155,0 155,-30"/>
<text text-anchor="start" x="8" y="-18" font-family="Helvetica,sans-Serif" font-size="10.00">dev.filechampion.filechampion4j.</text>
<text text-anchor="middle" x="77.5" y="-7" font-family="Helvetica,sans-Serif" font-size="10.00">FileValidator.validateFile</text>
</a>
</g>
</g>
<!-- Node5&#45;&gt;Node6 -->
<g id="edge5" class="edge">
<title>Node5&#45;&gt;Node6</title>
<path fill="none" stroke="#63b8ff" d="M179.89,-15C171.68,-15 163.41,-15 155.31,-15"/>
<polygon fill="#63b8ff" stroke="#63b8ff" points="179.63,-18.5 189.63,-15 179.63,-11.5 179.63,-18.5"/>
</g>
</g>
</svg>
