<?xml version="1.0" encoding="UTF-8" standalone="no"?>
<!DOCTYPE svg PUBLIC "-//W3C//DTD SVG 1.1//EN"
 "http://www.w3.org/Graphics/SVG/1.1/DTD/svg11.dtd">
<!-- Generated by graphviz version 8.0.3 (20230416.2022)
 -->
<!-- Title: dev.filechampion.filechampion4j.FileAclHelper.logSevere Pages: 1 -->
<svg width="1372pt" height="174pt"
 viewBox="0.00 0.00 1372.00 174.00" xmlns="http://www.w3.org/2000/svg" xmlns:xlink="http://www.w3.org/1999/xlink">
<g id="graph0" class="graph" transform="scale(1 1) rotate(0) translate(4 170)">
<title>dev.filechampion.filechampion4j.FileAclHelper.logSevere</title>
<!-- Node1 -->
<g id="node1" class="node">
<title>Node1</title>
<g id="a_node1"><a xlink:title=" ">
<polygon fill="#999999" stroke="#666666" points="1364,-99 1209,-99 1209,-69 1364,-69 1364,-99"/>
<text text-anchor="start" x="1217" y="-87" font-family="Helvetica,sans-Serif" font-size="10.00">dev.filechampion.filechampion4j.</text>
<text text-anchor="middle" x="1286.5" y="-76" font-family="Helvetica,sans-Serif" font-size="10.00">FileAclHelper.logSevere</text>
</a>
</g>
</g>
<!-- Node2 -->
<g id="node2" class="node">
<title>Node2</title>
<g id="a_node2"><a xlink:href="$classdev_1_1filechampion_1_1filechampion4j_1_1_file_acl_helper.html#ac1fb96739e62ad91d1f833908dc99442" xlink:title=" ">
<polygon fill="white" stroke="#666666" points="929.5,-166 774.5,-166 774.5,-136 929.5,-136 929.5,-166"/>
<text text-anchor="start" x="782.5" y="-154" font-family="Helvetica,sans-Serif" font-size="10.00">dev.filechampion.filechampion4j.</text>
<text text-anchor="middle" x="852" y="-143" font-family="Helvetica,sans-Serif" font-size="10.00">FileAclHelper.getUserPrinciple</text>
</a>
</g>
</g>
<!-- Node1&#45;&gt;Node2 -->
<g id="edge1" class="edge">
<title>Node1&#45;&gt;Node2</title>
<path fill="none" stroke="#63b8ff" d="M1202.57,-101.59C1192.63,-103.51 1182.6,-105.36 1173,-107 1090.22,-121.14 994.79,-133.79 929.83,-141.86"/>
<polygon fill="#63b8ff" stroke="#63b8ff" points="1203.17,-104.84 1212.31,-99.48 1201.82,-97.97 1203.17,-104.84"/>
</g>
<!-- Node7 -->
<g id="node7" class="node">
<title>Node7</title>
<g id="a_node7"><a xlink:href="$classdev_1_1filechampion_1_1filechampion4j_1_1_file_acl_helper.html#a89a35f8379b106dcf38650384560ce9f" xlink:title=" ">
<polygon fill="white" stroke="#666666" points="929.5,-118 774.5,-118 774.5,-88 929.5,-88 929.5,-118"/>
<text text-anchor="start" x="782.5" y="-106" font-family="Helvetica,sans-Serif" font-size="10.00">dev.filechampion.filechampion4j.</text>
<text text-anchor="middle" x="852" y="-95" font-family="Helvetica,sans-Serif" font-size="10.00">FileAclHelper.setNewOwner</text>
</a>
</g>
</g>
<!-- Node1&#45;&gt;Node7 -->
<g id="edge6" class="edge">
<title>Node1&#45;&gt;Node7</title>
<path fill="none" stroke="#63b8ff" d="M1197.83,-87.85C1119.19,-91.31 1004.95,-96.32 929.84,-99.62"/>
<polygon fill="#63b8ff" stroke="#63b8ff" points="1197.84,-91.31 1207.68,-87.37 1197.53,-84.32 1197.84,-91.31"/>
</g>
<!-- Node8 -->
<g id="node8" class="node">
<title>Node8</title>
<g id="a_node8"><a xlink:href="$classdev_1_1filechampion_1_1filechampion4j_1_1_file_acl_helper.html#a957cd8f062521037c11e5d15d3785906" xlink:title=" ">
<polygon fill="white" stroke="#666666" points="1163,-78 980,-78 980,-48 1163,-48 1163,-78"/>
<text text-anchor="start" x="988" y="-66" font-family="Helvetica,sans-Serif" font-size="10.00">dev.filechampion.filechampion4j.</text>
<text text-anchor="middle" x="1071.5" y="-55" font-family="Helvetica,sans-Serif" font-size="10.00">FileAclHelper.setNewPermissionsUnix</text>
</a>
</g>
</g>
<!-- Node1&#45;&gt;Node8 -->
<g id="edge8" class="edge">
<title>Node1&#45;&gt;Node8</title>
<path fill="none" stroke="#63b8ff" d="M1197.83,-75.36C1186.48,-74.24 1174.83,-73.09 1163.43,-71.96"/>
<polygon fill="#63b8ff" stroke="#63b8ff" points="1197.31,-78.92 1207.6,-76.42 1197.99,-71.95 1197.31,-78.92"/>
</g>
<!-- Node10 -->
<g id="node10" class="node">
<title>Node10</title>
<g id="a_node10"><a xlink:href="$classdev_1_1filechampion_1_1filechampion4j_1_1_file_acl_helper.html#a5c4d050d4ddf432b45ffe49b48b20735" xlink:title=" ">
<polygon fill="white" stroke="#666666" points="1173,-30 970,-30 970,0 1173,0 1173,-30"/>
<text text-anchor="start" x="978" y="-18" font-family="Helvetica,sans-Serif" font-size="10.00">dev.filechampion.filechampion4j.</text>
<text text-anchor="middle" x="1071.5" y="-7" font-family="Helvetica,sans-Serif" font-size="10.00">FileAclHelper.setNewPermissionsWindows</text>
</a>
</g>
</g>
<!-- Node1&#45;&gt;Node10 -->
<g id="edge11" class="edge">
<title>Node1&#45;&gt;Node10</title>
<path fill="none" stroke="#63b8ff" d="M1241.04,-64.47C1220.57,-55.94 1195.81,-46.24 1173,-39 1163.43,-35.96 1153.23,-33.1 1143.15,-30.49"/>
<polygon fill="#63b8ff" stroke="#63b8ff" points="1239.44,-68.02 1250.01,-68.68 1242.16,-61.57 1239.44,-68.02"/>
</g>
<!-- Node3 -->
<g id="node3" class="node">
<title>Node3</title>
<g id="a_node3"><a xlink:href="$classdev_1_1filechampion_1_1filechampion4j_1_1_file_acl_helper.html#ad658260458dfa78c890ca27b06c3e4fa" xlink:title=" ">
<polygon fill="white" stroke="#666666" points="734,-118 579,-118 579,-88 734,-88 734,-118"/>
<text text-anchor="start" x="587" y="-106" font-family="Helvetica,sans-Serif" font-size="10.00">dev.filechampion.filechampion4j.</text>
<text text-anchor="middle" x="656.5" y="-95" font-family="Helvetica,sans-Serif" font-size="10.00">FileAclHelper.changeFileAcl</text>
</a>
</g>
</g>
<!-- Node2&#45;&gt;Node3 -->
<g id="edge2" class="edge">
<title>Node2&#45;&gt;Node3</title>
<path fill="none" stroke="#63b8ff" d="M778.17,-132.93C758.91,-128.16 738.31,-123.05 719.67,-118.42"/>
<polygon fill="#63b8ff" stroke="#63b8ff" points="777.16,-136.54 787.71,-135.55 778.85,-129.74 777.16,-136.54"/>
</g>
<!-- Node4 -->
<g id="node4" class="node">
<title>Node4</title>
<g id="a_node4"><a xlink:href="$classdev_1_1filechampion_1_1filechampion4j_1_1_file_validator.html#ab484409fe2d3ceb7a0f384c0c90665d2" xlink:title=" ">
<polygon fill="white" stroke="#666666" points="543,-118 382,-118 382,-88 543,-88 543,-118"/>
<text text-anchor="start" x="390" y="-106" font-family="Helvetica,sans-Serif" font-size="10.00">dev.filechampion.filechampion4j.</text>
<text text-anchor="middle" x="462.5" y="-95" font-family="Helvetica,sans-Serif" font-size="10.00">FileValidator.saveFileToOutputDir</text>
</a>
</g>
</g>
<!-- Node3&#45;&gt;Node4 -->
<g id="edge3" class="edge">
<title>Node3&#45;&gt;Node4</title>
<path fill="none" stroke="#63b8ff" d="M567.56,-103C559.49,-103 551.33,-103 543.33,-103"/>
<polygon fill="#63b8ff" stroke="#63b8ff" points="567.51,-106.5 577.51,-103 567.51,-99.5 567.51,-106.5"/>
</g>
<!-- Node5 -->
<g id="node5" class="node">
<title>Node5</title>
<g id="a_node5"><a xlink:href="$classdev_1_1filechampion_1_1filechampion4j_1_1_file_validator.html#aaeb2a194d8491d3f240893cf076098e0" xlink:title=" ">
<polygon fill="white" stroke="#666666" points="346,-118 191,-118 191,-88 346,-88 346,-118"/>
<text text-anchor="start" x="199" y="-106" font-family="Helvetica,sans-Serif" font-size="10.00">dev.filechampion.filechampion4j.</text>
<text text-anchor="middle" x="268.5" y="-95" font-family="Helvetica,sans-Serif" font-size="10.00">FileValidator.doValidations</text>
</a>
</g>
</g>
<!-- Node4&#45;&gt;Node5 -->
<g id="edge4" class="edge">
<title>Node4&#45;&gt;Node5</title>
<path fill="none" stroke="#63b8ff" d="M370.93,-103C362.67,-103 354.36,-103 346.23,-103"/>
<polygon fill="#63b8ff" stroke="#63b8ff" points="370.74,-106.5 380.74,-103 370.74,-99.5 370.74,-106.5"/>
</g>
<!-- Node6 -->
<g id="node6" class="node">
<title>Node6</title>
<g id="a_node6"><a xlink:href="$classdev_1_1filechampion_1_1filechampion4j_1_1_file_validator.html#a0c42ecd30b213d35bf114d84e7b40f9f" xlink:title=" ">
<polygon fill="white" stroke="#666666" points="155,-118 0,-118 0,-88 155,-88 155,-118"/>
<text text-anchor="start" x="8" y="-106" font-family="Helvetica,sans-Serif" font-size="10.00">dev.filechampion.filechampion4j.</text>
<text text-anchor="middle" x="77.5" y="-95" font-family="Helvetica,sans-Serif" font-size="10.00">FileValidator.validateFile</text>
</a>
</g>
</g>
<!-- Node5&#45;&gt;Node6 -->
<g id="edge5" class="edge">
<title>Node5&#45;&gt;Node6</title>
<path fill="none" stroke="#63b8ff" d="M179.89,-103C171.68,-103 163.41,-103 155.31,-103"/>
<polygon fill="#63b8ff" stroke="#63b8ff" points="179.63,-106.5 189.63,-103 179.63,-99.5 179.63,-106.5"/>
</g>
<!-- Node7&#45;&gt;Node3 -->
<g id="edge7" class="edge">
<title>Node7&#45;&gt;Node3</title>
<path fill="none" stroke="#63b8ff" d="M763.42,-103C753.77,-103 743.99,-103 734.48,-103"/>
<polygon fill="#63b8ff" stroke="#63b8ff" points="763.25,-106.5 773.25,-103 763.25,-99.5 763.25,-106.5"/>
</g>
<!-- Node9 -->
<g id="node9" class="node">
<title>Node9</title>
<g id="a_node9"><a xlink:href="$classdev_1_1filechampion_1_1filechampion4j_1_1_file_acl_helper.html#a00c73219098ca931f6dbfba1f45555ae" xlink:title=" ">
<polygon fill="white" stroke="#666666" points="934,-70 770,-70 770,-40 934,-40 934,-70"/>
<text text-anchor="start" x="778" y="-58" font-family="Helvetica,sans-Serif" font-size="10.00">dev.filechampion.filechampion4j.</text>
<text text-anchor="middle" x="852" y="-47" font-family="Helvetica,sans-Serif" font-size="10.00">FileAclHelper.setNewPermissions</text>
</a>
</g>
</g>
<!-- Node8&#45;&gt;Node9 -->
<g id="edge9" class="edge">
<title>Node8&#45;&gt;Node9</title>
<path fill="none" stroke="#63b8ff" d="M968.55,-59.25C957.05,-58.83 945.45,-58.4 934.26,-57.99"/>
<polygon fill="#63b8ff" stroke="#63b8ff" points="968.4,-62.78 978.52,-59.65 968.66,-55.79 968.4,-62.78"/>
</g>
<!-- Node9&#45;&gt;Node3 -->
<g id="edge10" class="edge">
<title>Node9&#45;&gt;Node3</title>
<path fill="none" stroke="#63b8ff" d="M778.17,-73.07C758.91,-77.84 738.31,-82.95 719.67,-87.58"/>
<polygon fill="#63b8ff" stroke="#63b8ff" points="778.85,-76.26 787.71,-70.45 777.16,-69.46 778.85,-76.26"/>
</g>
<!-- Node10&#45;&gt;Node9 -->
<g id="edge12" class="edge">
<title>Node10&#45;&gt;Node9</title>
<path fill="none" stroke="#63b8ff" d="M975.9,-32.4C962.06,-34.94 947.91,-37.55 934.36,-40.04"/>
<polygon fill="#63b8ff" stroke="#63b8ff" points="976.21,-35.72 985.41,-30.47 974.94,-28.83 976.21,-35.72"/>
</g>
</g>
</svg>
