<?xml version="1.0" encoding="UTF-8" standalone="no"?>
<!DOCTYPE svg PUBLIC "-//W3C//DTD SVG 1.1//EN"
 "http://www.w3.org/Graphics/SVG/1.1/DTD/svg11.dtd">
<!-- Generated by graphviz version 8.0.3 (20230416.2022)
 -->
<!-- Title: dev.filechampion.filechampion4j.FileValidator.executeBeforePlugins Pages: 1 -->
<svg width="753pt" height="251pt"
 viewBox="0.00 0.00 753.00 251.00" xmlns="http://www.w3.org/2000/svg" xmlns:xlink="http://www.w3.org/1999/xlink">
<g id="graph0" class="graph" transform="scale(1 1) rotate(0) translate(4 247)">
<title>dev.filechampion.filechampion4j.FileValidator.executeBeforePlugins</title>
<!-- Node1 -->
<g id="node1" class="node">
<title>Node1</title>
<g id="a_node1"><a xlink:title=" ">
<polygon fill="#999999" stroke="#666666" points="168,-73 0,-73 0,-43 168,-43 168,-73"/>
<text text-anchor="start" x="8" y="-61" font-family="Helvetica,sans-Serif" font-size="10.00">dev.filechampion.filechampion4j.</text>
<text text-anchor="middle" x="84" y="-50" font-family="Helvetica,sans-Serif" font-size="10.00">FileValidator.executeBeforePlugins</text>
</a>
</g>
</g>
<!-- Node2 -->
<g id="node2" class="node">
<title>Node2</title>
<g id="a_node2"><a xlink:href="$classdev_1_1filechampion_1_1filechampion4j_1_1_file_validator.html#a00a7f2979f0321f1823ce815ecd20945" xlink:title=" ">
<polygon fill="white" stroke="#666666" points="359,-140 204,-140 204,-110 359,-110 359,-140"/>
<text text-anchor="start" x="212" y="-128" font-family="Helvetica,sans-Serif" font-size="10.00">dev.filechampion.filechampion4j.</text>
<text text-anchor="middle" x="281.5" y="-117" font-family="Helvetica,sans-Serif" font-size="10.00">FileValidator.executePlugin</text>
</a>
</g>
</g>
<!-- Node1&#45;&gt;Node2 -->
<g id="edge1" class="edge">
<title>Node1&#45;&gt;Node2</title>
<path fill="none" stroke="#63b8ff" d="M129.85,-73.37C158.19,-83.08 195.01,-95.7 225.16,-106.03"/>
<polygon fill="#63b8ff" stroke="#63b8ff" points="223.92,-109.65 234.52,-109.58 226.19,-103.03 223.92,-109.65"/>
</g>
<!-- Node7 -->
<g id="node7" class="node">
<title>Node7</title>
<g id="a_node7"><a xlink:href="$classdev_1_1filechampion_1_1filechampion4j_1_1_file_validator.html#a94cfea52d37b0b2b2e69ef72211feeb3" xlink:title=" ">
<polygon fill="white" stroke="#666666" points="552,-61 397,-61 397,-31 552,-31 552,-61"/>
<text text-anchor="start" x="405" y="-49" font-family="Helvetica,sans-Serif" font-size="10.00">dev.filechampion.filechampion4j.</text>
<text text-anchor="middle" x="474.5" y="-38" font-family="Helvetica,sans-Serif" font-size="10.00">FileValidator.logFine</text>
</a>
</g>
</g>
<!-- Node1&#45;&gt;Node7 -->
<g id="edge9" class="edge">
<title>Node1&#45;&gt;Node7</title>
<path fill="none" stroke="#63b8ff" d="M168.34,-55.43C232.44,-53.45 320.77,-50.72 385.91,-48.71"/>
<polygon fill="#63b8ff" stroke="#63b8ff" points="385.68,-52.18 395.56,-48.38 385.46,-45.19 385.68,-52.18"/>
</g>
<!-- Node8 -->
<g id="node8" class="node">
<title>Node8</title>
<g id="a_node8"><a xlink:href="$classdev_1_1filechampion_1_1filechampion4j_1_1_extension.html#a280bd1a1334d78e0a898524a2f8b000d" xlink:title=" ">
<polygon fill="white" stroke="#666666" points="359,-30 204,-30 204,0 359,0 359,-30"/>
<text text-anchor="start" x="212" y="-18" font-family="Helvetica,sans-Serif" font-size="10.00">dev.filechampion.filechampion4j.</text>
<text text-anchor="middle" x="281.5" y="-7" font-family="Helvetica,sans-Serif" font-size="10.00">Extension.getExtensionPlugins</text>
</a>
</g>
</g>
<!-- Node1&#45;&gt;Node8 -->
<g id="edge8" class="edge">
<title>Node1&#45;&gt;Node8</title>
<path fill="none" stroke="#63b8ff" d="M155.3,-42.54C169.66,-39.38 184.88,-36.03 199.58,-32.8"/>
<polygon fill="#63b8ff" stroke="#63b8ff" points="200.15,-36.04 209.16,-30.47 198.64,-29.2 200.15,-36.04"/>
</g>
<!-- Node3 -->
<g id="node3" class="node">
<title>Node3</title>
<g id="a_node3"><a xlink:href="$classdev_1_1filechampion_1_1filechampion4j_1_1_file_validator.html#afddde3a9748be9f0487a553d50a2d5c4" xlink:title=" ">
<polygon fill="white" stroke="#666666" points="554,-243 395,-243 395,-213 554,-213 554,-243"/>
<text text-anchor="start" x="403" y="-231" font-family="Helvetica,sans-Serif" font-size="10.00">dev.filechampion.filechampion4j.</text>
<text text-anchor="middle" x="474.5" y="-220" font-family="Helvetica,sans-Serif" font-size="10.00">FileValidator.calculateChecksum</text>
</a>
</g>
</g>
<!-- Node2&#45;&gt;Node3 -->
<g id="edge2" class="edge">
<title>Node2&#45;&gt;Node3</title>
<path fill="none" stroke="#63b8ff" d="M300.47,-140.35C321.78,-157.88 358.98,-186.4 395,-204 398.37,-205.65 401.87,-207.21 405.45,-208.68"/>
<polygon fill="#63b8ff" stroke="#63b8ff" points="404.08,-212.29 414.67,-212.62 406.59,-205.76 404.08,-212.29"/>
</g>
<!-- Node4 -->
<g id="node4" class="node">
<title>Node4</title>
<g id="a_node4"><a xlink:href="$classdev_1_1filechampion_1_1filechampion4j_1_1_file_validator.html#a8e5b65357971125d0d18f1ca1a303a82" xlink:title=" ">
<polygon fill="white" stroke="#666666" points="552,-195 397,-195 397,-165 552,-165 552,-195"/>
<text text-anchor="start" x="405" y="-183" font-family="Helvetica,sans-Serif" font-size="10.00">dev.filechampion.filechampion4j.</text>
<text text-anchor="middle" x="474.5" y="-172" font-family="Helvetica,sans-Serif" font-size="10.00">FileValidator.deleteTempDir</text>
</a>
</g>
</g>
<!-- Node2&#45;&gt;Node4 -->
<g id="edge3" class="edge">
<title>Node2&#45;&gt;Node4</title>
<path fill="none" stroke="#63b8ff" d="M336.21,-140.47C358.99,-147.03 385.72,-154.72 409.51,-161.57"/>
<polygon fill="#63b8ff" stroke="#63b8ff" points="408.28,-165.15 418.86,-164.55 410.22,-158.42 408.28,-165.15"/>
</g>
<!-- Node5 -->
<g id="node5" class="node">
<title>Node5</title>
<g id="a_node5"><a xlink:href="$classdev_1_1filechampion_1_1filechampion4j_1_1_file_validator.html#af46946cfe82bbc2234cf895bd8f4ef80" xlink:title=" ">
<polygon fill="white" stroke="#666666" points="745,-173 590,-173 590,-143 745,-143 745,-173"/>
<text text-anchor="start" x="598" y="-161" font-family="Helvetica,sans-Serif" font-size="10.00">dev.filechampion.filechampion4j.</text>
<text text-anchor="middle" x="667.5" y="-150" font-family="Helvetica,sans-Serif" font-size="10.00">FileValidator.logWarn</text>
</a>
</g>
</g>
<!-- Node2&#45;&gt;Node5 -->
<g id="edge7" class="edge">
<title>Node2&#45;&gt;Node5</title>
<path fill="none" stroke="#63b8ff" d="M359.29,-131.6C422.62,-137.04 512.51,-144.77 578.69,-150.45"/>
<polygon fill="#63b8ff" stroke="#63b8ff" points="578.26,-154.02 588.52,-151.38 578.86,-147.04 578.26,-154.02"/>
</g>
<!-- Node6 -->
<g id="node6" class="node">
<title>Node6</title>
<g id="a_node6"><a xlink:href="$classdev_1_1filechampion_1_1filechampion4j_1_1_file_validator.html#a74097ecc9c1bd3757a0287275631632f" xlink:title=" ">
<polygon fill="white" stroke="#666666" points="552,-109 397,-109 397,-79 552,-79 552,-109"/>
<text text-anchor="start" x="405" y="-97" font-family="Helvetica,sans-Serif" font-size="10.00">dev.filechampion.filechampion4j.</text>
<text text-anchor="middle" x="474.5" y="-86" font-family="Helvetica,sans-Serif" font-size="10.00">FileValidator.isBlank</text>
</a>
</g>
</g>
<!-- Node2&#45;&gt;Node6 -->
<g id="edge5" class="edge">
<title>Node2&#45;&gt;Node6</title>
<path fill="none" stroke="#63b8ff" d="M359.36,-112.53C368.13,-111.1 377.12,-109.64 386.01,-108.2"/>
<polygon fill="#63b8ff" stroke="#63b8ff" points="386.49,-111.51 395.8,-106.45 385.36,-104.6 386.49,-111.51"/>
</g>
<!-- Node2&#45;&gt;Node7 -->
<g id="edge6" class="edge">
<title>Node2&#45;&gt;Node7</title>
<path fill="none" stroke="#63b8ff" d="M310.61,-109.71C333.03,-97.9 365.47,-81.65 395,-70 399.45,-68.25 404.07,-66.54 408.76,-64.9"/>
<polygon fill="#63b8ff" stroke="#63b8ff" points="409.71,-67.94 418.06,-61.42 407.47,-61.3 409.71,-67.94"/>
</g>
<!-- Node4&#45;&gt;Node5 -->
<g id="edge4" class="edge">
<title>Node4&#45;&gt;Node5</title>
<path fill="none" stroke="#63b8ff" d="M552.36,-171.15C561.13,-170.14 570.12,-169.1 579.01,-168.08"/>
<polygon fill="#63b8ff" stroke="#63b8ff" points="579.26,-171.46 588.8,-166.84 578.46,-164.5 579.26,-171.46"/>
</g>
</g>
</svg>
