<?xml version="1.0" encoding="UTF-8" standalone="no"?>
<!DOCTYPE svg PUBLIC "-//W3C//DTD SVG 1.1//EN"
 "http://www.w3.org/Graphics/SVG/1.1/DTD/svg11.dtd">
<!-- Generated by graphviz version 8.0.3 (20230416.2022)
 -->
<!-- Title: dev.filechampion.filechampion4j.ValidationsHelper.containsFooterSignatures Pages: 1 -->
<svg width="1199pt" height="38pt"
 viewBox="0.00 0.00 1199.00 38.00" xmlns="http://www.w3.org/2000/svg" xmlns:xlink="http://www.w3.org/1999/xlink">
<g id="graph0" class="graph" transform="scale(1 1) rotate(0) translate(4 34)">
<title>dev.filechampion.filechampion4j.ValidationsHelper.containsFooterSignatures</title>
<!-- Node1 -->
<g id="node1" class="node">
<title>Node1</title>
<g id="a_node1"><a xlink:title=" ">
<polygon fill="#999999" stroke="#666666" points="1191,-30 985,-30 985,0 1191,0 1191,-30"/>
<text text-anchor="start" x="993" y="-18" font-family="Helvetica,sans-Serif" font-size="10.00">dev.filechampion.filechampion4j.</text>
<text text-anchor="middle" x="1088" y="-7" font-family="Helvetica,sans-Serif" font-size="10.00">ValidationsHelper.containsFooterSignatures</text>
</a>
</g>
</g>
<!-- Node2 -->
<g id="node2" class="node">
<title>Node2</title>
<g id="a_node2"><a xlink:href="classdev_1_1filechampion_1_1filechampion4j_1_1_validations_helper.html#acf58dbbd1e656f17a402e2856c6c9279" target="_top" xlink:title=" ">
<polygon fill="white" stroke="#666666" points="949,-30 794,-30 794,0 949,0 949,-30"/>
<text text-anchor="start" x="802" y="-18" font-family="Helvetica,sans-Serif" font-size="10.00">dev.filechampion.filechampion4j.</text>
<text text-anchor="middle" x="871.5" y="-7" font-family="Helvetica,sans-Serif" font-size="10.00">ValidationsHelper.doValidations</text>
</a>
</g>
</g>
<!-- Node1&#45;&gt;Node2 -->
<g id="edge1" class="edge">
<title>Node1&#45;&gt;Node2</title>
<path fill="none" stroke="#63b8ff" d="M973.82,-15C965.5,-15 957.22,-15 949.19,-15"/>
<polygon fill="#63b8ff" stroke="#63b8ff" points="973.78,-18.5 983.78,-15 973.78,-11.5 973.78,-18.5"/>
</g>
<!-- Node3 -->
<g id="node3" class="node">
<title>Node3</title>
<g id="a_node3"><a xlink:href="classdev_1_1filechampion_1_1filechampion4j_1_1_validations_helper.html#a9722c4ec7eff7b6fc7b9747855770e10" target="_top" xlink:title=" ">
<polygon fill="white" stroke="#666666" points="758,-30 573,-30 573,0 758,0 758,-30"/>
<text text-anchor="start" x="581" y="-18" font-family="Helvetica,sans-Serif" font-size="10.00">dev.filechampion.filechampion4j.</text>
<text text-anchor="middle" x="665.5" y="-7" font-family="Helvetica,sans-Serif" font-size="10.00">ValidationsHelper.getValidationResults</text>
</a>
</g>
</g>
<!-- Node2&#45;&gt;Node3 -->
<g id="edge2" class="edge">
<title>Node2&#45;&gt;Node3</title>
<path fill="none" stroke="#63b8ff" d="M782.75,-15C774.68,-15 766.48,-15 758.37,-15"/>
<polygon fill="#63b8ff" stroke="#63b8ff" points="782.67,-18.5 792.67,-15 782.67,-11.5 782.67,-18.5"/>
</g>
<!-- Node4 -->
<g id="node4" class="node">
<title>Node4</title>
<g id="a_node4"><a xlink:href="classdev_1_1filechampion_1_1filechampion4j_1_1_file_validator.html#a48a54a63d062cd23af2d14a6af76899e" target="_top" xlink:title=" ">
<polygon fill="white" stroke="#666666" points="537,-30 382,-30 382,0 537,0 537,-30"/>
<text text-anchor="start" x="390" y="-18" font-family="Helvetica,sans-Serif" font-size="10.00">dev.filechampion.filechampion4j.</text>
<text text-anchor="middle" x="459.5" y="-7" font-family="Helvetica,sans-Serif" font-size="10.00">FileValidator.doValidations</text>
</a>
</g>
</g>
<!-- Node3&#45;&gt;Node4 -->
<g id="edge3" class="edge">
<title>Node3&#45;&gt;Node4</title>
<path fill="none" stroke="#63b8ff" d="M561.79,-15C553.51,-15 545.25,-15 537.21,-15"/>
<polygon fill="#63b8ff" stroke="#63b8ff" points="561.65,-18.5 571.65,-15 561.65,-11.5 561.65,-18.5"/>
</g>
<!-- Node5 -->
<g id="node5" class="node">
<title>Node5</title>
<g id="a_node5"><a xlink:href="classdev_1_1filechampion_1_1filechampion4j_1_1_file_validator.html#a2ac42f051e5724b165e5b0234a1e23f4" target="_top" xlink:title=" ">
<polygon fill="white" stroke="#666666" points="346,-30 191,-30 191,0 346,0 346,-30"/>
<text text-anchor="start" x="199" y="-18" font-family="Helvetica,sans-Serif" font-size="10.00">dev.filechampion.filechampion4j.</text>
<text text-anchor="middle" x="268.5" y="-7" font-family="Helvetica,sans-Serif" font-size="10.00">FileValidator.validateFileMain</text>
</a>
</g>
</g>
<!-- Node4&#45;&gt;Node5 -->
<g id="edge4" class="edge">
<title>Node4&#45;&gt;Node5</title>
<path fill="none" stroke="#63b8ff" d="M370.89,-15C362.68,-15 354.41,-15 346.31,-15"/>
<polygon fill="#63b8ff" stroke="#63b8ff" points="370.63,-18.5 380.63,-15 370.63,-11.5 370.63,-18.5"/>
</g>
<!-- Node6 -->
<g id="node6" class="node">
<title>Node6</title>
<g id="a_node6"><a xlink:href="classdev_1_1filechampion_1_1filechampion4j_1_1_file_validator.html#a492adb6357ac22bea8b79d036aa2a287" target="_top" xlink:title=" ">
<polygon fill="white" stroke="#666666" points="155,-30 0,-30 0,0 155,0 155,-30"/>
<text text-anchor="start" x="8" y="-18" font-family="Helvetica,sans-Serif" font-size="10.00">dev.filechampion.filechampion4j.</text>
<text text-anchor="middle" x="77.5" y="-7" font-family="Helvetica,sans-Serif" font-size="10.00">FileValidator.validateFile</text>
</a>
</g>
</g>
<!-- Node5&#45;&gt;Node6 -->
<g id="edge5" class="edge">
<title>Node5&#45;&gt;Node6</title>
<path fill="none" stroke="#63b8ff" d="M179.89,-15C171.68,-15 163.41,-15 155.31,-15"/>
<polygon fill="#63b8ff" stroke="#63b8ff" points="179.63,-18.5 189.63,-15 179.63,-11.5 179.63,-18.5"/>
</g>
</g>
</svg>
