<?xml version="1.0" encoding="UTF-8" standalone="no"?>
<!DOCTYPE svg PUBLIC "-//W3C//DTD SVG 1.1//EN"
 "http://www.w3.org/Graphics/SVG/1.1/DTD/svg11.dtd">
<!-- Generated by graphviz version 8.0.3 (20230416.2022)
 -->
<!-- Title: dev.filechampion.filechampion4j.Extensions.logFine Pages: 1 -->
<svg width="1627pt" height="622pt"
 viewBox="0.00 0.00 1627.00 622.17" xmlns="http://www.w3.org/2000/svg" xmlns:xlink="http://www.w3.org/1999/xlink">
<g id="graph0" class="graph" transform="scale(1 1) rotate(0) translate(4 618.17)">
<title>dev.filechampion.filechampion4j.Extensions.logFine</title>
<!-- Node1 -->
<g id="node1" class="node">
<title>Node1</title>
<g id="a_node1"><a xlink:title=" ">
<polygon fill="#999999" stroke="#666666" points="1619,-574.69 1464,-574.69 1464,-544.69 1619,-544.69 1619,-574.69"/>
<text text-anchor="start" x="1472" y="-562.69" font-family="Helvetica,sans-Serif" font-size="10.00">dev.filechampion.filechampion4j.</text>
<text text-anchor="middle" x="1541.5" y="-551.69" font-family="Helvetica,sans-Serif" font-size="10.00">Extensions.logFine</text>
</a>
</g>
</g>
<!-- Node2 -->
<g id="node2" class="node">
<title>Node2</title>
<g id="a_node2"><a xlink:href="classdev_1_1filechampion_1_1filechampion4j_1_1_extensions.html#ae95e2932f76f0acf941cb9fa093f6306" target="_top" xlink:title=" ">
<polygon fill="white" stroke="#666666" points="965,-577.69 810,-577.69 810,-547.69 965,-547.69 965,-577.69"/>
<text text-anchor="start" x="818" y="-565.69" font-family="Helvetica,sans-Serif" font-size="10.00">dev.filechampion.filechampion4j.</text>
<text text-anchor="middle" x="887.5" y="-554.69" font-family="Helvetica,sans-Serif" font-size="10.00">Extensions.Extensions</text>
</a>
</g>
</g>
<!-- Node1&#45;&gt;Node2 -->
<g id="edge1" class="edge">
<title>Node1&#45;&gt;Node2</title>
<path fill="none" stroke="#63b8ff" d="M1452.66,-558C1346.39,-556.27 1162.07,-554.27 1004,-557.69 991.46,-557.96 978.16,-558.4 965.21,-558.91"/>
<polygon fill="#63b8ff" stroke="#63b8ff" points="1452.58,-561.52 1462.64,-558.18 1452.7,-554.52 1452.58,-561.52"/>
</g>
<!-- Node3 -->
<g id="node3" class="node">
<title>Node3</title>
<g id="a_node3"><a xlink:href="classdev_1_1filechampion_1_1filechampion4j_1_1_extensions.html#ac3de7a6e3faa8e7f76d0d3705e02a42d" target="_top" xlink:title=" ">
<polygon fill="white" stroke="#666666" points="1416,-315.69 1261,-315.69 1261,-285.69 1416,-285.69 1416,-315.69"/>
<text text-anchor="start" x="1269" y="-303.69" font-family="Helvetica,sans-Serif" font-size="10.00">dev.filechampion.filechampion4j.</text>
<text text-anchor="middle" x="1338.5" y="-292.69" font-family="Helvetica,sans-Serif" font-size="10.00">Extensions.getValidationValue</text>
</a>
</g>
</g>
<!-- Node1&#45;&gt;Node3 -->
<g id="edge2" class="edge">
<title>Node1&#45;&gt;Node3</title>
<path fill="none" stroke="#63b8ff" d="M1521.81,-535.6C1481.03,-483.06 1385.06,-359.39 1351.41,-316.04"/>
<polygon fill="#63b8ff" stroke="#63b8ff" points="1519.63,-537.51 1528.53,-543.27 1525.16,-533.22 1519.63,-537.51"/>
</g>
<!-- Node18 -->
<g id="node18" class="node">
<title>Node18</title>
<g id="a_node18"><a xlink:href="classdev_1_1filechampion_1_1filechampion4j_1_1_extensions.html#ac7a42f1722ece112cb3249e20978956e" target="_top" xlink:title=" ">
<polygon fill="white" stroke="#666666" points="1199.5,-596.69 1017.5,-596.69 1017.5,-566.69 1199.5,-566.69 1199.5,-596.69"/>
<text text-anchor="start" x="1025.5" y="-584.69" font-family="Helvetica,sans-Serif" font-size="10.00">dev.filechampion.filechampion4j.</text>
<text text-anchor="middle" x="1108.5" y="-573.69" font-family="Helvetica,sans-Serif" font-size="10.00">Extensions.mapConfiguredExtensions</text>
</a>
</g>
</g>
<!-- Node1&#45;&gt;Node18 -->
<g id="edge28" class="edge">
<title>Node1&#45;&gt;Node18</title>
<path fill="none" stroke="#63b8ff" d="M1501.96,-579.81C1480.76,-589.74 1453.62,-600.66 1428,-605.69 1342.44,-622.51 1241.82,-609.61 1176.92,-597.16"/>
<polygon fill="#63b8ff" stroke="#63b8ff" points="1503.37,-582.53 1510.86,-575.04 1500.33,-576.22 1503.37,-582.53"/>
</g>
<!-- Node19 -->
<g id="node19" class="node">
<title>Node19</title>
<g id="a_node19"><a xlink:href="classdev_1_1filechampion_1_1filechampion4j_1_1_extensions.html#ac905bd4c26533f81b804c16a2b7cf1df" target="_top" xlink:title=" ">
<polygon fill="white" stroke="#666666" points="1428,-596.69 1249,-596.69 1249,-566.69 1428,-566.69 1428,-596.69"/>
<text text-anchor="start" x="1257" y="-584.69" font-family="Helvetica,sans-Serif" font-size="10.00">dev.filechampion.filechampion4j.</text>
<text text-anchor="middle" x="1338.5" y="-573.69" font-family="Helvetica,sans-Serif" font-size="10.00">Extensions.mapExtensionValidations</text>
</a>
</g>
</g>
<!-- Node1&#45;&gt;Node19 -->
<g id="edge30" class="edge">
<title>Node1&#45;&gt;Node19</title>
<path fill="none" stroke="#63b8ff" d="M1452.74,-569.3C1444.67,-570.18 1436.49,-571.08 1428.41,-571.96"/>
<polygon fill="#63b8ff" stroke="#63b8ff" points="1453.09,-572.67 1462.65,-568.1 1452.33,-565.71 1453.09,-572.67"/>
</g>
<!-- Node4 -->
<g id="node4" class="node">
<title>Node4</title>
<g id="a_node4"><a xlink:href="classdev_1_1filechampion_1_1filechampion4j_1_1_validations_helper.html#a4b5f515c54272fa1c4f177ef05c4fffe" target="_top" xlink:title=" ">
<polygon fill="white" stroke="#666666" points="1187,-272.69 1030,-272.69 1030,-242.69 1187,-242.69 1187,-272.69"/>
<text text-anchor="start" x="1038" y="-260.69" font-family="Helvetica,sans-Serif" font-size="10.00">dev.filechampion.filechampion4j.</text>
<text text-anchor="middle" x="1108.5" y="-249.69" font-family="Helvetica,sans-Serif" font-size="10.00">ValidationsHelper.checkFileSize</text>
</a>
</g>
</g>
<!-- Node3&#45;&gt;Node4 -->
<g id="edge3" class="edge">
<title>Node3&#45;&gt;Node4</title>
<path fill="none" stroke="#63b8ff" d="M1249.95,-284.18C1229.29,-280.28 1207.4,-276.16 1187.2,-272.35"/>
<polygon fill="#63b8ff" stroke="#63b8ff" points="1249.15,-287.78 1259.63,-286.19 1250.45,-280.9 1249.15,-287.78"/>
</g>
<!-- Node6 -->
<g id="node6" class="node">
<title>Node6</title>
<g id="a_node6"><a xlink:href="classdev_1_1filechampion_1_1filechampion4j_1_1_validations_helper.html#a9722c4ec7eff7b6fc7b9747855770e10" target="_top" xlink:title=" ">
<polygon fill="white" stroke="#666666" points="771,-310.69 586,-310.69 586,-280.69 771,-280.69 771,-310.69"/>
<text text-anchor="start" x="594" y="-298.69" font-family="Helvetica,sans-Serif" font-size="10.00">dev.filechampion.filechampion4j.</text>
<text text-anchor="middle" x="678.5" y="-287.69" font-family="Helvetica,sans-Serif" font-size="10.00">ValidationsHelper.getValidationResults</text>
</a>
</g>
</g>
<!-- Node3&#45;&gt;Node6 -->
<g id="edge24" class="edge">
<title>Node3&#45;&gt;Node6</title>
<path fill="none" stroke="#63b8ff" d="M1249.74,-300.03C1125.14,-299.08 898.08,-297.35 771.31,-296.39"/>
<polygon fill="#63b8ff" stroke="#63b8ff" points="1249.7,-303.53 1259.73,-300.11 1249.76,-296.53 1249.7,-303.53"/>
</g>
<!-- Node7 -->
<g id="node7" class="node">
<title>Node7</title>
<g id="a_node7"><a xlink:href="classdev_1_1filechampion_1_1filechampion4j_1_1_file_validator.html#a48a54a63d062cd23af2d14a6af76899e" target="_top" xlink:title=" ">
<polygon fill="white" stroke="#666666" points="543.5,-379.69 388.5,-379.69 388.5,-349.69 543.5,-349.69 543.5,-379.69"/>
<text text-anchor="start" x="396.5" y="-367.69" font-family="Helvetica,sans-Serif" font-size="10.00">dev.filechampion.filechampion4j.</text>
<text text-anchor="middle" x="466" y="-356.69" font-family="Helvetica,sans-Serif" font-size="10.00">FileValidator.doValidations</text>
</a>
</g>
</g>
<!-- Node3&#45;&gt;Node7 -->
<g id="edge17" class="edge">
<title>Node3&#45;&gt;Node7</title>
<path fill="none" stroke="#63b8ff" d="M1322.66,-324.95C1302.32,-355.6 1262.58,-406.87 1213,-427.69 961.05,-533.52 619.76,-423.02 505.82,-380.15"/>
<polygon fill="#63b8ff" stroke="#63b8ff" points="1326.09,-327.09 1328.57,-316.79 1320.21,-323.29 1326.09,-327.09"/>
</g>
<!-- Node8 -->
<g id="node8" class="node">
<title>Node8</title>
<g id="a_node8"><a xlink:href="classdev_1_1filechampion_1_1filechampion4j_1_1_file_validator.html#a2ac42f051e5724b165e5b0234a1e23f4" target="_top" xlink:title=" ">
<polygon fill="white" stroke="#666666" points="346,-379.69 191,-379.69 191,-349.69 346,-349.69 346,-379.69"/>
<text text-anchor="start" x="199" y="-367.69" font-family="Helvetica,sans-Serif" font-size="10.00">dev.filechampion.filechampion4j.</text>
<text text-anchor="middle" x="268.5" y="-356.69" font-family="Helvetica,sans-Serif" font-size="10.00">FileValidator.validateFileMain</text>
</a>
</g>
</g>
<!-- Node3&#45;&gt;Node8 -->
<g id="edge27" class="edge">
<title>Node3&#45;&gt;Node8</title>
<path fill="none" stroke="#63b8ff" d="M1333.72,-274.52C1324.37,-220.35 1294.65,-96.43 1213,-41.69 1093,38.76 1032.97,-22.69 888.5,-22.69 888.5,-22.69 888.5,-22.69 677.5,-22.69 470.93,-22.69 314.07,-283.37 277.57,-349.56"/>
<polygon fill="#63b8ff" stroke="#63b8ff" points="1330.41,-274.95 1335.47,-284.26 1337.32,-273.83 1330.41,-274.95"/>
</g>
<!-- Node10 -->
<g id="node10" class="node">
<title>Node10</title>
<g id="a_node10"><a xlink:href="classdev_1_1filechampion_1_1filechampion4j_1_1_validations_helper.html#a43b491bbdf4b6104d060386d4371753c" target="_top" xlink:title=" ">
<polygon fill="white" stroke="#666666" points="1192,-224.69 1025,-224.69 1025,-194.69 1192,-194.69 1192,-224.69"/>
<text text-anchor="start" x="1033" y="-212.69" font-family="Helvetica,sans-Serif" font-size="10.00">dev.filechampion.filechampion4j.</text>
<text text-anchor="middle" x="1108.5" y="-201.69" font-family="Helvetica,sans-Serif" font-size="10.00">ValidationsHelper.checkMimeType</text>
</a>
</g>
</g>
<!-- Node3&#45;&gt;Node10 -->
<g id="edge9" class="edge">
<title>Node3&#45;&gt;Node10</title>
<path fill="none" stroke="#63b8ff" d="M1304.43,-279.75C1279.98,-265.06 1245.44,-245.93 1213,-233.69 1204.54,-230.5 1195.53,-227.65 1186.49,-225.13"/>
<polygon fill="#63b8ff" stroke="#63b8ff" points="1302.25,-283.13 1312.61,-285.34 1305.89,-277.15 1302.25,-283.13"/>
</g>
<!-- Node11 -->
<g id="node11" class="node">
<title>Node11</title>
<g id="a_node11"><a xlink:href="classdev_1_1filechampion_1_1filechampion4j_1_1_validations_helper.html#a9c7f6f3159fef96d606ca0a6712b2165" target="_top" xlink:title=" ">
<polygon fill="white" stroke="#666666" points="1211.5,-176.69 1005.5,-176.69 1005.5,-146.69 1211.5,-146.69 1211.5,-176.69"/>
<text text-anchor="start" x="1013.5" y="-164.69" font-family="Helvetica,sans-Serif" font-size="10.00">dev.filechampion.filechampion4j.</text>
<text text-anchor="middle" x="1108.5" y="-153.69" font-family="Helvetica,sans-Serif" font-size="10.00">ValidationsHelper.containsFooterSignatures</text>
</a>
</g>
</g>
<!-- Node3&#45;&gt;Node11 -->
<g id="edge11" class="edge">
<title>Node3&#45;&gt;Node11</title>
<path fill="none" stroke="#63b8ff" d="M1318.61,-277.05C1296.23,-250.67 1256.46,-208.7 1213,-185.69 1206.8,-182.41 1200.17,-179.58 1193.36,-177.13"/>
<polygon fill="#63b8ff" stroke="#63b8ff" points="1316.43,-278.89 1325.51,-284.34 1321.81,-274.42 1316.43,-278.89"/>
</g>
<!-- Node12 -->
<g id="node12" class="node">
<title>Node12</title>
<g id="a_node12"><a xlink:href="classdev_1_1filechampion_1_1filechampion4j_1_1_validations_helper.html#aab316adeef5b3b9c80ef17bd05826582" target="_top" xlink:title=" ">
<polygon fill="white" stroke="#666666" points="1213,-128.69 1004,-128.69 1004,-98.69 1213,-98.69 1213,-128.69"/>
<text text-anchor="start" x="1012" y="-116.69" font-family="Helvetica,sans-Serif" font-size="10.00">dev.filechampion.filechampion4j.</text>
<text text-anchor="middle" x="1108.5" y="-105.69" font-family="Helvetica,sans-Serif" font-size="10.00">ValidationsHelper.containsHeaderSignatures</text>
</a>
</g>
</g>
<!-- Node3&#45;&gt;Node12 -->
<g id="edge13" class="edge">
<title>Node3&#45;&gt;Node12</title>
<path fill="none" stroke="#63b8ff" d="M1325.64,-275.91C1306.96,-239.64 1267.15,-172.64 1213,-137.69 1207.89,-134.39 1202.37,-131.54 1196.64,-129.08"/>
<polygon fill="#63b8ff" stroke="#63b8ff" points="1322.73,-276.91 1330.35,-284.27 1328.98,-273.76 1322.73,-276.91"/>
</g>
<!-- Node13 -->
<g id="node13" class="node">
<title>Node13</title>
<g id="a_node13"><a xlink:href="classdev_1_1filechampion_1_1filechampion4j_1_1_validations_helper.html#a480b1c09382ee05e547a68c7eed8e2ed" target="_top" xlink:title=" ">
<polygon fill="white" stroke="#666666" points="1200.5,-80.69 1016.5,-80.69 1016.5,-50.69 1200.5,-50.69 1200.5,-80.69"/>
<text text-anchor="start" x="1024.5" y="-68.69" font-family="Helvetica,sans-Serif" font-size="10.00">dev.filechampion.filechampion4j.</text>
<text text-anchor="middle" x="1108.5" y="-57.69" font-family="Helvetica,sans-Serif" font-size="10.00">ValidationsHelper.containsMagicBytes</text>
</a>
</g>
</g>
<!-- Node3&#45;&gt;Node13 -->
<g id="edge15" class="edge">
<title>Node3&#45;&gt;Node13</title>
<path fill="none" stroke="#63b8ff" d="M1329.81,-274.99C1314.96,-230.02 1277.98,-137.35 1213,-89.69 1208.54,-86.42 1203.7,-83.59 1198.64,-81.13"/>
<polygon fill="#63b8ff" stroke="#63b8ff" points="1326.73,-275.87 1333.11,-284.33 1333.4,-273.74 1326.73,-275.87"/>
</g>
<!-- Node14 -->
<g id="node14" class="node">
<title>Node14</title>
<g id="a_node14"><a xlink:href="classdev_1_1filechampion_1_1filechampion4j_1_1_file_validator.html#aac29042353654b8f6c3975ae885da151" target="_top" xlink:title=" ">
<polygon fill="white" stroke="#666666" points="968,-401.69 807,-401.69 807,-371.69 968,-371.69 968,-401.69"/>
<text text-anchor="start" x="815" y="-389.69" font-family="Helvetica,sans-Serif" font-size="10.00">dev.filechampion.filechampion4j.</text>
<text text-anchor="middle" x="887.5" y="-378.69" font-family="Helvetica,sans-Serif" font-size="10.00">FileValidator.executeAfterPlugins</text>
</a>
</g>
</g>
<!-- Node3&#45;&gt;Node14 -->
<g id="edge18" class="edge">
<title>Node3&#45;&gt;Node14</title>
<path fill="none" stroke="#63b8ff" d="M1318.94,-324.01C1296.87,-349.69 1257.38,-389.48 1213,-405.69 1121.7,-439.05 1006.35,-418.92 940.65,-402.17"/>
<polygon fill="#63b8ff" stroke="#63b8ff" points="1322,-326.81 1325.74,-316.9 1316.64,-322.32 1322,-326.81"/>
</g>
<!-- Node15 -->
<g id="node15" class="node">
<title>Node15</title>
<g id="a_node15"><a xlink:href="classdev_1_1filechampion_1_1filechampion4j_1_1_file_validator.html#aa9bf0e018f1c94b78ea2e8e3c12eafdd" target="_top" xlink:title=" ">
<polygon fill="white" stroke="#666666" points="1207,-396.69 1010,-396.69 1010,-366.69 1207,-366.69 1207,-396.69"/>
<text text-anchor="start" x="1018" y="-384.69" font-family="Helvetica,sans-Serif" font-size="10.00">dev.filechampion.filechampion4j.</text>
<text text-anchor="middle" x="1108.5" y="-373.69" font-family="Helvetica,sans-Serif" font-size="10.00">FileValidator.executeAfterPluginsProcess</text>
</a>
</g>
</g>
<!-- Node3&#45;&gt;Node15 -->
<g id="edge20" class="edge">
<title>Node3&#45;&gt;Node15</title>
<path fill="none" stroke="#63b8ff" d="M1293.54,-320.6C1269.93,-330.9 1240.18,-343.25 1213,-352.69 1199.07,-357.53 1183.89,-362.15 1169.54,-366.21"/>
<polygon fill="#63b8ff" stroke="#63b8ff" points="1294.84,-323.41 1302.59,-316.18 1292.03,-317.01 1294.84,-323.41"/>
</g>
<!-- Node16 -->
<g id="node16" class="node">
<title>Node16</title>
<g id="a_node16"><a xlink:href="classdev_1_1filechampion_1_1filechampion4j_1_1_file_validator.html#a617f3b8be7835bbb96df357a412d1bbf" target="_top" xlink:title=" ">
<polygon fill="white" stroke="#666666" points="550,-471.69 382,-471.69 382,-441.69 550,-441.69 550,-471.69"/>
<text text-anchor="start" x="390" y="-459.69" font-family="Helvetica,sans-Serif" font-size="10.00">dev.filechampion.filechampion4j.</text>
<text text-anchor="middle" x="466" y="-448.69" font-family="Helvetica,sans-Serif" font-size="10.00">FileValidator.executeBeforePlugins</text>
</a>
</g>
</g>
<!-- Node3&#45;&gt;Node16 -->
<g id="edge22" class="edge">
<title>Node3&#45;&gt;Node16</title>
<path fill="none" stroke="#63b8ff" d="M1326.67,-325.61C1308.97,-362.9 1270,-432.11 1213,-462.69 978.75,-588.37 640.58,-508.66 515.71,-472.12"/>
<polygon fill="#63b8ff" stroke="#63b8ff" points="1330.09,-327.54 1331.1,-316.99 1323.73,-324.61 1330.09,-327.54"/>
</g>
<!-- Node17 -->
<g id="node17" class="node">
<title>Node17</title>
<g id="a_node17"><a xlink:href="classdev_1_1filechampion_1_1filechampion4j_1_1_file_validator.html#a46f8dcb76a6e9b52838092b4c80b9d26" target="_top" xlink:title=" ">
<polygon fill="white" stroke="#666666" points="759,-358.69 598,-358.69 598,-328.69 759,-328.69 759,-358.69"/>
<text text-anchor="start" x="606" y="-346.69" font-family="Helvetica,sans-Serif" font-size="10.00">dev.filechampion.filechampion4j.</text>
<text text-anchor="middle" x="678.5" y="-335.69" font-family="Helvetica,sans-Serif" font-size="10.00">FileValidator.saveFileToOutputDir</text>
</a>
</g>
</g>
<!-- Node3&#45;&gt;Node17 -->
<g id="edge25" class="edge">
<title>Node3&#45;&gt;Node17</title>
<path fill="none" stroke="#63b8ff" d="M1249.73,-309.57C1237.41,-310.7 1224.89,-311.77 1213,-312.69 1052.05,-325.12 863.43,-334.98 759.1,-340.01"/>
<polygon fill="#63b8ff" stroke="#63b8ff" points="1249.87,-312.98 1259.5,-308.58 1249.22,-306.01 1249.87,-312.98"/>
</g>
<!-- Node5 -->
<g id="node5" class="node">
<title>Node5</title>
<g id="a_node5"><a xlink:href="classdev_1_1filechampion_1_1filechampion4j_1_1_validations_helper.html#acf58dbbd1e656f17a402e2856c6c9279" target="_top" xlink:title=" ">
<polygon fill="white" stroke="#666666" points="965,-200.69 810,-200.69 810,-170.69 965,-170.69 965,-200.69"/>
<text text-anchor="start" x="818" y="-188.69" font-family="Helvetica,sans-Serif" font-size="10.00">dev.filechampion.filechampion4j.</text>
<text text-anchor="middle" x="887.5" y="-177.69" font-family="Helvetica,sans-Serif" font-size="10.00">ValidationsHelper.doValidations</text>
</a>
</g>
</g>
<!-- Node4&#45;&gt;Node5 -->
<g id="edge4" class="edge">
<title>Node4&#45;&gt;Node5</title>
<path fill="none" stroke="#63b8ff" d="M1023.44,-239.45C1016.83,-237.63 1010.28,-235.71 1004,-233.69 975.47,-224.53 944.14,-211.29 921.31,-201.04"/>
<polygon fill="#63b8ff" stroke="#63b8ff" points="1022.3,-243.03 1032.86,-242.21 1024.09,-236.26 1022.3,-243.03"/>
</g>
<!-- Node5&#45;&gt;Node6 -->
<g id="edge5" class="edge">
<title>Node5&#45;&gt;Node6</title>
<path fill="none" stroke="#63b8ff" d="M848.19,-206.05C807.73,-227.55 744.85,-260.97 708.37,-280.35"/>
<polygon fill="#63b8ff" stroke="#63b8ff" points="849.53,-208.77 856.72,-200.99 846.24,-202.59 849.53,-208.77"/>
</g>
<!-- Node6&#45;&gt;Node7 -->
<g id="edge6" class="edge">
<title>Node6&#45;&gt;Node7</title>
<path fill="none" stroke="#63b8ff" d="M605.06,-313.94C598.59,-315.8 592.16,-317.73 586,-319.69 558.44,-328.49 527.92,-340.07 504.69,-349.28"/>
<polygon fill="#63b8ff" stroke="#63b8ff" points="605.55,-317.16 614.23,-311.09 603.66,-310.42 605.55,-317.16"/>
</g>
<!-- Node7&#45;&gt;Node8 -->
<g id="edge7" class="edge">
<title>Node7&#45;&gt;Node8</title>
<path fill="none" stroke="#63b8ff" d="M377.02,-364.69C366.81,-364.69 356.46,-364.69 346.42,-364.69"/>
<polygon fill="#63b8ff" stroke="#63b8ff" points="377.01,-368.19 387.01,-364.69 377.01,-361.19 377.01,-368.19"/>
</g>
<!-- Node9 -->
<g id="node9" class="node">
<title>Node9</title>
<g id="a_node9"><a xlink:href="classdev_1_1filechampion_1_1filechampion4j_1_1_file_validator.html#a492adb6357ac22bea8b79d036aa2a287" target="_top" xlink:title=" ">
<polygon fill="white" stroke="#666666" points="155,-379.69 0,-379.69 0,-349.69 155,-349.69 155,-379.69"/>
<text text-anchor="start" x="8" y="-367.69" font-family="Helvetica,sans-Serif" font-size="10.00">dev.filechampion.filechampion4j.</text>
<text text-anchor="middle" x="77.5" y="-356.69" font-family="Helvetica,sans-Serif" font-size="10.00">FileValidator.validateFile</text>
</a>
</g>
</g>
<!-- Node8&#45;&gt;Node9 -->
<g id="edge8" class="edge">
<title>Node8&#45;&gt;Node9</title>
<path fill="none" stroke="#63b8ff" d="M179.89,-364.69C171.68,-364.69 163.41,-364.69 155.31,-364.69"/>
<polygon fill="#63b8ff" stroke="#63b8ff" points="179.63,-368.19 189.63,-364.69 179.63,-361.19 179.63,-368.19"/>
</g>
<!-- Node10&#45;&gt;Node5 -->
<g id="edge10" class="edge">
<title>Node10&#45;&gt;Node5</title>
<path fill="none" stroke="#63b8ff" d="M1014.09,-199.46C997.81,-197.67 981.04,-195.83 965.28,-194.11"/>
<polygon fill="#63b8ff" stroke="#63b8ff" points="1013.38,-203.01 1023.71,-200.62 1014.15,-196.05 1013.38,-203.01"/>
</g>
<!-- Node11&#45;&gt;Node5 -->
<g id="edge12" class="edge">
<title>Node11&#45;&gt;Node5</title>
<path fill="none" stroke="#63b8ff" d="M994.39,-174.09C984.57,-175.16 974.78,-176.24 965.36,-177.27"/>
<polygon fill="#63b8ff" stroke="#63b8ff" points="994.49,-177.49 1004.05,-172.92 993.73,-170.53 994.49,-177.49"/>
</g>
<!-- Node12&#45;&gt;Node5 -->
<g id="edge14" class="edge">
<title>Node12&#45;&gt;Node5</title>
<path fill="none" stroke="#63b8ff" d="M1023.44,-131.94C1016.83,-133.75 1010.28,-135.67 1004,-137.69 975.47,-146.86 944.14,-160.09 921.31,-170.34"/>
<polygon fill="#63b8ff" stroke="#63b8ff" points="1024.09,-135.12 1032.86,-129.18 1022.3,-128.35 1024.09,-135.12"/>
</g>
<!-- Node13&#45;&gt;Node5 -->
<g id="edge16" class="edge">
<title>Node13&#45;&gt;Node5</title>
<path fill="none" stroke="#63b8ff" d="M1014.88,-84.83C1011.15,-86.33 1007.51,-87.95 1004,-89.69 962.19,-110.44 922.38,-149.11 902.21,-170.49"/>
<polygon fill="#63b8ff" stroke="#63b8ff" points="1015.75,-87.87 1023.91,-81.11 1013.31,-81.31 1015.75,-87.87"/>
</g>
<!-- Node14&#45;&gt;Node7 -->
<g id="edge19" class="edge">
<title>Node14&#45;&gt;Node7</title>
<path fill="none" stroke="#63b8ff" d="M795.74,-381.93C720.53,-377.99 614.82,-372.45 543.76,-368.72"/>
<polygon fill="#63b8ff" stroke="#63b8ff" points="795.44,-385.47 805.61,-382.5 795.8,-378.48 795.44,-385.47"/>
</g>
<!-- Node15&#45;&gt;Node14 -->
<g id="edge21" class="edge">
<title>Node15&#45;&gt;Node14</title>
<path fill="none" stroke="#63b8ff" d="M998.84,-384.17C988.56,-384.41 978.27,-384.64 968.34,-384.87"/>
<polygon fill="#63b8ff" stroke="#63b8ff" points="998.61,-387.66 1008.53,-383.93 998.45,-380.66 998.61,-387.66"/>
</g>
<!-- Node16&#45;&gt;Node8 -->
<g id="edge23" class="edge">
<title>Node16&#45;&gt;Node8</title>
<path fill="none" stroke="#63b8ff" d="M422.52,-436.7C386.43,-419.72 335.35,-395.68 302.33,-380.14"/>
<polygon fill="#63b8ff" stroke="#63b8ff" points="420.74,-440.2 431.28,-441.29 423.72,-433.87 420.74,-440.2"/>
</g>
<!-- Node17&#45;&gt;Node7 -->
<g id="edge26" class="edge">
<title>Node17&#45;&gt;Node7</title>
<path fill="none" stroke="#63b8ff" d="M586.74,-352.75C572.39,-354.18 557.68,-355.65 543.7,-357.04"/>
<polygon fill="#63b8ff" stroke="#63b8ff" points="587.02,-356.14 596.62,-351.66 586.32,-349.17 587.02,-356.14"/>
</g>
<!-- Node18&#45;&gt;Node2 -->
<g id="edge29" class="edge">
<title>Node18&#45;&gt;Node2</title>
<path fill="none" stroke="#63b8ff" d="M1006.2,-572.9C992.48,-571.71 978.57,-570.51 965.37,-569.36"/>
<polygon fill="#63b8ff" stroke="#63b8ff" points="1005.89,-576.48 1016.16,-573.86 1006.5,-569.5 1005.89,-576.48"/>
</g>
<!-- Node19&#45;&gt;Node18 -->
<g id="edge31" class="edge">
<title>Node19&#45;&gt;Node18</title>
<path fill="none" stroke="#63b8ff" d="M1237.73,-581.69C1225.16,-581.69 1212.35,-581.69 1199.94,-581.69"/>
<polygon fill="#63b8ff" stroke="#63b8ff" points="1237.7,-585.19 1247.7,-581.69 1237.7,-578.19 1237.7,-585.19"/>
</g>
</g>
</svg>
