<?xml version="1.0" encoding="UTF-8" standalone="no"?>
<!DOCTYPE svg PUBLIC "-//W3C//DTD SVG 1.1//EN"
 "http://www.w3.org/Graphics/SVG/1.1/DTD/svg11.dtd">
<!-- Generated by graphviz version 8.0.3 (20230416.2022)
 -->
<!-- Title: dev.filechampion.filechampion4j.FileValidatorLargeFilesBench.setUp Pages: 1 -->
<svg width="562pt" height="38pt"
 viewBox="0.00 0.00 562.00 38.00" xmlns="http://www.w3.org/2000/svg" xmlns:xlink="http://www.w3.org/1999/xlink">
<g id="graph0" class="graph" transform="scale(1 1) rotate(0) translate(4 34)">
<title>dev.filechampion.filechampion4j.FileValidatorLargeFilesBench.setUp</title>
<!-- Node1 -->
<g id="node1" class="node">
<title>Node1</title>
<g id="a_node1"><a xlink:title=" ">
<polygon fill="#999999" stroke="#666666" points="172,-30 0,-30 0,0 172,0 172,-30"/>
<text text-anchor="start" x="8" y="-18" font-family="Helvetica,sans-Serif" font-size="10.00">dev.filechampion.filechampion4j.</text>
<text text-anchor="middle" x="86" y="-7" font-family="Helvetica,sans-Serif" font-size="10.00">FileValidatorLargeFilesBench.setUp</text>
</a>
</g>
</g>
<!-- Node2 -->
<g id="node2" class="node">
<title>Node2</title>
<g id="a_node2"><a xlink:href="classdev_1_1filechampion_1_1filechampion4j_1_1_file_validator.html#a0c42ecd30b213d35bf114d84e7b40f9f" target="_top" xlink:title=" ">
<polygon fill="white" stroke="#666666" points="363,-30 208,-30 208,0 363,0 363,-30"/>
<text text-anchor="start" x="216" y="-18" font-family="Helvetica,sans-Serif" font-size="10.00">dev.filechampion.filechampion4j.</text>
<text text-anchor="middle" x="285.5" y="-7" font-family="Helvetica,sans-Serif" font-size="10.00">FileValidator.validateFile</text>
</a>
</g>
</g>
<!-- Node1&#45;&gt;Node2 -->
<g id="edge1" class="edge">
<title>Node1&#45;&gt;Node2</title>
<path fill="none" stroke="#63b8ff" d="M172.48,-15C180.51,-15 188.65,-15 196.7,-15"/>
<polygon fill="#63b8ff" stroke="#63b8ff" points="196.59,-18.5 206.59,-15 196.59,-11.5 196.59,-18.5"/>
</g>
<!-- Node3 -->
<g id="node3" class="node">
<title>Node3</title>
<g id="a_node3"><a xlink:href="classdev_1_1filechampion_1_1filechampion4j_1_1_extension.html#a280bd1a1334d78e0a898524a2f8b000d" target="_top" xlink:title=" ">
<polygon fill="white" stroke="#666666" points="554,-30 399,-30 399,0 554,0 554,-30"/>
<text text-anchor="start" x="407" y="-18" font-family="Helvetica,sans-Serif" font-size="10.00">dev.filechampion.filechampion4j.</text>
<text text-anchor="middle" x="476.5" y="-7" font-family="Helvetica,sans-Serif" font-size="10.00">Extension.getExtensionPlugins</text>
</a>
</g>
</g>
<!-- Node2&#45;&gt;Node3 -->
<g id="edge2" class="edge">
<title>Node2&#45;&gt;Node3</title>
<path fill="none" stroke="#63b8ff" d="M363.37,-15C371.47,-15 379.75,-15 387.96,-15"/>
<polygon fill="#63b8ff" stroke="#63b8ff" points="387.69,-18.5 397.69,-15 387.69,-11.5 387.69,-18.5"/>
</g>
</g>
</svg>
