<?xml version="1.0" encoding="UTF-8" standalone="no"?>
<!DOCTYPE svg PUBLIC "-//W3C//DTD SVG 1.1//EN"
 "http://www.w3.org/Graphics/SVG/1.1/DTD/svg11.dtd">
<!-- Generated by graphviz version 8.0.3 (20230416.2022)
 -->
<!-- Title: dev.filechampion.filechampion4j.FileValidator.FileValidator Pages: 1 -->
<svg width="821pt" height="866pt"
 viewBox="0.00 0.00 821.00 866.00" xmlns="http://www.w3.org/2000/svg" xmlns:xlink="http://www.w3.org/1999/xlink">
<g id="graph0" class="graph" transform="scale(1 1) rotate(0) translate(4 862)">
<title>dev.filechampion.filechampion4j.FileValidator.FileValidator</title>
<!-- Node1 -->
<g id="node1" class="node">
<title>Node1</title>
<g id="a_node1"><a xlink:title=" ">
<polygon fill="#999999" stroke="#666666" points="155,-455 0,-455 0,-425 155,-425 155,-455"/>
<text text-anchor="start" x="8" y="-443" font-family="Helvetica,sans-Serif" font-size="10.00">dev.filechampion.filechampion4j.</text>
<text text-anchor="middle" x="77.5" y="-432" font-family="Helvetica,sans-Serif" font-size="10.00">FileValidator.FileValidator</text>
</a>
</g>
</g>
<!-- Node2 -->
<g id="node2" class="node">
<title>Node2</title>
<g id="a_node2"><a xlink:href="classdev_1_1filechampion_1_1filechampion4j_1_1_file_validator.html#a62c4a7a9000c3144937697051081dce2" target="_top" xlink:title=" ">
<polygon fill="white" stroke="#666666" points="350,-498 191,-498 191,-468 350,-468 350,-498"/>
<text text-anchor="start" x="199" y="-486" font-family="Helvetica,sans-Serif" font-size="10.00">dev.filechampion.filechampion4j.</text>
<text text-anchor="middle" x="270.5" y="-475" font-family="Helvetica,sans-Serif" font-size="10.00">FileValidator.checkPluginsConfig</text>
</a>
</g>
</g>
<!-- Node1&#45;&gt;Node2 -->
<g id="edge1" class="edge">
<title>Node1&#45;&gt;Node2</title>
<path fill="none" stroke="#63b8ff" d="M147.19,-455.46C161.21,-458.62 176.08,-461.97 190.44,-465.2"/>
<polygon fill="#63b8ff" stroke="#63b8ff" points="189.26,-468.75 199.78,-467.53 190.8,-461.92 189.26,-468.75"/>
</g>
<!-- Node3 -->
<g id="node3" class="node">
<title>Node3</title>
<g id="a_node3"><a xlink:href="classdev_1_1filechampion_1_1filechampion4j_1_1_file_validator.html#af46946cfe82bbc2234cf895bd8f4ef80" target="_top" xlink:title=" ">
<polygon fill="white" stroke="#666666" points="554.5,-498 399.5,-498 399.5,-468 554.5,-468 554.5,-498"/>
<text text-anchor="start" x="407.5" y="-486" font-family="Helvetica,sans-Serif" font-size="10.00">dev.filechampion.filechampion4j.</text>
<text text-anchor="middle" x="477" y="-475" font-family="Helvetica,sans-Serif" font-size="10.00">FileValidator.logWarn</text>
</a>
</g>
</g>
<!-- Node1&#45;&gt;Node3 -->
<g id="edge25" class="edge">
<title>Node1&#45;&gt;Node3</title>
<path fill="none" stroke="#63b8ff" d="M155.39,-442.95C209.89,-445.64 284.63,-450.52 350,-459 363.64,-460.77 378.03,-463.08 392.02,-465.57"/>
<polygon fill="#63b8ff" stroke="#63b8ff" points="391.15,-469.15 401.61,-467.51 392.4,-462.27 391.15,-469.15"/>
</g>
<!-- Node4 -->
<g id="node4" class="node">
<title>Node4</title>
<g id="a_node4"><a xlink:href="classdev_1_1filechampion_1_1filechampion4j_1_1_file_validator.html#aaa8d5ebc07f168c5750e4ed575592a33" target="_top" xlink:title=" ">
<polygon fill="white" stroke="#666666" points="348,-407 193,-407 193,-377 348,-377 348,-407"/>
<text text-anchor="start" x="201" y="-395" font-family="Helvetica,sans-Serif" font-size="10.00">dev.filechampion.filechampion4j.</text>
<text text-anchor="middle" x="270.5" y="-384" font-family="Helvetica,sans-Serif" font-size="10.00">FileValidator.loadPlugins</text>
</a>
</g>
</g>
<!-- Node1&#45;&gt;Node4 -->
<g id="edge3" class="edge">
<title>Node1&#45;&gt;Node4</title>
<path fill="none" stroke="#63b8ff" d="M139.98,-424.55C158.3,-419.94 178.54,-414.86 197.47,-410.1"/>
<polygon fill="#63b8ff" stroke="#63b8ff" points="198.28,-413.25 207.13,-407.42 196.58,-406.47 198.28,-413.25"/>
</g>
<!-- Node2&#45;&gt;Node3 -->
<g id="edge2" class="edge">
<title>Node2&#45;&gt;Node3</title>
<path fill="none" stroke="#63b8ff" d="M350.27,-483C362.84,-483 375.91,-483 388.67,-483"/>
<polygon fill="#63b8ff" stroke="#63b8ff" points="388.29,-486.5 398.29,-483 388.29,-479.5 388.29,-486.5"/>
</g>
<!-- Node5 -->
<g id="node5" class="node">
<title>Node5</title>
<g id="a_node5"><a xlink:href="classdev_1_1filechampion_1_1filechampion4j_1_1_plugins_helper.html#a3c9eff65507c31c8b46a1cf0a2199b8d" target="_top" xlink:title=" ">
<polygon fill="white" stroke="#666666" points="554.5,-450 399.5,-450 399.5,-420 554.5,-420 554.5,-450"/>
<text text-anchor="start" x="407.5" y="-438" font-family="Helvetica,sans-Serif" font-size="10.00">dev.filechampion.filechampion4j.</text>
<text text-anchor="middle" x="477" y="-427" font-family="Helvetica,sans-Serif" font-size="10.00">PluginsHelper.getPluginConfigs</text>
</a>
</g>
</g>
<!-- Node4&#45;&gt;Node5 -->
<g id="edge4" class="edge">
<title>Node4&#45;&gt;Node5</title>
<path fill="none" stroke="#63b8ff" d="M345.04,-407.46C360.21,-410.65 376.29,-414.03 391.8,-417.29"/>
<polygon fill="#63b8ff" stroke="#63b8ff" points="390.92,-420.9 401.43,-419.53 392.36,-414.05 390.92,-420.9"/>
</g>
<!-- Node24 -->
<g id="node24" class="node">
<title>Node24</title>
<g id="a_node24"><a xlink:href="classdev_1_1filechampion_1_1filechampion4j_1_1_plugins_helper_1_1_step_config.html#a8dbfa1a6e66bfb5bfb6c56267adff512" target="_top" xlink:title=" ">
<polygon fill="white" stroke="#666666" points="564.5,-402 389.5,-402 389.5,-372 564.5,-372 564.5,-402"/>
<text text-anchor="start" x="397.5" y="-390" font-family="Helvetica,sans-Serif" font-size="10.00">dev.filechampion.filechampion4j.</text>
<text text-anchor="middle" x="477" y="-379" font-family="Helvetica,sans-Serif" font-size="10.00">PluginsHelper.StepConfig.isRunAfter</text>
</a>
</g>
</g>
<!-- Node4&#45;&gt;Node24 -->
<g id="edge23" class="edge">
<title>Node4&#45;&gt;Node24</title>
<path fill="none" stroke="#63b8ff" d="M348.23,-390.12C358.05,-389.88 368.21,-389.64 378.31,-389.39"/>
<polygon fill="#63b8ff" stroke="#63b8ff" points="378.31,-392.87 388.22,-389.12 378.14,-385.87 378.31,-392.87"/>
</g>
<!-- Node25 -->
<g id="node25" class="node">
<title>Node25</title>
<g id="a_node25"><a xlink:href="classdev_1_1filechampion_1_1filechampion4j_1_1_plugins_helper_1_1_step_config.html#a3b12813057481aa1767d859ac8360109" target="_top" xlink:title=" ">
<polygon fill="white" stroke="#666666" points="568,-354 386,-354 386,-324 568,-324 568,-354"/>
<text text-anchor="start" x="394" y="-342" font-family="Helvetica,sans-Serif" font-size="10.00">dev.filechampion.filechampion4j.</text>
<text text-anchor="middle" x="477" y="-331" font-family="Helvetica,sans-Serif" font-size="10.00">PluginsHelper.StepConfig.isRunBefore</text>
</a>
</g>
</g>
<!-- Node4&#45;&gt;Node25 -->
<g id="edge24" class="edge">
<title>Node4&#45;&gt;Node25</title>
<path fill="none" stroke="#63b8ff" d="M331.2,-376.53C354.51,-370.49 381.41,-363.51 405.66,-357.23"/>
<polygon fill="#63b8ff" stroke="#63b8ff" points="406.42,-360.39 415.23,-354.49 404.67,-353.61 406.42,-360.39"/>
</g>
<!-- Node6 -->
<g id="node6" class="node">
<title>Node6</title>
<g id="a_node6"><a xlink:href="classdev_1_1filechampion_1_1filechampion4j_1_1_plugins_helper_1_1_step_config.html#ab8380ddb3c9b1838f23cfd3f9f99a7a7" target="_top" xlink:title=" ">
<polygon fill="white" stroke="#666666" points="790.5,-858 626.5,-858 626.5,-828 790.5,-828 790.5,-858"/>
<text text-anchor="start" x="634.5" y="-846" font-family="Helvetica,sans-Serif" font-size="10.00">dev.filechampion.filechampion4j.</text>
<text text-anchor="middle" x="708.5" y="-835" font-family="Helvetica,sans-Serif" font-size="10.00">PluginsHelper.StepConfig.getType</text>
</a>
</g>
</g>
<!-- Node5&#45;&gt;Node6 -->
<g id="edge5" class="edge">
<title>Node5&#45;&gt;Node6</title>
<path fill="none" stroke="#63b8ff" d="M554.8,-447.89C559.74,-450.9 564.23,-454.57 568,-459 672.19,-581.47 497.81,-698.25 604,-819 607.71,-823.22 612.01,-826.78 616.69,-829.77"/>
<polygon fill="#63b8ff" stroke="#63b8ff" points="614.67,-833.19 625.13,-834.84 617.98,-827.02 614.67,-833.19"/>
</g>
<!-- Node7 -->
<g id="node7" class="node">
<title>Node7</title>
<g id="a_node7"><a xlink:href="classdev_1_1filechampion_1_1filechampion4j_1_1_plugins_helper_1_1_step_config.html#ab0234d43f0445aaf37e40d9726b18a71" target="_top" xlink:title=" ">
<polygon fill="white" stroke="#666666" points="791.5,-810 625.5,-810 625.5,-780 791.5,-780 791.5,-810"/>
<text text-anchor="start" x="633.5" y="-798" font-family="Helvetica,sans-Serif" font-size="10.00">dev.filechampion.filechampion4j.</text>
<text text-anchor="middle" x="708.5" y="-787" font-family="Helvetica,sans-Serif" font-size="10.00">PluginsHelper.StepConfig.setBody</text>
</a>
</g>
</g>
<!-- Node5&#45;&gt;Node7 -->
<g id="edge6" class="edge">
<title>Node5&#45;&gt;Node7</title>
<path fill="none" stroke="#63b8ff" d="M554.73,-447.95C559.68,-450.95 564.19,-454.59 568,-459 659.26,-564.63 511.03,-666.88 604,-771 607.5,-774.92 611.51,-778.27 615.86,-781.12"/>
<polygon fill="#63b8ff" stroke="#63b8ff" points="613.79,-784.52 624.23,-786.29 617.17,-778.39 613.79,-784.52"/>
</g>
<!-- Node8 -->
<g id="node8" class="node">
<title>Node8</title>
<g id="a_node8"><a xlink:href="classdev_1_1filechampion_1_1filechampion4j_1_1_plugins_helper_1_1_step_config.html#aaef3dc01014c5c74d3b115936a2273f2" target="_top" xlink:title=" ">
<polygon fill="white" stroke="#666666" points="813,-762 604,-762 604,-732 813,-732 813,-762"/>
<text text-anchor="start" x="612" y="-750" font-family="Helvetica,sans-Serif" font-size="10.00">dev.filechampion.filechampion4j.</text>
<text text-anchor="middle" x="708.5" y="-739" font-family="Helvetica,sans-Serif" font-size="10.00">PluginsHelper.StepConfig.setCliPluginHelper</text>
</a>
</g>
</g>
<!-- Node5&#45;&gt;Node8 -->
<g id="edge7" class="edge">
<title>Node5&#45;&gt;Node8</title>
<path fill="none" stroke="#63b8ff" d="M554.63,-448.04C559.6,-451.02 564.15,-454.63 568,-459 646.34,-547.8 524.22,-635.49 604,-723 604.56,-723.61 605.13,-724.21 605.71,-724.8"/>
<polygon fill="#63b8ff" stroke="#63b8ff" points="602.99,-727.92 612.91,-731.65 607.48,-722.55 602.99,-727.92"/>
</g>
<!-- Node9 -->
<g id="node9" class="node">
<title>Node9</title>
<g id="a_node9"><a xlink:href="classdev_1_1filechampion_1_1filechampion4j_1_1_plugins_helper_1_1_step_config.html#a6af511bdc0851e573a194a8a57946292" target="_top" xlink:title=" ">
<polygon fill="white" stroke="#666666" points="803,-714 614,-714 614,-684 803,-684 803,-714"/>
<text text-anchor="start" x="622" y="-702" font-family="Helvetica,sans-Serif" font-size="10.00">dev.filechampion.filechampion4j.</text>
<text text-anchor="middle" x="708.5" y="-691" font-family="Helvetica,sans-Serif" font-size="10.00">PluginsHelper.StepConfig.setCredsPath</text>
</a>
</g>
</g>
<!-- Node5&#45;&gt;Node9 -->
<g id="edge8" class="edge">
<title>Node5&#45;&gt;Node9</title>
<path fill="none" stroke="#63b8ff" d="M554.9,-448.41C559.75,-451.32 564.19,-454.81 568,-459 633.46,-531.02 537.37,-604.06 604,-675 604.57,-675.61 605.15,-676.2 605.74,-676.77"/>
<polygon fill="#63b8ff" stroke="#63b8ff" points="603.07,-679.93 613.03,-683.54 607.5,-674.51 603.07,-679.93"/>
</g>
<!-- Node10 -->
<g id="node10" class="node">
<title>Node10</title>
<g id="a_node10"><a xlink:href="classdev_1_1filechampion_1_1filechampion4j_1_1_plugins_helper_1_1_step_config.html#abdd5d69730eaced237893b1e50a20769" target="_top" xlink:title=" ">
<polygon fill="white" stroke="#666666" points="799.5,-666 617.5,-666 617.5,-636 799.5,-636 799.5,-666"/>
<text text-anchor="start" x="625.5" y="-654" font-family="Helvetica,sans-Serif" font-size="10.00">dev.filechampion.filechampion4j.</text>
<text text-anchor="middle" x="708.5" y="-643" font-family="Helvetica,sans-Serif" font-size="10.00">PluginsHelper.StepConfig.setEndpoint</text>
</a>
</g>
</g>
<!-- Node5&#45;&gt;Node10 -->
<g id="edge9" class="edge">
<title>Node5&#45;&gt;Node10</title>
<path fill="none" stroke="#63b8ff" d="M554.69,-448.61C559.58,-451.47 564.1,-454.9 568,-459 620.64,-514.32 550.46,-572.55 604,-627 605.33,-628.36 606.73,-629.64 608.18,-630.86"/>
<polygon fill="#63b8ff" stroke="#63b8ff" points="605.82,-634.19 616,-637.14 609.88,-628.49 605.82,-634.19"/>
</g>
<!-- Node11 -->
<g id="node11" class="node">
<title>Node11</title>
<g id="a_node11"><a xlink:href="classdev_1_1filechampion_1_1filechampion4j_1_1_plugins_helper_1_1_step_config.html#a092c6bb956bcbb8ccd9e383a854238f3" target="_top" xlink:title=" ">
<polygon fill="white" stroke="#666666" points="798,-618 619,-618 619,-588 798,-588 798,-618"/>
<text text-anchor="start" x="627" y="-606" font-family="Helvetica,sans-Serif" font-size="10.00">dev.filechampion.filechampion4j.</text>
<text text-anchor="middle" x="708.5" y="-595" font-family="Helvetica,sans-Serif" font-size="10.00">PluginsHelper.StepConfig.setHeaders</text>
</a>
</g>
</g>
<!-- Node5&#45;&gt;Node11 -->
<g id="edge10" class="edge">
<title>Node5&#45;&gt;Node11</title>
<path fill="none" stroke="#63b8ff" d="M554.75,-449.21C559.57,-451.94 564.05,-455.17 568,-459 607.98,-497.76 563.4,-540.9 604,-579 605.8,-580.69 607.7,-582.27 609.68,-583.75"/>
<polygon fill="#63b8ff" stroke="#63b8ff" points="607.51,-587.15 617.82,-589.58 611.27,-581.25 607.51,-587.15"/>
</g>
<!-- Node12 -->
<g id="node12" class="node">
<title>Node12</title>
<g id="a_node12"><a xlink:href="classdev_1_1filechampion_1_1filechampion4j_1_1_plugins_helper_1_1_step_config.html#ae9231315c8a10682974cfef4d367e7e8" target="_top" xlink:title=" ">
<polygon fill="white" stroke="#666666" points="808.5,-570 608.5,-570 608.5,-540 808.5,-540 808.5,-570"/>
<text text-anchor="start" x="616.5" y="-558" font-family="Helvetica,sans-Serif" font-size="10.00">dev.filechampion.filechampion4j.</text>
<text text-anchor="middle" x="708.5" y="-547" font-family="Helvetica,sans-Serif" font-size="10.00">PluginsHelper.StepConfig.setHttpFailCode</text>
</a>
</g>
</g>
<!-- Node5&#45;&gt;Node12 -->
<g id="edge11" class="edge">
<title>Node5&#45;&gt;Node12</title>
<path fill="none" stroke="#63b8ff" d="M554.92,-450.46C559.57,-452.9 563.99,-455.73 568,-459 595.73,-481.6 575.9,-508.85 604,-531 605.44,-532.14 606.93,-533.22 608.46,-534.26"/>
<polygon fill="#63b8ff" stroke="#63b8ff" points="606.2,-537.58 616.59,-539.66 609.77,-531.56 606.2,-537.58"/>
</g>
<!-- Node13 -->
<g id="node13" class="node">
<title>Node13</title>
<g id="a_node13"><a xlink:href="classdev_1_1filechampion_1_1filechampion4j_1_1_plugins_helper_1_1_step_config.html#a8965e3b56f3650e4d47126b5b23c84f3" target="_top" xlink:title=" ">
<polygon fill="white" stroke="#666666" points="811.5,-522 605.5,-522 605.5,-492 811.5,-492 811.5,-522"/>
<text text-anchor="start" x="613.5" y="-510" font-family="Helvetica,sans-Serif" font-size="10.00">dev.filechampion.filechampion4j.</text>
<text text-anchor="middle" x="708.5" y="-499" font-family="Helvetica,sans-Serif" font-size="10.00">PluginsHelper.StepConfig.setHttpPassCode</text>
</a>
</g>
</g>
<!-- Node5&#45;&gt;Node13 -->
<g id="edge12" class="edge">
<title>Node5&#45;&gt;Node13</title>
<path fill="none" stroke="#63b8ff" d="M545.68,-450.46C553.34,-452.96 560.93,-455.8 568,-459 585.52,-466.92 586.35,-475.37 604,-483 608.31,-484.86 612.78,-486.59 617.34,-488.19"/>
<polygon fill="#63b8ff" stroke="#63b8ff" points="615.86,-491.72 626.45,-491.51 618.04,-485.07 615.86,-491.72"/>
</g>
<!-- Node14 -->
<g id="node14" class="node">
<title>Node14</title>
<g id="a_node14"><a xlink:href="classdev_1_1filechampion_1_1filechampion4j_1_1_plugins_helper_1_1_step_config.html#a02efd84125da95d860a7467040259e4b" target="_top" xlink:title=" ">
<polygon fill="white" stroke="#666666" points="796.5,-474 620.5,-474 620.5,-444 796.5,-444 796.5,-474"/>
<text text-anchor="start" x="628.5" y="-462" font-family="Helvetica,sans-Serif" font-size="10.00">dev.filechampion.filechampion4j.</text>
<text text-anchor="middle" x="708.5" y="-451" font-family="Helvetica,sans-Serif" font-size="10.00">PluginsHelper.StepConfig.setMethod</text>
</a>
</g>
</g>
<!-- Node5&#45;&gt;Node14 -->
<g id="edge13" class="edge">
<title>Node5&#45;&gt;Node14</title>
<path fill="none" stroke="#63b8ff" d="M554.74,-443.03C572.28,-444.86 591.15,-446.83 609.44,-448.75"/>
<polygon fill="#63b8ff" stroke="#63b8ff" points="608.82,-452.3 619.13,-449.86 609.55,-445.34 608.82,-452.3"/>
</g>
<!-- Node15 -->
<g id="node15" class="node">
<title>Node15</title>
<g id="a_node15"><a xlink:href="classdev_1_1filechampion_1_1filechampion4j_1_1_plugins_helper_1_1_plugin_config.html#ac0608d0e9d629fcef3fb1ca0d7875530" target="_top" xlink:title=" ">
<polygon fill="white" stroke="#666666" points="796.5,-426 620.5,-426 620.5,-396 796.5,-396 796.5,-426"/>
<text text-anchor="start" x="628.5" y="-414" font-family="Helvetica,sans-Serif" font-size="10.00">dev.filechampion.filechampion4j.</text>
<text text-anchor="middle" x="708.5" y="-403" font-family="Helvetica,sans-Serif" font-size="10.00">PluginsHelper.PluginConfig.setName</text>
</a>
</g>
</g>
<!-- Node5&#45;&gt;Node15 -->
<g id="edge14" class="edge">
<title>Node5&#45;&gt;Node15</title>
<path fill="none" stroke="#63b8ff" d="M554.74,-426.97C572.28,-425.14 591.15,-423.17 609.44,-421.25"/>
<polygon fill="#63b8ff" stroke="#63b8ff" points="609.55,-424.66 619.13,-420.14 608.82,-417.7 609.55,-424.66"/>
</g>
<!-- Node16 -->
<g id="node16" class="node">
<title>Node16</title>
<g id="a_node16"><a xlink:href="classdev_1_1filechampion_1_1filechampion4j_1_1_plugins_helper_1_1_step_config.html#a3ffb66b59c09bacb56d5950a16458d84" target="_top" xlink:title=" ">
<polygon fill="white" stroke="#666666" points="793,-378 624,-378 624,-348 793,-348 793,-378"/>
<text text-anchor="start" x="632" y="-366" font-family="Helvetica,sans-Serif" font-size="10.00">dev.filechampion.filechampion4j.</text>
<text text-anchor="middle" x="708.5" y="-355" font-family="Helvetica,sans-Serif" font-size="10.00">PluginsHelper.StepConfig.setName</text>
</a>
</g>
</g>
<!-- Node5&#45;&gt;Node16 -->
<g id="edge15" class="edge">
<title>Node5&#45;&gt;Node16</title>
<path fill="none" stroke="#63b8ff" d="M545.68,-419.54C553.34,-417.04 560.93,-414.2 568,-411 585.52,-403.08 586.35,-394.63 604,-387 608.31,-385.14 612.78,-383.41 617.34,-381.81"/>
<polygon fill="#63b8ff" stroke="#63b8ff" points="618.04,-384.93 626.45,-378.49 615.86,-378.28 618.04,-384.93"/>
</g>
<!-- Node17 -->
<g id="node17" class="node">
<title>Node17</title>
<g id="a_node17"><a xlink:href="classdev_1_1filechampion_1_1filechampion4j_1_1_plugins_helper_1_1_step_config.html#a383af20d4c40ba225d81b1c9aa7cff6a" target="_top" xlink:title=" ">
<polygon fill="white" stroke="#666666" points="794.5,-330 622.5,-330 622.5,-300 794.5,-300 794.5,-330"/>
<text text-anchor="start" x="630.5" y="-318" font-family="Helvetica,sans-Serif" font-size="10.00">dev.filechampion.filechampion4j.</text>
<text text-anchor="middle" x="708.5" y="-307" font-family="Helvetica,sans-Serif" font-size="10.00">PluginsHelper.StepConfig.setOnFail</text>
</a>
</g>
</g>
<!-- Node5&#45;&gt;Node17 -->
<g id="edge16" class="edge">
<title>Node5&#45;&gt;Node17</title>
<path fill="none" stroke="#63b8ff" d="M554.92,-419.54C559.57,-417.1 563.99,-414.27 568,-411 595.73,-388.4 575.9,-361.15 604,-339 606.67,-336.9 609.48,-334.97 612.42,-333.21"/>
<polygon fill="#63b8ff" stroke="#63b8ff" points="613.9,-335.87 621.14,-328.13 610.66,-329.66 613.9,-335.87"/>
</g>
<!-- Node18 -->
<g id="node18" class="node">
<title>Node18</title>
<g id="a_node18"><a xlink:href="classdev_1_1filechampion_1_1filechampion4j_1_1_plugins_helper_1_1_step_config.html#a848f08055cadb9eae55c68893b847cc6" target="_top" xlink:title=" ">
<polygon fill="white" stroke="#666666" points="802,-282 615,-282 615,-252 802,-252 802,-282"/>
<text text-anchor="start" x="623" y="-270" font-family="Helvetica,sans-Serif" font-size="10.00">dev.filechampion.filechampion4j.</text>
<text text-anchor="middle" x="708.5" y="-259" font-family="Helvetica,sans-Serif" font-size="10.00">PluginsHelper.StepConfig.setResponse</text>
</a>
</g>
</g>
<!-- Node5&#45;&gt;Node18 -->
<g id="edge17" class="edge">
<title>Node5&#45;&gt;Node18</title>
<path fill="none" stroke="#63b8ff" d="M554.75,-420.79C559.57,-418.06 564.05,-414.83 568,-411 607.98,-372.24 563.4,-329.1 604,-291 604.87,-290.18 605.77,-289.39 606.69,-288.62"/>
<polygon fill="#63b8ff" stroke="#63b8ff" points="608.35,-291.02 614.45,-282.36 604.28,-285.32 608.35,-291.02"/>
</g>
<!-- Node19 -->
<g id="node19" class="node">
<title>Node19</title>
<g id="a_node19"><a xlink:href="classdev_1_1filechampion_1_1filechampion4j_1_1_plugins_helper_1_1_step_config.html#ac6291b12c2af1efb49e5744b51ec9d4d" target="_top" xlink:title=" ">
<polygon fill="white" stroke="#666666" points="799,-234 618,-234 618,-204 799,-204 799,-234"/>
<text text-anchor="start" x="626" y="-222" font-family="Helvetica,sans-Serif" font-size="10.00">dev.filechampion.filechampion4j.</text>
<text text-anchor="middle" x="708.5" y="-211" font-family="Helvetica,sans-Serif" font-size="10.00">PluginsHelper.StepConfig.setRunAfter</text>
</a>
</g>
</g>
<!-- Node5&#45;&gt;Node19 -->
<g id="edge18" class="edge">
<title>Node5&#45;&gt;Node19</title>
<path fill="none" stroke="#63b8ff" d="M554.69,-421.39C559.58,-418.53 564.1,-415.1 568,-411 620.64,-355.68 550.46,-297.45 604,-243 605.68,-241.29 607.46,-239.69 609.32,-238.2"/>
<polygon fill="#63b8ff" stroke="#63b8ff" points="610.67,-240.83 616.95,-232.3 606.72,-235.05 610.67,-240.83"/>
</g>
<!-- Node20 -->
<g id="node20" class="node">
<title>Node20</title>
<g id="a_node20"><a xlink:href="classdev_1_1filechampion_1_1filechampion4j_1_1_plugins_helper_1_1_step_config.html#a7f2db0d9efe3c081f3c992618f023463" target="_top" xlink:title=" ">
<polygon fill="white" stroke="#666666" points="802.5,-186 614.5,-186 614.5,-156 802.5,-156 802.5,-186"/>
<text text-anchor="start" x="622.5" y="-174" font-family="Helvetica,sans-Serif" font-size="10.00">dev.filechampion.filechampion4j.</text>
<text text-anchor="middle" x="708.5" y="-163" font-family="Helvetica,sans-Serif" font-size="10.00">PluginsHelper.StepConfig.setRunBefore</text>
</a>
</g>
</g>
<!-- Node5&#45;&gt;Node20 -->
<g id="edge19" class="edge">
<title>Node5&#45;&gt;Node20</title>
<path fill="none" stroke="#63b8ff" d="M554.9,-421.59C559.75,-418.68 564.19,-415.19 568,-411 633.46,-338.98 537.37,-265.94 604,-195 604.57,-194.39 605.15,-193.8 605.74,-193.23"/>
<polygon fill="#63b8ff" stroke="#63b8ff" points="607.5,-195.49 613.03,-186.46 603.07,-190.07 607.5,-195.49"/>
</g>
<!-- Node21 -->
<g id="node21" class="node">
<title>Node21</title>
<g id="a_node21"><a xlink:href="classdev_1_1filechampion_1_1filechampion4j_1_1_plugins_helper_1_1_plugin_config.html#ae5fda8a9d95edb4f7d81f1b23e7fa8da" target="_top" xlink:title=" ">
<polygon fill="white" stroke="#666666" points="793.5,-137.5 623.5,-137.5 623.5,-96.5 793.5,-96.5 793.5,-137.5"/>
<text text-anchor="start" x="631.5" y="-125.5" font-family="Helvetica,sans-Serif" font-size="10.00">dev.filechampion.filechampion4j.</text>
<text text-anchor="start" x="631.5" y="-114.5" font-family="Helvetica,sans-Serif" font-size="10.00">PluginsHelper.PluginConfig.setStep</text>
<text text-anchor="middle" x="708.5" y="-103.5" font-family="Helvetica,sans-Serif" font-size="10.00">Configs</text>
</a>
</g>
</g>
<!-- Node5&#45;&gt;Node21 -->
<g id="edge20" class="edge">
<title>Node5&#45;&gt;Node21</title>
<path fill="none" stroke="#63b8ff" d="M554.63,-421.96C559.6,-418.98 564.15,-415.37 568,-411 646.34,-322.2 526.62,-236.64 604,-147 607.03,-143.49 610.43,-140.39 614.12,-137.63"/>
<polygon fill="#63b8ff" stroke="#63b8ff" points="615.65,-140.17 622.19,-131.83 611.88,-134.27 615.65,-140.17"/>
</g>
<!-- Node22 -->
<g id="node22" class="node">
<title>Node22</title>
<g id="a_node22"><a xlink:href="classdev_1_1filechampion_1_1filechampion4j_1_1_plugins_helper_1_1_step_config.html#a270b36b24b8d3a0ed0432ca72ab2e6c4" target="_top" xlink:title=" ">
<polygon fill="white" stroke="#666666" points="797.5,-78 619.5,-78 619.5,-48 797.5,-48 797.5,-78"/>
<text text-anchor="start" x="627.5" y="-66" font-family="Helvetica,sans-Serif" font-size="10.00">dev.filechampion.filechampion4j.</text>
<text text-anchor="middle" x="708.5" y="-55" font-family="Helvetica,sans-Serif" font-size="10.00">PluginsHelper.StepConfig.setTimeout</text>
</a>
</g>
</g>
<!-- Node5&#45;&gt;Node22 -->
<g id="edge21" class="edge">
<title>Node5&#45;&gt;Node22</title>
<path fill="none" stroke="#63b8ff" d="M554.75,-422.07C559.69,-419.06 564.2,-415.41 568,-411 662.22,-301.51 508.5,-196.37 604,-88 606.06,-85.66 608.3,-83.52 610.69,-81.56"/>
<polygon fill="#63b8ff" stroke="#63b8ff" points="612.08,-84.16 618.31,-75.59 608.1,-78.41 612.08,-84.16"/>
</g>
<!-- Node23 -->
<g id="node23" class="node">
<title>Node23</title>
<g id="a_node23"><a xlink:href="classdev_1_1filechampion_1_1filechampion4j_1_1_plugins_helper_1_1_step_config.html#a4640a883c14b655a5072f66bd9adea91" target="_top" xlink:title=" ">
<polygon fill="white" stroke="#666666" points="790.5,-30 626.5,-30 626.5,0 790.5,0 790.5,-30"/>
<text text-anchor="start" x="634.5" y="-18" font-family="Helvetica,sans-Serif" font-size="10.00">dev.filechampion.filechampion4j.</text>
<text text-anchor="middle" x="708.5" y="-7" font-family="Helvetica,sans-Serif" font-size="10.00">PluginsHelper.StepConfig.setType</text>
</a>
</g>
</g>
<!-- Node5&#45;&gt;Node23 -->
<g id="edge22" class="edge">
<title>Node5&#45;&gt;Node23</title>
<path fill="none" stroke="#63b8ff" d="M554.82,-422.13C559.75,-419.11 564.23,-415.44 568,-411 621.72,-347.66 549.25,-101.46 604,-39 607.7,-34.77 611.99,-31.21 616.68,-28.22"/>
<polygon fill="#63b8ff" stroke="#63b8ff" points="617.97,-30.96 625.11,-23.14 614.65,-24.8 617.97,-30.96"/>
</g>
</g>
</svg>
