<?xml version="1.0" encoding="UTF-8" standalone="no"?>
<!DOCTYPE svg PUBLIC "-//W3C//DTD SVG 1.1//EN"
 "http://www.w3.org/Graphics/SVG/1.1/DTD/svg11.dtd">
<!-- Generated by graphviz version 8.0.3 (20230416.2022)
 -->
<!-- Title: dev.filechampion.filechampion4j.Extensions.Extensions Pages: 1 -->
<svg width="978pt" height="291pt"
 viewBox="0.00 0.00 978.00 290.85" xmlns="http://www.w3.org/2000/svg" xmlns:xlink="http://www.w3.org/1999/xlink">
<g id="graph0" class="graph" transform="scale(1 1) rotate(0) translate(4 286.85)">
<title>dev.filechampion.filechampion4j.Extensions.Extensions</title>
<!-- Node1 -->
<g id="node1" class="node">
<title>Node1</title>
<g id="a_node1"><a xlink:title=" ">
<polygon fill="#999999" stroke="#666666" points="155,-238.85 0,-238.85 0,-208.85 155,-208.85 155,-238.85"/>
<text text-anchor="start" x="8" y="-226.85" font-family="Helvetica,sans-Serif" font-size="10.00">dev.filechampion.filechampion4j.</text>
<text text-anchor="middle" x="77.5" y="-215.85" font-family="Helvetica,sans-Serif" font-size="10.00">Extensions.Extensions</text>
</a>
</g>
</g>
<!-- Node2 -->
<g id="node2" class="node">
<title>Node2</title>
<g id="a_node2"><a xlink:href="classdev_1_1filechampion_1_1filechampion4j_1_1_extensions.html#a0aada571ca5ffb1ca298874d2c0fac50" target="_top" xlink:title=" ">
<polygon fill="white" stroke="#666666" points="779,-282.85 624,-282.85 624,-252.85 779,-252.85 779,-282.85"/>
<text text-anchor="start" x="632" y="-270.85" font-family="Helvetica,sans-Serif" font-size="10.00">dev.filechampion.filechampion4j.</text>
<text text-anchor="middle" x="701.5" y="-259.85" font-family="Helvetica,sans-Serif" font-size="10.00">Extensions.logFine</text>
</a>
</g>
</g>
<!-- Node1&#45;&gt;Node2 -->
<g id="edge1" class="edge">
<title>Node1&#45;&gt;Node2</title>
<path fill="none" stroke="#63b8ff" d="M155.27,-230.26C222.24,-235.76 322.02,-243.75 409,-249.85 477.42,-254.66 554.93,-259.41 612.82,-262.83"/>
<polygon fill="#63b8ff" stroke="#63b8ff" points="612.57,-266.38 622.76,-263.47 612.98,-259.39 612.57,-266.38"/>
</g>
<!-- Node3 -->
<g id="node3" class="node">
<title>Node3</title>
<g id="a_node3"><a xlink:href="classdev_1_1filechampion_1_1filechampion4j_1_1_extensions.html#ac7a42f1722ece112cb3249e20978956e" target="_top" xlink:title=" ">
<polygon fill="white" stroke="#666666" points="373,-217.85 191,-217.85 191,-187.85 373,-187.85 373,-217.85"/>
<text text-anchor="start" x="199" y="-205.85" font-family="Helvetica,sans-Serif" font-size="10.00">dev.filechampion.filechampion4j.</text>
<text text-anchor="middle" x="282" y="-194.85" font-family="Helvetica,sans-Serif" font-size="10.00">Extensions.mapConfiguredExtensions</text>
</a>
</g>
</g>
<!-- Node1&#45;&gt;Node3 -->
<g id="edge2" class="edge">
<title>Node1&#45;&gt;Node3</title>
<path fill="none" stroke="#63b8ff" d="M155.35,-215.88C163.36,-215.05 171.59,-214.2 179.82,-213.35"/>
<polygon fill="#63b8ff" stroke="#63b8ff" points="180.03,-216.74 189.62,-212.23 179.31,-209.78 180.03,-216.74"/>
</g>
<!-- Node3&#45;&gt;Node2 -->
<g id="edge3" class="edge">
<title>Node3&#45;&gt;Node2</title>
<path fill="none" stroke="#63b8ff" d="M373.33,-216.92C444.38,-227.98 542.76,-243.29 613.05,-254.24"/>
<polygon fill="#63b8ff" stroke="#63b8ff" points="612.22,-257.81 622.64,-255.89 613.3,-250.89 612.22,-257.81"/>
</g>
<!-- Node4 -->
<g id="node4" class="node">
<title>Node4</title>
<g id="a_node4"><a xlink:href="classdev_1_1filechampion_1_1filechampion4j_1_1_extensions.html#adebd31331477fe200ec272ae4569f482" target="_top" xlink:title=" ">
<polygon fill="white" stroke="#666666" points="970,-100.85 815,-100.85 815,-70.85 970,-70.85 970,-100.85"/>
<text text-anchor="start" x="823" y="-88.85" font-family="Helvetica,sans-Serif" font-size="10.00">dev.filechampion.filechampion4j.</text>
<text text-anchor="middle" x="892.5" y="-77.85" font-family="Helvetica,sans-Serif" font-size="10.00">Extensions.logWarn</text>
</a>
</g>
</g>
<!-- Node3&#45;&gt;Node4 -->
<g id="edge4" class="edge">
<title>Node3&#45;&gt;Node4</title>
<path fill="none" stroke="#63b8ff" d="M302.21,-187.48C351.81,-148.89 489.66,-48.59 624,-13.85 690.69,3.39 712.88,5.49 779,-13.85 812.06,-23.53 844.63,-46.21 866.15,-63.56"/>
<polygon fill="#63b8ff" stroke="#63b8ff" points="863.45,-66.69 873.38,-70.37 867.91,-61.3 863.45,-66.69"/>
</g>
<!-- Node5 -->
<g id="node5" class="node">
<title>Node5</title>
<g id="a_node5"><a xlink:href="classdev_1_1filechampion_1_1filechampion4j_1_1_extensions.html#ac905bd4c26533f81b804c16a2b7cf1df" target="_top" xlink:title=" ">
<polygon fill="white" stroke="#666666" points="588,-191.85 409,-191.85 409,-161.85 588,-161.85 588,-191.85"/>
<text text-anchor="start" x="417" y="-179.85" font-family="Helvetica,sans-Serif" font-size="10.00">dev.filechampion.filechampion4j.</text>
<text text-anchor="middle" x="498.5" y="-168.85" font-family="Helvetica,sans-Serif" font-size="10.00">Extensions.mapExtensionValidations</text>
</a>
</g>
</g>
<!-- Node3&#45;&gt;Node5 -->
<g id="edge5" class="edge">
<title>Node3&#45;&gt;Node5</title>
<path fill="none" stroke="#63b8ff" d="M373.35,-191.9C381.47,-190.92 389.72,-189.92 397.91,-188.92"/>
<polygon fill="#63b8ff" stroke="#63b8ff" points="398.13,-192.3 407.63,-187.63 397.28,-185.35 398.13,-192.3"/>
</g>
<!-- Node5&#45;&gt;Node2 -->
<g id="edge6" class="edge">
<title>Node5&#45;&gt;Node2</title>
<path fill="none" stroke="#63b8ff" d="M549.29,-192.24C562.35,-197.27 576.1,-203.49 588,-210.85 606.45,-222.28 605.2,-233.01 624,-243.85 626.51,-245.3 629.12,-246.67 631.8,-247.97"/>
<polygon fill="#63b8ff" stroke="#63b8ff" points="630.16,-251.52 640.72,-252.36 632.99,-245.11 630.16,-251.52"/>
</g>
<!-- Node5&#45;&gt;Node4 -->
<g id="edge8" class="edge">
<title>Node5&#45;&gt;Node4</title>
<path fill="none" stroke="#63b8ff" d="M588.21,-181.94C644.25,-182.47 717.45,-178.15 779,-157.85 811.52,-147.13 843.95,-124.82 865.58,-107.86"/>
<polygon fill="#63b8ff" stroke="#63b8ff" points="867.27,-110.19 872.87,-101.2 862.89,-104.73 867.27,-110.19"/>
</g>
<!-- Node6 -->
<g id="node6" class="node">
<title>Node6</title>
<g id="a_node6"><a xlink:href="classdev_1_1filechampion_1_1filechampion4j_1_1_extensions.html#a366117a17cfa799e9056a5929b60f99a" target="_top" xlink:title=" ">
<polygon fill="white" stroke="#666666" points="779,-148.85 624,-148.85 624,-118.85 779,-118.85 779,-148.85"/>
<text text-anchor="start" x="632" y="-136.85" font-family="Helvetica,sans-Serif" font-size="10.00">dev.filechampion.filechampion4j.</text>
<text text-anchor="middle" x="701.5" y="-125.85" font-family="Helvetica,sans-Serif" font-size="10.00">Extensions.logInfo</text>
</a>
</g>
</g>
<!-- Node5&#45;&gt;Node6 -->
<g id="edge7" class="edge">
<title>Node5&#45;&gt;Node6</title>
<path fill="none" stroke="#63b8ff" d="M571.78,-161.39C586.69,-158.2 602.49,-154.82 617.74,-151.56"/>
<polygon fill="#63b8ff" stroke="#63b8ff" points="618.14,-154.84 627.18,-149.32 616.67,-147.99 618.14,-154.84"/>
</g>
<!-- Node7 -->
<g id="node7" class="node">
<title>Node7</title>
<g id="a_node7"><a xlink:href="classdev_1_1filechampion_1_1filechampion4j_1_1_extensions.html#aae54a0c575ab050d505554b827eba486" target="_top" xlink:title=" ">
<polygon fill="white" stroke="#666666" points="779,-100.85 624,-100.85 624,-70.85 779,-70.85 779,-100.85"/>
<text text-anchor="start" x="632" y="-88.85" font-family="Helvetica,sans-Serif" font-size="10.00">dev.filechampion.filechampion4j.</text>
<text text-anchor="middle" x="701.5" y="-77.85" font-family="Helvetica,sans-Serif" font-size="10.00">Extensions.setArrayList</text>
</a>
</g>
</g>
<!-- Node5&#45;&gt;Node7 -->
<g id="edge9" class="edge">
<title>Node5&#45;&gt;Node7</title>
<path fill="none" stroke="#63b8ff" d="M524.55,-161.54C549.21,-146.91 588.26,-124.91 624,-109.85 628.11,-108.12 632.4,-106.44 636.74,-104.84"/>
<polygon fill="#63b8ff" stroke="#63b8ff" points="637.68,-107.86 645.94,-101.23 635.35,-101.27 637.68,-107.86"/>
</g>
<!-- Node8 -->
<g id="node8" class="node">
<title>Node8</title>
<g id="a_node8"><a xlink:href="classdev_1_1filechampion_1_1filechampion4j_1_1_extensions.html#ae8f04f4e1d62e544e1ec5893bff82a4d" target="_top" xlink:title=" ">
<polygon fill="white" stroke="#666666" points="779,-52.85 624,-52.85 624,-22.85 779,-22.85 779,-52.85"/>
<text text-anchor="start" x="632" y="-40.85" font-family="Helvetica,sans-Serif" font-size="10.00">dev.filechampion.filechampion4j.</text>
<text text-anchor="middle" x="701.5" y="-29.85" font-family="Helvetica,sans-Serif" font-size="10.00">Extensions.setBoolean</text>
</a>
</g>
</g>
<!-- Node5&#45;&gt;Node8 -->
<g id="edge11" class="edge">
<title>Node5&#45;&gt;Node8</title>
<path fill="none" stroke="#63b8ff" d="M512.05,-161.52C532.85,-137.04 576.89,-89.13 624,-61.85 626.51,-60.4 629.12,-59.02 631.79,-57.72"/>
<polygon fill="#63b8ff" stroke="#63b8ff" points="632.98,-60.58 640.71,-53.33 630.15,-54.18 632.98,-60.58"/>
</g>
<!-- Node9 -->
<g id="node9" class="node">
<title>Node9</title>
<g id="a_node9"><a xlink:href="classdev_1_1filechampion_1_1filechampion4j_1_1_extensions.html#ad1fe364836f20ce9ff85b8f19ad2ba12" target="_top" xlink:title=" ">
<polygon fill="white" stroke="#666666" points="779,-234.85 624,-234.85 624,-204.85 779,-204.85 779,-234.85"/>
<text text-anchor="start" x="632" y="-222.85" font-family="Helvetica,sans-Serif" font-size="10.00">dev.filechampion.filechampion4j.</text>
<text text-anchor="middle" x="701.5" y="-211.85" font-family="Helvetica,sans-Serif" font-size="10.00">Extensions.setString</text>
</a>
</g>
</g>
<!-- Node5&#45;&gt;Node9 -->
<g id="edge13" class="edge">
<title>Node5&#45;&gt;Node9</title>
<path fill="none" stroke="#63b8ff" d="M571.78,-192.32C586.69,-195.51 602.49,-198.89 617.74,-202.15"/>
<polygon fill="#63b8ff" stroke="#63b8ff" points="616.67,-205.71 627.18,-204.38 618.14,-198.87 616.67,-205.71"/>
</g>
<!-- Node7&#45;&gt;Node4 -->
<g id="edge10" class="edge">
<title>Node7&#45;&gt;Node4</title>
<path fill="none" stroke="#63b8ff" d="M779.37,-85.85C787.47,-85.85 795.75,-85.85 803.96,-85.85"/>
<polygon fill="#63b8ff" stroke="#63b8ff" points="803.69,-89.35 813.69,-85.85 803.69,-82.35 803.69,-89.35"/>
</g>
<!-- Node8&#45;&gt;Node4 -->
<g id="edge12" class="edge">
<title>Node8&#45;&gt;Node4</title>
<path fill="none" stroke="#63b8ff" d="M763.34,-53.31C781.47,-57.91 801.49,-62.99 820.22,-67.75"/>
<polygon fill="#63b8ff" stroke="#63b8ff" points="819.22,-71.36 829.77,-70.43 820.94,-64.58 819.22,-71.36"/>
</g>
<!-- Node9&#45;&gt;Node4 -->
<g id="edge14" class="edge">
<title>Node9&#45;&gt;Node4</title>
<path fill="none" stroke="#63b8ff" d="M751.6,-204.49C761.01,-200.65 770.56,-196.11 779,-190.85 815.57,-168.1 850.69,-132.37 871.69,-109.02"/>
<polygon fill="#63b8ff" stroke="#63b8ff" points="873.76,-111.84 877.76,-102.03 868.51,-107.2 873.76,-111.84"/>
</g>
</g>
</svg>
