<?xml version="1.0" encoding="UTF-8" standalone="no"?>
<!DOCTYPE svg PUBLIC "-//W3C//DTD SVG 1.1//EN"
 "http://www.w3.org/Graphics/SVG/1.1/DTD/svg11.dtd">
<!-- Generated by graphviz version 8.0.3 (20230416.2022)
 -->
<!-- Title: dev.filechampion.filechampion4j.FileValidator Pages: 1 -->
<svg width="705pt" height="2546pt"
 viewBox="0.00 0.00 705.45 2546.00" xmlns="http://www.w3.org/2000/svg" xmlns:xlink="http://www.w3.org/1999/xlink">
<g id="graph0" class="graph" transform="scale(1 1) rotate(0) translate(4 2542)">
<title>dev.filechampion.filechampion4j.FileValidator</title>
<!-- Node1 -->
<g id="node1" class="node">
<title>Node1</title>
<g id="a_node1"><a xlink:title=" ">
<polygon fill="#999999" stroke="#666666" points="240.95,-0.5 240.95,-1179.5 440.95,-1179.5 440.95,-0.5 240.95,-0.5"/>
<text text-anchor="start" x="248.95" y="-1167.5" font-family="Helvetica,sans-Serif" font-size="10.00">dev.filechampion.filechampion4j.</text>
<text text-anchor="middle" x="340.95" y="-1156.5" font-family="Helvetica,sans-Serif" font-size="10.00">FileValidator</text>
<polyline fill="none" stroke="#666666" points="240.95,-1149.5 440.95,-1149.5"/>
<text text-anchor="start" x="248.95" y="-1137.5" font-family="Helvetica,sans-Serif" font-size="10.00">&#45; StringBuilder sharedString</text>
<text text-anchor="start" x="248.95" y="-1126.5" font-family="Helvetica,sans-Serif" font-size="10.00">Builder</text>
<text text-anchor="start" x="248.95" y="-1115.5" font-family="Helvetica,sans-Serif" font-size="10.00">&#45; String sharedStepMessage</text>
<text text-anchor="start" x="248.95" y="-1104.5" font-family="Helvetica,sans-Serif" font-size="10.00">&#45; String errorResponse</text>
<text text-anchor="start" x="248.95" y="-1093.5" font-family="Helvetica,sans-Serif" font-size="10.00">&#45; String fileCategory</text>
<text text-anchor="start" x="248.95" y="-1082.5" font-family="Helvetica,sans-Serif" font-size="10.00">&#45; String fileName</text>
<text text-anchor="start" x="248.95" y="-1071.5" font-family="Helvetica,sans-Serif" font-size="10.00">&#45; byte[] originalFile</text>
<text text-anchor="start" x="248.95" y="-1060.5" font-family="Helvetica,sans-Serif" font-size="10.00">&#45; String mimeString</text>
<text text-anchor="start" x="248.95" y="-1049.5" font-family="Helvetica,sans-Serif" font-size="10.00">&#45; String fileExtension</text>
<text text-anchor="start" x="248.95" y="-1038.5" font-family="Helvetica,sans-Serif" font-size="10.00">&#45; String commonFileError</text>
<text text-anchor="start" x="248.95" y="-1027.5" font-family="Helvetica,sans-Serif" font-size="10.00">&#45; String commonLogString</text>
<text text-anchor="start" x="248.95" y="-1016.5" font-family="Helvetica,sans-Serif" font-size="10.00">&#45; int responseMsgCountFail</text>
<text text-anchor="start" x="248.95" y="-1005.5" font-family="Helvetica,sans-Serif" font-size="10.00">&#45; StringBuilder sbresponse</text>
<text text-anchor="start" x="248.95" y="-994.5" font-family="Helvetica,sans-Serif" font-size="10.00">AggregationFail</text>
<text text-anchor="start" x="248.95" y="-983.5" font-family="Helvetica,sans-Serif" font-size="10.00">&#45; int responseMsgCountSuccess</text>
<text text-anchor="start" x="248.95" y="-972.5" font-family="Helvetica,sans-Serif" font-size="10.00">&#45; StringBuilder sbresponse</text>
<text text-anchor="start" x="248.95" y="-961.5" font-family="Helvetica,sans-Serif" font-size="10.00">AggregationSuccess</text>
<polyline fill="none" stroke="#666666" points="240.95,-954.5 440.95,-954.5"/>
<text text-anchor="start" x="248.95" y="-942.5" font-family="Helvetica,sans-Serif" font-size="10.00">+ FileValidator(JSONObject</text>
<text text-anchor="start" x="248.95" y="-931.5" font-family="Helvetica,sans-Serif" font-size="10.00"> configJsonObject)</text>
<text text-anchor="start" x="248.95" y="-920.5" font-family="Helvetica,sans-Serif" font-size="10.00">+ ValidationResponse</text>
<text text-anchor="start" x="248.95" y="-909.5" font-family="Helvetica,sans-Serif" font-size="10.00"> validateFile(String</text>
<text text-anchor="start" x="248.95" y="-898.5" font-family="Helvetica,sans-Serif" font-size="10.00"> fileCategory, byte[]</text>
<text text-anchor="start" x="248.95" y="-887.5" font-family="Helvetica,sans-Serif" font-size="10.00"> originalFile, String</text>
<text text-anchor="start" x="248.95" y="-876.5" font-family="Helvetica,sans-Serif" font-size="10.00"> fileName, Path outputDir,</text>
<text text-anchor="start" x="248.95" y="-865.5" font-family="Helvetica,sans-Serif" font-size="10.00"> String mimeString)</text>
<text text-anchor="start" x="248.95" y="-854.5" font-family="Helvetica,sans-Serif" font-size="10.00">+ ValidationResponse</text>
<text text-anchor="start" x="248.95" y="-843.5" font-family="Helvetica,sans-Serif" font-size="10.00"> validateFile(String</text>
<text text-anchor="start" x="248.95" y="-832.5" font-family="Helvetica,sans-Serif" font-size="10.00"> fileCategory, Path filePath,</text>
<text text-anchor="start" x="248.95" y="-821.5" font-family="Helvetica,sans-Serif" font-size="10.00"> String fileName, Path outputDir,</text>
<text text-anchor="start" x="248.95" y="-810.5" font-family="Helvetica,sans-Serif" font-size="10.00"> String mimeString)</text>
<text text-anchor="start" x="248.95" y="-799.5" font-family="Helvetica,sans-Serif" font-size="10.00">+ ValidationResponse</text>
<text text-anchor="start" x="248.95" y="-788.5" font-family="Helvetica,sans-Serif" font-size="10.00"> validateFile(String</text>
<text text-anchor="start" x="248.95" y="-777.5" font-family="Helvetica,sans-Serif" font-size="10.00"> fileCategory, byte[]</text>
<text text-anchor="start" x="248.95" y="-766.5" font-family="Helvetica,sans-Serif" font-size="10.00"> originalFile, String</text>
<text text-anchor="start" x="248.95" y="-755.5" font-family="Helvetica,sans-Serif" font-size="10.00"> fileName, String mimeString)</text>
<text text-anchor="start" x="248.95" y="-744.5" font-family="Helvetica,sans-Serif" font-size="10.00">+ ValidationResponse</text>
<text text-anchor="start" x="248.95" y="-733.5" font-family="Helvetica,sans-Serif" font-size="10.00"> validateFile(String</text>
<text text-anchor="start" x="248.95" y="-722.5" font-family="Helvetica,sans-Serif" font-size="10.00"> fileCategory, byte[]</text>
<text text-anchor="start" x="248.95" y="-711.5" font-family="Helvetica,sans-Serif" font-size="10.00"> originalFile, String</text>
<text text-anchor="start" x="248.95" y="-700.5" font-family="Helvetica,sans-Serif" font-size="10.00"> fileName, Path outputDir)</text>
<text text-anchor="start" x="248.95" y="-689.5" font-family="Helvetica,sans-Serif" font-size="10.00">+ ValidationResponse</text>
<text text-anchor="start" x="248.95" y="-678.5" font-family="Helvetica,sans-Serif" font-size="10.00"> validateFile(String</text>
<text text-anchor="start" x="248.95" y="-667.5" font-family="Helvetica,sans-Serif" font-size="10.00"> fileCategory, Path filePath,</text>
<text text-anchor="start" x="248.95" y="-656.5" font-family="Helvetica,sans-Serif" font-size="10.00"> String fileName, String mimeString)</text>
<text text-anchor="start" x="248.95" y="-645.5" font-family="Helvetica,sans-Serif" font-size="10.00">+ ValidationResponse</text>
<text text-anchor="start" x="248.95" y="-634.5" font-family="Helvetica,sans-Serif" font-size="10.00"> validateFile(String</text>
<text text-anchor="start" x="248.95" y="-623.5" font-family="Helvetica,sans-Serif" font-size="10.00"> fileCategory, Path filePath,</text>
<text text-anchor="start" x="248.95" y="-612.5" font-family="Helvetica,sans-Serif" font-size="10.00"> String fileName, Path outputDir)</text>
<text text-anchor="start" x="248.95" y="-601.5" font-family="Helvetica,sans-Serif" font-size="10.00">+ ValidationResponse</text>
<text text-anchor="start" x="248.95" y="-590.5" font-family="Helvetica,sans-Serif" font-size="10.00"> validateFile(String</text>
<text text-anchor="start" x="248.95" y="-579.5" font-family="Helvetica,sans-Serif" font-size="10.00"> fileCategory, byte[]</text>
<text text-anchor="start" x="248.95" y="-568.5" font-family="Helvetica,sans-Serif" font-size="10.00"> originalFile, String</text>
<text text-anchor="start" x="248.95" y="-557.5" font-family="Helvetica,sans-Serif" font-size="10.00"> fileName)</text>
<text text-anchor="start" x="248.95" y="-546.5" font-family="Helvetica,sans-Serif" font-size="10.00">+ ValidationResponse</text>
<text text-anchor="start" x="248.95" y="-535.5" font-family="Helvetica,sans-Serif" font-size="10.00"> validateFile(String</text>
<text text-anchor="start" x="248.95" y="-524.5" font-family="Helvetica,sans-Serif" font-size="10.00"> fileCategory, Path filePath,</text>
<text text-anchor="start" x="248.95" y="-513.5" font-family="Helvetica,sans-Serif" font-size="10.00"> String fileName)</text>
<text text-anchor="start" x="248.95" y="-502.5" font-family="Helvetica,sans-Serif" font-size="10.00">~ [static initializer]</text>
<text text-anchor="start" x="248.95" y="-491.5" font-family="Helvetica,sans-Serif" font-size="10.00">&#45; ValidationResponse</text>
<text text-anchor="start" x="248.95" y="-480.5" font-family="Helvetica,sans-Serif" font-size="10.00"> validateFileMain()</text>
<text text-anchor="start" x="248.95" y="-469.5" font-family="Helvetica,sans-Serif" font-size="10.00">&#45; ValidationResponse</text>
<text text-anchor="start" x="248.95" y="-458.5" font-family="Helvetica,sans-Serif" font-size="10.00"> doValidations(String</text>
<text text-anchor="start" x="248.95" y="-447.5" font-family="Helvetica,sans-Serif" font-size="10.00"> originalFilenameClean)</text>
<text text-anchor="start" x="248.95" y="-436.5" font-family="Helvetica,sans-Serif" font-size="10.00">&#45; void logInfo(StringBuilder</text>
<text text-anchor="start" x="248.95" y="-425.5" font-family="Helvetica,sans-Serif" font-size="10.00"> message)</text>
<text text-anchor="start" x="248.95" y="-414.5" font-family="Helvetica,sans-Serif" font-size="10.00">&#45; void logWarn(StringBuilder</text>
<text text-anchor="start" x="248.95" y="-403.5" font-family="Helvetica,sans-Serif" font-size="10.00"> message)</text>
<text text-anchor="start" x="248.95" y="-392.5" font-family="Helvetica,sans-Serif" font-size="10.00">&#45; void logSevere(StringBuilder</text>
<text text-anchor="start" x="248.95" y="-381.5" font-family="Helvetica,sans-Serif" font-size="10.00"> message)</text>
<text text-anchor="start" x="248.95" y="-370.5" font-family="Helvetica,sans-Serif" font-size="10.00">&#45; void logFine(StringBuilder</text>
<text text-anchor="start" x="248.95" y="-359.5" font-family="Helvetica,sans-Serif" font-size="10.00"> message)</text>
<text text-anchor="start" x="248.95" y="-348.5" font-family="Helvetica,sans-Serif" font-size="10.00">&#45; void loadPlugins()</text>
<text text-anchor="start" x="248.95" y="-337.5" font-family="Helvetica,sans-Serif" font-size="10.00">&#45; void checkPluginsConfig()</text>
<text text-anchor="start" x="248.95" y="-326.5" font-family="Helvetica,sans-Serif" font-size="10.00">&#45; void checkPluginsExist</text>
<text text-anchor="start" x="248.95" y="-315.5" font-family="Helvetica,sans-Serif" font-size="10.00">(JSONObject validationsJsonObject,</text>
<text text-anchor="start" x="248.95" y="-304.5" font-family="Helvetica,sans-Serif" font-size="10.00"> String categroyKey, String extensionKey)</text>
<text text-anchor="start" x="248.95" y="-293.5" font-family="Helvetica,sans-Serif" font-size="10.00">&#45; void checkMethodInputs()</text>
<text text-anchor="start" x="248.95" y="-282.5" font-family="Helvetica,sans-Serif" font-size="10.00">&#45; String executeBeforePlugins</text>
<text text-anchor="start" x="248.95" y="-271.5" font-family="Helvetica,sans-Serif" font-size="10.00">(String fileCategory, String</text>
<text text-anchor="start" x="248.95" y="-260.5" font-family="Helvetica,sans-Serif" font-size="10.00"> fileExtension)</text>
<text text-anchor="start" x="248.95" y="-249.5" font-family="Helvetica,sans-Serif" font-size="10.00">&#45; void executeAfterPlugins()</text>
<text text-anchor="start" x="248.95" y="-238.5" font-family="Helvetica,sans-Serif" font-size="10.00">&#45; String executeAfterPlugins</text>
<text text-anchor="start" x="248.95" y="-227.5" font-family="Helvetica,sans-Serif" font-size="10.00">Process(String fileCategory,</text>
<text text-anchor="start" x="248.95" y="-216.5" font-family="Helvetica,sans-Serif" font-size="10.00"> String fileExtension)</text>
<text text-anchor="start" x="248.95" y="-205.5" font-family="Helvetica,sans-Serif" font-size="10.00">&#45; String executePlugin</text>
<text text-anchor="start" x="248.95" y="-194.5" font-family="Helvetica,sans-Serif" font-size="10.00">(String extensionPlugin,</text>
<text text-anchor="start" x="248.95" y="-183.5" font-family="Helvetica,sans-Serif" font-size="10.00"> Map&lt; String, StepConfig</text>
<text text-anchor="start" x="248.95" y="-172.5" font-family="Helvetica,sans-Serif" font-size="10.00"> &gt; stepConfigs, String fileExtension)</text>
<text text-anchor="start" x="248.95" y="-161.5" font-family="Helvetica,sans-Serif" font-size="10.00">&#45; boolean isBlank(String str)</text>
<text text-anchor="start" x="248.95" y="-150.5" font-family="Helvetica,sans-Serif" font-size="10.00">&#45; Boolean deleteTempDir</text>
<text text-anchor="start" x="248.95" y="-139.5" font-family="Helvetica,sans-Serif" font-size="10.00">(Path tempFilePath)</text>
<text text-anchor="start" x="248.95" y="-128.5" font-family="Helvetica,sans-Serif" font-size="10.00">&#45; String getFileExtension</text>
<text text-anchor="start" x="248.95" y="-117.5" font-family="Helvetica,sans-Serif" font-size="10.00">(String fileName)</text>
<text text-anchor="start" x="248.95" y="-106.5" font-family="Helvetica,sans-Serif" font-size="10.00">&#45; String calculateChecksum</text>
<text text-anchor="start" x="248.95" y="-95.5" font-family="Helvetica,sans-Serif" font-size="10.00">(byte[] fileBytes)</text>
<text text-anchor="start" x="248.95" y="-84.5" font-family="Helvetica,sans-Serif" font-size="10.00">&#45; String saveFileToOutputDir</text>
<text text-anchor="start" x="248.95" y="-73.5" font-family="Helvetica,sans-Serif" font-size="10.00">(String fileCategory, String</text>
<text text-anchor="start" x="248.95" y="-62.5" font-family="Helvetica,sans-Serif" font-size="10.00"> fileExtension, Path outDir,</text>
<text text-anchor="start" x="248.95" y="-51.5" font-family="Helvetica,sans-Serif" font-size="10.00"> String fileName, byte[] fileBytes)</text>
<text text-anchor="start" x="248.95" y="-40.5" font-family="Helvetica,sans-Serif" font-size="10.00">&#45; String setFileAttributes</text>
<text text-anchor="start" x="248.95" y="-29.5" font-family="Helvetica,sans-Serif" font-size="10.00">(Path targetFilePath, String</text>
<text text-anchor="start" x="248.95" y="-18.5" font-family="Helvetica,sans-Serif" font-size="10.00"> changeOwnershipUser, String</text>
<text text-anchor="start" x="248.95" y="-7.5" font-family="Helvetica,sans-Serif" font-size="10.00"> changePermissionsMode)</text>
</a>
</g>
</g>
<!-- Node2 -->
<g id="node2" class="node">
<title>Node2</title>
<g id="a_node2"><a xlink:title=" ">
<polygon fill="white" stroke="#666666" points="60.95,-2348 60.95,-2405 106.95,-2405 106.95,-2348 60.95,-2348"/>
<text text-anchor="middle" x="83.95" y="-2393" font-family="Helvetica,sans-Serif" font-size="10.00">Logger</text>
<polyline fill="none" stroke="#666666" points="60.95,-2386 106.95,-2386"/>
<text text-anchor="middle" x="83.95" y="-2374" font-family="Helvetica,sans-Serif" font-size="10.00"> </text>
<polyline fill="none" stroke="#666666" points="60.95,-2367 106.95,-2367"/>
<text text-anchor="middle" x="83.95" y="-2355" font-family="Helvetica,sans-Serif" font-size="10.00"> </text>
</a>
</g>
</g>
<!-- Node2&#45;&gt;Node1 -->
<g id="edge1" class="edge">
<title>Node2&#45;&gt;Node1</title>
<path fill="none" stroke="#404040" d="M77.86,-2348.18C50.44,-2220.62 -55.99,-1671.69 39.95,-1238 77.42,-1068.62 163.95,-890.97 234.67,-764.76"/>
<polygon fill="none" stroke="#404040" points="234.69,-764.72 234.15,-757.53 240.58,-754.26 241.12,-761.46 234.69,-764.72"/>
<text text-anchor="middle" x="34.95" y="-1872.5" font-family="Helvetica,sans-Serif" font-size="10.00"> &#45;LOGGER</text>
</g>
<!-- Node7 -->
<g id="node7" class="node">
<title>Node7</title>
<g id="a_node7"><a xlink:href="classdev_1_1filechampion_1_1filechampion4j_1_1_extensions.html" target="_top" xlink:title=" ">
<polygon fill="white" stroke="#666666" points="151.45,-1904.5 151.45,-2236.5 312.45,-2236.5 312.45,-1904.5 151.45,-1904.5"/>
<text text-anchor="start" x="159.45" y="-2224.5" font-family="Helvetica,sans-Serif" font-size="10.00">dev.filechampion.filechampion4j.</text>
<text text-anchor="middle" x="231.95" y="-2213.5" font-family="Helvetica,sans-Serif" font-size="10.00">Extensions</text>
<polyline fill="none" stroke="#666666" points="151.45,-2206.5 312.45,-2206.5"/>
<text text-anchor="start" x="159.45" y="-2194.5" font-family="Helvetica,sans-Serif" font-size="10.00">&#45; StringBuilder sbLogMessage</text>
<text text-anchor="start" x="159.45" y="-2183.5" font-family="Helvetica,sans-Serif" font-size="10.00">&#45; String sharedMessage1</text>
<text text-anchor="start" x="159.45" y="-2172.5" font-family="Helvetica,sans-Serif" font-size="10.00">&#45; String sharedMessage2</text>
<polyline fill="none" stroke="#666666" points="151.45,-2165.5 312.45,-2165.5"/>
<text text-anchor="start" x="159.45" y="-2153.5" font-family="Helvetica,sans-Serif" font-size="10.00">+ Extensions(JSONObject</text>
<text text-anchor="start" x="159.45" y="-2142.5" font-family="Helvetica,sans-Serif" font-size="10.00"> jsonObject)</text>
<text text-anchor="start" x="159.45" y="-2131.5" font-family="Helvetica,sans-Serif" font-size="10.00">+ Object getValidationValue</text>
<text text-anchor="start" x="159.45" y="-2120.5" font-family="Helvetica,sans-Serif" font-size="10.00">(String category, String</text>
<text text-anchor="start" x="159.45" y="-2109.5" font-family="Helvetica,sans-Serif" font-size="10.00"> extension, String validationKey)</text>
<text text-anchor="start" x="159.45" y="-2098.5" font-family="Helvetica,sans-Serif" font-size="10.00">~ [static initializer]</text>
<text text-anchor="start" x="159.45" y="-2087.5" font-family="Helvetica,sans-Serif" font-size="10.00">&#45; void logInfo(String</text>
<text text-anchor="start" x="159.45" y="-2076.5" font-family="Helvetica,sans-Serif" font-size="10.00"> message)</text>
<text text-anchor="start" x="159.45" y="-2065.5" font-family="Helvetica,sans-Serif" font-size="10.00">&#45; void logWarn(String</text>
<text text-anchor="start" x="159.45" y="-2054.5" font-family="Helvetica,sans-Serif" font-size="10.00"> message)</text>
<text text-anchor="start" x="159.45" y="-2043.5" font-family="Helvetica,sans-Serif" font-size="10.00">&#45; void logFine(String</text>
<text text-anchor="start" x="159.45" y="-2032.5" font-family="Helvetica,sans-Serif" font-size="10.00"> message)</text>
<text text-anchor="start" x="159.45" y="-2021.5" font-family="Helvetica,sans-Serif" font-size="10.00">&#45; void mapConfiguredExtensions()</text>
<text text-anchor="start" x="159.45" y="-2010.5" font-family="Helvetica,sans-Serif" font-size="10.00">&#45; void mapExtensionValidations()</text>
<text text-anchor="start" x="159.45" y="-1999.5" font-family="Helvetica,sans-Serif" font-size="10.00">&#45; void setString(String</text>
<text text-anchor="start" x="159.45" y="-1988.5" font-family="Helvetica,sans-Serif" font-size="10.00"> validation, Object value)</text>
<text text-anchor="start" x="159.45" y="-1977.5" font-family="Helvetica,sans-Serif" font-size="10.00">&#45; void setBoolean(String</text>
<text text-anchor="start" x="159.45" y="-1966.5" font-family="Helvetica,sans-Serif" font-size="10.00"> validation, Object value)</text>
<text text-anchor="start" x="159.45" y="-1955.5" font-family="Helvetica,sans-Serif" font-size="10.00">&#45; void setArrayList(String</text>
<text text-anchor="start" x="159.45" y="-1944.5" font-family="Helvetica,sans-Serif" font-size="10.00"> validation, Object value)</text>
<text text-anchor="start" x="159.45" y="-1933.5" font-family="Helvetica,sans-Serif" font-size="10.00">&#45; void checkInputs(String</text>
<text text-anchor="start" x="159.45" y="-1922.5" font-family="Helvetica,sans-Serif" font-size="10.00"> category, String extension,</text>
<text text-anchor="start" x="159.45" y="-1911.5" font-family="Helvetica,sans-Serif" font-size="10.00"> String validationKey)</text>
</a>
</g>
</g>
<!-- Node2&#45;&gt;Node7 -->
<g id="edge8" class="edge">
<title>Node2&#45;&gt;Node7</title>
<path fill="none" stroke="#404040" d="M94.03,-2348.34C103.4,-2323.68 118.12,-2286.46 132.95,-2255 137,-2246.41 141.26,-2237.64 145.65,-2228.84"/>
<polygon fill="none" stroke="#404040" points="145.68,-2228.78 144.8,-2221.62 151.07,-2218.06 151.95,-2225.22 145.68,-2228.78"/>
<text text-anchor="middle" x="156.95" y="-2287" font-family="Helvetica,sans-Serif" font-size="10.00"> &#45;LOGGER</text>
</g>
<!-- Node12 -->
<g id="node12" class="node">
<title>Node12</title>
<g id="a_node12"><a xlink:href="classdev_1_1filechampion_1_1filechampion4j_1_1_validations_helper.html" target="_top" xlink:title=" ">
<polygon fill="white" stroke="#666666" points="49.45,-1238.5 49.45,-1845.5 222.45,-1845.5 222.45,-1238.5 49.45,-1238.5"/>
<text text-anchor="start" x="57.45" y="-1833.5" font-family="Helvetica,sans-Serif" font-size="10.00">dev.filechampion.filechampion4j.</text>
<text text-anchor="middle" x="135.95" y="-1822.5" font-family="Helvetica,sans-Serif" font-size="10.00">ValidationsHelper</text>
<polyline fill="none" stroke="#666666" points="49.45,-1815.5 222.45,-1815.5"/>
<text text-anchor="start" x="57.45" y="-1803.5" font-family="Helvetica,sans-Serif" font-size="10.00">&#45; boolean failFast</text>
<text text-anchor="start" x="57.45" y="-1792.5" font-family="Helvetica,sans-Serif" font-size="10.00">&#45; StringBuilder sharedString</text>
<text text-anchor="start" x="57.45" y="-1781.5" font-family="Helvetica,sans-Serif" font-size="10.00">Builder</text>
<text text-anchor="start" x="57.45" y="-1770.5" font-family="Helvetica,sans-Serif" font-size="10.00">&#45; String fileCategory</text>
<text text-anchor="start" x="57.45" y="-1759.5" font-family="Helvetica,sans-Serif" font-size="10.00">&#45; byte[] originalFile</text>
<text text-anchor="start" x="57.45" y="-1748.5" font-family="Helvetica,sans-Serif" font-size="10.00">&#45; String mimeString</text>
<text text-anchor="start" x="57.45" y="-1737.5" font-family="Helvetica,sans-Serif" font-size="10.00">&#45; String fileExtension</text>
<text text-anchor="start" x="57.45" y="-1726.5" font-family="Helvetica,sans-Serif" font-size="10.00">&#45; String commonLogString</text>
<text text-anchor="start" x="57.45" y="-1715.5" font-family="Helvetica,sans-Serif" font-size="10.00">&#45; int responseMsgCountFail</text>
<text text-anchor="start" x="57.45" y="-1704.5" font-family="Helvetica,sans-Serif" font-size="10.00">&#45; StringBuilder sbresponse</text>
<text text-anchor="start" x="57.45" y="-1693.5" font-family="Helvetica,sans-Serif" font-size="10.00">AggregationFail</text>
<text text-anchor="start" x="57.45" y="-1682.5" font-family="Helvetica,sans-Serif" font-size="10.00">&#45; int responseMsgCountSuccess</text>
<text text-anchor="start" x="57.45" y="-1671.5" font-family="Helvetica,sans-Serif" font-size="10.00">&#45; StringBuilder sbresponse</text>
<text text-anchor="start" x="57.45" y="-1660.5" font-family="Helvetica,sans-Serif" font-size="10.00">AggregationSuccess</text>
<polyline fill="none" stroke="#666666" points="49.45,-1653.5 222.45,-1653.5"/>
<text text-anchor="start" x="57.45" y="-1641.5" font-family="Helvetica,sans-Serif" font-size="10.00">+ ValidationsHelper</text>
<text text-anchor="start" x="57.45" y="-1630.5" font-family="Helvetica,sans-Serif" font-size="10.00">(Extensions extensions)</text>
<text text-anchor="start" x="57.45" y="-1619.5" font-family="Helvetica,sans-Serif" font-size="10.00">+ StringBuilder getValidation</text>
<text text-anchor="start" x="57.45" y="-1608.5" font-family="Helvetica,sans-Serif" font-size="10.00">Results(String fileCategory,</text>
<text text-anchor="start" x="57.45" y="-1597.5" font-family="Helvetica,sans-Serif" font-size="10.00"> String fileName, byte[] originalFile,</text>
<text text-anchor="start" x="57.45" y="-1586.5" font-family="Helvetica,sans-Serif" font-size="10.00"> String mimeString)</text>
<text text-anchor="start" x="57.45" y="-1575.5" font-family="Helvetica,sans-Serif" font-size="10.00">~ [static initializer]</text>
<text text-anchor="start" x="57.45" y="-1564.5" font-family="Helvetica,sans-Serif" font-size="10.00">&#45; StringBuilder doValidations()</text>
<text text-anchor="start" x="57.45" y="-1553.5" font-family="Helvetica,sans-Serif" font-size="10.00">&#45; void logWarn(StringBuilder</text>
<text text-anchor="start" x="57.45" y="-1542.5" font-family="Helvetica,sans-Serif" font-size="10.00"> message)</text>
<text text-anchor="start" x="57.45" y="-1531.5" font-family="Helvetica,sans-Serif" font-size="10.00">&#45; void logFine(StringBuilder</text>
<text text-anchor="start" x="57.45" y="-1520.5" font-family="Helvetica,sans-Serif" font-size="10.00"> message)</text>
<text text-anchor="start" x="57.45" y="-1509.5" font-family="Helvetica,sans-Serif" font-size="10.00">&#45; boolean isBlank(String str)</text>
<text text-anchor="start" x="57.45" y="-1498.5" font-family="Helvetica,sans-Serif" font-size="10.00">&#45; StringBuilder checkFileSize()</text>
<text text-anchor="start" x="57.45" y="-1487.5" font-family="Helvetica,sans-Serif" font-size="10.00">&#45; StringBuilder checkMimeType()</text>
<text text-anchor="start" x="57.45" y="-1476.5" font-family="Helvetica,sans-Serif" font-size="10.00">&#45; String getFileExtension</text>
<text text-anchor="start" x="57.45" y="-1465.5" font-family="Helvetica,sans-Serif" font-size="10.00">(String fileName)</text>
<text text-anchor="start" x="57.45" y="-1454.5" font-family="Helvetica,sans-Serif" font-size="10.00">&#45; StringBuilder containsMagic</text>
<text text-anchor="start" x="57.45" y="-1443.5" font-family="Helvetica,sans-Serif" font-size="10.00">Bytes()</text>
<text text-anchor="start" x="57.45" y="-1432.5" font-family="Helvetica,sans-Serif" font-size="10.00">&#45; boolean containsMagicBytes</text>
<text text-anchor="start" x="57.45" y="-1421.5" font-family="Helvetica,sans-Serif" font-size="10.00">Processor(byte[] originalFileBytes,</text>
<text text-anchor="start" x="57.45" y="-1410.5" font-family="Helvetica,sans-Serif" font-size="10.00"> String magicBytesPattern)</text>
<text text-anchor="start" x="57.45" y="-1399.5" font-family="Helvetica,sans-Serif" font-size="10.00">&#45; StringBuilder containsHeader</text>
<text text-anchor="start" x="57.45" y="-1388.5" font-family="Helvetica,sans-Serif" font-size="10.00">Signatures()</text>
<text text-anchor="start" x="57.45" y="-1377.5" font-family="Helvetica,sans-Serif" font-size="10.00">&#45; boolean containsHeaderSignatures</text>
<text text-anchor="start" x="57.45" y="-1366.5" font-family="Helvetica,sans-Serif" font-size="10.00">Processor(byte[] fileBytes,</text>
<text text-anchor="start" x="57.45" y="-1355.5" font-family="Helvetica,sans-Serif" font-size="10.00"> String headerSignaturesPattern)</text>
<text text-anchor="start" x="57.45" y="-1344.5" font-family="Helvetica,sans-Serif" font-size="10.00">&#45; StringBuilder containsFooter</text>
<text text-anchor="start" x="57.45" y="-1333.5" font-family="Helvetica,sans-Serif" font-size="10.00">Signatures()</text>
<text text-anchor="start" x="57.45" y="-1322.5" font-family="Helvetica,sans-Serif" font-size="10.00">&#45; boolean containsFooterSignatures</text>
<text text-anchor="start" x="57.45" y="-1311.5" font-family="Helvetica,sans-Serif" font-size="10.00">Processor(byte[] fileBytes,</text>
<text text-anchor="start" x="57.45" y="-1300.5" font-family="Helvetica,sans-Serif" font-size="10.00"> String footerSignaturesPattern)</text>
<text text-anchor="start" x="57.45" y="-1289.5" font-family="Helvetica,sans-Serif" font-size="10.00">&#45; Path saveFileToTempDir</text>
<text text-anchor="start" x="57.45" y="-1278.5" font-family="Helvetica,sans-Serif" font-size="10.00">(String fileExtension,</text>
<text text-anchor="start" x="57.45" y="-1267.5" font-family="Helvetica,sans-Serif" font-size="10.00"> byte[] originalFile)</text>
<text text-anchor="start" x="57.45" y="-1256.5" font-family="Helvetica,sans-Serif" font-size="10.00">&#45; Boolean deleteTempDir</text>
<text text-anchor="start" x="57.45" y="-1245.5" font-family="Helvetica,sans-Serif" font-size="10.00">(Path tempFilePath)</text>
</a>
</g>
</g>
<!-- Node2&#45;&gt;Node12 -->
<g id="edge16" class="edge">
<title>Node2&#45;&gt;Node12</title>
<path fill="none" stroke="#404040" d="M83.63,-2348.09C82.97,-2275.53 82.39,-2072.47 93.95,-1904 94.99,-1888.85 96.21,-1873.36 97.56,-1857.72"/>
<polygon fill="none" stroke="#404040" points="97.53,-1858.01 94.07,-1851.68 98.59,-1846.06 102.04,-1852.38 97.53,-1858.01"/>
<text text-anchor="middle" x="117.95" y="-2068" font-family="Helvetica,sans-Serif" font-size="10.00"> &#45;LOGGER</text>
</g>
<!-- Node3 -->
<g id="node3" class="node">
<title>Node3</title>
<g id="a_node3"><a xlink:title=" ">
<polygon fill="white" stroke="#666666" points="468.45,-2042 468.45,-2099 539.45,-2099 539.45,-2042 468.45,-2042"/>
<text text-anchor="middle" x="503.95" y="-2087" font-family="Helvetica,sans-Serif" font-size="10.00">JSONObject</text>
<polyline fill="none" stroke="#666666" points="468.45,-2080 539.45,-2080"/>
<text text-anchor="middle" x="503.95" y="-2068" font-family="Helvetica,sans-Serif" font-size="10.00"> </text>
<polyline fill="none" stroke="#666666" points="468.45,-2061 539.45,-2061"/>
<text text-anchor="middle" x="503.95" y="-2049" font-family="Helvetica,sans-Serif" font-size="10.00"> </text>
</a>
</g>
</g>
<!-- Node3&#45;&gt;Node1 -->
<g id="edge2" class="edge">
<title>Node3&#45;&gt;Node1</title>
<path fill="none" stroke="#404040" d="M508.83,-2042.09C516.04,-2000.07 529.2,-1917.09 533.95,-1846 551.97,-1576.38 572.98,-1505.39 533.95,-1238 516.21,-1116.44 480.64,-985.97 444.83,-874.26"/>
<polygon fill="none" stroke="#404040" points="444.87,-874.4 439.22,-869.92 441.19,-862.98 446.84,-867.46 444.87,-874.4"/>
<text text-anchor="middle" x="596.45" y="-1539.5" font-family="Helvetica,sans-Serif" font-size="10.00"> &#45;configJsonObject</text>
</g>
<!-- Node4 -->
<g id="node4" class="node">
<title>Node4</title>
<g id="a_node4"><a xlink:href="classdev_1_1filechampion_1_1filechampion4j_1_1_plugins_helper.html" target="_top" xlink:title=" ">
<polygon fill="white" stroke="#666666" points="369.45,-1491.5 369.45,-1592.5 524.45,-1592.5 524.45,-1491.5 369.45,-1491.5"/>
<text text-anchor="start" x="377.45" y="-1580.5" font-family="Helvetica,sans-Serif" font-size="10.00">dev.filechampion.filechampion4j.</text>
<text text-anchor="middle" x="446.95" y="-1569.5" font-family="Helvetica,sans-Serif" font-size="10.00">PluginsHelper</text>
<polyline fill="none" stroke="#666666" points="369.45,-1562.5 524.45,-1562.5"/>
<text text-anchor="middle" x="446.95" y="-1550.5" font-family="Helvetica,sans-Serif" font-size="10.00"> </text>
<polyline fill="none" stroke="#666666" points="369.45,-1543.5 524.45,-1543.5"/>
<text text-anchor="start" x="377.45" y="-1531.5" font-family="Helvetica,sans-Serif" font-size="10.00">+ PluginsHelper(JSONObject</text>
<text text-anchor="start" x="377.45" y="-1520.5" font-family="Helvetica,sans-Serif" font-size="10.00"> plugins)</text>
<text text-anchor="start" x="377.45" y="-1509.5" font-family="Helvetica,sans-Serif" font-size="10.00">+ Map&lt; String, PluginConfig</text>
<text text-anchor="start" x="377.45" y="-1498.5" font-family="Helvetica,sans-Serif" font-size="10.00"> &gt; getPluginConfigs()</text>
</a>
</g>
</g>
<!-- Node3&#45;&gt;Node4 -->
<g id="edge4" class="edge">
<title>Node3&#45;&gt;Node4</title>
<path fill="none" stroke="#404040" d="M501.01,-2042.3C492.23,-1961.2 466.07,-1719.57 453.64,-1604.82"/>
<polygon fill="none" stroke="#404040" points="453.66,-1604.96 449.04,-1599.42 452.37,-1593.03 456.99,-1598.56 453.66,-1604.96"/>
<text text-anchor="middle" x="501.45" y="-1872.5" font-family="Helvetica,sans-Serif" font-size="10.00"> &#45;plugins</text>
</g>
<!-- Node4&#45;&gt;Node1 -->
<g id="edge3" class="edge">
<title>Node4&#45;&gt;Node1</title>
<path fill="none" stroke="#404040" d="M441.44,-1491.59C434.57,-1430.01 422.01,-1317.5 408.05,-1192.37"/>
<polygon fill="none" stroke="#404040" points="408.04,-1192.26 403.4,-1186.74 406.71,-1180.33 411.35,-1185.85 408.04,-1192.26"/>
<text text-anchor="middle" x="441.45" y="-1206.5" font-family="Helvetica,sans-Serif" font-size="10.00"> &#45;pluginsHelper</text>
</g>
<!-- Node5 -->
<g id="node5" class="node">
<title>Node5</title>
<g id="a_node5"><a xlink:title=" ">
<polygon fill="white" stroke="#666666" points="469.45,-2255.5 469.45,-2323.5 684.45,-2323.5 684.45,-2255.5 469.45,-2255.5"/>
<text text-anchor="start" x="477.45" y="-2311.5" font-family="Helvetica,sans-Serif" font-size="10.00">Map&lt; String, dev.filechampion.filechampion4j.</text>
<text text-anchor="middle" x="576.95" y="-2300.5" font-family="Helvetica,sans-Serif" font-size="10.00">PluginsHelper.StepConfig &gt;</text>
<polyline fill="none" stroke="#666666" points="469.45,-2293.5 684.45,-2293.5"/>
<text text-anchor="middle" x="576.95" y="-2281.5" font-family="Helvetica,sans-Serif" font-size="10.00"> </text>
<polyline fill="none" stroke="#666666" points="469.45,-2274.5 684.45,-2274.5"/>
<text text-anchor="middle" x="576.95" y="-2262.5" font-family="Helvetica,sans-Serif" font-size="10.00"> </text>
</a>
</g>
</g>
<!-- Node5&#45;&gt;Node1 -->
<g id="edge5" class="edge">
<title>Node5&#45;&gt;Node1</title>
<path fill="none" stroke="#404040" d="M481,-2255.61C473.18,-2250.27 465.98,-2244.11 459.95,-2237 343.95,-2100.19 383.7,-2023.79 359.95,-1846 343.18,-1720.42 337.73,-1449.97 336.77,-1192.18"/>
<polygon fill="none" stroke="#404040" points="336.77,-1192.03 332.75,-1186.05 336.72,-1180.03 340.74,-1186.02 336.77,-1192.03"/>
<text text-anchor="middle" x="405.95" y="-1878" font-family="Helvetica,sans-Serif" font-size="10.00"> &#45;stepConfigsAfter</text>
<text text-anchor="middle" x="405.95" y="-1867" font-family="Helvetica,sans-Serif" font-size="10.00">&#45;stepConfigsBefore</text>
</g>
<!-- Node6 -->
<g id="node6" class="node">
<title>Node6</title>
<g id="a_node6"><a xlink:title=" ">
<polygon fill="white" stroke="#666666" points="422.45,-2480.5 422.45,-2537.5 457.45,-2537.5 457.45,-2480.5 422.45,-2480.5"/>
<text text-anchor="middle" x="439.95" y="-2525.5" font-family="Helvetica,sans-Serif" font-size="10.00">Map</text>
<polyline fill="none" stroke="#666666" points="422.45,-2518.5 457.45,-2518.5"/>
<text text-anchor="middle" x="439.95" y="-2506.5" font-family="Helvetica,sans-Serif" font-size="10.00"> </text>
<polyline fill="none" stroke="#666666" points="422.45,-2499.5 457.45,-2499.5"/>
<text text-anchor="middle" x="439.95" y="-2487.5" font-family="Helvetica,sans-Serif" font-size="10.00"> </text>
</a>
</g>
</g>
<!-- Node6&#45;&gt;Node5 -->
<g id="edge6" class="edge">
<title>Node6&#45;&gt;Node5</title>
<path fill="none" stroke="orange" d="M467.87,-2503.11C491.75,-2497.42 525.17,-2485.6 543.95,-2462 575.67,-2422.14 579.97,-2360.74 579.18,-2323.23"/>
<polygon fill="orange" stroke="orange" points="467.37,-2499.85 458.33,-2505.37 468.85,-2506.69 467.37,-2499.85"/>
<text text-anchor="start" x="561.95" y="-2454" font-family="Helvetica,sans-Serif" font-size="10.00"> &lt; String, dev::filechampion</text>
<text text-anchor="start" x="561.95" y="-2443" font-family="Helvetica,sans-Serif" font-size="10.00">::filechampion4j::PluginsHelper</text>
<text text-anchor="middle" x="628.95" y="-2432" font-family="Helvetica,sans-Serif" font-size="10.00">::StepConfig &gt;</text>
</g>
<!-- Node8 -->
<g id="node8" class="node">
<title>Node8</title>
<g id="a_node8"><a xlink:title=" ">
<polygon fill="white" stroke="#666666" points="373.95,-2342.5 373.95,-2410.5 505.95,-2410.5 505.95,-2342.5 373.95,-2342.5"/>
<text text-anchor="start" x="381.95" y="-2398.5" font-family="Helvetica,sans-Serif" font-size="10.00">Map&lt; String, Map&lt; String,</text>
<text text-anchor="middle" x="439.95" y="-2387.5" font-family="Helvetica,sans-Serif" font-size="10.00"> Object &gt; &gt;</text>
<polyline fill="none" stroke="#666666" points="373.95,-2380.5 505.95,-2380.5"/>
<text text-anchor="middle" x="439.95" y="-2368.5" font-family="Helvetica,sans-Serif" font-size="10.00"> </text>
<polyline fill="none" stroke="#666666" points="373.95,-2361.5 505.95,-2361.5"/>
<text text-anchor="middle" x="439.95" y="-2349.5" font-family="Helvetica,sans-Serif" font-size="10.00"> </text>
</a>
</g>
</g>
<!-- Node6&#45;&gt;Node8 -->
<g id="edge10" class="edge">
<title>Node6&#45;&gt;Node8</title>
<path fill="none" stroke="orange" d="M439.95,-2469.75C439.95,-2450.91 439.95,-2428.42 439.95,-2410.37"/>
<polygon fill="orange" stroke="orange" points="436.45,-2469.64 439.95,-2479.64 443.45,-2469.64 436.45,-2469.64"/>
<text text-anchor="start" x="439.95" y="-2448.5" font-family="Helvetica,sans-Serif" font-size="10.00"> &lt; String, Map&lt; String,</text>
<text text-anchor="middle" x="489.95" y="-2437.5" font-family="Helvetica,sans-Serif" font-size="10.00"> Object &gt; &gt;</text>
</g>
<!-- Node9 -->
<g id="node9" class="node">
<title>Node9</title>
<g id="a_node9"><a xlink:title=" ">
<polygon fill="white" stroke="#666666" points="242.45,-2348 242.45,-2405 355.45,-2405 355.45,-2348 242.45,-2348"/>
<text text-anchor="middle" x="298.95" y="-2393" font-family="Helvetica,sans-Serif" font-size="10.00">Map&lt; String, Object &gt;</text>
<polyline fill="none" stroke="#666666" points="242.45,-2386 355.45,-2386"/>
<text text-anchor="middle" x="298.95" y="-2374" font-family="Helvetica,sans-Serif" font-size="10.00"> </text>
<polyline fill="none" stroke="#666666" points="242.45,-2367 355.45,-2367"/>
<text text-anchor="middle" x="298.95" y="-2355" font-family="Helvetica,sans-Serif" font-size="10.00"> </text>
</a>
</g>
</g>
<!-- Node6&#45;&gt;Node9 -->
<g id="edge12" class="edge">
<title>Node6&#45;&gt;Node9</title>
<path fill="none" stroke="orange" d="M412.6,-2497.6C394.5,-2489.77 371.05,-2477.69 353.95,-2462 336.28,-2445.79 321.77,-2422.73 312.1,-2404.79"/>
<polygon fill="orange" stroke="orange" points="410.96,-2501.13 421.54,-2501.72 413.64,-2494.66 410.96,-2501.13"/>
<text text-anchor="middle" x="394.95" y="-2443" font-family="Helvetica,sans-Serif" font-size="10.00"> &lt; String, Object &gt;</text>
</g>
<!-- Node7&#45;&gt;Node1 -->
<g id="edge7" class="edge">
<title>Node7&#45;&gt;Node1</title>
<path fill="none" stroke="#404040" d="M243.83,-1904.95C244.22,-1898.55 244.6,-1892.22 244.95,-1886 261.36,-1598.2 251.65,-1525.48 272.95,-1238 274.07,-1222.93 275.25,-1207.67 276.5,-1192.28"/>
<polygon fill="none" stroke="#404040" points="276.51,-1192.18 273.01,-1185.87 277.48,-1180.22 280.98,-1186.52 276.51,-1192.18"/>
<text text-anchor="middle" x="299.95" y="-1539.5" font-family="Helvetica,sans-Serif" font-size="10.00"> &#45;extensions</text>
</g>
<!-- Node7&#45;&gt;Node12 -->
<g id="edge17" class="edge">
<title>Node7&#45;&gt;Node12</title>
<path fill="none" stroke="#404040" d="M194.6,-1904.54C193.34,-1898.29 192.12,-1892.09 190.95,-1886 189.18,-1876.73 187.41,-1867.32 185.66,-1857.81"/>
<polygon fill="none" stroke="#404040" points="185.69,-1857.95 180.68,-1852.76 183.54,-1846.14 188.55,-1851.33 185.69,-1857.95"/>
<text text-anchor="middle" x="217.95" y="-1872.5" font-family="Helvetica,sans-Serif" font-size="10.00"> &#45;extensions</text>
</g>
<!-- Node8&#45;&gt;Node7 -->
<g id="edge9" class="edge">
<title>Node8&#45;&gt;Node7</title>
<path fill="none" stroke="#404040" d="M404.72,-2342.61C399.64,-2336.75 394.83,-2330.45 390.95,-2324 374.3,-2296.29 389.73,-2278.88 367.95,-2255 354.54,-2240.3 341.76,-2250.3 326.95,-2237 325.06,-2235.3 323.19,-2233.55 321.35,-2231.76"/>
<polygon fill="none" stroke="#404040" points="321.35,-2231.75 314.3,-2230.21 313.02,-2223.11 320.06,-2224.66 321.35,-2231.75"/>
<text text-anchor="middle" x="425.95" y="-2292.5" font-family="Helvetica,sans-Serif" font-size="10.00"> &#45;categoriesMap</text>
<text text-anchor="middle" x="425.95" y="-2281.5" font-family="Helvetica,sans-Serif" font-size="10.00">&#45;extensionsMap</text>
</g>
<!-- Node9&#45;&gt;Node7 -->
<g id="edge11" class="edge">
<title>Node9&#45;&gt;Node7</title>
<path fill="none" stroke="#404040" d="M293.78,-2348.17C289.09,-2323.71 281.86,-2286.9 274.95,-2255 274.52,-2253.01 274.08,-2251 273.64,-2248.99"/>
<polygon fill="none" stroke="#404040" points="273.67,-2249.09 268.47,-2244.1 271.09,-2237.38 276.28,-2242.37 273.67,-2249.09"/>
<text text-anchor="middle" x="326.95" y="-2292.5" font-family="Helvetica,sans-Serif" font-size="10.00"> &#45;validationCache</text>
<text text-anchor="middle" x="326.95" y="-2281.5" font-family="Helvetica,sans-Serif" font-size="10.00">&#45;validationsMap</text>
</g>
<!-- Node10 -->
<g id="node10" class="node">
<title>Node10</title>
<g id="a_node10"><a xlink:title=" ">
<polygon fill="white" stroke="#666666" points="147.95,-2348 147.95,-2405 223.95,-2405 223.95,-2348 147.95,-2348"/>
<text text-anchor="middle" x="185.95" y="-2393" font-family="Helvetica,sans-Serif" font-size="10.00">List&lt; String &gt;</text>
<polyline fill="none" stroke="#666666" points="147.95,-2386 223.95,-2386"/>
<text text-anchor="middle" x="185.95" y="-2374" font-family="Helvetica,sans-Serif" font-size="10.00"> </text>
<polyline fill="none" stroke="#666666" points="147.95,-2367 223.95,-2367"/>
<text text-anchor="middle" x="185.95" y="-2355" font-family="Helvetica,sans-Serif" font-size="10.00"> </text>
</a>
</g>
</g>
<!-- Node10&#45;&gt;Node7 -->
<g id="edge13" class="edge">
<title>Node10&#45;&gt;Node7</title>
<path fill="none" stroke="#404040" d="M185.04,-2348.1C184.6,-2323.6 184.88,-2286.76 188.95,-2255 189.21,-2252.98 189.48,-2250.94 189.77,-2248.9"/>
<polygon fill="none" stroke="#404040" points="189.75,-2249.02 186.68,-2242.5 191.53,-2237.15 194.59,-2243.68 189.75,-2249.02"/>
<text text-anchor="middle" x="231.95" y="-2298" font-family="Helvetica,sans-Serif" font-size="10.00"> &#45;allowedKeyValues</text>
<text text-anchor="middle" x="231.95" y="-2287" font-family="Helvetica,sans-Serif" font-size="10.00">&#45;boolKeyValues</text>
<text text-anchor="middle" x="231.95" y="-2276" font-family="Helvetica,sans-Serif" font-size="10.00">&#45;stringKeyValues</text>
</g>
<!-- Node11 -->
<g id="node11" class="node">
<title>Node11</title>
<g id="a_node11"><a xlink:title=" ">
<polygon fill="white" stroke="#666666" points="169.95,-2480.5 169.95,-2537.5 201.95,-2537.5 201.95,-2480.5 169.95,-2480.5"/>
<text text-anchor="middle" x="185.95" y="-2525.5" font-family="Helvetica,sans-Serif" font-size="10.00">List</text>
<polyline fill="none" stroke="#666666" points="169.95,-2518.5 201.95,-2518.5"/>
<text text-anchor="middle" x="185.95" y="-2506.5" font-family="Helvetica,sans-Serif" font-size="10.00"> </text>
<polyline fill="none" stroke="#666666" points="169.95,-2499.5 201.95,-2499.5"/>
<text text-anchor="middle" x="185.95" y="-2487.5" font-family="Helvetica,sans-Serif" font-size="10.00"> </text>
</a>
</g>
</g>
<!-- Node11&#45;&gt;Node10 -->
<g id="edge14" class="edge">
<title>Node11&#45;&gt;Node10</title>
<path fill="none" stroke="orange" d="M185.95,-2469.9C185.95,-2449.05 185.95,-2423.69 185.95,-2404.82"/>
<polygon fill="orange" stroke="orange" points="182.45,-2469.64 185.95,-2479.64 189.45,-2469.64 182.45,-2469.64"/>
<text text-anchor="middle" x="209.45" y="-2443" font-family="Helvetica,sans-Serif" font-size="10.00"> &lt; String &gt;</text>
</g>
<!-- Node12&#45;&gt;Node1 -->
<g id="edge15" class="edge">
<title>Node12&#45;&gt;Node1</title>
<path fill="none" stroke="#404040" d="M159.09,-1238.94C161.18,-1225.07 163.46,-1211.37 165.95,-1198 183.78,-1102.16 210.33,-999.7 237.39,-906.77"/>
<polygon fill="none" stroke="#404040" points="237.41,-906.69 235.26,-899.81 240.78,-895.17 242.94,-902.06 237.41,-906.69"/>
<text text-anchor="middle" x="205.45" y="-1206.5" font-family="Helvetica,sans-Serif" font-size="10.00"> &#45;validationsHelper</text>
</g>
<!-- Node13 -->
<g id="node13" class="node">
<title>Node13</title>
<g id="a_node13"><a xlink:title=" ">
<polygon fill="white" stroke="#666666" points="660.45,-1513.5 660.45,-1570.5 697.45,-1570.5 697.45,-1513.5 660.45,-1513.5"/>
<text text-anchor="middle" x="678.95" y="-1558.5" font-family="Helvetica,sans-Serif" font-size="10.00">Path</text>
<polyline fill="none" stroke="#666666" points="660.45,-1551.5 697.45,-1551.5"/>
<text text-anchor="middle" x="678.95" y="-1539.5" font-family="Helvetica,sans-Serif" font-size="10.00"> </text>
<polyline fill="none" stroke="#666666" points="660.45,-1532.5 697.45,-1532.5"/>
<text text-anchor="middle" x="678.95" y="-1520.5" font-family="Helvetica,sans-Serif" font-size="10.00"> </text>
</a>
</g>
</g>
<!-- Node13&#45;&gt;Node1 -->
<g id="edge18" class="edge">
<title>Node13&#45;&gt;Node1</title>
<path fill="none" stroke="#404040" d="M678.98,-1513.68C678.38,-1459.87 673.78,-1336.81 645.95,-1238 599.72,-1073.82 515.29,-899.56 446.97,-773.3"/>
<polygon fill="none" stroke="#404040" points="446.99,-773.34 440.61,-769.98 441.26,-762.8 447.64,-766.16 446.99,-773.34"/>
<text text-anchor="middle" x="659.45" y="-1212" font-family="Helvetica,sans-Serif" font-size="10.00"> &#45;filePath</text>
<text text-anchor="middle" x="659.45" y="-1201" font-family="Helvetica,sans-Serif" font-size="10.00">&#45;outDir</text>
</g>
</g>
</svg>
