<?xml version="1.0" encoding="UTF-8" standalone="no"?>
<!DOCTYPE svg PUBLIC "-//W3C//DTD SVG 1.1//EN"
 "http://www.w3.org/Graphics/SVG/1.1/DTD/svg11.dtd">
<!-- Generated by graphviz version 8.0.3 (20230416.2022)
 -->
<!-- Title: dev.filechampion.filechampion4j.FileValidator.FileValidator Pages: 1 -->
<svg width="821pt" height="914pt"
 viewBox="0.00 0.00 821.00 914.00" xmlns="http://www.w3.org/2000/svg" xmlns:xlink="http://www.w3.org/1999/xlink">
<g id="graph0" class="graph" transform="scale(1 1) rotate(0) translate(4 910)">
<title>dev.filechampion.filechampion4j.FileValidator.FileValidator</title>
<!-- Node1 -->
<g id="node1" class="node">
<title>Node1</title>
<g id="a_node1"><a xlink:title=" ">
<polygon fill="#999999" stroke="#666666" points="155,-863 0,-863 0,-833 155,-833 155,-863"/>
<text text-anchor="start" x="8" y="-851" font-family="Helvetica,sans-Serif" font-size="10.00">dev.filechampion.filechampion4j.</text>
<text text-anchor="middle" x="77.5" y="-840" font-family="Helvetica,sans-Serif" font-size="10.00">FileValidator.FileValidator</text>
</a>
</g>
</g>
<!-- Node2 -->
<g id="node2" class="node">
<title>Node2</title>
<g id="a_node2"><a xlink:href="classdev_1_1filechampion_1_1filechampion4j_1_1_file_validator.html#a62c4a7a9000c3144937697051081dce2" target="_top" xlink:title=" ">
<polygon fill="white" stroke="#666666" points="350,-906 191,-906 191,-876 350,-876 350,-906"/>
<text text-anchor="start" x="199" y="-894" font-family="Helvetica,sans-Serif" font-size="10.00">dev.filechampion.filechampion4j.</text>
<text text-anchor="middle" x="270.5" y="-883" font-family="Helvetica,sans-Serif" font-size="10.00">FileValidator.checkPluginsConfig</text>
</a>
</g>
</g>
<!-- Node1&#45;&gt;Node2 -->
<g id="edge1" class="edge">
<title>Node1&#45;&gt;Node2</title>
<path fill="none" stroke="#63b8ff" d="M147.19,-863.46C161.21,-866.62 176.08,-869.97 190.44,-873.2"/>
<polygon fill="#63b8ff" stroke="#63b8ff" points="189.26,-876.75 199.78,-875.53 190.8,-869.92 189.26,-876.75"/>
</g>
<!-- Node4 -->
<g id="node4" class="node">
<title>Node4</title>
<g id="a_node4"><a xlink:href="classdev_1_1filechampion_1_1filechampion4j_1_1_file_validator.html#a4d3fd6787fcd920751c75b9c1d4c878d" target="_top" xlink:title=" ">
<polygon fill="white" stroke="#666666" points="786,-906 631,-906 631,-876 786,-876 786,-906"/>
<text text-anchor="start" x="639" y="-894" font-family="Helvetica,sans-Serif" font-size="10.00">dev.filechampion.filechampion4j.</text>
<text text-anchor="middle" x="708.5" y="-883" font-family="Helvetica,sans-Serif" font-size="10.00">FileValidator.logWarn</text>
</a>
</g>
</g>
<!-- Node1&#45;&gt;Node4 -->
<g id="edge26" class="edge">
<title>Node1&#45;&gt;Node4</title>
<path fill="none" stroke="#63b8ff" d="M155.45,-847.86C252.06,-848.41 422.73,-851.75 568,-867 584.9,-868.77 602.85,-871.34 620.05,-874.14"/>
<polygon fill="#63b8ff" stroke="#63b8ff" points="619.2,-877.72 629.64,-875.91 620.35,-870.81 619.2,-877.72"/>
</g>
<!-- Node5 -->
<g id="node5" class="node">
<title>Node5</title>
<g id="a_node5"><a xlink:href="classdev_1_1filechampion_1_1filechampion4j_1_1_file_validator.html#aaa8d5ebc07f168c5750e4ed575592a33" target="_top" xlink:title=" ">
<polygon fill="white" stroke="#666666" points="348,-450 193,-450 193,-420 348,-420 348,-450"/>
<text text-anchor="start" x="201" y="-438" font-family="Helvetica,sans-Serif" font-size="10.00">dev.filechampion.filechampion4j.</text>
<text text-anchor="middle" x="270.5" y="-427" font-family="Helvetica,sans-Serif" font-size="10.00">FileValidator.loadPlugins</text>
</a>
</g>
</g>
<!-- Node1&#45;&gt;Node5 -->
<g id="edge4" class="edge">
<title>Node1&#45;&gt;Node5</title>
<path fill="none" stroke="#63b8ff" d="M85.52,-832.81C114.13,-770.96 222.01,-537.68 257.85,-460.19"/>
<polygon fill="#63b8ff" stroke="#63b8ff" points="261.39,-461.87 262.41,-451.33 255.04,-458.93 261.39,-461.87"/>
</g>
<!-- Node3 -->
<g id="node3" class="node">
<title>Node3</title>
<g id="a_node3"><a xlink:href="classdev_1_1filechampion_1_1filechampion4j_1_1_file_validator.html#a4e885231ccddcf38fe15a3caa3168c2b" target="_top" xlink:title=" ">
<polygon fill="white" stroke="#666666" points="554.5,-906 399.5,-906 399.5,-876 554.5,-876 554.5,-906"/>
<text text-anchor="start" x="407.5" y="-894" font-family="Helvetica,sans-Serif" font-size="10.00">dev.filechampion.filechampion4j.</text>
<text text-anchor="middle" x="477" y="-883" font-family="Helvetica,sans-Serif" font-size="10.00">FileValidator.checkPluginsExist</text>
</a>
</g>
</g>
<!-- Node2&#45;&gt;Node3 -->
<g id="edge2" class="edge">
<title>Node2&#45;&gt;Node3</title>
<path fill="none" stroke="#63b8ff" d="M350.27,-891C362.84,-891 375.91,-891 388.67,-891"/>
<polygon fill="#63b8ff" stroke="#63b8ff" points="388.29,-894.5 398.29,-891 388.29,-887.5 388.29,-894.5"/>
</g>
<!-- Node3&#45;&gt;Node4 -->
<g id="edge3" class="edge">
<title>Node3&#45;&gt;Node4</title>
<path fill="none" stroke="#63b8ff" d="M554.74,-891C575.7,-891 598.56,-891 620.07,-891"/>
<polygon fill="#63b8ff" stroke="#63b8ff" points="619.83,-894.5 629.83,-891 619.83,-887.5 619.83,-894.5"/>
</g>
<!-- Node6 -->
<g id="node6" class="node">
<title>Node6</title>
<g id="a_node6"><a xlink:href="classdev_1_1filechampion_1_1filechampion4j_1_1_plugins_helper.html#a3c9eff65507c31c8b46a1cf0a2199b8d" target="_top" xlink:title=" ">
<polygon fill="white" stroke="#666666" points="554.5,-474 399.5,-474 399.5,-444 554.5,-444 554.5,-474"/>
<text text-anchor="start" x="407.5" y="-462" font-family="Helvetica,sans-Serif" font-size="10.00">dev.filechampion.filechampion4j.</text>
<text text-anchor="middle" x="477" y="-451" font-family="Helvetica,sans-Serif" font-size="10.00">PluginsHelper.getPluginConfigs</text>
</a>
</g>
</g>
<!-- Node5&#45;&gt;Node6 -->
<g id="edge5" class="edge">
<title>Node5&#45;&gt;Node6</title>
<path fill="none" stroke="#63b8ff" d="M348.23,-444C361.38,-445.55 375.12,-447.16 388.52,-448.73"/>
<polygon fill="#63b8ff" stroke="#63b8ff" points="387.84,-452.29 398.18,-449.98 388.66,-445.34 387.84,-452.29"/>
</g>
<!-- Node25 -->
<g id="node25" class="node">
<title>Node25</title>
<g id="a_node25"><a xlink:href="classdev_1_1filechampion_1_1filechampion4j_1_1_plugins_helper_1_1_step_config.html#a8dbfa1a6e66bfb5bfb6c56267adff512" target="_top" xlink:title=" ">
<polygon fill="white" stroke="#666666" points="564.5,-426 389.5,-426 389.5,-396 564.5,-396 564.5,-426"/>
<text text-anchor="start" x="397.5" y="-414" font-family="Helvetica,sans-Serif" font-size="10.00">dev.filechampion.filechampion4j.</text>
<text text-anchor="middle" x="477" y="-403" font-family="Helvetica,sans-Serif" font-size="10.00">PluginsHelper.StepConfig.isRunAfter</text>
</a>
</g>
</g>
<!-- Node5&#45;&gt;Node25 -->
<g id="edge24" class="edge">
<title>Node5&#45;&gt;Node25</title>
<path fill="none" stroke="#63b8ff" d="M348.23,-426C358.05,-424.84 368.21,-423.65 378.31,-422.47"/>
<polygon fill="#63b8ff" stroke="#63b8ff" points="378.7,-425.83 388.22,-421.18 377.88,-418.87 378.7,-425.83"/>
</g>
<!-- Node26 -->
<g id="node26" class="node">
<title>Node26</title>
<g id="a_node26"><a xlink:href="classdev_1_1filechampion_1_1filechampion4j_1_1_plugins_helper_1_1_step_config.html#a3b12813057481aa1767d859ac8360109" target="_top" xlink:title=" ">
<polygon fill="white" stroke="#666666" points="568,-378 386,-378 386,-348 568,-348 568,-378"/>
<text text-anchor="start" x="394" y="-366" font-family="Helvetica,sans-Serif" font-size="10.00">dev.filechampion.filechampion4j.</text>
<text text-anchor="middle" x="477" y="-355" font-family="Helvetica,sans-Serif" font-size="10.00">PluginsHelper.StepConfig.isRunBefore</text>
</a>
</g>
</g>
<!-- Node5&#45;&gt;Node26 -->
<g id="edge25" class="edge">
<title>Node5&#45;&gt;Node26</title>
<path fill="none" stroke="#63b8ff" d="M304.6,-419.71C327.23,-409.61 358.05,-396.53 386,-387 391.55,-385.11 397.33,-383.27 403.17,-381.51"/>
<polygon fill="#63b8ff" stroke="#63b8ff" points="404.08,-384.6 412.7,-378.43 402.12,-377.88 404.08,-384.6"/>
</g>
<!-- Node7 -->
<g id="node7" class="node">
<title>Node7</title>
<g id="a_node7"><a xlink:href="classdev_1_1filechampion_1_1filechampion4j_1_1_plugins_helper_1_1_step_config.html#ab8380ddb3c9b1838f23cfd3f9f99a7a7" target="_top" xlink:title=" ">
<polygon fill="white" stroke="#666666" points="790.5,-858 626.5,-858 626.5,-828 790.5,-828 790.5,-858"/>
<text text-anchor="start" x="634.5" y="-846" font-family="Helvetica,sans-Serif" font-size="10.00">dev.filechampion.filechampion4j.</text>
<text text-anchor="middle" x="708.5" y="-835" font-family="Helvetica,sans-Serif" font-size="10.00">PluginsHelper.StepConfig.getType</text>
</a>
</g>
</g>
<!-- Node6&#45;&gt;Node7 -->
<g id="edge6" class="edge">
<title>Node6&#45;&gt;Node7</title>
<path fill="none" stroke="#63b8ff" d="M478.42,-474.45C480.8,-530.22 496.77,-722.85 604,-819 607.83,-822.44 612.06,-825.41 616.55,-827.98"/>
<polygon fill="#63b8ff" stroke="#63b8ff" points="614.58,-831.4 625.09,-832.7 617.68,-825.13 614.58,-831.4"/>
</g>
<!-- Node8 -->
<g id="node8" class="node">
<title>Node8</title>
<g id="a_node8"><a xlink:href="classdev_1_1filechampion_1_1filechampion4j_1_1_plugins_helper_1_1_step_config.html#ab0234d43f0445aaf37e40d9726b18a71" target="_top" xlink:title=" ">
<polygon fill="white" stroke="#666666" points="791.5,-810 625.5,-810 625.5,-780 791.5,-780 791.5,-810"/>
<text text-anchor="start" x="633.5" y="-798" font-family="Helvetica,sans-Serif" font-size="10.00">dev.filechampion.filechampion4j.</text>
<text text-anchor="middle" x="708.5" y="-787" font-family="Helvetica,sans-Serif" font-size="10.00">PluginsHelper.StepConfig.setBody</text>
</a>
</g>
</g>
<!-- Node6&#45;&gt;Node8 -->
<g id="edge7" class="edge">
<title>Node6&#45;&gt;Node8</title>
<path fill="none" stroke="#63b8ff" d="M479.31,-474.16C484.55,-524.79 508.54,-689.38 604,-771 607.51,-774 611.32,-776.64 615.34,-778.97"/>
<polygon fill="#63b8ff" stroke="#63b8ff" points="613.56,-782.49 624.07,-783.85 616.7,-776.24 613.56,-782.49"/>
</g>
<!-- Node9 -->
<g id="node9" class="node">
<title>Node9</title>
<g id="a_node9"><a xlink:href="classdev_1_1filechampion_1_1filechampion4j_1_1_plugins_helper_1_1_step_config.html#aaef3dc01014c5c74d3b115936a2273f2" target="_top" xlink:title=" ">
<polygon fill="white" stroke="#666666" points="813,-762 604,-762 604,-732 813,-732 813,-762"/>
<text text-anchor="start" x="612" y="-750" font-family="Helvetica,sans-Serif" font-size="10.00">dev.filechampion.filechampion4j.</text>
<text text-anchor="middle" x="708.5" y="-739" font-family="Helvetica,sans-Serif" font-size="10.00">PluginsHelper.StepConfig.setCliPluginHelper</text>
</a>
</g>
</g>
<!-- Node6&#45;&gt;Node9 -->
<g id="edge8" class="edge">
<title>Node6&#45;&gt;Node9</title>
<path fill="none" stroke="#63b8ff" d="M480.57,-474.38C489.03,-520.06 520.45,-655.9 604,-723 605.43,-724.15 606.91,-725.25 608.43,-726.3"/>
<polygon fill="#63b8ff" stroke="#63b8ff" points="606.15,-729.61 616.52,-731.76 609.75,-723.61 606.15,-729.61"/>
</g>
<!-- Node10 -->
<g id="node10" class="node">
<title>Node10</title>
<g id="a_node10"><a xlink:href="classdev_1_1filechampion_1_1filechampion4j_1_1_plugins_helper_1_1_step_config.html#a6af511bdc0851e573a194a8a57946292" target="_top" xlink:title=" ">
<polygon fill="white" stroke="#666666" points="803,-714 614,-714 614,-684 803,-684 803,-714"/>
<text text-anchor="start" x="622" y="-702" font-family="Helvetica,sans-Serif" font-size="10.00">dev.filechampion.filechampion4j.</text>
<text text-anchor="middle" x="708.5" y="-691" font-family="Helvetica,sans-Serif" font-size="10.00">PluginsHelper.StepConfig.setCredsPath</text>
</a>
</g>
</g>
<!-- Node6&#45;&gt;Node10 -->
<g id="edge9" class="edge">
<title>Node6&#45;&gt;Node10</title>
<path fill="none" stroke="#63b8ff" d="M482.3,-474.43C494.29,-514.4 532.02,-621.93 604,-675 605.67,-676.23 607.39,-677.4 609.16,-678.51"/>
<polygon fill="#63b8ff" stroke="#63b8ff" points="606.9,-681.81 617.34,-683.59 610.29,-675.69 606.9,-681.81"/>
</g>
<!-- Node11 -->
<g id="node11" class="node">
<title>Node11</title>
<g id="a_node11"><a xlink:href="classdev_1_1filechampion_1_1filechampion4j_1_1_plugins_helper_1_1_step_config.html#abdd5d69730eaced237893b1e50a20769" target="_top" xlink:title=" ">
<polygon fill="white" stroke="#666666" points="799.5,-666 617.5,-666 617.5,-636 799.5,-636 799.5,-666"/>
<text text-anchor="start" x="625.5" y="-654" font-family="Helvetica,sans-Serif" font-size="10.00">dev.filechampion.filechampion4j.</text>
<text text-anchor="middle" x="708.5" y="-643" font-family="Helvetica,sans-Serif" font-size="10.00">PluginsHelper.StepConfig.setEndpoint</text>
</a>
</g>
</g>
<!-- Node6&#45;&gt;Node11 -->
<g id="edge10" class="edge">
<title>Node6&#45;&gt;Node11</title>
<path fill="none" stroke="#63b8ff" d="M484.92,-474.39C500.8,-507.84 543.22,-587.39 604,-627 606.04,-628.33 608.15,-629.59 610.3,-630.77"/>
<polygon fill="#63b8ff" stroke="#63b8ff" points="608.54,-634.3 619.07,-635.55 611.62,-628.01 608.54,-634.3"/>
</g>
<!-- Node12 -->
<g id="node12" class="node">
<title>Node12</title>
<g id="a_node12"><a xlink:href="classdev_1_1filechampion_1_1filechampion4j_1_1_plugins_helper_1_1_step_config.html#a092c6bb956bcbb8ccd9e383a854238f3" target="_top" xlink:title=" ">
<polygon fill="white" stroke="#666666" points="798,-618 619,-618 619,-588 798,-588 798,-618"/>
<text text-anchor="start" x="627" y="-606" font-family="Helvetica,sans-Serif" font-size="10.00">dev.filechampion.filechampion4j.</text>
<text text-anchor="middle" x="708.5" y="-595" font-family="Helvetica,sans-Serif" font-size="10.00">PluginsHelper.StepConfig.setHeaders</text>
</a>
</g>
</g>
<!-- Node6&#45;&gt;Node12 -->
<g id="edge11" class="edge">
<title>Node6&#45;&gt;Node12</title>
<path fill="none" stroke="#63b8ff" d="M489.37,-474.2C509.49,-499.97 554.01,-552.05 604,-579 606.95,-580.59 610,-582.08 613.13,-583.46"/>
<polygon fill="#63b8ff" stroke="#63b8ff" points="611.74,-587.08 622.32,-587.57 614.35,-580.58 611.74,-587.08"/>
</g>
<!-- Node13 -->
<g id="node13" class="node">
<title>Node13</title>
<g id="a_node13"><a xlink:href="classdev_1_1filechampion_1_1filechampion4j_1_1_plugins_helper_1_1_step_config.html#ae9231315c8a10682974cfef4d367e7e8" target="_top" xlink:title=" ">
<polygon fill="white" stroke="#666666" points="808.5,-570 608.5,-570 608.5,-540 808.5,-540 808.5,-570"/>
<text text-anchor="start" x="616.5" y="-558" font-family="Helvetica,sans-Serif" font-size="10.00">dev.filechampion.filechampion4j.</text>
<text text-anchor="middle" x="708.5" y="-547" font-family="Helvetica,sans-Serif" font-size="10.00">PluginsHelper.StepConfig.setHttpFailCode</text>
</a>
</g>
</g>
<!-- Node6&#45;&gt;Node13 -->
<g id="edge12" class="edge">
<title>Node6&#45;&gt;Node13</title>
<path fill="none" stroke="#63b8ff" d="M500.22,-474.37C524.64,-490.62 565.53,-515.92 604,-531 608.97,-532.95 614.14,-534.76 619.4,-536.45"/>
<polygon fill="#63b8ff" stroke="#63b8ff" points="618.02,-539.99 628.6,-539.53 620.04,-533.29 618.02,-539.99"/>
</g>
<!-- Node14 -->
<g id="node14" class="node">
<title>Node14</title>
<g id="a_node14"><a xlink:href="classdev_1_1filechampion_1_1filechampion4j_1_1_plugins_helper_1_1_step_config.html#a8965e3b56f3650e4d47126b5b23c84f3" target="_top" xlink:title=" ">
<polygon fill="white" stroke="#666666" points="811.5,-522 605.5,-522 605.5,-492 811.5,-492 811.5,-522"/>
<text text-anchor="start" x="613.5" y="-510" font-family="Helvetica,sans-Serif" font-size="10.00">dev.filechampion.filechampion4j.</text>
<text text-anchor="middle" x="708.5" y="-499" font-family="Helvetica,sans-Serif" font-size="10.00">PluginsHelper.StepConfig.setHttpPassCode</text>
</a>
</g>
</g>
<!-- Node6&#45;&gt;Node14 -->
<g id="edge13" class="edge">
<title>Node6&#45;&gt;Node14</title>
<path fill="none" stroke="#63b8ff" d="M551.88,-474.45C574.6,-479.2 599.79,-484.47 623.16,-489.36"/>
<polygon fill="#63b8ff" stroke="#63b8ff" points="622.26,-492.96 632.76,-491.58 623.69,-486.1 622.26,-492.96"/>
</g>
<!-- Node15 -->
<g id="node15" class="node">
<title>Node15</title>
<g id="a_node15"><a xlink:href="classdev_1_1filechampion_1_1filechampion4j_1_1_plugins_helper_1_1_step_config.html#a02efd84125da95d860a7467040259e4b" target="_top" xlink:title=" ">
<polygon fill="white" stroke="#666666" points="796.5,-474 620.5,-474 620.5,-444 796.5,-444 796.5,-474"/>
<text text-anchor="start" x="628.5" y="-462" font-family="Helvetica,sans-Serif" font-size="10.00">dev.filechampion.filechampion4j.</text>
<text text-anchor="middle" x="708.5" y="-451" font-family="Helvetica,sans-Serif" font-size="10.00">PluginsHelper.StepConfig.setMethod</text>
</a>
</g>
</g>
<!-- Node6&#45;&gt;Node15 -->
<g id="edge14" class="edge">
<title>Node6&#45;&gt;Node15</title>
<path fill="none" stroke="#63b8ff" d="M554.74,-459C572.19,-459 590.97,-459 609.19,-459"/>
<polygon fill="#63b8ff" stroke="#63b8ff" points="609.13,-462.5 619.13,-459 609.13,-455.5 609.13,-462.5"/>
</g>
<!-- Node16 -->
<g id="node16" class="node">
<title>Node16</title>
<g id="a_node16"><a xlink:href="classdev_1_1filechampion_1_1filechampion4j_1_1_plugins_helper_1_1_plugin_config.html#ac0608d0e9d629fcef3fb1ca0d7875530" target="_top" xlink:title=" ">
<polygon fill="white" stroke="#666666" points="796.5,-426 620.5,-426 620.5,-396 796.5,-396 796.5,-426"/>
<text text-anchor="start" x="628.5" y="-414" font-family="Helvetica,sans-Serif" font-size="10.00">dev.filechampion.filechampion4j.</text>
<text text-anchor="middle" x="708.5" y="-403" font-family="Helvetica,sans-Serif" font-size="10.00">PluginsHelper.PluginConfig.setName</text>
</a>
</g>
</g>
<!-- Node6&#45;&gt;Node16 -->
<g id="edge15" class="edge">
<title>Node6&#45;&gt;Node16</title>
<path fill="none" stroke="#63b8ff" d="M551.88,-443.55C574.6,-438.8 599.79,-433.53 623.16,-428.64"/>
<polygon fill="#63b8ff" stroke="#63b8ff" points="623.69,-431.9 632.76,-426.42 622.26,-425.04 623.69,-431.9"/>
</g>
<!-- Node17 -->
<g id="node17" class="node">
<title>Node17</title>
<g id="a_node17"><a xlink:href="classdev_1_1filechampion_1_1filechampion4j_1_1_plugins_helper_1_1_step_config.html#a3ffb66b59c09bacb56d5950a16458d84" target="_top" xlink:title=" ">
<polygon fill="white" stroke="#666666" points="793,-378 624,-378 624,-348 793,-348 793,-378"/>
<text text-anchor="start" x="632" y="-366" font-family="Helvetica,sans-Serif" font-size="10.00">dev.filechampion.filechampion4j.</text>
<text text-anchor="middle" x="708.5" y="-355" font-family="Helvetica,sans-Serif" font-size="10.00">PluginsHelper.StepConfig.setName</text>
</a>
</g>
</g>
<!-- Node6&#45;&gt;Node17 -->
<g id="edge16" class="edge">
<title>Node6&#45;&gt;Node17</title>
<path fill="none" stroke="#63b8ff" d="M552.47,-443.51C557.93,-441.07 563.18,-438.26 568,-435 590.1,-420.08 581.66,-401.56 604,-387 607.15,-384.95 610.45,-383.07 613.86,-381.36"/>
<polygon fill="#63b8ff" stroke="#63b8ff" points="615.04,-384.21 622.73,-376.93 612.17,-377.83 615.04,-384.21"/>
</g>
<!-- Node18 -->
<g id="node18" class="node">
<title>Node18</title>
<g id="a_node18"><a xlink:href="classdev_1_1filechampion_1_1filechampion4j_1_1_plugins_helper_1_1_step_config.html#a383af20d4c40ba225d81b1c9aa7cff6a" target="_top" xlink:title=" ">
<polygon fill="white" stroke="#666666" points="794.5,-330 622.5,-330 622.5,-300 794.5,-300 794.5,-330"/>
<text text-anchor="start" x="630.5" y="-318" font-family="Helvetica,sans-Serif" font-size="10.00">dev.filechampion.filechampion4j.</text>
<text text-anchor="middle" x="708.5" y="-307" font-family="Helvetica,sans-Serif" font-size="10.00">PluginsHelper.StepConfig.setOnFail</text>
</a>
</g>
</g>
<!-- Node6&#45;&gt;Node18 -->
<g id="edge17" class="edge">
<title>Node6&#45;&gt;Node18</title>
<path fill="none" stroke="#63b8ff" d="M554.9,-444.25C559.62,-441.64 564.05,-438.58 568,-435 601.76,-404.4 569.74,-369.04 604,-339 606.7,-336.63 609.6,-334.48 612.63,-332.53"/>
<polygon fill="#63b8ff" stroke="#63b8ff" points="614.08,-335.18 621.13,-327.27 610.69,-329.05 614.08,-335.18"/>
</g>
<!-- Node19 -->
<g id="node19" class="node">
<title>Node19</title>
<g id="a_node19"><a xlink:href="classdev_1_1filechampion_1_1filechampion4j_1_1_plugins_helper_1_1_step_config.html#a848f08055cadb9eae55c68893b847cc6" target="_top" xlink:title=" ">
<polygon fill="white" stroke="#666666" points="802,-282 615,-282 615,-252 802,-252 802,-282"/>
<text text-anchor="start" x="623" y="-270" font-family="Helvetica,sans-Serif" font-size="10.00">dev.filechampion.filechampion4j.</text>
<text text-anchor="middle" x="708.5" y="-259" font-family="Helvetica,sans-Serif" font-size="10.00">PluginsHelper.StepConfig.setResponse</text>
</a>
</g>
</g>
<!-- Node6&#45;&gt;Node19 -->
<g id="edge18" class="edge">
<title>Node6&#45;&gt;Node19</title>
<path fill="none" stroke="#63b8ff" d="M554.96,-445C559.72,-442.22 564.14,-438.92 568,-435 614.28,-387.99 556.95,-337.25 604,-291 604.72,-290.29 605.46,-289.6 606.21,-288.94"/>
<polygon fill="#63b8ff" stroke="#63b8ff" points="607.92,-291.27 613.8,-282.46 603.71,-285.68 607.92,-291.27"/>
</g>
<!-- Node20 -->
<g id="node20" class="node">
<title>Node20</title>
<g id="a_node20"><a xlink:href="classdev_1_1filechampion_1_1filechampion4j_1_1_plugins_helper_1_1_step_config.html#ac6291b12c2af1efb49e5744b51ec9d4d" target="_top" xlink:title=" ">
<polygon fill="white" stroke="#666666" points="799,-234 618,-234 618,-204 799,-204 799,-234"/>
<text text-anchor="start" x="626" y="-222" font-family="Helvetica,sans-Serif" font-size="10.00">dev.filechampion.filechampion4j.</text>
<text text-anchor="middle" x="708.5" y="-211" font-family="Helvetica,sans-Serif" font-size="10.00">PluginsHelper.StepConfig.setRunAfter</text>
</a>
</g>
</g>
<!-- Node6&#45;&gt;Node20 -->
<g id="edge19" class="edge">
<title>Node6&#45;&gt;Node20</title>
<path fill="none" stroke="#63b8ff" d="M554.81,-445.5C559.67,-442.61 564.15,-439.15 568,-435 627.04,-371.34 543.93,-305.68 604,-243 605.53,-241.4 607.15,-239.9 608.83,-238.49"/>
<polygon fill="#63b8ff" stroke="#63b8ff" points="610.65,-240.79 616.83,-232.18 606.63,-235.06 610.65,-240.79"/>
</g>
<!-- Node21 -->
<g id="node21" class="node">
<title>Node21</title>
<g id="a_node21"><a xlink:href="classdev_1_1filechampion_1_1filechampion4j_1_1_plugins_helper_1_1_step_config.html#a7f2db0d9efe3c081f3c992618f023463" target="_top" xlink:title=" ">
<polygon fill="white" stroke="#666666" points="802.5,-186 614.5,-186 614.5,-156 802.5,-156 802.5,-186"/>
<text text-anchor="start" x="622.5" y="-174" font-family="Helvetica,sans-Serif" font-size="10.00">dev.filechampion.filechampion4j.</text>
<text text-anchor="middle" x="708.5" y="-163" font-family="Helvetica,sans-Serif" font-size="10.00">PluginsHelper.StepConfig.setRunBefore</text>
</a>
</g>
</g>
<!-- Node6&#45;&gt;Node21 -->
<g id="edge20" class="edge">
<title>Node6&#45;&gt;Node21</title>
<path fill="none" stroke="#63b8ff" d="M554.98,-445.66C559.8,-442.73 564.23,-439.22 568,-435 639.89,-354.59 530.8,-274.22 604,-195 604.68,-194.26 605.39,-193.54 606.11,-192.84"/>
<polygon fill="#63b8ff" stroke="#63b8ff" points="607.86,-195.11 613.41,-186.08 603.45,-189.68 607.86,-195.11"/>
</g>
<!-- Node22 -->
<g id="node22" class="node">
<title>Node22</title>
<g id="a_node22"><a xlink:href="classdev_1_1filechampion_1_1filechampion4j_1_1_plugins_helper_1_1_plugin_config.html#ae5fda8a9d95edb4f7d81f1b23e7fa8da" target="_top" xlink:title=" ">
<polygon fill="white" stroke="#666666" points="793.5,-137.5 623.5,-137.5 623.5,-96.5 793.5,-96.5 793.5,-137.5"/>
<text text-anchor="start" x="631.5" y="-125.5" font-family="Helvetica,sans-Serif" font-size="10.00">dev.filechampion.filechampion4j.</text>
<text text-anchor="start" x="631.5" y="-114.5" font-family="Helvetica,sans-Serif" font-size="10.00">PluginsHelper.PluginConfig.setStep</text>
<text text-anchor="middle" x="708.5" y="-103.5" font-family="Helvetica,sans-Serif" font-size="10.00">Configs</text>
</a>
</g>
</g>
<!-- Node6&#45;&gt;Node22 -->
<g id="edge21" class="edge">
<title>Node6&#45;&gt;Node22</title>
<path fill="none" stroke="#63b8ff" d="M554.68,-446.01C559.64,-443.01 564.17,-439.39 568,-435 652.79,-337.79 520.26,-245.12 604,-147 607.01,-143.48 610.4,-140.36 614.07,-137.59"/>
<polygon fill="#63b8ff" stroke="#63b8ff" points="615.61,-140.12 622.12,-131.76 611.81,-134.24 615.61,-140.12"/>
</g>
<!-- Node23 -->
<g id="node23" class="node">
<title>Node23</title>
<g id="a_node23"><a xlink:href="classdev_1_1filechampion_1_1filechampion4j_1_1_plugins_helper_1_1_step_config.html#a270b36b24b8d3a0ed0432ca72ab2e6c4" target="_top" xlink:title=" ">
<polygon fill="white" stroke="#666666" points="797.5,-78 619.5,-78 619.5,-48 797.5,-48 797.5,-78"/>
<text text-anchor="start" x="627.5" y="-66" font-family="Helvetica,sans-Serif" font-size="10.00">dev.filechampion.filechampion4j.</text>
<text text-anchor="middle" x="708.5" y="-55" font-family="Helvetica,sans-Serif" font-size="10.00">PluginsHelper.StepConfig.setTimeout</text>
</a>
</g>
</g>
<!-- Node6&#45;&gt;Node23 -->
<g id="edge22" class="edge">
<title>Node6&#45;&gt;Node23</title>
<path fill="none" stroke="#63b8ff" d="M554.79,-446.1C559.72,-443.08 564.22,-439.43 568,-435 668.69,-317.09 501.93,-204.71 604,-88 606.05,-85.65 608.29,-83.5 610.67,-81.54"/>
<polygon fill="#63b8ff" stroke="#63b8ff" points="612.06,-84.14 618.27,-75.56 608.06,-78.39 612.06,-84.14"/>
</g>
<!-- Node24 -->
<g id="node24" class="node">
<title>Node24</title>
<g id="a_node24"><a xlink:href="classdev_1_1filechampion_1_1filechampion4j_1_1_plugins_helper_1_1_step_config.html#a4640a883c14b655a5072f66bd9adea91" target="_top" xlink:title=" ">
<polygon fill="white" stroke="#666666" points="790.5,-30 626.5,-30 626.5,0 790.5,0 790.5,-30"/>
<text text-anchor="start" x="634.5" y="-18" font-family="Helvetica,sans-Serif" font-size="10.00">dev.filechampion.filechampion4j.</text>
<text text-anchor="middle" x="708.5" y="-7" font-family="Helvetica,sans-Serif" font-size="10.00">PluginsHelper.StepConfig.setType</text>
</a>
</g>
</g>
<!-- Node6&#45;&gt;Node24 -->
<g id="edge23" class="edge">
<title>Node6&#45;&gt;Node24</title>
<path fill="none" stroke="#63b8ff" d="M554.85,-446.15C559.77,-443.12 564.25,-439.45 568,-435 624.95,-367.44 545.95,-105.62 604,-39 607.69,-34.76 611.97,-31.19 616.65,-28.2"/>
<polygon fill="#63b8ff" stroke="#63b8ff" points="617.94,-30.94 625.07,-23.1 614.61,-24.78 617.94,-30.94"/>
</g>
</g>
</svg>
