<?xml version="1.0" encoding="UTF-8" standalone="no"?>
<!DOCTYPE svg PUBLIC "-//W3C//DTD SVG 1.1//EN"
 "http://www.w3.org/Graphics/SVG/1.1/DTD/svg11.dtd">
<!-- Generated by graphviz version 8.0.3 (20230416.2022)
 -->
<!-- Title: dev.filechampion.filechampion4j.SH256Calculate.getChecksum Pages: 1 -->
<svg width="410pt" height="98pt"
 viewBox="0.00 0.00 410.00 97.50" xmlns="http://www.w3.org/2000/svg" xmlns:xlink="http://www.w3.org/1999/xlink">
<g id="graph0" class="graph" transform="scale(1 1) rotate(0) translate(4 93.5)">
<title>dev.filechampion.filechampion4j.SH256Calculate.getChecksum</title>
<!-- Node1 -->
<g id="node1" class="node">
<title>Node1</title>
<g id="a_node1"><a xlink:title=" ">
<polygon fill="#999999" stroke="#666666" points="155,-62.5 0,-62.5 0,-32.5 155,-32.5 155,-62.5"/>
<text text-anchor="start" x="8" y="-50.5" font-family="Helvetica,sans-Serif" font-size="10.00">dev.filechampion.filechampion4j.</text>
<text text-anchor="middle" x="77.5" y="-39.5" font-family="Helvetica,sans-Serif" font-size="10.00">SH256Calculate.getChecksum</text>
</a>
</g>
</g>
<!-- Node2 -->
<g id="node2" class="node">
<title>Node2</title>
<g id="a_node2"><a xlink:href="classdev_1_1filechampion_1_1filechampion4j_1_1_s_h256_calculate.html#a34e1629b0d7c954639e688ff9ee9bd63" target="_top" xlink:title=" ">
<polygon fill="white" stroke="#666666" points="402,-89.5 191,-89.5 191,-59.5 402,-59.5 402,-89.5"/>
<text text-anchor="start" x="199" y="-77.5" font-family="Helvetica,sans-Serif" font-size="10.00">dev.filechampion.filechampion4j.</text>
<text text-anchor="middle" x="296.5" y="-66.5" font-family="Helvetica,sans-Serif" font-size="10.00">SH256Calculate.calculateSHA256Checksum</text>
</a>
</g>
</g>
<!-- Node1&#45;&gt;Node2 -->
<g id="edge1" class="edge">
<title>Node1&#45;&gt;Node2</title>
<path fill="none" stroke="#63b8ff" d="M155.31,-57.06C163.28,-58.05 171.5,-59.07 179.77,-60.1"/>
<polygon fill="#63b8ff" stroke="#63b8ff" points="179.31,-63.69 189.67,-61.46 180.18,-56.75 179.31,-63.69"/>
</g>
<!-- Node3 -->
<g id="node3" class="node">
<title>Node3</title>
<g id="a_node3"><a xlink:href="classdev_1_1filechampion_1_1filechampion4j_1_1_s_h256_calculate.html#a33c4e0514e71ad95a82eda265a5f0252" target="_top" xlink:title=" ">
<polygon fill="white" stroke="#666666" points="391,-41 202,-41 202,0 391,0 391,-41"/>
<text text-anchor="start" x="210" y="-29" font-family="Helvetica,sans-Serif" font-size="10.00">dev.filechampion.filechampion4j.</text>
<text text-anchor="start" x="210" y="-18" font-family="Helvetica,sans-Serif" font-size="10.00">SH256Calculate.calculateSmallSHA256</text>
<text text-anchor="middle" x="296.5" y="-7" font-family="Helvetica,sans-Serif" font-size="10.00">Checksum</text>
</a>
</g>
</g>
<!-- Node1&#45;&gt;Node3 -->
<g id="edge2" class="edge">
<title>Node1&#45;&gt;Node3</title>
<path fill="none" stroke="#63b8ff" d="M155.31,-37.94C166.91,-36.5 179.04,-34.99 191.1,-33.49"/>
<polygon fill="#63b8ff" stroke="#63b8ff" points="191.17,-36.88 200.67,-32.18 190.31,-29.94 191.17,-36.88"/>
</g>
</g>
</svg>
