<?xml version="1.0" encoding="UTF-8" standalone="no"?>
<!DOCTYPE svg PUBLIC "-//W3C//DTD SVG 1.1//EN"
 "http://www.w3.org/Graphics/SVG/1.1/DTD/svg11.dtd">
<!-- Generated by graphviz version 8.0.3 (20230416.2022)
 -->
<!-- Title: dev.filechampion.filechampion4j.FileValidator.logSevere Pages: 1 -->
<svg width="1124pt" height="59pt"
 viewBox="0.00 0.00 1124.00 59.00" xmlns="http://www.w3.org/2000/svg" xmlns:xlink="http://www.w3.org/1999/xlink">
<g id="graph0" class="graph" transform="scale(1 1) rotate(0) translate(4 55)">
<title>dev.filechampion.filechampion4j.FileValidator.logSevere</title>
<!-- Node1 -->
<g id="node1" class="node">
<title>Node1</title>
<g id="a_node1"><a xlink:title=" ">
<polygon fill="#999999" stroke="#666666" points="1116,-51 961,-51 961,-21 1116,-21 1116,-51"/>
<text text-anchor="start" x="969" y="-39" font-family="Helvetica,sans-Serif" font-size="10.00">dev.filechampion.filechampion4j.</text>
<text text-anchor="middle" x="1038.5" y="-28" font-family="Helvetica,sans-Serif" font-size="10.00">FileValidator.logSevere</text>
</a>
</g>
</g>
<!-- Node2 -->
<g id="node2" class="node">
<title>Node2</title>
<g id="a_node2"><a xlink:href="classdev_1_1filechampion_1_1filechampion4j_1_1_file_validator.html#a46f8dcb76a6e9b52838092b4c80b9d26" target="_top" xlink:title=" ">
<polygon fill="white" stroke="#666666" points="734,-51 573,-51 573,-21 734,-21 734,-51"/>
<text text-anchor="start" x="581" y="-39" font-family="Helvetica,sans-Serif" font-size="10.00">dev.filechampion.filechampion4j.</text>
<text text-anchor="middle" x="653.5" y="-28" font-family="Helvetica,sans-Serif" font-size="10.00">FileValidator.saveFileToOutputDir</text>
</a>
</g>
</g>
<!-- Node1&#45;&gt;Node2 -->
<g id="edge1" class="edge">
<title>Node1&#45;&gt;Node2</title>
<path fill="none" stroke="#63b8ff" d="M949.7,-38.57C941.35,-38.74 933.01,-38.89 925,-39 856.12,-39.92 838.88,-39.89 770,-39 758.47,-38.85 746.29,-38.62 734.34,-38.34"/>
<polygon fill="#63b8ff" stroke="#63b8ff" points="949.73,-42.05 959.65,-38.32 949.57,-35.05 949.73,-42.05"/>
</g>
<!-- Node6 -->
<g id="node6" class="node">
<title>Node6</title>
<g id="a_node6"><a xlink:href="classdev_1_1filechampion_1_1filechampion4j_1_1_file_validator.html#a302b5fbd0f5c96cdade46747ebbeaae1" target="_top" xlink:title=" ">
<polygon fill="white" stroke="#666666" points="925,-30 770,-30 770,0 925,0 925,-30"/>
<text text-anchor="start" x="778" y="-18" font-family="Helvetica,sans-Serif" font-size="10.00">dev.filechampion.filechampion4j.</text>
<text text-anchor="middle" x="847.5" y="-7" font-family="Helvetica,sans-Serif" font-size="10.00">FileValidator.setFileAttributes</text>
</a>
</g>
</g>
<!-- Node1&#45;&gt;Node6 -->
<g id="edge5" class="edge">
<title>Node1&#45;&gt;Node6</title>
<path fill="none" stroke="#63b8ff" d="M949.89,-26.27C941.68,-25.35 933.41,-24.43 925.31,-23.53"/>
<polygon fill="#63b8ff" stroke="#63b8ff" points="949.3,-29.83 959.63,-27.46 950.07,-22.88 949.3,-29.83"/>
</g>
<!-- Node3 -->
<g id="node3" class="node">
<title>Node3</title>
<g id="a_node3"><a xlink:href="classdev_1_1filechampion_1_1filechampion4j_1_1_file_validator.html#a48a54a63d062cd23af2d14a6af76899e" target="_top" xlink:title=" ">
<polygon fill="white" stroke="#666666" points="537,-51 382,-51 382,-21 537,-21 537,-51"/>
<text text-anchor="start" x="390" y="-39" font-family="Helvetica,sans-Serif" font-size="10.00">dev.filechampion.filechampion4j.</text>
<text text-anchor="middle" x="459.5" y="-28" font-family="Helvetica,sans-Serif" font-size="10.00">FileValidator.doValidations</text>
</a>
</g>
</g>
<!-- Node2&#45;&gt;Node3 -->
<g id="edge2" class="edge">
<title>Node2&#45;&gt;Node3</title>
<path fill="none" stroke="#63b8ff" d="M561.93,-36C553.67,-36 545.36,-36 537.23,-36"/>
<polygon fill="#63b8ff" stroke="#63b8ff" points="561.74,-39.5 571.74,-36 561.74,-32.5 561.74,-39.5"/>
</g>
<!-- Node4 -->
<g id="node4" class="node">
<title>Node4</title>
<g id="a_node4"><a xlink:href="classdev_1_1filechampion_1_1filechampion4j_1_1_file_validator.html#a2ac42f051e5724b165e5b0234a1e23f4" target="_top" xlink:title=" ">
<polygon fill="white" stroke="#666666" points="346,-51 191,-51 191,-21 346,-21 346,-51"/>
<text text-anchor="start" x="199" y="-39" font-family="Helvetica,sans-Serif" font-size="10.00">dev.filechampion.filechampion4j.</text>
<text text-anchor="middle" x="268.5" y="-28" font-family="Helvetica,sans-Serif" font-size="10.00">FileValidator.validateFileMain</text>
</a>
</g>
</g>
<!-- Node3&#45;&gt;Node4 -->
<g id="edge3" class="edge">
<title>Node3&#45;&gt;Node4</title>
<path fill="none" stroke="#63b8ff" d="M370.89,-36C362.68,-36 354.41,-36 346.31,-36"/>
<polygon fill="#63b8ff" stroke="#63b8ff" points="370.63,-39.5 380.63,-36 370.63,-32.5 370.63,-39.5"/>
</g>
<!-- Node5 -->
<g id="node5" class="node">
<title>Node5</title>
<g id="a_node5"><a xlink:href="classdev_1_1filechampion_1_1filechampion4j_1_1_file_validator.html#a492adb6357ac22bea8b79d036aa2a287" target="_top" xlink:title=" ">
<polygon fill="white" stroke="#666666" points="155,-51 0,-51 0,-21 155,-21 155,-51"/>
<text text-anchor="start" x="8" y="-39" font-family="Helvetica,sans-Serif" font-size="10.00">dev.filechampion.filechampion4j.</text>
<text text-anchor="middle" x="77.5" y="-28" font-family="Helvetica,sans-Serif" font-size="10.00">FileValidator.validateFile</text>
</a>
</g>
</g>
<!-- Node4&#45;&gt;Node5 -->
<g id="edge4" class="edge">
<title>Node4&#45;&gt;Node5</title>
<path fill="none" stroke="#63b8ff" d="M179.89,-36C171.68,-36 163.41,-36 155.31,-36"/>
<polygon fill="#63b8ff" stroke="#63b8ff" points="179.63,-39.5 189.63,-36 179.63,-32.5 179.63,-39.5"/>
</g>
<!-- Node6&#45;&gt;Node2 -->
<g id="edge6" class="edge">
<title>Node6&#45;&gt;Node2</title>
<path fill="none" stroke="#63b8ff" d="M758.84,-24.59C750.67,-25.48 742.42,-26.38 734.33,-27.27"/>
<polygon fill="#63b8ff" stroke="#63b8ff" points="758.95,-27.99 768.51,-23.42 758.19,-21.03 758.95,-27.99"/>
</g>
</g>
</svg>
