<?xml version="1.0" encoding="UTF-8" standalone="no"?>
<!DOCTYPE svg PUBLIC "-//W3C//DTD SVG 1.1//EN"
 "http://www.w3.org/Graphics/SVG/1.1/DTD/svg11.dtd">
<!-- Generated by graphviz version 8.0.3 (20230416.2022)
 -->
<!-- Title: dev.filechampion.filechampion4j.FileValidator.saveFileToOutputDir Pages: 1 -->
<svg width="1181pt" height="266pt"
 viewBox="0.00 0.00 1181.00 266.00" xmlns="http://www.w3.org/2000/svg" xmlns:xlink="http://www.w3.org/1999/xlink">
<g id="graph0" class="graph" transform="scale(1 1) rotate(0) translate(4 262)">
<title>dev.filechampion.filechampion4j.FileValidator.saveFileToOutputDir</title>
<!-- Node1 -->
<g id="node1" class="node">
<title>Node1</title>
<g id="a_node1"><a xlink:title=" ">
<polygon fill="#999999" stroke="#666666" points="161,-165 0,-165 0,-135 161,-135 161,-165"/>
<text text-anchor="start" x="8" y="-153" font-family="Helvetica,sans-Serif" font-size="10.00">dev.filechampion.filechampion4j.</text>
<text text-anchor="middle" x="80.5" y="-142" font-family="Helvetica,sans-Serif" font-size="10.00">FileValidator.saveFileToOutputDir</text>
</a>
</g>
</g>
<!-- Node2 -->
<g id="node2" class="node">
<title>Node2</title>
<g id="a_node2"><a xlink:href="classdev_1_1filechampion_1_1filechampion4j_1_1_extensions.html#ac3de7a6e3faa8e7f76d0d3705e02a42d" target="_top" xlink:title=" ">
<polygon fill="white" stroke="#666666" points="352,-210 197,-210 197,-180 352,-180 352,-210"/>
<text text-anchor="start" x="205" y="-198" font-family="Helvetica,sans-Serif" font-size="10.00">dev.filechampion.filechampion4j.</text>
<text text-anchor="middle" x="274.5" y="-187" font-family="Helvetica,sans-Serif" font-size="10.00">Extensions.getValidationValue</text>
</a>
</g>
</g>
<!-- Node1&#45;&gt;Node2 -->
<g id="edge1" class="edge">
<title>Node1&#45;&gt;Node2</title>
<path fill="none" stroke="#63b8ff" d="M147.58,-165.49C163.5,-169.22 180.65,-173.24 197.01,-177.07"/>
<polygon fill="#63b8ff" stroke="#63b8ff" points="196.09,-180.69 206.63,-179.56 197.69,-173.87 196.09,-180.69"/>
</g>
<!-- Node6 -->
<g id="node6" class="node">
<title>Node6</title>
<g id="a_node6"><a xlink:href="classdev_1_1filechampion_1_1filechampion4j_1_1_file_validator.html#ace3e82c3f2c84fa31ad8ad2f8215463e" target="_top" xlink:title=" ">
<polygon fill="white" stroke="#666666" points="543,-162 388,-162 388,-132 543,-132 543,-162"/>
<text text-anchor="start" x="396" y="-150" font-family="Helvetica,sans-Serif" font-size="10.00">dev.filechampion.filechampion4j.</text>
<text text-anchor="middle" x="465.5" y="-139" font-family="Helvetica,sans-Serif" font-size="10.00">FileValidator.logSevere</text>
</a>
</g>
</g>
<!-- Node1&#45;&gt;Node6 -->
<g id="edge5" class="edge">
<title>Node1&#45;&gt;Node6</title>
<path fill="none" stroke="#63b8ff" d="M161.32,-149.37C224.35,-148.88 312.19,-148.19 377.1,-147.68"/>
<polygon fill="#63b8ff" stroke="#63b8ff" points="376.75,-151.18 386.72,-147.6 376.69,-144.18 376.75,-151.18"/>
</g>
<!-- Node7 -->
<g id="node7" class="node">
<title>Node7</title>
<g id="a_node7"><a xlink:href="classdev_1_1filechampion_1_1filechampion4j_1_1_file_validator.html#a302b5fbd0f5c96cdade46747ebbeaae1" target="_top" xlink:title=" ">
<polygon fill="white" stroke="#666666" points="352,-122 197,-122 197,-92 352,-92 352,-122"/>
<text text-anchor="start" x="205" y="-110" font-family="Helvetica,sans-Serif" font-size="10.00">dev.filechampion.filechampion4j.</text>
<text text-anchor="middle" x="274.5" y="-99" font-family="Helvetica,sans-Serif" font-size="10.00">FileValidator.setFileAttributes</text>
</a>
</g>
</g>
<!-- Node1&#45;&gt;Node7 -->
<g id="edge6" class="edge">
<title>Node1&#45;&gt;Node7</title>
<path fill="none" stroke="#63b8ff" d="M150.55,-134.54C164.65,-131.38 179.59,-128.03 194.02,-124.8"/>
<polygon fill="#63b8ff" stroke="#63b8ff" points="194.43,-128.07 203.42,-122.47 192.9,-121.24 194.43,-128.07"/>
</g>
<!-- Node3 -->
<g id="node3" class="node">
<title>Node3</title>
<g id="a_node3"><a xlink:href="classdev_1_1filechampion_1_1filechampion4j_1_1_extensions.html#a0b4d6f0065a4fc61701be6ab4103c441" target="_top" xlink:title=" ">
<polygon fill="white" stroke="#666666" points="543,-258 388,-258 388,-228 543,-228 543,-258"/>
<text text-anchor="start" x="396" y="-246" font-family="Helvetica,sans-Serif" font-size="10.00">dev.filechampion.filechampion4j.</text>
<text text-anchor="middle" x="465.5" y="-235" font-family="Helvetica,sans-Serif" font-size="10.00">Extensions.checkInputs</text>
</a>
</g>
</g>
<!-- Node2&#45;&gt;Node3 -->
<g id="edge2" class="edge">
<title>Node2&#45;&gt;Node3</title>
<path fill="none" stroke="#63b8ff" d="M336.34,-210.45C354.47,-215.06 374.49,-220.14 393.22,-224.9"/>
<polygon fill="#63b8ff" stroke="#63b8ff" points="392.22,-228.51 402.77,-227.58 393.94,-221.72 392.22,-228.51"/>
</g>
<!-- Node5 -->
<g id="node5" class="node">
<title>Node5</title>
<g id="a_node5"><a xlink:href="classdev_1_1filechampion_1_1filechampion4j_1_1_extensions.html#a0aada571ca5ffb1ca298874d2c0fac50" target="_top" xlink:title=" ">
<polygon fill="white" stroke="#666666" points="543,-210 388,-210 388,-180 543,-180 543,-210"/>
<text text-anchor="start" x="396" y="-198" font-family="Helvetica,sans-Serif" font-size="10.00">dev.filechampion.filechampion4j.</text>
<text text-anchor="middle" x="465.5" y="-187" font-family="Helvetica,sans-Serif" font-size="10.00">Extensions.logFine</text>
</a>
</g>
</g>
<!-- Node2&#45;&gt;Node5 -->
<g id="edge4" class="edge">
<title>Node2&#45;&gt;Node5</title>
<path fill="none" stroke="#63b8ff" d="M352.37,-195C360.47,-195 368.75,-195 376.96,-195"/>
<polygon fill="#63b8ff" stroke="#63b8ff" points="376.69,-198.5 386.69,-195 376.69,-191.5 376.69,-198.5"/>
</g>
<!-- Node4 -->
<g id="node4" class="node">
<title>Node4</title>
<g id="a_node4"><a xlink:href="classdev_1_1filechampion_1_1filechampion4j_1_1_extensions.html#adebd31331477fe200ec272ae4569f482" target="_top" xlink:title=" ">
<polygon fill="white" stroke="#666666" points="738.5,-258 583.5,-258 583.5,-228 738.5,-228 738.5,-258"/>
<text text-anchor="start" x="591.5" y="-246" font-family="Helvetica,sans-Serif" font-size="10.00">dev.filechampion.filechampion4j.</text>
<text text-anchor="middle" x="661" y="-235" font-family="Helvetica,sans-Serif" font-size="10.00">Extensions.logWarn</text>
</a>
</g>
</g>
<!-- Node3&#45;&gt;Node4 -->
<g id="edge3" class="edge">
<title>Node3&#45;&gt;Node4</title>
<path fill="none" stroke="#63b8ff" d="M543.25,-243C552.76,-243 562.54,-243 572.19,-243"/>
<polygon fill="#63b8ff" stroke="#63b8ff" points="572.02,-246.5 582.02,-243 572.02,-239.5 572.02,-246.5"/>
</g>
<!-- Node7&#45;&gt;Node6 -->
<g id="edge21" class="edge">
<title>Node7&#45;&gt;Node6</title>
<path fill="none" stroke="#63b8ff" d="M348.57,-122.47C359.09,-124.69 369.98,-127 380.69,-129.26"/>
<polygon fill="#63b8ff" stroke="#63b8ff" points="379.8,-132.86 390.31,-131.51 381.25,-126.02 379.8,-132.86"/>
</g>
<!-- Node8 -->
<g id="node8" class="node">
<title>Node8</title>
<g id="a_node8"><a xlink:href="classdev_1_1filechampion_1_1filechampion4j_1_1_file_acl_helper.html#a7f56b5c25bc9643fe169f7f871029cca" target="_top" xlink:title=" ">
<polygon fill="white" stroke="#666666" points="543,-114 388,-114 388,-84 543,-84 543,-114"/>
<text text-anchor="start" x="396" y="-102" font-family="Helvetica,sans-Serif" font-size="10.00">dev.filechampion.filechampion4j.</text>
<text text-anchor="middle" x="465.5" y="-91" font-family="Helvetica,sans-Serif" font-size="10.00">FileAclHelper.changeFileAcl</text>
</a>
</g>
</g>
<!-- Node7&#45;&gt;Node8 -->
<g id="edge7" class="edge">
<title>Node7&#45;&gt;Node8</title>
<path fill="none" stroke="#63b8ff" d="M352.37,-103.75C360.47,-103.4 368.75,-103.05 376.96,-102.71"/>
<polygon fill="#63b8ff" stroke="#63b8ff" points="376.85,-106.17 386.69,-102.25 376.56,-99.18 376.85,-106.17"/>
</g>
<!-- Node9 -->
<g id="node9" class="node">
<title>Node9</title>
<g id="a_node9"><a xlink:href="classdev_1_1filechampion_1_1filechampion4j_1_1_file_acl_helper.html#ac1fb96739e62ad91d1f833908dc99442" target="_top" xlink:title=" ">
<polygon fill="white" stroke="#666666" points="738.5,-30 583.5,-30 583.5,0 738.5,0 738.5,-30"/>
<text text-anchor="start" x="591.5" y="-18" font-family="Helvetica,sans-Serif" font-size="10.00">dev.filechampion.filechampion4j.</text>
<text text-anchor="middle" x="661" y="-7" font-family="Helvetica,sans-Serif" font-size="10.00">FileAclHelper.getUserPrinciple</text>
</a>
</g>
</g>
<!-- Node8&#45;&gt;Node9 -->
<g id="edge8" class="edge">
<title>Node8&#45;&gt;Node9</title>
<path fill="none" stroke="#63b8ff" d="M497.74,-83.52C520.16,-72.59 551.19,-57.85 579,-46 588.16,-42.1 597.98,-38.14 607.52,-34.43"/>
<polygon fill="#63b8ff" stroke="#63b8ff" points="608.65,-37.36 616.72,-30.5 606.13,-30.83 608.65,-37.36"/>
</g>
<!-- Node11 -->
<g id="node11" class="node">
<title>Node11</title>
<g id="a_node11"><a xlink:href="classdev_1_1filechampion_1_1filechampion4j_1_1_file_acl_helper.html#a73d0b85c677037db5ab4865e005bc756" target="_top" xlink:title=" ">
<polygon fill="white" stroke="#666666" points="1173,-155 1018,-155 1018,-125 1173,-125 1173,-155"/>
<text text-anchor="start" x="1026" y="-143" font-family="Helvetica,sans-Serif" font-size="10.00">dev.filechampion.filechampion4j.</text>
<text text-anchor="middle" x="1095.5" y="-132" font-family="Helvetica,sans-Serif" font-size="10.00">FileAclHelper.logFine</text>
</a>
</g>
</g>
<!-- Node8&#45;&gt;Node11 -->
<g id="edge10" class="edge">
<title>Node8&#45;&gt;Node11</title>
<path fill="none" stroke="#63b8ff" d="M525.71,-114.46C542.89,-118.89 561.68,-123.69 579,-128 754.04,-171.56 803.78,-203.82 982,-176 1003.55,-172.64 1026.62,-165.85 1046.22,-159.07"/>
<polygon fill="#63b8ff" stroke="#63b8ff" points="1047.18,-162.09 1055.43,-155.43 1044.83,-155.49 1047.18,-162.09"/>
</g>
<!-- Node12 -->
<g id="node12" class="node">
<title>Node12</title>
<g id="a_node12"><a xlink:href="classdev_1_1filechampion_1_1filechampion4j_1_1_file_acl_helper.html#a89a35f8379b106dcf38650384560ce9f" target="_top" xlink:title=" ">
<polygon fill="white" stroke="#666666" points="958,-71 803,-71 803,-41 958,-41 958,-71"/>
<text text-anchor="start" x="811" y="-59" font-family="Helvetica,sans-Serif" font-size="10.00">dev.filechampion.filechampion4j.</text>
<text text-anchor="middle" x="880.5" y="-48" font-family="Helvetica,sans-Serif" font-size="10.00">FileAclHelper.setNewOwner</text>
</a>
</g>
</g>
<!-- Node8&#45;&gt;Node12 -->
<g id="edge11" class="edge">
<title>Node8&#45;&gt;Node12</title>
<path fill="none" stroke="#63b8ff" d="M543.22,-85.12C555.18,-83.22 567.4,-81.44 579,-80 650.39,-71.14 731.74,-64.87 791.78,-60.97"/>
<polygon fill="#63b8ff" stroke="#63b8ff" points="791.98,-64.4 801.74,-60.27 791.53,-57.42 791.98,-64.4"/>
</g>
<!-- Node13 -->
<g id="node13" class="node">
<title>Node13</title>
<g id="a_node13"><a xlink:href="classdev_1_1filechampion_1_1filechampion4j_1_1_file_acl_helper.html#a00c73219098ca931f6dbfba1f45555ae" target="_top" xlink:title=" ">
<polygon fill="white" stroke="#666666" points="743,-119 579,-119 579,-89 743,-89 743,-119"/>
<text text-anchor="start" x="587" y="-107" font-family="Helvetica,sans-Serif" font-size="10.00">dev.filechampion.filechampion4j.</text>
<text text-anchor="middle" x="661" y="-96" font-family="Helvetica,sans-Serif" font-size="10.00">FileAclHelper.setNewPermissions</text>
</a>
</g>
</g>
<!-- Node8&#45;&gt;Node13 -->
<g id="edge14" class="edge">
<title>Node8&#45;&gt;Node13</title>
<path fill="none" stroke="#63b8ff" d="M543.25,-100.98C551.32,-101.19 559.59,-101.41 567.81,-101.62"/>
<polygon fill="#63b8ff" stroke="#63b8ff" points="567.48,-105.14 577.57,-101.9 567.66,-98.14 567.48,-105.14"/>
</g>
<!-- Node10 -->
<g id="node10" class="node">
<title>Node10</title>
<g id="a_node10"><a xlink:href="classdev_1_1filechampion_1_1filechampion4j_1_1_file_acl_helper.html#ab6fd281a6c09486bf16d2eea3a0ea1ea" target="_top" xlink:title=" ">
<polygon fill="white" stroke="#666666" points="1173,-95 1018,-95 1018,-65 1173,-65 1173,-95"/>
<text text-anchor="start" x="1026" y="-83" font-family="Helvetica,sans-Serif" font-size="10.00">dev.filechampion.filechampion4j.</text>
<text text-anchor="middle" x="1095.5" y="-72" font-family="Helvetica,sans-Serif" font-size="10.00">FileAclHelper.logSevere</text>
</a>
</g>
</g>
<!-- Node9&#45;&gt;Node10 -->
<g id="edge9" class="edge">
<title>Node9&#45;&gt;Node10</title>
<path fill="none" stroke="#63b8ff" d="M738.69,-11.63C804.18,-10.51 900.44,-13.06 982,-32 1007.89,-38.01 1035.36,-49.62 1056.67,-59.92"/>
<polygon fill="#63b8ff" stroke="#63b8ff" points="1054.79,-63.38 1065.31,-64.68 1057.89,-57.11 1054.79,-63.38"/>
</g>
<!-- Node12&#45;&gt;Node10 -->
<g id="edge13" class="edge">
<title>Node12&#45;&gt;Node10</title>
<path fill="none" stroke="#63b8ff" d="M958.4,-64.66C974.23,-66.45 991.02,-68.34 1007.19,-70.16"/>
<polygon fill="#63b8ff" stroke="#63b8ff" points="1006.39,-73.71 1016.71,-71.35 1007.17,-66.75 1006.39,-73.71"/>
</g>
<!-- Node12&#45;&gt;Node11 -->
<g id="edge12" class="edge">
<title>Node12&#45;&gt;Node11</title>
<path fill="none" stroke="#63b8ff" d="M958.43,-71.38C966.52,-73.88 974.52,-76.74 982,-80 999.63,-87.69 1001.25,-94.55 1018,-104 1027.88,-109.58 1038.77,-115.07 1049.16,-120.02"/>
<polygon fill="#63b8ff" stroke="#63b8ff" points="1047.37,-123.51 1057.91,-124.58 1050.34,-117.17 1047.37,-123.51"/>
</g>
<!-- Node14 -->
<g id="node14" class="node">
<title>Node14</title>
<g id="a_node14"><a xlink:href="classdev_1_1filechampion_1_1filechampion4j_1_1_file_acl_helper.html#a957cd8f062521037c11e5d15d3785906" target="_top" xlink:title=" ">
<polygon fill="white" stroke="#666666" points="972,-119 789,-119 789,-89 972,-89 972,-119"/>
<text text-anchor="start" x="797" y="-107" font-family="Helvetica,sans-Serif" font-size="10.00">dev.filechampion.filechampion4j.</text>
<text text-anchor="middle" x="880.5" y="-96" font-family="Helvetica,sans-Serif" font-size="10.00">FileAclHelper.setNewPermissionsUnix</text>
</a>
</g>
</g>
<!-- Node13&#45;&gt;Node14 -->
<g id="edge15" class="edge">
<title>Node13&#45;&gt;Node14</title>
<path fill="none" stroke="#63b8ff" d="M743.3,-104C754.66,-104 766.45,-104 778.13,-104"/>
<polygon fill="#63b8ff" stroke="#63b8ff" points="777.8,-107.5 787.8,-104 777.8,-100.5 777.8,-107.5"/>
</g>
<!-- Node15 -->
<g id="node15" class="node">
<title>Node15</title>
<g id="a_node15"><a xlink:href="classdev_1_1filechampion_1_1filechampion4j_1_1_file_acl_helper.html#a5c4d050d4ddf432b45ffe49b48b20735" target="_top" xlink:title=" ">
<polygon fill="white" stroke="#666666" points="982,-167 779,-167 779,-137 982,-137 982,-167"/>
<text text-anchor="start" x="787" y="-155" font-family="Helvetica,sans-Serif" font-size="10.00">dev.filechampion.filechampion4j.</text>
<text text-anchor="middle" x="880.5" y="-144" font-family="Helvetica,sans-Serif" font-size="10.00">FileAclHelper.setNewPermissionsWindows</text>
</a>
</g>
</g>
<!-- Node13&#45;&gt;Node15 -->
<g id="edge18" class="edge">
<title>Node13&#45;&gt;Node15</title>
<path fill="none" stroke="#63b8ff" d="M732.02,-119.45C753.36,-124.16 776.99,-129.38 798.97,-134.23"/>
<polygon fill="#63b8ff" stroke="#63b8ff" points="798.1,-137.84 808.62,-136.58 799.6,-131 798.1,-137.84"/>
</g>
<!-- Node14&#45;&gt;Node10 -->
<g id="edge17" class="edge">
<title>Node14&#45;&gt;Node10</title>
<path fill="none" stroke="#63b8ff" d="M972.45,-93.75C983.85,-92.47 995.48,-91.16 1006.83,-89.88"/>
<polygon fill="#63b8ff" stroke="#63b8ff" points="1007.05,-93.26 1016.6,-88.66 1006.27,-86.31 1007.05,-93.26"/>
</g>
<!-- Node14&#45;&gt;Node11 -->
<g id="edge16" class="edge">
<title>Node14&#45;&gt;Node11</title>
<path fill="none" stroke="#63b8ff" d="M972.45,-119.37C983.85,-121.3 995.48,-123.27 1006.83,-125.18"/>
<polygon fill="#63b8ff" stroke="#63b8ff" points="1006.16,-128.79 1016.6,-127 1007.32,-121.88 1006.16,-128.79"/>
</g>
<!-- Node15&#45;&gt;Node10 -->
<g id="edge20" class="edge">
<title>Node15&#45;&gt;Node10</title>
<path fill="none" stroke="#63b8ff" d="M952.75,-136.57C962.65,-133.96 972.63,-131.09 982,-128 1005.91,-120.11 1031.81,-109.22 1052.73,-99.82"/>
<polygon fill="#63b8ff" stroke="#63b8ff" points="1053.92,-102.67 1061.56,-95.34 1051.01,-96.3 1053.92,-102.67"/>
</g>
<!-- Node15&#45;&gt;Node11 -->
<g id="edge19" class="edge">
<title>Node15&#45;&gt;Node11</title>
<path fill="none" stroke="#63b8ff" d="M982.39,-146.32C990.52,-145.86 998.69,-145.4 1006.72,-144.95"/>
<polygon fill="#63b8ff" stroke="#63b8ff" points="1006.77,-148.39 1016.56,-144.33 1006.38,-141.4 1006.77,-148.39"/>
</g>
</g>
</svg>
