<?xml version="1.0" encoding="UTF-8" standalone="no"?>
<!DOCTYPE svg PUBLIC "-//W3C//DTD SVG 1.1//EN"
 "http://www.w3.org/Graphics/SVG/1.1/DTD/svg11.dtd">
<!-- Generated by graphviz version 8.0.3 (20230416.2022)
 -->
<!-- Title: dev.filechampion.filechampion4j.FileValidator.executeAfterPluginsProcess Pages: 1 -->
<svg width="778pt" height="268pt"
 viewBox="0.00 0.00 778.00 268.00" xmlns="http://www.w3.org/2000/svg" xmlns:xlink="http://www.w3.org/1999/xlink">
<g id="graph0" class="graph" transform="scale(1 1) rotate(0) translate(4 264)">
<title>dev.filechampion.filechampion4j.FileValidator.executeAfterPluginsProcess</title>
<!-- Node1 -->
<g id="node1" class="node">
<title>Node1</title>
<g id="a_node1"><a xlink:title=" ">
<polygon fill="#999999" stroke="#666666" points="197,-126 0,-126 0,-96 197,-96 197,-126"/>
<text text-anchor="start" x="8" y="-114" font-family="Helvetica,sans-Serif" font-size="10.00">dev.filechampion.filechampion4j.</text>
<text text-anchor="middle" x="98.5" y="-103" font-family="Helvetica,sans-Serif" font-size="10.00">FileValidator.executeAfterPluginsProcess</text>
</a>
</g>
</g>
<!-- Node2 -->
<g id="node2" class="node">
<title>Node2</title>
<g id="a_node2"><a xlink:href="classdev_1_1filechampion_1_1filechampion4j_1_1_file_validator.html#a00a7f2979f0321f1823ce815ecd20945" target="_top" xlink:title=" ">
<polygon fill="white" stroke="#666666" points="388,-174 233,-174 233,-144 388,-144 388,-174"/>
<text text-anchor="start" x="241" y="-162" font-family="Helvetica,sans-Serif" font-size="10.00">dev.filechampion.filechampion4j.</text>
<text text-anchor="middle" x="310.5" y="-151" font-family="Helvetica,sans-Serif" font-size="10.00">FileValidator.executePlugin</text>
</a>
</g>
</g>
<!-- Node1&#45;&gt;Node2 -->
<g id="edge1" class="edge">
<title>Node1&#45;&gt;Node2</title>
<path fill="none" stroke="#63b8ff" d="M167.1,-126.45C187.62,-131.14 210.32,-136.33 231.46,-141.16"/>
<polygon fill="#63b8ff" stroke="#63b8ff" points="230.5,-144.76 241.03,-143.58 232.06,-137.94 230.5,-144.76"/>
</g>
<!-- Node6 -->
<g id="node6" class="node">
<title>Node6</title>
<g id="a_node6"><a xlink:href="classdev_1_1filechampion_1_1filechampion4j_1_1_file_validator.html#aba144d2be101a69816372b3fcdd8a6b0" target="_top" xlink:title=" ">
<polygon fill="white" stroke="#666666" points="579,-126 424,-126 424,-96 579,-96 579,-126"/>
<text text-anchor="start" x="432" y="-114" font-family="Helvetica,sans-Serif" font-size="10.00">dev.filechampion.filechampion4j.</text>
<text text-anchor="middle" x="501.5" y="-103" font-family="Helvetica,sans-Serif" font-size="10.00">FileValidator.logFine</text>
</a>
</g>
</g>
<!-- Node1&#45;&gt;Node6 -->
<g id="edge11" class="edge">
<title>Node1&#45;&gt;Node6</title>
<path fill="none" stroke="#63b8ff" d="M197.34,-111C263.2,-111 349.3,-111 412.91,-111"/>
<polygon fill="#63b8ff" stroke="#63b8ff" points="412.71,-114.5 422.71,-111 412.71,-107.5 412.71,-114.5"/>
</g>
<!-- Node7 -->
<g id="node7" class="node">
<title>Node7</title>
<g id="a_node7"><a xlink:href="classdev_1_1filechampion_1_1filechampion4j_1_1_extensions.html#ac3de7a6e3faa8e7f76d0d3705e02a42d" target="_top" xlink:title=" ">
<polygon fill="white" stroke="#666666" points="388,-78 233,-78 233,-48 388,-48 388,-78"/>
<text text-anchor="start" x="241" y="-66" font-family="Helvetica,sans-Serif" font-size="10.00">dev.filechampion.filechampion4j.</text>
<text text-anchor="middle" x="310.5" y="-55" font-family="Helvetica,sans-Serif" font-size="10.00">Extensions.getValidationValue</text>
</a>
</g>
</g>
<!-- Node1&#45;&gt;Node7 -->
<g id="edge7" class="edge">
<title>Node1&#45;&gt;Node7</title>
<path fill="none" stroke="#63b8ff" d="M167.1,-95.55C187.62,-90.86 210.32,-85.67 231.46,-80.84"/>
<polygon fill="#63b8ff" stroke="#63b8ff" points="232.06,-84.06 241.03,-78.42 230.5,-77.24 232.06,-84.06"/>
</g>
<!-- Node3 -->
<g id="node3" class="node">
<title>Node3</title>
<g id="a_node3"><a xlink:href="classdev_1_1filechampion_1_1filechampion4j_1_1_file_validator.html#a8e5b65357971125d0d18f1ca1a303a82" target="_top" xlink:title=" ">
<polygon fill="white" stroke="#666666" points="579,-260 424,-260 424,-230 579,-230 579,-260"/>
<text text-anchor="start" x="432" y="-248" font-family="Helvetica,sans-Serif" font-size="10.00">dev.filechampion.filechampion4j.</text>
<text text-anchor="middle" x="501.5" y="-237" font-family="Helvetica,sans-Serif" font-size="10.00">FileValidator.deleteTempDir</text>
</a>
</g>
</g>
<!-- Node2&#45;&gt;Node3 -->
<g id="edge2" class="edge">
<title>Node2&#45;&gt;Node3</title>
<path fill="none" stroke="#63b8ff" d="M339.76,-174.38C362.28,-186.37 394.76,-203.09 424,-216 431.41,-219.27 439.31,-222.52 447.12,-225.6"/>
<polygon fill="#63b8ff" stroke="#63b8ff" points="445.7,-229.19 456.29,-229.54 448.22,-222.66 445.7,-229.19"/>
</g>
<!-- Node4 -->
<g id="node4" class="node">
<title>Node4</title>
<g id="a_node4"><a xlink:href="classdev_1_1filechampion_1_1filechampion4j_1_1_file_validator.html#a4d3fd6787fcd920751c75b9c1d4c878d" target="_top" xlink:title=" ">
<polygon fill="white" stroke="#666666" points="770,-238 615,-238 615,-208 770,-208 770,-238"/>
<text text-anchor="start" x="623" y="-226" font-family="Helvetica,sans-Serif" font-size="10.00">dev.filechampion.filechampion4j.</text>
<text text-anchor="middle" x="692.5" y="-215" font-family="Helvetica,sans-Serif" font-size="10.00">FileValidator.logWarn</text>
</a>
</g>
</g>
<!-- Node2&#45;&gt;Node4 -->
<g id="edge6" class="edge">
<title>Node2&#45;&gt;Node4</title>
<path fill="none" stroke="#63b8ff" d="M380.68,-174.46C394.97,-177.46 409.95,-180.45 424,-183 483.87,-193.85 551.66,-203.97 604.02,-211.31"/>
<polygon fill="#63b8ff" stroke="#63b8ff" points="603.23,-214.87 613.61,-212.79 604.19,-207.94 603.23,-214.87"/>
</g>
<!-- Node5 -->
<g id="node5" class="node">
<title>Node5</title>
<g id="a_node5"><a xlink:href="classdev_1_1filechampion_1_1filechampion4j_1_1_file_validator.html#a802b48ac84041a593048ed535c839940" target="_top" xlink:title=" ">
<polygon fill="white" stroke="#666666" points="579,-174 424,-174 424,-144 579,-144 579,-174"/>
<text text-anchor="start" x="432" y="-162" font-family="Helvetica,sans-Serif" font-size="10.00">dev.filechampion.filechampion4j.</text>
<text text-anchor="middle" x="501.5" y="-151" font-family="Helvetica,sans-Serif" font-size="10.00">FileValidator.isBlank</text>
</a>
</g>
</g>
<!-- Node2&#45;&gt;Node5 -->
<g id="edge4" class="edge">
<title>Node2&#45;&gt;Node5</title>
<path fill="none" stroke="#63b8ff" d="M388.37,-159C396.47,-159 404.75,-159 412.96,-159"/>
<polygon fill="#63b8ff" stroke="#63b8ff" points="412.69,-162.5 422.69,-159 412.69,-155.5 412.69,-162.5"/>
</g>
<!-- Node2&#45;&gt;Node6 -->
<g id="edge5" class="edge">
<title>Node2&#45;&gt;Node6</title>
<path fill="none" stroke="#63b8ff" d="M372.34,-143.55C390.47,-138.94 410.49,-133.86 429.22,-129.1"/>
<polygon fill="#63b8ff" stroke="#63b8ff" points="429.94,-132.28 438.77,-126.42 428.22,-125.49 429.94,-132.28"/>
</g>
<!-- Node3&#45;&gt;Node4 -->
<g id="edge3" class="edge">
<title>Node3&#45;&gt;Node4</title>
<path fill="none" stroke="#63b8ff" d="M579.37,-236.05C587.47,-235.11 595.75,-234.14 603.96,-233.19"/>
<polygon fill="#63b8ff" stroke="#63b8ff" points="604.17,-236.57 613.69,-231.94 603.36,-229.62 604.17,-236.57"/>
</g>
<!-- Node8 -->
<g id="node8" class="node">
<title>Node8</title>
<g id="a_node8"><a xlink:href="classdev_1_1filechampion_1_1filechampion4j_1_1_extensions.html#a0b4d6f0065a4fc61701be6ab4103c441" target="_top" xlink:title=" ">
<polygon fill="white" stroke="#666666" points="579,-78 424,-78 424,-48 579,-48 579,-78"/>
<text text-anchor="start" x="432" y="-66" font-family="Helvetica,sans-Serif" font-size="10.00">dev.filechampion.filechampion4j.</text>
<text text-anchor="middle" x="501.5" y="-55" font-family="Helvetica,sans-Serif" font-size="10.00">Extensions.checkInputs</text>
</a>
</g>
</g>
<!-- Node7&#45;&gt;Node8 -->
<g id="edge8" class="edge">
<title>Node7&#45;&gt;Node8</title>
<path fill="none" stroke="#63b8ff" d="M388.37,-63C396.47,-63 404.75,-63 412.96,-63"/>
<polygon fill="#63b8ff" stroke="#63b8ff" points="412.69,-66.5 422.69,-63 412.69,-59.5 412.69,-66.5"/>
</g>
<!-- Node10 -->
<g id="node10" class="node">
<title>Node10</title>
<g id="a_node10"><a xlink:href="classdev_1_1filechampion_1_1filechampion4j_1_1_extensions.html#a0aada571ca5ffb1ca298874d2c0fac50" target="_top" xlink:title=" ">
<polygon fill="white" stroke="#666666" points="579,-30 424,-30 424,0 579,0 579,-30"/>
<text text-anchor="start" x="432" y="-18" font-family="Helvetica,sans-Serif" font-size="10.00">dev.filechampion.filechampion4j.</text>
<text text-anchor="middle" x="501.5" y="-7" font-family="Helvetica,sans-Serif" font-size="10.00">Extensions.logFine</text>
</a>
</g>
</g>
<!-- Node7&#45;&gt;Node10 -->
<g id="edge10" class="edge">
<title>Node7&#45;&gt;Node10</title>
<path fill="none" stroke="#63b8ff" d="M372.34,-47.55C390.47,-42.94 410.49,-37.86 429.22,-33.1"/>
<polygon fill="#63b8ff" stroke="#63b8ff" points="429.94,-36.28 438.77,-30.42 428.22,-29.49 429.94,-36.28"/>
</g>
<!-- Node9 -->
<g id="node9" class="node">
<title>Node9</title>
<g id="a_node9"><a xlink:href="classdev_1_1filechampion_1_1filechampion4j_1_1_extensions.html#adebd31331477fe200ec272ae4569f482" target="_top" xlink:title=" ">
<polygon fill="white" stroke="#666666" points="770,-78 615,-78 615,-48 770,-48 770,-78"/>
<text text-anchor="start" x="623" y="-66" font-family="Helvetica,sans-Serif" font-size="10.00">dev.filechampion.filechampion4j.</text>
<text text-anchor="middle" x="692.5" y="-55" font-family="Helvetica,sans-Serif" font-size="10.00">Extensions.logWarn</text>
</a>
</g>
</g>
<!-- Node8&#45;&gt;Node9 -->
<g id="edge9" class="edge">
<title>Node8&#45;&gt;Node9</title>
<path fill="none" stroke="#63b8ff" d="M579.37,-63C587.47,-63 595.75,-63 603.96,-63"/>
<polygon fill="#63b8ff" stroke="#63b8ff" points="603.69,-66.5 613.69,-63 603.69,-59.5 603.69,-66.5"/>
</g>
</g>
</svg>
