<?xml version="1.0" encoding="UTF-8" standalone="no"?>
<!DOCTYPE svg PUBLIC "-//W3C//DTD SVG 1.1//EN"
 "http://www.w3.org/Graphics/SVG/1.1/DTD/svg11.dtd">
<!-- Generated by graphviz version 8.0.3 (20230416.2022)
 -->
<!-- Title: dev.filechampion.filechampion4j.CliPluginHelper.prepEndpoint Pages: 1 -->
<svg width="808pt" height="98pt"
 viewBox="0.00 0.00 808.00 97.50" xmlns="http://www.w3.org/2000/svg" xmlns:xlink="http://www.w3.org/1999/xlink">
<g id="graph0" class="graph" transform="scale(1 1) rotate(0) translate(4 93.5)">
<title>dev.filechampion.filechampion4j.CliPluginHelper.prepEndpoint</title>
<!-- Node1 -->
<g id="node1" class="node">
<title>Node1</title>
<g id="a_node1"><a xlink:title=" ">
<polygon fill="#999999" stroke="#666666" points="155,-62.5 0,-62.5 0,-32.5 155,-32.5 155,-62.5"/>
<text text-anchor="start" x="8" y="-50.5" font-family="Helvetica,sans-Serif" font-size="10.00">dev.filechampion.filechampion4j.</text>
<text text-anchor="middle" x="77.5" y="-39.5" font-family="Helvetica,sans-Serif" font-size="10.00">CliPluginHelper.prepEndpoint</text>
</a>
</g>
</g>
<!-- Node2 -->
<g id="node2" class="node">
<title>Node2</title>
<g id="a_node2"><a xlink:href="classdev_1_1filechampion_1_1filechampion4j_1_1_cli_plugin_helper.html#a1909fb4ef2f9e8a3029bbc8c921bc2fa" target="_top" xlink:title=" ">
<polygon fill="white" stroke="#666666" points="362,-62.5 191,-62.5 191,-32.5 362,-32.5 362,-62.5"/>
<text text-anchor="start" x="199" y="-50.5" font-family="Helvetica,sans-Serif" font-size="10.00">dev.filechampion.filechampion4j.</text>
<text text-anchor="middle" x="276.5" y="-39.5" font-family="Helvetica,sans-Serif" font-size="10.00">CliPluginHelper.calculateChecksum</text>
</a>
</g>
</g>
<!-- Node1&#45;&gt;Node2 -->
<g id="edge1" class="edge">
<title>Node1&#45;&gt;Node2</title>
<path fill="none" stroke="#63b8ff" d="M155.23,-47.5C163.34,-47.5 171.66,-47.5 179.95,-47.5"/>
<polygon fill="#63b8ff" stroke="#63b8ff" points="179.82,-51 189.82,-47.5 179.82,-44 179.82,-51"/>
</g>
<!-- Node3 -->
<g id="node3" class="node">
<title>Node3</title>
<g id="a_node3"><a xlink:href="classdev_1_1filechampion_1_1filechampion4j_1_1_s_h256_calculate.html#a71d85e9593fe89524a5b26eaa6f52ade" target="_top" xlink:title=" ">
<polygon fill="white" stroke="#666666" points="553,-62.5 398,-62.5 398,-32.5 553,-32.5 553,-62.5"/>
<text text-anchor="start" x="406" y="-50.5" font-family="Helvetica,sans-Serif" font-size="10.00">dev.filechampion.filechampion4j.</text>
<text text-anchor="middle" x="475.5" y="-39.5" font-family="Helvetica,sans-Serif" font-size="10.00">SH256Calculate.getChecksum</text>
</a>
</g>
</g>
<!-- Node2&#45;&gt;Node3 -->
<g id="edge2" class="edge">
<title>Node2&#45;&gt;Node3</title>
<path fill="none" stroke="#63b8ff" d="M362.48,-47.5C370.49,-47.5 378.63,-47.5 386.68,-47.5"/>
<polygon fill="#63b8ff" stroke="#63b8ff" points="386.57,-51 396.57,-47.5 386.57,-44 386.57,-51"/>
</g>
<!-- Node4 -->
<g id="node4" class="node">
<title>Node4</title>
<g id="a_node4"><a xlink:href="classdev_1_1filechampion_1_1filechampion4j_1_1_s_h256_calculate.html#a34e1629b0d7c954639e688ff9ee9bd63" target="_top" xlink:title=" ">
<polygon fill="white" stroke="#666666" points="800,-89.5 589,-89.5 589,-59.5 800,-59.5 800,-89.5"/>
<text text-anchor="start" x="597" y="-77.5" font-family="Helvetica,sans-Serif" font-size="10.00">dev.filechampion.filechampion4j.</text>
<text text-anchor="middle" x="694.5" y="-66.5" font-family="Helvetica,sans-Serif" font-size="10.00">SH256Calculate.calculateSHA256Checksum</text>
</a>
</g>
</g>
<!-- Node3&#45;&gt;Node4 -->
<g id="edge3" class="edge">
<title>Node3&#45;&gt;Node4</title>
<path fill="none" stroke="#63b8ff" d="M553.31,-57.06C561.28,-58.05 569.5,-59.07 577.77,-60.1"/>
<polygon fill="#63b8ff" stroke="#63b8ff" points="577.31,-63.69 587.67,-61.46 578.18,-56.75 577.31,-63.69"/>
</g>
<!-- Node5 -->
<g id="node5" class="node">
<title>Node5</title>
<g id="a_node5"><a xlink:href="classdev_1_1filechampion_1_1filechampion4j_1_1_s_h256_calculate.html#a33c4e0514e71ad95a82eda265a5f0252" target="_top" xlink:title=" ">
<polygon fill="white" stroke="#666666" points="789,-41 600,-41 600,0 789,0 789,-41"/>
<text text-anchor="start" x="608" y="-29" font-family="Helvetica,sans-Serif" font-size="10.00">dev.filechampion.filechampion4j.</text>
<text text-anchor="start" x="608" y="-18" font-family="Helvetica,sans-Serif" font-size="10.00">SH256Calculate.calculateSmallSHA256</text>
<text text-anchor="middle" x="694.5" y="-7" font-family="Helvetica,sans-Serif" font-size="10.00">Checksum</text>
</a>
</g>
</g>
<!-- Node3&#45;&gt;Node5 -->
<g id="edge4" class="edge">
<title>Node3&#45;&gt;Node5</title>
<path fill="none" stroke="#63b8ff" d="M553.31,-37.94C564.91,-36.5 577.04,-34.99 589.1,-33.49"/>
<polygon fill="#63b8ff" stroke="#63b8ff" points="589.17,-36.88 598.67,-32.18 588.31,-29.94 589.17,-36.88"/>
</g>
</g>
</svg>
