<?xml version="1.0" encoding="UTF-8" standalone="no"?>
<!DOCTYPE svg PUBLIC "-//W3C//DTD SVG 1.1//EN"
 "http://www.w3.org/Graphics/SVG/1.1/DTD/svg11.dtd">
<!-- Generated by graphviz version 8.0.3 (20230416.2022)
 -->
<!-- Title: dev.filechampion.filechampion4j.ValidationsHelper.isBlank Pages: 1 -->
<svg width="1638pt" height="257pt"
 viewBox="0.00 0.00 1638.00 257.00" xmlns="http://www.w3.org/2000/svg" xmlns:xlink="http://www.w3.org/1999/xlink">
<g id="graph0" class="graph" transform="scale(1 1) rotate(0) translate(4 253)">
<title>dev.filechampion.filechampion4j.ValidationsHelper.isBlank</title>
<!-- Node1 -->
<g id="node1" class="node">
<title>Node1</title>
<g id="a_node1"><a xlink:title=" ">
<polygon fill="#999999" stroke="#666666" points="1630,-157 1475,-157 1475,-127 1630,-127 1630,-157"/>
<text text-anchor="start" x="1483" y="-145" font-family="Helvetica,sans-Serif" font-size="10.00">dev.filechampion.filechampion4j.</text>
<text text-anchor="middle" x="1552.5" y="-134" font-family="Helvetica,sans-Serif" font-size="10.00">ValidationsHelper.isBlank</text>
</a>
</g>
</g>
<!-- Node2 -->
<g id="node2" class="node">
<title>Node2</title>
<g id="a_node2"><a xlink:href="classdev_1_1filechampion_1_1filechampion4j_1_1_validations_helper.html#a43b491bbdf4b6104d060386d4371753c" target="_top" xlink:title=" ">
<polygon fill="white" stroke="#666666" points="1173,-249 1006,-249 1006,-219 1173,-219 1173,-249"/>
<text text-anchor="start" x="1014" y="-237" font-family="Helvetica,sans-Serif" font-size="10.00">dev.filechampion.filechampion4j.</text>
<text text-anchor="middle" x="1089.5" y="-226" font-family="Helvetica,sans-Serif" font-size="10.00">ValidationsHelper.checkMimeType</text>
</a>
</g>
</g>
<!-- Node1&#45;&gt;Node2 -->
<g id="edge1" class="edge">
<title>Node1&#45;&gt;Node2</title>
<path fill="none" stroke="#63b8ff" d="M1526.5,-164.14C1504.96,-181.73 1472.19,-205.12 1439,-216 1351.64,-244.63 1245.39,-245.65 1173.35,-241.72"/>
<polygon fill="#63b8ff" stroke="#63b8ff" points="1528.31,-166.36 1533.73,-157.25 1523.81,-160.99 1528.31,-166.36"/>
</g>
<!-- Node8 -->
<g id="node8" class="node">
<title>Node8</title>
<g id="a_node8"><a xlink:href="classdev_1_1filechampion_1_1filechampion4j_1_1_validations_helper.html#a9c7f6f3159fef96d606ca0a6712b2165" target="_top" xlink:title=" ">
<polygon fill="white" stroke="#666666" points="1192.5,-182 986.5,-182 986.5,-152 1192.5,-152 1192.5,-182"/>
<text text-anchor="start" x="994.5" y="-170" font-family="Helvetica,sans-Serif" font-size="10.00">dev.filechampion.filechampion4j.</text>
<text text-anchor="middle" x="1089.5" y="-159" font-family="Helvetica,sans-Serif" font-size="10.00">ValidationsHelper.containsFooterSignatures</text>
</a>
</g>
</g>
<!-- Node1&#45;&gt;Node8 -->
<g id="edge7" class="edge">
<title>Node1&#45;&gt;Node8</title>
<path fill="none" stroke="#63b8ff" d="M1518.74,-162.98C1497.06,-175.58 1467.47,-190.41 1439,-197 1337.83,-220.41 1216.32,-199.16 1146.79,-182.47"/>
<polygon fill="#63b8ff" stroke="#63b8ff" points="1520.32,-165.51 1527.11,-157.38 1516.73,-159.5 1520.32,-165.51"/>
</g>
<!-- Node9 -->
<g id="node9" class="node">
<title>Node9</title>
<g id="a_node9"><a xlink:href="classdev_1_1filechampion_1_1filechampion4j_1_1_validations_helper.html#a6861ee5ffd86e302ecd8fda347815a5f" target="_top" xlink:title=" ">
<polygon fill="white" stroke="#666666" points="1437.5,-187.5 1231.5,-187.5 1231.5,-146.5 1437.5,-146.5 1437.5,-187.5"/>
<text text-anchor="start" x="1239.5" y="-175.5" font-family="Helvetica,sans-Serif" font-size="10.00">dev.filechampion.filechampion4j.</text>
<text text-anchor="start" x="1239.5" y="-164.5" font-family="Helvetica,sans-Serif" font-size="10.00">ValidationsHelper.containsFooterSignatures</text>
<text text-anchor="middle" x="1334.5" y="-153.5" font-family="Helvetica,sans-Serif" font-size="10.00">Processor</text>
</a>
</g>
</g>
<!-- Node1&#45;&gt;Node9 -->
<g id="edge9" class="edge">
<title>Node1&#45;&gt;Node9</title>
<path fill="none" stroke="#63b8ff" d="M1463.92,-152.14C1455.28,-153.14 1446.47,-154.16 1437.7,-155.17"/>
<polygon fill="#63b8ff" stroke="#63b8ff" points="1464.21,-155.51 1473.74,-150.88 1463.4,-148.56 1464.21,-155.51"/>
</g>
<!-- Node10 -->
<g id="node10" class="node">
<title>Node10</title>
<g id="a_node10"><a xlink:href="classdev_1_1filechampion_1_1filechampion4j_1_1_validations_helper.html#aab316adeef5b3b9c80ef17bd05826582" target="_top" xlink:title=" ">
<polygon fill="white" stroke="#666666" points="1194,-133 985,-133 985,-103 1194,-103 1194,-133"/>
<text text-anchor="start" x="993" y="-121" font-family="Helvetica,sans-Serif" font-size="10.00">dev.filechampion.filechampion4j.</text>
<text text-anchor="middle" x="1089.5" y="-110" font-family="Helvetica,sans-Serif" font-size="10.00">ValidationsHelper.containsHeaderSignatures</text>
</a>
</g>
</g>
<!-- Node1&#45;&gt;Node10 -->
<g id="edge11" class="edge">
<title>Node1&#45;&gt;Node10</title>
<path fill="none" stroke="#63b8ff" d="M1464.01,-137.45C1387.3,-133.45 1275.66,-127.64 1194.42,-123.41"/>
<polygon fill="#63b8ff" stroke="#63b8ff" points="1463.43,-140.97 1473.6,-138 1463.79,-133.98 1463.43,-140.97"/>
</g>
<!-- Node11 -->
<g id="node11" class="node">
<title>Node11</title>
<g id="a_node11"><a xlink:href="classdev_1_1filechampion_1_1filechampion4j_1_1_validations_helper.html#aee8c1624a8bb9b5b96d9ea0bdf385e3a" target="_top" xlink:title=" ">
<polygon fill="white" stroke="#666666" points="1439,-89.5 1230,-89.5 1230,-48.5 1439,-48.5 1439,-89.5"/>
<text text-anchor="start" x="1238" y="-77.5" font-family="Helvetica,sans-Serif" font-size="10.00">dev.filechampion.filechampion4j.</text>
<text text-anchor="start" x="1238" y="-66.5" font-family="Helvetica,sans-Serif" font-size="10.00">ValidationsHelper.containsHeaderSignatures</text>
<text text-anchor="middle" x="1334.5" y="-55.5" font-family="Helvetica,sans-Serif" font-size="10.00">Processor</text>
</a>
</g>
</g>
<!-- Node1&#45;&gt;Node11 -->
<g id="edge13" class="edge">
<title>Node1&#45;&gt;Node11</title>
<path fill="none" stroke="#63b8ff" d="M1495.4,-123.04C1465.44,-112.91 1428.47,-100.42 1397.63,-90"/>
<polygon fill="#63b8ff" stroke="#63b8ff" points="1494.1,-126.63 1504.69,-126.52 1496.34,-120 1494.1,-126.63"/>
</g>
<!-- Node12 -->
<g id="node12" class="node">
<title>Node12</title>
<g id="a_node12"><a xlink:href="classdev_1_1filechampion_1_1filechampion4j_1_1_validations_helper.html#a480b1c09382ee05e547a68c7eed8e2ed" target="_top" xlink:title=" ">
<polygon fill="white" stroke="#666666" points="1426.5,-30 1242.5,-30 1242.5,0 1426.5,0 1426.5,-30"/>
<text text-anchor="start" x="1250.5" y="-18" font-family="Helvetica,sans-Serif" font-size="10.00">dev.filechampion.filechampion4j.</text>
<text text-anchor="middle" x="1334.5" y="-7" font-family="Helvetica,sans-Serif" font-size="10.00">ValidationsHelper.containsMagicBytes</text>
</a>
</g>
</g>
<!-- Node1&#45;&gt;Node12 -->
<g id="edge15" class="edge">
<title>Node1&#45;&gt;Node12</title>
<path fill="none" stroke="#63b8ff" d="M1532.52,-118.66C1511.97,-94.96 1476.98,-59 1439,-39 1432.8,-35.73 1426.16,-32.91 1419.34,-30.47"/>
<polygon fill="#63b8ff" stroke="#63b8ff" points="1530.28,-120.43 1539.42,-125.78 1535.62,-115.9 1530.28,-120.43"/>
</g>
<!-- Node3 -->
<g id="node3" class="node">
<title>Node3</title>
<g id="a_node3"><a xlink:href="classdev_1_1filechampion_1_1filechampion4j_1_1_validations_helper.html#acf58dbbd1e656f17a402e2856c6c9279" target="_top" xlink:title=" ">
<polygon fill="white" stroke="#666666" points="949,-157 794,-157 794,-127 949,-127 949,-157"/>
<text text-anchor="start" x="802" y="-145" font-family="Helvetica,sans-Serif" font-size="10.00">dev.filechampion.filechampion4j.</text>
<text text-anchor="middle" x="871.5" y="-134" font-family="Helvetica,sans-Serif" font-size="10.00">ValidationsHelper.doValidations</text>
</a>
</g>
</g>
<!-- Node2&#45;&gt;Node3 -->
<g id="edge2" class="edge">
<title>Node2&#45;&gt;Node3</title>
<path fill="none" stroke="#63b8ff" d="M1041.02,-214.47C1023.4,-207.17 1003.26,-198.77 985,-191 958.93,-179.91 929.58,-167.11 907.4,-157.38"/>
<polygon fill="#63b8ff" stroke="#63b8ff" points="1039.49,-218.04 1050.07,-218.63 1042.17,-211.57 1039.49,-218.04"/>
</g>
<!-- Node4 -->
<g id="node4" class="node">
<title>Node4</title>
<g id="a_node4"><a xlink:href="classdev_1_1filechampion_1_1filechampion4j_1_1_validations_helper.html#a9722c4ec7eff7b6fc7b9747855770e10" target="_top" xlink:title=" ">
<polygon fill="white" stroke="#666666" points="758,-157 573,-157 573,-127 758,-127 758,-157"/>
<text text-anchor="start" x="581" y="-145" font-family="Helvetica,sans-Serif" font-size="10.00">dev.filechampion.filechampion4j.</text>
<text text-anchor="middle" x="665.5" y="-134" font-family="Helvetica,sans-Serif" font-size="10.00">ValidationsHelper.getValidationResults</text>
</a>
</g>
</g>
<!-- Node3&#45;&gt;Node4 -->
<g id="edge3" class="edge">
<title>Node3&#45;&gt;Node4</title>
<path fill="none" stroke="#63b8ff" d="M782.75,-142C774.68,-142 766.48,-142 758.37,-142"/>
<polygon fill="#63b8ff" stroke="#63b8ff" points="782.67,-145.5 792.67,-142 782.67,-138.5 782.67,-145.5"/>
</g>
<!-- Node5 -->
<g id="node5" class="node">
<title>Node5</title>
<g id="a_node5"><a xlink:href="classdev_1_1filechampion_1_1filechampion4j_1_1_file_validator.html#a48a54a63d062cd23af2d14a6af76899e" target="_top" xlink:title=" ">
<polygon fill="white" stroke="#666666" points="537,-157 382,-157 382,-127 537,-127 537,-157"/>
<text text-anchor="start" x="390" y="-145" font-family="Helvetica,sans-Serif" font-size="10.00">dev.filechampion.filechampion4j.</text>
<text text-anchor="middle" x="459.5" y="-134" font-family="Helvetica,sans-Serif" font-size="10.00">FileValidator.doValidations</text>
</a>
</g>
</g>
<!-- Node4&#45;&gt;Node5 -->
<g id="edge4" class="edge">
<title>Node4&#45;&gt;Node5</title>
<path fill="none" stroke="#63b8ff" d="M561.79,-142C553.51,-142 545.25,-142 537.21,-142"/>
<polygon fill="#63b8ff" stroke="#63b8ff" points="561.65,-145.5 571.65,-142 561.65,-138.5 561.65,-145.5"/>
</g>
<!-- Node6 -->
<g id="node6" class="node">
<title>Node6</title>
<g id="a_node6"><a xlink:href="classdev_1_1filechampion_1_1filechampion4j_1_1_file_validator.html#a2ac42f051e5724b165e5b0234a1e23f4" target="_top" xlink:title=" ">
<polygon fill="white" stroke="#666666" points="346,-157 191,-157 191,-127 346,-127 346,-157"/>
<text text-anchor="start" x="199" y="-145" font-family="Helvetica,sans-Serif" font-size="10.00">dev.filechampion.filechampion4j.</text>
<text text-anchor="middle" x="268.5" y="-134" font-family="Helvetica,sans-Serif" font-size="10.00">FileValidator.validateFileMain</text>
</a>
</g>
</g>
<!-- Node5&#45;&gt;Node6 -->
<g id="edge5" class="edge">
<title>Node5&#45;&gt;Node6</title>
<path fill="none" stroke="#63b8ff" d="M370.89,-142C362.68,-142 354.41,-142 346.31,-142"/>
<polygon fill="#63b8ff" stroke="#63b8ff" points="370.63,-145.5 380.63,-142 370.63,-138.5 370.63,-145.5"/>
</g>
<!-- Node7 -->
<g id="node7" class="node">
<title>Node7</title>
<g id="a_node7"><a xlink:href="classdev_1_1filechampion_1_1filechampion4j_1_1_file_validator.html#a492adb6357ac22bea8b79d036aa2a287" target="_top" xlink:title=" ">
<polygon fill="white" stroke="#666666" points="155,-157 0,-157 0,-127 155,-127 155,-157"/>
<text text-anchor="start" x="8" y="-145" font-family="Helvetica,sans-Serif" font-size="10.00">dev.filechampion.filechampion4j.</text>
<text text-anchor="middle" x="77.5" y="-134" font-family="Helvetica,sans-Serif" font-size="10.00">FileValidator.validateFile</text>
</a>
</g>
</g>
<!-- Node6&#45;&gt;Node7 -->
<g id="edge6" class="edge">
<title>Node6&#45;&gt;Node7</title>
<path fill="none" stroke="#63b8ff" d="M179.89,-142C171.68,-142 163.41,-142 155.31,-142"/>
<polygon fill="#63b8ff" stroke="#63b8ff" points="179.63,-145.5 189.63,-142 179.63,-138.5 179.63,-145.5"/>
</g>
<!-- Node8&#45;&gt;Node3 -->
<g id="edge8" class="edge">
<title>Node8&#45;&gt;Node3</title>
<path fill="none" stroke="#63b8ff" d="M975.4,-153.91C966.56,-152.89 957.77,-151.87 949.26,-150.88"/>
<polygon fill="#63b8ff" stroke="#63b8ff" points="974.86,-157.49 985.19,-155.16 975.66,-150.53 974.86,-157.49"/>
</g>
<!-- Node9&#45;&gt;Node8 -->
<g id="edge10" class="edge">
<title>Node9&#45;&gt;Node8</title>
<path fill="none" stroke="#63b8ff" d="M1220.37,-167C1211.15,-167 1201.87,-167 1192.73,-167"/>
<polygon fill="#63b8ff" stroke="#63b8ff" points="1220.15,-170.5 1230.15,-167 1220.15,-163.5 1220.15,-170.5"/>
</g>
<!-- Node10&#45;&gt;Node3 -->
<g id="edge12" class="edge">
<title>Node10&#45;&gt;Node3</title>
<path fill="none" stroke="#63b8ff" d="M973.74,-130.75C965.49,-131.67 957.28,-132.58 949.32,-133.46"/>
<polygon fill="#63b8ff" stroke="#63b8ff" points="974.06,-134.13 983.61,-129.54 973.29,-127.17 974.06,-134.13"/>
</g>
<!-- Node11&#45;&gt;Node10 -->
<g id="edge14" class="edge">
<title>Node11&#45;&gt;Node10</title>
<path fill="none" stroke="#63b8ff" d="M1219.35,-92.02C1201.63,-95.59 1183.7,-99.21 1167.08,-102.56"/>
<polygon fill="#63b8ff" stroke="#63b8ff" points="1219.63,-95.33 1228.74,-89.92 1218.25,-88.47 1219.63,-95.33"/>
</g>
<!-- Node12&#45;&gt;Node3 -->
<g id="edge16" class="edge">
<title>Node12&#45;&gt;Node3</title>
<path fill="none" stroke="#63b8ff" d="M1234.31,-32.54C1163.87,-46.18 1067.53,-67.28 985,-94 957.12,-103.03 926.61,-116.27 904.4,-126.56"/>
<polygon fill="#63b8ff" stroke="#63b8ff" points="1234.79,-35.82 1243.95,-30.49 1233.47,-28.94 1234.79,-35.82"/>
</g>
</g>
</svg>
