<?xml version="1.0" encoding="UTF-8" standalone="no"?>
<!DOCTYPE svg PUBLIC "-//W3C//DTD SVG 1.1//EN"
 "http://www.w3.org/Graphics/SVG/1.1/DTD/svg11.dtd">
<!-- Generated by graphviz version 8.0.3 (20230416.2022)
 -->
<!-- Title: dev.filechampion.filechampion4j.FileAclHelper.changeFileAcl Pages: 1 -->
<svg width="793pt" height="177pt"
 viewBox="0.00 0.00 793.00 176.89" xmlns="http://www.w3.org/2000/svg" xmlns:xlink="http://www.w3.org/1999/xlink">
<g id="graph0" class="graph" transform="scale(1 1) rotate(0) translate(4 172.89)">
<title>dev.filechampion.filechampion4j.FileAclHelper.changeFileAcl</title>
<!-- Node1 -->
<g id="node1" class="node">
<title>Node1</title>
<g id="a_node1"><a xlink:title=" ">
<polygon fill="#999999" stroke="#666666" points="155,-75.89 0,-75.89 0,-45.89 155,-45.89 155,-75.89"/>
<text text-anchor="start" x="8" y="-63.89" font-family="Helvetica,sans-Serif" font-size="10.00">dev.filechampion.filechampion4j.</text>
<text text-anchor="middle" x="77.5" y="-52.89" font-family="Helvetica,sans-Serif" font-size="10.00">FileAclHelper.changeFileAcl</text>
</a>
</g>
</g>
<!-- Node2 -->
<g id="node2" class="node">
<title>Node2</title>
<g id="a_node2"><a xlink:href="classdev_1_1filechampion_1_1filechampion4j_1_1_file_acl_helper.html#ac1fb96739e62ad91d1f833908dc99442" target="_top" xlink:title=" ">
<polygon fill="white" stroke="#666666" points="350.5,-168.89 195.5,-168.89 195.5,-138.89 350.5,-138.89 350.5,-168.89"/>
<text text-anchor="start" x="203.5" y="-156.89" font-family="Helvetica,sans-Serif" font-size="10.00">dev.filechampion.filechampion4j.</text>
<text text-anchor="middle" x="273" y="-145.89" font-family="Helvetica,sans-Serif" font-size="10.00">FileAclHelper.getUserPrinciple</text>
</a>
</g>
</g>
<!-- Node1&#45;&gt;Node2 -->
<g id="edge1" class="edge">
<title>Node1&#45;&gt;Node2</title>
<path fill="none" stroke="#63b8ff" d="M110.45,-76.24C143.22,-91.99 194.35,-116.57 230.29,-133.84"/>
<polygon fill="#63b8ff" stroke="#63b8ff" points="228.47,-137.33 239,-138.51 231.5,-131.02 228.47,-137.33"/>
</g>
<!-- Node4 -->
<g id="node4" class="node">
<title>Node4</title>
<g id="a_node4"><a xlink:href="classdev_1_1filechampion_1_1filechampion4j_1_1_file_acl_helper.html#a73d0b85c677037db5ab4865e005bc756" target="_top" xlink:title=" ">
<polygon fill="white" stroke="#666666" points="785,-75.89 630,-75.89 630,-45.89 785,-45.89 785,-75.89"/>
<text text-anchor="start" x="638" y="-63.89" font-family="Helvetica,sans-Serif" font-size="10.00">dev.filechampion.filechampion4j.</text>
<text text-anchor="middle" x="707.5" y="-52.89" font-family="Helvetica,sans-Serif" font-size="10.00">FileAclHelper.logFine</text>
</a>
</g>
</g>
<!-- Node1&#45;&gt;Node4 -->
<g id="edge3" class="edge">
<title>Node1&#45;&gt;Node4</title>
<path fill="none" stroke="#63b8ff" d="M132.87,-45.46C227.5,-20.91 428.22,21 594,-12.89 620.4,-18.28 648.27,-30.12 669.67,-40.7"/>
<polygon fill="#63b8ff" stroke="#63b8ff" points="667.81,-44.19 678.32,-45.59 670.98,-37.94 667.81,-44.19"/>
</g>
<!-- Node5 -->
<g id="node5" class="node">
<title>Node5</title>
<g id="a_node5"><a xlink:href="classdev_1_1filechampion_1_1filechampion4j_1_1_file_acl_helper.html#a89a35f8379b106dcf38650384560ce9f" target="_top" xlink:title=" ">
<polygon fill="white" stroke="#666666" points="570,-51.89 415,-51.89 415,-21.89 570,-21.89 570,-51.89"/>
<text text-anchor="start" x="423" y="-39.89" font-family="Helvetica,sans-Serif" font-size="10.00">dev.filechampion.filechampion4j.</text>
<text text-anchor="middle" x="492.5" y="-28.89" font-family="Helvetica,sans-Serif" font-size="10.00">FileAclHelper.setNewOwner</text>
</a>
</g>
</g>
<!-- Node1&#45;&gt;Node5 -->
<g id="edge4" class="edge">
<title>Node1&#45;&gt;Node5</title>
<path fill="none" stroke="#63b8ff" d="M155.21,-56.43C225.81,-52.33 330.43,-46.25 404.2,-41.96"/>
<polygon fill="#63b8ff" stroke="#63b8ff" points="404.07,-45.42 413.85,-41.34 403.66,-38.43 404.07,-45.42"/>
</g>
<!-- Node6 -->
<g id="node6" class="node">
<title>Node6</title>
<g id="a_node6"><a xlink:href="classdev_1_1filechampion_1_1filechampion4j_1_1_file_acl_helper.html#a00c73219098ca931f6dbfba1f45555ae" target="_top" xlink:title=" ">
<polygon fill="white" stroke="#666666" points="355,-99.89 191,-99.89 191,-69.89 355,-69.89 355,-99.89"/>
<text text-anchor="start" x="199" y="-87.89" font-family="Helvetica,sans-Serif" font-size="10.00">dev.filechampion.filechampion4j.</text>
<text text-anchor="middle" x="273" y="-76.89" font-family="Helvetica,sans-Serif" font-size="10.00">FileAclHelper.setNewPermissions</text>
</a>
</g>
</g>
<!-- Node1&#45;&gt;Node6 -->
<g id="edge7" class="edge">
<title>Node1&#45;&gt;Node6</title>
<path fill="none" stroke="#63b8ff" d="M155.25,-70.41C163.32,-71.41 171.59,-72.43 179.81,-73.45"/>
<polygon fill="#63b8ff" stroke="#63b8ff" points="179.22,-77.03 189.57,-74.79 180.08,-70.08 179.22,-77.03"/>
</g>
<!-- Node3 -->
<g id="node3" class="node">
<title>Node3</title>
<g id="a_node3"><a xlink:href="classdev_1_1filechampion_1_1filechampion4j_1_1_file_acl_helper.html#ab6fd281a6c09486bf16d2eea3a0ea1ea" target="_top" xlink:title=" ">
<polygon fill="white" stroke="#666666" points="785,-135.89 630,-135.89 630,-105.89 785,-105.89 785,-135.89"/>
<text text-anchor="start" x="638" y="-123.89" font-family="Helvetica,sans-Serif" font-size="10.00">dev.filechampion.filechampion4j.</text>
<text text-anchor="middle" x="707.5" y="-112.89" font-family="Helvetica,sans-Serif" font-size="10.00">FileAclHelper.logSevere</text>
</a>
</g>
</g>
<!-- Node2&#45;&gt;Node3 -->
<g id="edge2" class="edge">
<title>Node2&#45;&gt;Node3</title>
<path fill="none" stroke="#63b8ff" d="M350.81,-161.61C415.95,-166.5 511.66,-169.74 594,-156.89 615.55,-153.52 638.62,-146.74 658.22,-139.96"/>
<polygon fill="#63b8ff" stroke="#63b8ff" points="659.18,-142.97 667.43,-136.32 656.83,-136.38 659.18,-142.97"/>
</g>
<!-- Node5&#45;&gt;Node3 -->
<g id="edge6" class="edge">
<title>Node5&#45;&gt;Node3</title>
<path fill="none" stroke="#63b8ff" d="M570.43,-52.26C578.52,-54.76 586.52,-57.62 594,-60.89 611.63,-68.57 613.25,-75.43 630,-84.89 639.88,-90.46 650.77,-95.96 661.16,-100.9"/>
<polygon fill="#63b8ff" stroke="#63b8ff" points="659.37,-104.4 669.91,-105.47 662.34,-98.06 659.37,-104.4"/>
</g>
<!-- Node5&#45;&gt;Node4 -->
<g id="edge5" class="edge">
<title>Node5&#45;&gt;Node4</title>
<path fill="none" stroke="#63b8ff" d="M570.4,-45.55C586.23,-47.34 603.02,-49.23 619.19,-51.05"/>
<polygon fill="#63b8ff" stroke="#63b8ff" points="618.39,-54.59 628.71,-52.23 619.17,-47.64 618.39,-54.59"/>
</g>
<!-- Node7 -->
<g id="node7" class="node">
<title>Node7</title>
<g id="a_node7"><a xlink:href="classdev_1_1filechampion_1_1filechampion4j_1_1_file_acl_helper.html#a957cd8f062521037c11e5d15d3785906" target="_top" xlink:title=" ">
<polygon fill="white" stroke="#666666" points="584,-99.89 401,-99.89 401,-69.89 584,-69.89 584,-99.89"/>
<text text-anchor="start" x="409" y="-87.89" font-family="Helvetica,sans-Serif" font-size="10.00">dev.filechampion.filechampion4j.</text>
<text text-anchor="middle" x="492.5" y="-76.89" font-family="Helvetica,sans-Serif" font-size="10.00">FileAclHelper.setNewPermissionsUnix</text>
</a>
</g>
</g>
<!-- Node6&#45;&gt;Node7 -->
<g id="edge8" class="edge">
<title>Node6&#45;&gt;Node7</title>
<path fill="none" stroke="#63b8ff" d="M355.3,-84.89C366.66,-84.89 378.45,-84.89 390.13,-84.89"/>
<polygon fill="#63b8ff" stroke="#63b8ff" points="389.8,-88.39 399.8,-84.89 389.8,-81.39 389.8,-88.39"/>
</g>
<!-- Node8 -->
<g id="node8" class="node">
<title>Node8</title>
<g id="a_node8"><a xlink:href="classdev_1_1filechampion_1_1filechampion4j_1_1_file_acl_helper.html#a5c4d050d4ddf432b45ffe49b48b20735" target="_top" xlink:title=" ">
<polygon fill="white" stroke="#666666" points="594,-147.89 391,-147.89 391,-117.89 594,-117.89 594,-147.89"/>
<text text-anchor="start" x="399" y="-135.89" font-family="Helvetica,sans-Serif" font-size="10.00">dev.filechampion.filechampion4j.</text>
<text text-anchor="middle" x="492.5" y="-124.89" font-family="Helvetica,sans-Serif" font-size="10.00">FileAclHelper.setNewPermissionsWindows</text>
</a>
</g>
</g>
<!-- Node6&#45;&gt;Node8 -->
<g id="edge11" class="edge">
<title>Node6&#45;&gt;Node8</title>
<path fill="none" stroke="#63b8ff" d="M344.02,-100.34C365.36,-105.05 388.99,-110.26 410.97,-115.12"/>
<polygon fill="#63b8ff" stroke="#63b8ff" points="410.1,-118.73 420.62,-117.46 411.6,-111.89 410.1,-118.73"/>
</g>
<!-- Node7&#45;&gt;Node3 -->
<g id="edge10" class="edge">
<title>Node7&#45;&gt;Node3</title>
<path fill="none" stroke="#63b8ff" d="M584.45,-100.26C595.85,-102.18 607.48,-104.15 618.83,-106.07"/>
<polygon fill="#63b8ff" stroke="#63b8ff" points="618.16,-109.67 628.6,-107.89 619.32,-102.77 618.16,-109.67"/>
</g>
<!-- Node7&#45;&gt;Node4 -->
<g id="edge9" class="edge">
<title>Node7&#45;&gt;Node4</title>
<path fill="none" stroke="#63b8ff" d="M584.45,-74.64C595.85,-73.35 607.48,-72.04 618.83,-70.76"/>
<polygon fill="#63b8ff" stroke="#63b8ff" points="619.05,-74.15 628.6,-69.55 618.27,-67.19 619.05,-74.15"/>
</g>
<!-- Node8&#45;&gt;Node3 -->
<g id="edge13" class="edge">
<title>Node8&#45;&gt;Node3</title>
<path fill="none" stroke="#63b8ff" d="M594.39,-127.2C602.52,-126.74 610.69,-126.28 618.72,-125.83"/>
<polygon fill="#63b8ff" stroke="#63b8ff" points="618.77,-129.28 628.56,-125.22 618.38,-122.29 618.77,-129.28"/>
</g>
<!-- Node8&#45;&gt;Node4 -->
<g id="edge12" class="edge">
<title>Node8&#45;&gt;Node4</title>
<path fill="none" stroke="#63b8ff" d="M564.75,-117.45C574.65,-114.85 584.63,-111.98 594,-108.89 617.91,-100.99 643.81,-90.11 664.73,-80.7"/>
<polygon fill="#63b8ff" stroke="#63b8ff" points="665.92,-83.55 673.56,-76.22 663.01,-77.18 665.92,-83.55"/>
</g>
</g>
</svg>
