<?xml version="1.0" encoding="UTF-8" standalone="no"?>
<!DOCTYPE svg PUBLIC "-//W3C//DTD SVG 1.1//EN"
 "http://www.w3.org/Graphics/SVG/1.1/DTD/svg11.dtd">
<!-- Generated by graphviz version 8.0.3 (20230416.2022)
 -->
<!-- Title: dev.filechampion.filechampion4j.FileValidator.setFileAttributes Pages: 1 -->
<svg width="984pt" height="178pt"
 viewBox="0.00 0.00 984.00 178.00" xmlns="http://www.w3.org/2000/svg" xmlns:xlink="http://www.w3.org/1999/xlink">
<g id="graph0" class="graph" transform="scale(1 1) rotate(0) translate(4 174)">
<title>dev.filechampion.filechampion4j.FileValidator.setFileAttributes</title>
<!-- Node1 -->
<g id="node1" class="node">
<title>Node1</title>
<g id="a_node1"><a xlink:title=" ">
<polygon fill="#999999" stroke="#666666" points="155,-54 0,-54 0,-24 155,-24 155,-54"/>
<text text-anchor="start" x="8" y="-42" font-family="Helvetica,sans-Serif" font-size="10.00">dev.filechampion.filechampion4j.</text>
<text text-anchor="middle" x="77.5" y="-31" font-family="Helvetica,sans-Serif" font-size="10.00">FileValidator.setFileAttributes</text>
</a>
</g>
</g>
<!-- Node2 -->
<g id="node2" class="node">
<title>Node2</title>
<g id="a_node2"><a xlink:href="classdev_1_1filechampion_1_1filechampion4j_1_1_file_acl_helper.html#a7f56b5c25bc9643fe169f7f871029cca" target="_top" xlink:title=" ">
<polygon fill="white" stroke="#666666" points="346,-78 191,-78 191,-48 346,-48 346,-78"/>
<text text-anchor="start" x="199" y="-66" font-family="Helvetica,sans-Serif" font-size="10.00">dev.filechampion.filechampion4j.</text>
<text text-anchor="middle" x="268.5" y="-55" font-family="Helvetica,sans-Serif" font-size="10.00">FileAclHelper.changeFileAcl</text>
</a>
</g>
</g>
<!-- Node1&#45;&gt;Node2 -->
<g id="edge1" class="edge">
<title>Node1&#45;&gt;Node2</title>
<path fill="none" stroke="#63b8ff" d="M155.37,-48.76C163.47,-49.79 171.75,-50.84 179.96,-51.88"/>
<polygon fill="#63b8ff" stroke="#63b8ff" points="179.33,-55.46 189.69,-53.25 180.22,-48.52 179.33,-55.46"/>
</g>
<!-- Node10 -->
<g id="node10" class="node">
<title>Node10</title>
<g id="a_node10"><a xlink:href="classdev_1_1filechampion_1_1filechampion4j_1_1_file_validator.html#ace3e82c3f2c84fa31ad8ad2f8215463e" target="_top" xlink:title=" ">
<polygon fill="white" stroke="#666666" points="346,-30 191,-30 191,0 346,0 346,-30"/>
<text text-anchor="start" x="199" y="-18" font-family="Helvetica,sans-Serif" font-size="10.00">dev.filechampion.filechampion4j.</text>
<text text-anchor="middle" x="268.5" y="-7" font-family="Helvetica,sans-Serif" font-size="10.00">FileValidator.logSevere</text>
</a>
</g>
</g>
<!-- Node1&#45;&gt;Node10 -->
<g id="edge15" class="edge">
<title>Node1&#45;&gt;Node10</title>
<path fill="none" stroke="#63b8ff" d="M155.37,-29.24C163.47,-28.21 171.75,-27.16 179.96,-26.12"/>
<polygon fill="#63b8ff" stroke="#63b8ff" points="180.22,-29.48 189.69,-24.75 179.33,-22.54 180.22,-29.48"/>
</g>
<!-- Node3 -->
<g id="node3" class="node">
<title>Node3</title>
<g id="a_node3"><a xlink:href="classdev_1_1filechampion_1_1filechampion4j_1_1_file_acl_helper.html#ac1fb96739e62ad91d1f833908dc99442" target="_top" xlink:title=" ">
<polygon fill="white" stroke="#666666" points="541.5,-170 386.5,-170 386.5,-140 541.5,-140 541.5,-170"/>
<text text-anchor="start" x="394.5" y="-158" font-family="Helvetica,sans-Serif" font-size="10.00">dev.filechampion.filechampion4j.</text>
<text text-anchor="middle" x="464" y="-147" font-family="Helvetica,sans-Serif" font-size="10.00">FileAclHelper.getUserPrinciple</text>
</a>
</g>
</g>
<!-- Node2&#45;&gt;Node3 -->
<g id="edge2" class="edge">
<title>Node2&#45;&gt;Node3</title>
<path fill="none" stroke="#63b8ff" d="M301.89,-78.4C334.54,-93.92 385.08,-117.95 420.84,-134.96"/>
<polygon fill="#63b8ff" stroke="#63b8ff" points="418.97,-138.42 429.51,-139.55 421.98,-132.1 418.97,-138.42"/>
</g>
<!-- Node5 -->
<g id="node5" class="node">
<title>Node5</title>
<g id="a_node5"><a xlink:href="classdev_1_1filechampion_1_1filechampion4j_1_1_file_acl_helper.html#a73d0b85c677037db5ab4865e005bc756" target="_top" xlink:title=" ">
<polygon fill="white" stroke="#666666" points="976,-77 821,-77 821,-47 976,-47 976,-77"/>
<text text-anchor="start" x="829" y="-65" font-family="Helvetica,sans-Serif" font-size="10.00">dev.filechampion.filechampion4j.</text>
<text text-anchor="middle" x="898.5" y="-54" font-family="Helvetica,sans-Serif" font-size="10.00">FileAclHelper.logFine</text>
</a>
</g>
</g>
<!-- Node2&#45;&gt;Node5 -->
<g id="edge4" class="edge">
<title>Node2&#45;&gt;Node5</title>
<path fill="none" stroke="#63b8ff" d="M323.11,-47.6C417.42,-22.78 618.75,19.98 785,-14 811.4,-19.4 839.27,-31.24 860.67,-41.81"/>
<polygon fill="#63b8ff" stroke="#63b8ff" points="858.81,-45.3 869.32,-46.7 861.98,-39.06 858.81,-45.3"/>
</g>
<!-- Node6 -->
<g id="node6" class="node">
<title>Node6</title>
<g id="a_node6"><a xlink:href="classdev_1_1filechampion_1_1filechampion4j_1_1_file_acl_helper.html#a89a35f8379b106dcf38650384560ce9f" target="_top" xlink:title=" ">
<polygon fill="white" stroke="#666666" points="761,-53 606,-53 606,-23 761,-23 761,-53"/>
<text text-anchor="start" x="614" y="-41" font-family="Helvetica,sans-Serif" font-size="10.00">dev.filechampion.filechampion4j.</text>
<text text-anchor="middle" x="683.5" y="-30" font-family="Helvetica,sans-Serif" font-size="10.00">FileAclHelper.setNewOwner</text>
</a>
</g>
</g>
<!-- Node2&#45;&gt;Node6 -->
<g id="edge5" class="edge">
<title>Node2&#45;&gt;Node6</title>
<path fill="none" stroke="#63b8ff" d="M346.21,-58.36C416.81,-54.08 521.43,-47.75 595.2,-43.28"/>
<polygon fill="#63b8ff" stroke="#63b8ff" points="595.08,-46.74 604.85,-42.64 594.65,-39.75 595.08,-46.74"/>
</g>
<!-- Node7 -->
<g id="node7" class="node">
<title>Node7</title>
<g id="a_node7"><a xlink:href="classdev_1_1filechampion_1_1filechampion4j_1_1_file_acl_helper.html#a00c73219098ca931f6dbfba1f45555ae" target="_top" xlink:title=" ">
<polygon fill="white" stroke="#666666" points="546,-101 382,-101 382,-71 546,-71 546,-101"/>
<text text-anchor="start" x="390" y="-89" font-family="Helvetica,sans-Serif" font-size="10.00">dev.filechampion.filechampion4j.</text>
<text text-anchor="middle" x="464" y="-78" font-family="Helvetica,sans-Serif" font-size="10.00">FileAclHelper.setNewPermissions</text>
</a>
</g>
</g>
<!-- Node2&#45;&gt;Node7 -->
<g id="edge8" class="edge">
<title>Node2&#45;&gt;Node7</title>
<path fill="none" stroke="#63b8ff" d="M346.25,-72.12C354.32,-73.08 362.59,-74.06 370.81,-75.04"/>
<polygon fill="#63b8ff" stroke="#63b8ff" points="370.23,-78.62 380.57,-76.32 371.05,-71.67 370.23,-78.62"/>
</g>
<!-- Node4 -->
<g id="node4" class="node">
<title>Node4</title>
<g id="a_node4"><a xlink:href="classdev_1_1filechampion_1_1filechampion4j_1_1_file_acl_helper.html#ab6fd281a6c09486bf16d2eea3a0ea1ea" target="_top" xlink:title=" ">
<polygon fill="white" stroke="#666666" points="976,-137 821,-137 821,-107 976,-107 976,-137"/>
<text text-anchor="start" x="829" y="-125" font-family="Helvetica,sans-Serif" font-size="10.00">dev.filechampion.filechampion4j.</text>
<text text-anchor="middle" x="898.5" y="-114" font-family="Helvetica,sans-Serif" font-size="10.00">FileAclHelper.logSevere</text>
</a>
</g>
</g>
<!-- Node3&#45;&gt;Node4 -->
<g id="edge3" class="edge">
<title>Node3&#45;&gt;Node4</title>
<path fill="none" stroke="#63b8ff" d="M541.81,-162.73C606.95,-167.61 702.66,-170.85 785,-158 806.55,-154.64 829.62,-147.85 849.22,-141.07"/>
<polygon fill="#63b8ff" stroke="#63b8ff" points="850.18,-144.09 858.43,-137.43 847.83,-137.49 850.18,-144.09"/>
</g>
<!-- Node6&#45;&gt;Node4 -->
<g id="edge7" class="edge">
<title>Node6&#45;&gt;Node4</title>
<path fill="none" stroke="#63b8ff" d="M761.43,-53.38C769.52,-55.88 777.52,-58.74 785,-62 802.63,-69.69 804.25,-76.55 821,-86 830.88,-91.58 841.77,-97.07 852.16,-102.02"/>
<polygon fill="#63b8ff" stroke="#63b8ff" points="850.37,-105.51 860.91,-106.58 853.34,-99.17 850.37,-105.51"/>
</g>
<!-- Node6&#45;&gt;Node5 -->
<g id="edge6" class="edge">
<title>Node6&#45;&gt;Node5</title>
<path fill="none" stroke="#63b8ff" d="M761.4,-46.66C777.23,-48.45 794.02,-50.34 810.19,-52.16"/>
<polygon fill="#63b8ff" stroke="#63b8ff" points="809.39,-55.71 819.71,-53.35 810.17,-48.75 809.39,-55.71"/>
</g>
<!-- Node8 -->
<g id="node8" class="node">
<title>Node8</title>
<g id="a_node8"><a xlink:href="classdev_1_1filechampion_1_1filechampion4j_1_1_file_acl_helper.html#a957cd8f062521037c11e5d15d3785906" target="_top" xlink:title=" ">
<polygon fill="white" stroke="#666666" points="775,-101 592,-101 592,-71 775,-71 775,-101"/>
<text text-anchor="start" x="600" y="-89" font-family="Helvetica,sans-Serif" font-size="10.00">dev.filechampion.filechampion4j.</text>
<text text-anchor="middle" x="683.5" y="-78" font-family="Helvetica,sans-Serif" font-size="10.00">FileAclHelper.setNewPermissionsUnix</text>
</a>
</g>
</g>
<!-- Node7&#45;&gt;Node8 -->
<g id="edge9" class="edge">
<title>Node7&#45;&gt;Node8</title>
<path fill="none" stroke="#63b8ff" d="M546.3,-86C557.66,-86 569.45,-86 581.13,-86"/>
<polygon fill="#63b8ff" stroke="#63b8ff" points="580.8,-89.5 590.8,-86 580.8,-82.5 580.8,-89.5"/>
</g>
<!-- Node9 -->
<g id="node9" class="node">
<title>Node9</title>
<g id="a_node9"><a xlink:href="classdev_1_1filechampion_1_1filechampion4j_1_1_file_acl_helper.html#a5c4d050d4ddf432b45ffe49b48b20735" target="_top" xlink:title=" ">
<polygon fill="white" stroke="#666666" points="785,-149 582,-149 582,-119 785,-119 785,-149"/>
<text text-anchor="start" x="590" y="-137" font-family="Helvetica,sans-Serif" font-size="10.00">dev.filechampion.filechampion4j.</text>
<text text-anchor="middle" x="683.5" y="-126" font-family="Helvetica,sans-Serif" font-size="10.00">FileAclHelper.setNewPermissionsWindows</text>
</a>
</g>
</g>
<!-- Node7&#45;&gt;Node9 -->
<g id="edge12" class="edge">
<title>Node7&#45;&gt;Node9</title>
<path fill="none" stroke="#63b8ff" d="M535.02,-101.45C556.36,-106.16 579.99,-111.38 601.97,-116.23"/>
<polygon fill="#63b8ff" stroke="#63b8ff" points="601.1,-119.84 611.62,-118.58 602.6,-113 601.1,-119.84"/>
</g>
<!-- Node8&#45;&gt;Node4 -->
<g id="edge11" class="edge">
<title>Node8&#45;&gt;Node4</title>
<path fill="none" stroke="#63b8ff" d="M775.45,-101.37C786.85,-103.3 798.48,-105.27 809.83,-107.18"/>
<polygon fill="#63b8ff" stroke="#63b8ff" points="809.16,-110.79 819.6,-109 810.32,-103.88 809.16,-110.79"/>
</g>
<!-- Node8&#45;&gt;Node5 -->
<g id="edge10" class="edge">
<title>Node8&#45;&gt;Node5</title>
<path fill="none" stroke="#63b8ff" d="M775.45,-75.75C786.85,-74.47 798.48,-73.16 809.83,-71.88"/>
<polygon fill="#63b8ff" stroke="#63b8ff" points="810.05,-75.26 819.6,-70.66 809.27,-68.31 810.05,-75.26"/>
</g>
<!-- Node9&#45;&gt;Node4 -->
<g id="edge14" class="edge">
<title>Node9&#45;&gt;Node4</title>
<path fill="none" stroke="#63b8ff" d="M785.39,-128.32C793.52,-127.86 801.69,-127.4 809.72,-126.95"/>
<polygon fill="#63b8ff" stroke="#63b8ff" points="809.77,-130.39 819.56,-126.33 809.38,-123.4 809.77,-130.39"/>
</g>
<!-- Node9&#45;&gt;Node5 -->
<g id="edge13" class="edge">
<title>Node9&#45;&gt;Node5</title>
<path fill="none" stroke="#63b8ff" d="M755.75,-118.57C765.65,-115.96 775.63,-113.09 785,-110 808.91,-102.11 834.81,-91.22 855.73,-81.82"/>
<polygon fill="#63b8ff" stroke="#63b8ff" points="856.92,-84.67 864.56,-77.34 854.01,-78.3 856.92,-84.67"/>
</g>
</g>
</svg>
