<?xml version="1.0" encoding="UTF-8" standalone="no"?>
<!DOCTYPE svg PUBLIC "-//W3C//DTD SVG 1.1//EN"
 "http://www.w3.org/Graphics/SVG/1.1/DTD/svg11.dtd">
<!-- Generated by graphviz version 8.0.3 (20230416.2022)
 -->
<!-- Title: dev.filechampion.filechampion4j.Extensions.mapConfiguredExtensions Pages: 1 -->
<svg width="787pt" height="311pt"
 viewBox="0.00 0.00 787.00 310.65" xmlns="http://www.w3.org/2000/svg" xmlns:xlink="http://www.w3.org/1999/xlink">
<g id="graph0" class="graph" transform="scale(1 1) rotate(0) translate(4 306.65)">
<title>dev.filechampion.filechampion4j.Extensions.mapConfiguredExtensions</title>
<!-- Node1 -->
<g id="node1" class="node">
<title>Node1</title>
<g id="a_node1"><a xlink:title=" ">
<polygon fill="#999999" stroke="#666666" points="182,-260 0,-260 0,-230 182,-230 182,-260"/>
<text text-anchor="start" x="8" y="-248" font-family="Helvetica,sans-Serif" font-size="10.00">dev.filechampion.filechampion4j.</text>
<text text-anchor="middle" x="91" y="-237" font-family="Helvetica,sans-Serif" font-size="10.00">Extensions.mapConfiguredExtensions</text>
</a>
</g>
</g>
<!-- Node2 -->
<g id="node2" class="node">
<title>Node2</title>
<g id="a_node2"><a xlink:href="classdev_1_1filechampion_1_1filechampion4j_1_1_extensions.html#a0aada571ca5ffb1ca298874d2c0fac50" target="_top" xlink:title=" ">
<polygon fill="white" stroke="#666666" points="588,-260 433,-260 433,-230 588,-230 588,-260"/>
<text text-anchor="start" x="441" y="-248" font-family="Helvetica,sans-Serif" font-size="10.00">dev.filechampion.filechampion4j.</text>
<text text-anchor="middle" x="510.5" y="-237" font-family="Helvetica,sans-Serif" font-size="10.00">Extensions.logFine</text>
</a>
</g>
</g>
<!-- Node1&#45;&gt;Node2 -->
<g id="edge1" class="edge">
<title>Node1&#45;&gt;Node2</title>
<path fill="none" stroke="#63b8ff" d="M182.33,-245C253.38,-245 351.76,-245 422.05,-245"/>
<polygon fill="#63b8ff" stroke="#63b8ff" points="421.64,-248.5 431.64,-245 421.64,-241.5 421.64,-248.5"/>
</g>
<!-- Node3 -->
<g id="node3" class="node">
<title>Node3</title>
<g id="a_node3"><a xlink:href="classdev_1_1filechampion_1_1filechampion4j_1_1_extensions.html#adebd31331477fe200ec272ae4569f482" target="_top" xlink:title=" ">
<polygon fill="white" stroke="#666666" points="779,-164 624,-164 624,-134 779,-134 779,-164"/>
<text text-anchor="start" x="632" y="-152" font-family="Helvetica,sans-Serif" font-size="10.00">dev.filechampion.filechampion4j.</text>
<text text-anchor="middle" x="701.5" y="-141" font-family="Helvetica,sans-Serif" font-size="10.00">Extensions.logWarn</text>
</a>
</g>
</g>
<!-- Node1&#45;&gt;Node3 -->
<g id="edge2" class="edge">
<title>Node1&#45;&gt;Node3</title>
<path fill="none" stroke="#63b8ff" d="M138.88,-260.45C229.88,-287.67 434.93,-335.32 588,-269 632.97,-249.52 668.2,-202.24 686.54,-173.18"/>
<polygon fill="#63b8ff" stroke="#63b8ff" points="689.87,-175.44 692.1,-165.09 683.9,-171.79 689.87,-175.44"/>
</g>
<!-- Node4 -->
<g id="node4" class="node">
<title>Node4</title>
<g id="a_node4"><a xlink:href="classdev_1_1filechampion_1_1filechampion4j_1_1_extensions.html#ac905bd4c26533f81b804c16a2b7cf1df" target="_top" xlink:title=" ">
<polygon fill="white" stroke="#666666" points="397,-164 218,-164 218,-134 397,-134 397,-164"/>
<text text-anchor="start" x="226" y="-152" font-family="Helvetica,sans-Serif" font-size="10.00">dev.filechampion.filechampion4j.</text>
<text text-anchor="middle" x="307.5" y="-141" font-family="Helvetica,sans-Serif" font-size="10.00">Extensions.mapExtensionValidations</text>
</a>
</g>
</g>
<!-- Node1&#45;&gt;Node4 -->
<g id="edge3" class="edge">
<title>Node1&#45;&gt;Node4</title>
<path fill="none" stroke="#63b8ff" d="M126.46,-229.58C163.36,-213.06 222.03,-186.8 262.3,-168.78"/>
<polygon fill="#63b8ff" stroke="#63b8ff" points="263.42,-171.67 271.12,-164.39 260.57,-165.28 263.42,-171.67"/>
</g>
<!-- Node4&#45;&gt;Node2 -->
<g id="edge4" class="edge">
<title>Node4&#45;&gt;Node2</title>
<path fill="none" stroke="#63b8ff" d="M331.55,-164.41C355.95,-180.21 395.97,-204.72 433,-221 436.83,-222.68 440.82,-224.31 444.88,-225.85"/>
<polygon fill="#63b8ff" stroke="#63b8ff" points="443.44,-229.42 454.04,-229.55 445.83,-222.84 443.44,-229.42"/>
</g>
<!-- Node4&#45;&gt;Node3 -->
<g id="edge6" class="edge">
<title>Node4&#45;&gt;Node3</title>
<path fill="none" stroke="#63b8ff" d="M376.01,-133.56C394.39,-130.02 414.37,-126.78 433,-125 501.58,-118.45 519.49,-117.77 588,-125 601.24,-126.4 615.22,-128.69 628.65,-131.33"/>
<polygon fill="#63b8ff" stroke="#63b8ff" points="627.78,-134.93 638.27,-133.5 629.18,-128.07 627.78,-134.93"/>
</g>
<!-- Node5 -->
<g id="node5" class="node">
<title>Node5</title>
<g id="a_node5"><a xlink:href="classdev_1_1filechampion_1_1filechampion4j_1_1_extensions.html#a366117a17cfa799e9056a5929b60f99a" target="_top" xlink:title=" ">
<polygon fill="white" stroke="#666666" points="588,-78 433,-78 433,-48 588,-48 588,-78"/>
<text text-anchor="start" x="441" y="-66" font-family="Helvetica,sans-Serif" font-size="10.00">dev.filechampion.filechampion4j.</text>
<text text-anchor="middle" x="510.5" y="-55" font-family="Helvetica,sans-Serif" font-size="10.00">Extensions.logInfo</text>
</a>
</g>
</g>
<!-- Node4&#45;&gt;Node5 -->
<g id="edge5" class="edge">
<title>Node4&#45;&gt;Node5</title>
<path fill="none" stroke="#63b8ff" d="M340.74,-133.52C365.72,-121.7 401.31,-105.25 433,-92 440.74,-88.77 448.98,-85.48 457.08,-82.34"/>
<polygon fill="#63b8ff" stroke="#63b8ff" points="458.13,-85.3 466.21,-78.45 455.62,-78.77 458.13,-85.3"/>
</g>
<!-- Node6 -->
<g id="node6" class="node">
<title>Node6</title>
<g id="a_node6"><a xlink:href="classdev_1_1filechampion_1_1filechampion4j_1_1_extensions.html#aae54a0c575ab050d505554b827eba486" target="_top" xlink:title=" ">
<polygon fill="white" stroke="#666666" points="588,-30 433,-30 433,0 588,0 588,-30"/>
<text text-anchor="start" x="441" y="-18" font-family="Helvetica,sans-Serif" font-size="10.00">dev.filechampion.filechampion4j.</text>
<text text-anchor="middle" x="510.5" y="-7" font-family="Helvetica,sans-Serif" font-size="10.00">Extensions.setArrayList</text>
</a>
</g>
</g>
<!-- Node4&#45;&gt;Node6 -->
<g id="edge7" class="edge">
<title>Node4&#45;&gt;Node6</title>
<path fill="none" stroke="#63b8ff" d="M321.88,-133.6C343.17,-110.01 387.03,-64.94 433,-39 435.67,-37.49 438.45,-36.07 441.29,-34.72"/>
<polygon fill="#63b8ff" stroke="#63b8ff" points="442.39,-37.63 450.18,-30.44 439.61,-31.2 442.39,-37.63"/>
</g>
<!-- Node7 -->
<g id="node7" class="node">
<title>Node7</title>
<g id="a_node7"><a xlink:href="classdev_1_1filechampion_1_1filechampion4j_1_1_extensions.html#ae8f04f4e1d62e544e1ec5893bff82a4d" target="_top" xlink:title=" ">
<polygon fill="white" stroke="#666666" points="588,-212 433,-212 433,-182 588,-182 588,-212"/>
<text text-anchor="start" x="441" y="-200" font-family="Helvetica,sans-Serif" font-size="10.00">dev.filechampion.filechampion4j.</text>
<text text-anchor="middle" x="510.5" y="-189" font-family="Helvetica,sans-Serif" font-size="10.00">Extensions.setBoolean</text>
</a>
</g>
</g>
<!-- Node4&#45;&gt;Node7 -->
<g id="edge9" class="edge">
<title>Node4&#45;&gt;Node7</title>
<path fill="none" stroke="#63b8ff" d="M373.2,-164.45C392.66,-169.1 414.17,-174.24 434.25,-179.03"/>
<polygon fill="#63b8ff" stroke="#63b8ff" points="433.38,-182.66 443.92,-181.58 435,-175.85 433.38,-182.66"/>
</g>
<!-- Node8 -->
<g id="node8" class="node">
<title>Node8</title>
<g id="a_node8"><a xlink:href="classdev_1_1filechampion_1_1filechampion4j_1_1_extensions.html#ad1fe364836f20ce9ff85b8f19ad2ba12" target="_top" xlink:title=" ">
<polygon fill="white" stroke="#666666" points="588,-164 433,-164 433,-134 588,-134 588,-164"/>
<text text-anchor="start" x="441" y="-152" font-family="Helvetica,sans-Serif" font-size="10.00">dev.filechampion.filechampion4j.</text>
<text text-anchor="middle" x="510.5" y="-141" font-family="Helvetica,sans-Serif" font-size="10.00">Extensions.setString</text>
</a>
</g>
</g>
<!-- Node4&#45;&gt;Node8 -->
<g id="edge11" class="edge">
<title>Node4&#45;&gt;Node8</title>
<path fill="none" stroke="#63b8ff" d="M397.25,-149C405.34,-149 413.55,-149 421.64,-149"/>
<polygon fill="#63b8ff" stroke="#63b8ff" points="421.58,-152.5 431.58,-149 421.58,-145.5 421.58,-152.5"/>
</g>
<!-- Node6&#45;&gt;Node3 -->
<g id="edge8" class="edge">
<title>Node6&#45;&gt;Node3</title>
<path fill="none" stroke="#63b8ff" d="M570.78,-30.48C576.78,-32.96 582.62,-35.78 588,-39 626.21,-61.85 661.36,-100.19 681.87,-125.04"/>
<polygon fill="#63b8ff" stroke="#63b8ff" points="679.73,-126.96 688.74,-132.53 685.17,-122.55 679.73,-126.96"/>
</g>
<!-- Node7&#45;&gt;Node3 -->
<g id="edge10" class="edge">
<title>Node7&#45;&gt;Node3</title>
<path fill="none" stroke="#63b8ff" d="M572.34,-181.55C590.47,-176.94 610.49,-171.86 629.22,-167.1"/>
<polygon fill="#63b8ff" stroke="#63b8ff" points="629.94,-170.28 638.77,-164.42 628.22,-163.49 629.94,-170.28"/>
</g>
<!-- Node8&#45;&gt;Node3 -->
<g id="edge12" class="edge">
<title>Node8&#45;&gt;Node3</title>
<path fill="none" stroke="#63b8ff" d="M588.37,-149C596.47,-149 604.75,-149 612.96,-149"/>
<polygon fill="#63b8ff" stroke="#63b8ff" points="612.69,-152.5 622.69,-149 612.69,-145.5 612.69,-152.5"/>
</g>
</g>
</svg>
