<?xml version="1.0" encoding="UTF-8" standalone="no"?>
<!DOCTYPE svg PUBLIC "-//W3C//DTD SVG 1.1//EN"
 "http://www.w3.org/Graphics/SVG/1.1/DTD/svg11.dtd">
<!-- Generated by graphviz version 8.0.3 (20230416.2022)
 -->
<!-- Title: dev.filechampion.filechampion4j.ValidationsHelper.containsFooterSignatures Pages: 1 -->
<svg width="838pt" height="232pt"
 viewBox="0.00 0.00 838.00 231.50" xmlns="http://www.w3.org/2000/svg" xmlns:xlink="http://www.w3.org/1999/xlink">
<g id="graph0" class="graph" transform="scale(1 1) rotate(0) translate(4 227.5)">
<title>dev.filechampion.filechampion4j.ValidationsHelper.containsFooterSignatures</title>
<!-- Node1 -->
<g id="node1" class="node">
<title>Node1</title>
<g id="a_node1"><a xlink:title=" ">
<polygon fill="#999999" stroke="#666666" points="206,-126 0,-126 0,-96 206,-96 206,-126"/>
<text text-anchor="start" x="8" y="-114" font-family="Helvetica,sans-Serif" font-size="10.00">dev.filechampion.filechampion4j.</text>
<text text-anchor="middle" x="103" y="-103" font-family="Helvetica,sans-Serif" font-size="10.00">ValidationsHelper.containsFooterSignatures</text>
</a>
</g>
</g>
<!-- Node2 -->
<g id="node2" class="node">
<title>Node2</title>
<g id="a_node2"><a xlink:href="classdev_1_1filechampion_1_1filechampion4j_1_1_validations_helper.html#a6861ee5ffd86e302ecd8fda347815a5f" target="_top" xlink:title=" ">
<polygon fill="white" stroke="#666666" points="448,-223.5 242,-223.5 242,-182.5 448,-182.5 448,-223.5"/>
<text text-anchor="start" x="250" y="-211.5" font-family="Helvetica,sans-Serif" font-size="10.00">dev.filechampion.filechampion4j.</text>
<text text-anchor="start" x="250" y="-200.5" font-family="Helvetica,sans-Serif" font-size="10.00">ValidationsHelper.containsFooterSignatures</text>
<text text-anchor="middle" x="345" y="-189.5" font-family="Helvetica,sans-Serif" font-size="10.00">Processor</text>
</a>
</g>
</g>
<!-- Node1&#45;&gt;Node2 -->
<g id="edge1" class="edge">
<title>Node1&#45;&gt;Node2</title>
<path fill="none" stroke="#63b8ff" d="M139.79,-126.49C167.51,-138.31 206.96,-154.77 242,-168 251.29,-171.51 261.12,-175.07 270.85,-178.51"/>
<polygon fill="#63b8ff" stroke="#63b8ff" points="269.34,-182.04 279.94,-182.04 271.66,-175.43 269.34,-182.04"/>
</g>
<!-- Node3 -->
<g id="node3" class="node">
<title>Node3</title>
<g id="a_node3"><a xlink:href="classdev_1_1filechampion_1_1filechampion4j_1_1_validations_helper.html#a74bd8e5177ce42b308623ab3bd1ba05e" target="_top" xlink:title=" ">
<polygon fill="white" stroke="#666666" points="639,-207 484,-207 484,-177 639,-177 639,-207"/>
<text text-anchor="start" x="492" y="-195" font-family="Helvetica,sans-Serif" font-size="10.00">dev.filechampion.filechampion4j.</text>
<text text-anchor="middle" x="561.5" y="-184" font-family="Helvetica,sans-Serif" font-size="10.00">ValidationsHelper.isBlank</text>
</a>
</g>
</g>
<!-- Node1&#45;&gt;Node3 -->
<g id="edge7" class="edge">
<title>Node1&#45;&gt;Node3</title>
<path fill="none" stroke="#63b8ff" d="M191.21,-126.47C272.2,-140.84 392.15,-162.13 473.17,-176.51"/>
<polygon fill="#63b8ff" stroke="#63b8ff" points="472.39,-180.1 482.85,-178.4 473.61,-173.21 472.39,-180.1"/>
</g>
<!-- Node4 -->
<g id="node4" class="node">
<title>Node4</title>
<g id="a_node4"><a xlink:href="classdev_1_1filechampion_1_1filechampion4j_1_1_extensions.html#ac3de7a6e3faa8e7f76d0d3705e02a42d" target="_top" xlink:title=" ">
<polygon fill="white" stroke="#666666" points="422.5,-126 267.5,-126 267.5,-96 422.5,-96 422.5,-126"/>
<text text-anchor="start" x="275.5" y="-114" font-family="Helvetica,sans-Serif" font-size="10.00">dev.filechampion.filechampion4j.</text>
<text text-anchor="middle" x="345" y="-103" font-family="Helvetica,sans-Serif" font-size="10.00">Extensions.getValidationValue</text>
</a>
</g>
</g>
<!-- Node1&#45;&gt;Node4 -->
<g id="edge3" class="edge">
<title>Node1&#45;&gt;Node4</title>
<path fill="none" stroke="#63b8ff" d="M206.48,-111C223.2,-111 240.39,-111 256.7,-111"/>
<polygon fill="#63b8ff" stroke="#63b8ff" points="256.28,-114.5 266.28,-111 256.28,-107.5 256.28,-114.5"/>
</g>
<!-- Node8 -->
<g id="node8" class="node">
<title>Node8</title>
<g id="a_node8"><a xlink:href="classdev_1_1filechampion_1_1filechampion4j_1_1_validations_helper.html#a67f90f5fb54527c7f2becb8fc6eaafaa" target="_top" xlink:title=" ">
<polygon fill="white" stroke="#666666" points="422.5,-78 267.5,-78 267.5,-48 422.5,-48 422.5,-78"/>
<text text-anchor="start" x="275.5" y="-66" font-family="Helvetica,sans-Serif" font-size="10.00">dev.filechampion.filechampion4j.</text>
<text text-anchor="middle" x="345" y="-55" font-family="Helvetica,sans-Serif" font-size="10.00">ValidationsHelper.logFine</text>
</a>
</g>
</g>
<!-- Node1&#45;&gt;Node8 -->
<g id="edge8" class="edge">
<title>Node1&#45;&gt;Node8</title>
<path fill="none" stroke="#63b8ff" d="M181.26,-95.55C205.36,-90.73 232.1,-85.38 256.84,-80.43"/>
<polygon fill="#63b8ff" stroke="#63b8ff" points="257.18,-83.73 266.3,-78.34 255.8,-76.87 257.18,-83.73"/>
</g>
<!-- Node9 -->
<g id="node9" class="node">
<title>Node9</title>
<g id="a_node9"><a xlink:href="classdev_1_1filechampion_1_1filechampion4j_1_1_validations_helper.html#a19e635fd3852e01ab67af0db7700a462" target="_top" xlink:title=" ">
<polygon fill="white" stroke="#666666" points="422.5,-30 267.5,-30 267.5,0 422.5,0 422.5,-30"/>
<text text-anchor="start" x="275.5" y="-18" font-family="Helvetica,sans-Serif" font-size="10.00">dev.filechampion.filechampion4j.</text>
<text text-anchor="middle" x="345" y="-7" font-family="Helvetica,sans-Serif" font-size="10.00">ValidationsHelper.logWarn</text>
</a>
</g>
</g>
<!-- Node1&#45;&gt;Node9 -->
<g id="edge9" class="edge">
<title>Node1&#45;&gt;Node9</title>
<path fill="none" stroke="#63b8ff" d="M128.56,-95.77C155.51,-79.65 200.46,-54.45 242,-39 247.33,-37.02 252.88,-35.16 258.51,-33.43"/>
<polygon fill="#63b8ff" stroke="#63b8ff" points="259.1,-36.62 267.71,-30.45 257.13,-29.9 259.1,-36.62"/>
</g>
<!-- Node2&#45;&gt;Node3 -->
<g id="edge2" class="edge">
<title>Node2&#45;&gt;Node3</title>
<path fill="none" stroke="#63b8ff" d="M448.22,-197.76C456.46,-197.34 464.73,-196.91 472.85,-196.49"/>
<polygon fill="#63b8ff" stroke="#63b8ff" points="473,-199.94 482.81,-195.93 472.64,-192.95 473,-199.94"/>
</g>
<!-- Node5 -->
<g id="node5" class="node">
<title>Node5</title>
<g id="a_node5"><a xlink:href="classdev_1_1filechampion_1_1filechampion4j_1_1_extensions.html#a0b4d6f0065a4fc61701be6ab4103c441" target="_top" xlink:title=" ">
<polygon fill="white" stroke="#666666" points="639,-137 484,-137 484,-107 639,-107 639,-137"/>
<text text-anchor="start" x="492" y="-125" font-family="Helvetica,sans-Serif" font-size="10.00">dev.filechampion.filechampion4j.</text>
<text text-anchor="middle" x="561.5" y="-114" font-family="Helvetica,sans-Serif" font-size="10.00">Extensions.checkInputs</text>
</a>
</g>
</g>
<!-- Node4&#45;&gt;Node5 -->
<g id="edge4" class="edge">
<title>Node4&#45;&gt;Node5</title>
<path fill="none" stroke="#63b8ff" d="M422.83,-114.94C439.1,-115.77 456.39,-116.66 473.03,-117.51"/>
<polygon fill="#63b8ff" stroke="#63b8ff" points="472.68,-121.05 482.84,-118.07 473.03,-114.06 472.68,-121.05"/>
</g>
<!-- Node7 -->
<g id="node7" class="node">
<title>Node7</title>
<g id="a_node7"><a xlink:href="classdev_1_1filechampion_1_1filechampion4j_1_1_extensions.html#a0aada571ca5ffb1ca298874d2c0fac50" target="_top" xlink:title=" ">
<polygon fill="white" stroke="#666666" points="639,-89 484,-89 484,-59 639,-59 639,-89"/>
<text text-anchor="start" x="492" y="-77" font-family="Helvetica,sans-Serif" font-size="10.00">dev.filechampion.filechampion4j.</text>
<text text-anchor="middle" x="561.5" y="-66" font-family="Helvetica,sans-Serif" font-size="10.00">Extensions.logFine</text>
</a>
</g>
</g>
<!-- Node4&#45;&gt;Node7 -->
<g id="edge6" class="edge">
<title>Node4&#45;&gt;Node7</title>
<path fill="none" stroke="#63b8ff" d="M422.83,-97.75C439.1,-94.94 456.39,-91.96 473.03,-89.09"/>
<polygon fill="#63b8ff" stroke="#63b8ff" points="473.58,-92.37 482.84,-87.22 472.39,-85.47 473.58,-92.37"/>
</g>
<!-- Node6 -->
<g id="node6" class="node">
<title>Node6</title>
<g id="a_node6"><a xlink:href="classdev_1_1filechampion_1_1filechampion4j_1_1_extensions.html#adebd31331477fe200ec272ae4569f482" target="_top" xlink:title=" ">
<polygon fill="white" stroke="#666666" points="830,-137 675,-137 675,-107 830,-107 830,-137"/>
<text text-anchor="start" x="683" y="-125" font-family="Helvetica,sans-Serif" font-size="10.00">dev.filechampion.filechampion4j.</text>
<text text-anchor="middle" x="752.5" y="-114" font-family="Helvetica,sans-Serif" font-size="10.00">Extensions.logWarn</text>
</a>
</g>
</g>
<!-- Node5&#45;&gt;Node6 -->
<g id="edge5" class="edge">
<title>Node5&#45;&gt;Node6</title>
<path fill="none" stroke="#63b8ff" d="M639.37,-122C647.47,-122 655.75,-122 663.96,-122"/>
<polygon fill="#63b8ff" stroke="#63b8ff" points="663.69,-125.5 673.69,-122 663.69,-118.5 663.69,-125.5"/>
</g>
</g>
</svg>
