<?xml version="1.0" encoding="UTF-8" standalone="no"?>
<!DOCTYPE svg PUBLIC "-//W3C//DTD SVG 1.1//EN"
 "http://www.w3.org/Graphics/SVG/1.1/DTD/svg11.dtd">
<!-- Generated by graphviz version 8.0.3 (20230416.2022)
 -->
<!-- Title: dev.filechampion.filechampion4j.FileValidator.logFine Pages: 1 -->
<svg width="1357pt" height="245pt"
 viewBox="0.00 0.00 1357.00 245.30" xmlns="http://www.w3.org/2000/svg" xmlns:xlink="http://www.w3.org/1999/xlink">
<g id="graph0" class="graph" transform="scale(1 1) rotate(0) translate(4 241.3)">
<title>dev.filechampion.filechampion4j.FileValidator.logFine</title>
<!-- Node1 -->
<g id="node1" class="node">
<title>Node1</title>
<g id="a_node1"><a xlink:title=" ">
<polygon fill="#999999" stroke="#666666" points="1349,-138.3 1194,-138.3 1194,-108.3 1349,-108.3 1349,-138.3"/>
<text text-anchor="start" x="1202" y="-126.3" font-family="Helvetica,sans-Serif" font-size="10.00">dev.filechampion.filechampion4j.</text>
<text text-anchor="middle" x="1271.5" y="-115.3" font-family="Helvetica,sans-Serif" font-size="10.00">FileValidator.logFine</text>
</a>
</g>
</g>
<!-- Node2 -->
<g id="node2" class="node">
<title>Node2</title>
<g id="a_node2"><a xlink:href="classdev_1_1filechampion_1_1filechampion4j_1_1_file_validator.html#a48a54a63d062cd23af2d14a6af76899e" target="_top" xlink:title=" ">
<polygon fill="white" stroke="#666666" points="537,-171.3 382,-171.3 382,-141.3 537,-141.3 537,-171.3"/>
<text text-anchor="start" x="390" y="-159.3" font-family="Helvetica,sans-Serif" font-size="10.00">dev.filechampion.filechampion4j.</text>
<text text-anchor="middle" x="459.5" y="-148.3" font-family="Helvetica,sans-Serif" font-size="10.00">FileValidator.doValidations</text>
</a>
</g>
</g>
<!-- Node1&#45;&gt;Node2 -->
<g id="edge1" class="edge">
<title>Node1&#45;&gt;Node2</title>
<path fill="none" stroke="#63b8ff" d="M1183.03,-133.28C1174.58,-134.05 1166.13,-134.74 1158,-135.3 932.88,-150.67 666.13,-154.79 537.49,-155.89"/>
<polygon fill="#63b8ff" stroke="#63b8ff" points="1183.09,-136.7 1192.71,-132.28 1182.43,-129.73 1183.09,-136.7"/>
</g>
<!-- Node3 -->
<g id="node3" class="node">
<title>Node3</title>
<g id="a_node3"><a xlink:href="classdev_1_1filechampion_1_1filechampion4j_1_1_file_validator.html#a2ac42f051e5724b165e5b0234a1e23f4" target="_top" xlink:title=" ">
<polygon fill="white" stroke="#666666" points="346,-190.3 191,-190.3 191,-160.3 346,-160.3 346,-190.3"/>
<text text-anchor="start" x="199" y="-178.3" font-family="Helvetica,sans-Serif" font-size="10.00">dev.filechampion.filechampion4j.</text>
<text text-anchor="middle" x="268.5" y="-167.3" font-family="Helvetica,sans-Serif" font-size="10.00">FileValidator.validateFileMain</text>
</a>
</g>
</g>
<!-- Node1&#45;&gt;Node3 -->
<g id="edge14" class="edge">
<title>Node1&#45;&gt;Node3</title>
<path fill="none" stroke="#63b8ff" d="M1210.82,-141.86C1133.06,-164.35 992.5,-199.3 869.5,-199.3 869.5,-199.3 869.5,-199.3 652.5,-199.3 546.24,-199.3 423.71,-189.98 346.44,-182.96"/>
<polygon fill="#63b8ff" stroke="#63b8ff" points="1211.76,-144.94 1220.37,-138.77 1209.79,-138.22 1211.76,-144.94"/>
</g>
<!-- Node4 -->
<g id="node4" class="node">
<title>Node4</title>
<g id="a_node4"><a xlink:href="classdev_1_1filechampion_1_1filechampion4j_1_1_file_validator.html#a492adb6357ac22bea8b79d036aa2a287" target="_top" xlink:title=" ">
<polygon fill="white" stroke="#666666" points="155,-211.3 0,-211.3 0,-181.3 155,-181.3 155,-211.3"/>
<text text-anchor="start" x="8" y="-199.3" font-family="Helvetica,sans-Serif" font-size="10.00">dev.filechampion.filechampion4j.</text>
<text text-anchor="middle" x="77.5" y="-188.3" font-family="Helvetica,sans-Serif" font-size="10.00">FileValidator.validateFile</text>
</a>
</g>
</g>
<!-- Node1&#45;&gt;Node4 -->
<g id="edge13" class="edge">
<title>Node1&#45;&gt;Node4</title>
<path fill="none" stroke="#63b8ff" d="M1239.2,-144.61C1217.35,-158.51 1187.02,-175.94 1158,-186.3 1035.36,-230.06 999.71,-237.3 869.5,-237.3 869.5,-237.3 869.5,-237.3 458.5,-237.3 353,-237.3 231.96,-221.48 155.38,-209.5"/>
<polygon fill="#63b8ff" stroke="#63b8ff" points="1240.82,-147.08 1247.31,-138.7 1237.01,-141.2 1240.82,-147.08"/>
</g>
<!-- Node5 -->
<g id="node5" class="node">
<title>Node5</title>
<g id="a_node5"><a xlink:href="classdev_1_1filechampion_1_1filechampion4j_1_1_file_validator.html#aac29042353654b8f6c3975ae885da151" target="_top" xlink:title=" ">
<polygon fill="white" stroke="#666666" points="734,-133.3 573,-133.3 573,-103.3 734,-103.3 734,-133.3"/>
<text text-anchor="start" x="581" y="-121.3" font-family="Helvetica,sans-Serif" font-size="10.00">dev.filechampion.filechampion4j.</text>
<text text-anchor="middle" x="653.5" y="-110.3" font-family="Helvetica,sans-Serif" font-size="10.00">FileValidator.executeAfterPlugins</text>
</a>
</g>
</g>
<!-- Node1&#45;&gt;Node5 -->
<g id="edge4" class="edge">
<title>Node1&#45;&gt;Node5</title>
<path fill="none" stroke="#63b8ff" d="M1182.78,-122.58C1062.92,-121.61 849.71,-119.88 734.19,-118.94"/>
<polygon fill="#63b8ff" stroke="#63b8ff" points="1182.7,-126.09 1192.73,-122.67 1182.76,-119.09 1182.7,-126.09"/>
</g>
<!-- Node6 -->
<g id="node6" class="node">
<title>Node6</title>
<g id="a_node6"><a xlink:href="classdev_1_1filechampion_1_1filechampion4j_1_1_file_validator.html#aa9bf0e018f1c94b78ea2e8e3c12eafdd" target="_top" xlink:title=" ">
<polygon fill="white" stroke="#666666" points="967,-95.3 770,-95.3 770,-65.3 967,-65.3 967,-95.3"/>
<text text-anchor="start" x="778" y="-83.3" font-family="Helvetica,sans-Serif" font-size="10.00">dev.filechampion.filechampion4j.</text>
<text text-anchor="middle" x="868.5" y="-72.3" font-family="Helvetica,sans-Serif" font-size="10.00">FileValidator.executeAfterPluginsProcess</text>
</a>
</g>
</g>
<!-- Node1&#45;&gt;Node6 -->
<g id="edge6" class="edge">
<title>Node1&#45;&gt;Node6</title>
<path fill="none" stroke="#63b8ff" d="M1183,-112.2C1174.55,-111.19 1166.11,-110.21 1158,-109.3 1094.59,-102.17 1023.25,-94.99 967.38,-89.56"/>
<polygon fill="#63b8ff" stroke="#63b8ff" points="1182.33,-115.77 1192.67,-113.49 1183.16,-108.82 1182.33,-115.77"/>
</g>
<!-- Node7 -->
<g id="node7" class="node">
<title>Node7</title>
<g id="a_node7"><a xlink:href="classdev_1_1filechampion_1_1filechampion4j_1_1_file_validator.html#a617f3b8be7835bbb96df357a412d1bbf" target="_top" xlink:title=" ">
<polygon fill="white" stroke="#666666" points="952.5,-47.3 784.5,-47.3 784.5,-17.3 952.5,-17.3 952.5,-47.3"/>
<text text-anchor="start" x="792.5" y="-35.3" font-family="Helvetica,sans-Serif" font-size="10.00">dev.filechampion.filechampion4j.</text>
<text text-anchor="middle" x="868.5" y="-24.3" font-family="Helvetica,sans-Serif" font-size="10.00">FileValidator.executeBeforePlugins</text>
</a>
</g>
</g>
<!-- Node1&#45;&gt;Node7 -->
<g id="edge8" class="edge">
<title>Node1&#45;&gt;Node7</title>
<path fill="none" stroke="#63b8ff" d="M1253.74,-99.36C1234.17,-73.72 1199.17,-34.53 1158,-18.3 1080.91,12.09 983.13,-2.59 923.5,-16.81"/>
<polygon fill="#63b8ff" stroke="#63b8ff" points="1251.47,-101.17 1260.24,-107.13 1257.09,-97.01 1251.47,-101.17"/>
</g>
<!-- Node8 -->
<g id="node8" class="node">
<title>Node8</title>
<g id="a_node8"><a xlink:href="classdev_1_1filechampion_1_1filechampion4j_1_1_file_validator.html#a00a7f2979f0321f1823ce815ecd20945" target="_top" xlink:title=" ">
<polygon fill="white" stroke="#666666" points="1158,-57.3 1003,-57.3 1003,-27.3 1158,-27.3 1158,-57.3"/>
<text text-anchor="start" x="1011" y="-45.3" font-family="Helvetica,sans-Serif" font-size="10.00">dev.filechampion.filechampion4j.</text>
<text text-anchor="middle" x="1080.5" y="-34.3" font-family="Helvetica,sans-Serif" font-size="10.00">FileValidator.executePlugin</text>
</a>
</g>
</g>
<!-- Node1&#45;&gt;Node8 -->
<g id="edge10" class="edge">
<title>Node1&#45;&gt;Node8</title>
<path fill="none" stroke="#63b8ff" d="M1228.85,-103.19C1207.77,-93.24 1181.7,-81.25 1158,-71.3 1147,-66.68 1134.98,-61.97 1123.8,-57.72"/>
<polygon fill="#63b8ff" stroke="#63b8ff" points="1227.23,-106.77 1237.76,-107.9 1230.23,-100.45 1227.23,-106.77"/>
</g>
<!-- Node2&#45;&gt;Node3 -->
<g id="edge2" class="edge">
<title>Node2&#45;&gt;Node3</title>
<path fill="none" stroke="#63b8ff" d="M370.89,-165.1C362.68,-165.93 354.41,-166.76 346.31,-167.58"/>
<polygon fill="#63b8ff" stroke="#63b8ff" points="371.03,-168.51 380.63,-164.02 370.33,-161.54 371.03,-168.51"/>
</g>
<!-- Node3&#45;&gt;Node4 -->
<g id="edge3" class="edge">
<title>Node3&#45;&gt;Node4</title>
<path fill="none" stroke="#63b8ff" d="M179.89,-185.03C171.68,-185.94 163.41,-186.86 155.31,-187.76"/>
<polygon fill="#63b8ff" stroke="#63b8ff" points="180.07,-188.42 189.63,-183.84 179.3,-181.46 180.07,-188.42"/>
</g>
<!-- Node5&#45;&gt;Node2 -->
<g id="edge5" class="edge">
<title>Node5&#45;&gt;Node2</title>
<path fill="none" stroke="#63b8ff" d="M563.7,-135.87C554.88,-137.62 545.97,-139.38 537.28,-141.1"/>
<polygon fill="#63b8ff" stroke="#63b8ff" points="564.28,-139.13 573.41,-133.75 562.92,-132.26 564.28,-139.13"/>
</g>
<!-- Node6&#45;&gt;Node5 -->
<g id="edge7" class="edge">
<title>Node6&#45;&gt;Node5</title>
<path fill="none" stroke="#63b8ff" d="M770.3,-97.64C758.22,-99.79 745.97,-101.98 734.19,-104.08"/>
<polygon fill="#63b8ff" stroke="#63b8ff" points="770.63,-100.95 779.86,-95.75 769.41,-94.06 770.63,-100.95"/>
</g>
<!-- Node7&#45;&gt;Node3 -->
<g id="edge9" class="edge">
<title>Node7&#45;&gt;Node3</title>
<path fill="none" stroke="#63b8ff" d="M773.2,-47.06C674.56,-63.58 515.77,-93.24 382,-132.3 355.91,-139.92 327.3,-150.89 305.47,-159.84"/>
<polygon fill="#63b8ff" stroke="#63b8ff" points="773.74,-50.35 783.03,-45.26 772.59,-43.44 773.74,-50.35"/>
</g>
<!-- Node8&#45;&gt;Node6 -->
<g id="edge11" class="edge">
<title>Node8&#45;&gt;Node6</title>
<path fill="none" stroke="#63b8ff" d="M992.08,-58.12C979.77,-60.34 967.14,-62.63 954.87,-64.85"/>
<polygon fill="#63b8ff" stroke="#63b8ff" points="992.58,-61.4 1001.79,-56.18 991.33,-54.51 992.58,-61.4"/>
</g>
<!-- Node8&#45;&gt;Node7 -->
<g id="edge12" class="edge">
<title>Node8&#45;&gt;Node7</title>
<path fill="none" stroke="#63b8ff" d="M991.98,-38.13C978.99,-37.51 965.63,-36.87 952.72,-36.26"/>
<polygon fill="#63b8ff" stroke="#63b8ff" points="991.64,-41.66 1001.79,-38.64 991.97,-34.67 991.64,-41.66"/>
</g>
</g>
</svg>
