<?xml version="1.0" encoding="UTF-8" standalone="no"?>
<!DOCTYPE svg PUBLIC "-//W3C//DTD SVG 1.1//EN"
 "http://www.w3.org/Graphics/SVG/1.1/DTD/svg11.dtd">
<!-- Generated by graphviz version 8.0.3 (20230416.2022)
 -->
<!-- Title: dev.filechampion.filechampion4j.ValidationsHelper.logWarn Pages: 1 -->
<svg width="1613pt" height="334pt"
 viewBox="0.00 0.00 1613.00 334.00" xmlns="http://www.w3.org/2000/svg" xmlns:xlink="http://www.w3.org/1999/xlink">
<g id="graph0" class="graph" transform="scale(1 1) rotate(0) translate(4 330)">
<title>dev.filechampion.filechampion4j.ValidationsHelper.logWarn</title>
<!-- Node1 -->
<g id="node1" class="node">
<title>Node1</title>
<g id="a_node1"><a xlink:title=" ">
<polygon fill="#999999" stroke="#666666" points="1605,-178 1450,-178 1450,-148 1605,-148 1605,-178"/>
<text text-anchor="start" x="1458" y="-166" font-family="Helvetica,sans-Serif" font-size="10.00">dev.filechampion.filechampion4j.</text>
<text text-anchor="middle" x="1527.5" y="-155" font-family="Helvetica,sans-Serif" font-size="10.00">ValidationsHelper.logWarn</text>
</a>
</g>
</g>
<!-- Node2 -->
<g id="node2" class="node">
<title>Node2</title>
<g id="a_node2"><a xlink:href="classdev_1_1filechampion_1_1filechampion4j_1_1_validations_helper.html#a4b5f515c54272fa1c4f177ef05c4fffe" target="_top" xlink:title=" ">
<polygon fill="white" stroke="#666666" points="1168,-326 1011,-326 1011,-296 1168,-296 1168,-326"/>
<text text-anchor="start" x="1019" y="-314" font-family="Helvetica,sans-Serif" font-size="10.00">dev.filechampion.filechampion4j.</text>
<text text-anchor="middle" x="1089.5" y="-303" font-family="Helvetica,sans-Serif" font-size="10.00">ValidationsHelper.checkFileSize</text>
</a>
</g>
</g>
<!-- Node1&#45;&gt;Node2 -->
<g id="edge1" class="edge">
<title>Node1&#45;&gt;Node2</title>
<path fill="none" stroke="#63b8ff" d="M1511.6,-187.22C1492.75,-215.46 1457.44,-260.94 1414,-282 1336.62,-319.51 1236.63,-322.63 1168.43,-319.01"/>
<polygon fill="#63b8ff" stroke="#63b8ff" points="1514.84,-189.66 1517.35,-179.37 1508.97,-185.85 1514.84,-189.66"/>
</g>
<!-- Node3 -->
<g id="node3" class="node">
<title>Node3</title>
<g id="a_node3"><a xlink:href="classdev_1_1filechampion_1_1filechampion4j_1_1_validations_helper.html#acf58dbbd1e656f17a402e2856c6c9279" target="_top" xlink:title=" ">
<polygon fill="white" stroke="#666666" points="949,-160 794,-160 794,-130 949,-130 949,-160"/>
<text text-anchor="start" x="802" y="-148" font-family="Helvetica,sans-Serif" font-size="10.00">dev.filechampion.filechampion4j.</text>
<text text-anchor="middle" x="871.5" y="-137" font-family="Helvetica,sans-Serif" font-size="10.00">ValidationsHelper.doValidations</text>
</a>
</g>
</g>
<!-- Node1&#45;&gt;Node3 -->
<g id="edge17" class="edge">
<title>Node1&#45;&gt;Node3</title>
<path fill="none" stroke="#63b8ff" d="M1499.43,-184.85C1477.76,-200.85 1445.84,-221.24 1414,-230 1229.56,-280.76 1168.85,-247.88 985,-195 955.42,-186.49 923.52,-171.74 901.27,-160.45"/>
<polygon fill="#63b8ff" stroke="#63b8ff" points="1501.2,-187.14 1507.05,-178.31 1496.97,-181.56 1501.2,-187.14"/>
</g>
<!-- Node8 -->
<g id="node8" class="node">
<title>Node8</title>
<g id="a_node8"><a xlink:href="classdev_1_1filechampion_1_1filechampion4j_1_1_validations_helper.html#a43b491bbdf4b6104d060386d4371753c" target="_top" xlink:title=" ">
<polygon fill="white" stroke="#666666" points="1173,-186 1006,-186 1006,-156 1173,-156 1173,-186"/>
<text text-anchor="start" x="1014" y="-174" font-family="Helvetica,sans-Serif" font-size="10.00">dev.filechampion.filechampion4j.</text>
<text text-anchor="middle" x="1089.5" y="-163" font-family="Helvetica,sans-Serif" font-size="10.00">ValidationsHelper.checkMimeType</text>
</a>
</g>
</g>
<!-- Node1&#45;&gt;Node8 -->
<g id="edge7" class="edge">
<title>Node1&#45;&gt;Node8</title>
<path fill="none" stroke="#63b8ff" d="M1489.67,-183.19C1468.27,-193.76 1440.4,-205.6 1414,-211 1333.88,-227.38 1310.98,-222.38 1230,-211 1196.69,-206.32 1160.19,-195.64 1132.88,-186.5"/>
<polygon fill="#63b8ff" stroke="#63b8ff" points="1490.98,-185.94 1498.32,-178.3 1487.81,-179.7 1490.98,-185.94"/>
</g>
<!-- Node9 -->
<g id="node9" class="node">
<title>Node9</title>
<g id="a_node9"><a xlink:href="classdev_1_1filechampion_1_1filechampion4j_1_1_validations_helper.html#a9c7f6f3159fef96d606ca0a6712b2165" target="_top" xlink:title=" ">
<polygon fill="white" stroke="#666666" points="1192.5,-136 986.5,-136 986.5,-106 1192.5,-106 1192.5,-136"/>
<text text-anchor="start" x="994.5" y="-124" font-family="Helvetica,sans-Serif" font-size="10.00">dev.filechampion.filechampion4j.</text>
<text text-anchor="middle" x="1089.5" y="-113" font-family="Helvetica,sans-Serif" font-size="10.00">ValidationsHelper.containsFooterSignatures</text>
</a>
</g>
</g>
<!-- Node1&#45;&gt;Node9 -->
<g id="edge9" class="edge">
<title>Node1&#45;&gt;Node9</title>
<path fill="none" stroke="#63b8ff" d="M1489.67,-142.81C1468.27,-132.24 1440.4,-120.4 1414,-115 1341.08,-100.09 1256.98,-102.22 1192.81,-107.75"/>
<polygon fill="#63b8ff" stroke="#63b8ff" points="1487.81,-146.3 1498.32,-147.7 1490.98,-140.06 1487.81,-146.3"/>
</g>
<!-- Node10 -->
<g id="node10" class="node">
<title>Node10</title>
<g id="a_node10"><a xlink:href="classdev_1_1filechampion_1_1filechampion4j_1_1_validations_helper.html#aab316adeef5b3b9c80ef17bd05826582" target="_top" xlink:title=" ">
<polygon fill="white" stroke="#666666" points="1194,-84 985,-84 985,-54 1194,-54 1194,-84"/>
<text text-anchor="start" x="993" y="-72" font-family="Helvetica,sans-Serif" font-size="10.00">dev.filechampion.filechampion4j.</text>
<text text-anchor="middle" x="1089.5" y="-61" font-family="Helvetica,sans-Serif" font-size="10.00">ValidationsHelper.containsHeaderSignatures</text>
</a>
</g>
</g>
<!-- Node1&#45;&gt;Node10 -->
<g id="edge11" class="edge">
<title>Node1&#45;&gt;Node10</title>
<path fill="none" stroke="#63b8ff" d="M1496.74,-141.38C1474.95,-126.76 1444.06,-108.46 1414,-99 1342.84,-76.61 1258.87,-69.35 1194.32,-67.56"/>
<polygon fill="#63b8ff" stroke="#63b8ff" points="1494.55,-144.81 1504.78,-147.59 1498.51,-139.04 1494.55,-144.81"/>
</g>
<!-- Node11 -->
<g id="node11" class="node">
<title>Node11</title>
<g id="a_node11"><a xlink:href="classdev_1_1filechampion_1_1filechampion4j_1_1_validations_helper.html#a480b1c09382ee05e547a68c7eed8e2ed" target="_top" xlink:title=" ">
<polygon fill="white" stroke="#666666" points="1414,-30 1230,-30 1230,0 1414,0 1414,-30"/>
<text text-anchor="start" x="1238" y="-18" font-family="Helvetica,sans-Serif" font-size="10.00">dev.filechampion.filechampion4j.</text>
<text text-anchor="middle" x="1322" y="-7" font-family="Helvetica,sans-Serif" font-size="10.00">ValidationsHelper.containsMagicBytes</text>
</a>
</g>
</g>
<!-- Node1&#45;&gt;Node11 -->
<g id="edge13" class="edge">
<title>Node1&#45;&gt;Node11</title>
<path fill="none" stroke="#63b8ff" d="M1509.84,-139.14C1489.95,-112.35 1454.27,-69.3 1414,-44 1405.44,-38.62 1395.79,-34.16 1386.05,-30.48"/>
<polygon fill="#63b8ff" stroke="#63b8ff" points="1507.49,-140.86 1516.2,-146.89 1513.15,-136.74 1507.49,-140.86"/>
</g>
<!-- Node12 -->
<g id="node12" class="node">
<title>Node12</title>
<g id="a_node12"><a xlink:href="classdev_1_1filechampion_1_1filechampion4j_1_1_validations_helper.html#aa4f7e8b626db5b4c4071c77b36693d2b" target="_top" xlink:title=" ">
<polygon fill="white" stroke="#666666" points="1401,-202 1243,-202 1243,-172 1401,-172 1401,-202"/>
<text text-anchor="start" x="1251" y="-190" font-family="Helvetica,sans-Serif" font-size="10.00">dev.filechampion.filechampion4j.</text>
<text text-anchor="middle" x="1322" y="-179" font-family="Helvetica,sans-Serif" font-size="10.00">ValidationsHelper.deleteTempDir</text>
</a>
</g>
</g>
<!-- Node1&#45;&gt;Node12 -->
<g id="edge15" class="edge">
<title>Node1&#45;&gt;Node12</title>
<path fill="none" stroke="#63b8ff" d="M1438.74,-173.35C1426.33,-174.81 1413.62,-176.31 1401.4,-177.75"/>
<polygon fill="#63b8ff" stroke="#63b8ff" points="1439.04,-176.72 1448.57,-172.07 1438.22,-169.77 1439.04,-176.72"/>
</g>
<!-- Node13 -->
<g id="node13" class="node">
<title>Node13</title>
<g id="a_node13"><a xlink:href="classdev_1_1filechampion_1_1filechampion4j_1_1_validations_helper.html#adb1b1278d1f522489bb3bdd4e3c5f887" target="_top" xlink:title=" ">
<polygon fill="white" stroke="#666666" points="1410.5,-154 1233.5,-154 1233.5,-124 1410.5,-124 1410.5,-154"/>
<text text-anchor="start" x="1241.5" y="-142" font-family="Helvetica,sans-Serif" font-size="10.00">dev.filechampion.filechampion4j.</text>
<text text-anchor="middle" x="1322" y="-131" font-family="Helvetica,sans-Serif" font-size="10.00">ValidationsHelper.saveFileToTempDir</text>
</a>
</g>
</g>
<!-- Node1&#45;&gt;Node13 -->
<g id="edge18" class="edge">
<title>Node1&#45;&gt;Node13</title>
<path fill="none" stroke="#63b8ff" d="M1438.82,-152.66C1429.59,-151.57 1420.2,-150.46 1410.96,-149.37"/>
<polygon fill="#63b8ff" stroke="#63b8ff" points="1438.22,-156.23 1448.57,-153.93 1439.04,-149.28 1438.22,-156.23"/>
</g>
<!-- Node2&#45;&gt;Node3 -->
<g id="edge2" class="edge">
<title>Node2&#45;&gt;Node3</title>
<path fill="none" stroke="#63b8ff" d="M1002.56,-291.48C996.41,-288.72 990.49,-285.58 985,-282 935.52,-249.7 896.98,-188.79 880.8,-160.35"/>
<polygon fill="#63b8ff" stroke="#63b8ff" points="1000.79,-294.95 1011.37,-295.51 1003.45,-288.48 1000.79,-294.95"/>
</g>
<!-- Node4 -->
<g id="node4" class="node">
<title>Node4</title>
<g id="a_node4"><a xlink:href="classdev_1_1filechampion_1_1filechampion4j_1_1_validations_helper.html#a9722c4ec7eff7b6fc7b9747855770e10" target="_top" xlink:title=" ">
<polygon fill="white" stroke="#666666" points="758,-160 573,-160 573,-130 758,-130 758,-160"/>
<text text-anchor="start" x="581" y="-148" font-family="Helvetica,sans-Serif" font-size="10.00">dev.filechampion.filechampion4j.</text>
<text text-anchor="middle" x="665.5" y="-137" font-family="Helvetica,sans-Serif" font-size="10.00">ValidationsHelper.getValidationResults</text>
</a>
</g>
</g>
<!-- Node3&#45;&gt;Node4 -->
<g id="edge3" class="edge">
<title>Node3&#45;&gt;Node4</title>
<path fill="none" stroke="#63b8ff" d="M782.75,-145C774.68,-145 766.48,-145 758.37,-145"/>
<polygon fill="#63b8ff" stroke="#63b8ff" points="782.67,-148.5 792.67,-145 782.67,-141.5 782.67,-148.5"/>
</g>
<!-- Node5 -->
<g id="node5" class="node">
<title>Node5</title>
<g id="a_node5"><a xlink:href="classdev_1_1filechampion_1_1filechampion4j_1_1_file_validator.html#a48a54a63d062cd23af2d14a6af76899e" target="_top" xlink:title=" ">
<polygon fill="white" stroke="#666666" points="537,-160 382,-160 382,-130 537,-130 537,-160"/>
<text text-anchor="start" x="390" y="-148" font-family="Helvetica,sans-Serif" font-size="10.00">dev.filechampion.filechampion4j.</text>
<text text-anchor="middle" x="459.5" y="-137" font-family="Helvetica,sans-Serif" font-size="10.00">FileValidator.doValidations</text>
</a>
</g>
</g>
<!-- Node4&#45;&gt;Node5 -->
<g id="edge4" class="edge">
<title>Node4&#45;&gt;Node5</title>
<path fill="none" stroke="#63b8ff" d="M561.79,-145C553.51,-145 545.25,-145 537.21,-145"/>
<polygon fill="#63b8ff" stroke="#63b8ff" points="561.65,-148.5 571.65,-145 561.65,-141.5 561.65,-148.5"/>
</g>
<!-- Node6 -->
<g id="node6" class="node">
<title>Node6</title>
<g id="a_node6"><a xlink:href="classdev_1_1filechampion_1_1filechampion4j_1_1_file_validator.html#a2ac42f051e5724b165e5b0234a1e23f4" target="_top" xlink:title=" ">
<polygon fill="white" stroke="#666666" points="346,-160 191,-160 191,-130 346,-130 346,-160"/>
<text text-anchor="start" x="199" y="-148" font-family="Helvetica,sans-Serif" font-size="10.00">dev.filechampion.filechampion4j.</text>
<text text-anchor="middle" x="268.5" y="-137" font-family="Helvetica,sans-Serif" font-size="10.00">FileValidator.validateFileMain</text>
</a>
</g>
</g>
<!-- Node5&#45;&gt;Node6 -->
<g id="edge5" class="edge">
<title>Node5&#45;&gt;Node6</title>
<path fill="none" stroke="#63b8ff" d="M370.89,-145C362.68,-145 354.41,-145 346.31,-145"/>
<polygon fill="#63b8ff" stroke="#63b8ff" points="370.63,-148.5 380.63,-145 370.63,-141.5 370.63,-148.5"/>
</g>
<!-- Node7 -->
<g id="node7" class="node">
<title>Node7</title>
<g id="a_node7"><a xlink:href="classdev_1_1filechampion_1_1filechampion4j_1_1_file_validator.html#a492adb6357ac22bea8b79d036aa2a287" target="_top" xlink:title=" ">
<polygon fill="white" stroke="#666666" points="155,-160 0,-160 0,-130 155,-130 155,-160"/>
<text text-anchor="start" x="8" y="-148" font-family="Helvetica,sans-Serif" font-size="10.00">dev.filechampion.filechampion4j.</text>
<text text-anchor="middle" x="77.5" y="-137" font-family="Helvetica,sans-Serif" font-size="10.00">FileValidator.validateFile</text>
</a>
</g>
</g>
<!-- Node6&#45;&gt;Node7 -->
<g id="edge6" class="edge">
<title>Node6&#45;&gt;Node7</title>
<path fill="none" stroke="#63b8ff" d="M179.89,-145C171.68,-145 163.41,-145 155.31,-145"/>
<polygon fill="#63b8ff" stroke="#63b8ff" points="179.63,-148.5 189.63,-145 179.63,-141.5 179.63,-148.5"/>
</g>
<!-- Node8&#45;&gt;Node3 -->
<g id="edge8" class="edge">
<title>Node8&#45;&gt;Node3</title>
<path fill="none" stroke="#63b8ff" d="M994.7,-159.71C979.61,-157.89 964.14,-156.03 949.5,-154.27"/>
<polygon fill="#63b8ff" stroke="#63b8ff" points="994.26,-163.3 1004.61,-161.02 995.1,-156.35 994.26,-163.3"/>
</g>
<!-- Node9&#45;&gt;Node3 -->
<g id="edge10" class="edge">
<title>Node9&#45;&gt;Node3</title>
<path fill="none" stroke="#63b8ff" d="M975.4,-133.57C966.56,-134.55 957.77,-135.53 949.26,-136.47"/>
<polygon fill="#63b8ff" stroke="#63b8ff" points="975.64,-136.95 985.19,-132.37 974.87,-129.99 975.64,-136.95"/>
</g>
<!-- Node10&#45;&gt;Node3 -->
<g id="edge12" class="edge">
<title>Node10&#45;&gt;Node3</title>
<path fill="none" stroke="#63b8ff" d="M1015.13,-87.49C1004.94,-90.45 994.66,-93.65 985,-97 957.51,-106.53 927.23,-119.61 905.01,-129.7"/>
<polygon fill="#63b8ff" stroke="#63b8ff" points="1016.02,-90.59 1024.68,-84.49 1014.1,-83.86 1016.02,-90.59"/>
</g>
<!-- Node11&#45;&gt;Node3 -->
<g id="edge14" class="edge">
<title>Node11&#45;&gt;Node3</title>
<path fill="none" stroke="#63b8ff" d="M1218.68,-7.79C1149.92,-6.81 1058.74,-13.14 985,-45 941.1,-63.97 902.48,-106.92 884.02,-129.87"/>
<polygon fill="#63b8ff" stroke="#63b8ff" points="1218.45,-11.31 1228.52,-8.01 1218.59,-4.31 1218.45,-11.31"/>
</g>
<!-- Node12&#45;&gt;Node8 -->
<g id="edge16" class="edge">
<title>Node12&#45;&gt;Node8</title>
<path fill="none" stroke="#63b8ff" d="M1231.78,-180.81C1212.56,-179.47 1192.33,-178.07 1173.37,-176.75"/>
<polygon fill="#63b8ff" stroke="#63b8ff" points="1231.42,-184.36 1241.64,-181.56 1231.91,-177.38 1231.42,-184.36"/>
</g>
<!-- Node13&#45;&gt;Node8 -->
<g id="edge19" class="edge">
<title>Node13&#45;&gt;Node8</title>
<path fill="none" stroke="#63b8ff" d="M1222.54,-152.67C1206.21,-154.94 1189.41,-157.27 1173.5,-159.48"/>
<polygon fill="#63b8ff" stroke="#63b8ff" points="1222.78,-156.03 1232.2,-151.19 1221.81,-149.1 1222.78,-156.03"/>
</g>
</g>
</svg>
