<?xml version="1.0" encoding="UTF-8" standalone="no"?>
<!DOCTYPE svg PUBLIC "-//W3C//DTD SVG 1.1//EN"
 "http://www.w3.org/Graphics/SVG/1.1/DTD/svg11.dtd">
<!-- Generated by graphviz version 8.0.3 (20230416.2022)
 -->
<!-- Title: dev.filechampion.filechampion4j.Extensions Pages: 1 -->
<svg width="449pt" height="595pt"
 viewBox="0.00 0.00 449.00 595.00" xmlns="http://www.w3.org/2000/svg" xmlns:xlink="http://www.w3.org/1999/xlink">
<g id="graph0" class="graph" transform="scale(1 1) rotate(0) translate(4 591)">
<title>dev.filechampion.filechampion4j.Extensions</title>
<!-- Node1 -->
<g id="node1" class="node">
<title>Node1</title>
<g id="a_node1"><a xlink:title=" ">
<polygon fill="#999999" stroke="#666666" points="117.5,-0.5 117.5,-332.5 278.5,-332.5 278.5,-0.5 117.5,-0.5"/>
<text text-anchor="start" x="125.5" y="-320.5" font-family="Helvetica,sans-Serif" font-size="10.00">dev.filechampion.filechampion4j.</text>
<text text-anchor="middle" x="198" y="-309.5" font-family="Helvetica,sans-Serif" font-size="10.00">Extensions</text>
<polyline fill="none" stroke="#666666" points="117.5,-302.5 278.5,-302.5"/>
<text text-anchor="start" x="125.5" y="-290.5" font-family="Helvetica,sans-Serif" font-size="10.00">&#45; StringBuilder sbLogMessage</text>
<text text-anchor="start" x="125.5" y="-279.5" font-family="Helvetica,sans-Serif" font-size="10.00">&#45; String sharedMessage1</text>
<text text-anchor="start" x="125.5" y="-268.5" font-family="Helvetica,sans-Serif" font-size="10.00">&#45; String sharedMessage2</text>
<polyline fill="none" stroke="#666666" points="117.5,-261.5 278.5,-261.5"/>
<text text-anchor="start" x="125.5" y="-249.5" font-family="Helvetica,sans-Serif" font-size="10.00">+ Extensions(JSONObject</text>
<text text-anchor="start" x="125.5" y="-238.5" font-family="Helvetica,sans-Serif" font-size="10.00"> jsonObject)</text>
<text text-anchor="start" x="125.5" y="-227.5" font-family="Helvetica,sans-Serif" font-size="10.00">+ Object getValidationValue</text>
<text text-anchor="start" x="125.5" y="-216.5" font-family="Helvetica,sans-Serif" font-size="10.00">(String category, String</text>
<text text-anchor="start" x="125.5" y="-205.5" font-family="Helvetica,sans-Serif" font-size="10.00"> extension, String validationKey)</text>
<text text-anchor="start" x="125.5" y="-194.5" font-family="Helvetica,sans-Serif" font-size="10.00">~ [static initializer]</text>
<text text-anchor="start" x="125.5" y="-183.5" font-family="Helvetica,sans-Serif" font-size="10.00">&#45; void logInfo(String</text>
<text text-anchor="start" x="125.5" y="-172.5" font-family="Helvetica,sans-Serif" font-size="10.00"> message)</text>
<text text-anchor="start" x="125.5" y="-161.5" font-family="Helvetica,sans-Serif" font-size="10.00">&#45; void logWarn(String</text>
<text text-anchor="start" x="125.5" y="-150.5" font-family="Helvetica,sans-Serif" font-size="10.00"> message)</text>
<text text-anchor="start" x="125.5" y="-139.5" font-family="Helvetica,sans-Serif" font-size="10.00">&#45; void logFine(String</text>
<text text-anchor="start" x="125.5" y="-128.5" font-family="Helvetica,sans-Serif" font-size="10.00"> message)</text>
<text text-anchor="start" x="125.5" y="-117.5" font-family="Helvetica,sans-Serif" font-size="10.00">&#45; void mapConfiguredExtensions()</text>
<text text-anchor="start" x="125.5" y="-106.5" font-family="Helvetica,sans-Serif" font-size="10.00">&#45; void mapExtensionValidations()</text>
<text text-anchor="start" x="125.5" y="-95.5" font-family="Helvetica,sans-Serif" font-size="10.00">&#45; void setString(String</text>
<text text-anchor="start" x="125.5" y="-84.5" font-family="Helvetica,sans-Serif" font-size="10.00"> validation, Object value)</text>
<text text-anchor="start" x="125.5" y="-73.5" font-family="Helvetica,sans-Serif" font-size="10.00">&#45; void setBoolean(String</text>
<text text-anchor="start" x="125.5" y="-62.5" font-family="Helvetica,sans-Serif" font-size="10.00"> validation, Object value)</text>
<text text-anchor="start" x="125.5" y="-51.5" font-family="Helvetica,sans-Serif" font-size="10.00">&#45; void setArrayList(String</text>
<text text-anchor="start" x="125.5" y="-40.5" font-family="Helvetica,sans-Serif" font-size="10.00"> validation, Object value)</text>
<text text-anchor="start" x="125.5" y="-29.5" font-family="Helvetica,sans-Serif" font-size="10.00">&#45; void checkInputs(String</text>
<text text-anchor="start" x="125.5" y="-18.5" font-family="Helvetica,sans-Serif" font-size="10.00"> category, String extension,</text>
<text text-anchor="start" x="125.5" y="-7.5" font-family="Helvetica,sans-Serif" font-size="10.00"> String validationKey)</text>
</a>
</g>
</g>
<!-- Node2 -->
<g id="node2" class="node">
<title>Node2</title>
<g id="a_node2"><a xlink:title=" ">
<polygon fill="white" stroke="#666666" points="0,-408 0,-465 46,-465 46,-408 0,-408"/>
<text text-anchor="middle" x="23" y="-453" font-family="Helvetica,sans-Serif" font-size="10.00">Logger</text>
<polyline fill="none" stroke="#666666" points="0,-446 46,-446"/>
<text text-anchor="middle" x="23" y="-434" font-family="Helvetica,sans-Serif" font-size="10.00"> </text>
<polyline fill="none" stroke="#666666" points="0,-427 46,-427"/>
<text text-anchor="middle" x="23" y="-415" font-family="Helvetica,sans-Serif" font-size="10.00"> </text>
</a>
</g>
</g>
<!-- Node2&#45;&gt;Node1 -->
<g id="edge1" class="edge">
<title>Node2&#45;&gt;Node1</title>
<path fill="none" stroke="#404040" d="M40.74,-408.33C57.53,-382.61 84.05,-342.01 110.56,-301.41"/>
<polygon fill="none" stroke="#404040" points="110.6,-301.34 110.54,-294.13 117.17,-291.29 117.23,-298.5 110.6,-301.34"/>
<text text-anchor="middle" x="99" y="-365" font-family="Helvetica,sans-Serif" font-size="10.00"> &#45;LOGGER</text>
</g>
<!-- Node3 -->
<g id="node3" class="node">
<title>Node3</title>
<g id="a_node3"><a xlink:title=" ">
<polygon fill="white" stroke="#666666" points="64,-402.5 64,-470.5 196,-470.5 196,-402.5 64,-402.5"/>
<text text-anchor="start" x="72" y="-458.5" font-family="Helvetica,sans-Serif" font-size="10.00">Map&lt; String, Map&lt; String,</text>
<text text-anchor="middle" x="130" y="-447.5" font-family="Helvetica,sans-Serif" font-size="10.00"> Object &gt; &gt;</text>
<polyline fill="none" stroke="#666666" points="64,-440.5 196,-440.5"/>
<text text-anchor="middle" x="130" y="-428.5" font-family="Helvetica,sans-Serif" font-size="10.00"> </text>
<polyline fill="none" stroke="#666666" points="64,-421.5 196,-421.5"/>
<text text-anchor="middle" x="130" y="-409.5" font-family="Helvetica,sans-Serif" font-size="10.00"> </text>
</a>
</g>
</g>
<!-- Node3&#45;&gt;Node1 -->
<g id="edge2" class="edge">
<title>Node3&#45;&gt;Node1</title>
<path fill="none" stroke="#404040" d="M138.34,-402.64C142.31,-386.97 147.41,-366.88 152.94,-345.07"/>
<polygon fill="none" stroke="#404040" points="152.98,-344.93 150.58,-338.13 155.93,-333.3 158.33,-340.1 152.98,-344.93"/>
<text text-anchor="middle" x="186" y="-370.5" font-family="Helvetica,sans-Serif" font-size="10.00"> &#45;categoriesMap</text>
<text text-anchor="middle" x="186" y="-359.5" font-family="Helvetica,sans-Serif" font-size="10.00">&#45;extensionsMap</text>
</g>
<!-- Node4 -->
<g id="node4" class="node">
<title>Node4</title>
<g id="a_node4"><a xlink:title=" ">
<polygon fill="white" stroke="#666666" points="183.5,-529.5 183.5,-586.5 218.5,-586.5 218.5,-529.5 183.5,-529.5"/>
<text text-anchor="middle" x="201" y="-574.5" font-family="Helvetica,sans-Serif" font-size="10.00">Map</text>
<polyline fill="none" stroke="#666666" points="183.5,-567.5 218.5,-567.5"/>
<text text-anchor="middle" x="201" y="-555.5" font-family="Helvetica,sans-Serif" font-size="10.00"> </text>
<polyline fill="none" stroke="#666666" points="183.5,-548.5 218.5,-548.5"/>
<text text-anchor="middle" x="201" y="-536.5" font-family="Helvetica,sans-Serif" font-size="10.00"> </text>
</a>
</g>
</g>
<!-- Node4&#45;&gt;Node3 -->
<g id="edge3" class="edge">
<title>Node4&#45;&gt;Node3</title>
<path fill="none" stroke="orange" d="M173.77,-545.22C159.67,-537.61 143.64,-526.26 135,-511 128.13,-498.87 126.21,-483.74 126.26,-470.37"/>
<polygon fill="orange" stroke="orange" points="172.06,-548.78 182.57,-550.11 175.18,-542.51 172.06,-548.78"/>
<text text-anchor="start" x="135" y="-503" font-family="Helvetica,sans-Serif" font-size="10.00"> &lt; String, Map&lt; String,</text>
<text text-anchor="middle" x="185" y="-492" font-family="Helvetica,sans-Serif" font-size="10.00"> Object &gt; &gt;</text>
</g>
<!-- Node5 -->
<g id="node5" class="node">
<title>Node5</title>
<g id="a_node5"><a xlink:title=" ">
<polygon fill="white" stroke="#666666" points="214.5,-408 214.5,-465 327.5,-465 327.5,-408 214.5,-408"/>
<text text-anchor="middle" x="271" y="-453" font-family="Helvetica,sans-Serif" font-size="10.00">Map&lt; String, Object &gt;</text>
<polyline fill="none" stroke="#666666" points="214.5,-446 327.5,-446"/>
<text text-anchor="middle" x="271" y="-434" font-family="Helvetica,sans-Serif" font-size="10.00"> </text>
<polyline fill="none" stroke="#666666" points="214.5,-427 327.5,-427"/>
<text text-anchor="middle" x="271" y="-415" font-family="Helvetica,sans-Serif" font-size="10.00"> </text>
</a>
</g>
</g>
<!-- Node4&#45;&gt;Node5 -->
<g id="edge5" class="edge">
<title>Node4&#45;&gt;Node5</title>
<path fill="none" stroke="orange" d="M224.91,-530.61C229.91,-524.42 234.9,-517.68 239,-511 247.88,-496.53 255.57,-479.16 261.18,-464.94"/>
<polygon fill="orange" stroke="orange" points="221.91,-527.74 218.16,-537.66 227.27,-532.24 221.91,-527.74"/>
<text text-anchor="middle" x="292" y="-497.5" font-family="Helvetica,sans-Serif" font-size="10.00"> &lt; String, Object &gt;</text>
</g>
<!-- Node5&#45;&gt;Node1 -->
<g id="edge4" class="edge">
<title>Node5&#45;&gt;Node1</title>
<path fill="none" stroke="#404040" d="M263.6,-408.33C259.11,-391.86 252.96,-369.28 246.22,-344.51"/>
<polygon fill="none" stroke="#404040" points="246.25,-344.64 240.82,-339.91 243.1,-333.07 248.53,-337.8 246.25,-344.64"/>
<text text-anchor="middle" x="293" y="-370.5" font-family="Helvetica,sans-Serif" font-size="10.00"> &#45;validationCache</text>
<text text-anchor="middle" x="293" y="-359.5" font-family="Helvetica,sans-Serif" font-size="10.00">&#45;validationsMap</text>
</g>
<!-- Node6 -->
<g id="node6" class="node">
<title>Node6</title>
<g id="a_node6"><a xlink:title=" ">
<polygon fill="white" stroke="#666666" points="346,-408 346,-465 422,-465 422,-408 346,-408"/>
<text text-anchor="middle" x="384" y="-453" font-family="Helvetica,sans-Serif" font-size="10.00">List&lt; String &gt;</text>
<polyline fill="none" stroke="#666666" points="346,-446 422,-446"/>
<text text-anchor="middle" x="384" y="-434" font-family="Helvetica,sans-Serif" font-size="10.00"> </text>
<polyline fill="none" stroke="#666666" points="346,-427 422,-427"/>
<text text-anchor="middle" x="384" y="-415" font-family="Helvetica,sans-Serif" font-size="10.00"> </text>
</a>
</g>
</g>
<!-- Node6&#45;&gt;Node1 -->
<g id="edge6" class="edge">
<title>Node6&#45;&gt;Node1</title>
<path fill="none" stroke="#404040" d="M368.71,-408.04C359.15,-391.29 346.35,-369.6 334,-351 318.98,-328.37 302.25,-304.71 285.82,-282.19"/>
<polygon fill="none" stroke="#404040" points="285.92,-282.33 279.15,-279.86 278.83,-272.66 285.6,-275.13 285.92,-282.33"/>
<text text-anchor="middle" x="398" y="-376" font-family="Helvetica,sans-Serif" font-size="10.00"> &#45;allowedKeyValues</text>
<text text-anchor="middle" x="398" y="-365" font-family="Helvetica,sans-Serif" font-size="10.00">&#45;boolKeyValues</text>
<text text-anchor="middle" x="398" y="-354" font-family="Helvetica,sans-Serif" font-size="10.00">&#45;stringKeyValues</text>
</g>
<!-- Node7 -->
<g id="node7" class="node">
<title>Node7</title>
<g id="a_node7"><a xlink:title=" ">
<polygon fill="white" stroke="#666666" points="368,-529.5 368,-586.5 400,-586.5 400,-529.5 368,-529.5"/>
<text text-anchor="middle" x="384" y="-574.5" font-family="Helvetica,sans-Serif" font-size="10.00">List</text>
<polyline fill="none" stroke="#666666" points="368,-567.5 400,-567.5"/>
<text text-anchor="middle" x="384" y="-555.5" font-family="Helvetica,sans-Serif" font-size="10.00"> </text>
<polyline fill="none" stroke="#666666" points="368,-548.5 400,-548.5"/>
<text text-anchor="middle" x="384" y="-536.5" font-family="Helvetica,sans-Serif" font-size="10.00"> </text>
</a>
</g>
</g>
<!-- Node7&#45;&gt;Node6 -->
<g id="edge7" class="edge">
<title>Node7&#45;&gt;Node6</title>
<path fill="none" stroke="orange" d="M384,-519.05C384,-501.42 384,-480.86 384,-464.79"/>
<polygon fill="orange" stroke="orange" points="380.5,-518.58 384,-528.58 387.5,-518.58 380.5,-518.58"/>
<text text-anchor="middle" x="407.5" y="-497.5" font-family="Helvetica,sans-Serif" font-size="10.00"> &lt; String &gt;</text>
</g>
</g>
</svg>
