<?xml version="1.0" encoding="UTF-8" standalone="no"?>
<!DOCTYPE svg PUBLIC "-//W3C//DTD SVG 1.1//EN"
 "http://www.w3.org/Graphics/SVG/1.1/DTD/svg11.dtd">
<!-- Generated by graphviz version 8.0.3 (20230416.2022)
 -->
<!-- Title: dev.filechampion.filechampion4j.ValidationsHelper.containsHeaderSignatures Pages: 1 -->
<svg width="844pt" height="232pt"
 viewBox="0.00 0.00 844.00 231.50" xmlns="http://www.w3.org/2000/svg" xmlns:xlink="http://www.w3.org/1999/xlink">
<g id="graph0" class="graph" transform="scale(1 1) rotate(0) translate(4 227.5)">
<title>dev.filechampion.filechampion4j.ValidationsHelper.containsHeaderSignatures</title>
<!-- Node1 -->
<g id="node1" class="node">
<title>Node1</title>
<g id="a_node1"><a xlink:title=" ">
<polygon fill="#999999" stroke="#666666" points="209,-126 0,-126 0,-96 209,-96 209,-126"/>
<text text-anchor="start" x="8" y="-114" font-family="Helvetica,sans-Serif" font-size="10.00">dev.filechampion.filechampion4j.</text>
<text text-anchor="middle" x="104.5" y="-103" font-family="Helvetica,sans-Serif" font-size="10.00">ValidationsHelper.containsHeaderSignatures</text>
</a>
</g>
</g>
<!-- Node2 -->
<g id="node2" class="node">
<title>Node2</title>
<g id="a_node2"><a xlink:href="classdev_1_1filechampion_1_1filechampion4j_1_1_validations_helper.html#aee8c1624a8bb9b5b96d9ea0bdf385e3a" target="_top" xlink:title=" ">
<polygon fill="white" stroke="#666666" points="454,-223.5 245,-223.5 245,-182.5 454,-182.5 454,-223.5"/>
<text text-anchor="start" x="253" y="-211.5" font-family="Helvetica,sans-Serif" font-size="10.00">dev.filechampion.filechampion4j.</text>
<text text-anchor="start" x="253" y="-200.5" font-family="Helvetica,sans-Serif" font-size="10.00">ValidationsHelper.containsHeaderSignatures</text>
<text text-anchor="middle" x="349.5" y="-189.5" font-family="Helvetica,sans-Serif" font-size="10.00">Processor</text>
</a>
</g>
</g>
<!-- Node1&#45;&gt;Node2 -->
<g id="edge1" class="edge">
<title>Node1&#45;&gt;Node2</title>
<path fill="none" stroke="#63b8ff" d="M141.39,-126.38C169.42,-138.22 209.46,-154.74 245,-168 254.43,-171.52 264.4,-175.08 274.28,-178.52"/>
<polygon fill="#63b8ff" stroke="#63b8ff" points="272.92,-182.1 283.51,-182.05 275.2,-175.48 272.92,-182.1"/>
</g>
<!-- Node3 -->
<g id="node3" class="node">
<title>Node3</title>
<g id="a_node3"><a xlink:href="classdev_1_1filechampion_1_1filechampion4j_1_1_validations_helper.html#a74bd8e5177ce42b308623ab3bd1ba05e" target="_top" xlink:title=" ">
<polygon fill="white" stroke="#666666" points="645,-207 490,-207 490,-177 645,-177 645,-207"/>
<text text-anchor="start" x="498" y="-195" font-family="Helvetica,sans-Serif" font-size="10.00">dev.filechampion.filechampion4j.</text>
<text text-anchor="middle" x="567.5" y="-184" font-family="Helvetica,sans-Serif" font-size="10.00">ValidationsHelper.isBlank</text>
</a>
</g>
</g>
<!-- Node1&#45;&gt;Node3 -->
<g id="edge7" class="edge">
<title>Node1&#45;&gt;Node3</title>
<path fill="none" stroke="#63b8ff" d="M193.57,-126.47C275.6,-140.89 397.23,-162.26 479.06,-176.64"/>
<polygon fill="#63b8ff" stroke="#63b8ff" points="478.38,-180.25 488.84,-178.53 479.59,-173.35 478.38,-180.25"/>
</g>
<!-- Node4 -->
<g id="node4" class="node">
<title>Node4</title>
<g id="a_node4"><a xlink:href="classdev_1_1filechampion_1_1filechampion4j_1_1_extensions.html#ac3de7a6e3faa8e7f76d0d3705e02a42d" target="_top" xlink:title=" ">
<polygon fill="white" stroke="#666666" points="427,-126 272,-126 272,-96 427,-96 427,-126"/>
<text text-anchor="start" x="280" y="-114" font-family="Helvetica,sans-Serif" font-size="10.00">dev.filechampion.filechampion4j.</text>
<text text-anchor="middle" x="349.5" y="-103" font-family="Helvetica,sans-Serif" font-size="10.00">Extensions.getValidationValue</text>
</a>
</g>
</g>
<!-- Node1&#45;&gt;Node4 -->
<g id="edge3" class="edge">
<title>Node1&#45;&gt;Node4</title>
<path fill="none" stroke="#63b8ff" d="M209.26,-111C226.4,-111 244.03,-111 260.73,-111"/>
<polygon fill="#63b8ff" stroke="#63b8ff" points="260.55,-114.5 270.55,-111 260.55,-107.5 260.55,-114.5"/>
</g>
<!-- Node8 -->
<g id="node8" class="node">
<title>Node8</title>
<g id="a_node8"><a xlink:href="classdev_1_1filechampion_1_1filechampion4j_1_1_validations_helper.html#a67f90f5fb54527c7f2becb8fc6eaafaa" target="_top" xlink:title=" ">
<polygon fill="white" stroke="#666666" points="427,-78 272,-78 272,-48 427,-48 427,-78"/>
<text text-anchor="start" x="280" y="-66" font-family="Helvetica,sans-Serif" font-size="10.00">dev.filechampion.filechampion4j.</text>
<text text-anchor="middle" x="349.5" y="-55" font-family="Helvetica,sans-Serif" font-size="10.00">ValidationsHelper.logFine</text>
</a>
</g>
</g>
<!-- Node1&#45;&gt;Node8 -->
<g id="edge8" class="edge">
<title>Node1&#45;&gt;Node8</title>
<path fill="none" stroke="#63b8ff" d="M183.72,-95.55C208.37,-90.68 235.75,-85.27 260.99,-80.29"/>
<polygon fill="#63b8ff" stroke="#63b8ff" points="261.54,-83.55 270.67,-78.18 260.18,-76.68 261.54,-83.55"/>
</g>
<!-- Node9 -->
<g id="node9" class="node">
<title>Node9</title>
<g id="a_node9"><a xlink:href="classdev_1_1filechampion_1_1filechampion4j_1_1_validations_helper.html#a19e635fd3852e01ab67af0db7700a462" target="_top" xlink:title=" ">
<polygon fill="white" stroke="#666666" points="427,-30 272,-30 272,0 427,0 427,-30"/>
<text text-anchor="start" x="280" y="-18" font-family="Helvetica,sans-Serif" font-size="10.00">dev.filechampion.filechampion4j.</text>
<text text-anchor="middle" x="349.5" y="-7" font-family="Helvetica,sans-Serif" font-size="10.00">ValidationsHelper.logWarn</text>
</a>
</g>
</g>
<!-- Node1&#45;&gt;Node9 -->
<g id="edge9" class="edge">
<title>Node1&#45;&gt;Node9</title>
<path fill="none" stroke="#63b8ff" d="M130.59,-95.61C157.87,-79.48 203.17,-54.37 245,-39 250.41,-37.01 256.04,-35.15 261.76,-33.42"/>
<polygon fill="#63b8ff" stroke="#63b8ff" points="262.48,-36.56 271.12,-30.43 260.54,-29.84 262.48,-36.56"/>
</g>
<!-- Node2&#45;&gt;Node3 -->
<g id="edge2" class="edge">
<title>Node2&#45;&gt;Node3</title>
<path fill="none" stroke="#63b8ff" d="M454.39,-197.71C462.56,-197.29 470.77,-196.88 478.81,-196.47"/>
<polygon fill="#63b8ff" stroke="#63b8ff" points="478.87,-199.92 488.68,-195.91 478.51,-192.93 478.87,-199.92"/>
</g>
<!-- Node5 -->
<g id="node5" class="node">
<title>Node5</title>
<g id="a_node5"><a xlink:href="classdev_1_1filechampion_1_1filechampion4j_1_1_extensions.html#a0b4d6f0065a4fc61701be6ab4103c441" target="_top" xlink:title=" ">
<polygon fill="white" stroke="#666666" points="645,-137 490,-137 490,-107 645,-107 645,-137"/>
<text text-anchor="start" x="498" y="-125" font-family="Helvetica,sans-Serif" font-size="10.00">dev.filechampion.filechampion4j.</text>
<text text-anchor="middle" x="567.5" y="-114" font-family="Helvetica,sans-Serif" font-size="10.00">Extensions.checkInputs</text>
</a>
</g>
</g>
<!-- Node4&#45;&gt;Node5 -->
<g id="edge4" class="edge">
<title>Node4&#45;&gt;Node5</title>
<path fill="none" stroke="#63b8ff" d="M427.26,-114.91C444.03,-115.76 461.9,-116.67 479.05,-117.55"/>
<polygon fill="#63b8ff" stroke="#63b8ff" points="478.46,-121.07 488.62,-118.08 478.81,-114.08 478.46,-121.07"/>
</g>
<!-- Node7 -->
<g id="node7" class="node">
<title>Node7</title>
<g id="a_node7"><a xlink:href="classdev_1_1filechampion_1_1filechampion4j_1_1_extensions.html#a0aada571ca5ffb1ca298874d2c0fac50" target="_top" xlink:title=" ">
<polygon fill="white" stroke="#666666" points="645,-89 490,-89 490,-59 645,-59 645,-89"/>
<text text-anchor="start" x="498" y="-77" font-family="Helvetica,sans-Serif" font-size="10.00">dev.filechampion.filechampion4j.</text>
<text text-anchor="middle" x="567.5" y="-66" font-family="Helvetica,sans-Serif" font-size="10.00">Extensions.logFine</text>
</a>
</g>
</g>
<!-- Node4&#45;&gt;Node7 -->
<g id="edge6" class="edge">
<title>Node4&#45;&gt;Node7</title>
<path fill="none" stroke="#63b8ff" d="M427.26,-97.85C444.03,-94.98 461.9,-91.92 479.05,-88.98"/>
<polygon fill="#63b8ff" stroke="#63b8ff" points="479.36,-92.31 488.62,-87.17 478.17,-85.41 479.36,-92.31"/>
</g>
<!-- Node6 -->
<g id="node6" class="node">
<title>Node6</title>
<g id="a_node6"><a xlink:href="classdev_1_1filechampion_1_1filechampion4j_1_1_extensions.html#adebd31331477fe200ec272ae4569f482" target="_top" xlink:title=" ">
<polygon fill="white" stroke="#666666" points="836,-137 681,-137 681,-107 836,-107 836,-137"/>
<text text-anchor="start" x="689" y="-125" font-family="Helvetica,sans-Serif" font-size="10.00">dev.filechampion.filechampion4j.</text>
<text text-anchor="middle" x="758.5" y="-114" font-family="Helvetica,sans-Serif" font-size="10.00">Extensions.logWarn</text>
</a>
</g>
</g>
<!-- Node5&#45;&gt;Node6 -->
<g id="edge5" class="edge">
<title>Node5&#45;&gt;Node6</title>
<path fill="none" stroke="#63b8ff" d="M645.37,-122C653.47,-122 661.75,-122 669.96,-122"/>
<polygon fill="#63b8ff" stroke="#63b8ff" points="669.69,-125.5 679.69,-122 669.69,-118.5 669.69,-125.5"/>
</g>
</g>
</svg>
