<?xml version="1.0" encoding="UTF-8" standalone="no"?>
<!DOCTYPE svg PUBLIC "-//W3C//DTD SVG 1.1//EN"
 "http://www.w3.org/Graphics/SVG/1.1/DTD/svg11.dtd">
<!-- Generated by graphviz version 8.0.3 (20230416.2022)
 -->
<!-- Title: dev.filechampion.filechampion4j.ValidationsHelper.containsMagicBytes Pages: 1 -->
<svg width="794pt" height="242pt"
 viewBox="0.00 0.00 794.00 241.50" xmlns="http://www.w3.org/2000/svg" xmlns:xlink="http://www.w3.org/1999/xlink">
<g id="graph0" class="graph" transform="scale(1 1) rotate(0) translate(4 237.5)">
<title>dev.filechampion.filechampion4j.ValidationsHelper.containsMagicBytes</title>
<!-- Node1 -->
<g id="node1" class="node">
<title>Node1</title>
<g id="a_node1"><a xlink:title=" ">
<polygon fill="#999999" stroke="#666666" points="184,-126 0,-126 0,-96 184,-96 184,-126"/>
<text text-anchor="start" x="8" y="-114" font-family="Helvetica,sans-Serif" font-size="10.00">dev.filechampion.filechampion4j.</text>
<text text-anchor="middle" x="92" y="-103" font-family="Helvetica,sans-Serif" font-size="10.00">ValidationsHelper.containsMagicBytes</text>
</a>
</g>
</g>
<!-- Node2 -->
<g id="node2" class="node">
<title>Node2</title>
<g id="a_node2"><a xlink:href="classdev_1_1filechampion_1_1filechampion4j_1_1_validations_helper.html#a2cee2da5d1c0b48a0e76439ec43c9f6b" target="_top" xlink:title=" ">
<polygon fill="white" stroke="#666666" points="404,-233.5 220,-233.5 220,-192.5 404,-192.5 404,-233.5"/>
<text text-anchor="start" x="228" y="-221.5" font-family="Helvetica,sans-Serif" font-size="10.00">dev.filechampion.filechampion4j.</text>
<text text-anchor="start" x="228" y="-210.5" font-family="Helvetica,sans-Serif" font-size="10.00">ValidationsHelper.containsMagicBytes</text>
<text text-anchor="middle" x="312" y="-199.5" font-family="Helvetica,sans-Serif" font-size="10.00">Processor</text>
</a>
</g>
</g>
<!-- Node1&#45;&gt;Node2 -->
<g id="edge1" class="edge">
<title>Node1&#45;&gt;Node2</title>
<path fill="none" stroke="#63b8ff" d="M116.61,-126.27C141.57,-141.95 182.46,-166.37 220,-183 224.11,-184.82 228.36,-186.59 232.68,-188.3"/>
<polygon fill="#63b8ff" stroke="#63b8ff" points="231.26,-191.89 241.86,-192.17 233.76,-185.34 231.26,-191.89"/>
</g>
<!-- Node3 -->
<g id="node3" class="node">
<title>Node3</title>
<g id="a_node3"><a xlink:href="classdev_1_1filechampion_1_1filechampion4j_1_1_extensions.html#ac3de7a6e3faa8e7f76d0d3705e02a42d" target="_top" xlink:title=" ">
<polygon fill="white" stroke="#666666" points="389.5,-174 234.5,-174 234.5,-144 389.5,-144 389.5,-174"/>
<text text-anchor="start" x="242.5" y="-162" font-family="Helvetica,sans-Serif" font-size="10.00">dev.filechampion.filechampion4j.</text>
<text text-anchor="middle" x="312" y="-151" font-family="Helvetica,sans-Serif" font-size="10.00">Extensions.getValidationValue</text>
</a>
</g>
</g>
<!-- Node1&#45;&gt;Node3 -->
<g id="edge2" class="edge">
<title>Node1&#45;&gt;Node3</title>
<path fill="none" stroke="#63b8ff" d="M163.18,-126.45C184.57,-131.16 208.26,-136.38 230.29,-141.23"/>
<polygon fill="#63b8ff" stroke="#63b8ff" points="229.44,-144.84 239.95,-143.58 230.94,-138.01 229.44,-144.84"/>
</g>
<!-- Node7 -->
<g id="node7" class="node">
<title>Node7</title>
<g id="a_node7"><a xlink:href="classdev_1_1filechampion_1_1filechampion4j_1_1_validations_helper.html#a74bd8e5177ce42b308623ab3bd1ba05e" target="_top" xlink:title=" ">
<polygon fill="white" stroke="#666666" points="389.5,-126 234.5,-126 234.5,-96 389.5,-96 389.5,-126"/>
<text text-anchor="start" x="242.5" y="-114" font-family="Helvetica,sans-Serif" font-size="10.00">dev.filechampion.filechampion4j.</text>
<text text-anchor="middle" x="312" y="-103" font-family="Helvetica,sans-Serif" font-size="10.00">ValidationsHelper.isBlank</text>
</a>
</g>
</g>
<!-- Node1&#45;&gt;Node7 -->
<g id="edge6" class="edge">
<title>Node1&#45;&gt;Node7</title>
<path fill="none" stroke="#63b8ff" d="M184.19,-111C197.22,-111 210.61,-111 223.57,-111"/>
<polygon fill="#63b8ff" stroke="#63b8ff" points="223.34,-114.5 233.34,-111 223.34,-107.5 223.34,-114.5"/>
</g>
<!-- Node8 -->
<g id="node8" class="node">
<title>Node8</title>
<g id="a_node8"><a xlink:href="classdev_1_1filechampion_1_1filechampion4j_1_1_validations_helper.html#a67f90f5fb54527c7f2becb8fc6eaafaa" target="_top" xlink:title=" ">
<polygon fill="white" stroke="#666666" points="389.5,-78 234.5,-78 234.5,-48 389.5,-48 389.5,-78"/>
<text text-anchor="start" x="242.5" y="-66" font-family="Helvetica,sans-Serif" font-size="10.00">dev.filechampion.filechampion4j.</text>
<text text-anchor="middle" x="312" y="-55" font-family="Helvetica,sans-Serif" font-size="10.00">ValidationsHelper.logFine</text>
</a>
</g>
</g>
<!-- Node1&#45;&gt;Node8 -->
<g id="edge7" class="edge">
<title>Node1&#45;&gt;Node8</title>
<path fill="none" stroke="#63b8ff" d="M163.18,-95.55C184.57,-90.84 208.26,-85.62 230.29,-80.77"/>
<polygon fill="#63b8ff" stroke="#63b8ff" points="230.94,-83.99 239.95,-78.42 229.44,-77.16 230.94,-83.99"/>
</g>
<!-- Node9 -->
<g id="node9" class="node">
<title>Node9</title>
<g id="a_node9"><a xlink:href="classdev_1_1filechampion_1_1filechampion4j_1_1_validations_helper.html#a19e635fd3852e01ab67af0db7700a462" target="_top" xlink:title=" ">
<polygon fill="white" stroke="#666666" points="389.5,-30 234.5,-30 234.5,0 389.5,0 389.5,-30"/>
<text text-anchor="start" x="242.5" y="-18" font-family="Helvetica,sans-Serif" font-size="10.00">dev.filechampion.filechampion4j.</text>
<text text-anchor="middle" x="312" y="-7" font-family="Helvetica,sans-Serif" font-size="10.00">ValidationsHelper.logWarn</text>
</a>
</g>
</g>
<!-- Node1&#45;&gt;Node9 -->
<g id="edge8" class="edge">
<title>Node1&#45;&gt;Node9</title>
<path fill="none" stroke="#63b8ff" d="M115.96,-95.57C140.71,-79.51 181.74,-54.58 220,-39 224.46,-37.18 229.1,-35.47 233.82,-33.85"/>
<polygon fill="#63b8ff" stroke="#63b8ff" points="234.81,-36.89 243.24,-30.47 232.65,-30.23 234.81,-36.89"/>
</g>
<!-- Node4 -->
<g id="node4" class="node">
<title>Node4</title>
<g id="a_node4"><a xlink:href="classdev_1_1filechampion_1_1filechampion4j_1_1_extensions.html#a0b4d6f0065a4fc61701be6ab4103c441" target="_top" xlink:title=" ">
<polygon fill="white" stroke="#666666" points="595,-198 440,-198 440,-168 595,-168 595,-198"/>
<text text-anchor="start" x="448" y="-186" font-family="Helvetica,sans-Serif" font-size="10.00">dev.filechampion.filechampion4j.</text>
<text text-anchor="middle" x="517.5" y="-175" font-family="Helvetica,sans-Serif" font-size="10.00">Extensions.checkInputs</text>
</a>
</g>
</g>
<!-- Node3&#45;&gt;Node4 -->
<g id="edge3" class="edge">
<title>Node3&#45;&gt;Node4</title>
<path fill="none" stroke="#63b8ff" d="M389.93,-168.07C402.68,-169.58 415.99,-171.15 428.98,-172.68"/>
<polygon fill="#63b8ff" stroke="#63b8ff" points="428.45,-176.26 438.79,-173.95 429.27,-169.31 428.45,-176.26"/>
</g>
<!-- Node6 -->
<g id="node6" class="node">
<title>Node6</title>
<g id="a_node6"><a xlink:href="classdev_1_1filechampion_1_1filechampion4j_1_1_extensions.html#a0aada571ca5ffb1ca298874d2c0fac50" target="_top" xlink:title=" ">
<polygon fill="white" stroke="#666666" points="595,-150 440,-150 440,-120 595,-120 595,-150"/>
<text text-anchor="start" x="448" y="-138" font-family="Helvetica,sans-Serif" font-size="10.00">dev.filechampion.filechampion4j.</text>
<text text-anchor="middle" x="517.5" y="-127" font-family="Helvetica,sans-Serif" font-size="10.00">Extensions.logFine</text>
</a>
</g>
</g>
<!-- Node3&#45;&gt;Node6 -->
<g id="edge5" class="edge">
<title>Node3&#45;&gt;Node6</title>
<path fill="none" stroke="#63b8ff" d="M389.93,-149.93C402.68,-148.42 415.99,-146.85 428.98,-145.32"/>
<polygon fill="#63b8ff" stroke="#63b8ff" points="429.27,-148.69 438.79,-144.05 428.45,-141.74 429.27,-148.69"/>
</g>
<!-- Node5 -->
<g id="node5" class="node">
<title>Node5</title>
<g id="a_node5"><a xlink:href="classdev_1_1filechampion_1_1filechampion4j_1_1_extensions.html#adebd31331477fe200ec272ae4569f482" target="_top" xlink:title=" ">
<polygon fill="white" stroke="#666666" points="786,-198 631,-198 631,-168 786,-168 786,-198"/>
<text text-anchor="start" x="639" y="-186" font-family="Helvetica,sans-Serif" font-size="10.00">dev.filechampion.filechampion4j.</text>
<text text-anchor="middle" x="708.5" y="-175" font-family="Helvetica,sans-Serif" font-size="10.00">Extensions.logWarn</text>
</a>
</g>
</g>
<!-- Node4&#45;&gt;Node5 -->
<g id="edge4" class="edge">
<title>Node4&#45;&gt;Node5</title>
<path fill="none" stroke="#63b8ff" d="M595.37,-183C603.47,-183 611.75,-183 619.96,-183"/>
<polygon fill="#63b8ff" stroke="#63b8ff" points="619.69,-186.5 629.69,-183 619.69,-179.5 619.69,-186.5"/>
</g>
</g>
</svg>
