<?xml version="1.0" encoding="UTF-8" standalone="no"?>
<!DOCTYPE svg PUBLIC "-//W3C//DTD SVG 1.1//EN"
 "http://www.w3.org/Graphics/SVG/1.1/DTD/svg11.dtd">
<!-- Generated by graphviz version 8.0.3 (20230416.2022)
 -->
<!-- Title: dev.filechampion.filechampion4j.FileValidator.executeBeforePlugins Pages: 1 -->
<svg width="749pt" height="268pt"
 viewBox="0.00 0.00 749.00 268.00" xmlns="http://www.w3.org/2000/svg" xmlns:xlink="http://www.w3.org/1999/xlink">
<g id="graph0" class="graph" transform="scale(1 1) rotate(0) translate(4 264)">
<title>dev.filechampion.filechampion4j.FileValidator.executeBeforePlugins</title>
<!-- Node1 -->
<g id="node1" class="node">
<title>Node1</title>
<g id="a_node1"><a xlink:title=" ">
<polygon fill="#999999" stroke="#666666" points="168,-126 0,-126 0,-96 168,-96 168,-126"/>
<text text-anchor="start" x="8" y="-114" font-family="Helvetica,sans-Serif" font-size="10.00">dev.filechampion.filechampion4j.</text>
<text text-anchor="middle" x="84" y="-103" font-family="Helvetica,sans-Serif" font-size="10.00">FileValidator.executeBeforePlugins</text>
</a>
</g>
</g>
<!-- Node2 -->
<g id="node2" class="node">
<title>Node2</title>
<g id="a_node2"><a xlink:href="classdev_1_1filechampion_1_1filechampion4j_1_1_file_validator.html#a00a7f2979f0321f1823ce815ecd20945" target="_top" xlink:title=" ">
<polygon fill="white" stroke="#666666" points="359,-174 204,-174 204,-144 359,-144 359,-174"/>
<text text-anchor="start" x="212" y="-162" font-family="Helvetica,sans-Serif" font-size="10.00">dev.filechampion.filechampion4j.</text>
<text text-anchor="middle" x="281.5" y="-151" font-family="Helvetica,sans-Serif" font-size="10.00">FileValidator.executePlugin</text>
</a>
</g>
</g>
<!-- Node1&#45;&gt;Node2 -->
<g id="edge1" class="edge">
<title>Node1&#45;&gt;Node2</title>
<path fill="none" stroke="#63b8ff" d="M147.93,-126.45C166.77,-131.08 187.59,-136.19 207.04,-140.96"/>
<polygon fill="#63b8ff" stroke="#63b8ff" points="206.14,-144.59 216.68,-143.58 207.81,-137.79 206.14,-144.59"/>
</g>
<!-- Node6 -->
<g id="node6" class="node">
<title>Node6</title>
<g id="a_node6"><a xlink:href="classdev_1_1filechampion_1_1filechampion4j_1_1_file_validator.html#aba144d2be101a69816372b3fcdd8a6b0" target="_top" xlink:title=" ">
<polygon fill="white" stroke="#666666" points="550,-126 395,-126 395,-96 550,-96 550,-126"/>
<text text-anchor="start" x="403" y="-114" font-family="Helvetica,sans-Serif" font-size="10.00">dev.filechampion.filechampion4j.</text>
<text text-anchor="middle" x="472.5" y="-103" font-family="Helvetica,sans-Serif" font-size="10.00">FileValidator.logFine</text>
</a>
</g>
</g>
<!-- Node1&#45;&gt;Node6 -->
<g id="edge11" class="edge">
<title>Node1&#45;&gt;Node6</title>
<path fill="none" stroke="#63b8ff" d="M168.39,-111C231.85,-111 318.97,-111 383.53,-111"/>
<polygon fill="#63b8ff" stroke="#63b8ff" points="383.5,-114.5 393.5,-111 383.5,-107.5 383.5,-114.5"/>
</g>
<!-- Node7 -->
<g id="node7" class="node">
<title>Node7</title>
<g id="a_node7"><a xlink:href="classdev_1_1filechampion_1_1filechampion4j_1_1_extensions.html#ac3de7a6e3faa8e7f76d0d3705e02a42d" target="_top" xlink:title=" ">
<polygon fill="white" stroke="#666666" points="359,-78 204,-78 204,-48 359,-48 359,-78"/>
<text text-anchor="start" x="212" y="-66" font-family="Helvetica,sans-Serif" font-size="10.00">dev.filechampion.filechampion4j.</text>
<text text-anchor="middle" x="281.5" y="-55" font-family="Helvetica,sans-Serif" font-size="10.00">Extensions.getValidationValue</text>
</a>
</g>
</g>
<!-- Node1&#45;&gt;Node7 -->
<g id="edge7" class="edge">
<title>Node1&#45;&gt;Node7</title>
<path fill="none" stroke="#63b8ff" d="M147.93,-95.55C166.77,-90.92 187.59,-85.81 207.04,-81.04"/>
<polygon fill="#63b8ff" stroke="#63b8ff" points="207.81,-84.21 216.68,-78.42 206.14,-77.41 207.81,-84.21"/>
</g>
<!-- Node3 -->
<g id="node3" class="node">
<title>Node3</title>
<g id="a_node3"><a xlink:href="classdev_1_1filechampion_1_1filechampion4j_1_1_file_validator.html#a8e5b65357971125d0d18f1ca1a303a82" target="_top" xlink:title=" ">
<polygon fill="white" stroke="#666666" points="550,-260 395,-260 395,-230 550,-230 550,-260"/>
<text text-anchor="start" x="403" y="-248" font-family="Helvetica,sans-Serif" font-size="10.00">dev.filechampion.filechampion4j.</text>
<text text-anchor="middle" x="472.5" y="-237" font-family="Helvetica,sans-Serif" font-size="10.00">FileValidator.deleteTempDir</text>
</a>
</g>
</g>
<!-- Node2&#45;&gt;Node3 -->
<g id="edge2" class="edge">
<title>Node2&#45;&gt;Node3</title>
<path fill="none" stroke="#63b8ff" d="M310.76,-174.38C333.28,-186.37 365.76,-203.09 395,-216 402.41,-219.27 410.31,-222.52 418.12,-225.6"/>
<polygon fill="#63b8ff" stroke="#63b8ff" points="416.7,-229.19 427.29,-229.54 419.22,-222.66 416.7,-229.19"/>
</g>
<!-- Node4 -->
<g id="node4" class="node">
<title>Node4</title>
<g id="a_node4"><a xlink:href="classdev_1_1filechampion_1_1filechampion4j_1_1_file_validator.html#a4d3fd6787fcd920751c75b9c1d4c878d" target="_top" xlink:title=" ">
<polygon fill="white" stroke="#666666" points="741,-238 586,-238 586,-208 741,-208 741,-238"/>
<text text-anchor="start" x="594" y="-226" font-family="Helvetica,sans-Serif" font-size="10.00">dev.filechampion.filechampion4j.</text>
<text text-anchor="middle" x="663.5" y="-215" font-family="Helvetica,sans-Serif" font-size="10.00">FileValidator.logWarn</text>
</a>
</g>
</g>
<!-- Node2&#45;&gt;Node4 -->
<g id="edge6" class="edge">
<title>Node2&#45;&gt;Node4</title>
<path fill="none" stroke="#63b8ff" d="M351.68,-174.46C365.97,-177.46 380.95,-180.45 395,-183 454.87,-193.85 522.66,-203.97 575.02,-211.31"/>
<polygon fill="#63b8ff" stroke="#63b8ff" points="574.23,-214.87 584.61,-212.79 575.19,-207.94 574.23,-214.87"/>
</g>
<!-- Node5 -->
<g id="node5" class="node">
<title>Node5</title>
<g id="a_node5"><a xlink:href="classdev_1_1filechampion_1_1filechampion4j_1_1_file_validator.html#a802b48ac84041a593048ed535c839940" target="_top" xlink:title=" ">
<polygon fill="white" stroke="#666666" points="550,-174 395,-174 395,-144 550,-144 550,-174"/>
<text text-anchor="start" x="403" y="-162" font-family="Helvetica,sans-Serif" font-size="10.00">dev.filechampion.filechampion4j.</text>
<text text-anchor="middle" x="472.5" y="-151" font-family="Helvetica,sans-Serif" font-size="10.00">FileValidator.isBlank</text>
</a>
</g>
</g>
<!-- Node2&#45;&gt;Node5 -->
<g id="edge4" class="edge">
<title>Node2&#45;&gt;Node5</title>
<path fill="none" stroke="#63b8ff" d="M359.37,-159C367.47,-159 375.75,-159 383.96,-159"/>
<polygon fill="#63b8ff" stroke="#63b8ff" points="383.69,-162.5 393.69,-159 383.69,-155.5 383.69,-162.5"/>
</g>
<!-- Node2&#45;&gt;Node6 -->
<g id="edge5" class="edge">
<title>Node2&#45;&gt;Node6</title>
<path fill="none" stroke="#63b8ff" d="M343.34,-143.55C361.47,-138.94 381.49,-133.86 400.22,-129.1"/>
<polygon fill="#63b8ff" stroke="#63b8ff" points="400.94,-132.28 409.77,-126.42 399.22,-125.49 400.94,-132.28"/>
</g>
<!-- Node3&#45;&gt;Node4 -->
<g id="edge3" class="edge">
<title>Node3&#45;&gt;Node4</title>
<path fill="none" stroke="#63b8ff" d="M550.37,-236.05C558.47,-235.11 566.75,-234.14 574.96,-233.19"/>
<polygon fill="#63b8ff" stroke="#63b8ff" points="575.17,-236.57 584.69,-231.94 574.36,-229.62 575.17,-236.57"/>
</g>
<!-- Node8 -->
<g id="node8" class="node">
<title>Node8</title>
<g id="a_node8"><a xlink:href="classdev_1_1filechampion_1_1filechampion4j_1_1_extensions.html#a0b4d6f0065a4fc61701be6ab4103c441" target="_top" xlink:title=" ">
<polygon fill="white" stroke="#666666" points="550,-78 395,-78 395,-48 550,-48 550,-78"/>
<text text-anchor="start" x="403" y="-66" font-family="Helvetica,sans-Serif" font-size="10.00">dev.filechampion.filechampion4j.</text>
<text text-anchor="middle" x="472.5" y="-55" font-family="Helvetica,sans-Serif" font-size="10.00">Extensions.checkInputs</text>
</a>
</g>
</g>
<!-- Node7&#45;&gt;Node8 -->
<g id="edge8" class="edge">
<title>Node7&#45;&gt;Node8</title>
<path fill="none" stroke="#63b8ff" d="M359.37,-63C367.47,-63 375.75,-63 383.96,-63"/>
<polygon fill="#63b8ff" stroke="#63b8ff" points="383.69,-66.5 393.69,-63 383.69,-59.5 383.69,-66.5"/>
</g>
<!-- Node10 -->
<g id="node10" class="node">
<title>Node10</title>
<g id="a_node10"><a xlink:href="classdev_1_1filechampion_1_1filechampion4j_1_1_extensions.html#a0aada571ca5ffb1ca298874d2c0fac50" target="_top" xlink:title=" ">
<polygon fill="white" stroke="#666666" points="550,-30 395,-30 395,0 550,0 550,-30"/>
<text text-anchor="start" x="403" y="-18" font-family="Helvetica,sans-Serif" font-size="10.00">dev.filechampion.filechampion4j.</text>
<text text-anchor="middle" x="472.5" y="-7" font-family="Helvetica,sans-Serif" font-size="10.00">Extensions.logFine</text>
</a>
</g>
</g>
<!-- Node7&#45;&gt;Node10 -->
<g id="edge10" class="edge">
<title>Node7&#45;&gt;Node10</title>
<path fill="none" stroke="#63b8ff" d="M343.34,-47.55C361.47,-42.94 381.49,-37.86 400.22,-33.1"/>
<polygon fill="#63b8ff" stroke="#63b8ff" points="400.94,-36.28 409.77,-30.42 399.22,-29.49 400.94,-36.28"/>
</g>
<!-- Node9 -->
<g id="node9" class="node">
<title>Node9</title>
<g id="a_node9"><a xlink:href="classdev_1_1filechampion_1_1filechampion4j_1_1_extensions.html#adebd31331477fe200ec272ae4569f482" target="_top" xlink:title=" ">
<polygon fill="white" stroke="#666666" points="741,-78 586,-78 586,-48 741,-48 741,-78"/>
<text text-anchor="start" x="594" y="-66" font-family="Helvetica,sans-Serif" font-size="10.00">dev.filechampion.filechampion4j.</text>
<text text-anchor="middle" x="663.5" y="-55" font-family="Helvetica,sans-Serif" font-size="10.00">Extensions.logWarn</text>
</a>
</g>
</g>
<!-- Node8&#45;&gt;Node9 -->
<g id="edge9" class="edge">
<title>Node8&#45;&gt;Node9</title>
<path fill="none" stroke="#63b8ff" d="M550.37,-63C558.47,-63 566.75,-63 574.96,-63"/>
<polygon fill="#63b8ff" stroke="#63b8ff" points="574.69,-66.5 584.69,-63 574.69,-59.5 574.69,-66.5"/>
</g>
</g>
</svg>
