<?xml version="1.0" encoding="UTF-8" standalone="no"?>
<!DOCTYPE svg PUBLIC "-//W3C//DTD SVG 1.1//EN"
 "http://www.w3.org/Graphics/SVG/1.1/DTD/svg11.dtd">
<!-- Generated by graphviz version 8.0.3 (20230416.2022)
 -->
<!-- Title: dev.filechampion.filechampion4j.FileValidator.saveFileToOutputDir Pages: 1 -->
<svg width="1014pt" height="273pt"
 viewBox="0.00 0.00 1014.00 273.00" xmlns="http://www.w3.org/2000/svg" xmlns:xlink="http://www.w3.org/1999/xlink">
<g id="graph0" class="graph" transform="scale(1 1) rotate(0) translate(4 269)">
<title>dev.filechampion.filechampion4j.FileValidator.saveFileToOutputDir</title>
<!-- Node1 -->
<g id="node1" class="node">
<title>Node1</title>
<g id="a_node1"><a xlink:title=" ">
<polygon fill="#999999" stroke="#666666" points="161,-102 0,-102 0,-72 161,-72 161,-102"/>
<text text-anchor="start" x="8" y="-90" font-family="Helvetica,sans-Serif" font-size="10.00">dev.filechampion.filechampion4j.</text>
<text text-anchor="middle" x="80.5" y="-79" font-family="Helvetica,sans-Serif" font-size="10.00">FileValidator.saveFileToOutputDir</text>
</a>
</g>
</g>
<!-- Node2 -->
<g id="node2" class="node">
<title>Node2</title>
<g id="a_node2"><a xlink:href="classdev_1_1filechampion_1_1filechampion4j_1_1_file_acl_helper.html#ad658260458dfa78c890ca27b06c3e4fa" target="_top" xlink:title=" ">
<polygon fill="white" stroke="#666666" points="364,-174 209,-174 209,-144 364,-144 364,-174"/>
<text text-anchor="start" x="217" y="-162" font-family="Helvetica,sans-Serif" font-size="10.00">dev.filechampion.filechampion4j.</text>
<text text-anchor="middle" x="286.5" y="-151" font-family="Helvetica,sans-Serif" font-size="10.00">FileAclHelper.changeFileAcl</text>
</a>
</g>
</g>
<!-- Node1&#45;&gt;Node2 -->
<g id="edge1" class="edge">
<title>Node1&#45;&gt;Node2</title>
<path fill="none" stroke="#63b8ff" d="M115.42,-102.46C138.2,-112.5 169.06,-125.45 197,-135 202.55,-136.9 208.35,-138.75 214.19,-140.52"/>
<polygon fill="#63b8ff" stroke="#63b8ff" points="213.14,-144.16 223.72,-143.63 215.12,-137.45 213.14,-144.16"/>
</g>
<!-- Node10 -->
<g id="node10" class="node">
<title>Node10</title>
<g id="a_node10"><a xlink:href="classdev_1_1filechampion_1_1filechampion4j_1_1_extension.html#a84ccc1ed5b10cf94987bb7a28757a417" target="_top" xlink:title=" ">
<polygon fill="white" stroke="#666666" points="376,-126 197,-126 197,-96 376,-96 376,-126"/>
<text text-anchor="start" x="205" y="-114" font-family="Helvetica,sans-Serif" font-size="10.00">dev.filechampion.filechampion4j.</text>
<text text-anchor="middle" x="286.5" y="-103" font-family="Helvetica,sans-Serif" font-size="10.00">Extension.getChangeOwnershipMode</text>
</a>
</g>
</g>
<!-- Node1&#45;&gt;Node10 -->
<g id="edge15" class="edge">
<title>Node1&#45;&gt;Node10</title>
<path fill="none" stroke="#63b8ff" d="M161.25,-96.38C169.33,-97.33 177.61,-98.31 185.86,-99.28"/>
<polygon fill="#63b8ff" stroke="#63b8ff" points="185.35,-102.86 195.69,-100.55 186.16,-95.91 185.35,-102.86"/>
</g>
<!-- Node11 -->
<g id="node11" class="node">
<title>Node11</title>
<g id="a_node11"><a xlink:href="classdev_1_1filechampion_1_1filechampion4j_1_1_extension.html#a9345e902c7e0a97db4b373220b5fb83a" target="_top" xlink:title=" ">
<polygon fill="white" stroke="#666666" points="374.5,-78 198.5,-78 198.5,-48 374.5,-48 374.5,-78"/>
<text text-anchor="start" x="206.5" y="-66" font-family="Helvetica,sans-Serif" font-size="10.00">dev.filechampion.filechampion4j.</text>
<text text-anchor="middle" x="286.5" y="-55" font-family="Helvetica,sans-Serif" font-size="10.00">Extension.getChangeOwnershipUser</text>
</a>
</g>
</g>
<!-- Node1&#45;&gt;Node11 -->
<g id="edge16" class="edge">
<title>Node1&#45;&gt;Node11</title>
<path fill="none" stroke="#63b8ff" d="M161.25,-77.62C169.83,-76.61 178.63,-75.57 187.39,-74.54"/>
<polygon fill="#63b8ff" stroke="#63b8ff" points="187.52,-77.93 197.04,-73.29 186.7,-70.98 187.52,-77.93"/>
</g>
<!-- Node12 -->
<g id="node12" class="node">
<title>Node12</title>
<g id="a_node12"><a xlink:href="classdev_1_1filechampion_1_1filechampion4j_1_1_file_validator.html#a35969cf77543d9324b883b59bfced1de" target="_top" xlink:title=" ">
<polygon fill="white" stroke="#666666" points="364,-30 209,-30 209,0 364,0 364,-30"/>
<text text-anchor="start" x="217" y="-18" font-family="Helvetica,sans-Serif" font-size="10.00">dev.filechampion.filechampion4j.</text>
<text text-anchor="middle" x="286.5" y="-7" font-family="Helvetica,sans-Serif" font-size="10.00">FileValidator.logSevere</text>
</a>
</g>
</g>
<!-- Node1&#45;&gt;Node12 -->
<g id="edge17" class="edge">
<title>Node1&#45;&gt;Node12</title>
<path fill="none" stroke="#63b8ff" d="M115.42,-71.54C138.2,-61.5 169.06,-48.55 197,-39 202.55,-37.1 208.35,-35.25 214.19,-33.48"/>
<polygon fill="#63b8ff" stroke="#63b8ff" points="215.12,-36.55 223.72,-30.37 213.14,-29.84 215.12,-36.55"/>
</g>
<!-- Node3 -->
<g id="node3" class="node">
<title>Node3</title>
<g id="a_node3"><a xlink:href="classdev_1_1filechampion_1_1filechampion4j_1_1_file_acl_helper.html#ac1fb96739e62ad91d1f833908dc99442" target="_top" xlink:title=" ">
<polygon fill="white" stroke="#666666" points="571.5,-265 416.5,-265 416.5,-235 571.5,-235 571.5,-265"/>
<text text-anchor="start" x="424.5" y="-253" font-family="Helvetica,sans-Serif" font-size="10.00">dev.filechampion.filechampion4j.</text>
<text text-anchor="middle" x="494" y="-242" font-family="Helvetica,sans-Serif" font-size="10.00">FileAclHelper.getUserPrinciple</text>
</a>
</g>
</g>
<!-- Node2&#45;&gt;Node3 -->
<g id="edge2" class="edge">
<title>Node2&#45;&gt;Node3</title>
<path fill="none" stroke="#63b8ff" d="M322.36,-174.44C357.15,-189.84 410.75,-213.58 448.57,-230.33"/>
<polygon fill="#63b8ff" stroke="#63b8ff" points="446.75,-233.79 457.31,-234.64 449.59,-227.39 446.75,-233.79"/>
</g>
<!-- Node5 -->
<g id="node5" class="node">
<title>Node5</title>
<g id="a_node5"><a xlink:href="classdev_1_1filechampion_1_1filechampion4j_1_1_file_acl_helper.html#a73d0b85c677037db5ab4865e005bc756" target="_top" xlink:title=" ">
<polygon fill="white" stroke="#666666" points="1006,-172 851,-172 851,-142 1006,-142 1006,-172"/>
<text text-anchor="start" x="859" y="-160" font-family="Helvetica,sans-Serif" font-size="10.00">dev.filechampion.filechampion4j.</text>
<text text-anchor="middle" x="928.5" y="-149" font-family="Helvetica,sans-Serif" font-size="10.00">FileAclHelper.logFine</text>
</a>
</g>
</g>
<!-- Node2&#45;&gt;Node5 -->
<g id="edge4" class="edge">
<title>Node2&#45;&gt;Node5</title>
<path fill="none" stroke="#63b8ff" d="M364.47,-144.96C380.18,-142.21 396.61,-139.44 412,-137 589.33,-108.93 639.09,-73.04 815,-109 841.4,-114.4 869.27,-126.24 890.67,-136.81"/>
<polygon fill="#63b8ff" stroke="#63b8ff" points="888.81,-140.3 899.32,-141.7 891.98,-134.06 888.81,-140.3"/>
</g>
<!-- Node6 -->
<g id="node6" class="node">
<title>Node6</title>
<g id="a_node6"><a xlink:href="classdev_1_1filechampion_1_1filechampion4j_1_1_file_acl_helper.html#a89a35f8379b106dcf38650384560ce9f" target="_top" xlink:title=" ">
<polygon fill="white" stroke="#666666" points="791,-148 636,-148 636,-118 791,-118 791,-148"/>
<text text-anchor="start" x="644" y="-136" font-family="Helvetica,sans-Serif" font-size="10.00">dev.filechampion.filechampion4j.</text>
<text text-anchor="middle" x="713.5" y="-125" font-family="Helvetica,sans-Serif" font-size="10.00">FileAclHelper.setNewOwner</text>
</a>
</g>
</g>
<!-- Node2&#45;&gt;Node6 -->
<g id="edge5" class="edge">
<title>Node2&#45;&gt;Node6</title>
<path fill="none" stroke="#63b8ff" d="M364.46,-154.29C437.91,-149.8 548.44,-143.04 625.16,-138.34"/>
<polygon fill="#63b8ff" stroke="#63b8ff" points="624.98,-141.8 634.75,-137.7 624.56,-134.81 624.98,-141.8"/>
</g>
<!-- Node7 -->
<g id="node7" class="node">
<title>Node7</title>
<g id="a_node7"><a xlink:href="classdev_1_1filechampion_1_1filechampion4j_1_1_file_acl_helper.html#a00c73219098ca931f6dbfba1f45555ae" target="_top" xlink:title=" ">
<polygon fill="white" stroke="#666666" points="576,-196 412,-196 412,-166 576,-166 576,-196"/>
<text text-anchor="start" x="420" y="-184" font-family="Helvetica,sans-Serif" font-size="10.00">dev.filechampion.filechampion4j.</text>
<text text-anchor="middle" x="494" y="-173" font-family="Helvetica,sans-Serif" font-size="10.00">FileAclHelper.setNewPermissions</text>
</a>
</g>
</g>
<!-- Node2&#45;&gt;Node7 -->
<g id="edge8" class="edge">
<title>Node2&#45;&gt;Node7</title>
<path fill="none" stroke="#63b8ff" d="M364.31,-167.22C376.3,-168.51 388.8,-169.84 401.09,-171.16"/>
<polygon fill="#63b8ff" stroke="#63b8ff" points="400.5,-174.72 410.81,-172.31 401.24,-167.76 400.5,-174.72"/>
</g>
<!-- Node4 -->
<g id="node4" class="node">
<title>Node4</title>
<g id="a_node4"><a xlink:href="classdev_1_1filechampion_1_1filechampion4j_1_1_file_acl_helper.html#ab6fd281a6c09486bf16d2eea3a0ea1ea" target="_top" xlink:title=" ">
<polygon fill="white" stroke="#666666" points="1006,-232 851,-232 851,-202 1006,-202 1006,-232"/>
<text text-anchor="start" x="859" y="-220" font-family="Helvetica,sans-Serif" font-size="10.00">dev.filechampion.filechampion4j.</text>
<text text-anchor="middle" x="928.5" y="-209" font-family="Helvetica,sans-Serif" font-size="10.00">FileAclHelper.logSevere</text>
</a>
</g>
</g>
<!-- Node3&#45;&gt;Node4 -->
<g id="edge3" class="edge">
<title>Node3&#45;&gt;Node4</title>
<path fill="none" stroke="#63b8ff" d="M571.81,-257.73C636.95,-262.61 732.66,-265.85 815,-253 836.55,-249.64 859.62,-242.85 879.22,-236.07"/>
<polygon fill="#63b8ff" stroke="#63b8ff" points="880.18,-239.09 888.43,-232.43 877.83,-232.49 880.18,-239.09"/>
</g>
<!-- Node6&#45;&gt;Node4 -->
<g id="edge7" class="edge">
<title>Node6&#45;&gt;Node4</title>
<path fill="none" stroke="#63b8ff" d="M791.43,-148.38C799.52,-150.88 807.52,-153.74 815,-157 832.63,-164.69 834.25,-171.55 851,-181 860.88,-186.58 871.77,-192.07 882.16,-197.02"/>
<polygon fill="#63b8ff" stroke="#63b8ff" points="880.37,-200.51 890.91,-201.58 883.34,-194.17 880.37,-200.51"/>
</g>
<!-- Node6&#45;&gt;Node5 -->
<g id="edge6" class="edge">
<title>Node6&#45;&gt;Node5</title>
<path fill="none" stroke="#63b8ff" d="M791.4,-141.66C807.23,-143.45 824.02,-145.34 840.19,-147.16"/>
<polygon fill="#63b8ff" stroke="#63b8ff" points="839.39,-150.71 849.71,-148.35 840.17,-143.75 839.39,-150.71"/>
</g>
<!-- Node8 -->
<g id="node8" class="node">
<title>Node8</title>
<g id="a_node8"><a xlink:href="classdev_1_1filechampion_1_1filechampion4j_1_1_file_acl_helper.html#a957cd8f062521037c11e5d15d3785906" target="_top" xlink:title=" ">
<polygon fill="white" stroke="#666666" points="805,-196 622,-196 622,-166 805,-166 805,-196"/>
<text text-anchor="start" x="630" y="-184" font-family="Helvetica,sans-Serif" font-size="10.00">dev.filechampion.filechampion4j.</text>
<text text-anchor="middle" x="713.5" y="-173" font-family="Helvetica,sans-Serif" font-size="10.00">FileAclHelper.setNewPermissionsUnix</text>
</a>
</g>
</g>
<!-- Node7&#45;&gt;Node8 -->
<g id="edge9" class="edge">
<title>Node7&#45;&gt;Node8</title>
<path fill="none" stroke="#63b8ff" d="M576.3,-181C587.66,-181 599.45,-181 611.13,-181"/>
<polygon fill="#63b8ff" stroke="#63b8ff" points="610.8,-184.5 620.8,-181 610.8,-177.5 610.8,-184.5"/>
</g>
<!-- Node9 -->
<g id="node9" class="node">
<title>Node9</title>
<g id="a_node9"><a xlink:href="classdev_1_1filechampion_1_1filechampion4j_1_1_file_acl_helper.html#a5c4d050d4ddf432b45ffe49b48b20735" target="_top" xlink:title=" ">
<polygon fill="white" stroke="#666666" points="815,-244 612,-244 612,-214 815,-214 815,-244"/>
<text text-anchor="start" x="620" y="-232" font-family="Helvetica,sans-Serif" font-size="10.00">dev.filechampion.filechampion4j.</text>
<text text-anchor="middle" x="713.5" y="-221" font-family="Helvetica,sans-Serif" font-size="10.00">FileAclHelper.setNewPermissionsWindows</text>
</a>
</g>
</g>
<!-- Node7&#45;&gt;Node9 -->
<g id="edge12" class="edge">
<title>Node7&#45;&gt;Node9</title>
<path fill="none" stroke="#63b8ff" d="M565.02,-196.45C586.36,-201.16 609.99,-206.38 631.97,-211.23"/>
<polygon fill="#63b8ff" stroke="#63b8ff" points="631.1,-214.84 641.62,-213.58 632.6,-208 631.1,-214.84"/>
</g>
<!-- Node8&#45;&gt;Node4 -->
<g id="edge11" class="edge">
<title>Node8&#45;&gt;Node4</title>
<path fill="none" stroke="#63b8ff" d="M805.45,-196.37C816.85,-198.3 828.48,-200.27 839.83,-202.18"/>
<polygon fill="#63b8ff" stroke="#63b8ff" points="839.16,-205.79 849.6,-204 840.32,-198.88 839.16,-205.79"/>
</g>
<!-- Node8&#45;&gt;Node5 -->
<g id="edge10" class="edge">
<title>Node8&#45;&gt;Node5</title>
<path fill="none" stroke="#63b8ff" d="M805.45,-170.75C816.85,-169.47 828.48,-168.16 839.83,-166.88"/>
<polygon fill="#63b8ff" stroke="#63b8ff" points="840.05,-170.26 849.6,-165.66 839.27,-163.31 840.05,-170.26"/>
</g>
<!-- Node9&#45;&gt;Node4 -->
<g id="edge14" class="edge">
<title>Node9&#45;&gt;Node4</title>
<path fill="none" stroke="#63b8ff" d="M815.39,-223.32C823.52,-222.86 831.69,-222.4 839.72,-221.95"/>
<polygon fill="#63b8ff" stroke="#63b8ff" points="839.77,-225.39 849.56,-221.33 839.38,-218.4 839.77,-225.39"/>
</g>
<!-- Node9&#45;&gt;Node5 -->
<g id="edge13" class="edge">
<title>Node9&#45;&gt;Node5</title>
<path fill="none" stroke="#63b8ff" d="M785.75,-213.57C795.65,-210.96 805.63,-208.09 815,-205 838.91,-197.11 864.81,-186.22 885.73,-176.82"/>
<polygon fill="#63b8ff" stroke="#63b8ff" points="886.92,-179.67 894.56,-172.34 884.01,-173.3 886.92,-179.67"/>
</g>
</g>
</svg>
