<?xml version="1.0" encoding="UTF-8" standalone="no"?>
<!DOCTYPE svg PUBLIC "-//W3C//DTD SVG 1.1//EN"
 "http://www.w3.org/Graphics/SVG/1.1/DTD/svg11.dtd">
<!-- Generated by graphviz version 8.0.3 (20230416.2022)
 -->
<!-- Title: dev.filechampion.filechampion4j.Extensions.logWarn Pages: 1 -->
<svg width="1805pt" height="588pt"
 viewBox="0.00 0.00 1805.00 587.98" xmlns="http://www.w3.org/2000/svg" xmlns:xlink="http://www.w3.org/1999/xlink">
<g id="graph0" class="graph" transform="scale(1 1) rotate(0) translate(4 583.98)">
<title>dev.filechampion.filechampion4j.Extensions.logWarn</title>
<!-- Node1 -->
<g id="node1" class="node">
<title>Node1</title>
<g id="a_node1"><a xlink:title=" ">
<polygon fill="#999999" stroke="#666666" points="1797,-143.88 1642,-143.88 1642,-113.88 1797,-113.88 1797,-143.88"/>
<text text-anchor="start" x="1650" y="-131.88" font-family="Helvetica,sans-Serif" font-size="10.00">dev.filechampion.filechampion4j.</text>
<text text-anchor="middle" x="1719.5" y="-120.88" font-family="Helvetica,sans-Serif" font-size="10.00">Extensions.logWarn</text>
</a>
</g>
</g>
<!-- Node2 -->
<g id="node2" class="node">
<title>Node2</title>
<g id="a_node2"><a xlink:href="classdev_1_1filechampion_1_1filechampion4j_1_1_extensions.html#a0b4d6f0065a4fc61701be6ab4103c441" target="_top" xlink:title=" ">
<polygon fill="white" stroke="#666666" points="1606,-283.88 1451,-283.88 1451,-253.88 1606,-253.88 1606,-283.88"/>
<text text-anchor="start" x="1459" y="-271.88" font-family="Helvetica,sans-Serif" font-size="10.00">dev.filechampion.filechampion4j.</text>
<text text-anchor="middle" x="1528.5" y="-260.88" font-family="Helvetica,sans-Serif" font-size="10.00">Extensions.checkInputs</text>
</a>
</g>
</g>
<!-- Node1&#45;&gt;Node2 -->
<g id="edge1" class="edge">
<title>Node1&#45;&gt;Node2</title>
<path fill="none" stroke="#63b8ff" d="M1694.1,-151.16C1671.89,-170.97 1637.81,-200.23 1606,-222.88 1590.47,-233.93 1572.21,-244.98 1557.42,-253.48"/>
<polygon fill="#63b8ff" stroke="#63b8ff" points="1695.9,-154.35 1701,-145.06 1691.22,-149.14 1695.9,-154.35"/>
</g>
<!-- Node18 -->
<g id="node18" class="node">
<title>Node18</title>
<g id="a_node18"><a xlink:href="classdev_1_1filechampion_1_1filechampion4j_1_1_extensions.html#ac7a42f1722ece112cb3249e20978956e" target="_top" xlink:title=" ">
<polygon fill="white" stroke="#666666" points="1186.5,-36.88 1004.5,-36.88 1004.5,-6.88 1186.5,-6.88 1186.5,-36.88"/>
<text text-anchor="start" x="1012.5" y="-24.88" font-family="Helvetica,sans-Serif" font-size="10.00">dev.filechampion.filechampion4j.</text>
<text text-anchor="middle" x="1095.5" y="-13.88" font-family="Helvetica,sans-Serif" font-size="10.00">Extensions.mapConfiguredExtensions</text>
</a>
</g>
</g>
<!-- Node1&#45;&gt;Node18 -->
<g id="edge28" class="edge">
<title>Node1&#45;&gt;Node18</title>
<path fill="none" stroke="#63b8ff" d="M1697.5,-105.63C1676.65,-84.37 1642.6,-54.26 1606,-40.88 1466.54,10.11 1291.08,2.44 1186.68,-8.92"/>
<polygon fill="#63b8ff" stroke="#63b8ff" points="1694.64,-107.75 1704.08,-112.57 1699.7,-102.92 1694.64,-107.75"/>
</g>
<!-- Node20 -->
<g id="node20" class="node">
<title>Node20</title>
<g id="a_node20"><a xlink:href="classdev_1_1filechampion_1_1filechampion4j_1_1_extensions.html#ac905bd4c26533f81b804c16a2b7cf1df" target="_top" xlink:title=" ">
<polygon fill="white" stroke="#666666" points="1415,-122.88 1236,-122.88 1236,-92.88 1415,-92.88 1415,-122.88"/>
<text text-anchor="start" x="1244" y="-110.88" font-family="Helvetica,sans-Serif" font-size="10.00">dev.filechampion.filechampion4j.</text>
<text text-anchor="middle" x="1325.5" y="-99.88" font-family="Helvetica,sans-Serif" font-size="10.00">Extensions.mapExtensionValidations</text>
</a>
</g>
</g>
<!-- Node1&#45;&gt;Node20 -->
<g id="edge30" class="edge">
<title>Node1&#45;&gt;Node20</title>
<path fill="none" stroke="#63b8ff" d="M1630.61,-124.17C1566.42,-120.73 1479.7,-116.08 1415.29,-112.63"/>
<polygon fill="#63b8ff" stroke="#63b8ff" points="1630.35,-127.71 1640.52,-124.75 1630.72,-120.72 1630.35,-127.71"/>
</g>
<!-- Node21 -->
<g id="node21" class="node">
<title>Node21</title>
<g id="a_node21"><a xlink:href="classdev_1_1filechampion_1_1filechampion4j_1_1_extensions.html#aae54a0c575ab050d505554b827eba486" target="_top" xlink:title=" ">
<polygon fill="white" stroke="#666666" points="1606,-79.88 1451,-79.88 1451,-49.88 1606,-49.88 1606,-79.88"/>
<text text-anchor="start" x="1459" y="-67.88" font-family="Helvetica,sans-Serif" font-size="10.00">dev.filechampion.filechampion4j.</text>
<text text-anchor="middle" x="1528.5" y="-56.88" font-family="Helvetica,sans-Serif" font-size="10.00">Extensions.setArrayList</text>
</a>
</g>
</g>
<!-- Node1&#45;&gt;Node21 -->
<g id="edge32" class="edge">
<title>Node1&#45;&gt;Node21</title>
<path fill="none" stroke="#63b8ff" d="M1662.37,-109.87C1634.56,-100.45 1601.39,-89.22 1575.16,-80.34"/>
<polygon fill="#63b8ff" stroke="#63b8ff" points="1661.15,-113.49 1671.75,-113.38 1663.4,-106.86 1661.15,-113.49"/>
</g>
<!-- Node22 -->
<g id="node22" class="node">
<title>Node22</title>
<g id="a_node22"><a xlink:href="classdev_1_1filechampion_1_1filechampion4j_1_1_extensions.html#ae8f04f4e1d62e544e1ec5893bff82a4d" target="_top" xlink:title=" ">
<polygon fill="white" stroke="#666666" points="1606,-213.88 1451,-213.88 1451,-183.88 1606,-183.88 1606,-213.88"/>
<text text-anchor="start" x="1459" y="-201.88" font-family="Helvetica,sans-Serif" font-size="10.00">dev.filechampion.filechampion4j.</text>
<text text-anchor="middle" x="1528.5" y="-190.88" font-family="Helvetica,sans-Serif" font-size="10.00">Extensions.setBoolean</text>
</a>
</g>
</g>
<!-- Node1&#45;&gt;Node22 -->
<g id="edge34" class="edge">
<title>Node1&#45;&gt;Node22</title>
<path fill="none" stroke="#63b8ff" d="M1672.9,-148.54C1652.57,-157.04 1628.25,-166.86 1606,-174.88 1597.88,-177.8 1589.21,-180.72 1580.73,-183.46"/>
<polygon fill="#63b8ff" stroke="#63b8ff" points="1673.97,-151.47 1681.83,-144.36 1671.25,-145.02 1673.97,-151.47"/>
</g>
<!-- Node23 -->
<g id="node23" class="node">
<title>Node23</title>
<g id="a_node23"><a xlink:href="classdev_1_1filechampion_1_1filechampion4j_1_1_extensions.html#ad1fe364836f20ce9ff85b8f19ad2ba12" target="_top" xlink:title=" ">
<polygon fill="white" stroke="#666666" points="1606,-165.88 1451,-165.88 1451,-135.88 1606,-135.88 1606,-165.88"/>
<text text-anchor="start" x="1459" y="-153.88" font-family="Helvetica,sans-Serif" font-size="10.00">dev.filechampion.filechampion4j.</text>
<text text-anchor="middle" x="1528.5" y="-142.88" font-family="Helvetica,sans-Serif" font-size="10.00">Extensions.setString</text>
</a>
</g>
</g>
<!-- Node1&#45;&gt;Node23 -->
<g id="edge36" class="edge">
<title>Node1&#45;&gt;Node23</title>
<path fill="none" stroke="#63b8ff" d="M1630.89,-139.07C1622.68,-140.03 1614.41,-140.99 1606.31,-141.94"/>
<polygon fill="#63b8ff" stroke="#63b8ff" points="1631.1,-142.46 1640.63,-137.83 1630.29,-135.51 1631.1,-142.46"/>
</g>
<!-- Node3 -->
<g id="node3" class="node">
<title>Node3</title>
<g id="a_node3"><a xlink:href="classdev_1_1filechampion_1_1filechampion4j_1_1_extensions.html#ac3de7a6e3faa8e7f76d0d3705e02a42d" target="_top" xlink:title=" ">
<polygon fill="white" stroke="#666666" points="1403,-304.88 1248,-304.88 1248,-274.88 1403,-274.88 1403,-304.88"/>
<text text-anchor="start" x="1256" y="-292.88" font-family="Helvetica,sans-Serif" font-size="10.00">dev.filechampion.filechampion4j.</text>
<text text-anchor="middle" x="1325.5" y="-281.88" font-family="Helvetica,sans-Serif" font-size="10.00">Extensions.getValidationValue</text>
</a>
</g>
</g>
<!-- Node2&#45;&gt;Node3 -->
<g id="edge2" class="edge">
<title>Node2&#45;&gt;Node3</title>
<path fill="none" stroke="#63b8ff" d="M1440,-278.02C1427.78,-279.3 1415.31,-280.6 1403.31,-281.85"/>
<polygon fill="#63b8ff" stroke="#63b8ff" points="1440.07,-281.43 1449.65,-276.91 1439.34,-274.46 1440.07,-281.43"/>
</g>
<!-- Node4 -->
<g id="node4" class="node">
<title>Node4</title>
<g id="a_node4"><a xlink:href="classdev_1_1filechampion_1_1filechampion4j_1_1_validations_helper.html#a4b5f515c54272fa1c4f177ef05c4fffe" target="_top" xlink:title=" ">
<polygon fill="white" stroke="#666666" points="1174,-352.88 1017,-352.88 1017,-322.88 1174,-322.88 1174,-352.88"/>
<text text-anchor="start" x="1025" y="-340.88" font-family="Helvetica,sans-Serif" font-size="10.00">dev.filechampion.filechampion4j.</text>
<text text-anchor="middle" x="1095.5" y="-329.88" font-family="Helvetica,sans-Serif" font-size="10.00">ValidationsHelper.checkFileSize</text>
</a>
</g>
</g>
<!-- Node3&#45;&gt;Node4 -->
<g id="edge3" class="edge">
<title>Node3&#45;&gt;Node4</title>
<path fill="none" stroke="#63b8ff" d="M1240.57,-307.55C1217.35,-312.44 1192.33,-317.7 1169.76,-322.45"/>
<polygon fill="#63b8ff" stroke="#63b8ff" points="1241.04,-310.81 1250.1,-305.33 1239.6,-303.96 1241.04,-310.81"/>
</g>
<!-- Node6 -->
<g id="node6" class="node">
<title>Node6</title>
<g id="a_node6"><a xlink:href="classdev_1_1filechampion_1_1filechampion4j_1_1_validations_helper.html#a9722c4ec7eff7b6fc7b9747855770e10" target="_top" xlink:title=" ">
<polygon fill="white" stroke="#666666" points="758,-385.88 573,-385.88 573,-355.88 758,-355.88 758,-385.88"/>
<text text-anchor="start" x="581" y="-373.88" font-family="Helvetica,sans-Serif" font-size="10.00">dev.filechampion.filechampion4j.</text>
<text text-anchor="middle" x="665.5" y="-362.88" font-family="Helvetica,sans-Serif" font-size="10.00">ValidationsHelper.getValidationResults</text>
</a>
</g>
</g>
<!-- Node3&#45;&gt;Node6 -->
<g id="edge24" class="edge">
<title>Node3&#45;&gt;Node6</title>
<path fill="none" stroke="#63b8ff" d="M1296.63,-311.59C1272.56,-328.91 1236.06,-351.88 1200,-361.88 1049.59,-403.6 866.05,-394.3 758.16,-383.06"/>
<polygon fill="#63b8ff" stroke="#63b8ff" points="1298.25,-314.01 1304.22,-305.26 1294.1,-308.37 1298.25,-314.01"/>
</g>
<!-- Node7 -->
<g id="node7" class="node">
<title>Node7</title>
<g id="a_node7"><a xlink:href="classdev_1_1filechampion_1_1filechampion4j_1_1_file_validator.html#a48a54a63d062cd23af2d14a6af76899e" target="_top" xlink:title=" ">
<polygon fill="white" stroke="#666666" points="537,-433.88 382,-433.88 382,-403.88 537,-403.88 537,-433.88"/>
<text text-anchor="start" x="390" y="-421.88" font-family="Helvetica,sans-Serif" font-size="10.00">dev.filechampion.filechampion4j.</text>
<text text-anchor="middle" x="459.5" y="-410.88" font-family="Helvetica,sans-Serif" font-size="10.00">FileValidator.doValidations</text>
</a>
</g>
</g>
<!-- Node3&#45;&gt;Node7 -->
<g id="edge17" class="edge">
<title>Node3&#45;&gt;Node7</title>
<path fill="none" stroke="#63b8ff" d="M1319.66,-316.03C1308.69,-366.82 1276.67,-477.82 1200,-523.88 957.11,-669.77 590.12,-490.13 487.82,-434.37"/>
<polygon fill="#63b8ff" stroke="#63b8ff" points="1323.27,-316.82 1321.85,-306.32 1316.42,-315.42 1323.27,-316.82"/>
</g>
<!-- Node8 -->
<g id="node8" class="node">
<title>Node8</title>
<g id="a_node8"><a xlink:href="classdev_1_1filechampion_1_1filechampion4j_1_1_file_validator.html#a2ac42f051e5724b165e5b0234a1e23f4" target="_top" xlink:title=" ">
<polygon fill="white" stroke="#666666" points="346,-117.88 191,-117.88 191,-87.88 346,-87.88 346,-117.88"/>
<text text-anchor="start" x="199" y="-105.88" font-family="Helvetica,sans-Serif" font-size="10.00">dev.filechampion.filechampion4j.</text>
<text text-anchor="middle" x="268.5" y="-94.88" font-family="Helvetica,sans-Serif" font-size="10.00">FileValidator.validateFileMain</text>
</a>
</g>
</g>
<!-- Node3&#45;&gt;Node8 -->
<g id="edge27" class="edge">
<title>Node3&#45;&gt;Node8</title>
<path fill="none" stroke="#63b8ff" d="M1314.23,-264.57C1297.06,-225.96 1258.52,-153.53 1200,-121.88 1136.46,-87.52 947.73,-102.88 875.5,-102.88 875.5,-102.88 875.5,-102.88 664.5,-102.88 553.92,-102.88 425.93,-102.88 346.33,-102.88"/>
<polygon fill="#63b8ff" stroke="#63b8ff" points="1311.34,-265.69 1318.51,-273.49 1317.77,-262.93 1311.34,-265.69"/>
</g>
<!-- Node10 -->
<g id="node10" class="node">
<title>Node10</title>
<g id="a_node10"><a xlink:href="classdev_1_1filechampion_1_1filechampion4j_1_1_validations_helper.html#a43b491bbdf4b6104d060386d4371753c" target="_top" xlink:title=" ">
<polygon fill="white" stroke="#666666" points="1179,-304.88 1012,-304.88 1012,-274.88 1179,-274.88 1179,-304.88"/>
<text text-anchor="start" x="1020" y="-292.88" font-family="Helvetica,sans-Serif" font-size="10.00">dev.filechampion.filechampion4j.</text>
<text text-anchor="middle" x="1095.5" y="-281.88" font-family="Helvetica,sans-Serif" font-size="10.00">ValidationsHelper.checkMimeType</text>
</a>
</g>
</g>
<!-- Node3&#45;&gt;Node10 -->
<g id="edge9" class="edge">
<title>Node3&#45;&gt;Node10</title>
<path fill="none" stroke="#63b8ff" d="M1236.66,-289.88C1217.81,-289.88 1197.94,-289.88 1179.29,-289.88"/>
<polygon fill="#63b8ff" stroke="#63b8ff" points="1236.63,-293.38 1246.63,-289.88 1236.63,-286.38 1236.63,-293.38"/>
</g>
<!-- Node11 -->
<g id="node11" class="node">
<title>Node11</title>
<g id="a_node11"><a xlink:href="classdev_1_1filechampion_1_1filechampion4j_1_1_validations_helper.html#a9c7f6f3159fef96d606ca0a6712b2165" target="_top" xlink:title=" ">
<polygon fill="white" stroke="#666666" points="1198.5,-256.88 992.5,-256.88 992.5,-226.88 1198.5,-226.88 1198.5,-256.88"/>
<text text-anchor="start" x="1000.5" y="-244.88" font-family="Helvetica,sans-Serif" font-size="10.00">dev.filechampion.filechampion4j.</text>
<text text-anchor="middle" x="1095.5" y="-233.88" font-family="Helvetica,sans-Serif" font-size="10.00">ValidationsHelper.containsFooterSignatures</text>
</a>
</g>
</g>
<!-- Node3&#45;&gt;Node11 -->
<g id="edge11" class="edge">
<title>Node3&#45;&gt;Node11</title>
<path fill="none" stroke="#63b8ff" d="M1240.57,-272.21C1217.35,-267.32 1192.33,-262.05 1169.76,-257.3"/>
<polygon fill="#63b8ff" stroke="#63b8ff" points="1239.6,-275.79 1250.1,-274.43 1241.04,-268.94 1239.6,-275.79"/>
</g>
<!-- Node12 -->
<g id="node12" class="node">
<title>Node12</title>
<g id="a_node12"><a xlink:href="classdev_1_1filechampion_1_1filechampion4j_1_1_validations_helper.html#aab316adeef5b3b9c80ef17bd05826582" target="_top" xlink:title=" ">
<polygon fill="white" stroke="#666666" points="1200,-208.88 991,-208.88 991,-178.88 1200,-178.88 1200,-208.88"/>
<text text-anchor="start" x="999" y="-196.88" font-family="Helvetica,sans-Serif" font-size="10.00">dev.filechampion.filechampion4j.</text>
<text text-anchor="middle" x="1095.5" y="-185.88" font-family="Helvetica,sans-Serif" font-size="10.00">ValidationsHelper.containsHeaderSignatures</text>
</a>
</g>
</g>
<!-- Node3&#45;&gt;Node12 -->
<g id="edge13" class="edge">
<title>Node3&#45;&gt;Node12</title>
<path fill="none" stroke="#63b8ff" d="M1293.46,-268.43C1269.04,-252.44 1233.62,-231.15 1200,-217.88 1191.85,-214.66 1183.16,-211.81 1174.42,-209.3"/>
<polygon fill="#63b8ff" stroke="#63b8ff" points="1291.31,-271.87 1301.58,-274.49 1295.18,-266.04 1291.31,-271.87"/>
</g>
<!-- Node13 -->
<g id="node13" class="node">
<title>Node13</title>
<g id="a_node13"><a xlink:href="classdev_1_1filechampion_1_1filechampion4j_1_1_validations_helper.html#a480b1c09382ee05e547a68c7eed8e2ed" target="_top" xlink:title=" ">
<polygon fill="white" stroke="#666666" points="1187.5,-160.88 1003.5,-160.88 1003.5,-130.88 1187.5,-130.88 1187.5,-160.88"/>
<text text-anchor="start" x="1011.5" y="-148.88" font-family="Helvetica,sans-Serif" font-size="10.00">dev.filechampion.filechampion4j.</text>
<text text-anchor="middle" x="1095.5" y="-137.88" font-family="Helvetica,sans-Serif" font-size="10.00">ValidationsHelper.containsMagicBytes</text>
</a>
</g>
</g>
<!-- Node3&#45;&gt;Node13 -->
<g id="edge15" class="edge">
<title>Node3&#45;&gt;Node13</title>
<path fill="none" stroke="#63b8ff" d="M1306.55,-266.06C1284.52,-238.58 1244.56,-194.07 1200,-169.88 1194,-166.62 1187.58,-163.8 1180.97,-161.37"/>
<polygon fill="#63b8ff" stroke="#63b8ff" points="1304.38,-267.97 1313.31,-273.68 1309.89,-263.65 1304.38,-267.97"/>
</g>
<!-- Node14 -->
<g id="node14" class="node">
<title>Node14</title>
<g id="a_node14"><a xlink:href="classdev_1_1filechampion_1_1filechampion4j_1_1_file_validator.html#aac29042353654b8f6c3975ae885da151" target="_top" xlink:title=" ">
<polygon fill="white" stroke="#666666" points="955,-476.88 794,-476.88 794,-446.88 955,-446.88 955,-476.88"/>
<text text-anchor="start" x="802" y="-464.88" font-family="Helvetica,sans-Serif" font-size="10.00">dev.filechampion.filechampion4j.</text>
<text text-anchor="middle" x="874.5" y="-453.88" font-family="Helvetica,sans-Serif" font-size="10.00">FileValidator.executeAfterPlugins</text>
</a>
</g>
</g>
<!-- Node3&#45;&gt;Node14 -->
<g id="edge18" class="edge">
<title>Node3&#45;&gt;Node14</title>
<path fill="none" stroke="#63b8ff" d="M1311.28,-314.41C1291.83,-347.76 1252.08,-406.3 1200,-432.88 1123.67,-471.82 1024.04,-474.83 955.41,-470.79"/>
<polygon fill="#63b8ff" stroke="#63b8ff" points="1314.77,-316.35 1316.66,-305.93 1308.68,-312.9 1314.77,-316.35"/>
</g>
<!-- Node15 -->
<g id="node15" class="node">
<title>Node15</title>
<g id="a_node15"><a xlink:href="classdev_1_1filechampion_1_1filechampion4j_1_1_file_validator.html#aa9bf0e018f1c94b78ea2e8e3c12eafdd" target="_top" xlink:title=" ">
<polygon fill="white" stroke="#666666" points="1194,-514.88 997,-514.88 997,-484.88 1194,-484.88 1194,-514.88"/>
<text text-anchor="start" x="1005" y="-502.88" font-family="Helvetica,sans-Serif" font-size="10.00">dev.filechampion.filechampion4j.</text>
<text text-anchor="middle" x="1095.5" y="-491.88" font-family="Helvetica,sans-Serif" font-size="10.00">FileValidator.executeAfterPluginsProcess</text>
</a>
</g>
</g>
<!-- Node3&#45;&gt;Node15 -->
<g id="edge20" class="edge">
<title>Node3&#45;&gt;Node15</title>
<path fill="none" stroke="#63b8ff" d="M1314.08,-315.01C1296.48,-354.31 1257.12,-430.03 1200,-470.88 1192.33,-476.36 1183.67,-480.81 1174.69,-484.41"/>
<polygon fill="#63b8ff" stroke="#63b8ff" points="1317.58,-316.74 1318.36,-306.18 1311.16,-313.94 1317.58,-316.74"/>
</g>
<!-- Node16 -->
<g id="node16" class="node">
<title>Node16</title>
<g id="a_node16"><a xlink:href="classdev_1_1filechampion_1_1filechampion4j_1_1_file_validator.html#a617f3b8be7835bbb96df357a412d1bbf" target="_top" xlink:title=" ">
<polygon fill="white" stroke="#666666" points="749.5,-74.88 581.5,-74.88 581.5,-44.88 749.5,-44.88 749.5,-74.88"/>
<text text-anchor="start" x="589.5" y="-62.88" font-family="Helvetica,sans-Serif" font-size="10.00">dev.filechampion.filechampion4j.</text>
<text text-anchor="middle" x="665.5" y="-51.88" font-family="Helvetica,sans-Serif" font-size="10.00">FileValidator.executeBeforePlugins</text>
</a>
</g>
</g>
<!-- Node3&#45;&gt;Node16 -->
<g id="edge22" class="edge">
<title>Node3&#45;&gt;Node16</title>
<path fill="none" stroke="#63b8ff" d="M1310.83,-265.05C1282.27,-213.6 1217.46,-99.23 1200,-88.88 1126.2,-45.11 880.45,-49.46 749.82,-55.23"/>
<polygon fill="#63b8ff" stroke="#63b8ff" points="1308.13,-266.4 1316.04,-273.45 1314.26,-263.01 1308.13,-266.4"/>
</g>
<!-- Node17 -->
<g id="node17" class="node">
<title>Node17</title>
<g id="a_node17"><a xlink:href="classdev_1_1filechampion_1_1filechampion4j_1_1_file_validator.html#a46f8dcb76a6e9b52838092b4c80b9d26" target="_top" xlink:title=" ">
<polygon fill="white" stroke="#666666" points="746,-433.88 585,-433.88 585,-403.88 746,-403.88 746,-433.88"/>
<text text-anchor="start" x="593" y="-421.88" font-family="Helvetica,sans-Serif" font-size="10.00">dev.filechampion.filechampion4j.</text>
<text text-anchor="middle" x="665.5" y="-410.88" font-family="Helvetica,sans-Serif" font-size="10.00">FileValidator.saveFileToOutputDir</text>
</a>
</g>
</g>
<!-- Node3&#45;&gt;Node17 -->
<g id="edge25" class="edge">
<title>Node3&#45;&gt;Node17</title>
<path fill="none" stroke="#63b8ff" d="M1304.15,-313.18C1281.47,-337.29 1242.39,-373.66 1200,-389.88 1119.43,-420.71 874.31,-422.05 746.28,-420.47"/>
<polygon fill="#63b8ff" stroke="#63b8ff" points="1306.28,-315.94 1310.46,-306.21 1301.12,-311.21 1306.28,-315.94"/>
</g>
<!-- Node5 -->
<g id="node5" class="node">
<title>Node5</title>
<g id="a_node5"><a xlink:href="classdev_1_1filechampion_1_1filechampion4j_1_1_validations_helper.html#acf58dbbd1e656f17a402e2856c6c9279" target="_top" xlink:title=" ">
<polygon fill="white" stroke="#666666" points="952,-280.88 797,-280.88 797,-250.88 952,-250.88 952,-280.88"/>
<text text-anchor="start" x="805" y="-268.88" font-family="Helvetica,sans-Serif" font-size="10.00">dev.filechampion.filechampion4j.</text>
<text text-anchor="middle" x="874.5" y="-257.88" font-family="Helvetica,sans-Serif" font-size="10.00">ValidationsHelper.doValidations</text>
</a>
</g>
</g>
<!-- Node4&#45;&gt;Node5 -->
<g id="edge4" class="edge">
<title>Node4&#45;&gt;Node5</title>
<path fill="none" stroke="#63b8ff" d="M1010.44,-319.63C1003.83,-317.82 997.28,-315.9 991,-313.88 962.47,-304.71 931.14,-291.48 908.31,-281.23"/>
<polygon fill="#63b8ff" stroke="#63b8ff" points="1009.3,-323.22 1019.86,-322.39 1011.09,-316.45 1009.3,-323.22"/>
</g>
<!-- Node5&#45;&gt;Node6 -->
<g id="edge5" class="edge">
<title>Node5&#45;&gt;Node6</title>
<path fill="none" stroke="#63b8ff" d="M833.26,-286.29C793.3,-306.56 732.92,-337.19 696.83,-355.49"/>
<polygon fill="#63b8ff" stroke="#63b8ff" points="834.62,-289.02 841.96,-281.37 831.45,-282.77 834.62,-289.02"/>
</g>
<!-- Node6&#45;&gt;Node7 -->
<g id="edge6" class="edge">
<title>Node6&#45;&gt;Node7</title>
<path fill="none" stroke="#63b8ff" d="M588.28,-388.81C567.82,-393.63 545.88,-398.79 526.05,-403.45"/>
<polygon fill="#63b8ff" stroke="#63b8ff" points="588.9,-392.03 597.83,-386.33 587.29,-385.21 588.9,-392.03"/>
</g>
<!-- Node7&#45;&gt;Node8 -->
<g id="edge7" class="edge">
<title>Node7&#45;&gt;Node8</title>
<path fill="none" stroke="#63b8ff" d="M443.96,-394.57C406.82,-332.48 309.24,-169.33 278.75,-118.34"/>
<polygon fill="#63b8ff" stroke="#63b8ff" points="441.25,-395.85 449.38,-402.64 447.25,-392.26 441.25,-395.85"/>
</g>
<!-- Node9 -->
<g id="node9" class="node">
<title>Node9</title>
<g id="a_node9"><a xlink:href="classdev_1_1filechampion_1_1filechampion4j_1_1_file_validator.html#a492adb6357ac22bea8b79d036aa2a287" target="_top" xlink:title=" ">
<polygon fill="white" stroke="#666666" points="155,-117.88 0,-117.88 0,-87.88 155,-87.88 155,-117.88"/>
<text text-anchor="start" x="8" y="-105.88" font-family="Helvetica,sans-Serif" font-size="10.00">dev.filechampion.filechampion4j.</text>
<text text-anchor="middle" x="77.5" y="-94.88" font-family="Helvetica,sans-Serif" font-size="10.00">FileValidator.validateFile</text>
</a>
</g>
</g>
<!-- Node8&#45;&gt;Node9 -->
<g id="edge8" class="edge">
<title>Node8&#45;&gt;Node9</title>
<path fill="none" stroke="#63b8ff" d="M179.89,-102.88C171.68,-102.88 163.41,-102.88 155.31,-102.88"/>
<polygon fill="#63b8ff" stroke="#63b8ff" points="179.63,-106.38 189.63,-102.88 179.63,-99.38 179.63,-106.38"/>
</g>
<!-- Node10&#45;&gt;Node5 -->
<g id="edge10" class="edge">
<title>Node10&#45;&gt;Node5</title>
<path fill="none" stroke="#63b8ff" d="M1001.09,-279.64C984.81,-277.86 968.04,-276.02 952.28,-274.29"/>
<polygon fill="#63b8ff" stroke="#63b8ff" points="1000.38,-283.19 1010.71,-280.8 1001.15,-276.24 1000.38,-283.19"/>
</g>
<!-- Node11&#45;&gt;Node5 -->
<g id="edge12" class="edge">
<title>Node11&#45;&gt;Node5</title>
<path fill="none" stroke="#63b8ff" d="M981.39,-254.27C971.57,-255.35 961.78,-256.42 952.36,-257.45"/>
<polygon fill="#63b8ff" stroke="#63b8ff" points="981.49,-257.67 991.05,-253.1 980.73,-250.71 981.49,-257.67"/>
</g>
<!-- Node12&#45;&gt;Node5 -->
<g id="edge14" class="edge">
<title>Node12&#45;&gt;Node5</title>
<path fill="none" stroke="#63b8ff" d="M1010.44,-212.12C1003.83,-213.94 997.28,-215.86 991,-217.88 962.47,-227.04 931.14,-240.28 908.31,-250.53"/>
<polygon fill="#63b8ff" stroke="#63b8ff" points="1011.09,-215.31 1019.86,-209.36 1009.3,-208.54 1011.09,-215.31"/>
</g>
<!-- Node13&#45;&gt;Node5 -->
<g id="edge16" class="edge">
<title>Node13&#45;&gt;Node5</title>
<path fill="none" stroke="#63b8ff" d="M1001.88,-165.01C998.15,-166.52 994.51,-168.13 991,-169.88 949.19,-190.63 909.38,-229.29 889.21,-250.68"/>
<polygon fill="#63b8ff" stroke="#63b8ff" points="1002.75,-168.05 1010.91,-161.3 1000.31,-161.49 1002.75,-168.05"/>
</g>
<!-- Node14&#45;&gt;Node7 -->
<g id="edge19" class="edge">
<title>Node14&#45;&gt;Node7</title>
<path fill="none" stroke="#63b8ff" d="M782.85,-459.62C723.04,-457.27 643.08,-452.52 573,-442.88 557.37,-440.73 540.67,-437.62 525.06,-434.35"/>
<polygon fill="#63b8ff" stroke="#63b8ff" points="782.66,-463.15 792.78,-460.03 782.92,-456.15 782.66,-463.15"/>
</g>
<!-- Node15&#45;&gt;Node14 -->
<g id="edge21" class="edge">
<title>Node15&#45;&gt;Node14</title>
<path fill="none" stroke="#63b8ff" d="M994.86,-482.59C981.62,-480.29 968.18,-477.96 955.34,-475.73"/>
<polygon fill="#63b8ff" stroke="#63b8ff" points="993.97,-486.16 1004.42,-484.42 995.17,-479.26 993.97,-486.16"/>
</g>
<!-- Node16&#45;&gt;Node8 -->
<g id="edge23" class="edge">
<title>Node16&#45;&gt;Node8</title>
<path fill="none" stroke="#63b8ff" d="M570.24,-69.04C515.3,-74.51 444.69,-81.76 382,-88.88 370.46,-90.19 358.27,-91.64 346.33,-93.09"/>
<polygon fill="#63b8ff" stroke="#63b8ff" points="570.41,-72.44 580.01,-67.97 569.71,-65.48 570.41,-72.44"/>
</g>
<!-- Node17&#45;&gt;Node7 -->
<g id="edge26" class="edge">
<title>Node17&#45;&gt;Node7</title>
<path fill="none" stroke="#63b8ff" d="M574.02,-418.88C561.73,-418.88 549.21,-418.88 537.19,-418.88"/>
<polygon fill="#63b8ff" stroke="#63b8ff" points="573.75,-422.38 583.75,-418.88 573.75,-415.38 573.75,-422.38"/>
</g>
<!-- Node19 -->
<g id="node19" class="node">
<title>Node19</title>
<g id="a_node19"><a xlink:href="classdev_1_1filechampion_1_1filechampion4j_1_1_extensions.html#ae95e2932f76f0acf941cb9fa093f6306" target="_top" xlink:title=" ">
<polygon fill="white" stroke="#666666" points="952,-36.88 797,-36.88 797,-6.88 952,-6.88 952,-36.88"/>
<text text-anchor="start" x="805" y="-24.88" font-family="Helvetica,sans-Serif" font-size="10.00">dev.filechampion.filechampion4j.</text>
<text text-anchor="middle" x="874.5" y="-13.88" font-family="Helvetica,sans-Serif" font-size="10.00">Extensions.Extensions</text>
</a>
</g>
</g>
<!-- Node18&#45;&gt;Node19 -->
<g id="edge29" class="edge">
<title>Node18&#45;&gt;Node19</title>
<path fill="none" stroke="#63b8ff" d="M993.2,-21.88C979.48,-21.88 965.57,-21.88 952.37,-21.88"/>
<polygon fill="#63b8ff" stroke="#63b8ff" points="993.16,-25.38 1003.16,-21.88 993.16,-18.38 993.16,-25.38"/>
</g>
<!-- Node20&#45;&gt;Node18 -->
<g id="edge31" class="edge">
<title>Node20&#45;&gt;Node18</title>
<path fill="none" stroke="#63b8ff" d="M1284.52,-87.64C1260.43,-75.93 1228.91,-61.47 1200,-50.88 1186.51,-45.93 1171.77,-41.34 1157.75,-37.33"/>
<polygon fill="#63b8ff" stroke="#63b8ff" points="1282.84,-91.2 1293.36,-92.47 1285.92,-84.92 1282.84,-91.2"/>
</g>
<!-- Node21&#45;&gt;Node20 -->
<g id="edge33" class="edge">
<title>Node21&#45;&gt;Node20</title>
<path fill="none" stroke="#63b8ff" d="M1444.77,-82.58C1429.53,-85.84 1413.72,-89.22 1398.82,-92.41"/>
<polygon fill="#63b8ff" stroke="#63b8ff" points="1445.17,-85.86 1454.22,-80.34 1443.71,-79.01 1445.17,-85.86"/>
</g>
<!-- Node22&#45;&gt;Node20 -->
<g id="edge35" class="edge">
<title>Node22&#45;&gt;Node20</title>
<path fill="none" stroke="#63b8ff" d="M1463.74,-179.89C1459.4,-178.29 1455.11,-176.61 1451,-174.88 1415.26,-159.82 1376.21,-137.82 1351.55,-123.19"/>
<polygon fill="#63b8ff" stroke="#63b8ff" points="1462.35,-183.47 1472.94,-183.5 1464.68,-176.87 1462.35,-183.47"/>
</g>
<!-- Node23&#45;&gt;Node20 -->
<g id="edge37" class="edge">
<title>Node23&#45;&gt;Node20</title>
<path fill="none" stroke="#63b8ff" d="M1444.77,-133.18C1429.53,-129.92 1413.72,-126.54 1398.82,-123.35"/>
<polygon fill="#63b8ff" stroke="#63b8ff" points="1443.71,-136.74 1454.22,-135.41 1445.17,-129.9 1443.71,-136.74"/>
</g>
</g>
</svg>
