<?xml version="1.0" encoding="UTF-8" standalone="no"?>
<!DOCTYPE svg PUBLIC "-//W3C//DTD SVG 1.1//EN"
 "http://www.w3.org/Graphics/SVG/1.1/DTD/svg11.dtd">
<!-- Generated by graphviz version 8.0.3 (20230416.2022)
 -->
<!-- Title: dev.filechampion.filechampion4j.FileValidator.isBlank Pages: 1 -->
<svg width="1003pt" height="221pt"
 viewBox="0.00 0.00 1003.00 220.99" xmlns="http://www.w3.org/2000/svg" xmlns:xlink="http://www.w3.org/1999/xlink">
<g id="graph0" class="graph" transform="scale(1 1) rotate(0) translate(4 216.99)">
<title>dev.filechampion.filechampion4j.FileValidator.isBlank</title>
<!-- Node1 -->
<g id="node1" class="node">
<title>Node1</title>
<g id="a_node1"><a xlink:title=" ">
<polygon fill="#999999" stroke="#666666" points="995,-128.93 840,-128.93 840,-98.93 995,-98.93 995,-128.93"/>
<text text-anchor="start" x="848" y="-116.93" font-family="Helvetica,sans-Serif" font-size="10.00">dev.filechampion.filechampion4j.</text>
<text text-anchor="middle" x="917.5" y="-105.93" font-family="Helvetica,sans-Serif" font-size="10.00">FileValidator.isBlank</text>
</a>
</g>
</g>
<!-- Node2 -->
<g id="node2" class="node">
<title>Node2</title>
<g id="a_node2"><a xlink:href="classdev_1_1filechampion_1_1filechampion4j_1_1_file_validator.html#a2ef95473c39639bf495e553f661980ec" target="_top" xlink:title=" ">
<polygon fill="white" stroke="#666666" points="354,-190.93 196,-190.93 196,-160.93 354,-160.93 354,-190.93"/>
<text text-anchor="start" x="204" y="-178.93" font-family="Helvetica,sans-Serif" font-size="10.00">dev.filechampion.filechampion4j.</text>
<text text-anchor="middle" x="275" y="-167.93" font-family="Helvetica,sans-Serif" font-size="10.00">FileValidator.checkMethodInputs</text>
</a>
</g>
</g>
<!-- Node1&#45;&gt;Node2 -->
<g id="edge1" class="edge">
<title>Node1&#45;&gt;Node2</title>
<path fill="none" stroke="#63b8ff" d="M891.15,-136.23C869.63,-153.57 837.06,-176.26 804,-185.93 648.69,-231.38 456.56,-209.4 352.2,-191.37"/>
<polygon fill="#63b8ff" stroke="#63b8ff" points="892.91,-138.49 898.38,-129.41 888.45,-133.09 892.91,-138.49"/>
</g>
<!-- Node4 -->
<g id="node4" class="node">
<title>Node4</title>
<g id="a_node4"><a xlink:href="classdev_1_1filechampion_1_1filechampion4j_1_1_file_validator.html#a43efc49c658a962ad7a5e6ee364cbac2" target="_top" xlink:title=" ">
<polygon fill="white" stroke="#666666" points="789,-176.93 634,-176.93 634,-146.93 789,-146.93 789,-176.93"/>
<text text-anchor="start" x="642" y="-164.93" font-family="Helvetica,sans-Serif" font-size="10.00">dev.filechampion.filechampion4j.</text>
<text text-anchor="middle" x="711.5" y="-153.93" font-family="Helvetica,sans-Serif" font-size="10.00">FileValidator.checkMimeType</text>
</a>
</g>
</g>
<!-- Node1&#45;&gt;Node4 -->
<g id="edge3" class="edge">
<title>Node1&#45;&gt;Node4</title>
<path fill="none" stroke="#63b8ff" d="M840.28,-131.87C819.82,-136.68 797.88,-141.84 778.05,-146.51"/>
<polygon fill="#63b8ff" stroke="#63b8ff" points="840.9,-135.08 849.83,-129.38 839.29,-128.27 840.9,-135.08"/>
</g>
<!-- Node6 -->
<g id="node6" class="node">
<title>Node6</title>
<g id="a_node6"><a xlink:href="classdev_1_1filechampion_1_1filechampion4j_1_1_file_validator.html#a8f4cb0774223f82e2cf72558b6edd114" target="_top" xlink:title=" ">
<polygon fill="white" stroke="#666666" points="804,-128.93 619,-128.93 619,-98.93 804,-98.93 804,-128.93"/>
<text text-anchor="start" x="627" y="-116.93" font-family="Helvetica,sans-Serif" font-size="10.00">dev.filechampion.filechampion4j.</text>
<text text-anchor="middle" x="711.5" y="-105.93" font-family="Helvetica,sans-Serif" font-size="10.00">FileValidator.containsFooterSignatures</text>
</a>
</g>
</g>
<!-- Node1&#45;&gt;Node6 -->
<g id="edge6" class="edge">
<title>Node1&#45;&gt;Node6</title>
<path fill="none" stroke="#63b8ff" d="M828.75,-113.93C820.68,-113.93 812.48,-113.93 804.37,-113.93"/>
<polygon fill="#63b8ff" stroke="#63b8ff" points="828.67,-117.43 838.67,-113.93 828.67,-110.43 828.67,-117.43"/>
</g>
<!-- Node7 -->
<g id="node7" class="node">
<title>Node7</title>
<g id="a_node7"><a xlink:href="classdev_1_1filechampion_1_1filechampion4j_1_1_file_validator.html#a9cb61c4724f0d3542eedec7d0f6b2943" target="_top" xlink:title=" ">
<polygon fill="white" stroke="#666666" points="583,-92.93 395,-92.93 395,-62.93 583,-62.93 583,-92.93"/>
<text text-anchor="start" x="403" y="-80.93" font-family="Helvetica,sans-Serif" font-size="10.00">dev.filechampion.filechampion4j.</text>
<text text-anchor="middle" x="489" y="-69.93" font-family="Helvetica,sans-Serif" font-size="10.00">FileValidator.containsHeaderSignatures</text>
</a>
</g>
</g>
<!-- Node1&#45;&gt;Node7 -->
<g id="edge8" class="edge">
<title>Node1&#45;&gt;Node7</title>
<path fill="none" stroke="#63b8ff" d="M842.78,-96.32C829.92,-93.78 816.62,-91.51 804,-89.93 730.24,-80.73 646.05,-77.92 583.43,-77.31"/>
<polygon fill="#63b8ff" stroke="#63b8ff" points="841.96,-99.92 852.46,-98.49 843.36,-93.06 841.96,-99.92"/>
</g>
<!-- Node8 -->
<g id="node8" class="node">
<title>Node8</title>
<g id="a_node8"><a xlink:href="classdev_1_1filechampion_1_1filechampion4j_1_1_file_validator.html#a00a7f2979f0321f1823ce815ecd20945" target="_top" xlink:title=" ">
<polygon fill="white" stroke="#666666" points="789,-42.93 634,-42.93 634,-12.93 789,-12.93 789,-42.93"/>
<text text-anchor="start" x="642" y="-30.93" font-family="Helvetica,sans-Serif" font-size="10.00">dev.filechampion.filechampion4j.</text>
<text text-anchor="middle" x="711.5" y="-19.93" font-family="Helvetica,sans-Serif" font-size="10.00">FileValidator.executePlugin</text>
</a>
</g>
</g>
<!-- Node1&#45;&gt;Node8 -->
<g id="edge10" class="edge">
<title>Node1&#45;&gt;Node8</title>
<path fill="none" stroke="#63b8ff" d="M879.88,-93.48C858.22,-81.86 830.01,-67.56 804,-56.93 791.97,-52.02 778.77,-47.4 766.24,-43.37"/>
<polygon fill="#63b8ff" stroke="#63b8ff" points="877.88,-96.92 888.34,-98.6 881.22,-90.76 877.88,-96.92"/>
</g>
<!-- Node3 -->
<g id="node3" class="node">
<title>Node3</title>
<g id="a_node3"><a xlink:href="classdev_1_1filechampion_1_1filechampion4j_1_1_file_validator.html#a0c42ecd30b213d35bf114d84e7b40f9f" target="_top" xlink:title=" ">
<polygon fill="white" stroke="#666666" points="155,-113.93 0,-113.93 0,-83.93 155,-83.93 155,-113.93"/>
<text text-anchor="start" x="8" y="-101.93" font-family="Helvetica,sans-Serif" font-size="10.00">dev.filechampion.filechampion4j.</text>
<text text-anchor="middle" x="77.5" y="-90.93" font-family="Helvetica,sans-Serif" font-size="10.00">FileValidator.validateFile</text>
</a>
</g>
</g>
<!-- Node2&#45;&gt;Node3 -->
<g id="edge2" class="edge">
<title>Node2&#45;&gt;Node3</title>
<path fill="none" stroke="#63b8ff" d="M224.94,-156.61C191.72,-143.52 148.41,-126.47 117.52,-114.3"/>
<polygon fill="#63b8ff" stroke="#63b8ff" points="223.32,-160.13 233.91,-160.54 225.89,-153.61 223.32,-160.13"/>
</g>
<!-- Node5 -->
<g id="node5" class="node">
<title>Node5</title>
<g id="a_node5"><a xlink:href="classdev_1_1filechampion_1_1filechampion4j_1_1_file_validator.html#aaeb2a194d8491d3f240893cf076098e0" target="_top" xlink:title=" ">
<polygon fill="white" stroke="#666666" points="352.5,-113.93 197.5,-113.93 197.5,-83.93 352.5,-83.93 352.5,-113.93"/>
<text text-anchor="start" x="205.5" y="-101.93" font-family="Helvetica,sans-Serif" font-size="10.00">dev.filechampion.filechampion4j.</text>
<text text-anchor="middle" x="275" y="-90.93" font-family="Helvetica,sans-Serif" font-size="10.00">FileValidator.doValidations</text>
</a>
</g>
</g>
<!-- Node4&#45;&gt;Node5 -->
<g id="edge4" class="edge">
<title>Node4&#45;&gt;Node5</title>
<path fill="none" stroke="#63b8ff" d="M622.79,-151.27C559.41,-143.31 471.79,-131.81 395,-119.93 381.32,-117.82 366.78,-115.39 352.74,-112.97"/>
<polygon fill="#63b8ff" stroke="#63b8ff" points="622.19,-154.84 632.54,-152.61 623.06,-147.9 622.19,-154.84"/>
</g>
<!-- Node5&#45;&gt;Node3 -->
<g id="edge5" class="edge">
<title>Node5&#45;&gt;Node3</title>
<path fill="none" stroke="#63b8ff" d="M186.02,-98.93C175.81,-98.93 165.46,-98.93 155.42,-98.93"/>
<polygon fill="#63b8ff" stroke="#63b8ff" points="186.01,-102.43 196.01,-98.93 186.01,-95.43 186.01,-102.43"/>
</g>
<!-- Node6&#45;&gt;Node5 -->
<g id="edge7" class="edge">
<title>Node6&#45;&gt;Node5</title>
<path fill="none" stroke="#63b8ff" d="M607.78,-110.39C529.64,-107.69 423.81,-104.04 352.88,-101.59"/>
<polygon fill="#63b8ff" stroke="#63b8ff" points="607.5,-113.91 617.62,-110.76 607.75,-106.92 607.5,-113.91"/>
</g>
<!-- Node7&#45;&gt;Node5 -->
<g id="edge9" class="edge">
<title>Node7&#45;&gt;Node5</title>
<path fill="none" stroke="#63b8ff" d="M383.84,-88.25C373.38,-89.29 362.9,-90.32 352.81,-91.32"/>
<polygon fill="#63b8ff" stroke="#63b8ff" points="384.1,-91.64 393.71,-87.17 383.41,-84.68 384.1,-91.64"/>
</g>
<!-- Node9 -->
<g id="node9" class="node">
<title>Node9</title>
<g id="a_node9"><a xlink:href="classdev_1_1filechampion_1_1filechampion4j_1_1_file_validator.html#aa2bf7ccde349fc95be4c912cd42a6c95" target="_top" xlink:title=" ">
<polygon fill="white" stroke="#666666" points="569.5,-44.93 408.5,-44.93 408.5,-14.93 569.5,-14.93 569.5,-44.93"/>
<text text-anchor="start" x="416.5" y="-32.93" font-family="Helvetica,sans-Serif" font-size="10.00">dev.filechampion.filechampion4j.</text>
<text text-anchor="middle" x="489" y="-21.93" font-family="Helvetica,sans-Serif" font-size="10.00">FileValidator.executeAfterPlugins</text>
</a>
</g>
</g>
<!-- Node8&#45;&gt;Node9 -->
<g id="edge11" class="edge">
<title>Node8&#45;&gt;Node9</title>
<path fill="none" stroke="#63b8ff" d="M622.91,-28.73C605.42,-28.89 587.13,-29.05 569.9,-29.21"/>
<polygon fill="#63b8ff" stroke="#63b8ff" points="622.72,-32.22 632.69,-28.63 622.66,-25.22 622.72,-32.22"/>
</g>
<!-- Node10 -->
<g id="node10" class="node">
<title>Node10</title>
<g id="a_node10"><a xlink:href="classdev_1_1filechampion_1_1filechampion4j_1_1_file_validator.html#aa3d78c6d5ccf1abfdb1284969a9d2117" target="_top" xlink:title=" ">
<polygon fill="white" stroke="#666666" points="359,-44.93 191,-44.93 191,-14.93 359,-14.93 359,-44.93"/>
<text text-anchor="start" x="199" y="-32.93" font-family="Helvetica,sans-Serif" font-size="10.00">dev.filechampion.filechampion4j.</text>
<text text-anchor="middle" x="275" y="-21.93" font-family="Helvetica,sans-Serif" font-size="10.00">FileValidator.executeBeforePlugins</text>
</a>
</g>
</g>
<!-- Node8&#45;&gt;Node10 -->
<g id="edge13" class="edge">
<title>Node8&#45;&gt;Node10</title>
<path fill="none" stroke="#63b8ff" d="M622.96,-10.8C609.62,-8.78 595.98,-7.04 583,-5.93 499.75,1.2 478.14,2.37 395,-5.93 377.28,-7.7 358.29,-10.92 340.8,-14.43"/>
<polygon fill="#63b8ff" stroke="#63b8ff" points="622.15,-14.38 632.58,-12.48 623.24,-7.46 622.15,-14.38"/>
</g>
<!-- Node9&#45;&gt;Node5 -->
<g id="edge12" class="edge">
<title>Node9&#45;&gt;Node5</title>
<path fill="none" stroke="#63b8ff" d="M414.04,-48.23C407.57,-50.07 401.15,-51.98 395,-53.93 367.42,-62.68 336.9,-74.26 313.68,-83.48"/>
<polygon fill="#63b8ff" stroke="#63b8ff" points="414.5,-51.46 423.2,-45.41 412.63,-44.72 414.5,-51.46"/>
</g>
<!-- Node10&#45;&gt;Node3 -->
<g id="edge14" class="edge">
<title>Node10&#45;&gt;Node3</title>
<path fill="none" stroke="#63b8ff" d="M219.99,-49C189.2,-59.86 151.12,-73.3 122.23,-83.5"/>
<polygon fill="#63b8ff" stroke="#63b8ff" points="220.86,-52.05 229.13,-45.42 218.53,-45.45 220.86,-52.05"/>
</g>
</g>
</svg>
