<?xml version="1.0" encoding="UTF-8" standalone="no"?>
<!DOCTYPE svg PUBLIC "-//W3C//DTD SVG 1.1//EN"
 "http://www.w3.org/Graphics/SVG/1.1/DTD/svg11.dtd">
<!-- Generated by graphviz version 8.0.3 (20230416.2022)
 -->
<!-- Title: dev.filechampion.filechampion4j.PluginsHelper.StepConfig.getName Pages: 1 -->
<svg width="368pt" height="86pt"
 viewBox="0.00 0.00 368.00 86.00" xmlns="http://www.w3.org/2000/svg" xmlns:xlink="http://www.w3.org/1999/xlink">
<g id="graph0" class="graph" transform="scale(1 1) rotate(0) translate(4 82)">
<title>dev.filechampion.filechampion4j.PluginsHelper.StepConfig.getName</title>
<!-- Node1 -->
<g id="node1" class="node">
<title>Node1</title>
<g id="a_node1"><a xlink:title=" ">
<polygon fill="#999999" stroke="#666666" points="360,-54 191,-54 191,-24 360,-24 360,-54"/>
<text text-anchor="start" x="199" y="-42" font-family="Helvetica,sans-Serif" font-size="10.00">dev.filechampion.filechampion4j.</text>
<text text-anchor="middle" x="275.5" y="-31" font-family="Helvetica,sans-Serif" font-size="10.00">PluginsHelper.StepConfig.getName</text>
</a>
</g>
</g>
<!-- Node2 -->
<g id="node2" class="node">
<title>Node2</title>
<g id="a_node2"><a xlink:href="classdev_1_1filechampion_1_1filechampion4j_1_1_cli_plugin_helper.html#ae5a576210723f85200cb56142bf90c53" target="_top" xlink:title=" ">
<polygon fill="white" stroke="#666666" points="155,-78 0,-78 0,-48 155,-48 155,-78"/>
<text text-anchor="start" x="8" y="-66" font-family="Helvetica,sans-Serif" font-size="10.00">dev.filechampion.filechampion4j.</text>
<text text-anchor="middle" x="77.5" y="-55" font-family="Helvetica,sans-Serif" font-size="10.00">CliPluginHelper.CliPluginHelper</text>
</a>
</g>
</g>
<!-- Node1&#45;&gt;Node2 -->
<g id="edge1" class="edge">
<title>Node1&#45;&gt;Node2</title>
<path fill="none" stroke="#63b8ff" d="M179.83,-50.59C171.67,-51.59 163.48,-52.59 155.48,-53.57"/>
<polygon fill="#63b8ff" stroke="#63b8ff" points="180.02,-53.97 189.53,-49.28 179.17,-47.02 180.02,-53.97"/>
</g>
<!-- Node3 -->
<g id="node3" class="node">
<title>Node3</title>
<g id="a_node3"><a xlink:href="classdev_1_1filechampion_1_1filechampion4j_1_1_cli_plugin_helper.html#a96ee24d752b060f4fbad4b2e89a23fc8" target="_top" xlink:title=" ">
<polygon fill="white" stroke="#666666" points="155,-30 0,-30 0,0 155,0 155,-30"/>
<text text-anchor="start" x="8" y="-18" font-family="Helvetica,sans-Serif" font-size="10.00">dev.filechampion.filechampion4j.</text>
<text text-anchor="middle" x="77.5" y="-7" font-family="Helvetica,sans-Serif" font-size="10.00">CliPluginHelper.execute</text>
</a>
</g>
</g>
<!-- Node1&#45;&gt;Node3 -->
<g id="edge2" class="edge">
<title>Node1&#45;&gt;Node3</title>
<path fill="none" stroke="#63b8ff" d="M179.83,-27.41C171.67,-26.41 163.48,-25.41 155.48,-24.43"/>
<polygon fill="#63b8ff" stroke="#63b8ff" points="179.17,-30.98 189.53,-28.72 180.02,-24.03 179.17,-30.98"/>
</g>
</g>
</svg>
