<?xml version="1.0" encoding="UTF-8" standalone="no"?>
<!DOCTYPE svg PUBLIC "-//W3C//DTD SVG 1.1//EN"
 "http://www.w3.org/Graphics/SVG/1.1/DTD/svg11.dtd">
<!-- Generated by graphviz version 8.0.3 (20230416.2022)
 -->
<!-- Title: dev.filechampion.filechampion4j.SH256Calculate.ChecksumTask Pages: 1 -->
<svg width="176pt" height="226pt"
 viewBox="0.00 0.00 175.50 226.00" xmlns="http://www.w3.org/2000/svg" xmlns:xlink="http://www.w3.org/1999/xlink">
<g id="graph0" class="graph" transform="scale(1 1) rotate(0) translate(4 222)">
<title>dev.filechampion.filechampion4j.SH256Calculate.ChecksumTask</title>
<!-- Node1 -->
<g id="node1" class="node">
<title>Node1</title>
<g id="a_node1"><a xlink:title=" ">
<polygon fill="#999999" stroke="#666666" points="0,-0.5 0,-112.5 161,-112.5 161,-0.5 0,-0.5"/>
<text text-anchor="start" x="8" y="-100.5" font-family="Helvetica,sans-Serif" font-size="10.00">dev.filechampion.filechampion4j.</text>
<text text-anchor="middle" x="80.5" y="-89.5" font-family="Helvetica,sans-Serif" font-size="10.00">SH256Calculate.ChecksumTask</text>
<polyline fill="none" stroke="#666666" points="0,-82.5 161,-82.5"/>
<text text-anchor="start" x="8" y="-70.5" font-family="Helvetica,sans-Serif" font-size="10.00">&#45; byte[] buffer</text>
<text text-anchor="start" x="8" y="-59.5" font-family="Helvetica,sans-Serif" font-size="10.00">&#45; int bytesRead</text>
<polyline fill="none" stroke="#666666" points="0,-52.5 161,-52.5"/>
<text text-anchor="start" x="8" y="-40.5" font-family="Helvetica,sans-Serif" font-size="10.00">+ void run()</text>
<text text-anchor="start" x="8" y="-29.5" font-family="Helvetica,sans-Serif" font-size="10.00">&#45; ChecksumTask(MessageDigest</text>
<text text-anchor="start" x="8" y="-18.5" font-family="Helvetica,sans-Serif" font-size="10.00"> md, byte[] buffer, int</text>
<text text-anchor="start" x="8" y="-7.5" font-family="Helvetica,sans-Serif" font-size="10.00"> bytesRead)</text>
</a>
</g>
</g>
<!-- Node2 -->
<g id="node2" class="node">
<title>Node2</title>
<g id="a_node2"><a xlink:title=" ">
<polygon fill="white" stroke="#666666" points="8,-160.5 8,-217.5 65,-217.5 65,-160.5 8,-160.5"/>
<text text-anchor="middle" x="36.5" y="-205.5" font-family="Helvetica,sans-Serif" font-size="10.00">Runnable</text>
<polyline fill="none" stroke="#666666" points="8,-198.5 65,-198.5"/>
<text text-anchor="middle" x="36.5" y="-186.5" font-family="Helvetica,sans-Serif" font-size="10.00"> </text>
<polyline fill="none" stroke="#666666" points="8,-179.5 65,-179.5"/>
<text text-anchor="middle" x="36.5" y="-167.5" font-family="Helvetica,sans-Serif" font-size="10.00"> </text>
</a>
</g>
</g>
<!-- Node2&#45;&gt;Node1 -->
<g id="edge1" class="edge">
<title>Node2&#45;&gt;Node1</title>
<path fill="none" stroke="#63b8ff" d="M49.23,-150.23C53.23,-138.38 57.73,-125.04 62.04,-112.26"/>
<polygon fill="none" stroke="#63b8ff" points="45.6,-149.05 45.72,-159.64 52.24,-151.29 45.6,-149.05"/>
</g>
<!-- Node3 -->
<g id="node3" class="node">
<title>Node3</title>
<g id="a_node3"><a xlink:title=" ">
<polygon fill="white" stroke="#666666" points="83.5,-160.5 83.5,-217.5 167.5,-217.5 167.5,-160.5 83.5,-160.5"/>
<text text-anchor="middle" x="125.5" y="-205.5" font-family="Helvetica,sans-Serif" font-size="10.00">MessageDigest</text>
<polyline fill="none" stroke="#666666" points="83.5,-198.5 167.5,-198.5"/>
<text text-anchor="middle" x="125.5" y="-186.5" font-family="Helvetica,sans-Serif" font-size="10.00"> </text>
<polyline fill="none" stroke="#666666" points="83.5,-179.5 167.5,-179.5"/>
<text text-anchor="middle" x="125.5" y="-167.5" font-family="Helvetica,sans-Serif" font-size="10.00"> </text>
</a>
</g>
</g>
<!-- Node3&#45;&gt;Node1 -->
<g id="edge2" class="edge">
<title>Node3&#45;&gt;Node1</title>
<path fill="none" stroke="#404040" d="M116.07,-160.64C112.39,-149.99 108.01,-137.29 103.6,-124.49"/>
<polygon fill="none" stroke="#404040" points="103.59,-124.45 97.85,-120.08 99.68,-113.11 105.41,-117.48 103.59,-124.45"/>
<text text-anchor="middle" x="117.5" y="-134" font-family="Helvetica,sans-Serif" font-size="10.00"> &#45;md</text>
</g>
</g>
</svg>
