<?xml version="1.0" encoding="UTF-8" standalone="no"?>
<!DOCTYPE svg PUBLIC "-//W3C//DTD SVG 1.1//EN"
 "http://www.w3.org/Graphics/SVG/1.1/DTD/svg11.dtd">
<!-- Generated by graphviz version 8.0.3 (20230416.2022)
 -->
<!-- Title: dev.filechampion.filechampion4j.ValidationsHelper.doValidations Pages: 1 -->
<svg width="1035pt" height="723pt"
 viewBox="0.00 0.00 1035.00 723.27" xmlns="http://www.w3.org/2000/svg" xmlns:xlink="http://www.w3.org/1999/xlink">
<g id="graph0" class="graph" transform="scale(1 1) rotate(0) translate(4 719.27)">
<title>dev.filechampion.filechampion4j.ValidationsHelper.doValidations</title>
<!-- Node1 -->
<g id="node1" class="node">
<title>Node1</title>
<g id="a_node1"><a xlink:title=" ">
<polygon fill="#999999" stroke="#666666" points="155,-441.83 0,-441.83 0,-411.83 155,-411.83 155,-441.83"/>
<text text-anchor="start" x="8" y="-429.83" font-family="Helvetica,sans-Serif" font-size="10.00">dev.filechampion.filechampion4j.</text>
<text text-anchor="middle" x="77.5" y="-418.83" font-family="Helvetica,sans-Serif" font-size="10.00">ValidationsHelper.doValidations</text>
</a>
</g>
</g>
<!-- Node2 -->
<g id="node2" class="node">
<title>Node2</title>
<g id="a_node2"><a xlink:href="classdev_1_1filechampion_1_1filechampion4j_1_1_validations_helper.html#a4b5f515c54272fa1c4f177ef05c4fffe" target="_top" xlink:title=" ">
<polygon fill="white" stroke="#666666" points="374,-484.83 217,-484.83 217,-454.83 374,-454.83 374,-484.83"/>
<text text-anchor="start" x="225" y="-472.83" font-family="Helvetica,sans-Serif" font-size="10.00">dev.filechampion.filechampion4j.</text>
<text text-anchor="middle" x="295.5" y="-461.83" font-family="Helvetica,sans-Serif" font-size="10.00">ValidationsHelper.checkFileSize</text>
</a>
</g>
</g>
<!-- Node1&#45;&gt;Node2 -->
<g id="edge1" class="edge">
<title>Node1&#45;&gt;Node2</title>
<path fill="none" stroke="#63b8ff" d="M155.26,-442.12C171.83,-445.41 189.47,-448.93 206.44,-452.3"/>
<polygon fill="#63b8ff" stroke="#63b8ff" points="205.4,-455.87 215.89,-454.38 206.77,-449 205.4,-455.87"/>
</g>
<!-- Node7 -->
<g id="node7" class="node">
<title>Node7</title>
<g id="a_node7"><a xlink:href="classdev_1_1filechampion_1_1filechampion4j_1_1_validations_helper.html#a67f90f5fb54527c7f2becb8fc6eaafaa" target="_top" xlink:title=" ">
<polygon fill="white" stroke="#666666" points="618,-484.83 463,-484.83 463,-454.83 618,-454.83 618,-484.83"/>
<text text-anchor="start" x="471" y="-472.83" font-family="Helvetica,sans-Serif" font-size="10.00">dev.filechampion.filechampion4j.</text>
<text text-anchor="middle" x="540.5" y="-461.83" font-family="Helvetica,sans-Serif" font-size="10.00">ValidationsHelper.logFine</text>
</a>
</g>
</g>
<!-- Node1&#45;&gt;Node7 -->
<g id="edge37" class="edge">
<title>Node1&#45;&gt;Node7</title>
<path fill="none" stroke="#63b8ff" d="M155.36,-428.97C220.62,-431.36 316.68,-436.24 400,-445.83 416.88,-447.78 434.82,-450.42 452.02,-453.25"/>
<polygon fill="#63b8ff" stroke="#63b8ff" points="451.17,-456.82 461.61,-455.03 452.33,-449.92 451.17,-456.82"/>
</g>
<!-- Node8 -->
<g id="node8" class="node">
<title>Node8</title>
<g id="a_node8"><a xlink:href="classdev_1_1filechampion_1_1filechampion4j_1_1_validations_helper.html#a19e635fd3852e01ab67af0db7700a462" target="_top" xlink:title=" ">
<polygon fill="white" stroke="#666666" points="836,-567.83 681,-567.83 681,-537.83 836,-537.83 836,-567.83"/>
<text text-anchor="start" x="689" y="-555.83" font-family="Helvetica,sans-Serif" font-size="10.00">dev.filechampion.filechampion4j.</text>
<text text-anchor="middle" x="758.5" y="-544.83" font-family="Helvetica,sans-Serif" font-size="10.00">ValidationsHelper.logWarn</text>
</a>
</g>
</g>
<!-- Node1&#45;&gt;Node8 -->
<g id="edge38" class="edge">
<title>Node1&#45;&gt;Node8</title>
<path fill="none" stroke="#63b8ff" d="M86.81,-442.17C103.28,-471.36 142.69,-535.51 191,-574.83 284.59,-651.01 318.31,-665.18 436,-691.83 526.59,-712.36 561.17,-731.84 645,-691.83 694.52,-668.21 729.28,-610.96 746.06,-577.77"/>
<polygon fill="#63b8ff" stroke="#63b8ff" points="749.44,-579.83 750.69,-569.31 743.15,-576.76 749.44,-579.83"/>
</g>
<!-- Node9 -->
<g id="node9" class="node">
<title>Node9</title>
<g id="a_node9"><a xlink:href="classdev_1_1filechampion_1_1filechampion4j_1_1_validations_helper.html#a43b491bbdf4b6104d060386d4371753c" target="_top" xlink:title=" ">
<polygon fill="white" stroke="#666666" points="379,-565.83 212,-565.83 212,-535.83 379,-535.83 379,-565.83"/>
<text text-anchor="start" x="220" y="-553.83" font-family="Helvetica,sans-Serif" font-size="10.00">dev.filechampion.filechampion4j.</text>
<text text-anchor="middle" x="295.5" y="-542.83" font-family="Helvetica,sans-Serif" font-size="10.00">ValidationsHelper.checkMimeType</text>
</a>
</g>
</g>
<!-- Node1&#45;&gt;Node9 -->
<g id="edge8" class="edge">
<title>Node1&#45;&gt;Node9</title>
<path fill="none" stroke="#63b8ff" d="M103.82,-442.25C126.53,-455.99 160.82,-476.54 191,-493.83 212.47,-506.13 236.69,-519.5 256.29,-530.19"/>
<polygon fill="#63b8ff" stroke="#63b8ff" points="254.34,-533.66 264.8,-535.37 257.69,-527.51 254.34,-533.66"/>
</g>
<!-- Node13 -->
<g id="node13" class="node">
<title>Node13</title>
<g id="a_node13"><a xlink:href="classdev_1_1filechampion_1_1filechampion4j_1_1_validations_helper.html#a9c7f6f3159fef96d606ca0a6712b2165" target="_top" xlink:title=" ">
<polygon fill="white" stroke="#666666" points="398.5,-167.83 192.5,-167.83 192.5,-137.83 398.5,-137.83 398.5,-167.83"/>
<text text-anchor="start" x="200.5" y="-155.83" font-family="Helvetica,sans-Serif" font-size="10.00">dev.filechampion.filechampion4j.</text>
<text text-anchor="middle" x="295.5" y="-144.83" font-family="Helvetica,sans-Serif" font-size="10.00">ValidationsHelper.containsFooterSignatures</text>
</a>
</g>
</g>
<!-- Node1&#45;&gt;Node13 -->
<g id="edge17" class="edge">
<title>Node1&#45;&gt;Node13</title>
<path fill="none" stroke="#63b8ff" d="M88.44,-411.38C107.35,-382.28 150.26,-317.73 191,-266.83 217.33,-233.94 250.48,-198.33 272.07,-175.82"/>
<polygon fill="#63b8ff" stroke="#63b8ff" points="274.04,-178.78 278.46,-169.15 269,-173.92 274.04,-178.78"/>
</g>
<!-- Node15 -->
<g id="node15" class="node">
<title>Node15</title>
<g id="a_node15"><a xlink:href="classdev_1_1filechampion_1_1filechampion4j_1_1_validations_helper.html#aab316adeef5b3b9c80ef17bd05826582" target="_top" xlink:title=" ">
<polygon fill="white" stroke="#666666" points="400,-305.83 191,-305.83 191,-275.83 400,-275.83 400,-305.83"/>
<text text-anchor="start" x="199" y="-293.83" font-family="Helvetica,sans-Serif" font-size="10.00">dev.filechampion.filechampion4j.</text>
<text text-anchor="middle" x="295.5" y="-282.83" font-family="Helvetica,sans-Serif" font-size="10.00">ValidationsHelper.containsHeaderSignatures</text>
</a>
</g>
</g>
<!-- Node1&#45;&gt;Node15 -->
<g id="edge24" class="edge">
<title>Node1&#45;&gt;Node15</title>
<path fill="none" stroke="#63b8ff" d="M102.86,-411.5C141.51,-387.16 216.98,-339.65 260.79,-312.06"/>
<polygon fill="#63b8ff" stroke="#63b8ff" points="262.3,-314.61 268.9,-306.32 258.57,-308.69 262.3,-314.61"/>
</g>
<!-- Node17 -->
<g id="node17" class="node">
<title>Node17</title>
<g id="a_node17"><a xlink:href="classdev_1_1filechampion_1_1filechampion4j_1_1_validations_helper.html#a480b1c09382ee05e547a68c7eed8e2ed" target="_top" xlink:title=" ">
<polygon fill="white" stroke="#666666" points="387.5,-398.83 203.5,-398.83 203.5,-368.83 387.5,-368.83 387.5,-398.83"/>
<text text-anchor="start" x="211.5" y="-386.83" font-family="Helvetica,sans-Serif" font-size="10.00">dev.filechampion.filechampion4j.</text>
<text text-anchor="middle" x="295.5" y="-375.83" font-family="Helvetica,sans-Serif" font-size="10.00">ValidationsHelper.containsMagicBytes</text>
</a>
</g>
</g>
<!-- Node1&#45;&gt;Node17 -->
<g id="edge31" class="edge">
<title>Node1&#45;&gt;Node17</title>
<path fill="none" stroke="#63b8ff" d="M155.26,-411.55C171.83,-408.25 189.47,-404.74 206.44,-401.37"/>
<polygon fill="#63b8ff" stroke="#63b8ff" points="206.77,-404.67 215.89,-399.28 205.4,-397.8 206.77,-404.67"/>
</g>
<!-- Node3 -->
<g id="node3" class="node">
<title>Node3</title>
<g id="a_node3"><a xlink:href="classdev_1_1filechampion_1_1filechampion4j_1_1_extensions.html#ac3de7a6e3faa8e7f76d0d3705e02a42d" target="_top" xlink:title=" ">
<polygon fill="white" stroke="#666666" points="618,-398.83 463,-398.83 463,-368.83 618,-368.83 618,-398.83"/>
<text text-anchor="start" x="471" y="-386.83" font-family="Helvetica,sans-Serif" font-size="10.00">dev.filechampion.filechampion4j.</text>
<text text-anchor="middle" x="540.5" y="-375.83" font-family="Helvetica,sans-Serif" font-size="10.00">Extensions.getValidationValue</text>
</a>
</g>
</g>
<!-- Node2&#45;&gt;Node3 -->
<g id="edge2" class="edge">
<title>Node2&#45;&gt;Node3</title>
<path fill="none" stroke="#63b8ff" d="M340.22,-454.36C380.96,-439.94 441.81,-418.41 485.55,-402.93"/>
<polygon fill="#63b8ff" stroke="#63b8ff" points="486.46,-405.97 494.72,-399.33 484.12,-399.37 486.46,-405.97"/>
</g>
<!-- Node2&#45;&gt;Node7 -->
<g id="edge6" class="edge">
<title>Node2&#45;&gt;Node7</title>
<path fill="none" stroke="#63b8ff" d="M374.39,-469.83C399.17,-469.83 426.74,-469.83 452.14,-469.83"/>
<polygon fill="#63b8ff" stroke="#63b8ff" points="451.88,-473.33 461.88,-469.83 451.88,-466.33 451.88,-473.33"/>
</g>
<!-- Node2&#45;&gt;Node8 -->
<g id="edge7" class="edge">
<title>Node2&#45;&gt;Node8</title>
<path fill="none" stroke="#63b8ff" d="M374.44,-483.87C456.31,-498.61 584.78,-521.74 670.05,-537.09"/>
<polygon fill="#63b8ff" stroke="#63b8ff" points="669.28,-540.69 679.74,-539.02 670.52,-533.8 669.28,-540.69"/>
</g>
<!-- Node4 -->
<g id="node4" class="node">
<title>Node4</title>
<g id="a_node4"><a xlink:href="classdev_1_1filechampion_1_1filechampion4j_1_1_extensions.html#a0b4d6f0065a4fc61701be6ab4103c441" target="_top" xlink:title=" ">
<polygon fill="white" stroke="#666666" points="836,-374.83 681,-374.83 681,-344.83 836,-344.83 836,-374.83"/>
<text text-anchor="start" x="689" y="-362.83" font-family="Helvetica,sans-Serif" font-size="10.00">dev.filechampion.filechampion4j.</text>
<text text-anchor="middle" x="758.5" y="-351.83" font-family="Helvetica,sans-Serif" font-size="10.00">Extensions.checkInputs</text>
</a>
</g>
</g>
<!-- Node3&#45;&gt;Node4 -->
<g id="edge3" class="edge">
<title>Node3&#45;&gt;Node4</title>
<path fill="none" stroke="#63b8ff" d="M618.26,-375.31C635.03,-373.44 652.9,-371.46 670.05,-369.55"/>
<polygon fill="#63b8ff" stroke="#63b8ff" points="670.07,-372.96 679.62,-368.38 669.3,-366 670.07,-372.96"/>
</g>
<!-- Node6 -->
<g id="node6" class="node">
<title>Node6</title>
<g id="a_node6"><a xlink:href="classdev_1_1filechampion_1_1filechampion4j_1_1_extensions.html#a0aada571ca5ffb1ca298874d2c0fac50" target="_top" xlink:title=" ">
<polygon fill="white" stroke="#666666" points="836,-422.83 681,-422.83 681,-392.83 836,-392.83 836,-422.83"/>
<text text-anchor="start" x="689" y="-410.83" font-family="Helvetica,sans-Serif" font-size="10.00">dev.filechampion.filechampion4j.</text>
<text text-anchor="middle" x="758.5" y="-399.83" font-family="Helvetica,sans-Serif" font-size="10.00">Extensions.logFine</text>
</a>
</g>
</g>
<!-- Node3&#45;&gt;Node6 -->
<g id="edge5" class="edge">
<title>Node3&#45;&gt;Node6</title>
<path fill="none" stroke="#63b8ff" d="M618.26,-392.36C635.03,-394.23 652.9,-396.21 670.05,-398.12"/>
<polygon fill="#63b8ff" stroke="#63b8ff" points="669.3,-401.67 679.62,-399.29 670.07,-394.71 669.3,-401.67"/>
</g>
<!-- Node5 -->
<g id="node5" class="node">
<title>Node5</title>
<g id="a_node5"><a xlink:href="classdev_1_1filechampion_1_1filechampion4j_1_1_extensions.html#adebd31331477fe200ec272ae4569f482" target="_top" xlink:title=" ">
<polygon fill="white" stroke="#666666" points="1027,-374.83 872,-374.83 872,-344.83 1027,-344.83 1027,-374.83"/>
<text text-anchor="start" x="880" y="-362.83" font-family="Helvetica,sans-Serif" font-size="10.00">dev.filechampion.filechampion4j.</text>
<text text-anchor="middle" x="949.5" y="-351.83" font-family="Helvetica,sans-Serif" font-size="10.00">Extensions.logWarn</text>
</a>
</g>
</g>
<!-- Node4&#45;&gt;Node5 -->
<g id="edge4" class="edge">
<title>Node4&#45;&gt;Node5</title>
<path fill="none" stroke="#63b8ff" d="M836.37,-359.83C844.47,-359.83 852.75,-359.83 860.96,-359.83"/>
<polygon fill="#63b8ff" stroke="#63b8ff" points="860.69,-363.33 870.69,-359.83 860.69,-356.33 860.69,-363.33"/>
</g>
<!-- Node9&#45;&gt;Node3 -->
<g id="edge11" class="edge">
<title>Node9&#45;&gt;Node3</title>
<path fill="none" stroke="#63b8ff" d="M332.9,-535.48C353.9,-525.53 380.02,-511.19 400,-493.83 420.13,-476.34 416.19,-463.69 436,-445.83 454.24,-429.4 477.47,-415.02 497.3,-404.25"/>
<polygon fill="#63b8ff" stroke="#63b8ff" points="498.81,-406.88 506.02,-399.12 495.54,-400.7 498.81,-406.88"/>
</g>
<!-- Node9&#45;&gt;Node7 -->
<g id="edge13" class="edge">
<title>Node9&#45;&gt;Node7</title>
<path fill="none" stroke="#63b8ff" d="M342.78,-535.41C382.72,-522.09 440.55,-502.82 483.18,-488.61"/>
<polygon fill="#63b8ff" stroke="#63b8ff" points="484.01,-491.69 492.39,-485.2 481.8,-485.05 484.01,-491.69"/>
</g>
<!-- Node9&#45;&gt;Node8 -->
<g id="edge14" class="edge">
<title>Node9&#45;&gt;Node8</title>
<path fill="none" stroke="#63b8ff" d="M308.69,-566.22C330.74,-592.66 380.17,-645.79 436,-665.83 523.42,-697.22 559.22,-701.48 645,-665.83 687.99,-647.97 723.05,-604.81 742.04,-577.3"/>
<polygon fill="#63b8ff" stroke="#63b8ff" points="745.42,-579.55 748.08,-569.29 739.6,-575.65 745.42,-579.55"/>
</g>
<!-- Node10 -->
<g id="node10" class="node">
<title>Node10</title>
<g id="a_node10"><a xlink:href="classdev_1_1filechampion_1_1filechampion4j_1_1_validations_helper.html#aa4f7e8b626db5b4c4071c77b36693d2b" target="_top" xlink:title=" ">
<polygon fill="white" stroke="#666666" points="619.5,-656.83 461.5,-656.83 461.5,-626.83 619.5,-626.83 619.5,-656.83"/>
<text text-anchor="start" x="469.5" y="-644.83" font-family="Helvetica,sans-Serif" font-size="10.00">dev.filechampion.filechampion4j.</text>
<text text-anchor="middle" x="540.5" y="-633.83" font-family="Helvetica,sans-Serif" font-size="10.00">ValidationsHelper.deleteTempDir</text>
</a>
</g>
</g>
<!-- Node9&#45;&gt;Node10 -->
<g id="edge9" class="edge">
<title>Node9&#45;&gt;Node10</title>
<path fill="none" stroke="#63b8ff" d="M324.05,-566.3C351.64,-581.26 395.7,-603.68 436,-617.83 441.74,-619.85 447.72,-621.75 453.79,-623.52"/>
<polygon fill="#63b8ff" stroke="#63b8ff" points="452.47,-627.06 463.04,-626.38 454.35,-620.32 452.47,-627.06"/>
</g>
<!-- Node11 -->
<g id="node11" class="node">
<title>Node11</title>
<g id="a_node11"><a xlink:href="classdev_1_1filechampion_1_1filechampion4j_1_1_validations_helper.html#a74bd8e5177ce42b308623ab3bd1ba05e" target="_top" xlink:title=" ">
<polygon fill="white" stroke="#666666" points="836,-184.83 681,-184.83 681,-154.83 836,-154.83 836,-184.83"/>
<text text-anchor="start" x="689" y="-172.83" font-family="Helvetica,sans-Serif" font-size="10.00">dev.filechampion.filechampion4j.</text>
<text text-anchor="middle" x="758.5" y="-161.83" font-family="Helvetica,sans-Serif" font-size="10.00">ValidationsHelper.isBlank</text>
</a>
</g>
</g>
<!-- Node9&#45;&gt;Node11 -->
<g id="edge12" class="edge">
<title>Node9&#45;&gt;Node11</title>
<path fill="none" stroke="#63b8ff" d="M379.21,-561.31C457.84,-566.36 574.31,-560.28 645,-493.83 697.48,-444.51 657.8,-404.02 681,-335.83 698.71,-283.79 727.48,-226.16 744.24,-194.34"/>
<polygon fill="#63b8ff" stroke="#63b8ff" points="747.62,-196.43 749.23,-185.96 741.44,-193.14 747.62,-196.43"/>
</g>
<!-- Node12 -->
<g id="node12" class="node">
<title>Node12</title>
<g id="a_node12"><a xlink:href="classdev_1_1filechampion_1_1filechampion4j_1_1_validations_helper.html#adb1b1278d1f522489bb3bdd4e3c5f887" target="_top" xlink:title=" ">
<polygon fill="white" stroke="#666666" points="629,-608.83 452,-608.83 452,-578.83 629,-578.83 629,-608.83"/>
<text text-anchor="start" x="460" y="-596.83" font-family="Helvetica,sans-Serif" font-size="10.00">dev.filechampion.filechampion4j.</text>
<text text-anchor="middle" x="540.5" y="-585.83" font-family="Helvetica,sans-Serif" font-size="10.00">ValidationsHelper.saveFileToTempDir</text>
</a>
</g>
</g>
<!-- Node9&#45;&gt;Node12 -->
<g id="edge15" class="edge">
<title>Node9&#45;&gt;Node12</title>
<path fill="none" stroke="#63b8ff" d="M379.45,-565.51C399.35,-569.03 420.79,-572.83 441.32,-576.46"/>
<polygon fill="#63b8ff" stroke="#63b8ff" points="440.49,-580.05 450.95,-578.34 441.71,-573.15 440.49,-580.05"/>
</g>
<!-- Node10&#45;&gt;Node8 -->
<g id="edge10" class="edge">
<title>Node10&#45;&gt;Node8</title>
<path fill="none" stroke="#63b8ff" d="M619.41,-626.41C628.16,-623.9 636.85,-621.05 645,-617.83 674.06,-606.37 704.61,-588.28 726.52,-574.1"/>
<polygon fill="#63b8ff" stroke="#63b8ff" points="728.22,-576.51 734.65,-568.09 724.38,-570.66 728.22,-576.51"/>
</g>
<!-- Node12&#45;&gt;Node8 -->
<g id="edge16" class="edge">
<title>Node12&#45;&gt;Node8</title>
<path fill="none" stroke="#63b8ff" d="M622.85,-578.39C638.2,-575.48 654.32,-572.42 669.86,-569.47"/>
<polygon fill="#63b8ff" stroke="#63b8ff" points="670.33,-572.75 679.5,-567.45 669.03,-565.88 670.33,-572.75"/>
</g>
<!-- Node13&#45;&gt;Node3 -->
<g id="edge20" class="edge">
<title>Node13&#45;&gt;Node3</title>
<path fill="none" stroke="#63b8ff" d="M311.67,-168.05C332.56,-189.31 370.89,-229.53 400,-266.83 417.74,-289.58 415.19,-300.86 436,-320.83 453.74,-337.86 476.85,-352.47 496.74,-363.32"/>
<polygon fill="#63b8ff" stroke="#63b8ff" points="494.73,-366.75 505.2,-368.34 498.01,-360.56 494.73,-366.75"/>
</g>
<!-- Node13&#45;&gt;Node7 -->
<g id="edge22" class="edge">
<title>Node13&#45;&gt;Node7</title>
<path fill="none" stroke="#63b8ff" d="M315.17,-168.17C338.53,-188.36 378.09,-226.11 400,-266.83 430.64,-323.79 397.35,-355.98 436,-407.83 449.38,-425.78 469.62,-439.55 488.67,-449.5"/>
<polygon fill="#63b8ff" stroke="#63b8ff" points="486.97,-453.06 497.48,-454.36 490.07,-446.78 486.97,-453.06"/>
</g>
<!-- Node13&#45;&gt;Node8 -->
<g id="edge23" class="edge">
<title>Node13&#45;&gt;Node8</title>
<path fill="none" stroke="#63b8ff" d="M343.47,-137.41C417.68,-116.31 562.1,-88.99 645,-163.83 689.6,-204.1 660.47,-375.36 681,-431.83 694.34,-468.54 720.13,-505.77 738.06,-529.06"/>
<polygon fill="#63b8ff" stroke="#63b8ff" points="735.8,-530.86 744.73,-536.56 741.31,-526.53 735.8,-530.86"/>
</g>
<!-- Node13&#45;&gt;Node11 -->
<g id="edge21" class="edge">
<title>Node13&#45;&gt;Node11</title>
<path fill="none" stroke="#63b8ff" d="M307.36,-137.49C328.37,-109.3 377.68,-50.14 436,-27.83 522.76,5.35 561.37,12.6 645,-27.83 695.3,-52.15 729.96,-111.09 746.47,-144.89"/>
<polygon fill="#63b8ff" stroke="#63b8ff" points="743.57,-145.96 751,-153.51 749.9,-142.97 743.57,-145.96"/>
</g>
<!-- Node14 -->
<g id="node14" class="node">
<title>Node14</title>
<g id="a_node14"><a xlink:href="classdev_1_1filechampion_1_1filechampion4j_1_1_validations_helper.html#a6861ee5ffd86e302ecd8fda347815a5f" target="_top" xlink:title=" ">
<polygon fill="white" stroke="#666666" points="643.5,-78.33 437.5,-78.33 437.5,-37.33 643.5,-37.33 643.5,-78.33"/>
<text text-anchor="start" x="445.5" y="-66.33" font-family="Helvetica,sans-Serif" font-size="10.00">dev.filechampion.filechampion4j.</text>
<text text-anchor="start" x="445.5" y="-55.33" font-family="Helvetica,sans-Serif" font-size="10.00">ValidationsHelper.containsFooterSignatures</text>
<text text-anchor="middle" x="540.5" y="-44.33" font-family="Helvetica,sans-Serif" font-size="10.00">Processor</text>
</a>
</g>
</g>
<!-- Node13&#45;&gt;Node14 -->
<g id="edge18" class="edge">
<title>Node13&#45;&gt;Node14</title>
<path fill="none" stroke="#63b8ff" d="M330.3,-137.39C358.36,-124.8 399.44,-106.85 436,-92.83 445.27,-89.28 455.07,-85.72 464.8,-82.3"/>
<polygon fill="#63b8ff" stroke="#63b8ff" points="465.6,-85.38 473.89,-78.79 463.3,-78.77 465.6,-85.38"/>
</g>
<!-- Node14&#45;&gt;Node11 -->
<g id="edge19" class="edge">
<title>Node14&#45;&gt;Node11</title>
<path fill="none" stroke="#63b8ff" d="M612.15,-78.82C623.35,-82.97 634.65,-87.67 645,-92.83 675.89,-108.26 708.11,-131.11 730.11,-147.92"/>
<polygon fill="#63b8ff" stroke="#63b8ff" points="727.55,-151.13 737.6,-154.48 731.83,-145.59 727.55,-151.13"/>
</g>
<!-- Node15&#45;&gt;Node3 -->
<g id="edge27" class="edge">
<title>Node15&#45;&gt;Node3</title>
<path fill="none" stroke="#63b8ff" d="M336.9,-306.3C378.59,-322.25 443.73,-347.18 488.85,-364.45"/>
<polygon fill="#63b8ff" stroke="#63b8ff" points="487.41,-368.03 498,-368.34 489.92,-361.49 487.41,-368.03"/>
</g>
<!-- Node15&#45;&gt;Node7 -->
<g id="edge29" class="edge">
<title>Node15&#45;&gt;Node7</title>
<path fill="none" stroke="#63b8ff" d="M324.72,-306.1C346.65,-318.77 377.1,-338.17 400,-359.83 419.37,-378.16 416.19,-389.98 436,-407.83 454.24,-424.27 477.47,-438.65 497.3,-449.41"/>
<polygon fill="#63b8ff" stroke="#63b8ff" points="495.54,-452.97 506.02,-454.55 498.81,-446.78 495.54,-452.97"/>
</g>
<!-- Node15&#45;&gt;Node8 -->
<g id="edge30" class="edge">
<title>Node15&#45;&gt;Node8</title>
<path fill="none" stroke="#63b8ff" d="M327.68,-275.39C394.21,-244.89 551.61,-186.15 645,-261.83 705,-310.46 651.91,-360.29 681,-431.83 695.71,-468.01 721.19,-505.37 738.67,-528.82"/>
<polygon fill="#63b8ff" stroke="#63b8ff" points="736.33,-530.54 745.16,-536.39 741.91,-526.31 736.33,-530.54"/>
</g>
<!-- Node15&#45;&gt;Node11 -->
<g id="edge28" class="edge">
<title>Node15&#45;&gt;Node11</title>
<path fill="none" stroke="#63b8ff" d="M306.98,-275.69C327.7,-247.25 377.05,-186.65 436,-163.83 515.07,-133.23 613.48,-141.05 680.45,-152.48"/>
<polygon fill="#63b8ff" stroke="#63b8ff" points="679.46,-156.03 689.92,-154.34 680.68,-149.14 679.46,-156.03"/>
</g>
<!-- Node16 -->
<g id="node16" class="node">
<title>Node16</title>
<g id="a_node16"><a xlink:href="classdev_1_1filechampion_1_1filechampion4j_1_1_validations_helper.html#aee8c1624a8bb9b5b96d9ea0bdf385e3a" target="_top" xlink:title=" ">
<polygon fill="white" stroke="#666666" points="645,-214.33 436,-214.33 436,-173.33 645,-173.33 645,-214.33"/>
<text text-anchor="start" x="444" y="-202.33" font-family="Helvetica,sans-Serif" font-size="10.00">dev.filechampion.filechampion4j.</text>
<text text-anchor="start" x="444" y="-191.33" font-family="Helvetica,sans-Serif" font-size="10.00">ValidationsHelper.containsHeaderSignatures</text>
<text text-anchor="middle" x="540.5" y="-180.33" font-family="Helvetica,sans-Serif" font-size="10.00">Processor</text>
</a>
</g>
</g>
<!-- Node15&#45;&gt;Node16 -->
<g id="edge25" class="edge">
<title>Node15&#45;&gt;Node16</title>
<path fill="none" stroke="#63b8ff" d="M328.84,-275.44C356.88,-262.34 398.72,-243.39 436,-228.83 445.08,-225.29 454.69,-221.76 464.25,-218.37"/>
<polygon fill="#63b8ff" stroke="#63b8ff" points="465.28,-221.37 473.57,-214.77 462.98,-214.76 465.28,-221.37"/>
</g>
<!-- Node16&#45;&gt;Node11 -->
<g id="edge26" class="edge">
<title>Node16&#45;&gt;Node11</title>
<path fill="none" stroke="#63b8ff" d="M645.39,-182.29C653.56,-181.38 661.77,-180.47 669.81,-179.58"/>
<polygon fill="#63b8ff" stroke="#63b8ff" points="670.12,-182.95 679.68,-178.37 669.35,-176 670.12,-182.95"/>
</g>
<!-- Node17&#45;&gt;Node3 -->
<g id="edge33" class="edge">
<title>Node17&#45;&gt;Node3</title>
<path fill="none" stroke="#63b8ff" d="M387.68,-383.83C408.66,-383.83 430.94,-383.83 451.78,-383.83"/>
<polygon fill="#63b8ff" stroke="#63b8ff" points="451.53,-387.33 461.53,-383.83 451.53,-380.33 451.53,-387.33"/>
</g>
<!-- Node17&#45;&gt;Node7 -->
<g id="edge35" class="edge">
<title>Node17&#45;&gt;Node7</title>
<path fill="none" stroke="#63b8ff" d="M366.11,-399.32C377.72,-403.03 389.42,-407.5 400,-412.83 418.1,-421.96 417.9,-431.71 436,-440.83 443.44,-444.59 451.43,-447.91 459.56,-450.85"/>
<polygon fill="#63b8ff" stroke="#63b8ff" points="458.3,-454.45 468.89,-454.35 460.55,-447.82 458.3,-454.45"/>
</g>
<!-- Node17&#45;&gt;Node8 -->
<g id="edge36" class="edge">
<title>Node17&#45;&gt;Node8</title>
<path fill="none" stroke="#63b8ff" d="M385.28,-399.31C487.56,-417.19 642.07,-444.35 645,-445.83 684.42,-465.77 719.47,-504.03 739.59,-528.98"/>
<polygon fill="#63b8ff" stroke="#63b8ff" points="737.38,-530.82 746.31,-536.52 742.88,-526.49 737.38,-530.82"/>
</g>
<!-- Node17&#45;&gt;Node11 -->
<g id="edge34" class="edge">
<title>Node17&#45;&gt;Node11</title>
<path fill="none" stroke="#63b8ff" d="M386.63,-368.37C488.03,-350.85 639.45,-324.27 645,-320.83 694.36,-290.25 729.38,-229.41 746.2,-195.03"/>
<polygon fill="#63b8ff" stroke="#63b8ff" points="749.71,-196.8 750.83,-186.27 743.38,-193.8 749.71,-196.8"/>
</g>
<!-- Node18 -->
<g id="node18" class="node">
<title>Node18</title>
<g id="a_node18"><a xlink:href="classdev_1_1filechampion_1_1filechampion4j_1_1_validations_helper.html#a2cee2da5d1c0b48a0e76439ec43c9f6b" target="_top" xlink:title=" ">
<polygon fill="white" stroke="#666666" points="632.5,-312.33 448.5,-312.33 448.5,-271.33 632.5,-271.33 632.5,-312.33"/>
<text text-anchor="start" x="456.5" y="-300.33" font-family="Helvetica,sans-Serif" font-size="10.00">dev.filechampion.filechampion4j.</text>
<text text-anchor="start" x="456.5" y="-289.33" font-family="Helvetica,sans-Serif" font-size="10.00">ValidationsHelper.containsMagicBytes</text>
<text text-anchor="middle" x="540.5" y="-278.33" font-family="Helvetica,sans-Serif" font-size="10.00">Processor</text>
</a>
</g>
</g>
<!-- Node17&#45;&gt;Node18 -->
<g id="edge32" class="edge">
<title>Node17&#45;&gt;Node18</title>
<path fill="none" stroke="#63b8ff" d="M332.39,-368.46C360.42,-356.62 400.46,-340.09 436,-326.83 445.43,-323.32 455.4,-319.75 465.28,-316.31"/>
<polygon fill="#63b8ff" stroke="#63b8ff" points="466.2,-319.35 474.51,-312.78 463.92,-312.74 466.2,-319.35"/>
</g>
</g>
</svg>
