<?xml version="1.0" encoding="UTF-8" standalone="no"?>
<!DOCTYPE svg PUBLIC "-//W3C//DTD SVG 1.1//EN"
 "http://www.w3.org/Graphics/SVG/1.1/DTD/svg11.dtd">
<!-- Generated by graphviz version 8.0.3 (20230416.2022)
 -->
<!-- Title: dev.filechampion.filechampion4j.ValidationsHelper.logFine Pages: 1 -->
<svg width="1393pt" height="268pt"
 viewBox="0.00 0.00 1393.00 268.00" xmlns="http://www.w3.org/2000/svg" xmlns:xlink="http://www.w3.org/1999/xlink">
<g id="graph0" class="graph" transform="scale(1 1) rotate(0) translate(4 264)">
<title>dev.filechampion.filechampion4j.ValidationsHelper.logFine</title>
<!-- Node1 -->
<g id="node1" class="node">
<title>Node1</title>
<g id="a_node1"><a xlink:title=" ">
<polygon fill="#999999" stroke="#666666" points="1385,-150 1230,-150 1230,-120 1385,-120 1385,-150"/>
<text text-anchor="start" x="1238" y="-138" font-family="Helvetica,sans-Serif" font-size="10.00">dev.filechampion.filechampion4j.</text>
<text text-anchor="middle" x="1307.5" y="-127" font-family="Helvetica,sans-Serif" font-size="10.00">ValidationsHelper.logFine</text>
</a>
</g>
</g>
<!-- Node2 -->
<g id="node2" class="node">
<title>Node2</title>
<g id="a_node2"><a xlink:href="classdev_1_1filechampion_1_1filechampion4j_1_1_validations_helper.html#a4b5f515c54272fa1c4f177ef05c4fffe" target="_top" xlink:title=" ">
<polygon fill="white" stroke="#666666" points="1168,-260 1011,-260 1011,-230 1168,-230 1168,-260"/>
<text text-anchor="start" x="1019" y="-248" font-family="Helvetica,sans-Serif" font-size="10.00">dev.filechampion.filechampion4j.</text>
<text text-anchor="middle" x="1089.5" y="-237" font-family="Helvetica,sans-Serif" font-size="10.00">ValidationsHelper.checkFileSize</text>
</a>
</g>
</g>
<!-- Node1&#45;&gt;Node2 -->
<g id="edge1" class="edge">
<title>Node1&#45;&gt;Node2</title>
<path fill="none" stroke="#63b8ff" d="M1281.08,-157.32C1259.3,-175.42 1226.4,-200.4 1194,-216 1182.99,-221.3 1170.83,-225.79 1158.84,-229.53"/>
<polygon fill="#63b8ff" stroke="#63b8ff" points="1283.04,-159.4 1288.42,-150.27 1278.53,-154.06 1283.04,-159.4"/>
</g>
<!-- Node3 -->
<g id="node3" class="node">
<title>Node3</title>
<g id="a_node3"><a xlink:href="classdev_1_1filechampion_1_1filechampion4j_1_1_validations_helper.html#acf58dbbd1e656f17a402e2856c6c9279" target="_top" xlink:title=" ">
<polygon fill="white" stroke="#666666" points="949,-150 794,-150 794,-120 949,-120 949,-150"/>
<text text-anchor="start" x="802" y="-138" font-family="Helvetica,sans-Serif" font-size="10.00">dev.filechampion.filechampion4j.</text>
<text text-anchor="middle" x="871.5" y="-127" font-family="Helvetica,sans-Serif" font-size="10.00">ValidationsHelper.doValidations</text>
</a>
</g>
</g>
<!-- Node1&#45;&gt;Node3 -->
<g id="edge15" class="edge">
<title>Node1&#45;&gt;Node3</title>
<path fill="none" stroke="#63b8ff" d="M1269.67,-155.19C1248.27,-165.76 1220.4,-177.6 1194,-183 1102.99,-201.6 1076.01,-201.6 985,-183 954.42,-176.75 921.86,-161.85 899.68,-150.3"/>
<polygon fill="#63b8ff" stroke="#63b8ff" points="1270.98,-157.94 1278.32,-150.3 1267.81,-151.7 1270.98,-157.94"/>
</g>
<!-- Node8 -->
<g id="node8" class="node">
<title>Node8</title>
<g id="a_node8"><a xlink:href="classdev_1_1filechampion_1_1filechampion4j_1_1_validations_helper.html#a43b491bbdf4b6104d060386d4371753c" target="_top" xlink:title=" ">
<polygon fill="white" stroke="#666666" points="1173,-174 1006,-174 1006,-144 1173,-144 1173,-174"/>
<text text-anchor="start" x="1014" y="-162" font-family="Helvetica,sans-Serif" font-size="10.00">dev.filechampion.filechampion4j.</text>
<text text-anchor="middle" x="1089.5" y="-151" font-family="Helvetica,sans-Serif" font-size="10.00">ValidationsHelper.checkMimeType</text>
</a>
</g>
</g>
<!-- Node1&#45;&gt;Node8 -->
<g id="edge7" class="edge">
<title>Node1&#45;&gt;Node8</title>
<path fill="none" stroke="#63b8ff" d="M1218.88,-144.74C1203.8,-146.41 1188.18,-148.15 1173.24,-149.81"/>
<polygon fill="#63b8ff" stroke="#63b8ff" points="1219.19,-148.11 1228.74,-143.53 1218.41,-141.15 1219.19,-148.11"/>
</g>
<!-- Node9 -->
<g id="node9" class="node">
<title>Node9</title>
<g id="a_node9"><a xlink:href="classdev_1_1filechampion_1_1filechampion4j_1_1_validations_helper.html#a9c7f6f3159fef96d606ca0a6712b2165" target="_top" xlink:title=" ">
<polygon fill="white" stroke="#666666" points="1192.5,-126 986.5,-126 986.5,-96 1192.5,-96 1192.5,-126"/>
<text text-anchor="start" x="994.5" y="-114" font-family="Helvetica,sans-Serif" font-size="10.00">dev.filechampion.filechampion4j.</text>
<text text-anchor="middle" x="1089.5" y="-103" font-family="Helvetica,sans-Serif" font-size="10.00">ValidationsHelper.containsFooterSignatures</text>
</a>
</g>
</g>
<!-- Node1&#45;&gt;Node9 -->
<g id="edge9" class="edge">
<title>Node1&#45;&gt;Node9</title>
<path fill="none" stroke="#63b8ff" d="M1218.92,-125.27C1210.28,-124.31 1201.47,-123.33 1192.7,-122.36"/>
<polygon fill="#63b8ff" stroke="#63b8ff" points="1218.41,-128.85 1228.74,-126.47 1219.19,-121.89 1218.41,-128.85"/>
</g>
<!-- Node10 -->
<g id="node10" class="node">
<title>Node10</title>
<g id="a_node10"><a xlink:href="classdev_1_1filechampion_1_1filechampion4j_1_1_validations_helper.html#aab316adeef5b3b9c80ef17bd05826582" target="_top" xlink:title=" ">
<polygon fill="white" stroke="#666666" points="1194,-78 985,-78 985,-48 1194,-48 1194,-78"/>
<text text-anchor="start" x="993" y="-66" font-family="Helvetica,sans-Serif" font-size="10.00">dev.filechampion.filechampion4j.</text>
<text text-anchor="middle" x="1089.5" y="-55" font-family="Helvetica,sans-Serif" font-size="10.00">ValidationsHelper.containsHeaderSignatures</text>
</a>
</g>
</g>
<!-- Node1&#45;&gt;Node10 -->
<g id="edge11" class="edge">
<title>Node1&#45;&gt;Node10</title>
<path fill="none" stroke="#63b8ff" d="M1264.75,-115.11C1243.84,-105.69 1217.94,-94.82 1194,-87 1184.53,-83.91 1174.45,-81.05 1164.44,-78.47"/>
<polygon fill="#63b8ff" stroke="#63b8ff" points="1263.03,-118.63 1273.58,-119.6 1265.94,-112.27 1263.03,-118.63"/>
</g>
<!-- Node11 -->
<g id="node11" class="node">
<title>Node11</title>
<g id="a_node11"><a xlink:href="classdev_1_1filechampion_1_1filechampion4j_1_1_validations_helper.html#a480b1c09382ee05e547a68c7eed8e2ed" target="_top" xlink:title=" ">
<polygon fill="white" stroke="#666666" points="1181.5,-30 997.5,-30 997.5,0 1181.5,0 1181.5,-30"/>
<text text-anchor="start" x="1005.5" y="-18" font-family="Helvetica,sans-Serif" font-size="10.00">dev.filechampion.filechampion4j.</text>
<text text-anchor="middle" x="1089.5" y="-7" font-family="Helvetica,sans-Serif" font-size="10.00">ValidationsHelper.containsMagicBytes</text>
</a>
</g>
</g>
<!-- Node1&#45;&gt;Node11 -->
<g id="edge13" class="edge">
<title>Node1&#45;&gt;Node11</title>
<path fill="none" stroke="#63b8ff" d="M1285.87,-111.9C1264.9,-89.85 1230.39,-57.35 1194,-39 1187.49,-35.72 1180.53,-32.88 1173.41,-30.42"/>
<polygon fill="#63b8ff" stroke="#63b8ff" points="1282.85,-113.86 1292.23,-118.79 1287.97,-109.09 1282.85,-113.86"/>
</g>
<!-- Node2&#45;&gt;Node3 -->
<g id="edge2" class="edge">
<title>Node2&#45;&gt;Node3</title>
<path fill="none" stroke="#63b8ff" d="M1009.75,-226.1C1001.24,-223.13 992.83,-219.77 985,-216 948.13,-198.26 910.62,-168.36 889.58,-150.27"/>
<polygon fill="#63b8ff" stroke="#63b8ff" points="1008.56,-229.72 1019.16,-229.53 1010.76,-223.07 1008.56,-229.72"/>
</g>
<!-- Node4 -->
<g id="node4" class="node">
<title>Node4</title>
<g id="a_node4"><a xlink:href="classdev_1_1filechampion_1_1filechampion4j_1_1_validations_helper.html#a9722c4ec7eff7b6fc7b9747855770e10" target="_top" xlink:title=" ">
<polygon fill="white" stroke="#666666" points="758,-150 573,-150 573,-120 758,-120 758,-150"/>
<text text-anchor="start" x="581" y="-138" font-family="Helvetica,sans-Serif" font-size="10.00">dev.filechampion.filechampion4j.</text>
<text text-anchor="middle" x="665.5" y="-127" font-family="Helvetica,sans-Serif" font-size="10.00">ValidationsHelper.getValidationResults</text>
</a>
</g>
</g>
<!-- Node3&#45;&gt;Node4 -->
<g id="edge3" class="edge">
<title>Node3&#45;&gt;Node4</title>
<path fill="none" stroke="#63b8ff" d="M782.75,-135C774.68,-135 766.48,-135 758.37,-135"/>
<polygon fill="#63b8ff" stroke="#63b8ff" points="782.67,-138.5 792.67,-135 782.67,-131.5 782.67,-138.5"/>
</g>
<!-- Node5 -->
<g id="node5" class="node">
<title>Node5</title>
<g id="a_node5"><a xlink:href="classdev_1_1filechampion_1_1filechampion4j_1_1_file_validator.html#a48a54a63d062cd23af2d14a6af76899e" target="_top" xlink:title=" ">
<polygon fill="white" stroke="#666666" points="537,-150 382,-150 382,-120 537,-120 537,-150"/>
<text text-anchor="start" x="390" y="-138" font-family="Helvetica,sans-Serif" font-size="10.00">dev.filechampion.filechampion4j.</text>
<text text-anchor="middle" x="459.5" y="-127" font-family="Helvetica,sans-Serif" font-size="10.00">FileValidator.doValidations</text>
</a>
</g>
</g>
<!-- Node4&#45;&gt;Node5 -->
<g id="edge4" class="edge">
<title>Node4&#45;&gt;Node5</title>
<path fill="none" stroke="#63b8ff" d="M561.79,-135C553.51,-135 545.25,-135 537.21,-135"/>
<polygon fill="#63b8ff" stroke="#63b8ff" points="561.65,-138.5 571.65,-135 561.65,-131.5 561.65,-138.5"/>
</g>
<!-- Node6 -->
<g id="node6" class="node">
<title>Node6</title>
<g id="a_node6"><a xlink:href="classdev_1_1filechampion_1_1filechampion4j_1_1_file_validator.html#a2ac42f051e5724b165e5b0234a1e23f4" target="_top" xlink:title=" ">
<polygon fill="white" stroke="#666666" points="346,-150 191,-150 191,-120 346,-120 346,-150"/>
<text text-anchor="start" x="199" y="-138" font-family="Helvetica,sans-Serif" font-size="10.00">dev.filechampion.filechampion4j.</text>
<text text-anchor="middle" x="268.5" y="-127" font-family="Helvetica,sans-Serif" font-size="10.00">FileValidator.validateFileMain</text>
</a>
</g>
</g>
<!-- Node5&#45;&gt;Node6 -->
<g id="edge5" class="edge">
<title>Node5&#45;&gt;Node6</title>
<path fill="none" stroke="#63b8ff" d="M370.89,-135C362.68,-135 354.41,-135 346.31,-135"/>
<polygon fill="#63b8ff" stroke="#63b8ff" points="370.63,-138.5 380.63,-135 370.63,-131.5 370.63,-138.5"/>
</g>
<!-- Node7 -->
<g id="node7" class="node">
<title>Node7</title>
<g id="a_node7"><a xlink:href="classdev_1_1filechampion_1_1filechampion4j_1_1_file_validator.html#a492adb6357ac22bea8b79d036aa2a287" target="_top" xlink:title=" ">
<polygon fill="white" stroke="#666666" points="155,-150 0,-150 0,-120 155,-120 155,-150"/>
<text text-anchor="start" x="8" y="-138" font-family="Helvetica,sans-Serif" font-size="10.00">dev.filechampion.filechampion4j.</text>
<text text-anchor="middle" x="77.5" y="-127" font-family="Helvetica,sans-Serif" font-size="10.00">FileValidator.validateFile</text>
</a>
</g>
</g>
<!-- Node6&#45;&gt;Node7 -->
<g id="edge6" class="edge">
<title>Node6&#45;&gt;Node7</title>
<path fill="none" stroke="#63b8ff" d="M179.89,-135C171.68,-135 163.41,-135 155.31,-135"/>
<polygon fill="#63b8ff" stroke="#63b8ff" points="179.63,-138.5 189.63,-135 179.63,-131.5 179.63,-138.5"/>
</g>
<!-- Node8&#45;&gt;Node3 -->
<g id="edge8" class="edge">
<title>Node8&#45;&gt;Node3</title>
<path fill="none" stroke="#63b8ff" d="M994.7,-148.58C979.61,-146.9 964.14,-145.18 949.5,-143.56"/>
<polygon fill="#63b8ff" stroke="#63b8ff" points="994.28,-152.16 1004.61,-149.79 995.05,-145.21 994.28,-152.16"/>
</g>
<!-- Node9&#45;&gt;Node3 -->
<g id="edge10" class="edge">
<title>Node9&#45;&gt;Node3</title>
<path fill="none" stroke="#63b8ff" d="M975.4,-123.57C966.56,-124.55 957.77,-125.53 949.26,-126.47"/>
<polygon fill="#63b8ff" stroke="#63b8ff" points="975.64,-126.95 985.19,-122.37 974.87,-119.99 975.64,-126.95"/>
</g>
<!-- Node10&#45;&gt;Node3 -->
<g id="edge12" class="edge">
<title>Node10&#45;&gt;Node3</title>
<path fill="none" stroke="#63b8ff" d="M1004.24,-81.23C997.69,-83.04 991.21,-84.97 985,-87 957.14,-96.09 926.63,-109.33 904.42,-119.6"/>
<polygon fill="#63b8ff" stroke="#63b8ff" points="1004.8,-84.44 1013.56,-78.47 1002.99,-77.67 1004.8,-84.44"/>
</g>
<!-- Node11&#45;&gt;Node3 -->
<g id="edge14" class="edge">
<title>Node11&#45;&gt;Node3</title>
<path fill="none" stroke="#63b8ff" d="M995.39,-34.27C991.83,-35.73 988.35,-37.31 985,-39 943.96,-59.7 905.31,-98.39 885.77,-119.79"/>
<polygon fill="#63b8ff" stroke="#63b8ff" points="996.47,-37.22 1004.59,-30.42 994,-30.67 996.47,-37.22"/>
</g>
</g>
</svg>
