<?xml version="1.0" encoding="UTF-8" standalone="no"?>
<!DOCTYPE svg PUBLIC "-//W3C//DTD SVG 1.1//EN"
 "http://www.w3.org/Graphics/SVG/1.1/DTD/svg11.dtd">
<!-- Generated by graphviz version 8.0.3 (20230416.2022)
 -->
<!-- Title: dev.filechampion.filechampion4j.FileAclHelper.logFine Pages: 1 -->
<svg width="1754pt" height="144pt"
 viewBox="0.00 0.00 1754.00 144.39" xmlns="http://www.w3.org/2000/svg" xmlns:xlink="http://www.w3.org/1999/xlink">
<g id="graph0" class="graph" transform="scale(1 1) rotate(0) translate(4 140.39)">
<title>dev.filechampion.filechampion4j.FileAclHelper.logFine</title>
<!-- Node1 -->
<g id="node1" class="node">
<title>Node1</title>
<g id="a_node1"><a xlink:title=" ">
<polygon fill="#999999" stroke="#666666" points="1746,-99 1591,-99 1591,-69 1746,-69 1746,-99"/>
<text text-anchor="start" x="1599" y="-87" font-family="Helvetica,sans-Serif" font-size="10.00">dev.filechampion.filechampion4j.</text>
<text text-anchor="middle" x="1668.5" y="-76" font-family="Helvetica,sans-Serif" font-size="10.00">FileAclHelper.logFine</text>
</a>
</g>
</g>
<!-- Node2 -->
<g id="node2" class="node">
<title>Node2</title>
<g id="a_node2"><a xlink:href="classdev_1_1filechampion_1_1filechampion4j_1_1_file_acl_helper.html#a7f56b5c25bc9643fe169f7f871029cca" target="_top" xlink:title=" ">
<polygon fill="white" stroke="#666666" points="1116,-118 961,-118 961,-88 1116,-88 1116,-118"/>
<text text-anchor="start" x="969" y="-106" font-family="Helvetica,sans-Serif" font-size="10.00">dev.filechampion.filechampion4j.</text>
<text text-anchor="middle" x="1038.5" y="-95" font-family="Helvetica,sans-Serif" font-size="10.00">FileAclHelper.changeFileAcl</text>
</a>
</g>
</g>
<!-- Node1&#45;&gt;Node2 -->
<g id="edge1" class="edge">
<title>Node1&#45;&gt;Node2</title>
<path fill="none" stroke="#63b8ff" d="M1587.92,-101.48C1576.9,-103.55 1565.69,-105.47 1555,-107 1377.49,-132.48 1330.34,-145.81 1152,-127 1135.22,-125.23 1117.26,-122.01 1100.73,-118.5"/>
<polygon fill="#63b8ff" stroke="#63b8ff" points="1588.25,-104.79 1597.41,-99.46 1586.93,-97.92 1588.25,-104.79"/>
</g>
<!-- Node8 -->
<g id="node8" class="node">
<title>Node8</title>
<g id="a_node8"><a xlink:href="classdev_1_1filechampion_1_1filechampion4j_1_1_file_acl_helper.html#a89a35f8379b106dcf38650384560ce9f" target="_top" xlink:title=" ">
<polygon fill="white" stroke="#666666" points="1311.5,-118 1156.5,-118 1156.5,-88 1311.5,-88 1311.5,-118"/>
<text text-anchor="start" x="1164.5" y="-106" font-family="Helvetica,sans-Serif" font-size="10.00">dev.filechampion.filechampion4j.</text>
<text text-anchor="middle" x="1234" y="-95" font-family="Helvetica,sans-Serif" font-size="10.00">FileAclHelper.setNewOwner</text>
</a>
</g>
</g>
<!-- Node1&#45;&gt;Node8 -->
<g id="edge7" class="edge">
<title>Node1&#45;&gt;Node8</title>
<path fill="none" stroke="#63b8ff" d="M1579.83,-87.85C1501.19,-91.31 1386.95,-96.32 1311.84,-99.62"/>
<polygon fill="#63b8ff" stroke="#63b8ff" points="1579.84,-91.31 1589.68,-87.37 1579.53,-84.32 1579.84,-91.31"/>
</g>
<!-- Node9 -->
<g id="node9" class="node">
<title>Node9</title>
<g id="a_node9"><a xlink:href="classdev_1_1filechampion_1_1filechampion4j_1_1_file_acl_helper.html#a957cd8f062521037c11e5d15d3785906" target="_top" xlink:title=" ">
<polygon fill="white" stroke="#666666" points="1545,-78 1362,-78 1362,-48 1545,-48 1545,-78"/>
<text text-anchor="start" x="1370" y="-66" font-family="Helvetica,sans-Serif" font-size="10.00">dev.filechampion.filechampion4j.</text>
<text text-anchor="middle" x="1453.5" y="-55" font-family="Helvetica,sans-Serif" font-size="10.00">FileAclHelper.setNewPermissionsUnix</text>
</a>
</g>
</g>
<!-- Node1&#45;&gt;Node9 -->
<g id="edge9" class="edge">
<title>Node1&#45;&gt;Node9</title>
<path fill="none" stroke="#63b8ff" d="M1579.83,-75.36C1568.48,-74.24 1556.83,-73.09 1545.43,-71.96"/>
<polygon fill="#63b8ff" stroke="#63b8ff" points="1579.31,-78.92 1589.6,-76.42 1579.99,-71.95 1579.31,-78.92"/>
</g>
<!-- Node11 -->
<g id="node11" class="node">
<title>Node11</title>
<g id="a_node11"><a xlink:href="classdev_1_1filechampion_1_1filechampion4j_1_1_file_acl_helper.html#a5c4d050d4ddf432b45ffe49b48b20735" target="_top" xlink:title=" ">
<polygon fill="white" stroke="#666666" points="1555,-30 1352,-30 1352,0 1555,0 1555,-30"/>
<text text-anchor="start" x="1360" y="-18" font-family="Helvetica,sans-Serif" font-size="10.00">dev.filechampion.filechampion4j.</text>
<text text-anchor="middle" x="1453.5" y="-7" font-family="Helvetica,sans-Serif" font-size="10.00">FileAclHelper.setNewPermissionsWindows</text>
</a>
</g>
</g>
<!-- Node1&#45;&gt;Node11 -->
<g id="edge12" class="edge">
<title>Node1&#45;&gt;Node11</title>
<path fill="none" stroke="#63b8ff" d="M1623.04,-64.47C1602.57,-55.94 1577.81,-46.24 1555,-39 1545.43,-35.96 1535.23,-33.1 1525.15,-30.49"/>
<polygon fill="#63b8ff" stroke="#63b8ff" points="1621.44,-68.02 1632.01,-68.68 1624.16,-61.57 1621.44,-68.02"/>
</g>
<!-- Node3 -->
<g id="node3" class="node">
<title>Node3</title>
<g id="a_node3"><a xlink:href="classdev_1_1filechampion_1_1filechampion4j_1_1_file_validator.html#a302b5fbd0f5c96cdade46747ebbeaae1" target="_top" xlink:title=" ">
<polygon fill="white" stroke="#666666" points="925,-118 770,-118 770,-88 925,-88 925,-118"/>
<text text-anchor="start" x="778" y="-106" font-family="Helvetica,sans-Serif" font-size="10.00">dev.filechampion.filechampion4j.</text>
<text text-anchor="middle" x="847.5" y="-95" font-family="Helvetica,sans-Serif" font-size="10.00">FileValidator.setFileAttributes</text>
</a>
</g>
</g>
<!-- Node2&#45;&gt;Node3 -->
<g id="edge2" class="edge">
<title>Node2&#45;&gt;Node3</title>
<path fill="none" stroke="#63b8ff" d="M949.89,-103C941.68,-103 933.41,-103 925.31,-103"/>
<polygon fill="#63b8ff" stroke="#63b8ff" points="949.63,-106.5 959.63,-103 949.63,-99.5 949.63,-106.5"/>
</g>
<!-- Node4 -->
<g id="node4" class="node">
<title>Node4</title>
<g id="a_node4"><a xlink:href="classdev_1_1filechampion_1_1filechampion4j_1_1_file_validator.html#a46f8dcb76a6e9b52838092b4c80b9d26" target="_top" xlink:title=" ">
<polygon fill="white" stroke="#666666" points="734,-118 573,-118 573,-88 734,-88 734,-118"/>
<text text-anchor="start" x="581" y="-106" font-family="Helvetica,sans-Serif" font-size="10.00">dev.filechampion.filechampion4j.</text>
<text text-anchor="middle" x="653.5" y="-95" font-family="Helvetica,sans-Serif" font-size="10.00">FileValidator.saveFileToOutputDir</text>
</a>
</g>
</g>
<!-- Node3&#45;&gt;Node4 -->
<g id="edge3" class="edge">
<title>Node3&#45;&gt;Node4</title>
<path fill="none" stroke="#63b8ff" d="M758.56,-103C750.49,-103 742.33,-103 734.33,-103"/>
<polygon fill="#63b8ff" stroke="#63b8ff" points="758.51,-106.5 768.51,-103 758.51,-99.5 758.51,-106.5"/>
</g>
<!-- Node5 -->
<g id="node5" class="node">
<title>Node5</title>
<g id="a_node5"><a xlink:href="classdev_1_1filechampion_1_1filechampion4j_1_1_file_validator.html#a48a54a63d062cd23af2d14a6af76899e" target="_top" xlink:title=" ">
<polygon fill="white" stroke="#666666" points="537,-118 382,-118 382,-88 537,-88 537,-118"/>
<text text-anchor="start" x="390" y="-106" font-family="Helvetica,sans-Serif" font-size="10.00">dev.filechampion.filechampion4j.</text>
<text text-anchor="middle" x="459.5" y="-95" font-family="Helvetica,sans-Serif" font-size="10.00">FileValidator.doValidations</text>
</a>
</g>
</g>
<!-- Node4&#45;&gt;Node5 -->
<g id="edge4" class="edge">
<title>Node4&#45;&gt;Node5</title>
<path fill="none" stroke="#63b8ff" d="M561.93,-103C553.67,-103 545.36,-103 537.23,-103"/>
<polygon fill="#63b8ff" stroke="#63b8ff" points="561.74,-106.5 571.74,-103 561.74,-99.5 561.74,-106.5"/>
</g>
<!-- Node6 -->
<g id="node6" class="node">
<title>Node6</title>
<g id="a_node6"><a xlink:href="classdev_1_1filechampion_1_1filechampion4j_1_1_file_validator.html#a2ac42f051e5724b165e5b0234a1e23f4" target="_top" xlink:title=" ">
<polygon fill="white" stroke="#666666" points="346,-118 191,-118 191,-88 346,-88 346,-118"/>
<text text-anchor="start" x="199" y="-106" font-family="Helvetica,sans-Serif" font-size="10.00">dev.filechampion.filechampion4j.</text>
<text text-anchor="middle" x="268.5" y="-95" font-family="Helvetica,sans-Serif" font-size="10.00">FileValidator.validateFileMain</text>
</a>
</g>
</g>
<!-- Node5&#45;&gt;Node6 -->
<g id="edge5" class="edge">
<title>Node5&#45;&gt;Node6</title>
<path fill="none" stroke="#63b8ff" d="M370.89,-103C362.68,-103 354.41,-103 346.31,-103"/>
<polygon fill="#63b8ff" stroke="#63b8ff" points="370.63,-106.5 380.63,-103 370.63,-99.5 370.63,-106.5"/>
</g>
<!-- Node7 -->
<g id="node7" class="node">
<title>Node7</title>
<g id="a_node7"><a xlink:href="classdev_1_1filechampion_1_1filechampion4j_1_1_file_validator.html#a492adb6357ac22bea8b79d036aa2a287" target="_top" xlink:title=" ">
<polygon fill="white" stroke="#666666" points="155,-118 0,-118 0,-88 155,-88 155,-118"/>
<text text-anchor="start" x="8" y="-106" font-family="Helvetica,sans-Serif" font-size="10.00">dev.filechampion.filechampion4j.</text>
<text text-anchor="middle" x="77.5" y="-95" font-family="Helvetica,sans-Serif" font-size="10.00">FileValidator.validateFile</text>
</a>
</g>
</g>
<!-- Node6&#45;&gt;Node7 -->
<g id="edge6" class="edge">
<title>Node6&#45;&gt;Node7</title>
<path fill="none" stroke="#63b8ff" d="M179.89,-103C171.68,-103 163.41,-103 155.31,-103"/>
<polygon fill="#63b8ff" stroke="#63b8ff" points="179.63,-106.5 189.63,-103 179.63,-99.5 179.63,-106.5"/>
</g>
<!-- Node8&#45;&gt;Node2 -->
<g id="edge8" class="edge">
<title>Node8&#45;&gt;Node2</title>
<path fill="none" stroke="#63b8ff" d="M1145.42,-103C1135.77,-103 1125.99,-103 1116.48,-103"/>
<polygon fill="#63b8ff" stroke="#63b8ff" points="1145.25,-106.5 1155.25,-103 1145.25,-99.5 1145.25,-106.5"/>
</g>
<!-- Node10 -->
<g id="node10" class="node">
<title>Node10</title>
<g id="a_node10"><a xlink:href="classdev_1_1filechampion_1_1filechampion4j_1_1_file_acl_helper.html#a00c73219098ca931f6dbfba1f45555ae" target="_top" xlink:title=" ">
<polygon fill="white" stroke="#666666" points="1316,-70 1152,-70 1152,-40 1316,-40 1316,-70"/>
<text text-anchor="start" x="1160" y="-58" font-family="Helvetica,sans-Serif" font-size="10.00">dev.filechampion.filechampion4j.</text>
<text text-anchor="middle" x="1234" y="-47" font-family="Helvetica,sans-Serif" font-size="10.00">FileAclHelper.setNewPermissions</text>
</a>
</g>
</g>
<!-- Node9&#45;&gt;Node10 -->
<g id="edge10" class="edge">
<title>Node9&#45;&gt;Node10</title>
<path fill="none" stroke="#63b8ff" d="M1350.55,-59.25C1339.05,-58.83 1327.45,-58.4 1316.26,-57.99"/>
<polygon fill="#63b8ff" stroke="#63b8ff" points="1350.4,-62.78 1360.52,-59.65 1350.66,-55.79 1350.4,-62.78"/>
</g>
<!-- Node10&#45;&gt;Node2 -->
<g id="edge11" class="edge">
<title>Node10&#45;&gt;Node2</title>
<path fill="none" stroke="#63b8ff" d="M1160.17,-73.07C1140.91,-77.84 1120.31,-82.95 1101.67,-87.58"/>
<polygon fill="#63b8ff" stroke="#63b8ff" points="1160.85,-76.26 1169.71,-70.45 1159.16,-69.46 1160.85,-76.26"/>
</g>
<!-- Node11&#45;&gt;Node10 -->
<g id="edge13" class="edge">
<title>Node11&#45;&gt;Node10</title>
<path fill="none" stroke="#63b8ff" d="M1357.9,-32.4C1344.06,-34.94 1329.91,-37.55 1316.36,-40.04"/>
<polygon fill="#63b8ff" stroke="#63b8ff" points="1358.21,-35.72 1367.41,-30.47 1356.94,-28.83 1358.21,-35.72"/>
</g>
</g>
</svg>
