<?xml version="1.0" encoding="UTF-8" standalone="no"?>
<!DOCTYPE svg PUBLIC "-//W3C//DTD SVG 1.1//EN"
 "http://www.w3.org/Graphics/SVG/1.1/DTD/svg11.dtd">
<!-- Generated by graphviz version 8.0.3 (20230416.2022)
 -->
<!-- Title: dev.filechampion.filechampion4j.FileValidator.logFine Pages: 1 -->
<svg width="940pt" height="148pt"
 viewBox="0.00 0.00 940.00 148.23" xmlns="http://www.w3.org/2000/svg" xmlns:xlink="http://www.w3.org/1999/xlink">
<g id="graph0" class="graph" transform="scale(1 1) rotate(0) translate(4 144.23)">
<title>dev.filechampion.filechampion4j.FileValidator.logFine</title>
<!-- Node1 -->
<g id="node1" class="node">
<title>Node1</title>
<g id="a_node1"><a xlink:title=" ">
<polygon fill="#999999" stroke="#666666" points="932,-93.73 777,-93.73 777,-63.73 932,-63.73 932,-93.73"/>
<text text-anchor="start" x="785" y="-81.73" font-family="Helvetica,sans-Serif" font-size="10.00">dev.filechampion.filechampion4j.</text>
<text text-anchor="middle" x="854.5" y="-70.73" font-family="Helvetica,sans-Serif" font-size="10.00">FileValidator.logFine</text>
</a>
</g>
</g>
<!-- Node2 -->
<g id="node2" class="node">
<title>Node2</title>
<g id="a_node2"><a xlink:href="classdev_1_1filechampion_1_1filechampion4j_1_1_file_validator.html#aaeb2a194d8491d3f240893cf076098e0" target="_top" xlink:title=" ">
<polygon fill="white" stroke="#666666" points="346,-115.73 191,-115.73 191,-85.73 346,-85.73 346,-115.73"/>
<text text-anchor="start" x="199" y="-103.73" font-family="Helvetica,sans-Serif" font-size="10.00">dev.filechampion.filechampion4j.</text>
<text text-anchor="middle" x="268.5" y="-92.73" font-family="Helvetica,sans-Serif" font-size="10.00">FileValidator.doValidations</text>
</a>
</g>
</g>
<!-- Node1&#45;&gt;Node2 -->
<g id="edge1" class="edge">
<title>Node1&#45;&gt;Node2</title>
<path fill="none" stroke="#63b8ff" d="M766.01,-87.77C757.56,-88.49 749.12,-89.17 741,-89.73 602.14,-99.42 439.78,-101.09 346.37,-101.12"/>
<polygon fill="#63b8ff" stroke="#63b8ff" points="766.04,-91.19 775.69,-86.82 765.42,-84.22 766.04,-91.19"/>
</g>
<!-- Node3 -->
<g id="node3" class="node">
<title>Node3</title>
<g id="a_node3"><a xlink:href="classdev_1_1filechampion_1_1filechampion4j_1_1_file_validator.html#a0c42ecd30b213d35bf114d84e7b40f9f" target="_top" xlink:title=" ">
<polygon fill="white" stroke="#666666" points="155,-115.73 0,-115.73 0,-85.73 155,-85.73 155,-115.73"/>
<text text-anchor="start" x="8" y="-103.73" font-family="Helvetica,sans-Serif" font-size="10.00">dev.filechampion.filechampion4j.</text>
<text text-anchor="middle" x="77.5" y="-92.73" font-family="Helvetica,sans-Serif" font-size="10.00">FileValidator.validateFile</text>
</a>
</g>
</g>
<!-- Node1&#45;&gt;Node3 -->
<g id="edge10" class="edge">
<title>Node1&#45;&gt;Node3</title>
<path fill="none" stroke="#63b8ff" d="M790.4,-96.77C774.41,-100.7 757.17,-104.38 741,-106.73 498.98,-142.01 434.23,-150.39 191,-124.73 174.22,-122.96 156.26,-119.75 139.73,-116.23"/>
<polygon fill="#63b8ff" stroke="#63b8ff" points="790.87,-100.01 799.71,-94.17 789.16,-93.22 790.87,-100.01"/>
</g>
<!-- Node4 -->
<g id="node4" class="node">
<title>Node4</title>
<g id="a_node4"><a xlink:href="classdev_1_1filechampion_1_1filechampion4j_1_1_file_validator.html#aa2bf7ccde349fc95be4c912cd42a6c95" target="_top" xlink:title=" ">
<polygon fill="white" stroke="#666666" points="546.5,-88.73 385.5,-88.73 385.5,-58.73 546.5,-58.73 546.5,-88.73"/>
<text text-anchor="start" x="393.5" y="-76.73" font-family="Helvetica,sans-Serif" font-size="10.00">dev.filechampion.filechampion4j.</text>
<text text-anchor="middle" x="466" y="-65.73" font-family="Helvetica,sans-Serif" font-size="10.00">FileValidator.executeAfterPlugins</text>
</a>
</g>
</g>
<!-- Node1&#45;&gt;Node4 -->
<g id="edge3" class="edge">
<title>Node1&#45;&gt;Node4</title>
<path fill="none" stroke="#63b8ff" d="M765.91,-77.6C700.04,-76.75 610.53,-75.59 546.67,-74.76"/>
<polygon fill="#63b8ff" stroke="#63b8ff" points="765.63,-81.11 775.68,-77.74 765.72,-74.11 765.63,-81.11"/>
</g>
<!-- Node5 -->
<g id="node5" class="node">
<title>Node5</title>
<g id="a_node5"><a xlink:href="classdev_1_1filechampion_1_1filechampion4j_1_1_file_validator.html#aa3d78c6d5ccf1abfdb1284969a9d2117" target="_top" xlink:title=" ">
<polygon fill="white" stroke="#666666" points="550,-40.73 382,-40.73 382,-10.73 550,-10.73 550,-40.73"/>
<text text-anchor="start" x="390" y="-28.73" font-family="Helvetica,sans-Serif" font-size="10.00">dev.filechampion.filechampion4j.</text>
<text text-anchor="middle" x="466" y="-17.73" font-family="Helvetica,sans-Serif" font-size="10.00">FileValidator.executeBeforePlugins</text>
</a>
</g>
</g>
<!-- Node1&#45;&gt;Node5 -->
<g id="edge5" class="edge">
<title>Node1&#45;&gt;Node5</title>
<path fill="none" stroke="#63b8ff" d="M826.43,-56.88C804.76,-40.88 772.84,-20.5 741,-11.73 673.26,6.91 592.62,-0.58 536.43,-10.27"/>
<polygon fill="#63b8ff" stroke="#63b8ff" points="823.97,-60.17 834.05,-63.43 828.2,-54.59 823.97,-60.17"/>
</g>
<!-- Node6 -->
<g id="node6" class="node">
<title>Node6</title>
<g id="a_node6"><a xlink:href="classdev_1_1filechampion_1_1filechampion4j_1_1_file_validator.html#a00a7f2979f0321f1823ce815ecd20945" target="_top" xlink:title=" ">
<polygon fill="white" stroke="#666666" points="741,-50.73 586,-50.73 586,-20.73 741,-20.73 741,-50.73"/>
<text text-anchor="start" x="594" y="-38.73" font-family="Helvetica,sans-Serif" font-size="10.00">dev.filechampion.filechampion4j.</text>
<text text-anchor="middle" x="663.5" y="-27.73" font-family="Helvetica,sans-Serif" font-size="10.00">FileValidator.executePlugin</text>
</a>
</g>
</g>
<!-- Node1&#45;&gt;Node6 -->
<g id="edge7" class="edge">
<title>Node1&#45;&gt;Node6</title>
<path fill="none" stroke="#63b8ff" d="M774.88,-60.85C760.81,-57.64 746.25,-54.33 732.5,-51.2"/>
<polygon fill="#63b8ff" stroke="#63b8ff" points="774.01,-64.46 784.53,-63.27 775.56,-57.64 774.01,-64.46"/>
</g>
<!-- Node2&#45;&gt;Node3 -->
<g id="edge2" class="edge">
<title>Node2&#45;&gt;Node3</title>
<path fill="none" stroke="#63b8ff" d="M179.89,-100.73C171.68,-100.73 163.41,-100.73 155.31,-100.73"/>
<polygon fill="#63b8ff" stroke="#63b8ff" points="179.63,-104.23 189.63,-100.73 179.63,-97.23 179.63,-104.23"/>
</g>
<!-- Node4&#45;&gt;Node2 -->
<g id="edge4" class="edge">
<title>Node4&#45;&gt;Node2</title>
<path fill="none" stroke="#63b8ff" d="M374.56,-86.22C365.08,-87.53 355.51,-88.86 346.2,-90.14"/>
<polygon fill="#63b8ff" stroke="#63b8ff" points="374.77,-89.59 384.2,-84.75 373.82,-82.66 374.77,-89.59"/>
</g>
<!-- Node5&#45;&gt;Node3 -->
<g id="edge6" class="edge">
<title>Node5&#45;&gt;Node3</title>
<path fill="none" stroke="#63b8ff" d="M370.83,-42.63C317.92,-52.29 250.71,-64.81 191,-76.73 177.58,-79.41 163.29,-82.38 149.56,-85.28"/>
<polygon fill="#63b8ff" stroke="#63b8ff" points="371.34,-45.92 380.55,-40.68 370.09,-39.03 371.34,-45.92"/>
</g>
<!-- Node6&#45;&gt;Node4 -->
<g id="edge8" class="edge">
<title>Node6&#45;&gt;Node4</title>
<path fill="none" stroke="#63b8ff" d="M574.9,-52.76C565.44,-54.6 555.85,-56.46 546.49,-58.28"/>
<polygon fill="#63b8ff" stroke="#63b8ff" points="575.37,-56.04 584.51,-50.7 574.03,-49.17 575.37,-56.04"/>
</g>
<!-- Node6&#45;&gt;Node5 -->
<g id="edge9" class="edge">
<title>Node6&#45;&gt;Node5</title>
<path fill="none" stroke="#63b8ff" d="M574.6,-31.24C566.54,-30.82 558.38,-30.41 550.36,-30"/>
<polygon fill="#63b8ff" stroke="#63b8ff" points="574.35,-34.78 584.51,-31.8 574.71,-27.79 574.35,-34.78"/>
</g>
</g>
</svg>
