<?xml version="1.0" encoding="UTF-8" standalone="no"?>
<!DOCTYPE svg PUBLIC "-//W3C//DTD SVG 1.1//EN"
 "http://www.w3.org/Graphics/SVG/1.1/DTD/svg11.dtd">
<!-- Generated by graphviz version 8.0.3 (20230416.2022)
 -->
<!-- Title: dev.filechampion.filechampion4j.CliPluginHelper.logFine Pages: 1 -->
<svg width="586pt" height="172pt"
 viewBox="0.00 0.00 586.00 172.00" xmlns="http://www.w3.org/2000/svg" xmlns:xlink="http://www.w3.org/1999/xlink">
<g id="graph0" class="graph" transform="scale(1 1) rotate(0) translate(4 168)">
<title>dev.filechampion.filechampion4j.CliPluginHelper.logFine</title>
<!-- Node1 -->
<g id="node1" class="node">
<title>Node1</title>
<g id="a_node1"><a xlink:title=" ">
<polygon fill="#999999" stroke="#666666" points="578,-99 423,-99 423,-69 578,-69 578,-99"/>
<text text-anchor="start" x="431" y="-87" font-family="Helvetica,sans-Serif" font-size="10.00">dev.filechampion.filechampion4j.</text>
<text text-anchor="middle" x="500.5" y="-76" font-family="Helvetica,sans-Serif" font-size="10.00">CliPluginHelper.logFine</text>
</a>
</g>
</g>
<!-- Node2 -->
<g id="node2" class="node">
<title>Node2</title>
<g id="a_node2"><a xlink:href="classdev_1_1filechampion_1_1filechampion4j_1_1_cli_plugin_helper.html#ae5a576210723f85200cb56142bf90c53" target="_top" xlink:title=" ">
<polygon fill="white" stroke="#666666" points="366.5,-164 211.5,-164 211.5,-134 366.5,-134 366.5,-164"/>
<text text-anchor="start" x="219.5" y="-152" font-family="Helvetica,sans-Serif" font-size="10.00">dev.filechampion.filechampion4j.</text>
<text text-anchor="middle" x="289" y="-141" font-family="Helvetica,sans-Serif" font-size="10.00">CliPluginHelper.CliPluginHelper</text>
</a>
</g>
</g>
<!-- Node1&#45;&gt;Node2 -->
<g id="edge1" class="edge">
<title>Node1&#45;&gt;Node2</title>
<path fill="none" stroke="#63b8ff" d="M441.82,-102.69C424.25,-108.32 404.85,-114.48 387,-120 372.56,-124.47 356.87,-129.21 342.41,-133.53"/>
<polygon fill="#63b8ff" stroke="#63b8ff" points="442.49,-105.83 450.94,-99.44 440.35,-99.17 442.49,-105.83"/>
</g>
<!-- Node3 -->
<g id="node3" class="node">
<title>Node3</title>
<g id="a_node3"><a xlink:href="classdev_1_1filechampion_1_1filechampion4j_1_1_cli_plugin_helper.html#af11ef9b21cd4b1ba498cc42f50c51d68" target="_top" xlink:title=" ">
<polygon fill="white" stroke="#666666" points="155,-78 0,-78 0,-48 155,-48 155,-78"/>
<text text-anchor="start" x="8" y="-66" font-family="Helvetica,sans-Serif" font-size="10.00">dev.filechampion.filechampion4j.</text>
<text text-anchor="middle" x="77.5" y="-55" font-family="Helvetica,sans-Serif" font-size="10.00">CliPluginHelper.execute</text>
</a>
</g>
</g>
<!-- Node1&#45;&gt;Node3 -->
<g id="edge2" class="edge">
<title>Node1&#45;&gt;Node3</title>
<path fill="none" stroke="#63b8ff" d="M411.67,-90.19C349.8,-93.25 265.12,-94.82 191,-87 174.22,-85.23 156.26,-82.01 139.73,-78.5"/>
<polygon fill="#63b8ff" stroke="#63b8ff" points="411.76,-93.64 421.57,-89.63 411.4,-86.65 411.76,-93.64"/>
</g>
<!-- Node4 -->
<g id="node4" class="node">
<title>Node4</title>
<g id="a_node4"><a xlink:href="classdev_1_1filechampion_1_1filechampion4j_1_1_cli_plugin_helper.html#aa311727086faa1c01c796bafc7132ce5" target="_top" xlink:title=" ">
<polygon fill="white" stroke="#666666" points="387,-78 191,-78 191,-48 387,-48 387,-78"/>
<text text-anchor="start" x="199" y="-66" font-family="Helvetica,sans-Serif" font-size="10.00">dev.filechampion.filechampion4j.</text>
<text text-anchor="middle" x="289" y="-55" font-family="Helvetica,sans-Serif" font-size="10.00">CliPluginHelper.extractResponsePatterns</text>
</a>
</g>
</g>
<!-- Node1&#45;&gt;Node4 -->
<g id="edge3" class="edge">
<title>Node1&#45;&gt;Node4</title>
<path fill="none" stroke="#63b8ff" d="M411.99,-75.23C403.79,-74.41 395.44,-73.57 387.15,-72.74"/>
<polygon fill="#63b8ff" stroke="#63b8ff" points="411.38,-78.78 421.68,-76.3 412.08,-71.82 411.38,-78.78"/>
</g>
<!-- Node5 -->
<g id="node5" class="node">
<title>Node5</title>
<g id="a_node5"><a xlink:href="classdev_1_1filechampion_1_1filechampion4j_1_1_cli_plugin_helper.html#abe8af04a9bec3c70eec44cb0f80b315c" target="_top" xlink:title=" ">
<polygon fill="white" stroke="#666666" points="383.5,-30 194.5,-30 194.5,0 383.5,0 383.5,-30"/>
<text text-anchor="start" x="202.5" y="-18" font-family="Helvetica,sans-Serif" font-size="10.00">dev.filechampion.filechampion4j.</text>
<text text-anchor="middle" x="289" y="-7" font-family="Helvetica,sans-Serif" font-size="10.00">CliPluginHelper.timedProcessExecution</text>
</a>
</g>
</g>
<!-- Node1&#45;&gt;Node5 -->
<g id="edge5" class="edge">
<title>Node1&#45;&gt;Node5</title>
<path fill="none" stroke="#63b8ff" d="M454.55,-64.37C434.16,-55.89 409.61,-46.28 387,-39 377.59,-35.97 367.56,-33.1 357.65,-30.47"/>
<polygon fill="#63b8ff" stroke="#63b8ff" points="452.91,-67.9 463.49,-68.54 455.63,-61.44 452.91,-67.9"/>
</g>
<!-- Node4&#45;&gt;Node3 -->
<g id="edge4" class="edge">
<title>Node4&#45;&gt;Node3</title>
<path fill="none" stroke="#63b8ff" d="M179.75,-63C171.49,-63 163.26,-63 155.26,-63"/>
<polygon fill="#63b8ff" stroke="#63b8ff" points="179.61,-66.5 189.61,-63 179.61,-59.5 179.61,-66.5"/>
</g>
<!-- Node5&#45;&gt;Node3 -->
<g id="edge6" class="edge">
<title>Node5&#45;&gt;Node3</title>
<path fill="none" stroke="#63b8ff" d="M210.02,-32.87C188.92,-37.7 166.27,-42.89 145.81,-47.58"/>
<polygon fill="#63b8ff" stroke="#63b8ff" points="210.59,-36.1 219.56,-30.45 209.03,-29.27 210.59,-36.1"/>
</g>
</g>
</svg>
