<?xml version="1.0" encoding="UTF-8" standalone="no"?>
<!DOCTYPE svg PUBLIC "-//W3C//DTD SVG 1.1//EN"
 "http://www.w3.org/Graphics/SVG/1.1/DTD/svg11.dtd">
<!-- Generated by graphviz version 8.0.3 (20230416.2022)
 -->
<!-- Title: dev.filechampion.filechampion4j.ValidationsHelper.containsMagicBytesProcessor Pages: 1 -->
<svg width="1397pt" height="49pt"
 viewBox="0.00 0.00 1397.00 49.00" xmlns="http://www.w3.org/2000/svg" xmlns:xlink="http://www.w3.org/1999/xlink">
<g id="graph0" class="graph" transform="scale(1 1) rotate(0) translate(4 45)">
<title>dev.filechampion.filechampion4j.ValidationsHelper.containsMagicBytesProcessor</title>
<!-- Node1 -->
<g id="node1" class="node">
<title>Node1</title>
<g id="a_node1"><a xlink:title=" ">
<polygon fill="#999999" stroke="#666666" points="1389,-41 1205,-41 1205,0 1389,0 1389,-41"/>
<text text-anchor="start" x="1213" y="-29" font-family="Helvetica,sans-Serif" font-size="10.00">dev.filechampion.filechampion4j.</text>
<text text-anchor="start" x="1213" y="-18" font-family="Helvetica,sans-Serif" font-size="10.00">ValidationsHelper.containsMagicBytes</text>
<text text-anchor="middle" x="1297" y="-7" font-family="Helvetica,sans-Serif" font-size="10.00">Processor</text>
</a>
</g>
</g>
<!-- Node2 -->
<g id="node2" class="node">
<title>Node2</title>
<g id="a_node2"><a xlink:href="classdev_1_1filechampion_1_1filechampion4j_1_1_validations_helper.html#a480b1c09382ee05e547a68c7eed8e2ed" target="_top" xlink:title=" ">
<polygon fill="white" stroke="#666666" points="1169,-35.5 985,-35.5 985,-5.5 1169,-5.5 1169,-35.5"/>
<text text-anchor="start" x="993" y="-23.5" font-family="Helvetica,sans-Serif" font-size="10.00">dev.filechampion.filechampion4j.</text>
<text text-anchor="middle" x="1077" y="-12.5" font-family="Helvetica,sans-Serif" font-size="10.00">ValidationsHelper.containsMagicBytes</text>
</a>
</g>
</g>
<!-- Node1&#45;&gt;Node2 -->
<g id="edge1" class="edge">
<title>Node1&#45;&gt;Node2</title>
<path fill="none" stroke="#63b8ff" d="M1193.98,-20.5C1185.7,-20.5 1177.37,-20.5 1169.17,-20.5"/>
<polygon fill="#63b8ff" stroke="#63b8ff" points="1193.81,-24 1203.81,-20.5 1193.81,-17 1193.81,-24"/>
</g>
<!-- Node3 -->
<g id="node3" class="node">
<title>Node3</title>
<g id="a_node3"><a xlink:href="classdev_1_1filechampion_1_1filechampion4j_1_1_validations_helper.html#acf58dbbd1e656f17a402e2856c6c9279" target="_top" xlink:title=" ">
<polygon fill="white" stroke="#666666" points="949,-35.5 794,-35.5 794,-5.5 949,-5.5 949,-35.5"/>
<text text-anchor="start" x="802" y="-23.5" font-family="Helvetica,sans-Serif" font-size="10.00">dev.filechampion.filechampion4j.</text>
<text text-anchor="middle" x="871.5" y="-12.5" font-family="Helvetica,sans-Serif" font-size="10.00">ValidationsHelper.doValidations</text>
</a>
</g>
</g>
<!-- Node2&#45;&gt;Node3 -->
<g id="edge2" class="edge">
<title>Node2&#45;&gt;Node3</title>
<path fill="none" stroke="#63b8ff" d="M973.82,-20.5C965.55,-20.5 957.29,-20.5 949.24,-20.5"/>
<polygon fill="#63b8ff" stroke="#63b8ff" points="973.67,-24 983.67,-20.5 973.67,-17 973.67,-24"/>
</g>
<!-- Node4 -->
<g id="node4" class="node">
<title>Node4</title>
<g id="a_node4"><a xlink:href="classdev_1_1filechampion_1_1filechampion4j_1_1_validations_helper.html#a9722c4ec7eff7b6fc7b9747855770e10" target="_top" xlink:title=" ">
<polygon fill="white" stroke="#666666" points="758,-35.5 573,-35.5 573,-5.5 758,-5.5 758,-35.5"/>
<text text-anchor="start" x="581" y="-23.5" font-family="Helvetica,sans-Serif" font-size="10.00">dev.filechampion.filechampion4j.</text>
<text text-anchor="middle" x="665.5" y="-12.5" font-family="Helvetica,sans-Serif" font-size="10.00">ValidationsHelper.getValidationResults</text>
</a>
</g>
</g>
<!-- Node3&#45;&gt;Node4 -->
<g id="edge3" class="edge">
<title>Node3&#45;&gt;Node4</title>
<path fill="none" stroke="#63b8ff" d="M782.75,-20.5C774.68,-20.5 766.48,-20.5 758.37,-20.5"/>
<polygon fill="#63b8ff" stroke="#63b8ff" points="782.67,-24 792.67,-20.5 782.67,-17 782.67,-24"/>
</g>
<!-- Node5 -->
<g id="node5" class="node">
<title>Node5</title>
<g id="a_node5"><a xlink:href="classdev_1_1filechampion_1_1filechampion4j_1_1_file_validator.html#a48a54a63d062cd23af2d14a6af76899e" target="_top" xlink:title=" ">
<polygon fill="white" stroke="#666666" points="537,-35.5 382,-35.5 382,-5.5 537,-5.5 537,-35.5"/>
<text text-anchor="start" x="390" y="-23.5" font-family="Helvetica,sans-Serif" font-size="10.00">dev.filechampion.filechampion4j.</text>
<text text-anchor="middle" x="459.5" y="-12.5" font-family="Helvetica,sans-Serif" font-size="10.00">FileValidator.doValidations</text>
</a>
</g>
</g>
<!-- Node4&#45;&gt;Node5 -->
<g id="edge4" class="edge">
<title>Node4&#45;&gt;Node5</title>
<path fill="none" stroke="#63b8ff" d="M561.79,-20.5C553.51,-20.5 545.25,-20.5 537.21,-20.5"/>
<polygon fill="#63b8ff" stroke="#63b8ff" points="561.65,-24 571.65,-20.5 561.65,-17 561.65,-24"/>
</g>
<!-- Node6 -->
<g id="node6" class="node">
<title>Node6</title>
<g id="a_node6"><a xlink:href="classdev_1_1filechampion_1_1filechampion4j_1_1_file_validator.html#a2ac42f051e5724b165e5b0234a1e23f4" target="_top" xlink:title=" ">
<polygon fill="white" stroke="#666666" points="346,-35.5 191,-35.5 191,-5.5 346,-5.5 346,-35.5"/>
<text text-anchor="start" x="199" y="-23.5" font-family="Helvetica,sans-Serif" font-size="10.00">dev.filechampion.filechampion4j.</text>
<text text-anchor="middle" x="268.5" y="-12.5" font-family="Helvetica,sans-Serif" font-size="10.00">FileValidator.validateFileMain</text>
</a>
</g>
</g>
<!-- Node5&#45;&gt;Node6 -->
<g id="edge5" class="edge">
<title>Node5&#45;&gt;Node6</title>
<path fill="none" stroke="#63b8ff" d="M370.89,-20.5C362.68,-20.5 354.41,-20.5 346.31,-20.5"/>
<polygon fill="#63b8ff" stroke="#63b8ff" points="370.63,-24 380.63,-20.5 370.63,-17 370.63,-24"/>
</g>
<!-- Node7 -->
<g id="node7" class="node">
<title>Node7</title>
<g id="a_node7"><a xlink:href="classdev_1_1filechampion_1_1filechampion4j_1_1_file_validator.html#a492adb6357ac22bea8b79d036aa2a287" target="_top" xlink:title=" ">
<polygon fill="white" stroke="#666666" points="155,-35.5 0,-35.5 0,-5.5 155,-5.5 155,-35.5"/>
<text text-anchor="start" x="8" y="-23.5" font-family="Helvetica,sans-Serif" font-size="10.00">dev.filechampion.filechampion4j.</text>
<text text-anchor="middle" x="77.5" y="-12.5" font-family="Helvetica,sans-Serif" font-size="10.00">FileValidator.validateFile</text>
</a>
</g>
</g>
<!-- Node6&#45;&gt;Node7 -->
<g id="edge6" class="edge">
<title>Node6&#45;&gt;Node7</title>
<path fill="none" stroke="#63b8ff" d="M179.89,-20.5C171.68,-20.5 163.41,-20.5 155.31,-20.5"/>
<polygon fill="#63b8ff" stroke="#63b8ff" points="179.63,-24 189.63,-20.5 179.63,-17 179.63,-24"/>
</g>
</g>
</svg>
