<?xml version="1.0" encoding="UTF-8" standalone="no"?>
<!DOCTYPE svg PUBLIC "-//W3C//DTD SVG 1.1//EN"
 "http://www.w3.org/Graphics/SVG/1.1/DTD/svg11.dtd">
<!-- Generated by graphviz version 8.0.3 (20230416.2022)
 -->
<!-- Title: dev.filechampion.filechampion4j.FileValidator.executePlugin Pages: 1 -->
<svg width="549pt" height="220pt"
 viewBox="0.00 0.00 549.00 220.00" xmlns="http://www.w3.org/2000/svg" xmlns:xlink="http://www.w3.org/1999/xlink">
<g id="graph0" class="graph" transform="scale(1 1) rotate(0) translate(4 216)">
<title>dev.filechampion.filechampion4j.FileValidator.executePlugin</title>
<!-- Node1 -->
<g id="node1" class="node">
<title>Node1</title>
<g id="a_node1"><a xlink:title=" ">
<polygon fill="#999999" stroke="#666666" points="155,-121 0,-121 0,-91 155,-91 155,-121"/>
<text text-anchor="start" x="8" y="-109" font-family="Helvetica,sans-Serif" font-size="10.00">dev.filechampion.filechampion4j.</text>
<text text-anchor="middle" x="77.5" y="-98" font-family="Helvetica,sans-Serif" font-size="10.00">FileValidator.executePlugin</text>
</a>
</g>
</g>
<!-- Node2 -->
<g id="node2" class="node">
<title>Node2</title>
<g id="a_node2"><a xlink:href="classdev_1_1filechampion_1_1filechampion4j_1_1_file_validator.html#afddde3a9748be9f0487a553d50a2d5c4" target="_top" xlink:title=" ">
<polygon fill="white" stroke="#666666" points="350,-212 191,-212 191,-182 350,-182 350,-212"/>
<text text-anchor="start" x="199" y="-200" font-family="Helvetica,sans-Serif" font-size="10.00">dev.filechampion.filechampion4j.</text>
<text text-anchor="middle" x="270.5" y="-189" font-family="Helvetica,sans-Serif" font-size="10.00">FileValidator.calculateChecksum</text>
</a>
</g>
</g>
<!-- Node1&#45;&gt;Node2 -->
<g id="edge1" class="edge">
<title>Node1&#45;&gt;Node2</title>
<path fill="none" stroke="#63b8ff" d="M100.48,-121.26C122.56,-136.06 157.95,-158.36 191,-173 194.85,-174.7 198.85,-176.33 202.93,-177.89"/>
<polygon fill="#63b8ff" stroke="#63b8ff" points="201.55,-181.47 212.15,-181.57 203.93,-174.89 201.55,-181.47"/>
</g>
<!-- Node3 -->
<g id="node3" class="node">
<title>Node3</title>
<g id="a_node3"><a xlink:href="classdev_1_1filechampion_1_1filechampion4j_1_1_file_validator.html#a8e5b65357971125d0d18f1ca1a303a82" target="_top" xlink:title=" ">
<polygon fill="white" stroke="#666666" points="348,-164 193,-164 193,-134 348,-134 348,-164"/>
<text text-anchor="start" x="201" y="-152" font-family="Helvetica,sans-Serif" font-size="10.00">dev.filechampion.filechampion4j.</text>
<text text-anchor="middle" x="270.5" y="-141" font-family="Helvetica,sans-Serif" font-size="10.00">FileValidator.deleteTempDir</text>
</a>
</g>
</g>
<!-- Node1&#45;&gt;Node3 -->
<g id="edge2" class="edge">
<title>Node1&#45;&gt;Node3</title>
<path fill="none" stroke="#63b8ff" d="M147.19,-121.46C161.21,-124.62 176.08,-127.97 190.44,-131.2"/>
<polygon fill="#63b8ff" stroke="#63b8ff" points="189.26,-134.75 199.78,-133.53 190.8,-127.92 189.26,-134.75"/>
</g>
<!-- Node4 -->
<g id="node4" class="node">
<title>Node4</title>
<g id="a_node4"><a xlink:href="classdev_1_1filechampion_1_1filechampion4j_1_1_file_validator.html#af46946cfe82bbc2234cf895bd8f4ef80" target="_top" xlink:title=" ">
<polygon fill="white" stroke="#666666" points="541,-142 386,-142 386,-112 541,-112 541,-142"/>
<text text-anchor="start" x="394" y="-130" font-family="Helvetica,sans-Serif" font-size="10.00">dev.filechampion.filechampion4j.</text>
<text text-anchor="middle" x="463.5" y="-119" font-family="Helvetica,sans-Serif" font-size="10.00">FileValidator.logWarn</text>
</a>
</g>
</g>
<!-- Node1&#45;&gt;Node4 -->
<g id="edge6" class="edge">
<title>Node1&#45;&gt;Node4</title>
<path fill="none" stroke="#63b8ff" d="M155.29,-110.2C218.62,-113.66 308.51,-118.58 374.69,-122.2"/>
<polygon fill="#63b8ff" stroke="#63b8ff" points="374.34,-125.74 384.52,-122.79 374.73,-118.75 374.34,-125.74"/>
</g>
<!-- Node5 -->
<g id="node5" class="node">
<title>Node5</title>
<g id="a_node5"><a xlink:href="classdev_1_1filechampion_1_1filechampion4j_1_1_file_validator.html#a74097ecc9c1bd3757a0287275631632f" target="_top" xlink:title=" ">
<polygon fill="white" stroke="#666666" points="348,-78 193,-78 193,-48 348,-48 348,-78"/>
<text text-anchor="start" x="201" y="-66" font-family="Helvetica,sans-Serif" font-size="10.00">dev.filechampion.filechampion4j.</text>
<text text-anchor="middle" x="270.5" y="-55" font-family="Helvetica,sans-Serif" font-size="10.00">FileValidator.isBlank</text>
</a>
</g>
</g>
<!-- Node1&#45;&gt;Node5 -->
<g id="edge4" class="edge">
<title>Node1&#45;&gt;Node5</title>
<path fill="none" stroke="#63b8ff" d="M147.19,-90.54C161.21,-87.38 176.08,-84.03 190.44,-80.8"/>
<polygon fill="#63b8ff" stroke="#63b8ff" points="190.8,-84.08 199.78,-78.47 189.26,-77.25 190.8,-84.08"/>
</g>
<!-- Node6 -->
<g id="node6" class="node">
<title>Node6</title>
<g id="a_node6"><a xlink:href="classdev_1_1filechampion_1_1filechampion4j_1_1_file_validator.html#a94cfea52d37b0b2b2e69ef72211feeb3" target="_top" xlink:title=" ">
<polygon fill="white" stroke="#666666" points="348,-30 193,-30 193,0 348,0 348,-30"/>
<text text-anchor="start" x="201" y="-18" font-family="Helvetica,sans-Serif" font-size="10.00">dev.filechampion.filechampion4j.</text>
<text text-anchor="middle" x="270.5" y="-7" font-family="Helvetica,sans-Serif" font-size="10.00">FileValidator.logFine</text>
</a>
</g>
</g>
<!-- Node1&#45;&gt;Node6 -->
<g id="edge5" class="edge">
<title>Node1&#45;&gt;Node6</title>
<path fill="none" stroke="#63b8ff" d="M100.48,-90.74C122.56,-75.94 157.95,-53.64 191,-39 194.85,-37.3 198.85,-35.67 202.93,-34.11"/>
<polygon fill="#63b8ff" stroke="#63b8ff" points="203.93,-37.11 212.15,-30.43 201.55,-30.53 203.93,-37.11"/>
</g>
<!-- Node3&#45;&gt;Node4 -->
<g id="edge3" class="edge">
<title>Node3&#45;&gt;Node4</title>
<path fill="none" stroke="#63b8ff" d="M348.36,-140.15C357.13,-139.14 366.12,-138.1 375.01,-137.08"/>
<polygon fill="#63b8ff" stroke="#63b8ff" points="375.26,-140.46 384.8,-135.84 374.46,-133.5 375.26,-140.46"/>
</g>
</g>
</svg>
