<?xml version="1.0" encoding="UTF-8" standalone="no"?>
<!DOCTYPE svg PUBLIC "-//W3C//DTD SVG 1.1//EN"
 "http://www.w3.org/Graphics/SVG/1.1/DTD/svg11.dtd">
<!-- Generated by graphviz version 8.0.3 (20230416.2022)
 -->
<!-- Title: dev.filechampion.filechampion4j.FileAclHelper.setNewPermissionsUnix Pages: 1 -->
<svg width="382pt" height="86pt"
 viewBox="0.00 0.00 382.00 86.00" xmlns="http://www.w3.org/2000/svg" xmlns:xlink="http://www.w3.org/1999/xlink">
<g id="graph0" class="graph" transform="scale(1 1) rotate(0) translate(4 82)">
<title>dev.filechampion.filechampion4j.FileAclHelper.setNewPermissionsUnix</title>
<!-- Node1 -->
<g id="node1" class="node">
<title>Node1</title>
<g id="a_node1"><a xlink:title=" ">
<polygon fill="#999999" stroke="#666666" points="183,-54 0,-54 0,-24 183,-24 183,-54"/>
<text text-anchor="start" x="8" y="-42" font-family="Helvetica,sans-Serif" font-size="10.00">dev.filechampion.filechampion4j.</text>
<text text-anchor="middle" x="91.5" y="-31" font-family="Helvetica,sans-Serif" font-size="10.00">FileAclHelper.setNewPermissionsUnix</text>
</a>
</g>
</g>
<!-- Node2 -->
<g id="node2" class="node">
<title>Node2</title>
<g id="a_node2"><a xlink:href="classdev_1_1filechampion_1_1filechampion4j_1_1_file_acl_helper.html#a73d0b85c677037db5ab4865e005bc756" target="_top" xlink:title=" ">
<polygon fill="white" stroke="#666666" points="374,-78 219,-78 219,-48 374,-48 374,-78"/>
<text text-anchor="start" x="227" y="-66" font-family="Helvetica,sans-Serif" font-size="10.00">dev.filechampion.filechampion4j.</text>
<text text-anchor="middle" x="296.5" y="-55" font-family="Helvetica,sans-Serif" font-size="10.00">FileAclHelper.logFine</text>
</a>
</g>
</g>
<!-- Node1&#45;&gt;Node2 -->
<g id="edge1" class="edge">
<title>Node1&#45;&gt;Node2</title>
<path fill="none" stroke="#63b8ff" d="M183.31,-49.74C191.53,-50.71 199.85,-51.69 208.04,-52.66"/>
<polygon fill="#63b8ff" stroke="#63b8ff" points="207.38,-56.22 217.72,-53.92 208.2,-49.27 207.38,-56.22"/>
</g>
<!-- Node3 -->
<g id="node3" class="node">
<title>Node3</title>
<g id="a_node3"><a xlink:href="classdev_1_1filechampion_1_1filechampion4j_1_1_file_acl_helper.html#ab6fd281a6c09486bf16d2eea3a0ea1ea" target="_top" xlink:title=" ">
<polygon fill="white" stroke="#666666" points="374,-30 219,-30 219,0 374,0 374,-30"/>
<text text-anchor="start" x="227" y="-18" font-family="Helvetica,sans-Serif" font-size="10.00">dev.filechampion.filechampion4j.</text>
<text text-anchor="middle" x="296.5" y="-7" font-family="Helvetica,sans-Serif" font-size="10.00">FileAclHelper.logSevere</text>
</a>
</g>
</g>
<!-- Node1&#45;&gt;Node3 -->
<g id="edge2" class="edge">
<title>Node1&#45;&gt;Node3</title>
<path fill="none" stroke="#63b8ff" d="M183.31,-28.26C191.53,-27.29 199.85,-26.31 208.04,-25.34"/>
<polygon fill="#63b8ff" stroke="#63b8ff" points="208.2,-28.73 217.72,-24.08 207.38,-21.78 208.2,-28.73"/>
</g>
</g>
</svg>
