<?xml version="1.0" encoding="UTF-8" standalone="no"?>
<!DOCTYPE svg PUBLIC "-//W3C//DTD SVG 1.1//EN"
 "http://www.w3.org/Graphics/SVG/1.1/DTD/svg11.dtd">
<!-- Generated by graphviz version 8.0.3 (20230416.2022)
 -->
<!-- Title: dev.filechampion.filechampion4j.FileValidator.executeAfterPlugins Pages: 1 -->
<svg width="975pt" height="273pt"
 viewBox="0.00 0.00 975.00 273.00" xmlns="http://www.w3.org/2000/svg" xmlns:xlink="http://www.w3.org/1999/xlink">
<g id="graph0" class="graph" transform="scale(1 1) rotate(0) translate(4 269)">
<title>dev.filechampion.filechampion4j.FileValidator.executeAfterPlugins</title>
<!-- Node1 -->
<g id="node1" class="node">
<title>Node1</title>
<g id="a_node1"><a xlink:title=" ">
<polygon fill="#999999" stroke="#666666" points="161,-142 0,-142 0,-112 161,-112 161,-142"/>
<text text-anchor="start" x="8" y="-130" font-family="Helvetica,sans-Serif" font-size="10.00">dev.filechampion.filechampion4j.</text>
<text text-anchor="middle" x="80.5" y="-119" font-family="Helvetica,sans-Serif" font-size="10.00">FileValidator.executeAfterPlugins</text>
</a>
</g>
</g>
<!-- Node2 -->
<g id="node2" class="node">
<title>Node2</title>
<g id="a_node2"><a xlink:href="classdev_1_1filechampion_1_1filechampion4j_1_1_file_validator.html#aa9bf0e018f1c94b78ea2e8e3c12eafdd" target="_top" xlink:title=" ">
<polygon fill="white" stroke="#666666" points="394,-121 197,-121 197,-91 394,-91 394,-121"/>
<text text-anchor="start" x="205" y="-109" font-family="Helvetica,sans-Serif" font-size="10.00">dev.filechampion.filechampion4j.</text>
<text text-anchor="middle" x="295.5" y="-98" font-family="Helvetica,sans-Serif" font-size="10.00">FileValidator.executeAfterPluginsProcess</text>
</a>
</g>
</g>
<!-- Node1&#45;&gt;Node2 -->
<g id="edge1" class="edge">
<title>Node1&#45;&gt;Node2</title>
<path fill="none" stroke="#63b8ff" d="M161.42,-119.12C169.38,-118.34 177.55,-117.53 185.75,-116.72"/>
<polygon fill="#63b8ff" stroke="#63b8ff" points="185.9,-120.13 195.51,-115.66 185.21,-113.16 185.9,-120.13"/>
</g>
<!-- Node5 -->
<g id="node5" class="node">
<title>Node5</title>
<g id="a_node5"><a xlink:href="classdev_1_1filechampion_1_1filechampion4j_1_1_file_validator.html#a4d3fd6787fcd920751c75b9c1d4c878d" target="_top" xlink:title=" ">
<polygon fill="white" stroke="#666666" points="967,-265 812,-265 812,-235 967,-235 967,-265"/>
<text text-anchor="start" x="820" y="-253" font-family="Helvetica,sans-Serif" font-size="10.00">dev.filechampion.filechampion4j.</text>
<text text-anchor="middle" x="889.5" y="-242" font-family="Helvetica,sans-Serif" font-size="10.00">FileValidator.logWarn</text>
</a>
</g>
</g>
<!-- Node1&#45;&gt;Node5 -->
<g id="edge15" class="edge">
<title>Node1&#45;&gt;Node5</title>
<path fill="none" stroke="#63b8ff" d="M128.42,-142.46C221.21,-172.01 435.26,-235.17 621,-253 680.78,-258.74 748.41,-257.91 800.72,-255.69"/>
<polygon fill="#63b8ff" stroke="#63b8ff" points="800.81,-259.15 810.64,-255.2 800.49,-252.15 800.81,-259.15"/>
</g>
<!-- Node7 -->
<g id="node7" class="node">
<title>Node7</title>
<g id="a_node7"><a xlink:href="classdev_1_1filechampion_1_1filechampion4j_1_1_file_validator.html#aba144d2be101a69816372b3fcdd8a6b0" target="_top" xlink:title=" ">
<polygon fill="white" stroke="#666666" points="776,-126 621,-126 621,-96 776,-96 776,-126"/>
<text text-anchor="start" x="629" y="-114" font-family="Helvetica,sans-Serif" font-size="10.00">dev.filechampion.filechampion4j.</text>
<text text-anchor="middle" x="698.5" y="-103" font-family="Helvetica,sans-Serif" font-size="10.00">FileValidator.logFine</text>
</a>
</g>
</g>
<!-- Node1&#45;&gt;Node7 -->
<g id="edge14" class="edge">
<title>Node1&#45;&gt;Node7</title>
<path fill="none" stroke="#63b8ff" d="M161.34,-129.34C173.29,-129.62 185.47,-129.85 197,-130 369.47,-132.24 412.94,-134.01 585,-122 593.12,-121.43 601.56,-120.76 610.01,-120.03"/>
<polygon fill="#63b8ff" stroke="#63b8ff" points="610.04,-123.46 619.69,-119.08 609.42,-116.48 610.04,-123.46"/>
</g>
<!-- Node8 -->
<g id="node8" class="node">
<title>Node8</title>
<g id="a_node8"><a xlink:href="classdev_1_1filechampion_1_1filechampion4j_1_1_extensions.html#ac3de7a6e3faa8e7f76d0d3705e02a42d" target="_top" xlink:title=" ">
<polygon fill="white" stroke="#666666" points="585,-78 430,-78 430,-48 585,-48 585,-78"/>
<text text-anchor="start" x="438" y="-66" font-family="Helvetica,sans-Serif" font-size="10.00">dev.filechampion.filechampion4j.</text>
<text text-anchor="middle" x="507.5" y="-55" font-family="Helvetica,sans-Serif" font-size="10.00">Extensions.getValidationValue</text>
</a>
</g>
</g>
<!-- Node1&#45;&gt;Node8 -->
<g id="edge13" class="edge">
<title>Node1&#45;&gt;Node8</title>
<path fill="none" stroke="#63b8ff" d="M113.03,-111.64C135.79,-101.32 167.57,-88.47 197,-82 270.68,-65.8 356.45,-61.64 418.98,-61.2"/>
<polygon fill="#63b8ff" stroke="#63b8ff" points="418.61,-64.7 428.59,-61.16 418.58,-57.7 418.61,-64.7"/>
</g>
<!-- Node3 -->
<g id="node3" class="node">
<title>Node3</title>
<g id="a_node3"><a xlink:href="classdev_1_1filechampion_1_1filechampion4j_1_1_file_validator.html#a00a7f2979f0321f1823ce815ecd20945" target="_top" xlink:title=" ">
<polygon fill="white" stroke="#666666" points="585,-207 430,-207 430,-177 585,-177 585,-207"/>
<text text-anchor="start" x="438" y="-195" font-family="Helvetica,sans-Serif" font-size="10.00">dev.filechampion.filechampion4j.</text>
<text text-anchor="middle" x="507.5" y="-184" font-family="Helvetica,sans-Serif" font-size="10.00">FileValidator.executePlugin</text>
</a>
</g>
</g>
<!-- Node2&#45;&gt;Node3 -->
<g id="edge2" class="edge">
<title>Node2&#45;&gt;Node3</title>
<path fill="none" stroke="#63b8ff" d="M334.04,-121.38C369.02,-135.7 421.33,-157.12 459.16,-172.61"/>
<polygon fill="#63b8ff" stroke="#63b8ff" points="457.35,-176.06 467.93,-176.61 460,-169.58 457.35,-176.06"/>
</g>
<!-- Node2&#45;&gt;Node7 -->
<g id="edge12" class="edge">
<title>Node2&#45;&gt;Node7</title>
<path fill="none" stroke="#63b8ff" d="M394.34,-107.22C460.2,-108.04 546.3,-109.11 609.91,-109.91"/>
<polygon fill="#63b8ff" stroke="#63b8ff" points="609.67,-113.42 619.71,-110.04 609.76,-106.42 609.67,-113.42"/>
</g>
<!-- Node2&#45;&gt;Node8 -->
<g id="edge8" class="edge">
<title>Node2&#45;&gt;Node8</title>
<path fill="none" stroke="#63b8ff" d="M372.02,-90.54C387.74,-87.32 404.42,-83.9 420.49,-80.61"/>
<polygon fill="#63b8ff" stroke="#63b8ff" points="420.85,-83.91 429.95,-78.47 419.45,-77.05 420.85,-83.91"/>
</g>
<!-- Node4 -->
<g id="node4" class="node">
<title>Node4</title>
<g id="a_node4"><a xlink:href="classdev_1_1filechampion_1_1filechampion4j_1_1_file_validator.html#a8e5b65357971125d0d18f1ca1a303a82" target="_top" xlink:title=" ">
<polygon fill="white" stroke="#666666" points="776,-174 621,-174 621,-144 776,-144 776,-174"/>
<text text-anchor="start" x="629" y="-162" font-family="Helvetica,sans-Serif" font-size="10.00">dev.filechampion.filechampion4j.</text>
<text text-anchor="middle" x="698.5" y="-151" font-family="Helvetica,sans-Serif" font-size="10.00">FileValidator.deleteTempDir</text>
</a>
</g>
</g>
<!-- Node3&#45;&gt;Node4 -->
<g id="edge3" class="edge">
<title>Node3&#45;&gt;Node4</title>
<path fill="none" stroke="#63b8ff" d="M585.37,-178.58C593.47,-177.16 601.75,-175.72 609.96,-174.28"/>
<polygon fill="#63b8ff" stroke="#63b8ff" points="610.45,-177.58 619.69,-172.41 609.24,-170.68 610.45,-177.58"/>
</g>
<!-- Node3&#45;&gt;Node5 -->
<g id="edge7" class="edge">
<title>Node3&#45;&gt;Node5</title>
<path fill="none" stroke="#63b8ff" d="M545.06,-207.41C566.74,-215.86 594.98,-225.66 621,-231 680.19,-243.14 748.1,-247.85 800.69,-249.55"/>
<polygon fill="#63b8ff" stroke="#63b8ff" points="800.58,-253.08 810.67,-249.87 800.78,-246.08 800.58,-253.08"/>
</g>
<!-- Node6 -->
<g id="node6" class="node">
<title>Node6</title>
<g id="a_node6"><a xlink:href="classdev_1_1filechampion_1_1filechampion4j_1_1_file_validator.html#a802b48ac84041a593048ed535c839940" target="_top" xlink:title=" ">
<polygon fill="white" stroke="#666666" points="776,-222 621,-222 621,-192 776,-192 776,-222"/>
<text text-anchor="start" x="629" y="-210" font-family="Helvetica,sans-Serif" font-size="10.00">dev.filechampion.filechampion4j.</text>
<text text-anchor="middle" x="698.5" y="-199" font-family="Helvetica,sans-Serif" font-size="10.00">FileValidator.isBlank</text>
</a>
</g>
</g>
<!-- Node3&#45;&gt;Node6 -->
<g id="edge5" class="edge">
<title>Node3&#45;&gt;Node6</title>
<path fill="none" stroke="#63b8ff" d="M585.37,-198.1C593.47,-198.74 601.75,-199.4 609.96,-200.05"/>
<polygon fill="#63b8ff" stroke="#63b8ff" points="609.45,-203.6 619.69,-200.9 610,-196.62 609.45,-203.6"/>
</g>
<!-- Node3&#45;&gt;Node7 -->
<g id="edge6" class="edge">
<title>Node3&#45;&gt;Node7</title>
<path fill="none" stroke="#63b8ff" d="M556.03,-176.51C565.85,-172.62 575.96,-168.08 585,-163 602.67,-153.07 603.04,-144.41 621,-135 623.93,-133.47 626.97,-132.01 630.08,-130.63"/>
<polygon fill="#63b8ff" stroke="#63b8ff" points="631.26,-133.52 639.19,-126.49 628.61,-127.04 631.26,-133.52"/>
</g>
<!-- Node4&#45;&gt;Node5 -->
<g id="edge4" class="edge">
<title>Node4&#45;&gt;Node5</title>
<path fill="none" stroke="#63b8ff" d="M754,-174.37C761.49,-176.98 769.01,-179.87 776,-183 804.56,-195.77 834.93,-214.18 856.91,-228.47"/>
<polygon fill="#63b8ff" stroke="#63b8ff" points="854.8,-231.93 865.08,-234.51 858.65,-226.09 854.8,-231.93"/>
</g>
<!-- Node9 -->
<g id="node9" class="node">
<title>Node9</title>
<g id="a_node9"><a xlink:href="classdev_1_1filechampion_1_1filechampion4j_1_1_extensions.html#a0b4d6f0065a4fc61701be6ab4103c441" target="_top" xlink:title=" ">
<polygon fill="white" stroke="#666666" points="776,-30 621,-30 621,0 776,0 776,-30"/>
<text text-anchor="start" x="629" y="-18" font-family="Helvetica,sans-Serif" font-size="10.00">dev.filechampion.filechampion4j.</text>
<text text-anchor="middle" x="698.5" y="-7" font-family="Helvetica,sans-Serif" font-size="10.00">Extensions.checkInputs</text>
</a>
</g>
</g>
<!-- Node8&#45;&gt;Node9 -->
<g id="edge9" class="edge">
<title>Node8&#45;&gt;Node9</title>
<path fill="none" stroke="#63b8ff" d="M569.34,-47.55C587.47,-42.94 607.49,-37.86 626.22,-33.1"/>
<polygon fill="#63b8ff" stroke="#63b8ff" points="626.94,-36.28 635.77,-30.42 625.22,-29.49 626.94,-36.28"/>
</g>
<!-- Node11 -->
<g id="node11" class="node">
<title>Node11</title>
<g id="a_node11"><a xlink:href="classdev_1_1filechampion_1_1filechampion4j_1_1_extensions.html#a0aada571ca5ffb1ca298874d2c0fac50" target="_top" xlink:title=" ">
<polygon fill="white" stroke="#666666" points="776,-78 621,-78 621,-48 776,-48 776,-78"/>
<text text-anchor="start" x="629" y="-66" font-family="Helvetica,sans-Serif" font-size="10.00">dev.filechampion.filechampion4j.</text>
<text text-anchor="middle" x="698.5" y="-55" font-family="Helvetica,sans-Serif" font-size="10.00">Extensions.logFine</text>
</a>
</g>
</g>
<!-- Node8&#45;&gt;Node11 -->
<g id="edge11" class="edge">
<title>Node8&#45;&gt;Node11</title>
<path fill="none" stroke="#63b8ff" d="M585.37,-63C593.47,-63 601.75,-63 609.96,-63"/>
<polygon fill="#63b8ff" stroke="#63b8ff" points="609.69,-66.5 619.69,-63 609.69,-59.5 609.69,-66.5"/>
</g>
<!-- Node10 -->
<g id="node10" class="node">
<title>Node10</title>
<g id="a_node10"><a xlink:href="classdev_1_1filechampion_1_1filechampion4j_1_1_extensions.html#adebd31331477fe200ec272ae4569f482" target="_top" xlink:title=" ">
<polygon fill="white" stroke="#666666" points="967,-30 812,-30 812,0 967,0 967,-30"/>
<text text-anchor="start" x="820" y="-18" font-family="Helvetica,sans-Serif" font-size="10.00">dev.filechampion.filechampion4j.</text>
<text text-anchor="middle" x="889.5" y="-7" font-family="Helvetica,sans-Serif" font-size="10.00">Extensions.logWarn</text>
</a>
</g>
</g>
<!-- Node9&#45;&gt;Node10 -->
<g id="edge10" class="edge">
<title>Node9&#45;&gt;Node10</title>
<path fill="none" stroke="#63b8ff" d="M776.37,-15C784.47,-15 792.75,-15 800.96,-15"/>
<polygon fill="#63b8ff" stroke="#63b8ff" points="800.69,-18.5 810.69,-15 800.69,-11.5 800.69,-18.5"/>
</g>
</g>
</svg>
