<?xml version="1.0" encoding="UTF-8" standalone="no"?>
<!DOCTYPE svg PUBLIC "-//W3C//DTD SVG 1.1//EN"
 "http://www.w3.org/Graphics/SVG/1.1/DTD/svg11.dtd">
<!-- Generated by graphviz version 8.0.3 (20230416.2022)
 -->
<!-- Title: dev.filechampion.filechampion4j.Extensions.getValidationValue Pages: 1 -->
<svg width="1412pt" height="558pt"
 viewBox="0.00 0.00 1412.00 558.02" xmlns="http://www.w3.org/2000/svg" xmlns:xlink="http://www.w3.org/1999/xlink">
<g id="graph0" class="graph" transform="scale(1 1) rotate(0) translate(4 554.02)">
<title>dev.filechampion.filechampion4j.Extensions.getValidationValue</title>
<!-- Node1 -->
<g id="node1" class="node">
<title>Node1</title>
<g id="a_node1"><a xlink:title=" ">
<polygon fill="#999999" stroke="#666666" points="1404,-306.23 1249,-306.23 1249,-276.23 1404,-276.23 1404,-306.23"/>
<text text-anchor="start" x="1257" y="-294.23" font-family="Helvetica,sans-Serif" font-size="10.00">dev.filechampion.filechampion4j.</text>
<text text-anchor="middle" x="1326.5" y="-283.23" font-family="Helvetica,sans-Serif" font-size="10.00">Extensions.getValidationValue</text>
</a>
</g>
</g>
<!-- Node2 -->
<g id="node2" class="node">
<title>Node2</title>
<g id="a_node2"><a xlink:href="classdev_1_1filechampion_1_1filechampion4j_1_1_validations_helper.html#a4b5f515c54272fa1c4f177ef05c4fffe" target="_top" xlink:title=" ">
<polygon fill="white" stroke="#666666" points="1187,-234.23 1030,-234.23 1030,-204.23 1187,-204.23 1187,-234.23"/>
<text text-anchor="start" x="1038" y="-222.23" font-family="Helvetica,sans-Serif" font-size="10.00">dev.filechampion.filechampion4j.</text>
<text text-anchor="middle" x="1108.5" y="-211.23" font-family="Helvetica,sans-Serif" font-size="10.00">ValidationsHelper.checkFileSize</text>
</a>
</g>
</g>
<!-- Node1&#45;&gt;Node2 -->
<g id="edge1" class="edge">
<title>Node1&#45;&gt;Node2</title>
<path fill="none" stroke="#63b8ff" d="M1283.75,-271.35C1262.84,-261.93 1236.94,-251.05 1213,-243.23 1203.53,-240.14 1193.45,-237.29 1183.44,-234.71"/>
<polygon fill="#63b8ff" stroke="#63b8ff" points="1282.03,-274.87 1292.58,-275.84 1284.94,-268.5 1282.03,-274.87"/>
</g>
<!-- Node4 -->
<g id="node4" class="node">
<title>Node4</title>
<g id="a_node4"><a xlink:href="classdev_1_1filechampion_1_1filechampion4j_1_1_validations_helper.html#a9722c4ec7eff7b6fc7b9747855770e10" target="_top" xlink:title=" ">
<polygon fill="white" stroke="#666666" points="771,-251.23 586,-251.23 586,-221.23 771,-221.23 771,-251.23"/>
<text text-anchor="start" x="594" y="-239.23" font-family="Helvetica,sans-Serif" font-size="10.00">dev.filechampion.filechampion4j.</text>
<text text-anchor="middle" x="678.5" y="-228.23" font-family="Helvetica,sans-Serif" font-size="10.00">ValidationsHelper.getValidationResults</text>
</a>
</g>
</g>
<!-- Node1&#45;&gt;Node4 -->
<g id="edge22" class="edge">
<title>Node1&#45;&gt;Node4</title>
<path fill="none" stroke="#63b8ff" d="M1306.69,-267.46C1286.45,-243.98 1251.88,-209.57 1213,-195.23 1040.86,-131.77 816.79,-190.63 723.38,-220.85"/>
<polygon fill="#63b8ff" stroke="#63b8ff" points="1304.62,-269.44 1313.72,-274.86 1309.99,-264.95 1304.62,-269.44"/>
</g>
<!-- Node5 -->
<g id="node5" class="node">
<title>Node5</title>
<g id="a_node5"><a xlink:href="classdev_1_1filechampion_1_1filechampion4j_1_1_file_validator.html#a48a54a63d062cd23af2d14a6af76899e" target="_top" xlink:title=" ">
<polygon fill="white" stroke="#666666" points="543.5,-251.23 388.5,-251.23 388.5,-221.23 543.5,-221.23 543.5,-251.23"/>
<text text-anchor="start" x="396.5" y="-239.23" font-family="Helvetica,sans-Serif" font-size="10.00">dev.filechampion.filechampion4j.</text>
<text text-anchor="middle" x="466" y="-228.23" font-family="Helvetica,sans-Serif" font-size="10.00">FileValidator.doValidations</text>
</a>
</g>
</g>
<!-- Node1&#45;&gt;Node5 -->
<g id="edge15" class="edge">
<title>Node1&#45;&gt;Node5</title>
<path fill="none" stroke="#63b8ff" d="M1312.8,-266.68C1295.19,-235.63 1260.11,-183.66 1213,-162.23 960.95,-47.61 612.61,-174.61 502.1,-220.8"/>
<polygon fill="#63b8ff" stroke="#63b8ff" points="1310.02,-267.88 1317.9,-274.96 1316.15,-264.51 1310.02,-267.88"/>
</g>
<!-- Node6 -->
<g id="node6" class="node">
<title>Node6</title>
<g id="a_node6"><a xlink:href="classdev_1_1filechampion_1_1filechampion4j_1_1_file_validator.html#a2ac42f051e5724b165e5b0234a1e23f4" target="_top" xlink:title=" ">
<polygon fill="white" stroke="#666666" points="346,-115.23 191,-115.23 191,-85.23 346,-85.23 346,-115.23"/>
<text text-anchor="start" x="199" y="-103.23" font-family="Helvetica,sans-Serif" font-size="10.00">dev.filechampion.filechampion4j.</text>
<text text-anchor="middle" x="268.5" y="-92.23" font-family="Helvetica,sans-Serif" font-size="10.00">FileValidator.validateFileMain</text>
</a>
</g>
</g>
<!-- Node1&#45;&gt;Node6 -->
<g id="edge25" class="edge">
<title>Node1&#45;&gt;Node6</title>
<path fill="none" stroke="#63b8ff" d="M1317.72,-265.48C1303.98,-225.06 1271.21,-147.87 1213,-114.23 1088,-42.02 1032.86,-100.23 888.5,-100.23 888.5,-100.23 888.5,-100.23 677.5,-100.23 562.04,-100.23 428.2,-100.23 346.2,-100.23"/>
<polygon fill="#63b8ff" stroke="#63b8ff" points="1314.67,-266.42 1321.1,-274.84 1321.32,-264.25 1314.67,-266.42"/>
</g>
<!-- Node8 -->
<g id="node8" class="node">
<title>Node8</title>
<g id="a_node8"><a xlink:href="classdev_1_1filechampion_1_1filechampion4j_1_1_validations_helper.html#a43b491bbdf4b6104d060386d4371753c" target="_top" xlink:title=" ">
<polygon fill="white" stroke="#666666" points="1192,-426.23 1025,-426.23 1025,-396.23 1192,-396.23 1192,-426.23"/>
<text text-anchor="start" x="1033" y="-414.23" font-family="Helvetica,sans-Serif" font-size="10.00">dev.filechampion.filechampion4j.</text>
<text text-anchor="middle" x="1108.5" y="-403.23" font-family="Helvetica,sans-Serif" font-size="10.00">ValidationsHelper.checkMimeType</text>
</a>
</g>
</g>
<!-- Node1&#45;&gt;Node8 -->
<g id="edge7" class="edge">
<title>Node1&#45;&gt;Node8</title>
<path fill="none" stroke="#63b8ff" d="M1304.87,-314.34C1283.9,-336.38 1249.39,-368.88 1213,-387.23 1206.49,-390.52 1199.53,-393.36 1192.41,-395.81"/>
<polygon fill="#63b8ff" stroke="#63b8ff" points="1306.97,-317.15 1311.23,-307.45 1301.85,-312.38 1306.97,-317.15"/>
</g>
<!-- Node9 -->
<g id="node9" class="node">
<title>Node9</title>
<g id="a_node9"><a xlink:href="classdev_1_1filechampion_1_1filechampion4j_1_1_validations_helper.html#a9c7f6f3159fef96d606ca0a6712b2165" target="_top" xlink:title=" ">
<polygon fill="white" stroke="#666666" points="1211.5,-378.23 1005.5,-378.23 1005.5,-348.23 1211.5,-348.23 1211.5,-378.23"/>
<text text-anchor="start" x="1013.5" y="-366.23" font-family="Helvetica,sans-Serif" font-size="10.00">dev.filechampion.filechampion4j.</text>
<text text-anchor="middle" x="1108.5" y="-355.23" font-family="Helvetica,sans-Serif" font-size="10.00">ValidationsHelper.containsFooterSignatures</text>
</a>
</g>
</g>
<!-- Node1&#45;&gt;Node9 -->
<g id="edge9" class="edge">
<title>Node1&#45;&gt;Node9</title>
<path fill="none" stroke="#63b8ff" d="M1283.75,-311.12C1262.84,-320.54 1236.94,-331.42 1213,-339.23 1203.53,-342.33 1193.45,-345.18 1183.44,-347.76"/>
<polygon fill="#63b8ff" stroke="#63b8ff" points="1284.94,-313.97 1292.58,-306.63 1282.03,-307.6 1284.94,-313.97"/>
</g>
<!-- Node10 -->
<g id="node10" class="node">
<title>Node10</title>
<g id="a_node10"><a xlink:href="classdev_1_1filechampion_1_1filechampion4j_1_1_validations_helper.html#aab316adeef5b3b9c80ef17bd05826582" target="_top" xlink:title=" ">
<polygon fill="white" stroke="#666666" points="1213,-330.23 1004,-330.23 1004,-300.23 1213,-300.23 1213,-330.23"/>
<text text-anchor="start" x="1012" y="-318.23" font-family="Helvetica,sans-Serif" font-size="10.00">dev.filechampion.filechampion4j.</text>
<text text-anchor="middle" x="1108.5" y="-307.23" font-family="Helvetica,sans-Serif" font-size="10.00">ValidationsHelper.containsHeaderSignatures</text>
</a>
</g>
</g>
<!-- Node1&#45;&gt;Node10 -->
<g id="edge11" class="edge">
<title>Node1&#45;&gt;Node10</title>
<path fill="none" stroke="#63b8ff" d="M1238.08,-300.95C1229.89,-301.86 1221.53,-302.79 1213.21,-303.71"/>
<polygon fill="#63b8ff" stroke="#63b8ff" points="1238.19,-304.35 1247.74,-299.76 1237.41,-297.39 1238.19,-304.35"/>
</g>
<!-- Node11 -->
<g id="node11" class="node">
<title>Node11</title>
<g id="a_node11"><a xlink:href="classdev_1_1filechampion_1_1filechampion4j_1_1_validations_helper.html#a480b1c09382ee05e547a68c7eed8e2ed" target="_top" xlink:title=" ">
<polygon fill="white" stroke="#666666" points="1200.5,-282.23 1016.5,-282.23 1016.5,-252.23 1200.5,-252.23 1200.5,-282.23"/>
<text text-anchor="start" x="1024.5" y="-270.23" font-family="Helvetica,sans-Serif" font-size="10.00">dev.filechampion.filechampion4j.</text>
<text text-anchor="middle" x="1108.5" y="-259.23" font-family="Helvetica,sans-Serif" font-size="10.00">ValidationsHelper.containsMagicBytes</text>
</a>
</g>
</g>
<!-- Node1&#45;&gt;Node11 -->
<g id="edge13" class="edge">
<title>Node1&#45;&gt;Node11</title>
<path fill="none" stroke="#63b8ff" d="M1238.06,-281.52C1225.78,-280.16 1213.14,-278.75 1200.79,-277.38"/>
<polygon fill="#63b8ff" stroke="#63b8ff" points="1237.41,-285.08 1247.74,-282.71 1238.19,-278.12 1237.41,-285.08"/>
</g>
<!-- Node12 -->
<g id="node12" class="node">
<title>Node12</title>
<g id="a_node12"><a xlink:href="classdev_1_1filechampion_1_1filechampion4j_1_1_file_validator.html#aac29042353654b8f6c3975ae885da151" target="_top" xlink:title=" ">
<polygon fill="white" stroke="#666666" points="968,-512.23 807,-512.23 807,-482.23 968,-482.23 968,-512.23"/>
<text text-anchor="start" x="815" y="-500.23" font-family="Helvetica,sans-Serif" font-size="10.00">dev.filechampion.filechampion4j.</text>
<text text-anchor="middle" x="887.5" y="-489.23" font-family="Helvetica,sans-Serif" font-size="10.00">FileValidator.executeAfterPlugins</text>
</a>
</g>
</g>
<!-- Node1&#45;&gt;Node12 -->
<g id="edge16" class="edge">
<title>Node1&#45;&gt;Node12</title>
<path fill="none" stroke="#63b8ff" d="M1321.76,-317.22C1313.01,-367.15 1286.12,-475.6 1213,-521.23 1122.18,-577.91 988.01,-537.53 924.43,-512.73"/>
<polygon fill="#63b8ff" stroke="#63b8ff" points="1325.32,-318.11 1323.49,-307.67 1318.42,-316.98 1325.32,-318.11"/>
</g>
<!-- Node13 -->
<g id="node13" class="node">
<title>Node13</title>
<g id="a_node13"><a xlink:href="classdev_1_1filechampion_1_1filechampion4j_1_1_file_validator.html#aa9bf0e018f1c94b78ea2e8e3c12eafdd" target="_top" xlink:title=" ">
<polygon fill="white" stroke="#666666" points="1207,-512.23 1010,-512.23 1010,-482.23 1207,-482.23 1207,-512.23"/>
<text text-anchor="start" x="1018" y="-500.23" font-family="Helvetica,sans-Serif" font-size="10.00">dev.filechampion.filechampion4j.</text>
<text text-anchor="middle" x="1108.5" y="-489.23" font-family="Helvetica,sans-Serif" font-size="10.00">FileValidator.executeAfterPluginsProcess</text>
</a>
</g>
</g>
<!-- Node1&#45;&gt;Node13 -->
<g id="edge18" class="edge">
<title>Node1&#45;&gt;Node13</title>
<path fill="none" stroke="#63b8ff" d="M1316.27,-316.63C1300.92,-355.28 1266.43,-428.54 1213,-468.23 1205.58,-473.74 1197.17,-478.21 1188.41,-481.82"/>
<polygon fill="#63b8ff" stroke="#63b8ff" points="1319.77,-318.29 1320.1,-307.7 1313.24,-315.78 1319.77,-318.29"/>
</g>
<!-- Node14 -->
<g id="node14" class="node">
<title>Node14</title>
<g id="a_node14"><a xlink:href="classdev_1_1filechampion_1_1filechampion4j_1_1_file_validator.html#a617f3b8be7835bbb96df357a412d1bbf" target="_top" xlink:title=" ">
<polygon fill="white" stroke="#666666" points="550,-72.23 382,-72.23 382,-42.23 550,-42.23 550,-72.23"/>
<text text-anchor="start" x="390" y="-60.23" font-family="Helvetica,sans-Serif" font-size="10.00">dev.filechampion.filechampion4j.</text>
<text text-anchor="middle" x="466" y="-49.23" font-family="Helvetica,sans-Serif" font-size="10.00">FileValidator.executeBeforePlugins</text>
</a>
</g>
</g>
<!-- Node1&#45;&gt;Node14 -->
<g id="edge20" class="edge">
<title>Node1&#45;&gt;Node14</title>
<path fill="none" stroke="#63b8ff" d="M1319.99,-265.41C1308.77,-219.99 1278.57,-126.79 1213,-86.23 991.15,50.96 657.08,-9.63 524.33,-41.82"/>
<polygon fill="#63b8ff" stroke="#63b8ff" points="1316.75,-265.93 1322.44,-274.86 1323.56,-264.33 1316.75,-265.93"/>
</g>
<!-- Node15 -->
<g id="node15" class="node">
<title>Node15</title>
<g id="a_node15"><a xlink:href="classdev_1_1filechampion_1_1filechampion4j_1_1_file_validator.html#a46f8dcb76a6e9b52838092b4c80b9d26" target="_top" xlink:title=" ">
<polygon fill="white" stroke="#666666" points="759,-384.23 598,-384.23 598,-354.23 759,-354.23 759,-384.23"/>
<text text-anchor="start" x="606" y="-372.23" font-family="Helvetica,sans-Serif" font-size="10.00">dev.filechampion.filechampion4j.</text>
<text text-anchor="middle" x="678.5" y="-361.23" font-family="Helvetica,sans-Serif" font-size="10.00">FileValidator.saveFileToOutputDir</text>
</a>
</g>
</g>
<!-- Node1&#45;&gt;Node15 -->
<g id="edge23" class="edge">
<title>Node1&#45;&gt;Node15</title>
<path fill="none" stroke="#63b8ff" d="M1314.81,-315.99C1298.52,-350.17 1263.91,-410.41 1213,-435.23 1129.51,-475.96 1096.42,-444.54 1004,-435.23 979.22,-432.74 839.36,-403.39 751.53,-384.68"/>
<polygon fill="#63b8ff" stroke="#63b8ff" points="1318.28,-317.84 1319.28,-307.29 1311.92,-314.91 1318.28,-317.84"/>
</g>
<!-- Node3 -->
<g id="node3" class="node">
<title>Node3</title>
<g id="a_node3"><a xlink:href="classdev_1_1filechampion_1_1filechampion4j_1_1_validations_helper.html#acf58dbbd1e656f17a402e2856c6c9279" target="_top" xlink:title=" ">
<polygon fill="white" stroke="#666666" points="965,-306.23 810,-306.23 810,-276.23 965,-276.23 965,-306.23"/>
<text text-anchor="start" x="818" y="-294.23" font-family="Helvetica,sans-Serif" font-size="10.00">dev.filechampion.filechampion4j.</text>
<text text-anchor="middle" x="887.5" y="-283.23" font-family="Helvetica,sans-Serif" font-size="10.00">ValidationsHelper.doValidations</text>
</a>
</g>
</g>
<!-- Node2&#45;&gt;Node3 -->
<g id="edge2" class="edge">
<title>Node2&#45;&gt;Node3</title>
<path fill="none" stroke="#63b8ff" d="M1023.44,-237.48C1016.83,-239.29 1010.28,-241.22 1004,-243.23 975.47,-252.4 944.14,-265.63 921.31,-275.88"/>
<polygon fill="#63b8ff" stroke="#63b8ff" points="1024.09,-240.66 1032.86,-234.72 1022.3,-233.9 1024.09,-240.66"/>
</g>
<!-- Node3&#45;&gt;Node4 -->
<g id="edge3" class="edge">
<title>Node3&#45;&gt;Node4</title>
<path fill="none" stroke="#63b8ff" d="M817.76,-272.97C791.8,-266.07 762.53,-258.3 737.63,-251.68"/>
<polygon fill="#63b8ff" stroke="#63b8ff" points="816.72,-276.58 827.29,-275.77 818.52,-269.82 816.72,-276.58"/>
</g>
<!-- Node4&#45;&gt;Node5 -->
<g id="edge4" class="edge">
<title>Node4&#45;&gt;Node5</title>
<path fill="none" stroke="#63b8ff" d="M574.94,-236.23C564.5,-236.23 554.03,-236.23 543.94,-236.23"/>
<polygon fill="#63b8ff" stroke="#63b8ff" points="574.78,-239.73 584.78,-236.23 574.78,-232.73 574.78,-239.73"/>
</g>
<!-- Node5&#45;&gt;Node6 -->
<g id="edge5" class="edge">
<title>Node5&#45;&gt;Node6</title>
<path fill="none" stroke="#63b8ff" d="M433.99,-214.66C394.34,-187.08 326.66,-140 291.77,-115.72"/>
<polygon fill="#63b8ff" stroke="#63b8ff" points="431.75,-218.06 441.95,-220.9 435.74,-212.31 431.75,-218.06"/>
</g>
<!-- Node7 -->
<g id="node7" class="node">
<title>Node7</title>
<g id="a_node7"><a xlink:href="classdev_1_1filechampion_1_1filechampion4j_1_1_file_validator.html#a492adb6357ac22bea8b79d036aa2a287" target="_top" xlink:title=" ">
<polygon fill="white" stroke="#666666" points="155,-115.23 0,-115.23 0,-85.23 155,-85.23 155,-115.23"/>
<text text-anchor="start" x="8" y="-103.23" font-family="Helvetica,sans-Serif" font-size="10.00">dev.filechampion.filechampion4j.</text>
<text text-anchor="middle" x="77.5" y="-92.23" font-family="Helvetica,sans-Serif" font-size="10.00">FileValidator.validateFile</text>
</a>
</g>
</g>
<!-- Node6&#45;&gt;Node7 -->
<g id="edge6" class="edge">
<title>Node6&#45;&gt;Node7</title>
<path fill="none" stroke="#63b8ff" d="M179.89,-100.23C171.68,-100.23 163.41,-100.23 155.31,-100.23"/>
<polygon fill="#63b8ff" stroke="#63b8ff" points="179.63,-103.73 189.63,-100.23 179.63,-96.73 179.63,-103.73"/>
</g>
<!-- Node8&#45;&gt;Node3 -->
<g id="edge8" class="edge">
<title>Node8&#45;&gt;Node3</title>
<path fill="none" stroke="#63b8ff" d="M1014.88,-392.1C1011.15,-390.6 1007.51,-388.98 1004,-387.23 962.19,-366.49 922.38,-327.82 902.21,-306.43"/>
<polygon fill="#63b8ff" stroke="#63b8ff" points="1013.31,-395.62 1023.91,-395.81 1015.75,-389.06 1013.31,-395.62"/>
</g>
<!-- Node9&#45;&gt;Node3 -->
<g id="edge10" class="edge">
<title>Node9&#45;&gt;Node3</title>
<path fill="none" stroke="#63b8ff" d="M1023.44,-344.99C1016.83,-343.18 1010.28,-341.25 1004,-339.23 975.47,-330.07 944.14,-316.84 921.31,-306.59"/>
<polygon fill="#63b8ff" stroke="#63b8ff" points="1022.3,-348.57 1032.86,-347.75 1024.09,-341.81 1022.3,-348.57"/>
</g>
<!-- Node10&#45;&gt;Node3 -->
<g id="edge12" class="edge">
<title>Node10&#45;&gt;Node3</title>
<path fill="none" stroke="#63b8ff" d="M992.85,-302.67C983.55,-301.65 974.3,-300.64 965.37,-299.66"/>
<polygon fill="#63b8ff" stroke="#63b8ff" points="992.45,-306.26 1002.77,-303.87 993.21,-299.3 992.45,-306.26"/>
</g>
<!-- Node11&#45;&gt;Node3 -->
<g id="edge14" class="edge">
<title>Node11&#45;&gt;Node3</title>
<path fill="none" stroke="#63b8ff" d="M1005.45,-278.42C991.98,-279.9 978.35,-281.39 965.39,-282.81"/>
<polygon fill="#63b8ff" stroke="#63b8ff" points="1005.65,-281.81 1015.21,-277.24 1004.89,-274.85 1005.65,-281.81"/>
</g>
<!-- Node12&#45;&gt;Node5 -->
<g id="edge17" class="edge">
<title>Node12&#45;&gt;Node5</title>
<path fill="none" stroke="#63b8ff" d="M796.43,-480.62C733.08,-465.64 648.75,-438.77 586,-393.23 531.74,-353.87 490.81,-282.75 474.61,-251.58"/>
<polygon fill="#63b8ff" stroke="#63b8ff" points="795.28,-484.18 805.81,-483.02 796.86,-477.36 795.28,-484.18"/>
</g>
<!-- Node13&#45;&gt;Node12 -->
<g id="edge19" class="edge">
<title>Node13&#45;&gt;Node12</title>
<path fill="none" stroke="#63b8ff" d="M998.84,-497.23C988.56,-497.23 978.27,-497.23 968.34,-497.23"/>
<polygon fill="#63b8ff" stroke="#63b8ff" points="998.53,-500.73 1008.53,-497.23 998.53,-493.73 998.53,-500.73"/>
</g>
<!-- Node14&#45;&gt;Node6 -->
<g id="edge21" class="edge">
<title>Node14&#45;&gt;Node6</title>
<path fill="none" stroke="#63b8ff" d="M384.11,-75.03C369.41,-78.26 354.2,-81.61 339.84,-84.76"/>
<polygon fill="#63b8ff" stroke="#63b8ff" points="384.68,-78.26 393.7,-72.7 383.18,-71.43 384.68,-78.26"/>
</g>
<!-- Node15&#45;&gt;Node5 -->
<g id="edge24" class="edge">
<title>Node15&#45;&gt;Node5</title>
<path fill="none" stroke="#63b8ff" d="M644.26,-348.23C601.8,-321.4 529.29,-275.59 491.51,-251.72"/>
<polygon fill="#63b8ff" stroke="#63b8ff" points="642.03,-351.6 652.35,-353.98 645.77,-345.68 642.03,-351.6"/>
</g>
</g>
</svg>
