<?xml version="1.0" encoding="UTF-8" standalone="no"?>
<!DOCTYPE svg PUBLIC "-//W3C//DTD SVG 1.1//EN"
 "http://www.w3.org/Graphics/SVG/1.1/DTD/svg11.dtd">
<!-- Generated by graphviz version 8.0.3 (20230416.2022)
 -->
<!-- Title: dev.filechampion.filechampion4j.PluginsHelper.getPluginConfigs Pages: 1 -->
<svg width="408pt" height="866pt"
 viewBox="0.00 0.00 408.00 866.00" xmlns="http://www.w3.org/2000/svg" xmlns:xlink="http://www.w3.org/1999/xlink">
<g id="graph0" class="graph" transform="scale(1 1) rotate(0) translate(4 862)">
<title>dev.filechampion.filechampion4j.PluginsHelper.getPluginConfigs</title>
<!-- Node1 -->
<g id="node1" class="node">
<title>Node1</title>
<g id="a_node1"><a xlink:title=" ">
<polygon fill="#999999" stroke="#666666" points="155,-450 0,-450 0,-420 155,-420 155,-450"/>
<text text-anchor="start" x="8" y="-438" font-family="Helvetica,sans-Serif" font-size="10.00">dev.filechampion.filechampion4j.</text>
<text text-anchor="middle" x="77.5" y="-427" font-family="Helvetica,sans-Serif" font-size="10.00">PluginsHelper.getPluginConfigs</text>
</a>
</g>
</g>
<!-- Node2 -->
<g id="node2" class="node">
<title>Node2</title>
<g id="a_node2"><a xlink:href="classdev_1_1filechampion_1_1filechampion4j_1_1_plugins_helper_1_1_step_config.html#ab8380ddb3c9b1838f23cfd3f9f99a7a7" target="_top" xlink:title=" ">
<polygon fill="white" stroke="#666666" points="377.5,-858 213.5,-858 213.5,-828 377.5,-828 377.5,-858"/>
<text text-anchor="start" x="221.5" y="-846" font-family="Helvetica,sans-Serif" font-size="10.00">dev.filechampion.filechampion4j.</text>
<text text-anchor="middle" x="295.5" y="-835" font-family="Helvetica,sans-Serif" font-size="10.00">PluginsHelper.StepConfig.getType</text>
</a>
</g>
</g>
<!-- Node1&#45;&gt;Node2 -->
<g id="edge1" class="edge">
<title>Node1&#45;&gt;Node2</title>
<path fill="none" stroke="#63b8ff" d="M77.94,-450.2C76.7,-507.78 80.39,-714.54 191,-819 194.78,-822.57 198.99,-825.65 203.48,-828.29"/>
<polygon fill="#63b8ff" stroke="#63b8ff" points="201.54,-831.74 212.04,-833.14 204.71,-825.5 201.54,-831.74"/>
</g>
<!-- Node3 -->
<g id="node3" class="node">
<title>Node3</title>
<g id="a_node3"><a xlink:href="classdev_1_1filechampion_1_1filechampion4j_1_1_plugins_helper_1_1_step_config.html#ab0234d43f0445aaf37e40d9726b18a71" target="_top" xlink:title=" ">
<polygon fill="white" stroke="#666666" points="378.5,-810 212.5,-810 212.5,-780 378.5,-780 378.5,-810"/>
<text text-anchor="start" x="220.5" y="-798" font-family="Helvetica,sans-Serif" font-size="10.00">dev.filechampion.filechampion4j.</text>
<text text-anchor="middle" x="295.5" y="-787" font-family="Helvetica,sans-Serif" font-size="10.00">PluginsHelper.StepConfig.setBody</text>
</a>
</g>
</g>
<!-- Node1&#45;&gt;Node3 -->
<g id="edge2" class="edge">
<title>Node1&#45;&gt;Node3</title>
<path fill="none" stroke="#63b8ff" d="M78.68,-450.5C80.18,-503.87 92.68,-681.62 191,-771 194.59,-774.26 198.54,-777.11 202.72,-779.59"/>
<polygon fill="#63b8ff" stroke="#63b8ff" points="200.75,-783.02 211.24,-784.46 203.93,-776.79 200.75,-783.02"/>
</g>
<!-- Node4 -->
<g id="node4" class="node">
<title>Node4</title>
<g id="a_node4"><a xlink:href="classdev_1_1filechampion_1_1filechampion4j_1_1_plugins_helper_1_1_step_config.html#aaef3dc01014c5c74d3b115936a2273f2" target="_top" xlink:title=" ">
<polygon fill="white" stroke="#666666" points="400,-762 191,-762 191,-732 400,-732 400,-762"/>
<text text-anchor="start" x="199" y="-750" font-family="Helvetica,sans-Serif" font-size="10.00">dev.filechampion.filechampion4j.</text>
<text text-anchor="middle" x="295.5" y="-739" font-family="Helvetica,sans-Serif" font-size="10.00">PluginsHelper.StepConfig.setCliPluginHelper</text>
</a>
</g>
</g>
<!-- Node1&#45;&gt;Node4 -->
<g id="edge3" class="edge">
<title>Node1&#45;&gt;Node4</title>
<path fill="none" stroke="#63b8ff" d="M79.64,-450.32C84.07,-498.5 104.52,-648.2 191,-723 192.06,-723.92 193.15,-724.8 194.26,-725.65"/>
<polygon fill="#63b8ff" stroke="#63b8ff" points="191.98,-728.99 202.25,-731.57 195.82,-723.15 191.98,-728.99"/>
</g>
<!-- Node5 -->
<g id="node5" class="node">
<title>Node5</title>
<g id="a_node5"><a xlink:href="classdev_1_1filechampion_1_1filechampion4j_1_1_plugins_helper_1_1_step_config.html#a6af511bdc0851e573a194a8a57946292" target="_top" xlink:title=" ">
<polygon fill="white" stroke="#666666" points="390,-714 201,-714 201,-684 390,-684 390,-714"/>
<text text-anchor="start" x="209" y="-702" font-family="Helvetica,sans-Serif" font-size="10.00">dev.filechampion.filechampion4j.</text>
<text text-anchor="middle" x="295.5" y="-691" font-family="Helvetica,sans-Serif" font-size="10.00">PluginsHelper.StepConfig.setCredsPath</text>
</a>
</g>
</g>
<!-- Node1&#45;&gt;Node5 -->
<g id="edge4" class="edge">
<title>Node1&#45;&gt;Node5</title>
<path fill="none" stroke="#63b8ff" d="M80.98,-450.49C88.69,-493.41 116.4,-614.66 191,-675 192.25,-676.02 193.54,-676.99 194.87,-677.92"/>
<polygon fill="#63b8ff" stroke="#63b8ff" points="192.65,-681.28 203,-683.53 196.31,-675.31 192.65,-681.28"/>
</g>
<!-- Node6 -->
<g id="node6" class="node">
<title>Node6</title>
<g id="a_node6"><a xlink:href="classdev_1_1filechampion_1_1filechampion4j_1_1_plugins_helper_1_1_step_config.html#abdd5d69730eaced237893b1e50a20769" target="_top" xlink:title=" ">
<polygon fill="white" stroke="#666666" points="386.5,-666 204.5,-666 204.5,-636 386.5,-636 386.5,-666"/>
<text text-anchor="start" x="212.5" y="-654" font-family="Helvetica,sans-Serif" font-size="10.00">dev.filechampion.filechampion4j.</text>
<text text-anchor="middle" x="295.5" y="-643" font-family="Helvetica,sans-Serif" font-size="10.00">PluginsHelper.StepConfig.setEndpoint</text>
</a>
</g>
</g>
<!-- Node1&#45;&gt;Node6 -->
<g id="edge5" class="edge">
<title>Node1&#45;&gt;Node6</title>
<path fill="none" stroke="#63b8ff" d="M82.85,-450.3C94.1,-487.03 127.83,-580.52 191,-627 192.67,-628.23 194.4,-629.4 196.17,-630.51"/>
<polygon fill="#63b8ff" stroke="#63b8ff" points="193.91,-633.81 204.35,-635.58 197.29,-627.68 193.91,-633.81"/>
</g>
<!-- Node7 -->
<g id="node7" class="node">
<title>Node7</title>
<g id="a_node7"><a xlink:href="classdev_1_1filechampion_1_1filechampion4j_1_1_plugins_helper_1_1_step_config.html#a092c6bb956bcbb8ccd9e383a854238f3" target="_top" xlink:title=" ">
<polygon fill="white" stroke="#666666" points="385,-618 206,-618 206,-588 385,-588 385,-618"/>
<text text-anchor="start" x="214" y="-606" font-family="Helvetica,sans-Serif" font-size="10.00">dev.filechampion.filechampion4j.</text>
<text text-anchor="middle" x="295.5" y="-595" font-family="Helvetica,sans-Serif" font-size="10.00">PluginsHelper.StepConfig.setHeaders</text>
</a>
</g>
</g>
<!-- Node1&#45;&gt;Node7 -->
<g id="edge6" class="edge">
<title>Node1&#45;&gt;Node7</title>
<path fill="none" stroke="#63b8ff" d="M85.97,-450.42C101.26,-480.27 139.11,-545.91 191,-579 193.17,-580.38 195.4,-581.68 197.69,-582.91"/>
<polygon fill="#63b8ff" stroke="#63b8ff" points="195.87,-586.39 206.4,-587.54 198.88,-580.08 195.87,-586.39"/>
</g>
<!-- Node8 -->
<g id="node8" class="node">
<title>Node8</title>
<g id="a_node8"><a xlink:href="classdev_1_1filechampion_1_1filechampion4j_1_1_plugins_helper_1_1_step_config.html#ae9231315c8a10682974cfef4d367e7e8" target="_top" xlink:title=" ">
<polygon fill="white" stroke="#666666" points="395.5,-570 195.5,-570 195.5,-540 395.5,-540 395.5,-570"/>
<text text-anchor="start" x="203.5" y="-558" font-family="Helvetica,sans-Serif" font-size="10.00">dev.filechampion.filechampion4j.</text>
<text text-anchor="middle" x="295.5" y="-547" font-family="Helvetica,sans-Serif" font-size="10.00">PluginsHelper.StepConfig.setHttpFailCode</text>
</a>
</g>
</g>
<!-- Node1&#45;&gt;Node8 -->
<g id="edge7" class="edge">
<title>Node1&#45;&gt;Node8</title>
<path fill="none" stroke="#63b8ff" d="M91.77,-450.21C111.31,-471.61 149.96,-510.3 191,-531 194.35,-532.69 197.83,-534.27 201.39,-535.73"/>
<polygon fill="#63b8ff" stroke="#63b8ff" points="200,-539.33 210.59,-539.58 202.47,-532.78 200,-539.33"/>
</g>
<!-- Node9 -->
<g id="node9" class="node">
<title>Node9</title>
<g id="a_node9"><a xlink:href="classdev_1_1filechampion_1_1filechampion4j_1_1_plugins_helper_1_1_step_config.html#a8965e3b56f3650e4d47126b5b23c84f3" target="_top" xlink:title=" ">
<polygon fill="white" stroke="#666666" points="398.5,-522 192.5,-522 192.5,-492 398.5,-492 398.5,-522"/>
<text text-anchor="start" x="200.5" y="-510" font-family="Helvetica,sans-Serif" font-size="10.00">dev.filechampion.filechampion4j.</text>
<text text-anchor="middle" x="295.5" y="-499" font-family="Helvetica,sans-Serif" font-size="10.00">PluginsHelper.StepConfig.setHttpPassCode</text>
</a>
</g>
</g>
<!-- Node1&#45;&gt;Node9 -->
<g id="edge8" class="edge">
<title>Node1&#45;&gt;Node9</title>
<path fill="none" stroke="#63b8ff" d="M110.42,-450.4C132.63,-460.67 163.14,-473.91 191,-483 197.21,-485.03 203.69,-486.96 210.24,-488.77"/>
<polygon fill="#63b8ff" stroke="#63b8ff" points="208.99,-492.33 219.56,-491.53 210.8,-485.56 208.99,-492.33"/>
</g>
<!-- Node10 -->
<g id="node10" class="node">
<title>Node10</title>
<g id="a_node10"><a xlink:href="classdev_1_1filechampion_1_1filechampion4j_1_1_plugins_helper_1_1_step_config.html#a02efd84125da95d860a7467040259e4b" target="_top" xlink:title=" ">
<polygon fill="white" stroke="#666666" points="383.5,-474 207.5,-474 207.5,-444 383.5,-444 383.5,-474"/>
<text text-anchor="start" x="215.5" y="-462" font-family="Helvetica,sans-Serif" font-size="10.00">dev.filechampion.filechampion4j.</text>
<text text-anchor="middle" x="295.5" y="-451" font-family="Helvetica,sans-Serif" font-size="10.00">PluginsHelper.StepConfig.setMethod</text>
</a>
</g>
</g>
<!-- Node1&#45;&gt;Node10 -->
<g id="edge9" class="edge">
<title>Node1&#45;&gt;Node10</title>
<path fill="none" stroke="#63b8ff" d="M155.26,-443.53C168.69,-445.02 182.83,-446.59 196.74,-448.14"/>
<polygon fill="#63b8ff" stroke="#63b8ff" points="195.99,-451.69 206.31,-449.31 196.76,-444.73 195.99,-451.69"/>
</g>
<!-- Node11 -->
<g id="node11" class="node">
<title>Node11</title>
<g id="a_node11"><a xlink:href="classdev_1_1filechampion_1_1filechampion4j_1_1_plugins_helper_1_1_plugin_config.html#ac0608d0e9d629fcef3fb1ca0d7875530" target="_top" xlink:title=" ">
<polygon fill="white" stroke="#666666" points="383.5,-426 207.5,-426 207.5,-396 383.5,-396 383.5,-426"/>
<text text-anchor="start" x="215.5" y="-414" font-family="Helvetica,sans-Serif" font-size="10.00">dev.filechampion.filechampion4j.</text>
<text text-anchor="middle" x="295.5" y="-403" font-family="Helvetica,sans-Serif" font-size="10.00">PluginsHelper.PluginConfig.setName</text>
</a>
</g>
</g>
<!-- Node1&#45;&gt;Node11 -->
<g id="edge10" class="edge">
<title>Node1&#45;&gt;Node11</title>
<path fill="none" stroke="#63b8ff" d="M155.26,-426.47C168.69,-424.98 182.83,-423.41 196.74,-421.86"/>
<polygon fill="#63b8ff" stroke="#63b8ff" points="196.76,-425.27 206.31,-420.69 195.99,-418.31 196.76,-425.27"/>
</g>
<!-- Node12 -->
<g id="node12" class="node">
<title>Node12</title>
<g id="a_node12"><a xlink:href="classdev_1_1filechampion_1_1filechampion4j_1_1_plugins_helper_1_1_step_config.html#a3ffb66b59c09bacb56d5950a16458d84" target="_top" xlink:title=" ">
<polygon fill="white" stroke="#666666" points="380,-378 211,-378 211,-348 380,-348 380,-378"/>
<text text-anchor="start" x="219" y="-366" font-family="Helvetica,sans-Serif" font-size="10.00">dev.filechampion.filechampion4j.</text>
<text text-anchor="middle" x="295.5" y="-355" font-family="Helvetica,sans-Serif" font-size="10.00">PluginsHelper.StepConfig.setName</text>
</a>
</g>
</g>
<!-- Node1&#45;&gt;Node12 -->
<g id="edge11" class="edge">
<title>Node1&#45;&gt;Node12</title>
<path fill="none" stroke="#63b8ff" d="M110.42,-419.6C132.63,-409.33 163.14,-396.09 191,-387 197.21,-384.97 203.69,-383.04 210.24,-381.23"/>
<polygon fill="#63b8ff" stroke="#63b8ff" points="210.8,-384.44 219.56,-378.47 208.99,-377.67 210.8,-384.44"/>
</g>
<!-- Node13 -->
<g id="node13" class="node">
<title>Node13</title>
<g id="a_node13"><a xlink:href="classdev_1_1filechampion_1_1filechampion4j_1_1_plugins_helper_1_1_step_config.html#a383af20d4c40ba225d81b1c9aa7cff6a" target="_top" xlink:title=" ">
<polygon fill="white" stroke="#666666" points="381.5,-330 209.5,-330 209.5,-300 381.5,-300 381.5,-330"/>
<text text-anchor="start" x="217.5" y="-318" font-family="Helvetica,sans-Serif" font-size="10.00">dev.filechampion.filechampion4j.</text>
<text text-anchor="middle" x="295.5" y="-307" font-family="Helvetica,sans-Serif" font-size="10.00">PluginsHelper.StepConfig.setOnFail</text>
</a>
</g>
</g>
<!-- Node1&#45;&gt;Node13 -->
<g id="edge12" class="edge">
<title>Node1&#45;&gt;Node13</title>
<path fill="none" stroke="#63b8ff" d="M91.77,-419.79C111.31,-398.39 149.96,-359.7 191,-339 194.35,-337.31 197.83,-335.73 201.39,-334.27"/>
<polygon fill="#63b8ff" stroke="#63b8ff" points="202.47,-337.22 210.59,-330.42 200,-330.67 202.47,-337.22"/>
</g>
<!-- Node14 -->
<g id="node14" class="node">
<title>Node14</title>
<g id="a_node14"><a xlink:href="classdev_1_1filechampion_1_1filechampion4j_1_1_plugins_helper_1_1_step_config.html#a848f08055cadb9eae55c68893b847cc6" target="_top" xlink:title=" ">
<polygon fill="white" stroke="#666666" points="389,-282 202,-282 202,-252 389,-252 389,-282"/>
<text text-anchor="start" x="210" y="-270" font-family="Helvetica,sans-Serif" font-size="10.00">dev.filechampion.filechampion4j.</text>
<text text-anchor="middle" x="295.5" y="-259" font-family="Helvetica,sans-Serif" font-size="10.00">PluginsHelper.StepConfig.setResponse</text>
</a>
</g>
</g>
<!-- Node1&#45;&gt;Node14 -->
<g id="edge13" class="edge">
<title>Node1&#45;&gt;Node14</title>
<path fill="none" stroke="#63b8ff" d="M85.97,-419.58C101.26,-389.73 139.11,-324.09 191,-291 193.17,-289.62 195.4,-288.32 197.69,-287.09"/>
<polygon fill="#63b8ff" stroke="#63b8ff" points="198.88,-289.92 206.4,-282.46 195.87,-283.61 198.88,-289.92"/>
</g>
<!-- Node15 -->
<g id="node15" class="node">
<title>Node15</title>
<g id="a_node15"><a xlink:href="classdev_1_1filechampion_1_1filechampion4j_1_1_plugins_helper_1_1_step_config.html#ac6291b12c2af1efb49e5744b51ec9d4d" target="_top" xlink:title=" ">
<polygon fill="white" stroke="#666666" points="386,-234 205,-234 205,-204 386,-204 386,-234"/>
<text text-anchor="start" x="213" y="-222" font-family="Helvetica,sans-Serif" font-size="10.00">dev.filechampion.filechampion4j.</text>
<text text-anchor="middle" x="295.5" y="-211" font-family="Helvetica,sans-Serif" font-size="10.00">PluginsHelper.StepConfig.setRunAfter</text>
</a>
</g>
</g>
<!-- Node1&#45;&gt;Node15 -->
<g id="edge14" class="edge">
<title>Node1&#45;&gt;Node15</title>
<path fill="none" stroke="#63b8ff" d="M82.85,-419.7C94.1,-382.97 127.83,-289.48 191,-243 192.67,-241.77 194.4,-240.6 196.17,-239.49"/>
<polygon fill="#63b8ff" stroke="#63b8ff" points="197.29,-242.32 204.35,-234.42 193.91,-236.19 197.29,-242.32"/>
</g>
<!-- Node16 -->
<g id="node16" class="node">
<title>Node16</title>
<g id="a_node16"><a xlink:href="classdev_1_1filechampion_1_1filechampion4j_1_1_plugins_helper_1_1_step_config.html#a7f2db0d9efe3c081f3c992618f023463" target="_top" xlink:title=" ">
<polygon fill="white" stroke="#666666" points="389.5,-186 201.5,-186 201.5,-156 389.5,-156 389.5,-186"/>
<text text-anchor="start" x="209.5" y="-174" font-family="Helvetica,sans-Serif" font-size="10.00">dev.filechampion.filechampion4j.</text>
<text text-anchor="middle" x="295.5" y="-163" font-family="Helvetica,sans-Serif" font-size="10.00">PluginsHelper.StepConfig.setRunBefore</text>
</a>
</g>
</g>
<!-- Node1&#45;&gt;Node16 -->
<g id="edge15" class="edge">
<title>Node1&#45;&gt;Node16</title>
<path fill="none" stroke="#63b8ff" d="M80.98,-419.51C88.69,-376.59 116.4,-255.34 191,-195 192.25,-193.98 193.54,-193.01 194.87,-192.08"/>
<polygon fill="#63b8ff" stroke="#63b8ff" points="196.31,-194.69 203,-186.47 192.65,-188.72 196.31,-194.69"/>
</g>
<!-- Node17 -->
<g id="node17" class="node">
<title>Node17</title>
<g id="a_node17"><a xlink:href="classdev_1_1filechampion_1_1filechampion4j_1_1_plugins_helper_1_1_plugin_config.html#ae5fda8a9d95edb4f7d81f1b23e7fa8da" target="_top" xlink:title=" ">
<polygon fill="white" stroke="#666666" points="380.5,-137.5 210.5,-137.5 210.5,-96.5 380.5,-96.5 380.5,-137.5"/>
<text text-anchor="start" x="218.5" y="-125.5" font-family="Helvetica,sans-Serif" font-size="10.00">dev.filechampion.filechampion4j.</text>
<text text-anchor="start" x="218.5" y="-114.5" font-family="Helvetica,sans-Serif" font-size="10.00">PluginsHelper.PluginConfig.setStep</text>
<text text-anchor="middle" x="295.5" y="-103.5" font-family="Helvetica,sans-Serif" font-size="10.00">Configs</text>
</a>
</g>
</g>
<!-- Node1&#45;&gt;Node17 -->
<g id="edge16" class="edge">
<title>Node1&#45;&gt;Node17</title>
<path fill="none" stroke="#63b8ff" d="M79.85,-419.54C84.86,-371.59 106.78,-223.94 191,-147 194.01,-144.25 197.25,-141.75 200.68,-139.48"/>
<polygon fill="#63b8ff" stroke="#63b8ff" points="202.22,-142.05 209.1,-133.99 198.7,-136 202.22,-142.05"/>
</g>
<!-- Node18 -->
<g id="node18" class="node">
<title>Node18</title>
<g id="a_node18"><a xlink:href="classdev_1_1filechampion_1_1filechampion4j_1_1_plugins_helper_1_1_step_config.html#a270b36b24b8d3a0ed0432ca72ab2e6c4" target="_top" xlink:title=" ">
<polygon fill="white" stroke="#666666" points="384.5,-78 206.5,-78 206.5,-48 384.5,-48 384.5,-78"/>
<text text-anchor="start" x="214.5" y="-66" font-family="Helvetica,sans-Serif" font-size="10.00">dev.filechampion.filechampion4j.</text>
<text text-anchor="middle" x="295.5" y="-55" font-family="Helvetica,sans-Serif" font-size="10.00">PluginsHelper.StepConfig.setTimeout</text>
</a>
</g>
</g>
<!-- Node1&#45;&gt;Node18 -->
<g id="edge17" class="edge">
<title>Node1&#45;&gt;Node18</title>
<path fill="none" stroke="#63b8ff" d="M78.52,-419.8C79.45,-365.78 90.18,-181.39 191,-88 193.02,-86.13 195.15,-84.4 197.38,-82.78"/>
<polygon fill="#63b8ff" stroke="#63b8ff" points="198.76,-85.42 205.39,-77.16 195.06,-79.48 198.76,-85.42"/>
</g>
<!-- Node19 -->
<g id="node19" class="node">
<title>Node19</title>
<g id="a_node19"><a xlink:href="classdev_1_1filechampion_1_1filechampion4j_1_1_plugins_helper_1_1_step_config.html#a4640a883c14b655a5072f66bd9adea91" target="_top" xlink:title=" ">
<polygon fill="white" stroke="#666666" points="377.5,-30 213.5,-30 213.5,0 377.5,0 377.5,-30"/>
<text text-anchor="start" x="221.5" y="-18" font-family="Helvetica,sans-Serif" font-size="10.00">dev.filechampion.filechampion4j.</text>
<text text-anchor="middle" x="295.5" y="-7" font-family="Helvetica,sans-Serif" font-size="10.00">PluginsHelper.StepConfig.setType</text>
</a>
</g>
</g>
<!-- Node1&#45;&gt;Node19 -->
<g id="edge18" class="edge">
<title>Node1&#45;&gt;Node19</title>
<path fill="none" stroke="#63b8ff" d="M80.75,-419.7C90.76,-353.65 133.29,-93.95 191,-39 194.81,-35.37 199.05,-32.26 203.58,-29.59"/>
<polygon fill="#63b8ff" stroke="#63b8ff" points="204.91,-32.33 212.25,-24.69 201.75,-26.09 204.91,-32.33"/>
</g>
</g>
</svg>
