<?xml version="1.0" encoding="UTF-8" standalone="no"?>
<!DOCTYPE svg PUBLIC "-//W3C//DTD SVG 1.1//EN"
 "http://www.w3.org/Graphics/SVG/1.1/DTD/svg11.dtd">
<!-- Generated by graphviz version 8.0.3 (20230416.2022)
 -->
<!-- Title: dev.filechampion.filechampion4j.FileValidator.logWarn Pages: 1 -->
<svg width="1565pt" height="329pt"
 viewBox="0.00 0.00 1565.00 329.25" xmlns="http://www.w3.org/2000/svg" xmlns:xlink="http://www.w3.org/1999/xlink">
<g id="graph0" class="graph" transform="scale(1 1) rotate(0) translate(4 325.25)">
<title>dev.filechampion.filechampion4j.FileValidator.logWarn</title>
<!-- Node1 -->
<g id="node1" class="node">
<title>Node1</title>
<g id="a_node1"><a xlink:title=" ">
<polygon fill="#999999" stroke="#666666" points="1557,-168 1402,-168 1402,-138 1557,-138 1557,-168"/>
<text text-anchor="start" x="1410" y="-156" font-family="Helvetica,sans-Serif" font-size="10.00">dev.filechampion.filechampion4j.</text>
<text text-anchor="middle" x="1479.5" y="-145" font-family="Helvetica,sans-Serif" font-size="10.00">FileValidator.logWarn</text>
</a>
</g>
</g>
<!-- Node2 -->
<g id="node2" class="node">
<title>Node2</title>
<g id="a_node2"><a xlink:href="classdev_1_1filechampion_1_1filechampion4j_1_1_file_validator.html#a5239bec4548e36c68d28e92281006d99" target="_top" xlink:title=" ">
<polygon fill="white" stroke="#666666" points="959,-295 804,-295 804,-265 959,-265 959,-295"/>
<text text-anchor="start" x="812" y="-283" font-family="Helvetica,sans-Serif" font-size="10.00">dev.filechampion.filechampion4j.</text>
<text text-anchor="middle" x="881.5" y="-272" font-family="Helvetica,sans-Serif" font-size="10.00">FileValidator.FileValidator</text>
</a>
</g>
</g>
<!-- Node1&#45;&gt;Node2 -->
<g id="edge1" class="edge">
<title>Node1&#45;&gt;Node2</title>
<path fill="none" stroke="#63b8ff" d="M1465.8,-177.56C1448.19,-208.6 1413.11,-260.58 1366,-282 1225.21,-346.03 1036.63,-316.85 941.97,-295.47"/>
<polygon fill="#63b8ff" stroke="#63b8ff" points="1469.15,-179.73 1470.9,-169.28 1463.02,-176.36 1469.15,-179.73"/>
</g>
<!-- Node3 -->
<g id="node3" class="node">
<title>Node3</title>
<g id="a_node3"><a xlink:href="classdev_1_1filechampion_1_1filechampion4j_1_1_file_validator.html#a5fc1e662912e9b0e80550aa7b244d394" target="_top" xlink:title=" ">
<polygon fill="white" stroke="#666666" points="745.5,-187 587.5,-187 587.5,-157 745.5,-157 745.5,-187"/>
<text text-anchor="start" x="595.5" y="-175" font-family="Helvetica,sans-Serif" font-size="10.00">dev.filechampion.filechampion4j.</text>
<text text-anchor="middle" x="666.5" y="-164" font-family="Helvetica,sans-Serif" font-size="10.00">FileValidator.checkMethodInputs</text>
</a>
</g>
</g>
<!-- Node1&#45;&gt;Node3 -->
<g id="edge2" class="edge">
<title>Node1&#45;&gt;Node3</title>
<path fill="none" stroke="#63b8ff" d="M1391.16,-155.05C1232.19,-158.77 898,-166.6 745.88,-170.16"/>
<polygon fill="#63b8ff" stroke="#63b8ff" points="1390.92,-158.53 1400.84,-154.8 1390.76,-151.53 1390.92,-158.53"/>
</g>
<!-- Node4 -->
<g id="node4" class="node">
<title>Node4</title>
<g id="a_node4"><a xlink:href="classdev_1_1filechampion_1_1filechampion4j_1_1_file_validator.html#a2ac42f051e5724b165e5b0234a1e23f4" target="_top" xlink:title=" ">
<polygon fill="white" stroke="#666666" points="346,-165 191,-165 191,-135 346,-135 346,-165"/>
<text text-anchor="start" x="199" y="-153" font-family="Helvetica,sans-Serif" font-size="10.00">dev.filechampion.filechampion4j.</text>
<text text-anchor="middle" x="268.5" y="-142" font-family="Helvetica,sans-Serif" font-size="10.00">FileValidator.validateFileMain</text>
</a>
</g>
</g>
<!-- Node1&#45;&gt;Node4 -->
<g id="edge19" class="edge">
<title>Node1&#45;&gt;Node4</title>
<path fill="none" stroke="#63b8ff" d="M1409.69,-171.02C1333.62,-189.32 1207.19,-215 1096.5,-215 1096.5,-215 1096.5,-215 665.5,-215 543.75,-215 403.7,-184.71 327.06,-165.49"/>
<polygon fill="#63b8ff" stroke="#63b8ff" points="1410.19,-174.25 1419.08,-168.49 1408.54,-167.45 1410.19,-174.25"/>
</g>
<!-- Node6 -->
<g id="node6" class="node">
<title>Node6</title>
<g id="a_node6"><a xlink:href="classdev_1_1filechampion_1_1filechampion4j_1_1_file_validator.html#a4e885231ccddcf38fe15a3caa3168c2b" target="_top" xlink:title=" ">
<polygon fill="white" stroke="#666666" points="1366,-273 1211,-273 1211,-243 1366,-243 1366,-273"/>
<text text-anchor="start" x="1219" y="-261" font-family="Helvetica,sans-Serif" font-size="10.00">dev.filechampion.filechampion4j.</text>
<text text-anchor="middle" x="1288.5" y="-250" font-family="Helvetica,sans-Serif" font-size="10.00">FileValidator.checkPluginsExist</text>
</a>
</g>
</g>
<!-- Node1&#45;&gt;Node6 -->
<g id="edge5" class="edge">
<title>Node1&#45;&gt;Node6</title>
<path fill="none" stroke="#63b8ff" d="M1450.11,-174.89C1428.02,-191.24 1396.16,-213.36 1366,-229 1356.42,-233.97 1345.78,-238.54 1335.56,-242.52"/>
<polygon fill="#63b8ff" stroke="#63b8ff" points="1451.74,-177.29 1457.65,-168.5 1447.55,-171.69 1451.74,-177.29"/>
</g>
<!-- Node8 -->
<g id="node8" class="node">
<title>Node8</title>
<g id="a_node8"><a xlink:href="classdev_1_1filechampion_1_1filechampion4j_1_1_file_validator.html#a8e5b65357971125d0d18f1ca1a303a82" target="_top" xlink:title=" ">
<polygon fill="white" stroke="#666666" points="1366,-30 1211,-30 1211,0 1366,0 1366,-30"/>
<text text-anchor="start" x="1219" y="-18" font-family="Helvetica,sans-Serif" font-size="10.00">dev.filechampion.filechampion4j.</text>
<text text-anchor="middle" x="1288.5" y="-7" font-family="Helvetica,sans-Serif" font-size="10.00">FileValidator.deleteTempDir</text>
</a>
</g>
</g>
<!-- Node1&#45;&gt;Node8 -->
<g id="edge8" class="edge">
<title>Node1&#45;&gt;Node8</title>
<path fill="none" stroke="#63b8ff" d="M1459.21,-129.3C1438.4,-105.04 1403.21,-67.64 1366,-44 1357.73,-38.74 1348.36,-34.22 1339.08,-30.4"/>
<polygon fill="#63b8ff" stroke="#63b8ff" points="1457.08,-131.21 1466.21,-136.6 1462.44,-126.69 1457.08,-131.21"/>
</g>
<!-- Node9 -->
<g id="node9" class="node">
<title>Node9</title>
<g id="a_node9"><a xlink:href="classdev_1_1filechampion_1_1filechampion4j_1_1_file_validator.html#a00a7f2979f0321f1823ce815ecd20945" target="_top" xlink:title=" ">
<polygon fill="white" stroke="#666666" points="1173,-49 1018,-49 1018,-19 1173,-19 1173,-49"/>
<text text-anchor="start" x="1026" y="-37" font-family="Helvetica,sans-Serif" font-size="10.00">dev.filechampion.filechampion4j.</text>
<text text-anchor="middle" x="1095.5" y="-26" font-family="Helvetica,sans-Serif" font-size="10.00">FileValidator.executePlugin</text>
</a>
</g>
</g>
<!-- Node1&#45;&gt;Node9 -->
<g id="edge18" class="edge">
<title>Node1&#45;&gt;Node9</title>
<path fill="none" stroke="#63b8ff" d="M1450.72,-131.15C1428.9,-115.09 1397.09,-94.05 1366,-82 1303.63,-57.83 1228.37,-45.73 1173.26,-39.73"/>
<polygon fill="#63b8ff" stroke="#63b8ff" points="1448.33,-134.48 1458.43,-137.68 1452.53,-128.88 1448.33,-134.48"/>
</g>
<!-- Node11 -->
<g id="node11" class="node">
<title>Node11</title>
<g id="a_node11"><a xlink:href="classdev_1_1filechampion_1_1filechampion4j_1_1_file_validator.html#aac29042353654b8f6c3975ae885da151" target="_top" xlink:title=" ">
<polygon fill="white" stroke="#666666" points="747,-101 586,-101 586,-71 747,-71 747,-101"/>
<text text-anchor="start" x="594" y="-89" font-family="Helvetica,sans-Serif" font-size="10.00">dev.filechampion.filechampion4j.</text>
<text text-anchor="middle" x="666.5" y="-78" font-family="Helvetica,sans-Serif" font-size="10.00">FileValidator.executeAfterPlugins</text>
</a>
</g>
</g>
<!-- Node1&#45;&gt;Node11 -->
<g id="edge17" class="edge">
<title>Node1&#45;&gt;Node11</title>
<path fill="none" stroke="#63b8ff" d="M1424.25,-134.27C1405.96,-128.72 1385.29,-123.25 1366,-120 1144.21,-82.62 877.65,-81.53 747.24,-83.79"/>
<polygon fill="#63b8ff" stroke="#63b8ff" points="1423.13,-137.9 1433.72,-137.54 1425.21,-131.22 1423.13,-137.9"/>
</g>
<!-- Node12 -->
<g id="node12" class="node">
<title>Node12</title>
<g id="a_node12"><a xlink:href="classdev_1_1filechampion_1_1filechampion4j_1_1_file_validator.html#a48a54a63d062cd23af2d14a6af76899e" target="_top" xlink:title=" ">
<polygon fill="white" stroke="#666666" points="543.5,-144 388.5,-144 388.5,-114 543.5,-114 543.5,-144"/>
<text text-anchor="start" x="396.5" y="-132" font-family="Helvetica,sans-Serif" font-size="10.00">dev.filechampion.filechampion4j.</text>
<text text-anchor="middle" x="466" y="-121" font-family="Helvetica,sans-Serif" font-size="10.00">FileValidator.doValidations</text>
</a>
</g>
</g>
<!-- Node1&#45;&gt;Node12 -->
<g id="edge16" class="edge">
<title>Node1&#45;&gt;Node12</title>
<path fill="none" stroke="#63b8ff" d="M1390.87,-150.92C1195.76,-146.29 728.23,-135.2 543.74,-130.82"/>
<polygon fill="#63b8ff" stroke="#63b8ff" points="1390.56,-154.44 1400.64,-151.18 1390.73,-147.44 1390.56,-154.44"/>
</g>
<!-- Node3&#45;&gt;Node4 -->
<g id="edge3" class="edge">
<title>Node3&#45;&gt;Node4</title>
<path fill="none" stroke="#63b8ff" d="M576.38,-167.05C507.14,-163.2 412.11,-157.92 346.23,-154.26"/>
<polygon fill="#63b8ff" stroke="#63b8ff" points="576.08,-170.59 586.26,-167.65 576.47,-163.6 576.08,-170.59"/>
</g>
<!-- Node5 -->
<g id="node5" class="node">
<title>Node5</title>
<g id="a_node5"><a xlink:href="classdev_1_1filechampion_1_1filechampion4j_1_1_file_validator.html#a492adb6357ac22bea8b79d036aa2a287" target="_top" xlink:title=" ">
<polygon fill="white" stroke="#666666" points="155,-165 0,-165 0,-135 155,-135 155,-165"/>
<text text-anchor="start" x="8" y="-153" font-family="Helvetica,sans-Serif" font-size="10.00">dev.filechampion.filechampion4j.</text>
<text text-anchor="middle" x="77.5" y="-142" font-family="Helvetica,sans-Serif" font-size="10.00">FileValidator.validateFile</text>
</a>
</g>
</g>
<!-- Node4&#45;&gt;Node5 -->
<g id="edge4" class="edge">
<title>Node4&#45;&gt;Node5</title>
<path fill="none" stroke="#63b8ff" d="M179.89,-150C171.68,-150 163.41,-150 155.31,-150"/>
<polygon fill="#63b8ff" stroke="#63b8ff" points="179.63,-153.5 189.63,-150 179.63,-146.5 179.63,-153.5"/>
</g>
<!-- Node7 -->
<g id="node7" class="node">
<title>Node7</title>
<g id="a_node7"><a xlink:href="classdev_1_1filechampion_1_1filechampion4j_1_1_file_validator.html#a62c4a7a9000c3144937697051081dce2" target="_top" xlink:title=" ">
<polygon fill="white" stroke="#666666" points="1175,-273 1016,-273 1016,-243 1175,-243 1175,-273"/>
<text text-anchor="start" x="1024" y="-261" font-family="Helvetica,sans-Serif" font-size="10.00">dev.filechampion.filechampion4j.</text>
<text text-anchor="middle" x="1095.5" y="-250" font-family="Helvetica,sans-Serif" font-size="10.00">FileValidator.checkPluginsConfig</text>
</a>
</g>
</g>
<!-- Node6&#45;&gt;Node7 -->
<g id="edge6" class="edge">
<title>Node6&#45;&gt;Node7</title>
<path fill="none" stroke="#63b8ff" d="M1199.66,-258C1191.57,-258 1183.4,-258 1175.38,-258"/>
<polygon fill="#63b8ff" stroke="#63b8ff" points="1199.64,-261.5 1209.64,-258 1199.64,-254.5 1199.64,-261.5"/>
</g>
<!-- Node7&#45;&gt;Node2 -->
<g id="edge7" class="edge">
<title>Node7&#45;&gt;Node2</title>
<path fill="none" stroke="#63b8ff" d="M1004.68,-267.32C989.61,-268.88 974.1,-270.49 959.39,-272.02"/>
<polygon fill="#63b8ff" stroke="#63b8ff" points="1004.97,-270.71 1014.56,-266.19 1004.25,-263.74 1004.97,-270.71"/>
</g>
<!-- Node8&#45;&gt;Node9 -->
<g id="edge9" class="edge">
<title>Node8&#45;&gt;Node9</title>
<path fill="none" stroke="#63b8ff" d="M1199.85,-23.72C1190.96,-24.6 1181.97,-25.5 1173.2,-26.37"/>
<polygon fill="#63b8ff" stroke="#63b8ff" points="1200.03,-27.12 1209.64,-22.65 1199.34,-20.15 1200.03,-27.12"/>
</g>
<!-- Node10 -->
<g id="node10" class="node">
<title>Node10</title>
<g id="a_node10"><a xlink:href="classdev_1_1filechampion_1_1filechampion4j_1_1_file_validator.html#aa9bf0e018f1c94b78ea2e8e3c12eafdd" target="_top" xlink:title=" ">
<polygon fill="white" stroke="#666666" points="980,-68 783,-68 783,-38 980,-38 980,-68"/>
<text text-anchor="start" x="791" y="-56" font-family="Helvetica,sans-Serif" font-size="10.00">dev.filechampion.filechampion4j.</text>
<text text-anchor="middle" x="881.5" y="-45" font-family="Helvetica,sans-Serif" font-size="10.00">FileValidator.executeAfterPluginsProcess</text>
</a>
</g>
</g>
<!-- Node9&#45;&gt;Node10 -->
<g id="edge10" class="edge">
<title>Node9&#45;&gt;Node10</title>
<path fill="none" stroke="#63b8ff" d="M1006.77,-41.86C998.09,-42.64 989.23,-43.43 980.46,-44.22"/>
<polygon fill="#63b8ff" stroke="#63b8ff" points="1007.02,-45.27 1016.66,-40.89 1006.39,-38.29 1007.02,-45.27"/>
</g>
<!-- Node13 -->
<g id="node13" class="node">
<title>Node13</title>
<g id="a_node13"><a xlink:href="classdev_1_1filechampion_1_1filechampion4j_1_1_file_validator.html#a617f3b8be7835bbb96df357a412d1bbf" target="_top" xlink:title=" ">
<polygon fill="white" stroke="#666666" points="550,-61 382,-61 382,-31 550,-31 550,-61"/>
<text text-anchor="start" x="390" y="-49" font-family="Helvetica,sans-Serif" font-size="10.00">dev.filechampion.filechampion4j.</text>
<text text-anchor="middle" x="466" y="-38" font-family="Helvetica,sans-Serif" font-size="10.00">FileValidator.executeBeforePlugins</text>
</a>
</g>
</g>
<!-- Node9&#45;&gt;Node13 -->
<g id="edge14" class="edge">
<title>Node9&#45;&gt;Node13</title>
<path fill="none" stroke="#63b8ff" d="M1006.6,-29.77C997.62,-29.46 988.63,-29.19 980,-29 892.47,-27.09 870.52,-26.65 783,-29 704.05,-31.12 614.13,-36.22 550.45,-40.28"/>
<polygon fill="#63b8ff" stroke="#63b8ff" points="1006.4,-33.3 1016.53,-30.18 1006.66,-26.31 1006.4,-33.3"/>
</g>
<!-- Node10&#45;&gt;Node11 -->
<g id="edge11" class="edge">
<title>Node10&#45;&gt;Node11</title>
<path fill="none" stroke="#63b8ff" d="M771.91,-69.82C763.67,-71.1 755.45,-72.37 747.45,-73.61"/>
<polygon fill="#63b8ff" stroke="#63b8ff" points="772.38,-73.14 781.73,-68.15 771.31,-66.22 772.38,-73.14"/>
</g>
<!-- Node11&#45;&gt;Node12 -->
<g id="edge12" class="edge">
<title>Node11&#45;&gt;Node12</title>
<path fill="none" stroke="#63b8ff" d="M583.37,-103.79C568.45,-107.02 553,-110.37 538.42,-113.53"/>
<polygon fill="#63b8ff" stroke="#63b8ff" points="584.09,-107 593.12,-101.46 582.6,-100.16 584.09,-107"/>
</g>
<!-- Node12&#45;&gt;Node4 -->
<g id="edge13" class="edge">
<title>Node12&#45;&gt;Node4</title>
<path fill="none" stroke="#63b8ff" d="M377.34,-138.42C367.03,-139.52 356.57,-140.65 346.42,-141.74"/>
<polygon fill="#63b8ff" stroke="#63b8ff" points="377.44,-141.82 387.01,-137.27 376.7,-134.86 377.44,-141.82"/>
</g>
<!-- Node13&#45;&gt;Node4 -->
<g id="edge15" class="edge">
<title>Node13&#45;&gt;Node4</title>
<path fill="none" stroke="#63b8ff" d="M426.55,-66.46C388.92,-86.47 332.45,-116.51 298.47,-134.59"/>
<polygon fill="#63b8ff" stroke="#63b8ff" points="427.97,-69.13 435.15,-61.35 424.68,-62.95 427.97,-69.13"/>
</g>
</g>
</svg>
