<?xml version="1.0" encoding="UTF-8" standalone="no"?>
<!DOCTYPE svg PUBLIC "-//W3C//DTD SVG 1.1//EN"
 "http://www.w3.org/Graphics/SVG/1.1/DTD/svg11.dtd">
<!-- Generated by graphviz version 8.0.3 (20230416.2022)
 -->
<!-- Title: dev.filechampion.filechampion4j.Extensions.mapExtensionValidations Pages: 1 -->
<svg width="569pt" height="268pt"
 viewBox="0.00 0.00 569.00 268.00" xmlns="http://www.w3.org/2000/svg" xmlns:xlink="http://www.w3.org/1999/xlink">
<g id="graph0" class="graph" transform="scale(1 1) rotate(0) translate(4 264)">
<title>dev.filechampion.filechampion4j.Extensions.mapExtensionValidations</title>
<!-- Node1 -->
<g id="node1" class="node">
<title>Node1</title>
<g id="a_node1"><a xlink:title=" ">
<polygon fill="#999999" stroke="#666666" points="179,-147 0,-147 0,-117 179,-117 179,-147"/>
<text text-anchor="start" x="8" y="-135" font-family="Helvetica,sans-Serif" font-size="10.00">dev.filechampion.filechampion4j.</text>
<text text-anchor="middle" x="89.5" y="-124" font-family="Helvetica,sans-Serif" font-size="10.00">Extensions.mapExtensionValidations</text>
</a>
</g>
</g>
<!-- Node2 -->
<g id="node2" class="node">
<title>Node2</title>
<g id="a_node2"><a xlink:href="classdev_1_1filechampion_1_1filechampion4j_1_1_extensions.html#a0aada571ca5ffb1ca298874d2c0fac50" target="_top" xlink:title=" ">
<polygon fill="white" stroke="#666666" points="370,-260 215,-260 215,-230 370,-230 370,-260"/>
<text text-anchor="start" x="223" y="-248" font-family="Helvetica,sans-Serif" font-size="10.00">dev.filechampion.filechampion4j.</text>
<text text-anchor="middle" x="292.5" y="-237" font-family="Helvetica,sans-Serif" font-size="10.00">Extensions.logFine</text>
</a>
</g>
</g>
<!-- Node1&#45;&gt;Node2 -->
<g id="edge1" class="edge">
<title>Node1&#45;&gt;Node2</title>
<path fill="none" stroke="#63b8ff" d="M107.9,-147.2C130.98,-166.67 173.62,-200.38 215,-221 218.28,-222.63 221.69,-224.18 225.17,-225.65"/>
<polygon fill="#63b8ff" stroke="#63b8ff" points="223.53,-229.16 234.12,-229.57 226.1,-222.65 223.53,-229.16"/>
</g>
<!-- Node3 -->
<g id="node3" class="node">
<title>Node3</title>
<g id="a_node3"><a xlink:href="classdev_1_1filechampion_1_1filechampion4j_1_1_extensions.html#a366117a17cfa799e9056a5929b60f99a" target="_top" xlink:title=" ">
<polygon fill="white" stroke="#666666" points="370,-212 215,-212 215,-182 370,-182 370,-212"/>
<text text-anchor="start" x="223" y="-200" font-family="Helvetica,sans-Serif" font-size="10.00">dev.filechampion.filechampion4j.</text>
<text text-anchor="middle" x="292.5" y="-189" font-family="Helvetica,sans-Serif" font-size="10.00">Extensions.logInfo</text>
</a>
</g>
</g>
<!-- Node1&#45;&gt;Node3 -->
<g id="edge2" class="edge">
<title>Node1&#45;&gt;Node3</title>
<path fill="none" stroke="#63b8ff" d="M138.39,-147.49C166.85,-156.69 203.15,-168.43 233.26,-178.17"/>
<polygon fill="#63b8ff" stroke="#63b8ff" points="232.04,-181.77 242.63,-181.52 234.19,-175.11 232.04,-181.77"/>
</g>
<!-- Node4 -->
<g id="node4" class="node">
<title>Node4</title>
<g id="a_node4"><a xlink:href="classdev_1_1filechampion_1_1filechampion4j_1_1_extensions.html#adebd31331477fe200ec272ae4569f482" target="_top" xlink:title=" ">
<polygon fill="white" stroke="#666666" points="561,-102 406,-102 406,-72 561,-72 561,-102"/>
<text text-anchor="start" x="414" y="-90" font-family="Helvetica,sans-Serif" font-size="10.00">dev.filechampion.filechampion4j.</text>
<text text-anchor="middle" x="483.5" y="-79" font-family="Helvetica,sans-Serif" font-size="10.00">Extensions.logWarn</text>
</a>
</g>
</g>
<!-- Node1&#45;&gt;Node4 -->
<g id="edge3" class="edge">
<title>Node1&#45;&gt;Node4</title>
<path fill="none" stroke="#63b8ff" d="M179.21,-142.44C234.62,-146.63 307.12,-147.85 370,-135 396.4,-129.6 424.27,-117.76 445.67,-107.19"/>
<polygon fill="#63b8ff" stroke="#63b8ff" points="446.98,-109.94 454.32,-102.3 443.81,-103.7 446.98,-109.94"/>
</g>
<!-- Node5 -->
<g id="node5" class="node">
<title>Node5</title>
<g id="a_node5"><a xlink:href="classdev_1_1filechampion_1_1filechampion4j_1_1_extensions.html#aae54a0c575ab050d505554b827eba486" target="_top" xlink:title=" ">
<polygon fill="white" stroke="#666666" points="370,-126 215,-126 215,-96 370,-96 370,-126"/>
<text text-anchor="start" x="223" y="-114" font-family="Helvetica,sans-Serif" font-size="10.00">dev.filechampion.filechampion4j.</text>
<text text-anchor="middle" x="292.5" y="-103" font-family="Helvetica,sans-Serif" font-size="10.00">Extensions.setArrayList</text>
</a>
</g>
</g>
<!-- Node1&#45;&gt;Node5 -->
<g id="edge4" class="edge">
<title>Node1&#45;&gt;Node5</title>
<path fill="none" stroke="#63b8ff" d="M179.25,-122.73C187.44,-121.87 195.73,-121.01 203.91,-120.15"/>
<polygon fill="#63b8ff" stroke="#63b8ff" points="204,-123.56 213.58,-119.04 203.27,-116.59 204,-123.56"/>
</g>
<!-- Node6 -->
<g id="node6" class="node">
<title>Node6</title>
<g id="a_node6"><a xlink:href="classdev_1_1filechampion_1_1filechampion4j_1_1_extensions.html#ae8f04f4e1d62e544e1ec5893bff82a4d" target="_top" xlink:title=" ">
<polygon fill="white" stroke="#666666" points="370,-78 215,-78 215,-48 370,-48 370,-78"/>
<text text-anchor="start" x="223" y="-66" font-family="Helvetica,sans-Serif" font-size="10.00">dev.filechampion.filechampion4j.</text>
<text text-anchor="middle" x="292.5" y="-55" font-family="Helvetica,sans-Serif" font-size="10.00">Extensions.setBoolean</text>
</a>
</g>
</g>
<!-- Node1&#45;&gt;Node6 -->
<g id="edge6" class="edge">
<title>Node1&#45;&gt;Node6</title>
<path fill="none" stroke="#63b8ff" d="M131.84,-116.55C156,-107.66 187.13,-96.41 215,-87 220.14,-85.26 225.5,-83.5 230.87,-81.76"/>
<polygon fill="#63b8ff" stroke="#63b8ff" points="231.75,-84.83 240.2,-78.44 229.61,-78.17 231.75,-84.83"/>
</g>
<!-- Node7 -->
<g id="node7" class="node">
<title>Node7</title>
<g id="a_node7"><a xlink:href="classdev_1_1filechampion_1_1filechampion4j_1_1_extensions.html#ad1fe364836f20ce9ff85b8f19ad2ba12" target="_top" xlink:title=" ">
<polygon fill="white" stroke="#666666" points="370,-30 215,-30 215,0 370,0 370,-30"/>
<text text-anchor="start" x="223" y="-18" font-family="Helvetica,sans-Serif" font-size="10.00">dev.filechampion.filechampion4j.</text>
<text text-anchor="middle" x="292.5" y="-7" font-family="Helvetica,sans-Serif" font-size="10.00">Extensions.setString</text>
</a>
</g>
</g>
<!-- Node1&#45;&gt;Node7 -->
<g id="edge8" class="edge">
<title>Node1&#45;&gt;Node7</title>
<path fill="none" stroke="#63b8ff" d="M106.99,-116.76C129.73,-96.47 172.73,-60.62 215,-39 218.1,-37.42 221.32,-35.91 224.61,-34.49"/>
<polygon fill="#63b8ff" stroke="#63b8ff" points="225.68,-37.43 233.65,-30.45 223.07,-30.93 225.68,-37.43"/>
</g>
<!-- Node5&#45;&gt;Node4 -->
<g id="edge5" class="edge">
<title>Node5&#45;&gt;Node4</title>
<path fill="none" stroke="#63b8ff" d="M370.37,-101.24C378.47,-100.21 386.75,-99.16 394.96,-98.12"/>
<polygon fill="#63b8ff" stroke="#63b8ff" points="395.22,-101.48 404.69,-96.75 394.33,-94.54 395.22,-101.48"/>
</g>
<!-- Node6&#45;&gt;Node4 -->
<g id="edge7" class="edge">
<title>Node6&#45;&gt;Node4</title>
<path fill="none" stroke="#63b8ff" d="M370.37,-72.76C378.47,-73.79 386.75,-74.84 394.96,-75.88"/>
<polygon fill="#63b8ff" stroke="#63b8ff" points="394.33,-79.46 404.69,-77.25 395.22,-72.52 394.33,-79.46"/>
</g>
<!-- Node7&#45;&gt;Node4 -->
<g id="edge9" class="edge">
<title>Node7&#45;&gt;Node4</title>
<path fill="none" stroke="#63b8ff" d="M345.17,-30.44C353.52,-33.16 362.03,-36.06 370,-39 393.11,-47.53 418.38,-58.19 439.1,-67.29"/>
<polygon fill="#63b8ff" stroke="#63b8ff" points="437.32,-70.77 447.88,-71.62 440.16,-64.37 437.32,-70.77"/>
</g>
</g>
</svg>
