<?xml version="1.0" encoding="UTF-8" standalone="no"?>
<!DOCTYPE svg PUBLIC "-//W3C//DTD SVG 1.1//EN"
 "http://www.w3.org/Graphics/SVG/1.1/DTD/svg11.dtd">
<!-- Generated by graphviz version 8.0.3 (20230416.2022)
 -->
<!-- Title: Main.main Pages: 1 -->
<svg width="479pt" height="134pt"
 viewBox="0.00 0.00 479.00 134.00" xmlns="http://www.w3.org/2000/svg" xmlns:xlink="http://www.w3.org/1999/xlink">
<g id="graph0" class="graph" transform="scale(1 1) rotate(0) translate(4 130)">
<title>Main.main</title>
<!-- Node1 -->
<g id="node1" class="node">
<title>Node1</title>
<g id="a_node1"><a xlink:title=" ">
<polygon fill="#999999" stroke="#666666" points="62,-72.5 0,-72.5 0,-53.5 62,-53.5 62,-72.5"/>
<text text-anchor="middle" x="31" y="-60.5" font-family="Helvetica,sans-Serif" font-size="10.00">Main.main</text>
</a>
</g>
</g>
<!-- Node2 -->
<g id="node2" class="node">
<title>Node2</title>
<g id="a_node2"><a xlink:href="classdev_1_1filechampion_1_1filechampion4j_1_1_validation_response.html#afa36e6b68270728848136cb7c62c3103" target="_top" xlink:title=" ">
<polygon fill="white" stroke="#666666" points="280,-126 98,-126 98,-96 280,-96 280,-126"/>
<text text-anchor="start" x="106" y="-114" font-family="Helvetica,sans-Serif" font-size="10.00">dev.filechampion.filechampion4j.</text>
<text text-anchor="middle" x="189" y="-103" font-family="Helvetica,sans-Serif" font-size="10.00">ValidationResponse.getFileChecksum</text>
</a>
</g>
</g>
<!-- Node1&#45;&gt;Node2 -->
<g id="edge1" class="edge">
<title>Node1&#45;&gt;Node2</title>
<path fill="none" stroke="#63b8ff" d="M57.84,-72.99C69.95,-77.52 84.62,-82.79 98,-87 104.18,-88.94 110.62,-90.86 117.1,-92.72"/>
<polygon fill="#63b8ff" stroke="#63b8ff" points="115.7,-96.25 126.27,-95.59 117.6,-89.51 115.7,-96.25"/>
</g>
<!-- Node3 -->
<g id="node3" class="node">
<title>Node3</title>
<g id="a_node3"><a xlink:href="classdev_1_1filechampion_1_1filechampion4j_1_1_validation_response.html#afdb86dded713542042d03230acd6887d" target="_top" xlink:title=" ">
<polygon fill="white" stroke="#666666" points="277.5,-78 100.5,-78 100.5,-48 277.5,-48 277.5,-78"/>
<text text-anchor="start" x="108.5" y="-66" font-family="Helvetica,sans-Serif" font-size="10.00">dev.filechampion.filechampion4j.</text>
<text text-anchor="middle" x="189" y="-55" font-family="Helvetica,sans-Serif" font-size="10.00">ValidationResponse.getValidFilePath</text>
</a>
</g>
</g>
<!-- Node1&#45;&gt;Node3 -->
<g id="edge2" class="edge">
<title>Node1&#45;&gt;Node3</title>
<path fill="none" stroke="#63b8ff" d="M62.45,-63C70.5,-63 79.65,-63 89.25,-63"/>
<polygon fill="#63b8ff" stroke="#63b8ff" points="89.24,-66.5 99.24,-63 89.24,-59.5 89.24,-66.5"/>
</g>
<!-- Node4 -->
<g id="node4" class="node">
<title>Node4</title>
<g id="a_node4"><a xlink:href="classdev_1_1filechampion_1_1filechampion4j_1_1_file_validator.html#a0c42ecd30b213d35bf114d84e7b40f9f" target="_top" xlink:title=" ">
<polygon fill="white" stroke="#666666" points="266.5,-30 111.5,-30 111.5,0 266.5,0 266.5,-30"/>
<text text-anchor="start" x="119.5" y="-18" font-family="Helvetica,sans-Serif" font-size="10.00">dev.filechampion.filechampion4j.</text>
<text text-anchor="middle" x="189" y="-7" font-family="Helvetica,sans-Serif" font-size="10.00">FileValidator.validateFile</text>
</a>
</g>
</g>
<!-- Node1&#45;&gt;Node4 -->
<g id="edge3" class="edge">
<title>Node1&#45;&gt;Node4</title>
<path fill="none" stroke="#63b8ff" d="M57.84,-53.01C69.95,-48.48 84.62,-43.21 98,-39 104.18,-37.06 110.62,-35.14 117.1,-33.28"/>
<polygon fill="#63b8ff" stroke="#63b8ff" points="117.6,-36.49 126.27,-30.41 115.7,-29.75 117.6,-36.49"/>
</g>
<!-- Node5 -->
<g id="node5" class="node">
<title>Node5</title>
<g id="a_node5"><a xlink:href="classdev_1_1filechampion_1_1filechampion4j_1_1_extension.html#a280bd1a1334d78e0a898524a2f8b000d" target="_top" xlink:title=" ">
<polygon fill="white" stroke="#666666" points="471,-30 316,-30 316,0 471,0 471,-30"/>
<text text-anchor="start" x="324" y="-18" font-family="Helvetica,sans-Serif" font-size="10.00">dev.filechampion.filechampion4j.</text>
<text text-anchor="middle" x="393.5" y="-7" font-family="Helvetica,sans-Serif" font-size="10.00">Extension.getExtensionPlugins</text>
</a>
</g>
</g>
<!-- Node4&#45;&gt;Node5 -->
<g id="edge4" class="edge">
<title>Node4&#45;&gt;Node5</title>
<path fill="none" stroke="#63b8ff" d="M266.85,-15C279.22,-15 292.11,-15 304.72,-15"/>
<polygon fill="#63b8ff" stroke="#63b8ff" points="304.71,-18.5 314.71,-15 304.71,-11.5 304.71,-18.5"/>
</g>
</g>
</svg>
