<?xml version="1.0" encoding="UTF-8" standalone="no"?>
<!DOCTYPE svg PUBLIC "-//W3C//DTD SVG 1.1//EN"
 "http://www.w3.org/Graphics/SVG/1.1/DTD/svg11.dtd">
<!-- Generated by graphviz version 8.0.3 (20230416.2022)
 -->
<!-- Title: dev.filechampion.filechampion4j.CliPluginHelper.execute Pages: 1 -->
<svg width="1040pt" height="349pt"
 viewBox="0.00 0.00 1040.00 348.50" xmlns="http://www.w3.org/2000/svg" xmlns:xlink="http://www.w3.org/1999/xlink">
<g id="graph0" class="graph" transform="scale(1 1) rotate(0) translate(4 344.5)">
<title>dev.filechampion.filechampion4j.CliPluginHelper.execute</title>
<!-- Node1 -->
<g id="node1" class="node">
<title>Node1</title>
<g id="a_node1"><a xlink:title=" ">
<polygon fill="#999999" stroke="#666666" points="155,-196.5 0,-196.5 0,-166.5 155,-166.5 155,-196.5"/>
<text text-anchor="start" x="8" y="-184.5" font-family="Helvetica,sans-Serif" font-size="10.00">dev.filechampion.filechampion4j.</text>
<text text-anchor="middle" x="77.5" y="-173.5" font-family="Helvetica,sans-Serif" font-size="10.00">CliPluginHelper.execute</text>
</a>
</g>
</g>
<!-- Node2 -->
<g id="node2" class="node">
<title>Node2</title>
<g id="a_node2"><a xlink:href="classdev_1_1filechampion_1_1filechampion4j_1_1_cli_plugin_helper.html#a4303bf7327a767124322fef309a6fcc8" target="_top" xlink:title=" ">
<polygon fill="white" stroke="#666666" points="366.5,-340.5 211.5,-340.5 211.5,-310.5 366.5,-310.5 366.5,-340.5"/>
<text text-anchor="start" x="219.5" y="-328.5" font-family="Helvetica,sans-Serif" font-size="10.00">dev.filechampion.filechampion4j.</text>
<text text-anchor="middle" x="289" y="-317.5" font-family="Helvetica,sans-Serif" font-size="10.00">CliPluginHelper.deleteTempDir</text>
</a>
</g>
</g>
<!-- Node1&#45;&gt;Node2 -->
<g id="edge1" class="edge">
<title>Node1&#45;&gt;Node2</title>
<path fill="none" stroke="#63b8ff" d="M88.29,-196.66C105.72,-222.36 144.68,-274.35 191,-301.5 194.24,-303.4 197.63,-305.15 201.11,-306.76"/>
<polygon fill="#63b8ff" stroke="#63b8ff" points="199.58,-310.33 210.15,-310.95 202.27,-303.87 199.58,-310.33"/>
</g>
<!-- Node3 -->
<g id="node3" class="node">
<title>Node3</title>
<g id="a_node3"><a xlink:href="classdev_1_1filechampion_1_1filechampion4j_1_1_cli_plugin_helper.html#aa311727086faa1c01c796bafc7132ce5" target="_top" xlink:title=" ">
<polygon fill="white" stroke="#666666" points="387,-244.5 191,-244.5 191,-214.5 387,-214.5 387,-244.5"/>
<text text-anchor="start" x="199" y="-232.5" font-family="Helvetica,sans-Serif" font-size="10.00">dev.filechampion.filechampion4j.</text>
<text text-anchor="middle" x="289" y="-221.5" font-family="Helvetica,sans-Serif" font-size="10.00">CliPluginHelper.extractResponsePatterns</text>
</a>
</g>
</g>
<!-- Node1&#45;&gt;Node3 -->
<g id="edge2" class="edge">
<title>Node1&#45;&gt;Node3</title>
<path fill="none" stroke="#63b8ff" d="M145.94,-196.95C166.41,-201.64 189.06,-206.83 210.15,-211.66"/>
<polygon fill="#63b8ff" stroke="#63b8ff" points="209.16,-215.26 219.69,-214.08 210.72,-208.43 209.16,-215.26"/>
</g>
<!-- Node4 -->
<g id="node4" class="node">
<title>Node4</title>
<g id="a_node4"><a xlink:href="classdev_1_1filechampion_1_1filechampion4j_1_1_cli_plugin_helper.html#a5a26b6d864c66cbed7bf7596f8c09e57" target="_top" xlink:title=" ">
<polygon fill="white" stroke="#666666" points="586,-244.5 431,-244.5 431,-214.5 586,-214.5 586,-244.5"/>
<text text-anchor="start" x="439" y="-232.5" font-family="Helvetica,sans-Serif" font-size="10.00">dev.filechampion.filechampion4j.</text>
<text text-anchor="middle" x="508.5" y="-221.5" font-family="Helvetica,sans-Serif" font-size="10.00">CliPluginHelper.logFine</text>
</a>
</g>
</g>
<!-- Node1&#45;&gt;Node4 -->
<g id="edge5" class="edge">
<title>Node1&#45;&gt;Node4</title>
<path fill="none" stroke="#63b8ff" d="M133.64,-166.02C196.21,-151.01 300.78,-133.7 387,-157.5 422.05,-167.17 457.17,-190.03 480.38,-207.41"/>
<polygon fill="#63b8ff" stroke="#63b8ff" points="477.9,-210.69 487.96,-214 482.16,-205.14 477.9,-210.69"/>
</g>
<!-- Node5 -->
<g id="node5" class="node">
<title>Node5</title>
<g id="a_node5"><a xlink:href="classdev_1_1filechampion_1_1filechampion4j_1_1_plugins_helper_1_1_step_config.html#a4b6553bde319aaba0681dabe11c89250" target="_top" xlink:title=" ">
<polygon fill="white" stroke="#666666" points="373.5,-196.5 204.5,-196.5 204.5,-166.5 373.5,-166.5 373.5,-196.5"/>
<text text-anchor="start" x="212.5" y="-184.5" font-family="Helvetica,sans-Serif" font-size="10.00">dev.filechampion.filechampion4j.</text>
<text text-anchor="middle" x="289" y="-173.5" font-family="Helvetica,sans-Serif" font-size="10.00">PluginsHelper.StepConfig.getName</text>
</a>
</g>
</g>
<!-- Node1&#45;&gt;Node5 -->
<g id="edge4" class="edge">
<title>Node1&#45;&gt;Node5</title>
<path fill="none" stroke="#63b8ff" d="M155.32,-181.5C167.73,-181.5 180.7,-181.5 193.47,-181.5"/>
<polygon fill="#63b8ff" stroke="#63b8ff" points="193.13,-185 203.13,-181.5 193.13,-178 193.13,-185"/>
</g>
<!-- Node6 -->
<g id="node6" class="node">
<title>Node6</title>
<g id="a_node6"><a xlink:href="classdev_1_1filechampion_1_1filechampion4j_1_1_cli_plugin_helper.html#a34a1ea7199dd06e8c4fdad00285b8470" target="_top" xlink:title=" ">
<polygon fill="white" stroke="#666666" points="366.5,-62.5 211.5,-62.5 211.5,-32.5 366.5,-32.5 366.5,-62.5"/>
<text text-anchor="start" x="219.5" y="-50.5" font-family="Helvetica,sans-Serif" font-size="10.00">dev.filechampion.filechampion4j.</text>
<text text-anchor="middle" x="289" y="-39.5" font-family="Helvetica,sans-Serif" font-size="10.00">CliPluginHelper.prepEndpoint</text>
</a>
</g>
</g>
<!-- Node1&#45;&gt;Node6 -->
<g id="edge6" class="edge">
<title>Node1&#45;&gt;Node6</title>
<path fill="none" stroke="#63b8ff" d="M89.77,-166.1C108.19,-142.09 147.09,-95.96 191,-71.5 194.24,-69.69 197.62,-68.02 201.09,-66.47"/>
<polygon fill="#63b8ff" stroke="#63b8ff" points="202.11,-69.43 210.07,-62.43 199.48,-62.94 202.11,-69.43"/>
</g>
<!-- Node11 -->
<g id="node11" class="node">
<title>Node11</title>
<g id="a_node11"><a xlink:href="classdev_1_1filechampion_1_1filechampion4j_1_1_cli_plugin_helper.html#a5183ae1a9f3f06c8c5390771050e6bea" target="_top" xlink:title=" ">
<polygon fill="white" stroke="#666666" points="372.5,-110.5 205.5,-110.5 205.5,-80.5 372.5,-80.5 372.5,-110.5"/>
<text text-anchor="start" x="213.5" y="-98.5" font-family="Helvetica,sans-Serif" font-size="10.00">dev.filechampion.filechampion4j.</text>
<text text-anchor="middle" x="289" y="-87.5" font-family="Helvetica,sans-Serif" font-size="10.00">CliPluginHelper.saveFileToTempDir</text>
</a>
</g>
</g>
<!-- Node1&#45;&gt;Node11 -->
<g id="edge11" class="edge">
<title>Node1&#45;&gt;Node11</title>
<path fill="none" stroke="#63b8ff" d="M105.6,-166.04C128.01,-153.69 160.9,-136.51 191,-124.5 200.27,-120.8 210.2,-117.32 220.04,-114.13"/>
<polygon fill="#63b8ff" stroke="#63b8ff" points="220.74,-117.27 229.23,-110.93 218.64,-110.59 220.74,-117.27"/>
</g>
<!-- Node12 -->
<g id="node12" class="node">
<title>Node12</title>
<g id="a_node12"><a xlink:href="classdev_1_1filechampion_1_1filechampion4j_1_1_cli_plugin_helper.html#abe8af04a9bec3c70eec44cb0f80b315c" target="_top" xlink:title=" ">
<polygon fill="white" stroke="#666666" points="383.5,-292.5 194.5,-292.5 194.5,-262.5 383.5,-262.5 383.5,-292.5"/>
<text text-anchor="start" x="202.5" y="-280.5" font-family="Helvetica,sans-Serif" font-size="10.00">dev.filechampion.filechampion4j.</text>
<text text-anchor="middle" x="289" y="-269.5" font-family="Helvetica,sans-Serif" font-size="10.00">CliPluginHelper.timedProcessExecution</text>
</a>
</g>
</g>
<!-- Node1&#45;&gt;Node12 -->
<g id="edge12" class="edge">
<title>Node1&#45;&gt;Node12</title>
<path fill="none" stroke="#63b8ff" d="M98.11,-196.89C119.72,-213.16 156.06,-238.48 191,-253.5 195.33,-255.36 199.83,-257.1 204.43,-258.72"/>
<polygon fill="#63b8ff" stroke="#63b8ff" points="202.99,-262.26 213.59,-262.07 205.19,-255.61 202.99,-262.26"/>
</g>
<!-- Node3&#45;&gt;Node4 -->
<g id="edge3" class="edge">
<title>Node3&#45;&gt;Node4</title>
<path fill="none" stroke="#63b8ff" d="M387.3,-229.5C398.04,-229.5 408.94,-229.5 419.56,-229.5"/>
<polygon fill="#63b8ff" stroke="#63b8ff" points="419.51,-233 429.51,-229.5 419.51,-226 419.51,-233"/>
</g>
<!-- Node7 -->
<g id="node7" class="node">
<title>Node7</title>
<g id="a_node7"><a xlink:href="classdev_1_1filechampion_1_1filechampion4j_1_1_cli_plugin_helper.html#a1909fb4ef2f9e8a3029bbc8c921bc2fa" target="_top" xlink:title=" ">
<polygon fill="white" stroke="#666666" points="594,-62.5 423,-62.5 423,-32.5 594,-32.5 594,-62.5"/>
<text text-anchor="start" x="431" y="-50.5" font-family="Helvetica,sans-Serif" font-size="10.00">dev.filechampion.filechampion4j.</text>
<text text-anchor="middle" x="508.5" y="-39.5" font-family="Helvetica,sans-Serif" font-size="10.00">CliPluginHelper.calculateChecksum</text>
</a>
</g>
</g>
<!-- Node6&#45;&gt;Node7 -->
<g id="edge7" class="edge">
<title>Node6&#45;&gt;Node7</title>
<path fill="none" stroke="#63b8ff" d="M366.99,-47.5C381.54,-47.5 396.93,-47.5 411.97,-47.5"/>
<polygon fill="#63b8ff" stroke="#63b8ff" points="411.85,-51 421.85,-47.5 411.85,-44 411.85,-51"/>
</g>
<!-- Node8 -->
<g id="node8" class="node">
<title>Node8</title>
<g id="a_node8"><a xlink:href="classdev_1_1filechampion_1_1filechampion4j_1_1_s_h256_calculate.html#a71d85e9593fe89524a5b26eaa6f52ade" target="_top" xlink:title=" ">
<polygon fill="white" stroke="#666666" points="785,-62.5 630,-62.5 630,-32.5 785,-32.5 785,-62.5"/>
<text text-anchor="start" x="638" y="-50.5" font-family="Helvetica,sans-Serif" font-size="10.00">dev.filechampion.filechampion4j.</text>
<text text-anchor="middle" x="707.5" y="-39.5" font-family="Helvetica,sans-Serif" font-size="10.00">SH256Calculate.getChecksum</text>
</a>
</g>
</g>
<!-- Node7&#45;&gt;Node8 -->
<g id="edge8" class="edge">
<title>Node7&#45;&gt;Node8</title>
<path fill="none" stroke="#63b8ff" d="M594.48,-47.5C602.49,-47.5 610.63,-47.5 618.68,-47.5"/>
<polygon fill="#63b8ff" stroke="#63b8ff" points="618.57,-51 628.57,-47.5 618.57,-44 618.57,-51"/>
</g>
<!-- Node9 -->
<g id="node9" class="node">
<title>Node9</title>
<g id="a_node9"><a xlink:href="classdev_1_1filechampion_1_1filechampion4j_1_1_s_h256_calculate.html#a34e1629b0d7c954639e688ff9ee9bd63" target="_top" xlink:title=" ">
<polygon fill="white" stroke="#666666" points="1032,-89.5 821,-89.5 821,-59.5 1032,-59.5 1032,-89.5"/>
<text text-anchor="start" x="829" y="-77.5" font-family="Helvetica,sans-Serif" font-size="10.00">dev.filechampion.filechampion4j.</text>
<text text-anchor="middle" x="926.5" y="-66.5" font-family="Helvetica,sans-Serif" font-size="10.00">SH256Calculate.calculateSHA256Checksum</text>
</a>
</g>
</g>
<!-- Node8&#45;&gt;Node9 -->
<g id="edge9" class="edge">
<title>Node8&#45;&gt;Node9</title>
<path fill="none" stroke="#63b8ff" d="M785.31,-57.06C793.28,-58.05 801.5,-59.07 809.77,-60.1"/>
<polygon fill="#63b8ff" stroke="#63b8ff" points="809.31,-63.69 819.67,-61.46 810.18,-56.75 809.31,-63.69"/>
</g>
<!-- Node10 -->
<g id="node10" class="node">
<title>Node10</title>
<g id="a_node10"><a xlink:href="classdev_1_1filechampion_1_1filechampion4j_1_1_s_h256_calculate.html#a33c4e0514e71ad95a82eda265a5f0252" target="_top" xlink:title=" ">
<polygon fill="white" stroke="#666666" points="1021,-41 832,-41 832,0 1021,0 1021,-41"/>
<text text-anchor="start" x="840" y="-29" font-family="Helvetica,sans-Serif" font-size="10.00">dev.filechampion.filechampion4j.</text>
<text text-anchor="start" x="840" y="-18" font-family="Helvetica,sans-Serif" font-size="10.00">SH256Calculate.calculateSmallSHA256</text>
<text text-anchor="middle" x="926.5" y="-7" font-family="Helvetica,sans-Serif" font-size="10.00">Checksum</text>
</a>
</g>
</g>
<!-- Node8&#45;&gt;Node10 -->
<g id="edge10" class="edge">
<title>Node8&#45;&gt;Node10</title>
<path fill="none" stroke="#63b8ff" d="M785.31,-37.94C796.91,-36.5 809.04,-34.99 821.1,-33.49"/>
<polygon fill="#63b8ff" stroke="#63b8ff" points="821.17,-36.88 830.67,-32.18 820.31,-29.94 821.17,-36.88"/>
</g>
<!-- Node12&#45;&gt;Node4 -->
<g id="edge13" class="edge">
<title>Node12&#45;&gt;Node4</title>
<path fill="none" stroke="#63b8ff" d="M360.02,-262.05C381.36,-257.34 404.99,-252.12 426.97,-247.27"/>
<polygon fill="#63b8ff" stroke="#63b8ff" points="427.6,-250.5 436.62,-244.92 426.1,-243.66 427.6,-250.5"/>
</g>
</g>
</svg>
