<?xml version="1.0" encoding="UTF-8" standalone="no"?>
<!DOCTYPE svg PUBLIC "-//W3C//DTD SVG 1.1//EN"
 "http://www.w3.org/Graphics/SVG/1.1/DTD/svg11.dtd">
<!-- Generated by graphviz version 8.0.3 (20230416.2022)
 -->
<!-- Title: dev.filechampion.filechampion4j.ValidationsHelper.checkMimeType Pages: 1 -->
<svg width="770pt" height="292pt"
 viewBox="0.00 0.00 770.00 292.00" xmlns="http://www.w3.org/2000/svg" xmlns:xlink="http://www.w3.org/1999/xlink">
<g id="graph0" class="graph" transform="scale(1 1) rotate(0) translate(4 288)">
<title>dev.filechampion.filechampion4j.ValidationsHelper.checkMimeType</title>
<!-- Node1 -->
<g id="node1" class="node">
<title>Node1</title>
<g id="a_node1"><a xlink:title=" ">
<polygon fill="#999999" stroke="#666666" points="167,-174 0,-174 0,-144 167,-144 167,-174"/>
<text text-anchor="start" x="8" y="-162" font-family="Helvetica,sans-Serif" font-size="10.00">dev.filechampion.filechampion4j.</text>
<text text-anchor="middle" x="83.5" y="-151" font-family="Helvetica,sans-Serif" font-size="10.00">ValidationsHelper.checkMimeType</text>
</a>
</g>
</g>
<!-- Node2 -->
<g id="node2" class="node">
<title>Node2</title>
<g id="a_node2"><a xlink:href="classdev_1_1filechampion_1_1filechampion4j_1_1_validations_helper.html#aa4f7e8b626db5b4c4071c77b36693d2b" target="_top" xlink:title=" ">
<polygon fill="white" stroke="#666666" points="370.5,-284 212.5,-284 212.5,-254 370.5,-254 370.5,-284"/>
<text text-anchor="start" x="220.5" y="-272" font-family="Helvetica,sans-Serif" font-size="10.00">dev.filechampion.filechampion4j.</text>
<text text-anchor="middle" x="291.5" y="-261" font-family="Helvetica,sans-Serif" font-size="10.00">ValidationsHelper.deleteTempDir</text>
</a>
</g>
</g>
<!-- Node1&#45;&gt;Node2 -->
<g id="edge1" class="edge">
<title>Node1&#45;&gt;Node2</title>
<path fill="none" stroke="#63b8ff" d="M103.18,-174.23C125.71,-192 165.26,-221.31 203,-240 210.18,-243.56 217.9,-246.83 225.67,-249.8"/>
<polygon fill="#63b8ff" stroke="#63b8ff" points="224.28,-253.38 234.87,-253.52 226.68,-246.8 224.28,-253.38"/>
</g>
<!-- Node3 -->
<g id="node3" class="node">
<title>Node3</title>
<g id="a_node3"><a xlink:href="classdev_1_1filechampion_1_1filechampion4j_1_1_validations_helper.html#a19e635fd3852e01ab67af0db7700a462" target="_top" xlink:title=" ">
<polygon fill="white" stroke="#666666" points="571,-241 416,-241 416,-211 571,-211 571,-241"/>
<text text-anchor="start" x="424" y="-229" font-family="Helvetica,sans-Serif" font-size="10.00">dev.filechampion.filechampion4j.</text>
<text text-anchor="middle" x="493.5" y="-218" font-family="Helvetica,sans-Serif" font-size="10.00">ValidationsHelper.logWarn</text>
</a>
</g>
</g>
<!-- Node1&#45;&gt;Node3 -->
<g id="edge9" class="edge">
<title>Node1&#45;&gt;Node3</title>
<path fill="none" stroke="#63b8ff" d="M114.81,-174.43C138.24,-185.57 171.84,-199.86 203,-207 269.53,-222.24 346.75,-226.67 404.7,-227.46"/>
<polygon fill="#63b8ff" stroke="#63b8ff" points="404.62,-230.97 414.65,-227.57 404.69,-223.97 404.62,-230.97"/>
</g>
<!-- Node4 -->
<g id="node4" class="node">
<title>Node4</title>
<g id="a_node4"><a xlink:href="classdev_1_1filechampion_1_1filechampion4j_1_1_extensions.html#ac3de7a6e3faa8e7f76d0d3705e02a42d" target="_top" xlink:title=" ">
<polygon fill="white" stroke="#666666" points="369,-54 214,-54 214,-24 369,-24 369,-54"/>
<text text-anchor="start" x="222" y="-42" font-family="Helvetica,sans-Serif" font-size="10.00">dev.filechampion.filechampion4j.</text>
<text text-anchor="middle" x="291.5" y="-31" font-family="Helvetica,sans-Serif" font-size="10.00">Extensions.getValidationValue</text>
</a>
</g>
</g>
<!-- Node1&#45;&gt;Node4 -->
<g id="edge3" class="edge">
<title>Node1&#45;&gt;Node4</title>
<path fill="none" stroke="#63b8ff" d="M99.12,-143.69C120.16,-122.53 161.07,-84.52 203,-63 206.15,-61.38 209.43,-59.86 212.78,-58.44"/>
<polygon fill="#63b8ff" stroke="#63b8ff" points="213.97,-61.34 222.01,-54.44 211.42,-54.82 213.97,-61.34"/>
</g>
<!-- Node8 -->
<g id="node8" class="node">
<title>Node8</title>
<g id="a_node8"><a xlink:href="classdev_1_1filechampion_1_1filechampion4j_1_1_validations_helper.html#a74bd8e5177ce42b308623ab3bd1ba05e" target="_top" xlink:title=" ">
<polygon fill="white" stroke="#666666" points="369,-150 214,-150 214,-120 369,-120 369,-150"/>
<text text-anchor="start" x="222" y="-138" font-family="Helvetica,sans-Serif" font-size="10.00">dev.filechampion.filechampion4j.</text>
<text text-anchor="middle" x="291.5" y="-127" font-family="Helvetica,sans-Serif" font-size="10.00">ValidationsHelper.isBlank</text>
</a>
</g>
</g>
<!-- Node1&#45;&gt;Node8 -->
<g id="edge7" class="edge">
<title>Node1&#45;&gt;Node8</title>
<path fill="none" stroke="#63b8ff" d="M167.4,-149.34C179.12,-147.98 191.21,-146.57 203.02,-145.19"/>
<polygon fill="#63b8ff" stroke="#63b8ff" points="203.24,-148.57 212.77,-143.94 202.43,-141.62 203.24,-148.57"/>
</g>
<!-- Node9 -->
<g id="node9" class="node">
<title>Node9</title>
<g id="a_node9"><a xlink:href="classdev_1_1filechampion_1_1filechampion4j_1_1_validations_helper.html#a67f90f5fb54527c7f2becb8fc6eaafaa" target="_top" xlink:title=" ">
<polygon fill="white" stroke="#666666" points="369,-102 214,-102 214,-72 369,-72 369,-102"/>
<text text-anchor="start" x="222" y="-90" font-family="Helvetica,sans-Serif" font-size="10.00">dev.filechampion.filechampion4j.</text>
<text text-anchor="middle" x="291.5" y="-79" font-family="Helvetica,sans-Serif" font-size="10.00">ValidationsHelper.logFine</text>
</a>
</g>
</g>
<!-- Node1&#45;&gt;Node9 -->
<g id="edge8" class="edge">
<title>Node1&#45;&gt;Node9</title>
<path fill="none" stroke="#63b8ff" d="M119.61,-143.51C142.98,-133.52 174.51,-120.64 203,-111 208.5,-109.14 214.23,-107.31 220.02,-105.56"/>
<polygon fill="#63b8ff" stroke="#63b8ff" points="220.85,-108.67 229.44,-102.47 218.86,-101.95 220.85,-108.67"/>
</g>
<!-- Node10 -->
<g id="node10" class="node">
<title>Node10</title>
<g id="a_node10"><a xlink:href="classdev_1_1filechampion_1_1filechampion4j_1_1_validations_helper.html#adb1b1278d1f522489bb3bdd4e3c5f887" target="_top" xlink:title=" ">
<polygon fill="white" stroke="#666666" points="380,-198 203,-198 203,-168 380,-168 380,-198"/>
<text text-anchor="start" x="211" y="-186" font-family="Helvetica,sans-Serif" font-size="10.00">dev.filechampion.filechampion4j.</text>
<text text-anchor="middle" x="291.5" y="-175" font-family="Helvetica,sans-Serif" font-size="10.00">ValidationsHelper.saveFileToTempDir</text>
</a>
</g>
</g>
<!-- Node1&#45;&gt;Node10 -->
<g id="edge10" class="edge">
<title>Node1&#45;&gt;Node10</title>
<path fill="none" stroke="#63b8ff" d="M167.4,-168.66C175.48,-169.6 183.74,-170.56 191.96,-171.52"/>
<polygon fill="#63b8ff" stroke="#63b8ff" points="191.38,-175.09 201.72,-172.77 192.19,-168.14 191.38,-175.09"/>
</g>
<!-- Node2&#45;&gt;Node3 -->
<g id="edge2" class="edge">
<title>Node2&#45;&gt;Node3</title>
<path fill="none" stroke="#63b8ff" d="M364.42,-253.54C379.25,-250.35 394.98,-246.97 410.15,-243.71"/>
<polygon fill="#63b8ff" stroke="#63b8ff" points="410.5,-246.99 419.54,-241.47 409.03,-240.15 410.5,-246.99"/>
</g>
<!-- Node5 -->
<g id="node5" class="node">
<title>Node5</title>
<g id="a_node5"><a xlink:href="classdev_1_1filechampion_1_1filechampion4j_1_1_extensions.html#a0b4d6f0065a4fc61701be6ab4103c441" target="_top" xlink:title=" ">
<polygon fill="white" stroke="#666666" points="571,-30 416,-30 416,0 571,0 571,-30"/>
<text text-anchor="start" x="424" y="-18" font-family="Helvetica,sans-Serif" font-size="10.00">dev.filechampion.filechampion4j.</text>
<text text-anchor="middle" x="493.5" y="-7" font-family="Helvetica,sans-Serif" font-size="10.00">Extensions.checkInputs</text>
</a>
</g>
</g>
<!-- Node4&#45;&gt;Node5 -->
<g id="edge4" class="edge">
<title>Node4&#45;&gt;Node5</title>
<path fill="none" stroke="#63b8ff" d="M369.25,-29.79C380.89,-28.39 392.98,-26.94 404.83,-25.52"/>
<polygon fill="#63b8ff" stroke="#63b8ff" points="405.11,-28.89 414.62,-24.23 404.28,-21.94 405.11,-28.89"/>
</g>
<!-- Node7 -->
<g id="node7" class="node">
<title>Node7</title>
<g id="a_node7"><a xlink:href="classdev_1_1filechampion_1_1filechampion4j_1_1_extensions.html#a0aada571ca5ffb1ca298874d2c0fac50" target="_top" xlink:title=" ">
<polygon fill="white" stroke="#666666" points="571,-78 416,-78 416,-48 571,-48 571,-78"/>
<text text-anchor="start" x="424" y="-66" font-family="Helvetica,sans-Serif" font-size="10.00">dev.filechampion.filechampion4j.</text>
<text text-anchor="middle" x="493.5" y="-55" font-family="Helvetica,sans-Serif" font-size="10.00">Extensions.logFine</text>
</a>
</g>
</g>
<!-- Node4&#45;&gt;Node7 -->
<g id="edge6" class="edge">
<title>Node4&#45;&gt;Node7</title>
<path fill="none" stroke="#63b8ff" d="M369.25,-48.21C380.89,-49.61 392.98,-51.06 404.83,-52.48"/>
<polygon fill="#63b8ff" stroke="#63b8ff" points="404.28,-56.06 414.62,-53.77 405.11,-49.11 404.28,-56.06"/>
</g>
<!-- Node6 -->
<g id="node6" class="node">
<title>Node6</title>
<g id="a_node6"><a xlink:href="classdev_1_1filechampion_1_1filechampion4j_1_1_extensions.html#adebd31331477fe200ec272ae4569f482" target="_top" xlink:title=" ">
<polygon fill="white" stroke="#666666" points="762,-30 607,-30 607,0 762,0 762,-30"/>
<text text-anchor="start" x="615" y="-18" font-family="Helvetica,sans-Serif" font-size="10.00">dev.filechampion.filechampion4j.</text>
<text text-anchor="middle" x="684.5" y="-7" font-family="Helvetica,sans-Serif" font-size="10.00">Extensions.logWarn</text>
</a>
</g>
</g>
<!-- Node5&#45;&gt;Node6 -->
<g id="edge5" class="edge">
<title>Node5&#45;&gt;Node6</title>
<path fill="none" stroke="#63b8ff" d="M571.37,-15C579.47,-15 587.75,-15 595.96,-15"/>
<polygon fill="#63b8ff" stroke="#63b8ff" points="595.69,-18.5 605.69,-15 595.69,-11.5 595.69,-18.5"/>
</g>
<!-- Node10&#45;&gt;Node3 -->
<g id="edge11" class="edge">
<title>Node10&#45;&gt;Node3</title>
<path fill="none" stroke="#63b8ff" d="M364.42,-198.46C379.25,-201.65 394.98,-205.03 410.15,-208.29"/>
<polygon fill="#63b8ff" stroke="#63b8ff" points="409.03,-211.85 419.54,-210.53 410.5,-205.01 409.03,-211.85"/>
</g>
</g>
</svg>
