<?xml version="1.0" encoding="UTF-8" standalone="no"?>
<!DOCTYPE svg PUBLIC "-//W3C//DTD SVG 1.1//EN"
 "http://www.w3.org/Graphics/SVG/1.1/DTD/svg11.dtd">
<!-- Generated by graphviz version 8.0.3 (20230416.2022)
 -->
<!-- Title: dev.filechampion.filechampion4j.FileValidator.loadPlugins Pages: 1 -->
<svg width="626pt" height="866pt"
 viewBox="0.00 0.00 626.00 866.00" xmlns="http://www.w3.org/2000/svg" xmlns:xlink="http://www.w3.org/1999/xlink">
<g id="graph0" class="graph" transform="scale(1 1) rotate(0) translate(4 862)">
<title>dev.filechampion.filechampion4j.FileValidator.loadPlugins</title>
<!-- Node1 -->
<g id="node1" class="node">
<title>Node1</title>
<g id="a_node1"><a xlink:title=" ">
<polygon fill="#999999" stroke="#666666" points="155,-402 0,-402 0,-372 155,-372 155,-402"/>
<text text-anchor="start" x="8" y="-390" font-family="Helvetica,sans-Serif" font-size="10.00">dev.filechampion.filechampion4j.</text>
<text text-anchor="middle" x="77.5" y="-379" font-family="Helvetica,sans-Serif" font-size="10.00">FileValidator.loadPlugins</text>
</a>
</g>
</g>
<!-- Node2 -->
<g id="node2" class="node">
<title>Node2</title>
<g id="a_node2"><a xlink:href="classdev_1_1filechampion_1_1filechampion4j_1_1_plugins_helper.html#a3c9eff65507c31c8b46a1cf0a2199b8d" target="_top" xlink:title=" ">
<polygon fill="white" stroke="#666666" points="359.5,-450 204.5,-450 204.5,-420 359.5,-420 359.5,-450"/>
<text text-anchor="start" x="212.5" y="-438" font-family="Helvetica,sans-Serif" font-size="10.00">dev.filechampion.filechampion4j.</text>
<text text-anchor="middle" x="282" y="-427" font-family="Helvetica,sans-Serif" font-size="10.00">PluginsHelper.getPluginConfigs</text>
</a>
</g>
</g>
<!-- Node1&#45;&gt;Node2 -->
<g id="edge1" class="edge">
<title>Node1&#45;&gt;Node2</title>
<path fill="none" stroke="#63b8ff" d="M143.69,-402.45C163.38,-407.12 185.16,-412.28 205.47,-417.1"/>
<polygon fill="#63b8ff" stroke="#63b8ff" points="204.4,-420.68 214.94,-419.58 206.01,-413.87 204.4,-420.68"/>
</g>
<!-- Node21 -->
<g id="node21" class="node">
<title>Node21</title>
<g id="a_node21"><a xlink:href="classdev_1_1filechampion_1_1filechampion4j_1_1_plugins_helper_1_1_step_config.html#a8dbfa1a6e66bfb5bfb6c56267adff512" target="_top" xlink:title=" ">
<polygon fill="white" stroke="#666666" points="369.5,-402 194.5,-402 194.5,-372 369.5,-372 369.5,-402"/>
<text text-anchor="start" x="202.5" y="-390" font-family="Helvetica,sans-Serif" font-size="10.00">dev.filechampion.filechampion4j.</text>
<text text-anchor="middle" x="282" y="-379" font-family="Helvetica,sans-Serif" font-size="10.00">PluginsHelper.StepConfig.isRunAfter</text>
</a>
</g>
</g>
<!-- Node1&#45;&gt;Node21 -->
<g id="edge20" class="edge">
<title>Node1&#45;&gt;Node21</title>
<path fill="none" stroke="#63b8ff" d="M155.35,-387C164.43,-387 173.8,-387 183.13,-387"/>
<polygon fill="#63b8ff" stroke="#63b8ff" points="183.04,-390.5 193.04,-387 183.04,-383.5 183.04,-390.5"/>
</g>
<!-- Node22 -->
<g id="node22" class="node">
<title>Node22</title>
<g id="a_node22"><a xlink:href="classdev_1_1filechampion_1_1filechampion4j_1_1_plugins_helper_1_1_step_config.html#a3b12813057481aa1767d859ac8360109" target="_top" xlink:title=" ">
<polygon fill="white" stroke="#666666" points="373,-354 191,-354 191,-324 373,-324 373,-354"/>
<text text-anchor="start" x="199" y="-342" font-family="Helvetica,sans-Serif" font-size="10.00">dev.filechampion.filechampion4j.</text>
<text text-anchor="middle" x="282" y="-331" font-family="Helvetica,sans-Serif" font-size="10.00">PluginsHelper.StepConfig.isRunBefore</text>
</a>
</g>
</g>
<!-- Node1&#45;&gt;Node22 -->
<g id="edge21" class="edge">
<title>Node1&#45;&gt;Node22</title>
<path fill="none" stroke="#63b8ff" d="M143.69,-371.55C163.38,-366.88 185.16,-361.72 205.47,-356.9"/>
<polygon fill="#63b8ff" stroke="#63b8ff" points="206.01,-360.13 214.94,-354.42 204.4,-353.32 206.01,-360.13"/>
</g>
<!-- Node3 -->
<g id="node3" class="node">
<title>Node3</title>
<g id="a_node3"><a xlink:href="classdev_1_1filechampion_1_1filechampion4j_1_1_plugins_helper_1_1_step_config.html#ab8380ddb3c9b1838f23cfd3f9f99a7a7" target="_top" xlink:title=" ">
<polygon fill="white" stroke="#666666" points="595.5,-858 431.5,-858 431.5,-828 595.5,-828 595.5,-858"/>
<text text-anchor="start" x="439.5" y="-846" font-family="Helvetica,sans-Serif" font-size="10.00">dev.filechampion.filechampion4j.</text>
<text text-anchor="middle" x="513.5" y="-835" font-family="Helvetica,sans-Serif" font-size="10.00">PluginsHelper.StepConfig.getType</text>
</a>
</g>
</g>
<!-- Node2&#45;&gt;Node3 -->
<g id="edge2" class="edge">
<title>Node2&#45;&gt;Node3</title>
<path fill="none" stroke="#63b8ff" d="M283.03,-450.25C284.01,-508 295.61,-715.3 409,-819 412.84,-822.51 417.09,-825.54 421.61,-828.15"/>
<polygon fill="#63b8ff" stroke="#63b8ff" points="419.72,-831.62 430.23,-832.94 422.84,-825.35 419.72,-831.62"/>
</g>
<!-- Node4 -->
<g id="node4" class="node">
<title>Node4</title>
<g id="a_node4"><a xlink:href="classdev_1_1filechampion_1_1filechampion4j_1_1_plugins_helper_1_1_step_config.html#ab0234d43f0445aaf37e40d9726b18a71" target="_top" xlink:title=" ">
<polygon fill="white" stroke="#666666" points="596.5,-810 430.5,-810 430.5,-780 596.5,-780 596.5,-810"/>
<text text-anchor="start" x="438.5" y="-798" font-family="Helvetica,sans-Serif" font-size="10.00">dev.filechampion.filechampion4j.</text>
<text text-anchor="middle" x="513.5" y="-787" font-family="Helvetica,sans-Serif" font-size="10.00">PluginsHelper.StepConfig.setBody</text>
</a>
</g>
</g>
<!-- Node2&#45;&gt;Node4 -->
<g id="edge3" class="edge">
<title>Node2&#45;&gt;Node4</title>
<path fill="none" stroke="#63b8ff" d="M283.83,-450.18C287.59,-503.24 307.59,-682.07 409,-771 412.51,-774.08 416.34,-776.78 420.39,-779.16"/>
<polygon fill="#63b8ff" stroke="#63b8ff" points="418.69,-782.72 429.19,-784.12 421.85,-776.48 418.69,-782.72"/>
</g>
<!-- Node5 -->
<g id="node5" class="node">
<title>Node5</title>
<g id="a_node5"><a xlink:href="classdev_1_1filechampion_1_1filechampion4j_1_1_plugins_helper_1_1_step_config.html#aaef3dc01014c5c74d3b115936a2273f2" target="_top" xlink:title=" ">
<polygon fill="white" stroke="#666666" points="618,-762 409,-762 409,-732 618,-732 618,-762"/>
<text text-anchor="start" x="417" y="-750" font-family="Helvetica,sans-Serif" font-size="10.00">dev.filechampion.filechampion4j.</text>
<text text-anchor="middle" x="513.5" y="-739" font-family="Helvetica,sans-Serif" font-size="10.00">PluginsHelper.StepConfig.setCliPluginHelper</text>
</a>
</g>
</g>
<!-- Node2&#45;&gt;Node5 -->
<g id="edge4" class="edge">
<title>Node2&#45;&gt;Node5</title>
<path fill="none" stroke="#63b8ff" d="M284.9,-450.36C291.73,-498.67 319.58,-648.73 409,-723 410.24,-724.03 411.52,-725.02 412.83,-725.97"/>
<polygon fill="#63b8ff" stroke="#63b8ff" points="410.57,-729.31 420.9,-731.65 414.28,-723.38 410.57,-729.31"/>
</g>
<!-- Node6 -->
<g id="node6" class="node">
<title>Node6</title>
<g id="a_node6"><a xlink:href="classdev_1_1filechampion_1_1filechampion4j_1_1_plugins_helper_1_1_step_config.html#a6af511bdc0851e573a194a8a57946292" target="_top" xlink:title=" ">
<polygon fill="white" stroke="#666666" points="608,-714 419,-714 419,-684 608,-684 608,-714"/>
<text text-anchor="start" x="427" y="-702" font-family="Helvetica,sans-Serif" font-size="10.00">dev.filechampion.filechampion4j.</text>
<text text-anchor="middle" x="513.5" y="-691" font-family="Helvetica,sans-Serif" font-size="10.00">PluginsHelper.StepConfig.setCredsPath</text>
</a>
</g>
</g>
<!-- Node2&#45;&gt;Node6 -->
<g id="edge5" class="edge">
<title>Node2&#45;&gt;Node6</title>
<path fill="none" stroke="#63b8ff" d="M286.31,-450.22C296.44,-492.96 331.16,-614.88 409,-675 410.46,-676.12 411.95,-677.2 413.49,-678.22"/>
<polygon fill="#63b8ff" stroke="#63b8ff" points="411.27,-681.56 421.67,-683.57 414.79,-675.51 411.27,-681.56"/>
</g>
<!-- Node7 -->
<g id="node7" class="node">
<title>Node7</title>
<g id="a_node7"><a xlink:href="classdev_1_1filechampion_1_1filechampion4j_1_1_plugins_helper_1_1_step_config.html#abdd5d69730eaced237893b1e50a20769" target="_top" xlink:title=" ">
<polygon fill="white" stroke="#666666" points="604.5,-666 422.5,-666 422.5,-636 604.5,-636 604.5,-666"/>
<text text-anchor="start" x="430.5" y="-654" font-family="Helvetica,sans-Serif" font-size="10.00">dev.filechampion.filechampion4j.</text>
<text text-anchor="middle" x="513.5" y="-643" font-family="Helvetica,sans-Serif" font-size="10.00">PluginsHelper.StepConfig.setEndpoint</text>
</a>
</g>
</g>
<!-- Node2&#45;&gt;Node7 -->
<g id="edge6" class="edge">
<title>Node2&#45;&gt;Node7</title>
<path fill="none" stroke="#63b8ff" d="M288.43,-450.33C302.28,-487.1 342.61,-580.7 409,-627 410.76,-628.23 412.57,-629.39 414.43,-630.5"/>
<polygon fill="#63b8ff" stroke="#63b8ff" points="412.57,-634 423.05,-635.55 415.83,-627.8 412.57,-634"/>
</g>
<!-- Node8 -->
<g id="node8" class="node">
<title>Node8</title>
<g id="a_node8"><a xlink:href="classdev_1_1filechampion_1_1filechampion4j_1_1_plugins_helper_1_1_step_config.html#a092c6bb956bcbb8ccd9e383a854238f3" target="_top" xlink:title=" ">
<polygon fill="white" stroke="#666666" points="603,-618 424,-618 424,-588 603,-588 603,-618"/>
<text text-anchor="start" x="432" y="-606" font-family="Helvetica,sans-Serif" font-size="10.00">dev.filechampion.filechampion4j.</text>
<text text-anchor="middle" x="513.5" y="-595" font-family="Helvetica,sans-Serif" font-size="10.00">PluginsHelper.StepConfig.setHeaders</text>
</a>
</g>
</g>
<!-- Node2&#45;&gt;Node8 -->
<g id="edge7" class="edge">
<title>Node2&#45;&gt;Node8</title>
<path fill="none" stroke="#63b8ff" d="M291.86,-450.42C309.87,-480.26 353.72,-545.87 409,-579 411.39,-580.43 413.85,-581.78 416.38,-583.04"/>
<polygon fill="#63b8ff" stroke="#63b8ff" points="414.84,-586.63 425.39,-587.54 417.7,-580.25 414.84,-586.63"/>
</g>
<!-- Node9 -->
<g id="node9" class="node">
<title>Node9</title>
<g id="a_node9"><a xlink:href="classdev_1_1filechampion_1_1filechampion4j_1_1_plugins_helper_1_1_step_config.html#ae9231315c8a10682974cfef4d367e7e8" target="_top" xlink:title=" ">
<polygon fill="white" stroke="#666666" points="613.5,-570 413.5,-570 413.5,-540 613.5,-540 613.5,-570"/>
<text text-anchor="start" x="421.5" y="-558" font-family="Helvetica,sans-Serif" font-size="10.00">dev.filechampion.filechampion4j.</text>
<text text-anchor="middle" x="513.5" y="-547" font-family="Helvetica,sans-Serif" font-size="10.00">PluginsHelper.StepConfig.setHttpFailCode</text>
</a>
</g>
</g>
<!-- Node2&#45;&gt;Node9 -->
<g id="edge8" class="edge">
<title>Node2&#45;&gt;Node9</title>
<path fill="none" stroke="#63b8ff" d="M298.25,-450.15C320.6,-471.47 364.45,-510.06 409,-531 412.79,-532.78 416.72,-534.43 420.74,-535.97"/>
<polygon fill="#63b8ff" stroke="#63b8ff" points="419.27,-539.52 429.87,-539.55 421.6,-532.92 419.27,-539.52"/>
</g>
<!-- Node10 -->
<g id="node10" class="node">
<title>Node10</title>
<g id="a_node10"><a xlink:href="classdev_1_1filechampion_1_1filechampion4j_1_1_plugins_helper_1_1_step_config.html#a8965e3b56f3650e4d47126b5b23c84f3" target="_top" xlink:title=" ">
<polygon fill="white" stroke="#666666" points="616.5,-522 410.5,-522 410.5,-492 616.5,-492 616.5,-522"/>
<text text-anchor="start" x="418.5" y="-510" font-family="Helvetica,sans-Serif" font-size="10.00">dev.filechampion.filechampion4j.</text>
<text text-anchor="middle" x="513.5" y="-499" font-family="Helvetica,sans-Serif" font-size="10.00">PluginsHelper.StepConfig.setHttpPassCode</text>
</a>
</g>
</g>
<!-- Node2&#45;&gt;Node10 -->
<g id="edge9" class="edge">
<title>Node2&#45;&gt;Node10</title>
<path fill="none" stroke="#63b8ff" d="M319.48,-450.41C344.4,-460.56 378.32,-473.65 409,-483 415.7,-485.04 422.68,-487.01 429.73,-488.87"/>
<polygon fill="#63b8ff" stroke="#63b8ff" points="428.5,-492.43 439.06,-491.53 430.25,-485.65 428.5,-492.43"/>
</g>
<!-- Node11 -->
<g id="node11" class="node">
<title>Node11</title>
<g id="a_node11"><a xlink:href="classdev_1_1filechampion_1_1filechampion4j_1_1_plugins_helper_1_1_step_config.html#a02efd84125da95d860a7467040259e4b" target="_top" xlink:title=" ">
<polygon fill="white" stroke="#666666" points="601.5,-474 425.5,-474 425.5,-444 601.5,-444 601.5,-474"/>
<text text-anchor="start" x="433.5" y="-462" font-family="Helvetica,sans-Serif" font-size="10.00">dev.filechampion.filechampion4j.</text>
<text text-anchor="middle" x="513.5" y="-451" font-family="Helvetica,sans-Serif" font-size="10.00">PluginsHelper.StepConfig.setMethod</text>
</a>
</g>
</g>
<!-- Node2&#45;&gt;Node11 -->
<g id="edge10" class="edge">
<title>Node2&#45;&gt;Node11</title>
<path fill="none" stroke="#63b8ff" d="M359.74,-443.03C377.28,-444.86 396.15,-446.83 414.44,-448.75"/>
<polygon fill="#63b8ff" stroke="#63b8ff" points="413.82,-452.3 424.13,-449.86 414.55,-445.34 413.82,-452.3"/>
</g>
<!-- Node12 -->
<g id="node12" class="node">
<title>Node12</title>
<g id="a_node12"><a xlink:href="classdev_1_1filechampion_1_1filechampion4j_1_1_plugins_helper_1_1_plugin_config.html#ac0608d0e9d629fcef3fb1ca0d7875530" target="_top" xlink:title=" ">
<polygon fill="white" stroke="#666666" points="601.5,-426 425.5,-426 425.5,-396 601.5,-396 601.5,-426"/>
<text text-anchor="start" x="433.5" y="-414" font-family="Helvetica,sans-Serif" font-size="10.00">dev.filechampion.filechampion4j.</text>
<text text-anchor="middle" x="513.5" y="-403" font-family="Helvetica,sans-Serif" font-size="10.00">PluginsHelper.PluginConfig.setName</text>
</a>
</g>
</g>
<!-- Node2&#45;&gt;Node12 -->
<g id="edge11" class="edge">
<title>Node2&#45;&gt;Node12</title>
<path fill="none" stroke="#63b8ff" d="M359.74,-426.97C377.28,-425.14 396.15,-423.17 414.44,-421.25"/>
<polygon fill="#63b8ff" stroke="#63b8ff" points="414.55,-424.66 424.13,-420.14 413.82,-417.7 414.55,-424.66"/>
</g>
<!-- Node13 -->
<g id="node13" class="node">
<title>Node13</title>
<g id="a_node13"><a xlink:href="classdev_1_1filechampion_1_1filechampion4j_1_1_plugins_helper_1_1_step_config.html#a3ffb66b59c09bacb56d5950a16458d84" target="_top" xlink:title=" ">
<polygon fill="white" stroke="#666666" points="598,-378 429,-378 429,-348 598,-348 598,-378"/>
<text text-anchor="start" x="437" y="-366" font-family="Helvetica,sans-Serif" font-size="10.00">dev.filechampion.filechampion4j.</text>
<text text-anchor="middle" x="513.5" y="-355" font-family="Helvetica,sans-Serif" font-size="10.00">PluginsHelper.StepConfig.setName</text>
</a>
</g>
</g>
<!-- Node2&#45;&gt;Node13 -->
<g id="edge12" class="edge">
<title>Node2&#45;&gt;Node13</title>
<path fill="none" stroke="#63b8ff" d="M350.68,-419.54C358.34,-417.04 365.93,-414.2 373,-411 390.52,-403.08 391.35,-394.63 409,-387 413.31,-385.14 417.78,-383.41 422.34,-381.81"/>
<polygon fill="#63b8ff" stroke="#63b8ff" points="423.04,-384.93 431.45,-378.49 420.86,-378.28 423.04,-384.93"/>
</g>
<!-- Node14 -->
<g id="node14" class="node">
<title>Node14</title>
<g id="a_node14"><a xlink:href="classdev_1_1filechampion_1_1filechampion4j_1_1_plugins_helper_1_1_step_config.html#a383af20d4c40ba225d81b1c9aa7cff6a" target="_top" xlink:title=" ">
<polygon fill="white" stroke="#666666" points="599.5,-330 427.5,-330 427.5,-300 599.5,-300 599.5,-330"/>
<text text-anchor="start" x="435.5" y="-318" font-family="Helvetica,sans-Serif" font-size="10.00">dev.filechampion.filechampion4j.</text>
<text text-anchor="middle" x="513.5" y="-307" font-family="Helvetica,sans-Serif" font-size="10.00">PluginsHelper.StepConfig.setOnFail</text>
</a>
</g>
</g>
<!-- Node2&#45;&gt;Node14 -->
<g id="edge13" class="edge">
<title>Node2&#45;&gt;Node14</title>
<path fill="none" stroke="#63b8ff" d="M359.92,-419.54C364.57,-417.1 368.99,-414.27 373,-411 400.73,-388.4 380.9,-361.15 409,-339 411.67,-336.9 414.48,-334.97 417.42,-333.21"/>
<polygon fill="#63b8ff" stroke="#63b8ff" points="418.9,-335.87 426.14,-328.13 415.66,-329.66 418.9,-335.87"/>
</g>
<!-- Node15 -->
<g id="node15" class="node">
<title>Node15</title>
<g id="a_node15"><a xlink:href="classdev_1_1filechampion_1_1filechampion4j_1_1_plugins_helper_1_1_step_config.html#a848f08055cadb9eae55c68893b847cc6" target="_top" xlink:title=" ">
<polygon fill="white" stroke="#666666" points="607,-282 420,-282 420,-252 607,-252 607,-282"/>
<text text-anchor="start" x="428" y="-270" font-family="Helvetica,sans-Serif" font-size="10.00">dev.filechampion.filechampion4j.</text>
<text text-anchor="middle" x="513.5" y="-259" font-family="Helvetica,sans-Serif" font-size="10.00">PluginsHelper.StepConfig.setResponse</text>
</a>
</g>
</g>
<!-- Node2&#45;&gt;Node15 -->
<g id="edge14" class="edge">
<title>Node2&#45;&gt;Node15</title>
<path fill="none" stroke="#63b8ff" d="M359.75,-420.79C364.57,-418.06 369.05,-414.83 373,-411 412.98,-372.24 368.4,-329.1 409,-291 409.87,-290.18 410.77,-289.39 411.69,-288.62"/>
<polygon fill="#63b8ff" stroke="#63b8ff" points="413.35,-291.02 419.45,-282.36 409.28,-285.32 413.35,-291.02"/>
</g>
<!-- Node16 -->
<g id="node16" class="node">
<title>Node16</title>
<g id="a_node16"><a xlink:href="classdev_1_1filechampion_1_1filechampion4j_1_1_plugins_helper_1_1_step_config.html#ac6291b12c2af1efb49e5744b51ec9d4d" target="_top" xlink:title=" ">
<polygon fill="white" stroke="#666666" points="604,-234 423,-234 423,-204 604,-204 604,-234"/>
<text text-anchor="start" x="431" y="-222" font-family="Helvetica,sans-Serif" font-size="10.00">dev.filechampion.filechampion4j.</text>
<text text-anchor="middle" x="513.5" y="-211" font-family="Helvetica,sans-Serif" font-size="10.00">PluginsHelper.StepConfig.setRunAfter</text>
</a>
</g>
</g>
<!-- Node2&#45;&gt;Node16 -->
<g id="edge15" class="edge">
<title>Node2&#45;&gt;Node16</title>
<path fill="none" stroke="#63b8ff" d="M359.69,-421.39C364.58,-418.53 369.1,-415.1 373,-411 425.64,-355.68 355.46,-297.45 409,-243 410.68,-241.29 412.46,-239.69 414.32,-238.2"/>
<polygon fill="#63b8ff" stroke="#63b8ff" points="415.67,-240.83 421.95,-232.3 411.72,-235.05 415.67,-240.83"/>
</g>
<!-- Node17 -->
<g id="node17" class="node">
<title>Node17</title>
<g id="a_node17"><a xlink:href="classdev_1_1filechampion_1_1filechampion4j_1_1_plugins_helper_1_1_step_config.html#a7f2db0d9efe3c081f3c992618f023463" target="_top" xlink:title=" ">
<polygon fill="white" stroke="#666666" points="607.5,-186 419.5,-186 419.5,-156 607.5,-156 607.5,-186"/>
<text text-anchor="start" x="427.5" y="-174" font-family="Helvetica,sans-Serif" font-size="10.00">dev.filechampion.filechampion4j.</text>
<text text-anchor="middle" x="513.5" y="-163" font-family="Helvetica,sans-Serif" font-size="10.00">PluginsHelper.StepConfig.setRunBefore</text>
</a>
</g>
</g>
<!-- Node2&#45;&gt;Node17 -->
<g id="edge16" class="edge">
<title>Node2&#45;&gt;Node17</title>
<path fill="none" stroke="#63b8ff" d="M359.9,-421.59C364.75,-418.68 369.19,-415.19 373,-411 438.46,-338.98 342.37,-265.94 409,-195 409.57,-194.39 410.15,-193.8 410.74,-193.23"/>
<polygon fill="#63b8ff" stroke="#63b8ff" points="412.5,-195.49 418.03,-186.46 408.07,-190.07 412.5,-195.49"/>
</g>
<!-- Node18 -->
<g id="node18" class="node">
<title>Node18</title>
<g id="a_node18"><a xlink:href="classdev_1_1filechampion_1_1filechampion4j_1_1_plugins_helper_1_1_plugin_config.html#ae5fda8a9d95edb4f7d81f1b23e7fa8da" target="_top" xlink:title=" ">
<polygon fill="white" stroke="#666666" points="598.5,-137.5 428.5,-137.5 428.5,-96.5 598.5,-96.5 598.5,-137.5"/>
<text text-anchor="start" x="436.5" y="-125.5" font-family="Helvetica,sans-Serif" font-size="10.00">dev.filechampion.filechampion4j.</text>
<text text-anchor="start" x="436.5" y="-114.5" font-family="Helvetica,sans-Serif" font-size="10.00">PluginsHelper.PluginConfig.setStep</text>
<text text-anchor="middle" x="513.5" y="-103.5" font-family="Helvetica,sans-Serif" font-size="10.00">Configs</text>
</a>
</g>
</g>
<!-- Node2&#45;&gt;Node18 -->
<g id="edge17" class="edge">
<title>Node2&#45;&gt;Node18</title>
<path fill="none" stroke="#63b8ff" d="M359.63,-421.96C364.6,-418.98 369.15,-415.37 373,-411 451.34,-322.2 331.62,-236.64 409,-147 412.03,-143.49 415.43,-140.39 419.12,-137.63"/>
<polygon fill="#63b8ff" stroke="#63b8ff" points="420.65,-140.17 427.19,-131.83 416.88,-134.27 420.65,-140.17"/>
</g>
<!-- Node19 -->
<g id="node19" class="node">
<title>Node19</title>
<g id="a_node19"><a xlink:href="classdev_1_1filechampion_1_1filechampion4j_1_1_plugins_helper_1_1_step_config.html#a270b36b24b8d3a0ed0432ca72ab2e6c4" target="_top" xlink:title=" ">
<polygon fill="white" stroke="#666666" points="602.5,-78 424.5,-78 424.5,-48 602.5,-48 602.5,-78"/>
<text text-anchor="start" x="432.5" y="-66" font-family="Helvetica,sans-Serif" font-size="10.00">dev.filechampion.filechampion4j.</text>
<text text-anchor="middle" x="513.5" y="-55" font-family="Helvetica,sans-Serif" font-size="10.00">PluginsHelper.StepConfig.setTimeout</text>
</a>
</g>
</g>
<!-- Node2&#45;&gt;Node19 -->
<g id="edge18" class="edge">
<title>Node2&#45;&gt;Node19</title>
<path fill="none" stroke="#63b8ff" d="M359.75,-422.07C364.69,-419.06 369.2,-415.41 373,-411 467.22,-301.51 313.5,-196.37 409,-88 411.06,-85.66 413.3,-83.52 415.69,-81.56"/>
<polygon fill="#63b8ff" stroke="#63b8ff" points="417.08,-84.16 423.31,-75.59 413.1,-78.41 417.08,-84.16"/>
</g>
<!-- Node20 -->
<g id="node20" class="node">
<title>Node20</title>
<g id="a_node20"><a xlink:href="classdev_1_1filechampion_1_1filechampion4j_1_1_plugins_helper_1_1_step_config.html#a4640a883c14b655a5072f66bd9adea91" target="_top" xlink:title=" ">
<polygon fill="white" stroke="#666666" points="595.5,-30 431.5,-30 431.5,0 595.5,0 595.5,-30"/>
<text text-anchor="start" x="439.5" y="-18" font-family="Helvetica,sans-Serif" font-size="10.00">dev.filechampion.filechampion4j.</text>
<text text-anchor="middle" x="513.5" y="-7" font-family="Helvetica,sans-Serif" font-size="10.00">PluginsHelper.StepConfig.setType</text>
</a>
</g>
</g>
<!-- Node2&#45;&gt;Node20 -->
<g id="edge19" class="edge">
<title>Node2&#45;&gt;Node20</title>
<path fill="none" stroke="#63b8ff" d="M359.82,-422.13C364.75,-419.11 369.23,-415.44 373,-411 426.72,-347.66 354.25,-101.46 409,-39 412.7,-34.77 416.99,-31.21 421.68,-28.22"/>
<polygon fill="#63b8ff" stroke="#63b8ff" points="422.97,-30.96 430.11,-23.14 419.65,-24.8 422.97,-30.96"/>
</g>
</g>
</svg>
