<?xml version="1.0" encoding="UTF-8" standalone="no"?>
<!DOCTYPE svg PUBLIC "-//W3C//DTD SVG 1.1//EN"
 "http://www.w3.org/Graphics/SVG/1.1/DTD/svg11.dtd">
<!-- Generated by graphviz version 8.0.3 (20230416.2022)
 -->
<!-- Title: dev.filechampion.filechampion4j.ValidationsHelper Pages: 1 -->
<svg width="493pt" height="1250pt"
 viewBox="0.00 0.00 492.50 1250.00" xmlns="http://www.w3.org/2000/svg" xmlns:xlink="http://www.w3.org/1999/xlink">
<g id="graph0" class="graph" transform="scale(1 1) rotate(0) translate(4 1246)">
<title>dev.filechampion.filechampion4j.ValidationsHelper</title>
<!-- Node1 -->
<g id="node1" class="node">
<title>Node1</title>
<g id="a_node1"><a xlink:title=" ">
<polygon fill="#999999" stroke="#666666" points="0,-0.5 0,-607.5 173,-607.5 173,-0.5 0,-0.5"/>
<text text-anchor="start" x="8" y="-595.5" font-family="Helvetica,sans-Serif" font-size="10.00">dev.filechampion.filechampion4j.</text>
<text text-anchor="middle" x="86.5" y="-584.5" font-family="Helvetica,sans-Serif" font-size="10.00">ValidationsHelper</text>
<polyline fill="none" stroke="#666666" points="0,-577.5 173,-577.5"/>
<text text-anchor="start" x="8" y="-565.5" font-family="Helvetica,sans-Serif" font-size="10.00">&#45; boolean failFast</text>
<text text-anchor="start" x="8" y="-554.5" font-family="Helvetica,sans-Serif" font-size="10.00">&#45; StringBuilder sharedString</text>
<text text-anchor="start" x="8" y="-543.5" font-family="Helvetica,sans-Serif" font-size="10.00">Builder</text>
<text text-anchor="start" x="8" y="-532.5" font-family="Helvetica,sans-Serif" font-size="10.00">&#45; String fileCategory</text>
<text text-anchor="start" x="8" y="-521.5" font-family="Helvetica,sans-Serif" font-size="10.00">&#45; byte[] originalFile</text>
<text text-anchor="start" x="8" y="-510.5" font-family="Helvetica,sans-Serif" font-size="10.00">&#45; String mimeString</text>
<text text-anchor="start" x="8" y="-499.5" font-family="Helvetica,sans-Serif" font-size="10.00">&#45; String fileExtension</text>
<text text-anchor="start" x="8" y="-488.5" font-family="Helvetica,sans-Serif" font-size="10.00">&#45; String commonLogString</text>
<text text-anchor="start" x="8" y="-477.5" font-family="Helvetica,sans-Serif" font-size="10.00">&#45; int responseMsgCountFail</text>
<text text-anchor="start" x="8" y="-466.5" font-family="Helvetica,sans-Serif" font-size="10.00">&#45; StringBuilder sbresponse</text>
<text text-anchor="start" x="8" y="-455.5" font-family="Helvetica,sans-Serif" font-size="10.00">AggregationFail</text>
<text text-anchor="start" x="8" y="-444.5" font-family="Helvetica,sans-Serif" font-size="10.00">&#45; int responseMsgCountSuccess</text>
<text text-anchor="start" x="8" y="-433.5" font-family="Helvetica,sans-Serif" font-size="10.00">&#45; StringBuilder sbresponse</text>
<text text-anchor="start" x="8" y="-422.5" font-family="Helvetica,sans-Serif" font-size="10.00">AggregationSuccess</text>
<polyline fill="none" stroke="#666666" points="0,-415.5 173,-415.5"/>
<text text-anchor="start" x="8" y="-403.5" font-family="Helvetica,sans-Serif" font-size="10.00">+ ValidationsHelper</text>
<text text-anchor="start" x="8" y="-392.5" font-family="Helvetica,sans-Serif" font-size="10.00">(Extensions extensions)</text>
<text text-anchor="start" x="8" y="-381.5" font-family="Helvetica,sans-Serif" font-size="10.00">+ StringBuilder getValidation</text>
<text text-anchor="start" x="8" y="-370.5" font-family="Helvetica,sans-Serif" font-size="10.00">Results(String fileCategory,</text>
<text text-anchor="start" x="8" y="-359.5" font-family="Helvetica,sans-Serif" font-size="10.00"> String fileName, byte[] originalFile,</text>
<text text-anchor="start" x="8" y="-348.5" font-family="Helvetica,sans-Serif" font-size="10.00"> String mimeString)</text>
<text text-anchor="start" x="8" y="-337.5" font-family="Helvetica,sans-Serif" font-size="10.00">~ [static initializer]</text>
<text text-anchor="start" x="8" y="-326.5" font-family="Helvetica,sans-Serif" font-size="10.00">&#45; StringBuilder doValidations()</text>
<text text-anchor="start" x="8" y="-315.5" font-family="Helvetica,sans-Serif" font-size="10.00">&#45; void logWarn(StringBuilder</text>
<text text-anchor="start" x="8" y="-304.5" font-family="Helvetica,sans-Serif" font-size="10.00"> message)</text>
<text text-anchor="start" x="8" y="-293.5" font-family="Helvetica,sans-Serif" font-size="10.00">&#45; void logFine(StringBuilder</text>
<text text-anchor="start" x="8" y="-282.5" font-family="Helvetica,sans-Serif" font-size="10.00"> message)</text>
<text text-anchor="start" x="8" y="-271.5" font-family="Helvetica,sans-Serif" font-size="10.00">&#45; boolean isBlank(String str)</text>
<text text-anchor="start" x="8" y="-260.5" font-family="Helvetica,sans-Serif" font-size="10.00">&#45; StringBuilder checkFileSize()</text>
<text text-anchor="start" x="8" y="-249.5" font-family="Helvetica,sans-Serif" font-size="10.00">&#45; StringBuilder checkMimeType()</text>
<text text-anchor="start" x="8" y="-238.5" font-family="Helvetica,sans-Serif" font-size="10.00">&#45; String getFileExtension</text>
<text text-anchor="start" x="8" y="-227.5" font-family="Helvetica,sans-Serif" font-size="10.00">(String fileName)</text>
<text text-anchor="start" x="8" y="-216.5" font-family="Helvetica,sans-Serif" font-size="10.00">&#45; StringBuilder containsMagic</text>
<text text-anchor="start" x="8" y="-205.5" font-family="Helvetica,sans-Serif" font-size="10.00">Bytes()</text>
<text text-anchor="start" x="8" y="-194.5" font-family="Helvetica,sans-Serif" font-size="10.00">&#45; boolean containsMagicBytes</text>
<text text-anchor="start" x="8" y="-183.5" font-family="Helvetica,sans-Serif" font-size="10.00">Processor(byte[] originalFileBytes,</text>
<text text-anchor="start" x="8" y="-172.5" font-family="Helvetica,sans-Serif" font-size="10.00"> String magicBytesPattern)</text>
<text text-anchor="start" x="8" y="-161.5" font-family="Helvetica,sans-Serif" font-size="10.00">&#45; StringBuilder containsHeader</text>
<text text-anchor="start" x="8" y="-150.5" font-family="Helvetica,sans-Serif" font-size="10.00">Signatures()</text>
<text text-anchor="start" x="8" y="-139.5" font-family="Helvetica,sans-Serif" font-size="10.00">&#45; boolean containsHeaderSignatures</text>
<text text-anchor="start" x="8" y="-128.5" font-family="Helvetica,sans-Serif" font-size="10.00">Processor(byte[] fileBytes,</text>
<text text-anchor="start" x="8" y="-117.5" font-family="Helvetica,sans-Serif" font-size="10.00"> String headerSignaturesPattern)</text>
<text text-anchor="start" x="8" y="-106.5" font-family="Helvetica,sans-Serif" font-size="10.00">&#45; StringBuilder containsFooter</text>
<text text-anchor="start" x="8" y="-95.5" font-family="Helvetica,sans-Serif" font-size="10.00">Signatures()</text>
<text text-anchor="start" x="8" y="-84.5" font-family="Helvetica,sans-Serif" font-size="10.00">&#45; boolean containsFooterSignatures</text>
<text text-anchor="start" x="8" y="-73.5" font-family="Helvetica,sans-Serif" font-size="10.00">Processor(byte[] fileBytes,</text>
<text text-anchor="start" x="8" y="-62.5" font-family="Helvetica,sans-Serif" font-size="10.00"> String footerSignaturesPattern)</text>
<text text-anchor="start" x="8" y="-51.5" font-family="Helvetica,sans-Serif" font-size="10.00">&#45; Path saveFileToTempDir</text>
<text text-anchor="start" x="8" y="-40.5" font-family="Helvetica,sans-Serif" font-size="10.00">(String fileExtension,</text>
<text text-anchor="start" x="8" y="-29.5" font-family="Helvetica,sans-Serif" font-size="10.00"> byte[] originalFile)</text>
<text text-anchor="start" x="8" y="-18.5" font-family="Helvetica,sans-Serif" font-size="10.00">&#45; Boolean deleteTempDir</text>
<text text-anchor="start" x="8" y="-7.5" font-family="Helvetica,sans-Serif" font-size="10.00">(Path tempFilePath)</text>
</a>
</g>
</g>
<!-- Node2 -->
<g id="node2" class="node">
<title>Node2</title>
<g id="a_node2"><a xlink:title=" ">
<polygon fill="white" stroke="#666666" points="47.5,-1063 47.5,-1120 93.5,-1120 93.5,-1063 47.5,-1063"/>
<text text-anchor="middle" x="70.5" y="-1108" font-family="Helvetica,sans-Serif" font-size="10.00">Logger</text>
<polyline fill="none" stroke="#666666" points="47.5,-1101 93.5,-1101"/>
<text text-anchor="middle" x="70.5" y="-1089" font-family="Helvetica,sans-Serif" font-size="10.00"> </text>
<polyline fill="none" stroke="#666666" points="47.5,-1082 93.5,-1082"/>
<text text-anchor="middle" x="70.5" y="-1070" font-family="Helvetica,sans-Serif" font-size="10.00"> </text>
</a>
</g>
</g>
<!-- Node2&#45;&gt;Node1 -->
<g id="edge1" class="edge">
<title>Node2&#45;&gt;Node1</title>
<path fill="none" stroke="#404040" d="M71.06,-1063C72.51,-991.91 76.51,-795.29 80.08,-620.13"/>
<polygon fill="none" stroke="#404040" points="80.08,-620.19 76.2,-614.11 80.32,-608.19 84.2,-614.27 80.08,-620.19"/>
<text text-anchor="middle" x="103.5" y="-819" font-family="Helvetica,sans-Serif" font-size="10.00"> &#45;LOGGER</text>
</g>
<!-- Node3 -->
<g id="node3" class="node">
<title>Node3</title>
<g id="a_node3"><a xlink:href="classdev_1_1filechampion_1_1filechampion4j_1_1_extensions.html" target="_top" xlink:title=" ">
<polygon fill="white" stroke="#666666" points="137,-655.5 137,-987.5 298,-987.5 298,-655.5 137,-655.5"/>
<text text-anchor="start" x="145" y="-975.5" font-family="Helvetica,sans-Serif" font-size="10.00">dev.filechampion.filechampion4j.</text>
<text text-anchor="middle" x="217.5" y="-964.5" font-family="Helvetica,sans-Serif" font-size="10.00">Extensions</text>
<polyline fill="none" stroke="#666666" points="137,-957.5 298,-957.5"/>
<text text-anchor="start" x="145" y="-945.5" font-family="Helvetica,sans-Serif" font-size="10.00">&#45; StringBuilder sbLogMessage</text>
<text text-anchor="start" x="145" y="-934.5" font-family="Helvetica,sans-Serif" font-size="10.00">&#45; String sharedMessage1</text>
<text text-anchor="start" x="145" y="-923.5" font-family="Helvetica,sans-Serif" font-size="10.00">&#45; String sharedMessage2</text>
<polyline fill="none" stroke="#666666" points="137,-916.5 298,-916.5"/>
<text text-anchor="start" x="145" y="-904.5" font-family="Helvetica,sans-Serif" font-size="10.00">+ Extensions(JSONObject</text>
<text text-anchor="start" x="145" y="-893.5" font-family="Helvetica,sans-Serif" font-size="10.00"> jsonObject)</text>
<text text-anchor="start" x="145" y="-882.5" font-family="Helvetica,sans-Serif" font-size="10.00">+ Object getValidationValue</text>
<text text-anchor="start" x="145" y="-871.5" font-family="Helvetica,sans-Serif" font-size="10.00">(String category, String</text>
<text text-anchor="start" x="145" y="-860.5" font-family="Helvetica,sans-Serif" font-size="10.00"> extension, String validationKey)</text>
<text text-anchor="start" x="145" y="-849.5" font-family="Helvetica,sans-Serif" font-size="10.00">~ [static initializer]</text>
<text text-anchor="start" x="145" y="-838.5" font-family="Helvetica,sans-Serif" font-size="10.00">&#45; void logInfo(String</text>
<text text-anchor="start" x="145" y="-827.5" font-family="Helvetica,sans-Serif" font-size="10.00"> message)</text>
<text text-anchor="start" x="145" y="-816.5" font-family="Helvetica,sans-Serif" font-size="10.00">&#45; void logWarn(String</text>
<text text-anchor="start" x="145" y="-805.5" font-family="Helvetica,sans-Serif" font-size="10.00"> message)</text>
<text text-anchor="start" x="145" y="-794.5" font-family="Helvetica,sans-Serif" font-size="10.00">&#45; void logFine(String</text>
<text text-anchor="start" x="145" y="-783.5" font-family="Helvetica,sans-Serif" font-size="10.00"> message)</text>
<text text-anchor="start" x="145" y="-772.5" font-family="Helvetica,sans-Serif" font-size="10.00">&#45; void mapConfiguredExtensions()</text>
<text text-anchor="start" x="145" y="-761.5" font-family="Helvetica,sans-Serif" font-size="10.00">&#45; void mapExtensionValidations()</text>
<text text-anchor="start" x="145" y="-750.5" font-family="Helvetica,sans-Serif" font-size="10.00">&#45; void setString(String</text>
<text text-anchor="start" x="145" y="-739.5" font-family="Helvetica,sans-Serif" font-size="10.00"> validation, Object value)</text>
<text text-anchor="start" x="145" y="-728.5" font-family="Helvetica,sans-Serif" font-size="10.00">&#45; void setBoolean(String</text>
<text text-anchor="start" x="145" y="-717.5" font-family="Helvetica,sans-Serif" font-size="10.00"> validation, Object value)</text>
<text text-anchor="start" x="145" y="-706.5" font-family="Helvetica,sans-Serif" font-size="10.00">&#45; void setArrayList(String</text>
<text text-anchor="start" x="145" y="-695.5" font-family="Helvetica,sans-Serif" font-size="10.00"> validation, Object value)</text>
<text text-anchor="start" x="145" y="-684.5" font-family="Helvetica,sans-Serif" font-size="10.00">&#45; void checkInputs(String</text>
<text text-anchor="start" x="145" y="-673.5" font-family="Helvetica,sans-Serif" font-size="10.00"> category, String extension,</text>
<text text-anchor="start" x="145" y="-662.5" font-family="Helvetica,sans-Serif" font-size="10.00"> String validationKey)</text>
</a>
</g>
</g>
<!-- Node2&#45;&gt;Node3 -->
<g id="edge3" class="edge">
<title>Node2&#45;&gt;Node3</title>
<path fill="none" stroke="#404040" d="M85.4,-1063.33C96.7,-1042.73 113.24,-1012.59 130.81,-980.55"/>
<polygon fill="none" stroke="#404040" points="130.86,-980.46 130.24,-973.27 136.63,-969.94 137.25,-977.12 130.86,-980.46"/>
<text text-anchor="middle" x="138.5" y="-1020" font-family="Helvetica,sans-Serif" font-size="10.00"> &#45;LOGGER</text>
</g>
<!-- Node3&#45;&gt;Node1 -->
<g id="edge2" class="edge">
<title>Node3&#45;&gt;Node1</title>
<path fill="none" stroke="#404040" d="M175.6,-655.62C172.66,-644.03 169.64,-632.16 166.57,-620.1"/>
<polygon fill="none" stroke="#404040" points="166.55,-619.99 161.19,-615.16 163.59,-608.36 168.94,-613.19 166.55,-619.99"/>
<text text-anchor="middle" x="196.5" y="-629" font-family="Helvetica,sans-Serif" font-size="10.00"> &#45;extensions</text>
</g>
<!-- Node4 -->
<g id="node4" class="node">
<title>Node4</title>
<g id="a_node4"><a xlink:title=" ">
<polygon fill="white" stroke="#666666" points="111.5,-1057.5 111.5,-1125.5 243.5,-1125.5 243.5,-1057.5 111.5,-1057.5"/>
<text text-anchor="start" x="119.5" y="-1113.5" font-family="Helvetica,sans-Serif" font-size="10.00">Map&lt; String, Map&lt; String,</text>
<text text-anchor="middle" x="177.5" y="-1102.5" font-family="Helvetica,sans-Serif" font-size="10.00"> Object &gt; &gt;</text>
<polyline fill="none" stroke="#666666" points="111.5,-1095.5 243.5,-1095.5"/>
<text text-anchor="middle" x="177.5" y="-1083.5" font-family="Helvetica,sans-Serif" font-size="10.00"> </text>
<polyline fill="none" stroke="#666666" points="111.5,-1076.5 243.5,-1076.5"/>
<text text-anchor="middle" x="177.5" y="-1064.5" font-family="Helvetica,sans-Serif" font-size="10.00"> </text>
</a>
</g>
</g>
<!-- Node4&#45;&gt;Node3 -->
<g id="edge4" class="edge">
<title>Node4&#45;&gt;Node3</title>
<path fill="none" stroke="#404040" d="M182.4,-1057.64C184.74,-1041.97 187.74,-1021.88 191,-1000.07"/>
<polygon fill="none" stroke="#404040" points="190.98,-1000.18 187.91,-993.66 192.75,-988.31 195.82,-994.84 190.98,-1000.18"/>
<text text-anchor="middle" x="224.5" y="-1025.5" font-family="Helvetica,sans-Serif" font-size="10.00"> &#45;categoriesMap</text>
<text text-anchor="middle" x="224.5" y="-1014.5" font-family="Helvetica,sans-Serif" font-size="10.00">&#45;extensionsMap</text>
</g>
<!-- Node5 -->
<g id="node5" class="node">
<title>Node5</title>
<g id="a_node5"><a xlink:title=" ">
<polygon fill="white" stroke="#666666" points="231,-1184.5 231,-1241.5 266,-1241.5 266,-1184.5 231,-1184.5"/>
<text text-anchor="middle" x="248.5" y="-1229.5" font-family="Helvetica,sans-Serif" font-size="10.00">Map</text>
<polyline fill="none" stroke="#666666" points="231,-1222.5 266,-1222.5"/>
<text text-anchor="middle" x="248.5" y="-1210.5" font-family="Helvetica,sans-Serif" font-size="10.00"> </text>
<polyline fill="none" stroke="#666666" points="231,-1203.5 266,-1203.5"/>
<text text-anchor="middle" x="248.5" y="-1191.5" font-family="Helvetica,sans-Serif" font-size="10.00"> </text>
</a>
</g>
</g>
<!-- Node5&#45;&gt;Node4 -->
<g id="edge5" class="edge">
<title>Node5&#45;&gt;Node4</title>
<path fill="none" stroke="orange" d="M221.27,-1200.22C207.17,-1192.61 191.14,-1181.26 182.5,-1166 175.63,-1153.87 173.71,-1138.74 173.76,-1125.37"/>
<polygon fill="orange" stroke="orange" points="219.56,-1203.78 230.07,-1205.11 222.68,-1197.51 219.56,-1203.78"/>
<text text-anchor="start" x="182.5" y="-1158" font-family="Helvetica,sans-Serif" font-size="10.00"> &lt; String, Map&lt; String,</text>
<text text-anchor="middle" x="232.5" y="-1147" font-family="Helvetica,sans-Serif" font-size="10.00"> Object &gt; &gt;</text>
</g>
<!-- Node6 -->
<g id="node6" class="node">
<title>Node6</title>
<g id="a_node6"><a xlink:title=" ">
<polygon fill="white" stroke="#666666" points="262,-1063 262,-1120 375,-1120 375,-1063 262,-1063"/>
<text text-anchor="middle" x="318.5" y="-1108" font-family="Helvetica,sans-Serif" font-size="10.00">Map&lt; String, Object &gt;</text>
<polyline fill="none" stroke="#666666" points="262,-1101 375,-1101"/>
<text text-anchor="middle" x="318.5" y="-1089" font-family="Helvetica,sans-Serif" font-size="10.00"> </text>
<polyline fill="none" stroke="#666666" points="262,-1082 375,-1082"/>
<text text-anchor="middle" x="318.5" y="-1070" font-family="Helvetica,sans-Serif" font-size="10.00"> </text>
</a>
</g>
</g>
<!-- Node5&#45;&gt;Node6 -->
<g id="edge7" class="edge">
<title>Node5&#45;&gt;Node6</title>
<path fill="none" stroke="orange" d="M272.41,-1185.61C277.41,-1179.42 282.4,-1172.68 286.5,-1166 295.38,-1151.53 303.07,-1134.16 308.68,-1119.94"/>
<polygon fill="orange" stroke="orange" points="269.41,-1182.74 265.66,-1192.66 274.77,-1187.24 269.41,-1182.74"/>
<text text-anchor="middle" x="339.5" y="-1152.5" font-family="Helvetica,sans-Serif" font-size="10.00"> &lt; String, Object &gt;</text>
</g>
<!-- Node6&#45;&gt;Node3 -->
<g id="edge6" class="edge">
<title>Node6&#45;&gt;Node3</title>
<path fill="none" stroke="#404040" d="M308.26,-1063.33C302.03,-1046.79 293.47,-1024.08 284.08,-999.18"/>
<polygon fill="none" stroke="#404040" points="284.12,-999.27 278.26,-995.06 279.89,-988.04 285.75,-992.24 284.12,-999.27"/>
<text text-anchor="middle" x="334.5" y="-1025.5" font-family="Helvetica,sans-Serif" font-size="10.00"> &#45;validationCache</text>
<text text-anchor="middle" x="334.5" y="-1014.5" font-family="Helvetica,sans-Serif" font-size="10.00">&#45;validationsMap</text>
</g>
<!-- Node7 -->
<g id="node7" class="node">
<title>Node7</title>
<g id="a_node7"><a xlink:title=" ">
<polygon fill="white" stroke="#666666" points="393.5,-1063 393.5,-1120 469.5,-1120 469.5,-1063 393.5,-1063"/>
<text text-anchor="middle" x="431.5" y="-1108" font-family="Helvetica,sans-Serif" font-size="10.00">List&lt; String &gt;</text>
<polyline fill="none" stroke="#666666" points="393.5,-1101 469.5,-1101"/>
<text text-anchor="middle" x="431.5" y="-1089" font-family="Helvetica,sans-Serif" font-size="10.00"> </text>
<polyline fill="none" stroke="#666666" points="393.5,-1082 469.5,-1082"/>
<text text-anchor="middle" x="431.5" y="-1070" font-family="Helvetica,sans-Serif" font-size="10.00"> </text>
</a>
</g>
</g>
<!-- Node7&#45;&gt;Node3 -->
<g id="edge8" class="edge">
<title>Node7&#45;&gt;Node3</title>
<path fill="none" stroke="#404040" d="M414.68,-1063.27C403.97,-1046.41 389.52,-1024.52 375.5,-1006 354.03,-977.64 329.49,-947.98 306.26,-920.98"/>
<polygon fill="none" stroke="#404040" points="306.21,-920.92 299.26,-919 298.36,-911.85 305.31,-913.77 306.21,-920.92"/>
<text text-anchor="middle" x="441.5" y="-1031" font-family="Helvetica,sans-Serif" font-size="10.00"> &#45;allowedKeyValues</text>
<text text-anchor="middle" x="441.5" y="-1020" font-family="Helvetica,sans-Serif" font-size="10.00">&#45;boolKeyValues</text>
<text text-anchor="middle" x="441.5" y="-1009" font-family="Helvetica,sans-Serif" font-size="10.00">&#45;stringKeyValues</text>
</g>
<!-- Node8 -->
<g id="node8" class="node">
<title>Node8</title>
<g id="a_node8"><a xlink:title=" ">
<polygon fill="white" stroke="#666666" points="415.5,-1184.5 415.5,-1241.5 447.5,-1241.5 447.5,-1184.5 415.5,-1184.5"/>
<text text-anchor="middle" x="431.5" y="-1229.5" font-family="Helvetica,sans-Serif" font-size="10.00">List</text>
<polyline fill="none" stroke="#666666" points="415.5,-1222.5 447.5,-1222.5"/>
<text text-anchor="middle" x="431.5" y="-1210.5" font-family="Helvetica,sans-Serif" font-size="10.00"> </text>
<polyline fill="none" stroke="#666666" points="415.5,-1203.5 447.5,-1203.5"/>
<text text-anchor="middle" x="431.5" y="-1191.5" font-family="Helvetica,sans-Serif" font-size="10.00"> </text>
</a>
</g>
</g>
<!-- Node8&#45;&gt;Node7 -->
<g id="edge9" class="edge">
<title>Node8&#45;&gt;Node7</title>
<path fill="none" stroke="orange" d="M431.5,-1174.05C431.5,-1156.42 431.5,-1135.86 431.5,-1119.79"/>
<polygon fill="orange" stroke="orange" points="428,-1173.58 431.5,-1183.58 435,-1173.58 428,-1173.58"/>
<text text-anchor="middle" x="455" y="-1152.5" font-family="Helvetica,sans-Serif" font-size="10.00"> &lt; String &gt;</text>
</g>
</g>
</svg>
