<?xml version="1.0" encoding="UTF-8" standalone="no"?>
<!DOCTYPE svg PUBLIC "-//W3C//DTD SVG 1.1//EN"
 "http://www.w3.org/Graphics/SVG/1.1/DTD/svg11.dtd">
<!-- Generated by graphviz version 8.0.3 (20230416.2022)
 -->
<!-- Title: dev.filechampion.filechampion4j.ValidationsHelper.getValidationResults Pages: 1 -->
<svg width="1269pt" height="729pt"
 viewBox="0.00 0.00 1269.00 728.92" xmlns="http://www.w3.org/2000/svg" xmlns:xlink="http://www.w3.org/1999/xlink">
<g id="graph0" class="graph" transform="scale(1 1) rotate(0) translate(4 724.92)">
<title>dev.filechampion.filechampion4j.ValidationsHelper.getValidationResults</title>
<!-- Node1 -->
<g id="node1" class="node">
<title>Node1</title>
<g id="a_node1"><a xlink:title=" ">
<polygon fill="#999999" stroke="#666666" points="185,-333.23 0,-333.23 0,-303.23 185,-303.23 185,-333.23"/>
<text text-anchor="start" x="8" y="-321.23" font-family="Helvetica,sans-Serif" font-size="10.00">dev.filechampion.filechampion4j.</text>
<text text-anchor="middle" x="92.5" y="-310.23" font-family="Helvetica,sans-Serif" font-size="10.00">ValidationsHelper.getValidationResults</text>
</a>
</g>
</g>
<!-- Node2 -->
<g id="node2" class="node">
<title>Node2</title>
<g id="a_node2"><a xlink:href="classdev_1_1filechampion_1_1filechampion4j_1_1_validations_helper.html#acf58dbbd1e656f17a402e2856c6c9279" target="_top" xlink:title=" ">
<polygon fill="white" stroke="#666666" points="382.5,-333.23 227.5,-333.23 227.5,-303.23 382.5,-303.23 382.5,-333.23"/>
<text text-anchor="start" x="235.5" y="-321.23" font-family="Helvetica,sans-Serif" font-size="10.00">dev.filechampion.filechampion4j.</text>
<text text-anchor="middle" x="305" y="-310.23" font-family="Helvetica,sans-Serif" font-size="10.00">ValidationsHelper.doValidations</text>
</a>
</g>
</g>
<!-- Node1&#45;&gt;Node2 -->
<g id="edge1" class="edge">
<title>Node1&#45;&gt;Node2</title>
<path fill="none" stroke="#63b8ff" d="M185.22,-318.23C195.47,-318.23 205.89,-318.23 216.1,-318.23"/>
<polygon fill="#63b8ff" stroke="#63b8ff" points="216.06,-321.73 226.06,-318.23 216.06,-314.73 216.06,-321.73"/>
</g>
<!-- Node4 -->
<g id="node4" class="node">
<title>Node4</title>
<g id="a_node4"><a xlink:href="classdev_1_1filechampion_1_1filechampion4j_1_1_extensions.html#ac3de7a6e3faa8e7f76d0d3705e02a42d" target="_top" xlink:title=" ">
<polygon fill="white" stroke="#666666" points="852,-410.23 697,-410.23 697,-380.23 852,-380.23 852,-410.23"/>
<text text-anchor="start" x="705" y="-398.23" font-family="Helvetica,sans-Serif" font-size="10.00">dev.filechampion.filechampion4j.</text>
<text text-anchor="middle" x="774.5" y="-387.23" font-family="Helvetica,sans-Serif" font-size="10.00">Extensions.getValidationValue</text>
</a>
</g>
</g>
<!-- Node1&#45;&gt;Node4 -->
<g id="edge41" class="edge">
<title>Node1&#45;&gt;Node4</title>
<path fill="none" stroke="#63b8ff" d="M170.2,-333.68C186.9,-336.76 204.51,-339.8 221,-342.23 384.35,-366.38 576.58,-381.95 685.83,-389.6"/>
<polygon fill="#63b8ff" stroke="#63b8ff" points="685.57,-393.16 695.79,-390.36 686.05,-386.18 685.57,-393.16"/>
</g>
<!-- Node20 -->
<g id="node20" class="node">
<title>Node20</title>
<g id="a_node20"><a xlink:href="classdev_1_1filechampion_1_1filechampion4j_1_1_validations_helper.html#af664200bf9ae587491a7ee5eadd9c9f9" target="_top" xlink:title=" ">
<polygon fill="white" stroke="#666666" points="389,-285.23 221,-285.23 221,-255.23 389,-255.23 389,-285.23"/>
<text text-anchor="start" x="229" y="-273.23" font-family="Helvetica,sans-Serif" font-size="10.00">dev.filechampion.filechampion4j.</text>
<text text-anchor="middle" x="305" y="-262.23" font-family="Helvetica,sans-Serif" font-size="10.00">ValidationsHelper.getFileExtension</text>
</a>
</g>
</g>
<!-- Node1&#45;&gt;Node20 -->
<g id="edge40" class="edge">
<title>Node1&#45;&gt;Node20</title>
<path fill="none" stroke="#63b8ff" d="M161.26,-302.78C181.83,-298.09 204.58,-292.9 225.78,-288.07"/>
<polygon fill="#63b8ff" stroke="#63b8ff" points="226.39,-291.29 235.36,-285.66 224.84,-284.47 226.39,-291.29"/>
</g>
<!-- Node3 -->
<g id="node3" class="node">
<title>Node3</title>
<g id="a_node3"><a xlink:href="classdev_1_1filechampion_1_1filechampion4j_1_1_validations_helper.html#a4b5f515c54272fa1c4f177ef05c4fffe" target="_top" xlink:title=" ">
<polygon fill="white" stroke="#666666" points="608,-269.23 451,-269.23 451,-239.23 608,-239.23 608,-269.23"/>
<text text-anchor="start" x="459" y="-257.23" font-family="Helvetica,sans-Serif" font-size="10.00">dev.filechampion.filechampion4j.</text>
<text text-anchor="middle" x="529.5" y="-246.23" font-family="Helvetica,sans-Serif" font-size="10.00">ValidationsHelper.checkFileSize</text>
</a>
</g>
</g>
<!-- Node2&#45;&gt;Node3 -->
<g id="edge2" class="edge">
<title>Node2&#45;&gt;Node3</title>
<path fill="none" stroke="#63b8ff" d="M359.61,-302.86C369.4,-300.02 379.51,-297.06 389,-294.23 405.04,-289.47 408.94,-287.94 425,-283.23 436.96,-279.73 449.73,-276.08 462.07,-272.6"/>
<polygon fill="#63b8ff" stroke="#63b8ff" points="462.62,-275.8 471.3,-269.72 460.73,-269.06 462.62,-275.8"/>
</g>
<!-- Node8 -->
<g id="node8" class="node">
<title>Node8</title>
<g id="a_node8"><a xlink:href="classdev_1_1filechampion_1_1filechampion4j_1_1_validations_helper.html#a67f90f5fb54527c7f2becb8fc6eaafaa" target="_top" xlink:title=" ">
<polygon fill="white" stroke="#666666" points="852,-264.23 697,-264.23 697,-234.23 852,-234.23 852,-264.23"/>
<text text-anchor="start" x="705" y="-252.23" font-family="Helvetica,sans-Serif" font-size="10.00">dev.filechampion.filechampion4j.</text>
<text text-anchor="middle" x="774.5" y="-241.23" font-family="Helvetica,sans-Serif" font-size="10.00">ValidationsHelper.logFine</text>
</a>
</g>
</g>
<!-- Node2&#45;&gt;Node8 -->
<g id="edge38" class="edge">
<title>Node2&#45;&gt;Node8</title>
<path fill="none" stroke="#63b8ff" d="M382.81,-310.7C449.44,-303.73 548.39,-292.33 634,-278.23 653.56,-275.01 674.55,-270.97 694.16,-266.93"/>
<polygon fill="#63b8ff" stroke="#63b8ff" points="694.81,-270.16 703.89,-264.69 693.38,-263.3 694.81,-270.16"/>
</g>
<!-- Node9 -->
<g id="node9" class="node">
<title>Node9</title>
<g id="a_node9"><a xlink:href="classdev_1_1filechampion_1_1filechampion4j_1_1_validations_helper.html#a19e635fd3852e01ab67af0db7700a462" target="_top" xlink:title=" ">
<polygon fill="white" stroke="#666666" points="1070,-162.23 915,-162.23 915,-132.23 1070,-132.23 1070,-162.23"/>
<text text-anchor="start" x="923" y="-150.23" font-family="Helvetica,sans-Serif" font-size="10.00">dev.filechampion.filechampion4j.</text>
<text text-anchor="middle" x="992.5" y="-139.23" font-family="Helvetica,sans-Serif" font-size="10.00">ValidationsHelper.logWarn</text>
</a>
</g>
</g>
<!-- Node2&#45;&gt;Node9 -->
<g id="edge39" class="edge">
<title>Node2&#45;&gt;Node9</title>
<path fill="none" stroke="#63b8ff" d="M377.52,-302.95C381.68,-300.46 385.56,-297.58 389,-294.23 426.51,-257.81 393.17,-223.72 425,-182.23 503.88,-79.44 545.71,-60.84 670,-24.23 759.11,2.01 794,13.22 879,-24.23 924.45,-44.26 959.51,-92.7 977.7,-122.47"/>
<polygon fill="#63b8ff" stroke="#63b8ff" points="975.1,-123.96 983.21,-130.78 981.13,-120.39 975.1,-123.96"/>
</g>
<!-- Node10 -->
<g id="node10" class="node">
<title>Node10</title>
<g id="a_node10"><a xlink:href="classdev_1_1filechampion_1_1filechampion4j_1_1_validations_helper.html#a43b491bbdf4b6104d060386d4371753c" target="_top" xlink:title=" ">
<polygon fill="white" stroke="#666666" points="613,-221.23 446,-221.23 446,-191.23 613,-191.23 613,-221.23"/>
<text text-anchor="start" x="454" y="-209.23" font-family="Helvetica,sans-Serif" font-size="10.00">dev.filechampion.filechampion4j.</text>
<text text-anchor="middle" x="529.5" y="-198.23" font-family="Helvetica,sans-Serif" font-size="10.00">ValidationsHelper.checkMimeType</text>
</a>
</g>
</g>
<!-- Node2&#45;&gt;Node10 -->
<g id="edge9" class="edge">
<title>Node2&#45;&gt;Node10</title>
<path fill="none" stroke="#63b8ff" d="M375.57,-302.75C380.34,-300.31 384.88,-297.49 389,-294.23 414.58,-273.97 398.88,-249.81 425,-230.23 428.43,-227.66 432.09,-225.36 435.91,-223.3"/>
<polygon fill="#63b8ff" stroke="#63b8ff" points="437.16,-226.11 444.7,-218.66 434.16,-219.78 437.16,-226.11"/>
</g>
<!-- Node14 -->
<g id="node14" class="node">
<title>Node14</title>
<g id="a_node14"><a xlink:href="classdev_1_1filechampion_1_1filechampion4j_1_1_validations_helper.html#a9c7f6f3159fef96d606ca0a6712b2165" target="_top" xlink:title=" ">
<polygon fill="white" stroke="#666666" points="632.5,-490.23 426.5,-490.23 426.5,-460.23 632.5,-460.23 632.5,-490.23"/>
<text text-anchor="start" x="434.5" y="-478.23" font-family="Helvetica,sans-Serif" font-size="10.00">dev.filechampion.filechampion4j.</text>
<text text-anchor="middle" x="529.5" y="-467.23" font-family="Helvetica,sans-Serif" font-size="10.00">ValidationsHelper.containsFooterSignatures</text>
</a>
</g>
</g>
<!-- Node2&#45;&gt;Node14 -->
<g id="edge18" class="edge">
<title>Node2&#45;&gt;Node14</title>
<path fill="none" stroke="#63b8ff" d="M314.99,-333.33C332.46,-361.27 373.8,-420.94 425,-451.23 427.52,-452.72 430.12,-454.12 432.79,-455.43"/>
<polygon fill="#63b8ff" stroke="#63b8ff" points="431.13,-458.97 441.7,-459.81 433.96,-452.57 431.13,-458.97"/>
</g>
<!-- Node16 -->
<g id="node16" class="node">
<title>Node16</title>
<g id="a_node16"><a xlink:href="classdev_1_1filechampion_1_1filechampion4j_1_1_validations_helper.html#aab316adeef5b3b9c80ef17bd05826582" target="_top" xlink:title=" ">
<polygon fill="white" stroke="#666666" points="634,-442.23 425,-442.23 425,-412.23 634,-412.23 634,-442.23"/>
<text text-anchor="start" x="433" y="-430.23" font-family="Helvetica,sans-Serif" font-size="10.00">dev.filechampion.filechampion4j.</text>
<text text-anchor="middle" x="529.5" y="-419.23" font-family="Helvetica,sans-Serif" font-size="10.00">ValidationsHelper.containsHeaderSignatures</text>
</a>
</g>
</g>
<!-- Node2&#45;&gt;Node16 -->
<g id="edge25" class="edge">
<title>Node2&#45;&gt;Node16</title>
<path fill="none" stroke="#63b8ff" d="M337.41,-333.62C376.64,-352.84 443.86,-385.77 487.22,-407.01"/>
<polygon fill="#63b8ff" stroke="#63b8ff" points="485.37,-410.49 495.89,-411.75 488.45,-404.21 485.37,-410.49"/>
</g>
<!-- Node18 -->
<g id="node18" class="node">
<title>Node18</title>
<g id="a_node18"><a xlink:href="classdev_1_1filechampion_1_1filechampion4j_1_1_validations_helper.html#a480b1c09382ee05e547a68c7eed8e2ed" target="_top" xlink:title=" ">
<polygon fill="white" stroke="#666666" points="621.5,-355.23 437.5,-355.23 437.5,-325.23 621.5,-325.23 621.5,-355.23"/>
<text text-anchor="start" x="445.5" y="-343.23" font-family="Helvetica,sans-Serif" font-size="10.00">dev.filechampion.filechampion4j.</text>
<text text-anchor="middle" x="529.5" y="-332.23" font-family="Helvetica,sans-Serif" font-size="10.00">ValidationsHelper.containsMagicBytes</text>
</a>
</g>
</g>
<!-- Node2&#45;&gt;Node18 -->
<g id="edge32" class="edge">
<title>Node2&#45;&gt;Node18</title>
<path fill="none" stroke="#63b8ff" d="M382.88,-325.84C396.93,-327.23 411.79,-328.69 426.44,-330.14"/>
<polygon fill="#63b8ff" stroke="#63b8ff" points="425.76,-333.69 436.05,-331.19 426.45,-326.73 425.76,-333.69"/>
</g>
<!-- Node3&#45;&gt;Node4 -->
<g id="edge3" class="edge">
<title>Node3&#45;&gt;Node4</title>
<path fill="none" stroke="#63b8ff" d="M564.34,-269.56C585.94,-280.47 613.61,-296.64 634,-316.23 655.07,-336.48 646.05,-354.51 670,-371.23 675.13,-374.82 680.73,-377.88 686.57,-380.48"/>
<polygon fill="#63b8ff" stroke="#63b8ff" points="685.01,-384.02 695.59,-384.45 687.58,-377.51 685.01,-384.02"/>
</g>
<!-- Node3&#45;&gt;Node8 -->
<g id="edge7" class="edge">
<title>Node3&#45;&gt;Node8</title>
<path fill="none" stroke="#63b8ff" d="M608.39,-252.63C633.17,-252.12 660.74,-251.55 686.14,-251.03"/>
<polygon fill="#63b8ff" stroke="#63b8ff" points="685.96,-254.52 695.88,-250.81 685.81,-247.52 685.96,-254.52"/>
</g>
<!-- Node3&#45;&gt;Node9 -->
<g id="edge8" class="edge">
<title>Node3&#45;&gt;Node9</title>
<path fill="none" stroke="#63b8ff" d="M597.31,-238.74C609.52,-235.91 622.14,-232.99 634,-230.23 730.72,-207.79 842.16,-181.92 914.56,-165.1"/>
<polygon fill="#63b8ff" stroke="#63b8ff" points="915,-168.36 923.95,-162.69 913.42,-161.54 915,-168.36"/>
</g>
<!-- Node5 -->
<g id="node5" class="node">
<title>Node5</title>
<g id="a_node5"><a xlink:href="classdev_1_1filechampion_1_1filechampion4j_1_1_extensions.html#a0b4d6f0065a4fc61701be6ab4103c441" target="_top" xlink:title=" ">
<polygon fill="white" stroke="#666666" points="1070,-434.23 915,-434.23 915,-404.23 1070,-404.23 1070,-434.23"/>
<text text-anchor="start" x="923" y="-422.23" font-family="Helvetica,sans-Serif" font-size="10.00">dev.filechampion.filechampion4j.</text>
<text text-anchor="middle" x="992.5" y="-411.23" font-family="Helvetica,sans-Serif" font-size="10.00">Extensions.checkInputs</text>
</a>
</g>
</g>
<!-- Node4&#45;&gt;Node5 -->
<g id="edge4" class="edge">
<title>Node4&#45;&gt;Node5</title>
<path fill="none" stroke="#63b8ff" d="M852.26,-403.76C869.03,-405.63 886.9,-407.61 904.05,-409.52"/>
<polygon fill="#63b8ff" stroke="#63b8ff" points="903.3,-413.07 913.62,-410.69 904.07,-406.11 903.3,-413.07"/>
</g>
<!-- Node7 -->
<g id="node7" class="node">
<title>Node7</title>
<g id="a_node7"><a xlink:href="classdev_1_1filechampion_1_1filechampion4j_1_1_extensions.html#a0aada571ca5ffb1ca298874d2c0fac50" target="_top" xlink:title=" ">
<polygon fill="white" stroke="#666666" points="1070,-386.23 915,-386.23 915,-356.23 1070,-356.23 1070,-386.23"/>
<text text-anchor="start" x="923" y="-374.23" font-family="Helvetica,sans-Serif" font-size="10.00">dev.filechampion.filechampion4j.</text>
<text text-anchor="middle" x="992.5" y="-363.23" font-family="Helvetica,sans-Serif" font-size="10.00">Extensions.logFine</text>
</a>
</g>
</g>
<!-- Node4&#45;&gt;Node7 -->
<g id="edge6" class="edge">
<title>Node4&#45;&gt;Node7</title>
<path fill="none" stroke="#63b8ff" d="M852.26,-386.71C869.03,-384.84 886.9,-382.86 904.05,-380.95"/>
<polygon fill="#63b8ff" stroke="#63b8ff" points="904.07,-384.36 913.62,-379.78 903.3,-377.4 904.07,-384.36"/>
</g>
<!-- Node6 -->
<g id="node6" class="node">
<title>Node6</title>
<g id="a_node6"><a xlink:href="classdev_1_1filechampion_1_1filechampion4j_1_1_extensions.html#adebd31331477fe200ec272ae4569f482" target="_top" xlink:title=" ">
<polygon fill="white" stroke="#666666" points="1261,-434.23 1106,-434.23 1106,-404.23 1261,-404.23 1261,-434.23"/>
<text text-anchor="start" x="1114" y="-422.23" font-family="Helvetica,sans-Serif" font-size="10.00">dev.filechampion.filechampion4j.</text>
<text text-anchor="middle" x="1183.5" y="-411.23" font-family="Helvetica,sans-Serif" font-size="10.00">Extensions.logWarn</text>
</a>
</g>
</g>
<!-- Node5&#45;&gt;Node6 -->
<g id="edge5" class="edge">
<title>Node5&#45;&gt;Node6</title>
<path fill="none" stroke="#63b8ff" d="M1070.37,-419.23C1078.47,-419.23 1086.75,-419.23 1094.96,-419.23"/>
<polygon fill="#63b8ff" stroke="#63b8ff" points="1094.69,-422.73 1104.69,-419.23 1094.69,-415.73 1094.69,-422.73"/>
</g>
<!-- Node10&#45;&gt;Node4 -->
<g id="edge12" class="edge">
<title>Node10&#45;&gt;Node4</title>
<path fill="none" stroke="#63b8ff" d="M613.44,-216.44C621.02,-219.92 628.07,-224.43 634,-230.23 680.24,-275.46 623.76,-326.01 670,-371.23 674.93,-376.06 680.63,-379.99 686.77,-383.17"/>
<polygon fill="#63b8ff" stroke="#63b8ff" points="685.17,-386.74 695.73,-387.6 688.02,-380.34 685.17,-386.74"/>
</g>
<!-- Node10&#45;&gt;Node8 -->
<g id="edge14" class="edge">
<title>Node10&#45;&gt;Node8</title>
<path fill="none" stroke="#63b8ff" d="M613.45,-220.91C636.82,-225.05 662.31,-229.56 685.94,-233.74"/>
<polygon fill="#63b8ff" stroke="#63b8ff" points="685.19,-237.34 695.65,-235.64 686.41,-230.45 685.19,-237.34"/>
</g>
<!-- Node10&#45;&gt;Node9 -->
<g id="edge15" class="edge">
<title>Node10&#45;&gt;Node9</title>
<path fill="none" stroke="#63b8ff" d="M538.44,-191.15C556.56,-158.55 604.56,-82.13 670,-53.23 754.98,-15.72 791.68,-21.56 879,-53.23 917.4,-67.17 951.87,-100.58 972.24,-123.56"/>
<polygon fill="#63b8ff" stroke="#63b8ff" points="970.16,-125.51 979.34,-130.8 975.47,-120.94 970.16,-125.51"/>
</g>
<!-- Node11 -->
<g id="node11" class="node">
<title>Node11</title>
<g id="a_node11"><a xlink:href="classdev_1_1filechampion_1_1filechampion4j_1_1_validations_helper.html#aa4f7e8b626db5b4c4071c77b36693d2b" target="_top" xlink:title=" ">
<polygon fill="white" stroke="#666666" points="853.5,-140.23 695.5,-140.23 695.5,-110.23 853.5,-110.23 853.5,-140.23"/>
<text text-anchor="start" x="703.5" y="-128.23" font-family="Helvetica,sans-Serif" font-size="10.00">dev.filechampion.filechampion4j.</text>
<text text-anchor="middle" x="774.5" y="-117.23" font-family="Helvetica,sans-Serif" font-size="10.00">ValidationsHelper.deleteTempDir</text>
</a>
</g>
</g>
<!-- Node10&#45;&gt;Node11 -->
<g id="edge10" class="edge">
<title>Node10&#45;&gt;Node11</title>
<path fill="none" stroke="#63b8ff" d="M569.28,-190.79C597.1,-179.95 635.6,-165.44 670,-154.23 681.07,-150.63 692.89,-147.05 704.45,-143.72"/>
<polygon fill="#63b8ff" stroke="#63b8ff" points="705.29,-146.83 713.95,-140.72 703.37,-140.1 705.29,-146.83"/>
</g>
<!-- Node12 -->
<g id="node12" class="node">
<title>Node12</title>
<g id="a_node12"><a xlink:href="classdev_1_1filechampion_1_1filechampion4j_1_1_validations_helper.html#a74bd8e5177ce42b308623ab3bd1ba05e" target="_top" xlink:title=" ">
<polygon fill="white" stroke="#666666" points="1070,-602.23 915,-602.23 915,-572.23 1070,-572.23 1070,-602.23"/>
<text text-anchor="start" x="923" y="-590.23" font-family="Helvetica,sans-Serif" font-size="10.00">dev.filechampion.filechampion4j.</text>
<text text-anchor="middle" x="992.5" y="-579.23" font-family="Helvetica,sans-Serif" font-size="10.00">ValidationsHelper.isBlank</text>
</a>
</g>
</g>
<!-- Node10&#45;&gt;Node12 -->
<g id="edge13" class="edge">
<title>Node10&#45;&gt;Node12</title>
<path fill="none" stroke="#63b8ff" d="M583.88,-190.79C659.64,-172.45 798.12,-152.74 879,-225.23 952.12,-290.78 883.55,-350.21 915,-443.23 930.08,-487.85 957.88,-535.3 975.48,-563.05"/>
<polygon fill="#63b8ff" stroke="#63b8ff" points="972.9,-564.5 981.25,-571.01 978.78,-560.71 972.9,-564.5"/>
</g>
<!-- Node13 -->
<g id="node13" class="node">
<title>Node13</title>
<g id="a_node13"><a xlink:href="classdev_1_1filechampion_1_1filechampion4j_1_1_validations_helper.html#adb1b1278d1f522489bb3bdd4e3c5f887" target="_top" xlink:title=" ">
<polygon fill="white" stroke="#666666" points="863,-92.23 686,-92.23 686,-62.23 863,-62.23 863,-92.23"/>
<text text-anchor="start" x="694" y="-80.23" font-family="Helvetica,sans-Serif" font-size="10.00">dev.filechampion.filechampion4j.</text>
<text text-anchor="middle" x="774.5" y="-69.23" font-family="Helvetica,sans-Serif" font-size="10.00">ValidationsHelper.saveFileToTempDir</text>
</a>
</g>
</g>
<!-- Node10&#45;&gt;Node13 -->
<g id="edge16" class="edge">
<title>Node10&#45;&gt;Node13</title>
<path fill="none" stroke="#63b8ff" d="M546.2,-190.83C570.59,-167.79 620,-124.56 670,-101.23 673.79,-99.46 677.73,-97.82 681.75,-96.29"/>
<polygon fill="#63b8ff" stroke="#63b8ff" points="682.61,-99.35 690.89,-92.73 680.29,-92.74 682.61,-99.35"/>
</g>
<!-- Node11&#45;&gt;Node9 -->
<g id="edge11" class="edge">
<title>Node11&#45;&gt;Node9</title>
<path fill="none" stroke="#63b8ff" d="M853.79,-133.21C870.03,-134.86 887.24,-136.62 903.8,-138.3"/>
<polygon fill="#63b8ff" stroke="#63b8ff" points="903.26,-141.87 913.56,-139.4 903.97,-134.9 903.26,-141.87"/>
</g>
<!-- Node13&#45;&gt;Node9 -->
<g id="edge17" class="edge">
<title>Node13&#45;&gt;Node9</title>
<path fill="none" stroke="#63b8ff" d="M848.84,-92.7C859.04,-95.3 869.33,-98.16 879,-101.23 902.22,-108.62 927.39,-118.71 948.02,-127.55"/>
<polygon fill="#63b8ff" stroke="#63b8ff" points="946.49,-131.13 957.05,-131.91 949.27,-124.71 946.49,-131.13"/>
</g>
<!-- Node14&#45;&gt;Node4 -->
<g id="edge21" class="edge">
<title>Node14&#45;&gt;Node4</title>
<path fill="none" stroke="#63b8ff" d="M603.54,-459.78C613.84,-457.17 624.23,-454.31 634,-451.23 666.56,-440.99 702.26,-426.6 729.4,-414.97"/>
<polygon fill="#63b8ff" stroke="#63b8ff" points="730.57,-417.84 738.35,-410.66 727.79,-411.42 730.57,-417.84"/>
</g>
<!-- Node14&#45;&gt;Node8 -->
<g id="edge23" class="edge">
<title>Node14&#45;&gt;Node8</title>
<path fill="none" stroke="#63b8ff" d="M623.17,-459.75C627.06,-457.28 630.7,-454.46 634,-451.23 679.97,-406.35 631.56,-362.71 670,-311.23 683.39,-293.3 703.64,-279.53 722.69,-269.58"/>
<polygon fill="#63b8ff" stroke="#63b8ff" points="724.09,-272.3 731.5,-264.72 720.98,-266.02 724.09,-272.3"/>
</g>
<!-- Node14&#45;&gt;Node9 -->
<g id="edge24" class="edge">
<title>Node14&#45;&gt;Node9</title>
<path fill="none" stroke="#63b8ff" d="M613.99,-490.72C690.72,-500.04 803.65,-500.73 879,-443.23 915.23,-415.59 898.86,-389.85 915,-347.23 938.79,-284.42 967.1,-210.66 981.71,-172.68"/>
<polygon fill="#63b8ff" stroke="#63b8ff" points="985.29,-174.12 985.61,-163.53 978.75,-171.6 985.29,-174.12"/>
</g>
<!-- Node14&#45;&gt;Node12 -->
<g id="edge22" class="edge">
<title>Node14&#45;&gt;Node12</title>
<path fill="none" stroke="#63b8ff" d="M534.77,-490.48C547.33,-531.99 588.46,-646.83 670,-691.23 751.58,-735.66 792.5,-725.09 879,-691.23 919.81,-675.26 954.69,-636.77 974.37,-611.36"/>
<polygon fill="#63b8ff" stroke="#63b8ff" points="977.7,-613.75 980.91,-603.66 972.11,-609.55 977.7,-613.75"/>
</g>
<!-- Node15 -->
<g id="node15" class="node">
<title>Node15</title>
<g id="a_node15"><a xlink:href="classdev_1_1filechampion_1_1filechampion4j_1_1_validations_helper.html#a6861ee5ffd86e302ecd8fda347815a5f" target="_top" xlink:title=" ">
<polygon fill="white" stroke="#666666" points="877.5,-681.73 671.5,-681.73 671.5,-640.73 877.5,-640.73 877.5,-681.73"/>
<text text-anchor="start" x="679.5" y="-669.73" font-family="Helvetica,sans-Serif" font-size="10.00">dev.filechampion.filechampion4j.</text>
<text text-anchor="start" x="679.5" y="-658.73" font-family="Helvetica,sans-Serif" font-size="10.00">ValidationsHelper.containsFooterSignatures</text>
<text text-anchor="middle" x="774.5" y="-647.73" font-family="Helvetica,sans-Serif" font-size="10.00">Processor</text>
</a>
</g>
</g>
<!-- Node14&#45;&gt;Node15 -->
<g id="edge19" class="edge">
<title>Node14&#45;&gt;Node15</title>
<path fill="none" stroke="#63b8ff" d="M540.54,-490.42C561.24,-520.57 611.62,-588.35 670,-626.23 675.48,-629.79 681.36,-633.02 687.44,-635.96"/>
<polygon fill="#63b8ff" stroke="#63b8ff" points="685.56,-639.4 696.11,-640.32 688.43,-633.02 685.56,-639.4"/>
</g>
<!-- Node15&#45;&gt;Node12 -->
<g id="edge20" class="edge">
<title>Node15&#45;&gt;Node12</title>
<path fill="none" stroke="#63b8ff" d="M837.64,-640.3C851.28,-635.69 865.63,-630.81 879,-626.23 897.89,-619.77 918.54,-612.63 936.93,-606.25"/>
<polygon fill="#63b8ff" stroke="#63b8ff" points="937.88,-609.27 946.18,-602.69 935.58,-602.66 937.88,-609.27"/>
</g>
<!-- Node16&#45;&gt;Node4 -->
<g id="edge28" class="edge">
<title>Node16&#45;&gt;Node4</title>
<path fill="none" stroke="#63b8ff" d="M634.26,-413.57C651.4,-411.31 669.03,-408.99 685.73,-406.79"/>
<polygon fill="#63b8ff" stroke="#63b8ff" points="686.1,-410.14 695.55,-405.37 685.18,-403.2 686.1,-410.14"/>
</g>
<!-- Node16&#45;&gt;Node8 -->
<g id="edge30" class="edge">
<title>Node16&#45;&gt;Node8</title>
<path fill="none" stroke="#63b8ff" d="M563.27,-411.93C584.95,-400.74 613.12,-384.1 634,-364.23 654.63,-344.61 649.3,-330.79 670,-311.23 687.59,-294.62 710.37,-280.38 730.08,-269.75"/>
<polygon fill="#63b8ff" stroke="#63b8ff" points="731.53,-272.42 738.77,-264.68 728.29,-266.22 731.53,-272.42"/>
</g>
<!-- Node16&#45;&gt;Node9 -->
<g id="edge31" class="edge">
<title>Node16&#45;&gt;Node9</title>
<path fill="none" stroke="#63b8ff" d="M634.08,-436.98C722.25,-443.12 840.56,-445.58 879,-419.23 889.91,-411.76 956.72,-238.57 981.9,-172.51"/>
<polygon fill="#63b8ff" stroke="#63b8ff" points="985.42,-174.12 985.71,-163.53 978.88,-171.63 985.42,-174.12"/>
</g>
<!-- Node16&#45;&gt;Node12 -->
<g id="edge29" class="edge">
<title>Node16&#45;&gt;Node12</title>
<path fill="none" stroke="#63b8ff" d="M623.19,-442.71C627.07,-445.18 630.71,-448.01 634,-451.23 680.51,-496.8 618.62,-553.25 670,-593.23 747.84,-653.81 871.37,-627.91 940.45,-606.05"/>
<polygon fill="#63b8ff" stroke="#63b8ff" points="941.22,-609.15 949.65,-602.73 939.05,-602.5 941.22,-609.15"/>
</g>
<!-- Node17 -->
<g id="node17" class="node">
<title>Node17</title>
<g id="a_node17"><a xlink:href="classdev_1_1filechampion_1_1filechampion4j_1_1_validations_helper.html#aee8c1624a8bb9b5b96d9ea0bdf385e3a" target="_top" xlink:title=" ">
<polygon fill="white" stroke="#666666" points="879,-583.73 670,-583.73 670,-542.73 879,-542.73 879,-583.73"/>
<text text-anchor="start" x="678" y="-571.73" font-family="Helvetica,sans-Serif" font-size="10.00">dev.filechampion.filechampion4j.</text>
<text text-anchor="start" x="678" y="-560.73" font-family="Helvetica,sans-Serif" font-size="10.00">ValidationsHelper.containsHeaderSignatures</text>
<text text-anchor="middle" x="774.5" y="-549.73" font-family="Helvetica,sans-Serif" font-size="10.00">Processor</text>
</a>
</g>
</g>
<!-- Node16&#45;&gt;Node17 -->
<g id="edge26" class="edge">
<title>Node16&#45;&gt;Node17</title>
<path fill="none" stroke="#63b8ff" d="M621,-442.7C625.61,-445.16 629.99,-447.98 634,-451.23 663.36,-475.01 641.84,-503.05 670,-528.23 673.56,-531.41 677.41,-534.31 681.47,-536.94"/>
<polygon fill="#63b8ff" stroke="#63b8ff" points="679.26,-540.28 689.66,-542.29 682.78,-534.23 679.26,-540.28"/>
</g>
<!-- Node17&#45;&gt;Node12 -->
<g id="edge27" class="edge">
<title>Node17&#45;&gt;Node12</title>
<path fill="none" stroke="#63b8ff" d="M879.39,-574.78C887.56,-575.69 895.77,-576.6 903.81,-577.49"/>
<polygon fill="#63b8ff" stroke="#63b8ff" points="903.35,-581.07 913.68,-578.7 904.12,-574.12 903.35,-581.07"/>
</g>
<!-- Node18&#45;&gt;Node4 -->
<g id="edge34" class="edge">
<title>Node18&#45;&gt;Node4</title>
<path fill="none" stroke="#63b8ff" d="M598.84,-355.7C628.73,-362.47 663.96,-370.44 694.93,-377.45"/>
<polygon fill="#63b8ff" stroke="#63b8ff" points="693.73,-380.99 704.26,-379.79 695.28,-374.17 693.73,-380.99"/>
</g>
<!-- Node18&#45;&gt;Node8 -->
<g id="edge36" class="edge">
<title>Node18&#45;&gt;Node8</title>
<path fill="none" stroke="#63b8ff" d="M602.67,-324.74C613.51,-321.09 624.3,-316.63 634,-311.23 652.97,-300.68 651.03,-288.78 670,-278.23 676.67,-274.52 683.85,-271.26 691.21,-268.39"/>
<polygon fill="#63b8ff" stroke="#63b8ff" points="692.12,-271.42 700.33,-264.72 689.73,-264.84 692.12,-271.42"/>
</g>
<!-- Node18&#45;&gt;Node9 -->
<g id="edge37" class="edge">
<title>Node18&#45;&gt;Node9</title>
<path fill="none" stroke="#63b8ff" d="M603.19,-324.76C624.68,-320.29 648.27,-315.47 670,-311.23 762.67,-293.18 796.64,-319.4 879,-273.23 922.67,-248.76 958.12,-200.9 976.9,-171.72"/>
<polygon fill="#63b8ff" stroke="#63b8ff" points="980.27,-173.94 982.61,-163.61 974.34,-170.22 980.27,-173.94"/>
</g>
<!-- Node18&#45;&gt;Node12 -->
<g id="edge35" class="edge">
<title>Node18&#45;&gt;Node12</title>
<path fill="none" stroke="#63b8ff" d="M557.09,-355.65C585.05,-371.77 630.4,-397.68 670,-419.23 770.61,-473.99 890.53,-535.74 951.55,-566.91"/>
<polygon fill="#63b8ff" stroke="#63b8ff" points="949.68,-570.39 960.18,-571.82 952.86,-564.16 949.68,-570.39"/>
</g>
<!-- Node19 -->
<g id="node19" class="node">
<title>Node19</title>
<g id="a_node19"><a xlink:href="classdev_1_1filechampion_1_1filechampion4j_1_1_validations_helper.html#a2cee2da5d1c0b48a0e76439ec43c9f6b" target="_top" xlink:title=" ">
<polygon fill="white" stroke="#666666" points="866.5,-361.73 682.5,-361.73 682.5,-320.73 866.5,-320.73 866.5,-361.73"/>
<text text-anchor="start" x="690.5" y="-349.73" font-family="Helvetica,sans-Serif" font-size="10.00">dev.filechampion.filechampion4j.</text>
<text text-anchor="start" x="690.5" y="-338.73" font-family="Helvetica,sans-Serif" font-size="10.00">ValidationsHelper.containsMagicBytes</text>
<text text-anchor="middle" x="774.5" y="-327.73" font-family="Helvetica,sans-Serif" font-size="10.00">Processor</text>
</a>
</g>
</g>
<!-- Node18&#45;&gt;Node19 -->
<g id="edge33" class="edge">
<title>Node18&#45;&gt;Node19</title>
<path fill="none" stroke="#63b8ff" d="M621.68,-340.61C637.92,-340.68 654.93,-340.75 671.45,-340.81"/>
<polygon fill="#63b8ff" stroke="#63b8ff" points="671.2,-344.32 681.22,-340.86 671.23,-337.32 671.2,-344.32"/>
</g>
</g>
</svg>
