<?xml version="1.0" encoding="UTF-8" standalone="no"?>
<!DOCTYPE svg PUBLIC "-//W3C//DTD SVG 1.1//EN"
 "http://www.w3.org/Graphics/SVG/1.1/DTD/svg11.dtd">
<!-- Generated by graphviz version 8.0.3 (20230416.2022)
 -->
<!-- Title: dev.filechampion.filechampion4j.FileAclHelper.changeFileAcl Pages: 1 -->
<svg width="398pt" height="264pt"
 viewBox="0.00 0.00 398.00 264.00" xmlns="http://www.w3.org/2000/svg" xmlns:xlink="http://www.w3.org/1999/xlink">
<g id="graph0" class="graph" transform="scale(1 1) rotate(0) translate(4 260)">
<title>dev.filechampion.filechampion4j.FileAclHelper.changeFileAcl</title>
<!-- Node1 -->
<g id="node1" class="node">
<title>Node1</title>
<g id="a_node1"><a xlink:title=" ">
<polygon fill="#999999" stroke="#666666" points="390,-137.5 235,-137.5 235,-107.5 390,-107.5 390,-137.5"/>
<text text-anchor="start" x="243" y="-125.5" font-family="Helvetica,sans-Serif" font-size="10.00">dev.filechampion.filechampion4j.</text>
<text text-anchor="middle" x="312.5" y="-114.5" font-family="Helvetica,sans-Serif" font-size="10.00">FileAclHelper.changeFileAcl</text>
</a>
</g>
</g>
<!-- Node2 -->
<g id="node2" class="node">
<title>Node2</title>
<g id="a_node2"><a xlink:href="classdev_1_1filechampion_1_1filechampion4j_1_1_file_acl_helper_test.html#a881ee2f22b50b44fe02c3a6c0174fafa" target="_top" xlink:title=" ">
<polygon fill="white" stroke="#666666" points="187.5,-256 11.5,-256 11.5,-215 187.5,-215 187.5,-256"/>
<text text-anchor="start" x="19.5" y="-244" font-family="Helvetica,sans-Serif" font-size="10.00">dev.filechampion.filechampion4j.</text>
<text text-anchor="start" x="19.5" y="-233" font-family="Helvetica,sans-Serif" font-size="10.00">FileAclHelperTest.testAccessDenied</text>
<text text-anchor="middle" x="99.5" y="-222" font-family="Helvetica,sans-Serif" font-size="10.00">Failure</text>
</a>
</g>
</g>
<!-- Node1&#45;&gt;Node2 -->
<g id="edge1" class="edge">
<title>Node1&#45;&gt;Node2</title>
<path fill="none" stroke="#63b8ff" d="M286.84,-145.01C265.13,-163.78 231.91,-190.04 199,-206.5 193.18,-209.41 187.02,-212.08 180.73,-214.52"/>
<polygon fill="#63b8ff" stroke="#63b8ff" points="288.66,-147.19 293.86,-137.96 284.03,-141.94 288.66,-147.19"/>
</g>
<!-- Node3 -->
<g id="node3" class="node">
<title>Node3</title>
<g id="a_node3"><a xlink:href="classdev_1_1filechampion_1_1filechampion4j_1_1_file_acl_helper_test.html#aa6b66d5dbce54c570458022cc3d4c36c" target="_top" xlink:title=" ">
<polygon fill="white" stroke="#666666" points="187.5,-197 11.5,-197 11.5,-156 187.5,-156 187.5,-197"/>
<text text-anchor="start" x="19.5" y="-185" font-family="Helvetica,sans-Serif" font-size="10.00">dev.filechampion.filechampion4j.</text>
<text text-anchor="start" x="19.5" y="-174" font-family="Helvetica,sans-Serif" font-size="10.00">FileAclHelperTest.testChangeFileAcl</text>
<text text-anchor="middle" x="99.5" y="-163" font-family="Helvetica,sans-Serif" font-size="10.00">NonExistingPermissions</text>
</a>
</g>
</g>
<!-- Node1&#45;&gt;Node3 -->
<g id="edge2" class="edge">
<title>Node1&#45;&gt;Node3</title>
<path fill="none" stroke="#63b8ff" d="M240.52,-140.66C221.8,-145.46 201.45,-150.66 182.21,-155.59"/>
<polygon fill="#63b8ff" stroke="#63b8ff" points="241.22,-143.84 250.04,-137.97 239.48,-137.06 241.22,-143.84"/>
</g>
<!-- Node4 -->
<g id="node4" class="node">
<title>Node4</title>
<g id="a_node4"><a xlink:href="classdev_1_1filechampion_1_1filechampion4j_1_1_file_acl_helper_test.html#ae465fb979542474d1b28d633ea417966" target="_top" xlink:title=" ">
<polygon fill="white" stroke="#666666" points="199,-137.5 0,-137.5 0,-107.5 199,-107.5 199,-137.5"/>
<text text-anchor="start" x="8" y="-125.5" font-family="Helvetica,sans-Serif" font-size="10.00">dev.filechampion.filechampion4j.</text>
<text text-anchor="middle" x="99.5" y="-114.5" font-family="Helvetica,sans-Serif" font-size="10.00">FileAclHelperTest.testChangeFileAclWrite</text>
</a>
</g>
</g>
<!-- Node1&#45;&gt;Node4 -->
<g id="edge3" class="edge">
<title>Node1&#45;&gt;Node4</title>
<path fill="none" stroke="#63b8ff" d="M223.77,-122.5C215.66,-122.5 207.41,-122.5 199.21,-122.5"/>
<polygon fill="#63b8ff" stroke="#63b8ff" points="223.73,-126 233.73,-122.5 223.73,-119 223.73,-126"/>
</g>
<!-- Node5 -->
<g id="node5" class="node">
<title>Node5</title>
<g id="a_node5"><a xlink:href="classdev_1_1filechampion_1_1filechampion4j_1_1_file_acl_helper_test.html#ad0faf1f60aa32e6c34397130da5831ff" target="_top" xlink:title=" ">
<polygon fill="white" stroke="#666666" points="195,-89.5 4,-89.5 4,-59.5 195,-59.5 195,-89.5"/>
<text text-anchor="start" x="12" y="-77.5" font-family="Helvetica,sans-Serif" font-size="10.00">dev.filechampion.filechampion4j.</text>
<text text-anchor="middle" x="99.5" y="-66.5" font-family="Helvetica,sans-Serif" font-size="10.00">FileAclHelperTest.testFileSystemFailure</text>
</a>
</g>
</g>
<!-- Node1&#45;&gt;Node5 -->
<g id="edge4" class="edge">
<title>Node1&#45;&gt;Node5</title>
<path fill="none" stroke="#63b8ff" d="M232.96,-104.63C211.71,-99.8 188.9,-94.61 168.3,-89.92"/>
<polygon fill="#63b8ff" stroke="#63b8ff" points="232.05,-108.24 242.58,-107.05 233.6,-101.42 232.05,-108.24"/>
</g>
<!-- Node6 -->
<g id="node6" class="node">
<title>Node6</title>
<g id="a_node6"><a xlink:href="classdev_1_1filechampion_1_1filechampion4j_1_1_file_acl_helper_test.html#aff40c0a17bdb0cfe2699d3daa6068691" target="_top" xlink:title=" ">
<polygon fill="white" stroke="#666666" points="192.5,-41 6.5,-41 6.5,0 192.5,0 192.5,-41"/>
<text text-anchor="start" x="14.5" y="-29" font-family="Helvetica,sans-Serif" font-size="10.00">dev.filechampion.filechampion4j.</text>
<text text-anchor="start" x="14.5" y="-18" font-family="Helvetica,sans-Serif" font-size="10.00">FileAclHelperTest.testGetUserPrinciple</text>
<text text-anchor="middle" x="99.5" y="-7" font-family="Helvetica,sans-Serif" font-size="10.00">Failure</text>
</a>
</g>
</g>
<!-- Node1&#45;&gt;Node6 -->
<g id="edge5" class="edge">
<title>Node1&#45;&gt;Node6</title>
<path fill="none" stroke="#63b8ff" d="M282.52,-100.8C260.52,-85.13 229.03,-64.36 199,-50.5 191.94,-47.24 184.43,-44.22 176.84,-41.46"/>
<polygon fill="#63b8ff" stroke="#63b8ff" points="280.18,-104.15 290.33,-107.17 284.28,-98.48 280.18,-104.15"/>
</g>
</g>
</svg>
