<?xml version="1.0" encoding="UTF-8" standalone="no"?>
<!DOCTYPE svg PUBLIC "-//W3C//DTD SVG 1.1//EN"
 "http://www.w3.org/Graphics/SVG/1.1/DTD/svg11.dtd">
<!-- Generated by graphviz version 8.0.3 (20230416.2022)
 -->
<!-- Title: dev.filechampion.filechampion4j.FileValidator.executePlugin Pages: 1 -->
<svg width="545pt" height="172pt"
 viewBox="0.00 0.00 545.00 172.00" xmlns="http://www.w3.org/2000/svg" xmlns:xlink="http://www.w3.org/1999/xlink">
<g id="graph0" class="graph" transform="scale(1 1) rotate(0) translate(4 168)">
<title>dev.filechampion.filechampion4j.FileValidator.executePlugin</title>
<!-- Node1 -->
<g id="node1" class="node">
<title>Node1</title>
<g id="a_node1"><a xlink:title=" ">
<polygon fill="#999999" stroke="#666666" points="155,-99 0,-99 0,-69 155,-69 155,-99"/>
<text text-anchor="start" x="8" y="-87" font-family="Helvetica,sans-Serif" font-size="10.00">dev.filechampion.filechampion4j.</text>
<text text-anchor="middle" x="77.5" y="-76" font-family="Helvetica,sans-Serif" font-size="10.00">FileValidator.executePlugin</text>
</a>
</g>
</g>
<!-- Node2 -->
<g id="node2" class="node">
<title>Node2</title>
<g id="a_node2"><a xlink:href="classdev_1_1filechampion_1_1filechampion4j_1_1_file_validator.html#a8e5b65357971125d0d18f1ca1a303a82" target="_top" xlink:title=" ">
<polygon fill="white" stroke="#666666" points="346,-164 191,-164 191,-134 346,-134 346,-164"/>
<text text-anchor="start" x="199" y="-152" font-family="Helvetica,sans-Serif" font-size="10.00">dev.filechampion.filechampion4j.</text>
<text text-anchor="middle" x="268.5" y="-141" font-family="Helvetica,sans-Serif" font-size="10.00">FileValidator.deleteTempDir</text>
</a>
</g>
</g>
<!-- Node1&#45;&gt;Node2 -->
<g id="edge1" class="edge">
<title>Node1&#45;&gt;Node2</title>
<path fill="none" stroke="#63b8ff" d="M123.29,-99.4C150.03,-108.6 184.18,-120.35 212.54,-130.1"/>
<polygon fill="#63b8ff" stroke="#63b8ff" points="211.11,-133.65 221.7,-133.59 213.39,-127.03 211.11,-133.65"/>
</g>
<!-- Node3 -->
<g id="node3" class="node">
<title>Node3</title>
<g id="a_node3"><a xlink:href="classdev_1_1filechampion_1_1filechampion4j_1_1_file_validator.html#a4d3fd6787fcd920751c75b9c1d4c878d" target="_top" xlink:title=" ">
<polygon fill="white" stroke="#666666" points="537,-142 382,-142 382,-112 537,-112 537,-142"/>
<text text-anchor="start" x="390" y="-130" font-family="Helvetica,sans-Serif" font-size="10.00">dev.filechampion.filechampion4j.</text>
<text text-anchor="middle" x="459.5" y="-119" font-family="Helvetica,sans-Serif" font-size="10.00">FileValidator.logWarn</text>
</a>
</g>
</g>
<!-- Node1&#45;&gt;Node3 -->
<g id="edge5" class="edge">
<title>Node1&#45;&gt;Node3</title>
<path fill="none" stroke="#63b8ff" d="M155.4,-92.7C217.85,-99.77 305.93,-109.74 371.06,-117.11"/>
<polygon fill="#63b8ff" stroke="#63b8ff" points="370.39,-120.66 380.72,-118.31 371.17,-113.71 370.39,-120.66"/>
</g>
<!-- Node4 -->
<g id="node4" class="node">
<title>Node4</title>
<g id="a_node4"><a xlink:href="classdev_1_1filechampion_1_1filechampion4j_1_1_file_validator.html#a802b48ac84041a593048ed535c839940" target="_top" xlink:title=" ">
<polygon fill="white" stroke="#666666" points="346,-78 191,-78 191,-48 346,-48 346,-78"/>
<text text-anchor="start" x="199" y="-66" font-family="Helvetica,sans-Serif" font-size="10.00">dev.filechampion.filechampion4j.</text>
<text text-anchor="middle" x="268.5" y="-55" font-family="Helvetica,sans-Serif" font-size="10.00">FileValidator.isBlank</text>
</a>
</g>
</g>
<!-- Node1&#45;&gt;Node4 -->
<g id="edge3" class="edge">
<title>Node1&#45;&gt;Node4</title>
<path fill="none" stroke="#63b8ff" d="M155.37,-75.46C163.47,-74.56 171.75,-73.64 179.96,-72.73"/>
<polygon fill="#63b8ff" stroke="#63b8ff" points="180.14,-76.12 189.69,-71.53 179.37,-69.16 180.14,-76.12"/>
</g>
<!-- Node5 -->
<g id="node5" class="node">
<title>Node5</title>
<g id="a_node5"><a xlink:href="classdev_1_1filechampion_1_1filechampion4j_1_1_file_validator.html#aba144d2be101a69816372b3fcdd8a6b0" target="_top" xlink:title=" ">
<polygon fill="white" stroke="#666666" points="346,-30 191,-30 191,0 346,0 346,-30"/>
<text text-anchor="start" x="199" y="-18" font-family="Helvetica,sans-Serif" font-size="10.00">dev.filechampion.filechampion4j.</text>
<text text-anchor="middle" x="268.5" y="-7" font-family="Helvetica,sans-Serif" font-size="10.00">FileValidator.logFine</text>
</a>
</g>
</g>
<!-- Node1&#45;&gt;Node5 -->
<g id="edge4" class="edge">
<title>Node1&#45;&gt;Node5</title>
<path fill="none" stroke="#63b8ff" d="M114.96,-68.59C136.85,-59.55 165.34,-48.14 191,-39 195.83,-37.28 200.85,-35.56 205.91,-33.87"/>
<polygon fill="#63b8ff" stroke="#63b8ff" points="206.88,-36.91 215.29,-30.47 204.7,-30.26 206.88,-36.91"/>
</g>
<!-- Node2&#45;&gt;Node3 -->
<g id="edge2" class="edge">
<title>Node2&#45;&gt;Node3</title>
<path fill="none" stroke="#63b8ff" d="M346.37,-140.05C354.47,-139.11 362.75,-138.14 370.96,-137.19"/>
<polygon fill="#63b8ff" stroke="#63b8ff" points="371.17,-140.57 380.69,-135.94 370.36,-133.62 371.17,-140.57"/>
</g>
</g>
</svg>
