<?xml version="1.0" encoding="UTF-8" standalone="no"?>
<!DOCTYPE svg PUBLIC "-//W3C//DTD SVG 1.1//EN"
 "http://www.w3.org/Graphics/SVG/1.1/DTD/svg11.dtd">
<!-- Generated by graphviz version 8.0.3 (20230416.2022)
 -->
<!-- Title: dev.filechampion.filechampion4j.PluginsHelper.PluginConfig Pages: 1 -->
<svg width="250pt" height="397pt"
 viewBox="0.00 0.00 249.50 397.00" xmlns="http://www.w3.org/2000/svg" xmlns:xlink="http://www.w3.org/1999/xlink">
<g id="graph0" class="graph" transform="scale(1 1) rotate(0) translate(4 393)">
<title>dev.filechampion.filechampion4j.PluginsHelper.PluginConfig</title>
<!-- Node1 -->
<g id="node1" class="node">
<title>Node1</title>
<g id="a_node1"><a xlink:title=" ">
<polygon fill="#999999" stroke="#666666" points="30,-0.5 30,-145.5 185,-145.5 185,-0.5 30,-0.5"/>
<text text-anchor="start" x="38" y="-133.5" font-family="Helvetica,sans-Serif" font-size="10.00">dev.filechampion.filechampion4j.</text>
<text text-anchor="middle" x="107.5" y="-122.5" font-family="Helvetica,sans-Serif" font-size="10.00">PluginsHelper.PluginConfig</text>
<polyline fill="none" stroke="#666666" points="30,-115.5 185,-115.5"/>
<text text-anchor="start" x="38" y="-103.5" font-family="Helvetica,sans-Serif" font-size="10.00">&#45; String name</text>
<polyline fill="none" stroke="#666666" points="30,-96.5 185,-96.5"/>
<text text-anchor="start" x="38" y="-84.5" font-family="Helvetica,sans-Serif" font-size="10.00">+ String getName()</text>
<text text-anchor="start" x="38" y="-73.5" font-family="Helvetica,sans-Serif" font-size="10.00">+ void setName(String</text>
<text text-anchor="start" x="38" y="-62.5" font-family="Helvetica,sans-Serif" font-size="10.00"> name)</text>
<text text-anchor="start" x="38" y="-51.5" font-family="Helvetica,sans-Serif" font-size="10.00">+ Map&lt; String, StepConfig</text>
<text text-anchor="start" x="38" y="-40.5" font-family="Helvetica,sans-Serif" font-size="10.00"> &gt; getStepConfigs()</text>
<text text-anchor="start" x="38" y="-29.5" font-family="Helvetica,sans-Serif" font-size="10.00">+ void setStepConfigs</text>
<text text-anchor="start" x="38" y="-18.5" font-family="Helvetica,sans-Serif" font-size="10.00">(Map&lt; String, StepConfig</text>
<text text-anchor="start" x="38" y="-7.5" font-family="Helvetica,sans-Serif" font-size="10.00"> &gt; stepConfigs)</text>
</a>
</g>
</g>
<!-- Node2 -->
<g id="node2" class="node">
<title>Node2</title>
<g id="a_node2"><a xlink:title=" ">
<polygon fill="white" stroke="#666666" points="0,-193.5 0,-261.5 215,-261.5 215,-193.5 0,-193.5"/>
<text text-anchor="start" x="8" y="-249.5" font-family="Helvetica,sans-Serif" font-size="10.00">Map&lt; String, dev.filechampion.filechampion4j.</text>
<text text-anchor="middle" x="107.5" y="-238.5" font-family="Helvetica,sans-Serif" font-size="10.00">PluginsHelper.StepConfig &gt;</text>
<polyline fill="none" stroke="#666666" points="0,-231.5 215,-231.5"/>
<text text-anchor="middle" x="107.5" y="-219.5" font-family="Helvetica,sans-Serif" font-size="10.00"> </text>
<polyline fill="none" stroke="#666666" points="0,-212.5 215,-212.5"/>
<text text-anchor="middle" x="107.5" y="-200.5" font-family="Helvetica,sans-Serif" font-size="10.00"> </text>
</a>
</g>
</g>
<!-- Node2&#45;&gt;Node1 -->
<g id="edge1" class="edge">
<title>Node2&#45;&gt;Node1</title>
<path fill="none" stroke="#404040" d="M107.5,-193.78C107.5,-183.09 107.5,-170.67 107.5,-157.96"/>
<polygon fill="none" stroke="#404040" points="107.5,-158.11 103.5,-152.11 107.5,-146.11 111.5,-152.11 107.5,-158.11"/>
<text text-anchor="middle" x="136.5" y="-167" font-family="Helvetica,sans-Serif" font-size="10.00"> &#45;stepConfigs</text>
</g>
<!-- Node3 -->
<g id="node3" class="node">
<title>Node3</title>
<g id="a_node3"><a xlink:title=" ">
<polygon fill="white" stroke="#666666" points="90,-331.5 90,-388.5 125,-388.5 125,-331.5 90,-331.5"/>
<text text-anchor="middle" x="107.5" y="-376.5" font-family="Helvetica,sans-Serif" font-size="10.00">Map</text>
<polyline fill="none" stroke="#666666" points="90,-369.5 125,-369.5"/>
<text text-anchor="middle" x="107.5" y="-357.5" font-family="Helvetica,sans-Serif" font-size="10.00"> </text>
<polyline fill="none" stroke="#666666" points="90,-350.5 125,-350.5"/>
<text text-anchor="middle" x="107.5" y="-338.5" font-family="Helvetica,sans-Serif" font-size="10.00"> </text>
</a>
</g>
</g>
<!-- Node3&#45;&gt;Node2 -->
<g id="edge2" class="edge">
<title>Node3&#45;&gt;Node2</title>
<path fill="none" stroke="orange" d="M107.5,-320.75C107.5,-301.91 107.5,-279.42 107.5,-261.37"/>
<polygon fill="orange" stroke="orange" points="104,-320.64 107.5,-330.64 111,-320.64 104,-320.64"/>
<text text-anchor="start" x="107.5" y="-305" font-family="Helvetica,sans-Serif" font-size="10.00"> &lt; String, dev::filechampion</text>
<text text-anchor="start" x="107.5" y="-294" font-family="Helvetica,sans-Serif" font-size="10.00">::filechampion4j::PluginsHelper</text>
<text text-anchor="middle" x="174.5" y="-283" font-family="Helvetica,sans-Serif" font-size="10.00">::StepConfig &gt;</text>
</g>
</g>
</svg>
