<?xml version="1.0" encoding="UTF-8" standalone="no"?>
<!DOCTYPE svg PUBLIC "-//W3C//DTD SVG 1.1//EN"
 "http://www.w3.org/Graphics/SVG/1.1/DTD/svg11.dtd">
<!-- Generated by graphviz version 8.0.3 (20230416.2022)
 -->
<!-- Title: dev.filechampion.filechampion4j.FileValidator.isBlank Pages: 1 -->
<svg width="1370pt" height="148pt"
 viewBox="0.00 0.00 1370.00 148.00" xmlns="http://www.w3.org/2000/svg" xmlns:xlink="http://www.w3.org/1999/xlink">
<g id="graph0" class="graph" transform="scale(1 1) rotate(0) translate(4 144)">
<title>dev.filechampion.filechampion4j.FileValidator.isBlank</title>
<!-- Node1 -->
<g id="node1" class="node">
<title>Node1</title>
<g id="a_node1"><a xlink:title=" ">
<polygon fill="#999999" stroke="#666666" points="1362,-97 1207,-97 1207,-67 1362,-67 1362,-97"/>
<text text-anchor="start" x="1215" y="-85" font-family="Helvetica,sans-Serif" font-size="10.00">dev.filechampion.filechampion4j.</text>
<text text-anchor="middle" x="1284.5" y="-74" font-family="Helvetica,sans-Serif" font-size="10.00">FileValidator.isBlank</text>
</a>
</g>
</g>
<!-- Node2 -->
<g id="node2" class="node">
<title>Node2</title>
<g id="a_node2"><a xlink:href="classdev_1_1filechampion_1_1filechampion4j_1_1_file_validator.html#a5fc1e662912e9b0e80550aa7b244d394" target="_top" xlink:title=" ">
<polygon fill="white" stroke="#666666" points="745.5,-140 587.5,-140 587.5,-110 745.5,-110 745.5,-140"/>
<text text-anchor="start" x="595.5" y="-128" font-family="Helvetica,sans-Serif" font-size="10.00">dev.filechampion.filechampion4j.</text>
<text text-anchor="middle" x="666.5" y="-117" font-family="Helvetica,sans-Serif" font-size="10.00">FileValidator.checkMethodInputs</text>
</a>
</g>
</g>
<!-- Node1&#45;&gt;Node2 -->
<g id="edge1" class="edge">
<title>Node1&#45;&gt;Node2</title>
<path fill="none" stroke="#63b8ff" d="M1196.03,-93.46C1187.58,-94.39 1179.13,-95.26 1171,-96 1020.8,-109.66 844.78,-118.06 745.68,-122.1"/>
<polygon fill="#63b8ff" stroke="#63b8ff" points="1196.18,-96.85 1205.72,-92.24 1195.39,-89.9 1196.18,-96.85"/>
</g>
<!-- Node5 -->
<g id="node5" class="node">
<title>Node5</title>
<g id="a_node5"><a xlink:href="classdev_1_1filechampion_1_1filechampion4j_1_1_file_validator.html#a48a54a63d062cd23af2d14a6af76899e" target="_top" xlink:title=" ">
<polygon fill="white" stroke="#666666" points="543.5,-87 388.5,-87 388.5,-57 543.5,-57 543.5,-87"/>
<text text-anchor="start" x="396.5" y="-75" font-family="Helvetica,sans-Serif" font-size="10.00">dev.filechampion.filechampion4j.</text>
<text text-anchor="middle" x="466" y="-64" font-family="Helvetica,sans-Serif" font-size="10.00">FileValidator.doValidations</text>
</a>
</g>
</g>
<!-- Node1&#45;&gt;Node5 -->
<g id="edge4" class="edge">
<title>Node1&#45;&gt;Node5</title>
<path fill="none" stroke="#63b8ff" d="M1195.9,-80.93C1035.29,-78.96 696.2,-74.81 543.91,-72.94"/>
<polygon fill="#63b8ff" stroke="#63b8ff" points="1195.64,-84.44 1205.69,-81.06 1195.73,-77.44 1195.64,-84.44"/>
</g>
<!-- Node6 -->
<g id="node6" class="node">
<title>Node6</title>
<g id="a_node6"><a xlink:href="classdev_1_1filechampion_1_1filechampion4j_1_1_file_validator.html#a00a7f2979f0321f1823ce815ecd20945" target="_top" xlink:title=" ">
<polygon fill="white" stroke="#666666" points="1171,-54 1016,-54 1016,-24 1171,-24 1171,-54"/>
<text text-anchor="start" x="1024" y="-42" font-family="Helvetica,sans-Serif" font-size="10.00">dev.filechampion.filechampion4j.</text>
<text text-anchor="middle" x="1093.5" y="-31" font-family="Helvetica,sans-Serif" font-size="10.00">FileValidator.executePlugin</text>
</a>
</g>
</g>
<!-- Node1&#45;&gt;Node6 -->
<g id="edge6" class="edge">
<title>Node1&#45;&gt;Node6</title>
<path fill="none" stroke="#63b8ff" d="M1204.88,-64.11C1190.81,-60.91 1176.25,-57.6 1162.5,-54.47"/>
<polygon fill="#63b8ff" stroke="#63b8ff" points="1204.01,-67.73 1214.53,-66.54 1205.56,-60.91 1204.01,-67.73"/>
</g>
<!-- Node3 -->
<g id="node3" class="node">
<title>Node3</title>
<g id="a_node3"><a xlink:href="classdev_1_1filechampion_1_1filechampion4j_1_1_file_validator.html#a2ac42f051e5724b165e5b0234a1e23f4" target="_top" xlink:title=" ">
<polygon fill="white" stroke="#666666" points="346,-87 191,-87 191,-57 346,-57 346,-87"/>
<text text-anchor="start" x="199" y="-75" font-family="Helvetica,sans-Serif" font-size="10.00">dev.filechampion.filechampion4j.</text>
<text text-anchor="middle" x="268.5" y="-64" font-family="Helvetica,sans-Serif" font-size="10.00">FileValidator.validateFileMain</text>
</a>
</g>
</g>
<!-- Node2&#45;&gt;Node3 -->
<g id="edge2" class="edge">
<title>Node2&#45;&gt;Node3</title>
<path fill="none" stroke="#63b8ff" d="M576.34,-118.37C520.34,-113.59 446.72,-106.18 382,-96 367.11,-93.66 351.21,-90.61 336.2,-87.47"/>
<polygon fill="#63b8ff" stroke="#63b8ff" points="576.04,-121.94 586.29,-119.29 576.62,-114.97 576.04,-121.94"/>
</g>
<!-- Node4 -->
<g id="node4" class="node">
<title>Node4</title>
<g id="a_node4"><a xlink:href="classdev_1_1filechampion_1_1filechampion4j_1_1_file_validator.html#a492adb6357ac22bea8b79d036aa2a287" target="_top" xlink:title=" ">
<polygon fill="white" stroke="#666666" points="155,-87 0,-87 0,-57 155,-57 155,-87"/>
<text text-anchor="start" x="8" y="-75" font-family="Helvetica,sans-Serif" font-size="10.00">dev.filechampion.filechampion4j.</text>
<text text-anchor="middle" x="77.5" y="-64" font-family="Helvetica,sans-Serif" font-size="10.00">FileValidator.validateFile</text>
</a>
</g>
</g>
<!-- Node3&#45;&gt;Node4 -->
<g id="edge3" class="edge">
<title>Node3&#45;&gt;Node4</title>
<path fill="none" stroke="#63b8ff" d="M179.89,-72C171.68,-72 163.41,-72 155.31,-72"/>
<polygon fill="#63b8ff" stroke="#63b8ff" points="179.63,-75.5 189.63,-72 179.63,-68.5 179.63,-75.5"/>
</g>
<!-- Node5&#45;&gt;Node3 -->
<g id="edge5" class="edge">
<title>Node5&#45;&gt;Node3</title>
<path fill="none" stroke="#63b8ff" d="M377.02,-72C366.81,-72 356.46,-72 346.42,-72"/>
<polygon fill="#63b8ff" stroke="#63b8ff" points="377.01,-75.5 387.01,-72 377.01,-68.5 377.01,-75.5"/>
</g>
<!-- Node7 -->
<g id="node7" class="node">
<title>Node7</title>
<g id="a_node7"><a xlink:href="classdev_1_1filechampion_1_1filechampion4j_1_1_file_validator.html#aa9bf0e018f1c94b78ea2e8e3c12eafdd" target="_top" xlink:title=" ">
<polygon fill="white" stroke="#666666" points="980,-54 783,-54 783,-24 980,-24 980,-54"/>
<text text-anchor="start" x="791" y="-42" font-family="Helvetica,sans-Serif" font-size="10.00">dev.filechampion.filechampion4j.</text>
<text text-anchor="middle" x="881.5" y="-31" font-family="Helvetica,sans-Serif" font-size="10.00">FileValidator.executeAfterPluginsProcess</text>
</a>
</g>
</g>
<!-- Node6&#45;&gt;Node7 -->
<g id="edge7" class="edge">
<title>Node6&#45;&gt;Node7</title>
<path fill="none" stroke="#63b8ff" d="M1004.9,-39C996.84,-39 988.64,-39 980.49,-39"/>
<polygon fill="#63b8ff" stroke="#63b8ff" points="1004.79,-42.5 1014.79,-39 1004.79,-35.5 1004.79,-42.5"/>
</g>
<!-- Node9 -->
<g id="node9" class="node">
<title>Node9</title>
<g id="a_node9"><a xlink:href="classdev_1_1filechampion_1_1filechampion4j_1_1_file_validator.html#a617f3b8be7835bbb96df357a412d1bbf" target="_top" xlink:title=" ">
<polygon fill="white" stroke="#666666" points="550,-30 382,-30 382,0 550,0 550,-30"/>
<text text-anchor="start" x="390" y="-18" font-family="Helvetica,sans-Serif" font-size="10.00">dev.filechampion.filechampion4j.</text>
<text text-anchor="middle" x="466" y="-7" font-family="Helvetica,sans-Serif" font-size="10.00">FileValidator.executeBeforePlugins</text>
</a>
</g>
</g>
<!-- Node6&#45;&gt;Node9 -->
<g id="edge10" class="edge">
<title>Node6&#45;&gt;Node9</title>
<path fill="none" stroke="#63b8ff" d="M1020.65,-21.33C1007.22,-18.69 993.24,-16.4 980,-15 829.21,0.91 652.09,-4.34 550.36,-9.65"/>
<polygon fill="#63b8ff" stroke="#63b8ff" points="1019.78,-24.93 1030.27,-23.5 1021.18,-18.07 1019.78,-24.93"/>
</g>
<!-- Node8 -->
<g id="node8" class="node">
<title>Node8</title>
<g id="a_node8"><a xlink:href="classdev_1_1filechampion_1_1filechampion4j_1_1_file_validator.html#aac29042353654b8f6c3975ae885da151" target="_top" xlink:title=" ">
<polygon fill="white" stroke="#666666" points="747,-54 586,-54 586,-24 747,-24 747,-54"/>
<text text-anchor="start" x="594" y="-42" font-family="Helvetica,sans-Serif" font-size="10.00">dev.filechampion.filechampion4j.</text>
<text text-anchor="middle" x="666.5" y="-31" font-family="Helvetica,sans-Serif" font-size="10.00">FileValidator.executeAfterPlugins</text>
</a>
</g>
</g>
<!-- Node7&#45;&gt;Node8 -->
<g id="edge8" class="edge">
<title>Node7&#45;&gt;Node8</title>
<path fill="none" stroke="#63b8ff" d="M771.91,-39C763.67,-39 755.45,-39 747.45,-39"/>
<polygon fill="#63b8ff" stroke="#63b8ff" points="771.73,-42.5 781.73,-39 771.73,-35.5 771.73,-42.5"/>
</g>
<!-- Node8&#45;&gt;Node5 -->
<g id="edge9" class="edge">
<title>Node8&#45;&gt;Node5</title>
<path fill="none" stroke="#63b8ff" d="M574.87,-54.07C564.49,-55.79 553.99,-57.54 543.82,-59.23"/>
<polygon fill="#63b8ff" stroke="#63b8ff" points="575.33,-57.37 584.62,-52.28 574.18,-50.47 575.33,-57.37"/>
</g>
<!-- Node9&#45;&gt;Node3 -->
<g id="edge11" class="edge">
<title>Node9&#45;&gt;Node3</title>
<path fill="none" stroke="#63b8ff" d="M401.74,-33.44C376.13,-40.91 346.9,-49.43 322.45,-56.56"/>
<polygon fill="#63b8ff" stroke="#63b8ff" points="402.47,-36.58 411.09,-30.43 400.51,-29.86 402.47,-36.58"/>
</g>
</g>
</svg>
