<?xml version="1.0" encoding="UTF-8" standalone="no"?>
<!DOCTYPE svg PUBLIC "-//W3C//DTD SVG 1.1//EN"
 "http://www.w3.org/Graphics/SVG/1.1/DTD/svg11.dtd">
<!-- Generated by graphviz version 8.0.3 (20230416.2022)
 -->
<!-- Title: Graph Legend Pages: 1 -->
<svg width="507pt" height="159pt"
 viewBox="0.00 0.00 506.50 159.00" xmlns="http://www.w3.org/2000/svg" xmlns:xlink="http://www.w3.org/1999/xlink">
<g id="graph0" class="graph" transform="scale(1 1) rotate(0) translate(4 155)">
<title>Graph Legend</title>
<!-- Node9 -->
<g id="node1" class="node">
<title>Node9</title>
<g id="a_node1"><a xlink:title=" ">
<polygon fill="#999999" stroke="#666666" points="290.5,-19 237.5,-19 237.5,0 290.5,0 290.5,-19"/>
<text text-anchor="middle" x="264" y="-7" font-family="Helvetica,sans-Serif" font-size="10.00">Inherited</text>
</a>
</g>
</g>
<!-- Node10 -->
<g id="node2" class="node">
<title>Node10</title>
<g id="a_node2"><a xlink:href="url.html" xlink:title=" ">
<polygon fill="white" stroke="#666666" points="66,-85 0,-85 0,-66 66,-66 66,-85"/>
<text text-anchor="middle" x="33" y="-73" font-family="Helvetica,sans-Serif" font-size="10.00">PublicBase</text>
</a>
</g>
</g>
<!-- Node10&#45;&gt;Node9 -->
<g id="edge1" class="edge">
<title>Node10&#45;&gt;Node9</title>
<path fill="none" stroke="#63b8ff" d="M75.62,-62.69C122.83,-49.61 197.51,-28.92 237.18,-17.93"/>
<polygon fill="#63b8ff" stroke="#63b8ff" points="74.82,-59.56 66.12,-65.6 76.69,-66.3 74.82,-59.56"/>
</g>
<!-- Node11 -->
<g id="node3" class="node">
<title>Node11</title>
<g id="a_node3"><a xlink:href="url.html" xlink:title=" ">
<polygon fill="#fff0f0" stroke="red" points="62.5,-151 3.5,-151 3.5,-132 62.5,-132 62.5,-151"/>
<text text-anchor="middle" x="33" y="-139" font-family="Helvetica,sans-Serif" font-size="10.00">Truncated</text>
</a>
</g>
</g>
<!-- Node11&#45;&gt;Node10 -->
<g id="edge2" class="edge">
<title>Node11&#45;&gt;Node10</title>
<path fill="none" stroke="#63b8ff" d="M33,-120.93C33,-109.05 33,-94.46 33,-85.32"/>
<polygon fill="#63b8ff" stroke="#63b8ff" points="29.5,-120.6 33,-130.6 36.5,-120.6 29.5,-120.6"/>
</g>
<!-- Node13 -->
<g id="node4" class="node">
<title>Node13</title>
<polygon fill="white" stroke="#666666" points="165.5,-85 84.5,-85 84.5,-66 165.5,-66 165.5,-85"/>
<text text-anchor="middle" x="125" y="-73" font-family="Helvetica,sans-Serif" font-size="10.00">ProtectedBase</text>
</g>
<!-- Node13&#45;&gt;Node9 -->
<g id="edge3" class="edge">
<title>Node13&#45;&gt;Node9</title>
<path fill="none" stroke="darkgreen" d="M154.1,-61.1C181.37,-48.54 221.37,-30.13 244.84,-19.32"/>
<polygon fill="darkgreen" stroke="darkgreen" points="152.95,-58.24 145.33,-65.6 155.87,-64.6 152.95,-58.24"/>
</g>
<!-- Node14 -->
<g id="node5" class="node">
<title>Node14</title>
<polygon fill="white" stroke="#666666" points="252,-85 184,-85 184,-66 252,-66 252,-85"/>
<text text-anchor="middle" x="218" y="-73" font-family="Helvetica,sans-Serif" font-size="10.00">PrivateBase</text>
</g>
<!-- Node14&#45;&gt;Node9 -->
<g id="edge4" class="edge">
<title>Node14&#45;&gt;Node9</title>
<path fill="none" stroke="#8b1a1a" d="M230.75,-56.76C239.5,-44.58 250.75,-28.94 257.66,-19.32"/>
<polygon fill="#8b1a1a" stroke="#8b1a1a" points="227.39,-54.44 224.4,-64.6 233.07,-58.52 227.39,-54.44"/>
</g>
<!-- Node15 -->
<g id="node6" class="node">
<title>Node15</title>
<g id="a_node6"><a xlink:title=" ">
<polygon fill="#e0e0e0" stroke="#999999" points="352,-85 270,-85 270,-66 352,-66 352,-85"/>
<text text-anchor="middle" x="311" y="-73" font-family="Helvetica,sans-Serif" font-size="10.00">Undocumented</text>
</a>
</g>
</g>
<!-- Node15&#45;&gt;Node9 -->
<g id="edge5" class="edge">
<title>Node15&#45;&gt;Node9</title>
<path fill="none" stroke="#63b8ff" d="M297.97,-56.76C289.03,-44.58 277.54,-28.94 270.48,-19.32"/>
<polygon fill="#63b8ff" stroke="#63b8ff" points="295.72,-58.61 304.46,-64.6 301.37,-54.47 295.72,-58.61"/>
</g>
<!-- Node16 -->
<g id="node7" class="node">
<title>Node16</title>
<polygon fill="white" stroke="#666666" points="441.5,-85 370.5,-85 370.5,-66 441.5,-66 441.5,-85"/>
<text text-anchor="middle" x="406" y="-73" font-family="Helvetica,sans-Serif" font-size="10.00">Templ&lt; int &gt;</text>
</g>
<!-- Node16&#45;&gt;Node9 -->
<g id="edge6" class="edge">
<title>Node16&#45;&gt;Node9</title>
<path fill="none" stroke="#63b8ff" d="M376.27,-61.1C348.41,-48.54 307.55,-30.13 283.58,-19.32"/>
<polygon fill="#63b8ff" stroke="#63b8ff" points="374.7,-64.68 385.26,-65.6 377.58,-58.3 374.7,-64.68"/>
</g>
<!-- Node17 -->
<g id="node8" class="node">
<title>Node17</title>
<polygon fill="white" stroke="#666666" points="439,-151 373,-151 373,-132 439,-132 439,-151"/>
<text text-anchor="middle" x="406" y="-139" font-family="Helvetica,sans-Serif" font-size="10.00">Templ&lt; T &gt;</text>
</g>
<!-- Node17&#45;&gt;Node16 -->
<g id="edge7" class="edge">
<title>Node17&#45;&gt;Node16</title>
<path fill="none" stroke="orange" stroke-dasharray="5,2" d="M406,-120.93C406,-109.05 406,-94.46 406,-85.32"/>
<polygon fill="orange" stroke="orange" points="402.5,-120.6 406,-130.6 409.5,-120.6 402.5,-120.6"/>
<text text-anchor="middle" x="420.5" y="-106" font-family="Helvetica,sans-Serif" font-size="10.00">&lt; int &gt;</text>
</g>
<!-- Node18 -->
<g id="node9" class="node">
<title>Node18</title>
<polygon fill="white" stroke="#666666" points="498.5,-85 459.5,-85 459.5,-66 498.5,-66 498.5,-85"/>
<text text-anchor="middle" x="479" y="-73" font-family="Helvetica,sans-Serif" font-size="10.00">Used</text>
</g>
<!-- Node18&#45;&gt;Node9 -->
<g id="edge8" class="edge">
<title>Node18&#45;&gt;Node9</title>
<path fill="none" stroke="#9a32cd" stroke-dasharray="5,2" d="M448.82,-65.36C387.12,-46.86 325.4,-28.6 290.96,-18.44"/>
<polygon fill="#9a32cd" stroke="#9a32cd" points="447.54,-68.93 458.12,-68.45 449.55,-62.22 447.54,-68.93"/>
<text text-anchor="middle" x="419" y="-40" font-family="Helvetica,sans-Serif" font-size="10.00">m_usedClass</text>
</g>
</g>
</svg>
